<svg width="233" height="105" viewBox="0 0 233 105" fill="none" xmlns="http://www.w3.org/2000/svg">
<rect x="4" y="57" width="225" height="44" rx="2" fill="white"/>
<path d="M1 55C1 54.4477 1.44772 54 2 54H231C231.552 54 232 54.4477 232 55V103C232 103.552 231.552 104 231 104H1.99999C1.44771 104 1 103.552 1 103V55Z" stroke="#A7DFDE" stroke-width="2"/>
<g filter="url(#filter0_d)">
<circle cx="116.086" cy="33.4894" r="10.9538" fill="white"/>
</g>
<circle cx="116.086" cy="33.4895" r="11.4895" stroke="#A7DFDE" stroke-width="2"/>
<path d="M19.5038 86.6531H22.5518V69.8531H19.5038V86.6531ZM33.3917 74.1011C31.5197 74.1011 30.0557 74.9411 29.3837 76.3091V74.4371H26.5037V86.6531H29.4317V79.6451C29.4317 77.8211 30.6077 76.7891 32.3837 76.7891C33.9917 76.7891 34.7117 77.6291 34.7117 79.4771V86.6531H37.6397V78.7331C37.6397 75.7571 36.0317 74.1011 33.3917 74.1011ZM42.6636 72.3971C43.7676 72.3971 44.5116 71.6291 44.5116 70.5731C44.5116 69.5171 43.7676 68.7491 42.6636 68.7491C41.5356 68.7491 40.7916 69.5171 40.7916 70.5731C40.7916 71.6291 41.5356 72.3971 42.6636 72.3971ZM40.0476 91.8131C42.9276 91.8131 44.1276 90.4451 44.1276 87.9971V74.4371H41.1996V87.5171C41.1996 88.6691 40.7676 89.2211 39.5196 89.2211C39.1836 89.2211 38.8476 89.1731 38.4156 89.1011V91.6451C38.9676 91.7651 39.4956 91.8131 40.0476 91.8131ZM59.1609 80.2931C59.1609 76.5731 56.7609 74.1011 53.2089 74.1011C49.5129 74.1011 47.0169 76.8131 47.0169 80.6051C47.0169 84.4451 49.5849 86.9891 53.4969 86.9891C55.7529 86.9891 57.5769 86.1251 58.7529 84.6371L57.0009 82.9091C56.1129 83.9411 54.9609 84.4451 53.5929 84.4451C51.6009 84.4451 50.3049 83.3891 49.9929 81.4211H59.0889C59.1369 81.0371 59.1609 80.6531 59.1609 80.2931ZM53.2329 76.6451C54.9849 76.6451 56.0889 77.6291 56.2329 79.4291H49.9929C50.3049 77.6771 51.4329 76.6451 53.2329 76.6451ZM67.4601 86.9891C69.9801 86.9891 72.0681 85.7651 72.9561 83.6051L70.5561 82.2611C69.8601 83.7251 68.8521 84.3251 67.6281 84.3251C65.5641 84.3251 64.2201 82.8371 64.2201 80.5571C64.2201 78.2531 65.5641 76.7891 67.6281 76.7891C68.8521 76.7891 69.8601 77.3651 70.5561 78.8291L72.9801 77.4851C72.0681 75.3491 70.0281 74.1011 67.4601 74.1011C63.8121 74.1011 61.2201 76.7651 61.2201 80.5571C61.2201 84.3251 63.8121 86.9891 67.4601 86.9891ZM80.5286 86.8451C81.3206 86.8451 82.1126 86.7491 82.9046 86.5091V84.0371C82.2806 84.1811 81.6566 84.2291 81.1526 84.2291C79.9046 84.2291 79.4006 83.8211 79.4006 82.7411V77.0051H82.8566V74.4371H79.4006V70.8371H76.4726V74.4371H74.1686V77.0051H76.4726V83.1251C76.4726 85.6691 77.7686 86.8451 80.5286 86.8451ZM87.0776 72.3971C88.1816 72.3971 88.9256 71.6291 88.9256 70.5731C88.9256 69.5171 88.1816 68.7491 87.0776 68.7491C85.9496 68.7491 85.2056 69.5171 85.2056 70.5731C85.2056 71.6291 85.9496 72.3971 87.0776 72.3971ZM85.6136 86.6531H88.5416V74.4371H85.6136V86.6531ZM97.863 86.9891C101.799 86.9891 104.295 84.0851 104.295 80.5571C104.295 77.0051 101.799 74.1011 97.863 74.1011C93.951 74.1011 91.431 77.0051 91.431 80.5571C91.431 84.0851 93.951 86.9891 97.863 86.9891ZM97.863 84.3251C95.751 84.3251 94.431 82.7651 94.431 80.5571C94.431 78.3251 95.751 76.7651 97.863 76.7651C99.975 76.7651 101.295 78.3251 101.295 80.5571C101.295 82.7651 99.975 84.3251 97.863 84.3251ZM114.064 74.1011C112.192 74.1011 110.728 74.9411 110.056 76.3091V74.4371H107.176V86.6531H110.104V79.6451C110.104 77.8211 111.28 76.7891 113.056 76.7891C114.664 76.7891 115.384 77.6291 115.384 79.4771V86.6531H118.312V78.7331C118.312 75.7571 116.704 74.1011 114.064 74.1011ZM133.31 86.9891C137.462 86.9891 139.814 84.8771 139.814 81.8051C139.814 79.4531 138.422 77.8691 135.206 77.1011L132.446 76.4531C130.454 75.9731 129.83 75.3251 129.83 74.3651C129.83 73.0691 130.934 72.2531 132.974 72.2531C134.846 72.2531 136.31 72.9251 137.222 74.1971L139.406 72.5891C138.422 70.7411 136.07 69.5171 133.022 69.5171C129.086 69.5171 126.734 71.5571 126.734 74.4131C126.734 76.7651 128.318 78.3731 131.462 79.1171L134.174 79.7651C136.046 80.2211 136.718 80.8931 136.718 81.9491C136.718 83.3411 135.542 84.2531 133.406 84.2531C131.222 84.2531 129.446 83.3171 128.462 81.6131L126.254 83.1971C127.358 85.5491 129.902 86.9891 133.31 86.9891ZM150.419 74.4371L147.299 83.4131L143.987 74.4371H140.891L145.787 86.6531L144.035 91.4291H146.963L153.539 74.4371H150.419ZM162.124 74.2211C160.444 74.2211 159.124 75.0611 158.524 76.4771V74.4371H155.644V86.6531H158.572V80.6291C158.572 78.0851 159.7 77.0051 161.836 77.0051C162.244 77.0051 162.724 77.0531 163.18 77.1251V74.3891C162.844 74.2691 162.508 74.2211 162.124 74.2211ZM167.093 72.3971C168.197 72.3971 168.941 71.6291 168.941 70.5731C168.941 69.5171 168.197 68.7491 167.093 68.7491C165.965 68.7491 165.221 69.5171 165.221 70.5731C165.221 71.6291 165.965 72.3971 167.093 72.3971ZM165.629 86.6531H168.557V74.4371H165.629V86.6531ZM179.103 74.1011C177.231 74.1011 175.767 74.9411 175.095 76.3091V74.4371H172.215V86.6531H175.143V79.6451C175.143 77.8211 176.319 76.7891 178.095 76.7891C179.703 76.7891 180.423 77.6291 180.423 79.4771V86.6531H183.351V78.7331C183.351 75.7571 181.743 74.1011 179.103 74.1011ZM195.935 74.4371V76.4291C195.215 74.9651 193.631 74.1011 191.759 74.1011C188.495 74.1011 186.119 76.6931 186.119 80.3651C186.119 84.0371 188.495 86.5331 191.735 86.5331C193.655 86.5331 195.239 85.6691 195.935 84.2291V85.2371C195.935 87.8051 194.519 89.1731 192.071 89.1731C190.559 89.1731 189.095 88.6451 187.919 87.7091L186.503 89.8451C187.799 91.0451 189.863 91.7891 192.215 91.7891C196.439 91.7891 198.815 89.3891 198.815 85.2371V74.4371H195.935ZM192.575 83.9411C190.463 83.9411 189.143 82.4291 189.143 80.3411C189.143 78.2531 190.463 76.7411 192.575 76.7411C194.663 76.7411 196.007 78.2531 196.007 80.3411C196.007 82.4291 194.663 83.9411 192.575 83.9411ZM213.825 80.2931C213.825 76.5731 211.425 74.1011 207.873 74.1011C204.177 74.1011 201.681 76.8131 201.681 80.6051C201.681 84.4451 204.249 86.9891 208.161 86.9891C210.417 86.9891 212.241 86.1251 213.417 84.6371L211.665 82.9091C210.777 83.9411 209.625 84.4451 208.257 84.4451C206.265 84.4451 204.969 83.3891 204.657 81.4211H213.753C213.801 81.0371 213.825 80.6531 213.825 80.2931ZM207.897 76.6451C209.649 76.6451 210.753 77.6291 210.897 79.4291H204.657C204.969 77.6771 206.097 76.6451 207.897 76.6451Z" fill="#020828"/>
<defs>
<filter id="filter0_d" x="79.1323" y="0.535645" width="73.9075" height="73.9075" filterUnits="userSpaceOnUse" color-interpolation-filters="sRGB">
<feFlood flood-opacity="0" result="BackgroundImageFix"/>
<feColorMatrix in="SourceAlpha" type="matrix" values="0 0 0 0 0 0 0 0 0 0 0 0 0 0 0 0 0 0 127 0" result="hardAlpha"/>
<feOffset dy="4"/>
<feGaussianBlur stdDeviation="13"/>
<feComposite in2="hardAlpha" operator="out"/>
<feColorMatrix type="matrix" values="0 0 0 0 0 0 0 0 0 0 0 0 0 0 0 0 0 0 0.04 0"/>
<feBlend mode="normal" in2="BackgroundImageFix" result="effect1_dropShadow"/>
<feBlend mode="normal" in="SourceGraphic" in2="effect1_dropShadow" result="shape"/>
</filter>
</defs>
</svg>
