<svg width="119" height="105" viewBox="0 0 119 105" fill="none" xmlns="http://www.w3.org/2000/svg">
<rect x="4" y="57" width="111" height="44" rx="2" fill="white"/>
<path d="M1 55C1 54.4477 1.44772 54 2 54H117C117.552 54 118 54.4477 118 55V103C118 103.552 117.552 104 117 104H2C1.44772 104 1 103.552 1 103V55Z" stroke="#A7DFDE" stroke-width="2"/>
<g filter="url(#filter0_d)">
<circle cx="58.8693" cy="33.4894" r="10.9538" fill="white"/>
</g>
<circle cx="58.8694" cy="33.4895" r="11.4895" stroke="#A7DFDE" stroke-width="2"/>
<path d="M30.8687 70.8516V82.7556L22.0127 70.8516H19.1567V87.6516H22.1567V75.7476L30.9887 87.6516H33.8447V70.8516H30.8687ZM49.1587 81.2916C49.1587 77.5716 46.7587 75.0996 43.2067 75.0996C39.5107 75.0996 37.0147 77.8116 37.0147 81.6036C37.0147 85.4436 39.5827 87.9876 43.4947 87.9876C45.7507 87.9876 47.5747 87.1236 48.7507 85.6356L46.9987 83.9076C46.1107 84.9396 44.9587 85.4436 43.5907 85.4436C41.5987 85.4436 40.3027 84.3876 39.9907 82.4196H49.0867C49.1347 82.0356 49.1587 81.6516 49.1587 81.2916ZM43.2307 77.6436C44.9827 77.6436 46.0867 78.6276 46.2307 80.4276H39.9907C40.3027 78.6756 41.4307 77.6436 43.2307 77.6436ZM63.3619 81.2916C63.3619 77.5716 60.9619 75.0996 57.4099 75.0996C53.7139 75.0996 51.2179 77.8116 51.2179 81.6036C51.2179 85.4436 53.7859 87.9876 57.6979 87.9876C59.9539 87.9876 61.7779 87.1236 62.9539 85.6356L61.2019 83.9076C60.3139 84.9396 59.1619 85.4436 57.7939 85.4436C55.8019 85.4436 54.5059 84.3876 54.1939 82.4196H63.2899C63.3379 82.0356 63.3619 81.6516 63.3619 81.2916ZM57.4339 77.6436C59.1859 77.6436 60.2899 78.6276 60.4339 80.4276H54.1939C54.5059 78.6756 55.6339 77.6436 57.4339 77.6436ZM75.165 70.0836V77.3076C74.421 75.9156 72.837 75.0996 71.037 75.0996C67.773 75.0996 65.421 77.7396 65.421 81.5556C65.421 85.3716 67.773 87.9876 71.037 87.9876C72.885 87.9876 74.493 87.1476 75.213 85.7076V87.6516H78.093V70.0836H75.165ZM71.853 85.3236C69.741 85.3236 68.421 83.7636 68.421 81.5556C68.421 79.3236 69.741 77.7636 71.853 77.7636C73.965 77.7636 75.285 79.3236 75.285 81.5556C75.285 83.7636 73.965 85.3236 71.853 85.3236ZM81.7515 87.6516H84.6795V70.0836H81.7515V87.6516ZM99.69 81.2916C99.69 77.5716 97.29 75.0996 93.738 75.0996C90.042 75.0996 87.546 77.8116 87.546 81.6036C87.546 85.4436 90.114 87.9876 94.026 87.9876C96.282 87.9876 98.106 87.1236 99.282 85.6356L97.53 83.9076C96.642 84.9396 95.49 85.4436 94.122 85.4436C92.13 85.4436 90.834 84.3876 90.522 82.4196H99.618C99.666 82.0356 99.69 81.6516 99.69 81.2916ZM93.762 77.6436C95.514 77.6436 96.618 78.6276 96.762 80.4276H90.522C90.834 78.6756 91.962 77.6436 93.762 77.6436Z" fill="#020828"/>
<defs>
<filter id="filter0_d" x="21.9155" y="0.535645" width="73.9075" height="73.9075" filterUnits="userSpaceOnUse" color-interpolation-filters="sRGB">
<feFlood flood-opacity="0" result="BackgroundImageFix"/>
<feColorMatrix in="SourceAlpha" type="matrix" values="0 0 0 0 0 0 0 0 0 0 0 0 0 0 0 0 0 0 127 0" result="hardAlpha"/>
<feOffset dy="4"/>
<feGaussianBlur stdDeviation="13"/>
<feComposite in2="hardAlpha" operator="out"/>
<feColorMatrix type="matrix" values="0 0 0 0 0 0 0 0 0 0 0 0 0 0 0 0 0 0 0.04 0"/>
<feBlend mode="normal" in2="BackgroundImageFix" result="effect1_dropShadow"/>
<feBlend mode="normal" in="SourceGraphic" in2="effect1_dropShadow" result="shape"/>
</filter>
</defs>
</svg>
