<svg width="173" height="97" viewBox="0 0 173 97" fill="none" xmlns="http://www.w3.org/2000/svg">
<rect x="4" y="57" width="165" height="36" rx="2" fill="white"/>
<path d="M1 55C1 54.4477 1.44772 54 2 54H171C171.552 54 172 54.4477 172 55V95C172 95.5523 171.552 96 171 96H2C1.44771 96 1 95.5523 1 95V55Z" stroke="#A7DFDE" stroke-width="2"/>
<g filter="url(#filter0_d)">
<circle cx="85.8693" cy="33.4894" r="10.9538" fill="white"/>
</g>
<circle cx="85.8694" cy="33.4895" r="11.4895" stroke="#A7DFDE" stroke-width="2"/>
<path d="M29.7264 68.4V70.38H26.1804V81H24.1104V70.38H20.5464V68.4H29.7264ZM31.0439 77.328C31.1879 78.012 31.5179 78.54 32.0339 78.912C32.5499 79.272 33.1799 79.452 33.9239 79.452C34.9559 79.452 35.7299 79.08 36.2459 78.336L37.8479 79.272C36.9599 80.58 35.6459 81.234 33.9059 81.234C32.4419 81.234 31.2599 80.79 30.3599 79.902C29.4599 79.002 29.0099 77.868 29.0099 76.5C29.0099 75.156 29.4539 74.034 30.3419 73.134C31.2299 72.222 32.3699 71.766 33.7619 71.766C35.0819 71.766 36.1619 72.228 37.0019 73.152C37.8539 74.076 38.2799 75.198 38.2799 76.518C38.2799 76.722 38.2559 76.992 38.2079 77.328H31.0439ZM31.0259 75.744H36.3179C36.1859 75.012 35.8799 74.46 35.3999 74.088C34.9319 73.716 34.3799 73.53 33.7439 73.53C33.0239 73.53 32.4239 73.728 31.9439 74.124C31.4639 74.52 31.1579 75.06 31.0259 75.744ZM41.9344 73.512C42.4264 72.396 43.3504 71.838 44.7064 71.838V73.944C43.9624 73.896 43.3144 74.076 42.7624 74.484C42.2104 74.88 41.9344 75.54 41.9344 76.464V81H39.9904V72H41.9344V73.512ZM52.2088 72H54.1528V81H52.2088V79.848C51.6208 80.772 50.6908 81.234 49.4188 81.234C48.3868 81.234 47.5528 80.904 46.9168 80.244C46.2808 79.584 45.9628 78.678 45.9628 77.526V72H47.9068V77.328C47.9068 78 48.0868 78.516 48.4468 78.876C48.8068 79.236 49.2988 79.416 49.9228 79.416C50.6068 79.416 51.1588 79.206 51.5788 78.786C51.9988 78.354 52.2088 77.7 52.2088 76.824V72ZM66.254 71.766C67.274 71.766 68.096 72.096 68.72 72.756C69.344 73.416 69.656 74.304 69.656 75.42V81H67.712V75.546C67.712 74.922 67.556 74.442 67.244 74.106C66.932 73.758 66.506 73.584 65.966 73.584C65.366 73.584 64.886 73.782 64.526 74.178C64.178 74.574 64.004 75.168 64.004 75.96V81H62.06V75.546C62.06 74.922 61.91 74.442 61.61 74.106C61.322 73.758 60.908 73.584 60.368 73.584C59.78 73.584 59.3 73.788 58.928 74.196C58.556 74.592 58.37 75.18 58.37 75.96V81H56.426V72H58.37V73.08C58.946 72.204 59.804 71.766 60.944 71.766C62.096 71.766 62.948 72.24 63.5 73.188C64.1 72.24 65.018 71.766 66.254 71.766ZM75.9845 81.234C74.6645 81.234 73.5425 80.778 72.6185 79.866C71.6945 78.954 71.2325 77.832 71.2325 76.5C71.2325 75.168 71.6945 74.046 72.6185 73.134C73.5425 72.222 74.6645 71.766 75.9845 71.766C77.3165 71.766 78.4385 72.222 79.3505 73.134C80.2745 74.046 80.7365 75.168 80.7365 76.5C80.7365 77.832 80.2745 78.954 79.3505 79.866C78.4385 80.778 77.3165 81.234 75.9845 81.234ZM73.9865 78.534C74.5265 79.074 75.1925 79.344 75.9845 79.344C76.7765 79.344 77.4425 79.074 77.9825 78.534C78.5225 77.994 78.7925 77.316 78.7925 76.5C78.7925 75.684 78.5225 75.006 77.9825 74.466C77.4425 73.926 76.7765 73.656 75.9845 73.656C75.1925 73.656 74.5265 73.926 73.9865 74.466C73.4465 75.006 73.1765 75.684 73.1765 76.5C73.1765 77.316 73.4465 77.994 73.9865 78.534ZM86.4184 81V79.38L90.8104 74.898C91.8784 73.83 92.4124 72.906 92.4124 72.126C92.4124 71.514 92.2264 71.04 91.8544 70.704C91.4944 70.356 91.0324 70.182 90.4684 70.182C89.4124 70.182 88.6324 70.704 88.1284 71.748L86.3824 70.722C86.7784 69.882 87.3364 69.246 88.0564 68.814C88.7764 68.382 89.5744 68.166 90.4504 68.166C91.5544 68.166 92.5024 68.514 93.2944 69.21C94.0864 69.906 94.4824 70.854 94.4824 72.054C94.4824 73.338 93.7684 74.706 92.3404 76.158L89.4964 79.002H94.7164V81H86.4184ZM104.66 72.468C104.66 73.428 104.408 74.274 103.904 75.006L99.9258 81H97.5498L100.43 76.77H100.214C98.9058 76.77 97.8318 76.374 96.9918 75.582C96.1638 74.778 95.7498 73.74 95.7498 72.468C95.7498 71.196 96.1638 70.164 96.9918 69.372C97.8318 68.568 98.9058 68.166 100.214 68.166C101.522 68.166 102.59 68.568 103.418 69.372C104.246 70.164 104.66 71.196 104.66 72.468ZM97.8198 72.468C97.8198 73.164 98.0418 73.728 98.4858 74.16C98.9418 74.592 99.5178 74.808 100.214 74.808C100.91 74.808 101.48 74.598 101.924 74.178C102.368 73.746 102.59 73.176 102.59 72.468C102.59 71.76 102.368 71.196 101.924 70.776C101.48 70.344 100.91 70.128 100.214 70.128C99.5178 70.128 98.9418 70.344 98.4858 70.776C98.0418 71.196 97.8198 71.76 97.8198 72.468ZM118.626 74.484V75.348C118.626 77.076 118.056 78.492 116.916 79.596C115.776 80.688 114.288 81.234 112.452 81.234C110.508 81.234 108.9 80.604 107.628 79.344C106.368 78.084 105.738 76.536 105.738 74.7C105.738 72.876 106.368 71.334 107.628 70.074C108.9 68.802 110.472 68.166 112.344 68.166C113.52 68.166 114.594 68.436 115.566 68.976C116.538 69.516 117.294 70.242 117.834 71.154L116.052 72.18C115.716 71.58 115.218 71.1 114.558 70.74C113.898 70.368 113.16 70.182 112.344 70.182C111.024 70.182 109.938 70.614 109.086 71.478C108.234 72.342 107.808 73.422 107.808 74.718C107.808 76.014 108.234 77.088 109.086 77.94C109.95 78.792 111.078 79.218 112.47 79.218C113.586 79.218 114.492 78.96 115.188 78.444C115.896 77.916 116.346 77.214 116.538 76.338H112.326V74.484H118.626ZM133.209 68.4V70.38H129.663V81H127.593V70.38H124.029V68.4H133.209ZM137.403 81L133.839 68.4H136.017L138.663 78.246L141.525 68.4H143.433L146.277 78.246L148.923 68.4H151.101L147.537 81H145.143L142.479 71.802L139.797 81H137.403Z" fill="#020828"/>
<defs>
<filter id="filter0_d" x="48.9155" y="0.535645" width="73.9077" height="73.9075" filterUnits="userSpaceOnUse" color-interpolation-filters="sRGB">
<feFlood flood-opacity="0" result="BackgroundImageFix"/>
<feColorMatrix in="SourceAlpha" type="matrix" values="0 0 0 0 0 0 0 0 0 0 0 0 0 0 0 0 0 0 127 0" result="hardAlpha"/>
<feOffset dy="4"/>
<feGaussianBlur stdDeviation="13"/>
<feComposite in2="hardAlpha" operator="out"/>
<feColorMatrix type="matrix" values="0 0 0 0 0 0 0 0 0 0 0 0 0 0 0 0 0 0 0.04 0"/>
<feBlend mode="normal" in2="BackgroundImageFix" result="effect1_dropShadow"/>
<feBlend mode="normal" in="SourceGraphic" in2="effect1_dropShadow" result="shape"/>
</filter>
</defs>
</svg>
