<svg width="171" height="97" viewBox="0 0 171 97" fill="none" xmlns="http://www.w3.org/2000/svg">
<rect x="4" y="57" width="163" height="36" rx="2" fill="white"/>
<path d="M1 55C1 54.4477 1.44772 54 2 54H169C169.552 54 170 54.4477 170 55V95C170 95.5523 169.552 96 169 96H2C1.44772 96 1 95.5523 1 95V55Z" stroke="#A7DFDE" stroke-width="2"/>
<g filter="url(#filter0_d)">
<circle cx="85.0861" cy="33.4894" r="10.9538" fill="white"/>
</g>
<circle cx="85.0862" cy="33.4895" r="11.4895" stroke="#A7DFDE" stroke-width="2"/>
<path d="M28.8043 81.2981L26.1403 76.7081H23.6923V81.2981H21.6223V68.6981H26.6623C27.7903 68.6981 28.7443 69.0941 29.5243 69.8861C30.3163 70.6661 30.7123 71.6201 30.7123 72.7481C30.7123 73.5521 30.4783 74.2901 30.0103 74.9621C29.5543 75.6221 28.9543 76.1021 28.2103 76.4021L31.0723 81.2981H28.8043ZM23.6923 70.6421V74.8541H26.6623C27.2143 74.8541 27.6823 74.6501 28.0663 74.2421C28.4503 73.8341 28.6423 73.3361 28.6423 72.7481C28.6423 72.1601 28.4503 71.6621 28.0663 71.2541C27.6823 70.8461 27.2143 70.6421 26.6623 70.6421H23.6923ZM33.5908 77.6261C33.7348 78.3101 34.0648 78.8381 34.5808 79.2101C35.0968 79.5701 35.7268 79.7501 36.4708 79.7501C37.5028 79.7501 38.2768 79.3781 38.7928 78.6341L40.3948 79.5701C39.5068 80.8781 38.1928 81.5321 36.4528 81.5321C34.9888 81.5321 33.8068 81.0881 32.9068 80.2001C32.0068 79.3001 31.5568 78.1661 31.5568 76.7981C31.5568 75.4541 32.0008 74.3321 32.8888 73.4321C33.7768 72.5201 34.9168 72.0641 36.3088 72.0641C37.6288 72.0641 38.7088 72.5261 39.5488 73.4501C40.4008 74.3741 40.8268 75.4961 40.8268 76.8161C40.8268 77.0201 40.8028 77.2901 40.7548 77.6261H33.5908ZM33.5728 76.0421H38.8648C38.7328 75.3101 38.4268 74.7581 37.9468 74.3861C37.4788 74.0141 36.9268 73.8281 36.2908 73.8281C35.5708 73.8281 34.9708 74.0261 34.4908 74.4221C34.0108 74.8181 33.7048 75.3581 33.5728 76.0421ZM43.9318 74.7821C43.9318 75.0821 44.0938 75.3221 44.4178 75.5021C44.7538 75.6701 45.1558 75.8201 45.6238 75.9521C46.1038 76.0721 46.5838 76.2161 47.0638 76.3841C47.5438 76.5521 47.9458 76.8401 48.2698 77.2481C48.6058 77.6441 48.7738 78.1481 48.7738 78.7601C48.7738 79.6241 48.4378 80.3021 47.7658 80.7941C47.1058 81.2861 46.2718 81.5321 45.2638 81.5321C44.3758 81.5321 43.6138 81.3461 42.9778 80.9741C42.3418 80.6021 41.8798 80.0861 41.5918 79.4261L43.2658 78.4541C43.5778 79.3181 44.2438 79.7501 45.2638 79.7501C46.2838 79.7501 46.7938 79.4141 46.7938 78.7421C46.7938 78.4541 46.6258 78.2201 46.2898 78.0401C45.9658 77.8601 45.5638 77.7101 45.0838 77.5901C44.6158 77.4581 44.1418 77.3081 43.6618 77.1401C43.1818 76.9721 42.7738 76.6961 42.4378 76.3121C42.1138 75.9161 41.9518 75.4181 41.9518 74.8181C41.9518 73.9901 42.2638 73.3241 42.8878 72.8201C43.5238 72.3161 44.3098 72.0641 45.2458 72.0641C45.9898 72.0641 46.6498 72.2321 47.2258 72.5681C47.8138 72.8921 48.2638 73.3481 48.5758 73.9361L46.9378 74.8541C46.6258 74.1701 46.0618 73.8281 45.2458 73.8281C44.8738 73.8281 44.5618 73.9121 44.3098 74.0801C44.0578 74.2361 43.9318 74.4701 43.9318 74.7821ZM55.1531 74.1701H52.9211V78.4901C52.9211 78.8621 53.0051 79.1321 53.1731 79.3001C53.3411 79.4561 53.5871 79.5461 53.9111 79.5701C54.2471 79.5821 54.6611 79.5761 55.1531 79.5521V81.2981C53.6651 81.4781 52.5971 81.3521 51.9491 80.9201C51.3011 80.4761 50.9771 79.6661 50.9771 78.4901V74.1701H49.3211V72.2981H50.9771V70.3541L52.9211 69.7781V72.2981H55.1531V74.1701ZM63.158 72.2981H65.228L61.772 81.5861C60.908 83.9141 59.444 85.0181 57.38 84.8981V83.0801C57.992 83.1161 58.484 82.9841 58.856 82.6841C59.228 82.3961 59.534 81.9401 59.774 81.3161L59.864 81.1361L56.048 72.2981H58.172L60.854 78.8321L63.158 72.2981ZM66.4436 81.2981V68.1581H68.3876V81.2981H66.4436ZM77.7727 72.2981H79.7167V81.2981H77.7727V80.0021C77.0407 81.0221 75.9907 81.5321 74.6227 81.5321C73.3867 81.5321 72.3307 81.0761 71.4547 80.1641C70.5787 79.2401 70.1407 78.1181 70.1407 76.7981C70.1407 75.4661 70.5787 74.3441 71.4547 73.4321C72.3307 72.5201 73.3867 72.0641 74.6227 72.0641C75.9907 72.0641 77.0407 72.5681 77.7727 73.5761V72.2981ZM72.8947 78.8681C73.4347 79.4081 74.1127 79.6781 74.9287 79.6781C75.7447 79.6781 76.4227 79.4081 76.9627 78.8681C77.5027 78.3161 77.7727 77.6261 77.7727 76.7981C77.7727 75.9701 77.5027 75.2861 76.9627 74.7461C76.4227 74.1941 75.7447 73.9181 74.9287 73.9181C74.1127 73.9181 73.4347 74.1941 72.8947 74.7461C72.3547 75.2861 72.0847 75.9701 72.0847 76.7981C72.0847 77.6261 72.3547 78.3161 72.8947 78.8681ZM86.7166 72.0641C87.7486 72.0641 88.5826 72.3941 89.2186 73.0541C89.8546 73.7141 90.1726 74.6201 90.1726 75.7721V81.2981H88.2286V75.9701C88.2286 75.2981 88.0486 74.7821 87.6886 74.4221C87.3286 74.0621 86.8366 73.8821 86.2126 73.8821C85.5286 73.8821 84.9766 74.0981 84.5566 74.5301C84.1366 74.9501 83.9266 75.5981 83.9266 76.4741V81.2981H81.9826V72.2981H83.9266V73.4501C84.5146 72.5261 85.4446 72.0641 86.7166 72.0641ZM93.7958 77.6261C93.9398 78.3101 94.2698 78.8381 94.7858 79.2101C95.3018 79.5701 95.9318 79.7501 96.6758 79.7501C97.7078 79.7501 98.4818 79.3781 98.9978 78.6341L100.6 79.5701C99.7118 80.8781 98.3978 81.5321 96.6578 81.5321C95.1938 81.5321 94.0118 81.0881 93.1118 80.2001C92.2118 79.3001 91.7618 78.1661 91.7618 76.7981C91.7618 75.4541 92.2058 74.3321 93.0938 73.4321C93.9818 72.5201 95.1218 72.0641 96.5138 72.0641C97.8338 72.0641 98.9138 72.5261 99.7538 73.4501C100.606 74.3741 101.032 75.4961 101.032 76.8161C101.032 77.0201 101.008 77.2901 100.96 77.6261H93.7958ZM93.7778 76.0421H99.0698C98.9378 75.3101 98.6318 74.7581 98.1518 74.3861C97.6838 74.0141 97.1318 73.8281 96.4958 73.8281C95.7758 73.8281 95.1758 74.0261 94.6958 74.4221C94.2158 74.8181 93.9098 75.3581 93.7778 76.0421ZM104.146 70.3901C105.418 69.1181 106.954 68.4821 108.754 68.4821C110.554 68.4821 112.09 69.1181 113.362 70.3901C114.634 71.6621 115.27 73.1981 115.27 74.9981C115.27 76.7981 114.634 78.3341 113.362 79.6061C112.09 80.8781 110.554 81.5141 108.754 81.5141C106.954 81.5141 105.418 80.8781 104.146 79.6061C102.874 78.3341 102.238 76.7981 102.238 74.9981C102.238 73.1981 102.874 71.6621 104.146 70.3901ZM108.754 80.9381C110.386 80.9381 111.772 80.3621 112.912 79.2101C114.064 78.0461 114.64 76.6421 114.64 74.9981C114.64 73.3541 114.064 71.9561 112.912 70.8041C111.772 69.6401 110.386 69.0581 108.754 69.0581C107.134 69.0581 105.748 69.6401 104.596 70.8041C103.444 71.9561 102.868 73.3541 102.868 74.9981C102.868 76.6301 103.444 78.0281 104.596 79.1921C105.748 80.3561 107.134 80.9381 108.754 80.9381ZM111.49 73.8461C111.49 74.7461 111.136 75.4061 110.428 75.8261L111.796 78.3281H109.996L108.934 76.2221H108.124V78.3281H106.468V71.6681H108.934C109.678 71.6681 110.29 71.8781 110.77 72.2981C111.25 72.7061 111.49 73.2221 111.49 73.8461ZM108.124 73.1981V74.7821H108.844C109.156 74.7821 109.396 74.7101 109.564 74.5661C109.744 74.4221 109.834 74.2301 109.834 73.9901C109.834 73.4621 109.504 73.1981 108.844 73.1981H108.124ZM123.729 79.3181H128.859V81.2981H121.659V68.6981H123.729V79.3181ZM135.615 72.2981H137.685L134.229 81.5861C133.365 83.9141 131.901 85.0181 129.837 84.8981V83.0801C130.449 83.1161 130.941 82.9841 131.313 82.6841C131.685 82.3961 131.991 81.9401 132.231 81.3161L132.321 81.1361L128.505 72.2981H130.629L133.311 78.8321L135.615 72.2981ZM143.617 70.3361C142.201 70.2041 141.493 70.7981 141.493 72.1181V72.2981H143.617V74.1701H141.493V81.2981H139.549V74.1701H138.181V72.2981H139.549V72.1181C139.549 70.8821 139.891 69.9461 140.575 69.3101C141.271 68.6621 142.285 68.3801 143.617 68.4641V70.3361ZM150.093 74.1701H147.861V78.4901C147.861 78.8621 147.945 79.1321 148.113 79.3001C148.281 79.4561 148.527 79.5461 148.851 79.5701C149.187 79.5821 149.601 79.5761 150.093 79.5521V81.2981C148.605 81.4781 147.537 81.3521 146.889 80.9201C146.241 80.4761 145.917 79.6661 145.917 78.4901V74.1701H144.261V72.2981H145.917V70.3541L147.861 69.7781V72.2981H150.093V74.1701Z" fill="#020828"/>
<defs>
<filter id="filter0_d" x="48.1323" y="0.535645" width="73.9077" height="73.9075" filterUnits="userSpaceOnUse" color-interpolation-filters="sRGB">
<feFlood flood-opacity="0" result="BackgroundImageFix"/>
<feColorMatrix in="SourceAlpha" type="matrix" values="0 0 0 0 0 0 0 0 0 0 0 0 0 0 0 0 0 0 127 0" result="hardAlpha"/>
<feOffset dy="4"/>
<feGaussianBlur stdDeviation="13"/>
<feComposite in2="hardAlpha" operator="out"/>
<feColorMatrix type="matrix" values="0 0 0 0 0 0 0 0 0 0 0 0 0 0 0 0 0 0 0.04 0"/>
<feBlend mode="normal" in2="BackgroundImageFix" result="effect1_dropShadow"/>
<feBlend mode="normal" in="SourceGraphic" in2="effect1_dropShadow" result="shape"/>
</filter>
</defs>
</svg>
