<svg width="315" height="127" viewBox="0 0 315 127" fill="none" xmlns="http://www.w3.org/2000/svg">
<rect x="1" y="15" width="314" height="112" rx="10" fill="white"/>
<path d="M0.481445 25.4982V3.30014C0.481445 2.35082 1.72494 1.99501 2.2271 2.80065C7.26836 10.8886 14.1373 17.6807 22.2814 22.6306L26.9996 25.4982H0.481445Z" fill="white"/>
<path d="M61.8218 36.6803C62.8138 37.4269 63.3098 38.4616 63.3098 39.7843C63.3098 41.1069 62.8138 42.1416 61.8218 42.8883C60.8404 43.6349 59.5391 44.0456 57.9178 44.1203V45.3843H56.7978V44.1203C55.1764 44.0456 53.8698 43.6349 52.8778 42.8883C51.8964 42.1416 51.4058 41.1069 51.4058 39.7843C51.4058 38.4616 51.8964 37.4269 52.8778 36.6803C53.8698 35.9336 55.1764 35.5229 56.7978 35.4483V34.1843H57.9178V35.4483C59.5391 35.5229 60.8404 35.9336 61.8218 36.6803ZM53.6778 37.4163C52.9098 37.9709 52.5258 38.7603 52.5258 39.7843C52.5258 40.8083 52.9098 41.6029 53.6778 42.1683C54.4458 42.7229 55.4858 43.0323 56.7978 43.0963V36.4723C55.4858 36.5363 54.4458 36.8509 53.6778 37.4163ZM57.9178 43.0963C59.2298 43.0323 60.2698 42.7229 61.0378 42.1683C61.8058 41.6029 62.1898 40.8083 62.1898 39.7843C62.1898 38.7603 61.8058 37.9709 61.0378 37.4163C60.2698 36.8509 59.2298 36.5363 57.9178 36.4723V43.0963ZM70.4092 37.3843H71.3052V45.3843H70.2492V39.2243L65.4812 45.3843H64.5852V37.3843H65.6412V43.5443L70.4092 37.3843ZM79.7783 37.3843V45.3843H78.7223V38.4083H75.1063V41.9763C75.1063 43.3096 74.8503 44.2269 74.3383 44.7283C73.8369 45.2296 73.1436 45.4483 72.2583 45.3843V44.3923C72.8663 44.4563 73.3143 44.3123 73.6023 43.9603C73.9009 43.6083 74.0503 42.9469 74.0503 41.9763V37.3843H79.7783ZM88.2552 37.3843V45.3843H87.1992V38.4083H83.5832V41.9763C83.5832 43.3096 83.3272 44.2269 82.8152 44.7283C82.3138 45.2296 81.6205 45.4483 80.7352 45.3843V44.3923C81.3432 44.4563 81.7912 44.3123 82.0792 43.9603C82.3778 43.6083 82.5272 42.9469 82.5272 41.9763V37.3843H88.2552ZM93.868 37.1923C95.052 37.1923 96.0067 37.6136 96.732 38.4563C97.468 39.2883 97.836 40.2749 97.836 41.4163C97.836 41.5336 97.8254 41.6989 97.804 41.9123H90.78C90.8867 42.7229 91.228 43.3683 91.804 43.8483C92.3907 44.3176 93.1107 44.5523 93.964 44.5523C94.572 44.5523 95.0947 44.4296 95.532 44.1843C95.98 43.9283 96.316 43.5976 96.54 43.1923L97.468 43.7363C97.116 44.3016 96.636 44.7496 96.028 45.0803C95.42 45.4109 94.7267 45.5763 93.948 45.5763C92.6894 45.5763 91.6654 45.1816 90.876 44.3923C90.0867 43.6029 89.692 42.6003 89.692 41.3843C89.692 40.1896 90.0814 39.1923 90.86 38.3923C91.6387 37.5923 92.6414 37.1923 93.868 37.1923ZM93.868 38.2163C93.036 38.2163 92.3374 38.4669 91.772 38.9683C91.2174 39.4589 90.8867 40.0989 90.78 40.8883H96.748C96.6414 40.0456 96.316 39.3896 95.772 38.9203C95.228 38.4509 94.5934 38.2163 93.868 38.2163ZM103.484 37.1923C104.625 37.1923 105.596 37.5976 106.396 38.4083C107.206 39.2189 107.612 40.2109 107.612 41.3843C107.612 42.5576 107.206 43.5496 106.396 44.3603C105.596 45.1709 104.625 45.5763 103.484 45.5763C102.065 45.5763 100.988 44.9896 100.252 43.8163V48.5843H99.1958V37.3843H100.252V38.9523C100.988 37.7789 102.065 37.1923 103.484 37.1923ZM101.164 43.6403C101.772 44.2483 102.518 44.5523 103.404 44.5523C104.289 44.5523 105.036 44.2483 105.644 43.6403C106.252 43.0216 106.556 42.2696 106.556 41.3843C106.556 40.4989 106.252 39.7523 105.644 39.1443C105.036 38.5256 104.289 38.2163 103.404 38.2163C102.518 38.2163 101.772 38.5256 101.164 39.1443C100.556 39.7523 100.252 40.4989 100.252 41.3843C100.252 42.2696 100.556 43.0216 101.164 43.6403ZM117.016 37.1923C118.157 37.1923 119.128 37.5976 119.928 38.4083C120.738 39.2189 121.144 40.2109 121.144 41.3843C121.144 42.5576 120.738 43.5496 119.928 44.3603C119.128 45.1709 118.157 45.5763 117.016 45.5763C115.597 45.5763 114.52 44.9896 113.784 43.8163V48.5843H112.728V37.3843H113.784V38.9523C114.52 37.7789 115.597 37.1923 117.016 37.1923ZM114.696 43.6403C115.304 44.2483 116.05 44.5523 116.936 44.5523C117.821 44.5523 118.568 44.2483 119.176 43.6403C119.784 43.0216 120.088 42.2696 120.088 41.3843C120.088 40.4989 119.784 39.7523 119.176 39.1443C118.568 38.5256 117.821 38.2163 116.936 38.2163C116.05 38.2163 115.304 38.5256 114.696 39.1443C114.088 39.7523 113.784 40.4989 113.784 41.3843C113.784 42.2696 114.088 43.0216 114.696 43.6403ZM129.46 37.3843H130.516V45.3843H129.46V43.8163C128.724 44.9896 127.646 45.5763 126.228 45.5763C125.086 45.5763 124.11 45.1709 123.3 44.3603C122.5 43.5496 122.1 42.5576 122.1 41.3843C122.1 40.2109 122.5 39.2189 123.3 38.4083C124.11 37.5976 125.086 37.1923 126.228 37.1923C127.646 37.1923 128.724 37.7789 129.46 38.9523V37.3843ZM124.068 43.6403C124.676 44.2483 125.422 44.5523 126.308 44.5523C127.193 44.5523 127.94 44.2483 128.548 43.6403C129.156 43.0216 129.46 42.2696 129.46 41.3843C129.46 40.4989 129.156 39.7523 128.548 39.1443C127.94 38.5256 127.193 38.2163 126.308 38.2163C125.422 38.2163 124.676 38.5256 124.068 39.1443C123.46 39.7523 123.156 40.4989 123.156 41.3843C123.156 42.2696 123.46 43.0216 124.068 43.6403ZM136.559 41.2723C137.487 41.6243 137.951 42.2643 137.951 43.1923C137.951 43.8536 137.69 44.4189 137.167 44.8883C136.655 45.3469 135.919 45.5763 134.959 45.5763C133.349 45.5763 132.293 44.9363 131.791 43.6563L132.687 43.1283C133.018 44.0776 133.775 44.5523 134.959 44.5523C135.578 44.5523 136.053 44.4189 136.383 44.1523C136.725 43.8856 136.895 43.5443 136.895 43.1283C136.895 42.7549 136.757 42.4509 136.479 42.2163C136.202 41.9816 135.829 41.8643 135.359 41.8643H134.191V40.8403H135.039C135.498 40.8403 135.855 40.7283 136.111 40.5043C136.378 40.2696 136.511 39.9496 136.511 39.5443C136.511 39.1603 136.357 38.8456 136.047 38.6003C135.738 38.3443 135.322 38.2163 134.799 38.2163C133.797 38.2163 133.13 38.6163 132.799 39.4163L131.919 38.9043C132.453 37.7629 133.413 37.1923 134.799 37.1923C135.642 37.1923 136.314 37.4163 136.815 37.8643C137.317 38.3016 137.567 38.8403 137.567 39.4803C137.567 40.3016 137.231 40.8989 136.559 41.2723ZM143.524 37.1923C144.666 37.1923 145.636 37.5976 146.436 38.4083C147.247 39.2189 147.652 40.2109 147.652 41.3843C147.652 42.5576 147.247 43.5496 146.436 44.3603C145.636 45.1709 144.666 45.5763 143.524 45.5763C142.106 45.5763 141.028 44.9896 140.292 43.8163V48.5843H139.236V37.3843H140.292V38.9523C141.028 37.7789 142.106 37.1923 143.524 37.1923ZM141.204 43.6403C141.812 44.2483 142.559 44.5523 143.444 44.5523C144.33 44.5523 145.076 44.2483 145.684 43.6403C146.292 43.0216 146.596 42.2696 146.596 41.3843C146.596 40.4989 146.292 39.7523 145.684 39.1443C145.076 38.5256 144.33 38.2163 143.444 38.2163C142.559 38.2163 141.812 38.5256 141.204 39.1443C140.596 39.7523 140.292 40.4989 140.292 41.3843C140.292 42.2696 140.596 43.0216 141.204 43.6403ZM155.968 37.3843H157.024V45.3843H155.968V43.8163C155.232 44.9896 154.155 45.5763 152.736 45.5763C151.595 45.5763 150.619 45.1709 149.808 44.3603C149.008 43.5496 148.608 42.5576 148.608 41.3843C148.608 40.2109 149.008 39.2189 149.808 38.4083C150.619 37.5976 151.595 37.1923 152.736 37.1923C154.155 37.1923 155.232 37.7789 155.968 38.9523V37.3843ZM150.576 43.6403C151.184 44.2483 151.931 44.5523 152.816 44.5523C153.702 44.5523 154.448 44.2483 155.056 43.6403C155.664 43.0216 155.968 42.2696 155.968 41.3843C155.968 40.4989 155.664 39.7523 155.056 39.1443C154.448 38.5256 153.702 38.2163 152.816 38.2163C151.931 38.2163 151.184 38.5256 150.576 39.1443C149.968 39.7523 149.664 40.4989 149.664 41.3843C149.664 42.2696 149.968 43.0216 150.576 43.6403ZM162.492 45.5763C161.34 45.5763 160.38 45.1976 159.612 44.4403C158.844 43.6723 158.46 42.6803 158.46 41.4643C158.46 40.0989 158.663 39.0536 159.068 38.3283C159.473 37.5923 160.295 36.9256 161.532 36.3283C161.767 36.2109 162.076 36.0723 162.46 35.9123C162.855 35.7523 163.148 35.6243 163.34 35.5283C163.543 35.4323 163.761 35.3096 163.996 35.1603C164.231 35.0003 164.407 34.8243 164.524 34.6323C164.641 34.4403 164.716 34.2109 164.748 33.9443L165.58 34.4243C165.537 34.6803 165.452 34.9203 165.324 35.1443C165.196 35.3683 165.063 35.5496 164.924 35.6883C164.796 35.8269 164.588 35.9816 164.3 36.1523C164.023 36.3123 163.804 36.4296 163.644 36.5043C163.495 36.5683 163.228 36.6803 162.844 36.8403C162.471 37.0003 162.22 37.1069 162.092 37.1603C161.345 37.4803 160.796 37.8163 160.444 38.1683C160.092 38.5096 159.841 38.9576 159.692 39.5123C160.055 39.0323 160.513 38.6803 161.068 38.4563C161.633 38.2216 162.183 38.1043 162.716 38.1043C163.783 38.1043 164.663 38.4563 165.356 39.1603C166.06 39.8536 166.412 40.7443 166.412 41.8323C166.412 42.9096 166.039 43.8056 165.292 44.5203C164.556 45.2243 163.623 45.5763 162.492 45.5763ZM162.492 44.5203C163.324 44.5203 164.007 44.2696 164.54 43.7683C165.084 43.2563 165.356 42.6109 165.356 41.8323C165.356 41.0429 165.1 40.3976 164.588 39.8963C164.087 39.3843 163.415 39.1283 162.572 39.1283C161.815 39.1283 161.127 39.3683 160.508 39.8483C159.889 40.3176 159.58 40.9469 159.58 41.7363C159.58 42.5469 159.857 43.2136 160.412 43.7363C160.977 44.2589 161.671 44.5203 162.492 44.5203ZM174.402 44.3763C173.592 45.1763 172.6 45.5763 171.426 45.5763C170.253 45.5763 169.256 45.1763 168.434 44.3763C167.624 43.5656 167.218 42.5683 167.218 41.3843C167.218 40.2003 167.624 39.2083 168.434 38.4083C169.256 37.5976 170.253 37.1923 171.426 37.1923C172.6 37.1923 173.592 37.5976 174.402 38.4083C175.224 39.2083 175.634 40.2003 175.634 41.3843C175.634 42.5683 175.224 43.5656 174.402 44.3763ZM169.186 43.6403C169.794 44.2483 170.541 44.5523 171.426 44.5523C172.312 44.5523 173.058 44.2483 173.666 43.6403C174.274 43.0216 174.578 42.2696 174.578 41.3843C174.578 40.4989 174.274 39.7523 173.666 39.1443C173.058 38.5256 172.312 38.2163 171.426 38.2163C170.541 38.2163 169.794 38.5256 169.186 39.1443C168.578 39.7523 168.274 40.4989 168.274 41.3843C168.274 42.2696 168.578 43.0216 169.186 43.6403ZM182.529 37.3843V38.4083H179.697V45.3843H178.641V38.4083H175.809V37.3843H182.529ZM190.063 37.3843H191.119V45.3843H190.063V43.8163C189.327 44.9896 188.25 45.5763 186.831 45.5763C185.69 45.5763 184.714 45.1709 183.903 44.3603C183.103 43.5496 182.703 42.5576 182.703 41.3843C182.703 40.2109 183.103 39.2189 183.903 38.4083C184.714 37.5976 185.69 37.1923 186.831 37.1923C188.25 37.1923 189.327 37.7789 190.063 38.9523V37.3843ZM184.671 43.6403C185.279 44.2483 186.026 44.5523 186.911 44.5523C187.797 44.5523 188.543 44.2483 189.151 43.6403C189.759 43.0216 190.063 42.2696 190.063 41.3843C190.063 40.4989 189.759 39.7523 189.151 39.1443C188.543 38.5256 187.797 38.2163 186.911 38.2163C186.026 38.2163 185.279 38.5256 184.671 39.1443C184.063 39.7523 183.759 40.4989 183.759 41.3843C183.759 42.2696 184.063 43.0216 184.671 43.6403ZM198.699 37.3843H199.755V45.3843H198.699V41.8963H194.091V45.3843H193.035V37.3843H194.091V40.8723H198.699V37.3843ZM212.068 44.3603H213.188V47.5283H212.132V45.3843H205.604V47.5283H204.548V44.3603H205.524C206.068 43.6456 206.34 42.6376 206.34 41.3363V37.3843H212.068V44.3603ZM206.804 44.3603H211.012V38.4083H207.396V41.3363C207.396 42.5629 207.199 43.5709 206.804 44.3603ZM221.026 37.3843V45.3843H219.97V38.4083H216.354V41.9763C216.354 43.3096 216.098 44.2269 215.586 44.7283C215.084 45.2296 214.391 45.4483 213.506 45.3843V44.3923C214.114 44.4563 214.562 44.3123 214.85 43.9603C215.148 43.6083 215.298 42.9469 215.298 41.9763V37.3843H221.026ZM228.703 37.3843V45.3843H227.647V42.3123H226.271L223.807 45.3843H222.463L224.991 42.2803C224.351 42.1843 223.823 41.9176 223.407 41.4803C222.991 41.0429 222.783 40.5043 222.783 39.8643C222.783 39.1389 223.039 38.5469 223.551 38.0883C224.073 37.6189 224.708 37.3843 225.455 37.3843H228.703ZM225.455 41.3203H227.647V38.4083H225.455C225.007 38.4083 224.623 38.5416 224.303 38.8083C223.993 39.0749 223.839 39.4269 223.839 39.8643C223.839 40.3016 223.993 40.6536 224.303 40.9203C224.623 41.1869 225.007 41.3203 225.455 41.3203ZM57.1338 60.2723C58.0084 60.5923 58.4458 61.2163 58.4458 62.1443C58.4458 62.7949 58.2271 63.3336 57.7898 63.7603C57.3631 64.1763 56.7444 64.3843 55.9338 64.3843H52.0458V56.3843H55.6138C56.3924 56.3843 56.9951 56.5869 57.4218 56.9923C57.8484 57.3869 58.0618 57.8989 58.0618 58.5283C58.0618 59.3283 57.7524 59.9096 57.1338 60.2723ZM55.6138 57.4083H53.1018V59.8403H55.6138C56.5418 59.8403 57.0058 59.4243 57.0058 58.5923C57.0058 58.2189 56.8831 57.9309 56.6378 57.7283C56.4031 57.5149 56.0618 57.4083 55.6138 57.4083ZM55.9338 63.3603C56.4031 63.3603 56.7604 63.2483 57.0058 63.0243C57.2618 62.8003 57.3898 62.4856 57.3898 62.0803C57.3898 61.7069 57.2618 61.4136 57.0058 61.2003C56.7604 60.9763 56.4031 60.8643 55.9338 60.8643H53.1018V63.3603H55.9338ZM66.4298 63.3763C65.6191 64.1763 64.6271 64.5763 63.4538 64.5763C62.2804 64.5763 61.2831 64.1763 60.4618 63.3763C59.6511 62.5656 59.2458 61.5683 59.2458 60.3843C59.2458 59.2003 59.6511 58.2083 60.4618 57.4083C61.2831 56.5976 62.2804 56.1923 63.4538 56.1923C64.6271 56.1923 65.6191 56.5976 66.4298 57.4083C67.2511 58.2083 67.6618 59.2003 67.6618 60.3843C67.6618 61.5683 67.2511 62.5656 66.4298 63.3763ZM61.2138 62.6403C61.8218 63.2483 62.5684 63.5523 63.4538 63.5523C64.3391 63.5523 65.0858 63.2483 65.6938 62.6403C66.3018 62.0216 66.6058 61.2696 66.6058 60.3843C66.6058 59.4989 66.3018 58.7523 65.6938 58.1443C65.0858 57.5256 64.3391 57.2163 63.4538 57.2163C62.5684 57.2163 61.8218 57.5256 61.2138 58.1443C60.6058 58.7523 60.3018 59.4989 60.3018 60.3843C60.3018 61.2696 60.6058 62.0216 61.2138 62.6403ZM72.8369 64.5763C71.6316 64.5763 70.6289 64.1763 69.8289 63.3763C69.0289 62.5656 68.6289 61.5683 68.6289 60.3843C68.6289 59.2003 69.0289 58.2083 69.8289 57.4083C70.6289 56.5976 71.6316 56.1923 72.8369 56.1923C73.6262 56.1923 74.3356 56.3843 74.9649 56.7683C75.5942 57.1416 76.0529 57.6483 76.3409 58.2883L75.4769 58.7843C75.2636 58.3043 74.9169 57.9256 74.4369 57.6483C73.9676 57.3603 73.4342 57.2163 72.8369 57.2163C71.9516 57.2163 71.2049 57.5256 70.5969 58.1443C69.9889 58.7523 69.6849 59.4989 69.6849 60.3843C69.6849 61.2696 69.9889 62.0216 70.5969 62.6403C71.2049 63.2483 71.9516 63.5523 72.8369 63.5523C73.4342 63.5523 73.9676 63.4136 74.4369 63.1363C74.9062 62.8483 75.2742 62.4643 75.5409 61.9843L76.4209 62.4963C76.0902 63.1363 75.6049 63.6429 74.9649 64.0163C74.3249 64.3896 73.6156 64.5763 72.8369 64.5763ZM81.2669 64.5763C80.0616 64.5763 79.0589 64.1763 78.2589 63.3763C77.4589 62.5656 77.0589 61.5683 77.0589 60.3843C77.0589 59.2003 77.4589 58.2083 78.2589 57.4083C79.0589 56.5976 80.0616 56.1923 81.2669 56.1923C82.0562 56.1923 82.7656 56.3843 83.3949 56.7683C84.0242 57.1416 84.4829 57.6483 84.7709 58.2883L83.9069 58.7843C83.6936 58.3043 83.3469 57.9256 82.8669 57.6483C82.3976 57.3603 81.8642 57.2163 81.2669 57.2163C80.3816 57.2163 79.6349 57.5256 79.0269 58.1443C78.4189 58.7523 78.1149 59.4989 78.1149 60.3843C78.1149 61.2696 78.4189 62.0216 79.0269 62.6403C79.6349 63.2483 80.3816 63.5523 81.2669 63.5523C81.8642 63.5523 82.3976 63.4136 82.8669 63.1363C83.3362 62.8483 83.7042 62.4643 83.9709 61.9843L84.8509 62.4963C84.5202 63.1363 84.0349 63.6429 83.3949 64.0163C82.7549 64.3896 82.0456 64.5763 81.2669 64.5763ZM92.6729 63.3763C91.8622 64.1763 90.8702 64.5763 89.6969 64.5763C88.5236 64.5763 87.5262 64.1763 86.7049 63.3763C85.8942 62.5656 85.4889 61.5683 85.4889 60.3843C85.4889 59.2003 85.8942 58.2083 86.7049 57.4083C87.5262 56.5976 88.5236 56.1923 89.6969 56.1923C90.8702 56.1923 91.8622 56.5976 92.6729 57.4083C93.4942 58.2083 93.9049 59.2003 93.9049 60.3843C93.9049 61.5683 93.4942 62.5656 92.6729 63.3763ZM87.4569 62.6403C88.0649 63.2483 88.8116 63.5523 89.6969 63.5523C90.5822 63.5523 91.3289 63.2483 91.9369 62.6403C92.5449 62.0216 92.8489 61.2696 92.8489 60.3843C92.8489 59.4989 92.5449 58.7523 91.9369 58.1443C91.3289 57.5256 90.5822 57.2163 89.6969 57.2163C88.8116 57.2163 88.0649 57.5256 87.4569 58.1443C86.8489 58.7523 86.5449 59.4989 86.5449 60.3843C86.5449 61.2696 86.8489 62.0216 87.4569 62.6403ZM99.1675 60.2723C100.096 60.6243 100.56 61.2643 100.56 62.1923C100.56 62.8536 100.298 63.4189 99.7755 63.8883C99.2635 64.3469 98.5275 64.5763 97.5675 64.5763C95.9569 64.5763 94.9009 63.9363 94.3995 62.6563L95.2955 62.1283C95.6262 63.0776 96.3835 63.5523 97.5675 63.5523C98.1862 63.5523 98.6609 63.4189 98.9915 63.1523C99.3329 62.8856 99.5035 62.5443 99.5035 62.1283C99.5035 61.7549 99.3649 61.4509 99.0875 61.2163C98.8102 60.9816 98.4369 60.8643 97.9675 60.8643H96.7995V59.8403H97.6475C98.1062 59.8403 98.4635 59.7283 98.7195 59.5043C98.9862 59.2696 99.1195 58.9496 99.1195 58.5443C99.1195 58.1603 98.9649 57.8456 98.6555 57.6003C98.3462 57.3443 97.9302 57.2163 97.4075 57.2163C96.4049 57.2163 95.7382 57.6163 95.4075 58.4163L94.5275 57.9043C95.0609 56.7629 96.0209 56.1923 97.4075 56.1923C98.2502 56.1923 98.9222 56.4163 99.4235 56.8643C99.9249 57.3016 100.176 57.8403 100.176 58.4803C100.176 59.3016 99.8395 59.8989 99.1675 60.2723ZM108.408 63.3603H109.528V66.5283H108.472V64.3843H101.944V66.5283H100.888V63.3603H101.864C102.408 62.6456 102.68 61.6376 102.68 60.3363V56.3843H108.408V63.3603ZM103.144 63.3603H107.352V57.4083H103.736V60.3363C103.736 61.5629 103.539 62.5709 103.144 63.3603ZM117.373 56.3843H118.429V64.3843H117.373V62.8163C116.637 63.9896 115.56 64.5763 114.141 64.5763C113 64.5763 112.024 64.1709 111.213 63.3603C110.413 62.5496 110.013 61.5576 110.013 60.3843C110.013 59.2109 110.413 58.2189 111.213 57.4083C112.024 56.5976 113 56.1923 114.141 56.1923C115.56 56.1923 116.637 56.7789 117.373 57.9523V56.3843ZM111.981 62.6403C112.589 63.2483 113.336 63.5523 114.221 63.5523C115.107 63.5523 115.853 63.2483 116.461 62.6403C117.069 62.0216 117.373 61.2696 117.373 60.3843C117.373 59.4989 117.069 58.7523 116.461 58.1443C115.853 57.5256 115.107 57.2163 114.221 57.2163C113.336 57.2163 112.589 57.5256 111.981 58.1443C111.373 58.7523 111.069 59.4989 111.069 60.3843C111.069 61.2696 111.373 62.0216 111.981 62.6403ZM126.009 56.3843H127.065V64.3843H126.009V60.8963H121.401V64.3843H120.345V56.3843H121.401V59.8723H126.009V56.3843ZM134.802 56.3843H135.698V64.3843H134.642V58.2243L129.874 64.3843H128.978V56.3843H130.034V62.5443L134.802 56.3843ZM143.371 56.3843V64.3843H142.315V61.3123H140.939L138.475 64.3843H137.131L139.659 61.2803C139.019 61.1843 138.491 60.9176 138.075 60.4803C137.659 60.0429 137.451 59.5043 137.451 58.8643C137.451 58.1389 137.707 57.5469 138.219 57.0883C138.742 56.6189 139.377 56.3843 140.123 56.3843H143.371ZM140.123 60.3203H142.315V57.4083H140.123C139.675 57.4083 139.291 57.5416 138.971 57.8083C138.662 58.0749 138.507 58.4269 138.507 58.8643C138.507 59.3016 138.662 59.6536 138.971 59.9203C139.291 60.1869 139.675 60.3203 140.123 60.3203ZM152.699 64.5763C151.494 64.5763 150.491 64.1763 149.691 63.3763C148.891 62.5656 148.491 61.5683 148.491 60.3843C148.491 59.2003 148.891 58.2083 149.691 57.4083C150.491 56.5976 151.494 56.1923 152.699 56.1923C153.489 56.1923 154.198 56.3843 154.827 56.7683C155.457 57.1416 155.915 57.6483 156.203 58.2883L155.339 58.7843C155.126 58.3043 154.779 57.9256 154.299 57.6483C153.83 57.3603 153.297 57.2163 152.699 57.2163C151.814 57.2163 151.067 57.5256 150.459 58.1443C149.851 58.7523 149.547 59.4989 149.547 60.3843C149.547 61.2696 149.851 62.0216 150.459 62.6403C151.067 63.2483 151.814 63.5523 152.699 63.5523C153.297 63.5523 153.83 63.4136 154.299 63.1363C154.769 62.8483 155.137 62.4643 155.403 61.9843L156.283 62.4963C155.953 63.1363 155.467 63.6429 154.827 64.0163C154.187 64.3896 153.478 64.5763 152.699 64.5763ZM163.083 56.3843V57.4083H160.251V64.3843H159.195V57.4083H156.363V56.3843H163.083ZM168.338 56.1923C169.479 56.1923 170.45 56.5976 171.25 57.4083C172.061 58.2189 172.466 59.2109 172.466 60.3843C172.466 61.5576 172.061 62.5496 171.25 63.3603C170.45 64.1709 169.479 64.5763 168.338 64.5763C166.919 64.5763 165.842 63.9896 165.106 62.8163V67.5843H164.05V56.3843H165.106V57.9523C165.842 56.7789 166.919 56.1923 168.338 56.1923ZM166.018 62.6403C166.626 63.2483 167.373 63.5523 168.258 63.5523C169.143 63.5523 169.89 63.2483 170.498 62.6403C171.106 62.0216 171.41 61.2696 171.41 60.3843C171.41 59.4989 171.106 58.7523 170.498 58.1443C169.89 57.5256 169.143 57.2163 168.258 57.2163C167.373 57.2163 166.626 57.5256 166.018 58.1443C165.41 58.7523 165.106 59.4989 165.106 60.3843C165.106 61.2696 165.41 62.0216 166.018 62.6403ZM179.35 56.3843H180.47L177.046 65.1203C176.736 65.9096 176.294 66.5283 175.718 66.9763C175.152 67.4349 174.518 67.6376 173.814 67.5843V66.5923C174.774 66.6989 175.504 66.1443 176.006 64.9283L176.214 64.4323L172.63 56.3843H173.75L176.758 63.0883L179.35 56.3843ZM187.89 64.3843H186.482L182.482 60.5283V64.3843H181.426V56.3843H182.482V59.9203L186.29 56.3843H187.73L183.602 60.2243L187.89 64.3843ZM194.772 56.3843V57.4083H191.94V64.3843H190.884V57.4083H188.052V56.3843H194.772ZM201.499 56.3843H202.619L199.195 65.1203C198.886 65.9096 198.443 66.5283 197.867 66.9763C197.302 67.4349 196.667 67.6376 195.963 67.5843V66.5923C196.923 66.6989 197.654 66.1443 198.155 64.9283L198.363 64.4323L194.779 56.3843H195.899L198.907 63.0883L201.499 56.3843ZM207.863 56.1923C209.004 56.1923 209.975 56.5976 210.775 57.4083C211.586 58.2189 211.991 59.2109 211.991 60.3843C211.991 61.5576 211.586 62.5496 210.775 63.3603C209.975 64.1709 209.004 64.5763 207.863 64.5763C206.444 64.5763 205.367 63.9896 204.631 62.8163V67.5843H203.575V56.3843H204.631V57.9523C205.367 56.7789 206.444 56.1923 207.863 56.1923ZM205.543 62.6403C206.151 63.2483 206.898 63.5523 207.783 63.5523C208.668 63.5523 209.415 63.2483 210.023 62.6403C210.631 62.0216 210.935 61.2696 210.935 60.3843C210.935 59.4989 210.631 58.7523 210.023 58.1443C209.415 57.5256 208.668 57.2163 207.783 57.2163C206.898 57.2163 206.151 57.5256 205.543 58.1443C204.935 58.7523 204.631 59.4989 204.631 60.3843C204.631 61.2696 204.935 62.0216 205.543 62.6403ZM216.675 59.4243C217.422 59.4243 218.051 59.6589 218.563 60.1283C219.086 60.5869 219.347 61.1789 219.347 61.9043C219.347 62.6296 219.086 63.2269 218.563 63.6963C218.051 64.1549 217.422 64.3843 216.675 64.3843H213.427V56.3843H214.483V59.4243H216.675ZM220.467 56.3843H221.523V64.3843H220.467V56.3843ZM216.675 63.3603C217.123 63.3603 217.502 63.2269 217.811 62.9603C218.131 62.6936 218.291 62.3416 218.291 61.9043C218.291 61.4669 218.131 61.1149 217.811 60.8483C217.502 60.5816 217.123 60.4483 216.675 60.4483H214.483V63.3603H216.675ZM232.891 56.3843V57.4083H230.059V64.3843H229.003V57.4083H226.171V56.3843H232.891ZM240.322 64.3843H238.914L234.914 60.5283V64.3843H233.858V56.3843H234.914V59.9203L238.722 56.3843H240.162L236.034 60.2243L240.322 64.3843ZM247.527 56.3843H248.583V64.3843H247.527V62.8163C246.791 63.9896 245.714 64.5763 244.295 64.5763C243.154 64.5763 242.178 64.1709 241.367 63.3603C240.567 62.5496 240.167 61.5576 240.167 60.3843C240.167 59.2109 240.567 58.2189 241.367 57.4083C242.178 56.5976 243.154 56.1923 244.295 56.1923C245.714 56.1923 246.791 56.7789 247.527 57.9523V56.3843ZM242.135 62.6403C242.743 63.2483 243.49 63.5523 244.375 63.5523C245.26 63.5523 246.007 63.2483 246.615 62.6403C247.223 62.0216 247.527 61.2696 247.527 60.3843C247.527 59.4989 247.223 58.7523 246.615 58.1443C246.007 57.5256 245.26 57.2163 244.375 57.2163C243.49 57.2163 242.743 57.5256 242.135 58.1443C241.527 58.7523 241.223 59.4989 241.223 60.3843C241.223 61.2696 241.527 62.0216 242.135 62.6403ZM256.163 56.3843H257.219V64.3843H256.163V60.8963H251.555V64.3843H250.499V56.3843H251.555V59.8723H256.163V56.3843ZM262.828 56.1923C264.012 56.1923 264.967 56.6136 265.692 57.4563C266.428 58.2883 266.796 59.2749 266.796 60.4163C266.796 60.5336 266.785 60.6989 266.764 60.9123H259.74C259.847 61.7229 260.188 62.3683 260.764 62.8483C261.351 63.3176 262.071 63.5523 262.924 63.5523C263.532 63.5523 264.055 63.4296 264.492 63.1843C264.94 62.9283 265.276 62.5976 265.5 62.1923L266.428 62.7363C266.076 63.3016 265.596 63.7496 264.988 64.0803C264.38 64.4109 263.687 64.5763 262.908 64.5763C261.649 64.5763 260.625 64.1816 259.836 63.3923C259.047 62.6029 258.652 61.6003 258.652 60.3843C258.652 59.1896 259.041 58.1923 259.82 57.3923C260.599 56.5923 261.601 56.1923 262.828 56.1923ZM262.828 57.2163C261.996 57.2163 261.297 57.4669 260.732 57.9683C260.177 58.4589 259.847 59.0989 259.74 59.8883H265.708C265.601 59.0456 265.276 58.3896 264.732 57.9203C264.188 57.4509 263.553 57.2163 262.828 57.2163ZM269.436 55.1043V54.1763H273.596V55.1043H269.436ZM273.98 56.3843H274.876V64.3843H273.82V58.2243L269.052 64.3843H268.156V56.3843H269.212V62.5443L273.98 56.3843ZM286.293 56.3843H287.189V64.3843H286.133V58.2243L281.365 64.3843H280.469V56.3843H281.525V62.5443L286.293 56.3843ZM57.7098 75.3843H58.7658V83.3843H57.7098V79.8963H53.1018V83.3843H52.0458V75.3843H53.1018V78.8723H57.7098V75.3843ZM64.3749 75.1923C65.5589 75.1923 66.5136 75.6136 67.2389 76.4563C67.9749 77.2883 68.3429 78.2749 68.3429 79.4163C68.3429 79.5336 68.3322 79.6989 68.3109 79.9123H61.2869C61.3936 80.7229 61.7349 81.3683 62.3109 81.8483C62.8976 82.3176 63.6176 82.5523 64.4709 82.5523C65.0789 82.5523 65.6016 82.4296 66.0389 82.1843C66.4869 81.9283 66.8229 81.5976 67.0469 81.1923L67.9749 81.7363C67.6229 82.3016 67.1429 82.7496 66.5349 83.0803C65.9269 83.4109 65.2336 83.5763 64.4549 83.5763C63.1962 83.5763 62.1722 83.1816 61.3829 82.3923C60.5936 81.6029 60.1989 80.6003 60.1989 79.3843C60.1989 78.1896 60.5882 77.1923 61.3669 76.3923C62.1456 75.5923 63.1482 75.1923 64.3749 75.1923ZM64.3749 76.2163C63.5429 76.2163 62.8442 76.4669 62.2789 76.9683C61.7242 77.4589 61.3936 78.0989 61.2869 78.8883H67.2549C67.1482 78.0456 66.8229 77.3896 66.2789 76.9203C65.7349 76.4509 65.1002 76.2163 64.3749 76.2163ZM76.4067 82.3763C75.596 83.1763 74.604 83.5763 73.4307 83.5763C72.2573 83.5763 71.26 83.1763 70.4387 82.3763C69.628 81.5656 69.2227 80.5683 69.2227 79.3843C69.2227 78.2003 69.628 77.2083 70.4387 76.4083C71.26 75.5976 72.2573 75.1923 73.4307 75.1923C74.604 75.1923 75.596 75.5976 76.4067 76.4083C77.228 77.2083 77.6387 78.2003 77.6387 79.3843C77.6387 80.5683 77.228 81.5656 76.4067 82.3763ZM71.1907 81.6403C71.7987 82.2483 72.5453 82.5523 73.4307 82.5523C74.316 82.5523 75.0627 82.2483 75.6707 81.6403C76.2787 81.0216 76.5827 80.2696 76.5827 79.3843C76.5827 78.4989 76.2787 77.7523 75.6707 77.1443C75.0627 76.5256 74.316 76.2163 73.4307 76.2163C72.5453 76.2163 71.7987 76.5256 71.1907 77.1443C70.5827 77.7523 70.2787 78.4989 70.2787 79.3843C70.2787 80.2696 70.5827 81.0216 71.1907 81.6403ZM82.6378 83.5763C81.4858 83.5763 80.5258 83.1976 79.7578 82.4403C78.9898 81.6723 78.6058 80.6803 78.6058 79.4643C78.6058 78.0989 78.8084 77.0536 79.2138 76.3283C79.6191 75.5923 80.4404 74.9256 81.6778 74.3283C81.9124 74.2109 82.2218 74.0723 82.6058 73.9123C83.0004 73.7523 83.2938 73.6243 83.4858 73.5283C83.6884 73.4323 83.9071 73.3096 84.1418 73.1603C84.3764 73.0003 84.5524 72.8243 84.6698 72.6323C84.7871 72.4403 84.8618 72.2109 84.8938 71.9443L85.7258 72.4243C85.6831 72.6803 85.5978 72.9203 85.4698 73.1443C85.3418 73.3683 85.2084 73.5496 85.0698 73.6883C84.9418 73.8269 84.7338 73.9816 84.4458 74.1523C84.1684 74.3123 83.9498 74.4296 83.7898 74.5043C83.6404 74.5683 83.3738 74.6803 82.9898 74.8403C82.6164 75.0003 82.3658 75.1069 82.2378 75.1603C81.4911 75.4803 80.9418 75.8163 80.5898 76.1683C80.2378 76.5096 79.9871 76.9576 79.8378 77.5123C80.2004 77.0323 80.6591 76.6803 81.2138 76.4563C81.7791 76.2216 82.3284 76.1043 82.8618 76.1043C83.9284 76.1043 84.8084 76.4563 85.5018 77.1603C86.2058 77.8536 86.5578 78.7443 86.5578 79.8323C86.5578 80.9096 86.1844 81.8056 85.4378 82.5203C84.7018 83.2243 83.7684 83.5763 82.6378 83.5763ZM82.6378 82.5203C83.4698 82.5203 84.1524 82.2696 84.6858 81.7683C85.2298 81.2563 85.5018 80.6109 85.5018 79.8323C85.5018 79.0429 85.2458 78.3976 84.7338 77.8963C84.2324 77.3843 83.5604 77.1283 82.7178 77.1283C81.9604 77.1283 81.2724 77.3683 80.6538 77.8483C80.0351 78.3176 79.7258 78.9469 79.7258 79.7363C79.7258 80.5469 80.0031 81.2136 80.5578 81.7363C81.1231 82.2589 81.8164 82.5203 82.6378 82.5203ZM94.0014 83.3843H92.7374L90.2414 80.0883L87.7454 83.3843H86.4814L89.6174 79.2403L86.6894 75.3843H87.9534L90.2414 78.4083L92.5294 75.3843H93.7934L90.8814 79.2403L94.0014 83.3843ZM101.259 82.3763C100.448 83.1763 99.4565 83.5763 98.2832 83.5763C97.1098 83.5763 96.1125 83.1763 95.2912 82.3763C94.4805 81.5656 94.0752 80.5683 94.0752 79.3843C94.0752 78.2003 94.4805 77.2083 95.2912 76.4083C96.1125 75.5976 97.1098 75.1923 98.2832 75.1923C99.4565 75.1923 100.448 75.5976 101.259 76.4083C102.08 77.2083 102.491 78.2003 102.491 79.3843C102.491 80.5683 102.08 81.5656 101.259 82.3763ZM96.0432 81.6403C96.6512 82.2483 97.3978 82.5523 98.2832 82.5523C99.1685 82.5523 99.9152 82.2483 100.523 81.6403C101.131 81.0216 101.435 80.2696 101.435 79.3843C101.435 78.4989 101.131 77.7523 100.523 77.1443C99.9152 76.5256 99.1685 76.2163 98.2832 76.2163C97.3978 76.2163 96.6512 76.5256 96.0432 77.1443C95.4352 77.7523 95.1312 78.4989 95.1312 79.3843C95.1312 80.2696 95.4352 81.0216 96.0432 81.6403ZM110.346 82.3603H111.466V85.5283H110.41V83.3843H103.882V85.5283H102.826V82.3603H103.802C104.346 81.6456 104.618 80.6376 104.618 79.3363V75.3843H110.346V82.3603ZM105.082 82.3603H109.29V76.4083H105.674V79.3363C105.674 80.5629 105.476 81.5709 105.082 82.3603ZM118.567 75.3843H119.463V83.3843H118.407V77.2243L113.639 83.3843H112.743V75.3843H113.799V81.5443L118.567 75.3843ZM129.216 75.3843V83.3843H128.16V77.0003L125.36 81.5443H125.232L122.432 77.0003V83.3843H121.376V75.3843H122.592L125.296 79.7683L128 75.3843H129.216ZM137.839 82.3763C137.028 83.1763 136.036 83.5763 134.863 83.5763C133.689 83.5763 132.692 83.1763 131.871 82.3763C131.06 81.5656 130.655 80.5683 130.655 79.3843C130.655 78.2003 131.06 77.2083 131.871 76.4083C132.692 75.5976 133.689 75.1923 134.863 75.1923C136.036 75.1923 137.028 75.5976 137.839 76.4083C138.66 77.2083 139.071 78.2003 139.071 79.3843C139.071 80.5683 138.66 81.5656 137.839 82.3763ZM132.623 81.6403C133.231 82.2483 133.977 82.5523 134.863 82.5523C135.748 82.5523 136.495 82.2483 137.103 81.6403C137.711 81.0216 138.015 80.2696 138.015 79.3843C138.015 78.4989 137.711 77.7523 137.103 77.1443C136.495 76.5256 135.748 76.2163 134.863 76.2163C133.977 76.2163 133.231 76.5256 132.623 77.1443C132.015 77.7523 131.711 78.4989 131.711 79.3843C131.711 80.2696 132.015 81.0216 132.623 81.6403ZM145.638 75.3843V76.4083H141.574V83.3843H140.518V75.3843H145.638ZM152.995 82.3763C152.185 83.1763 151.193 83.5763 150.019 83.5763C148.846 83.5763 147.849 83.1763 147.027 82.3763C146.217 81.5656 145.811 80.5683 145.811 79.3843C145.811 78.2003 146.217 77.2083 147.027 76.4083C147.849 75.5976 148.846 75.1923 150.019 75.1923C151.193 75.1923 152.185 75.5976 152.995 76.4083C153.817 77.2083 154.227 78.2003 154.227 79.3843C154.227 80.5683 153.817 81.5656 152.995 82.3763ZM147.779 81.6403C148.387 82.2483 149.134 82.5523 150.019 82.5523C150.905 82.5523 151.651 82.2483 152.259 81.6403C152.867 81.0216 153.171 80.2696 153.171 79.3843C153.171 78.4989 152.867 77.7523 152.259 77.1443C151.651 76.5256 150.905 76.2163 150.019 76.2163C149.134 76.2163 148.387 76.5256 147.779 77.1443C147.171 77.7523 146.867 78.4989 146.867 79.3843C146.867 80.2696 147.171 81.0216 147.779 81.6403ZM163.643 75.1923C164.784 75.1923 165.755 75.5976 166.555 76.4083C167.365 77.2189 167.771 78.2109 167.771 79.3843C167.771 80.5576 167.365 81.5496 166.555 82.3603C165.755 83.1709 164.784 83.5763 163.643 83.5763C162.224 83.5763 161.147 82.9896 160.411 81.8163V86.5843H159.355V75.3843H160.411V76.9523C161.147 75.7789 162.224 75.1923 163.643 75.1923ZM161.323 81.6403C161.931 82.2483 162.677 82.5523 163.563 82.5523C164.448 82.5523 165.195 82.2483 165.803 81.6403C166.411 81.0216 166.715 80.2696 166.715 79.3843C166.715 78.4989 166.411 77.7523 165.803 77.1443C165.195 76.5256 164.448 76.2163 163.563 76.2163C162.677 76.2163 161.931 76.5256 161.323 77.1443C160.715 77.7523 160.411 78.4989 160.411 79.3843C160.411 80.2696 160.715 81.0216 161.323 81.6403ZM172.902 75.1923C174.086 75.1923 175.041 75.6136 175.766 76.4563C176.502 77.2883 176.87 78.2749 176.87 79.4163C176.87 79.5336 176.86 79.6989 176.838 79.9123H169.814C169.921 80.7229 170.262 81.3683 170.838 81.8483C171.425 82.3176 172.145 82.5523 172.998 82.5523C173.606 82.5523 174.129 82.4296 174.566 82.1843C175.014 81.9283 175.35 81.5976 175.574 81.1923L176.502 81.7363C176.15 82.3016 175.67 82.7496 175.062 83.0803C174.454 83.4109 173.761 83.5763 172.982 83.5763C171.724 83.5763 170.7 83.1816 169.91 82.3923C169.121 81.6029 168.726 80.6003 168.726 79.3843C168.726 78.1896 169.116 77.1923 169.894 76.3923C170.673 75.5923 171.676 75.1923 172.902 75.1923ZM172.902 76.2163C172.07 76.2163 171.372 76.4669 170.806 76.9683C170.252 77.4589 169.921 78.0989 169.814 78.8883H175.782C175.676 78.0456 175.35 77.3896 174.806 76.9203C174.262 76.4509 173.628 76.2163 172.902 76.2163ZM184.478 75.3843V83.3843H183.422V76.4083H179.806V79.9763C179.806 81.3096 179.55 82.2269 179.038 82.7283C178.536 83.2296 177.843 83.4483 176.958 83.3843V82.3923C177.566 82.4563 178.014 82.3123 178.302 81.9603C178.6 81.6083 178.75 80.9469 178.75 79.9763V75.3843H184.478ZM189.643 78.4243C190.389 78.4243 191.019 78.6589 191.531 79.1283C192.053 79.5869 192.315 80.1789 192.315 80.9043C192.315 81.6296 192.053 82.2269 191.531 82.6963C191.019 83.1549 190.389 83.3843 189.643 83.3843H186.395V75.3843H187.451V78.4243H189.643ZM189.643 82.3603C190.091 82.3603 190.469 82.2269 190.779 81.9603C191.099 81.6936 191.259 81.3416 191.259 80.9043C191.259 80.4669 191.099 80.1149 190.779 79.8483C190.469 79.5816 190.091 79.4483 189.643 79.4483H187.451V82.3603H189.643ZM197.208 75.1923C198.392 75.1923 199.347 75.6136 200.072 76.4563C200.808 77.2883 201.176 78.2749 201.176 79.4163C201.176 79.5336 201.165 79.6989 201.144 79.9123H194.12C194.227 80.7229 194.568 81.3683 195.144 81.8483C195.731 82.3176 196.451 82.5523 197.304 82.5523C197.912 82.5523 198.435 82.4296 198.872 82.1843C199.32 81.9283 199.656 81.5976 199.88 81.1923L200.808 81.7363C200.456 82.3016 199.976 82.7496 199.368 83.0803C198.76 83.4109 198.067 83.5763 197.288 83.5763C196.029 83.5763 195.005 83.1816 194.216 82.3923C193.427 81.6029 193.032 80.6003 193.032 79.3843C193.032 78.1896 193.421 77.1923 194.2 76.3923C194.979 75.5923 195.981 75.1923 197.208 75.1923ZM197.208 76.2163C196.376 76.2163 195.677 76.4669 195.112 76.9683C194.557 77.4589 194.227 78.0989 194.12 78.8883H200.088C199.981 78.0456 199.656 77.3896 199.112 76.9203C198.568 76.4509 197.933 76.2163 197.208 76.2163ZM210.344 76.5363C211.112 77.3149 211.496 78.2643 211.496 79.3843C211.496 80.5043 211.112 81.4536 210.344 82.2323C209.576 83.0109 208.562 83.4536 207.304 83.5603V86.5843H206.248V83.5603C204.989 83.4536 203.976 83.0109 203.208 82.2323C202.44 81.4536 202.056 80.5043 202.056 79.3843C202.056 78.2643 202.44 77.3149 203.208 76.5363C203.976 75.7576 204.989 75.3149 206.248 75.2083V72.1843H207.304V75.2083C208.562 75.3149 209.576 75.7576 210.344 76.5363ZM203.96 77.2723C203.394 77.8483 203.112 78.5523 203.112 79.3843C203.112 80.2163 203.394 80.9256 203.96 81.5123C204.525 82.0883 205.288 82.4243 206.248 82.5203V76.2483C205.288 76.3443 204.525 76.6856 203.96 77.2723ZM207.304 82.5203C208.264 82.4243 209.026 82.0883 209.592 81.5123C210.157 80.9256 210.44 80.2163 210.44 79.3843C210.44 78.5523 210.157 77.8483 209.592 77.2723C209.026 76.6856 208.264 76.3443 207.304 76.2483V82.5203ZM219.815 75.3843H220.871V83.3843H219.815V81.8163C219.079 82.9896 218.001 83.5763 216.583 83.5763C215.441 83.5763 214.465 83.1709 213.655 82.3603C212.855 81.5496 212.455 80.5576 212.455 79.3843C212.455 78.2109 212.855 77.2189 213.655 76.4083C214.465 75.5976 215.441 75.1923 216.583 75.1923C218.001 75.1923 219.079 75.7789 219.815 76.9523V75.3843ZM214.423 81.6403C215.031 82.2483 215.777 82.5523 216.663 82.5523C217.548 82.5523 218.295 82.2483 218.903 81.6403C219.511 81.0216 219.815 80.2696 219.815 79.3843C219.815 78.4989 219.511 77.7523 218.903 77.1443C218.295 76.5256 217.548 76.2163 216.663 76.2163C215.777 76.2163 215.031 76.5256 214.423 77.1443C213.815 77.7523 213.511 78.4989 213.511 79.3843C213.511 80.2696 213.815 81.0216 214.423 81.6403ZM228.066 84.9843C226.893 82.6376 226.306 80.2376 226.306 77.7843C226.306 75.3309 226.893 72.9309 228.066 70.5843H229.122C227.949 72.9309 227.362 75.3309 227.362 77.7843C227.362 80.2376 227.949 82.6376 229.122 84.9843H228.066ZM238.204 76.5363C238.972 77.3149 239.356 78.2643 239.356 79.3843C239.356 80.5043 238.972 81.4536 238.204 82.2323C237.436 83.0109 236.423 83.4536 235.164 83.5603V86.5843H234.108V83.5603C232.85 83.4536 231.836 83.0109 231.068 82.2323C230.3 81.4536 229.916 80.5043 229.916 79.3843C229.916 78.2643 230.3 77.3149 231.068 76.5363C231.836 75.7576 232.85 75.3149 234.108 75.2083V72.1843H235.164V75.2083C236.423 75.3149 237.436 75.7576 238.204 76.5363ZM231.82 77.2723C231.255 77.8483 230.972 78.5523 230.972 79.3843C230.972 80.2163 231.255 80.9256 231.82 81.5123C232.386 82.0883 233.148 82.4243 234.108 82.5203V76.2483C233.148 76.3443 232.386 76.6856 231.82 77.2723ZM235.164 82.5203C236.124 82.4243 236.887 82.0883 237.452 81.5123C238.018 80.9256 238.3 80.2163 238.3 79.3843C238.3 78.5523 238.018 77.8483 237.452 77.2723C236.887 76.6856 236.124 76.3443 235.164 76.2483V82.5203ZM247.499 82.3763C246.688 83.1763 245.696 83.5763 244.523 83.5763C243.35 83.5763 242.352 83.1763 241.531 82.3763C240.72 81.5656 240.315 80.5683 240.315 79.3843C240.315 78.2003 240.72 77.2083 241.531 76.4083C242.352 75.5976 243.35 75.1923 244.523 75.1923C245.696 75.1923 246.688 75.5976 247.499 76.4083C248.32 77.2083 248.731 78.2003 248.731 79.3843C248.731 80.5683 248.32 81.5656 247.499 82.3763ZM242.283 81.6403C242.891 82.2483 243.638 82.5523 244.523 82.5523C245.408 82.5523 246.155 82.2483 246.763 81.6403C247.371 81.0216 247.675 80.2696 247.675 79.3843C247.675 78.4989 247.371 77.7523 246.763 77.1443C246.155 76.5256 245.408 76.2163 244.523 76.2163C243.638 76.2163 242.891 76.5256 242.283 77.1443C241.675 77.7523 241.371 78.4989 241.371 79.3843C241.371 80.2696 241.675 81.0216 242.283 81.6403ZM254.466 75.1923C255.608 75.1923 256.578 75.5976 257.378 76.4083C258.189 77.2189 258.594 78.2109 258.594 79.3843C258.594 80.5576 258.189 81.5496 257.378 82.3603C256.578 83.1709 255.608 83.5763 254.466 83.5763C253.048 83.5763 251.97 82.9896 251.234 81.8163V86.5843H250.178V75.3843H251.234V76.9523C251.97 75.7789 253.048 75.1923 254.466 75.1923ZM252.146 81.6403C252.754 82.2483 253.501 82.5523 254.386 82.5523C255.272 82.5523 256.018 82.2483 256.626 81.6403C257.234 81.0216 257.538 80.2696 257.538 79.3843C257.538 78.4989 257.234 77.7523 256.626 77.1443C256.018 76.5256 255.272 76.2163 254.386 76.2163C253.501 76.2163 252.754 76.5256 252.146 77.1443C251.538 77.7523 251.234 78.4989 251.234 79.3843C251.234 80.2696 251.538 81.0216 252.146 81.6403ZM267.87 75.3843V83.3843H266.814V77.0003L264.014 81.5443H263.886L261.086 77.0003V83.3843H260.03V75.3843H261.246L263.95 79.7683L266.654 75.3843H267.87ZM270.204 84.9843H269.148C270.322 82.6376 270.908 80.2376 270.908 77.7843C270.908 75.3309 270.322 72.9309 269.148 70.5843H270.204C271.378 72.9309 271.964 75.3309 271.964 77.7843C271.964 80.2376 271.378 82.6376 270.204 84.9843ZM281.126 83.5763C279.921 83.5763 278.918 83.1763 278.118 82.3763C277.318 81.5656 276.918 80.5683 276.918 79.3843C276.918 78.2003 277.318 77.2083 278.118 76.4083C278.918 75.5976 279.921 75.1923 281.126 75.1923C281.916 75.1923 282.625 75.3843 283.254 75.7683C283.884 76.1416 284.342 76.6483 284.63 77.2883L283.766 77.7843C283.553 77.3043 283.206 76.9256 282.726 76.6483C282.257 76.3603 281.724 76.2163 281.126 76.2163C280.241 76.2163 279.494 76.5256 278.886 77.1443C278.278 77.7523 277.974 78.4989 277.974 79.3843C277.974 80.2696 278.278 81.0216 278.886 81.6403C279.494 82.2483 280.241 82.5523 281.126 82.5523C281.724 82.5523 282.257 82.4136 282.726 82.1363C283.196 81.8483 283.564 81.4643 283.83 80.9843L284.71 81.4963C284.38 82.1363 283.894 82.6429 283.254 83.0163C282.614 83.3896 281.905 83.5763 281.126 83.5763ZM57.1338 98.2723C58.0084 98.5923 58.4458 99.2163 58.4458 100.144C58.4458 100.795 58.2271 101.334 57.7898 101.76C57.3631 102.176 56.7444 102.384 55.9338 102.384H52.0458V94.3843H55.6138C56.3924 94.3843 56.9951 94.5869 57.4218 94.9923C57.8484 95.3869 58.0618 95.8989 58.0618 96.5283C58.0618 97.3283 57.7524 97.9096 57.1338 98.2723ZM55.6138 95.4083H53.1018V97.8403H55.6138C56.5418 97.8403 57.0058 97.4243 57.0058 96.5923C57.0058 96.2189 56.8831 95.9309 56.6378 95.7283C56.4031 95.5149 56.0618 95.4083 55.6138 95.4083ZM55.9338 101.36C56.4031 101.36 56.7604 101.248 57.0058 101.024C57.2618 100.8 57.3898 100.486 57.3898 100.08C57.3898 99.7069 57.2618 99.4136 57.0058 99.2003C56.7604 98.9763 56.4031 98.8643 55.9338 98.8643H53.1018V101.36H55.9338ZM62.9738 97.4243C63.7204 97.4243 64.3498 97.6589 64.8618 98.1283C65.3844 98.5869 65.6458 99.1789 65.6458 99.9043C65.6458 100.63 65.3844 101.227 64.8618 101.696C64.3498 102.155 63.7204 102.384 62.9738 102.384H59.7258V94.3843H60.7818V97.4243H62.9738ZM66.7658 94.3843H67.8218V102.384H66.7658V94.3843ZM62.9738 101.36C63.4218 101.36 63.8004 101.227 64.1098 100.96C64.4298 100.694 64.5898 100.342 64.5898 99.9043C64.5898 99.4669 64.4298 99.1149 64.1098 98.8483C63.8004 98.5816 63.4218 98.4483 62.9738 98.4483H60.7818V101.36H62.9738ZM74.0375 94.1923C75.1789 94.1923 76.1495 94.5976 76.9495 95.4083C77.7602 96.2189 78.1655 97.2109 78.1655 98.3843C78.1655 99.5576 77.7602 100.55 76.9495 101.36C76.1495 102.171 75.1789 102.576 74.0375 102.576C72.6189 102.576 71.5415 101.99 70.8055 100.816V105.584H69.7495V94.3843H70.8055V95.9523C71.5415 94.7789 72.6189 94.1923 74.0375 94.1923ZM71.7175 100.64C72.3255 101.248 73.0722 101.552 73.9575 101.552C74.8429 101.552 75.5895 101.248 76.1975 100.64C76.8055 100.022 77.1095 99.2696 77.1095 98.3843C77.1095 97.4989 76.8055 96.7523 76.1975 96.1443C75.5895 95.5256 74.8429 95.2163 73.9575 95.2163C73.0722 95.2163 72.3255 95.5256 71.7175 96.1443C71.1095 96.7523 70.8055 97.4989 70.8055 98.3843C70.8055 99.2696 71.1095 100.022 71.7175 100.64ZM86.4814 94.3843H87.5374V102.384H86.4814V100.816C85.7454 101.99 84.6681 102.576 83.2494 102.576C82.1081 102.576 81.1321 102.171 80.3214 101.36C79.5214 100.55 79.1214 99.5576 79.1214 98.3843C79.1214 97.2109 79.5214 96.2189 80.3214 95.4083C81.1321 94.5976 82.1081 94.1923 83.2494 94.1923C84.6681 94.1923 85.7454 94.7789 86.4814 95.9523V94.3843ZM81.0894 100.64C81.6974 101.248 82.4441 101.552 83.3294 101.552C84.2147 101.552 84.9614 101.248 85.5694 100.64C86.1774 100.022 86.4814 99.2696 86.4814 98.3843C86.4814 97.4989 86.1774 96.7523 85.5694 96.1443C84.9614 95.5256 84.2147 95.2163 83.3294 95.2163C82.4441 95.2163 81.6974 95.5256 81.0894 96.1443C80.4814 96.7523 80.1774 97.4989 80.1774 98.3843C80.1774 99.2696 80.4814 100.022 81.0894 100.64ZM98.7973 102.384H97.5173L94.2533 98.5283V102.384H93.1973V98.5283L89.9333 102.384H88.6533L92.2373 98.2243L88.8133 94.3843H90.0933L93.1973 97.9363V94.3843H94.2533V97.9363L97.3573 94.3843H98.6373L95.2133 98.2243L98.7973 102.384ZM102.97 94.1923C104.154 94.1923 105.109 94.6136 105.834 95.4563C106.57 96.2883 106.938 97.2749 106.938 98.4163C106.938 98.5336 106.927 98.6989 106.906 98.9123H99.8819C99.9886 99.7229 100.33 100.368 100.906 100.848C101.493 101.318 102.213 101.552 103.066 101.552C103.674 101.552 104.197 101.43 104.634 101.184C105.082 100.928 105.418 100.598 105.642 100.192L106.57 100.736C106.218 101.302 105.738 101.75 105.13 102.08C104.522 102.411 103.829 102.576 103.05 102.576C101.791 102.576 100.767 102.182 99.9779 101.392C99.1886 100.603 98.7939 99.6003 98.7939 98.3843C98.7939 97.1896 99.1832 96.1923 99.9619 95.3923C100.741 94.5923 101.743 94.1923 102.97 94.1923ZM102.97 95.2163C102.138 95.2163 101.439 95.4669 100.874 95.9683C100.319 96.4589 99.9886 97.0989 99.8819 97.8883H105.85C105.743 97.0456 105.418 96.3896 104.874 95.9203C104.33 95.4509 103.695 95.2163 102.97 95.2163ZM113.962 94.3843H115.018V102.384H113.962V98.8963H109.354V102.384H108.298V94.3843H109.354V97.8723H113.962V94.3843ZM122.595 94.3843H123.651V102.384H122.595V98.8963H117.987V102.384H116.931V94.3843H117.987V97.8723H122.595V94.3843ZM128.812 97.4243C129.559 97.4243 130.188 97.6589 130.7 98.1283C131.223 98.5869 131.484 99.1789 131.484 99.9043C131.484 100.63 131.223 101.227 130.7 101.696C130.188 102.155 129.559 102.384 128.812 102.384H125.564V94.3843H126.62V97.4243H128.812ZM132.604 94.3843H133.66V102.384H132.604V94.3843ZM128.812 101.36C129.26 101.36 129.639 101.227 129.948 100.96C130.268 100.694 130.428 100.342 130.428 99.9043C130.428 99.4669 130.268 99.1149 129.948 98.8483C129.639 98.5816 129.26 98.4483 128.812 98.4483H126.62V101.36H128.812ZM143.428 94.3843V102.384H142.372V96.0003L139.572 100.544H139.444L136.644 96.0003V102.384H135.588V94.3843H136.804L139.508 98.7683L142.212 94.3843H143.428ZM151.874 94.1923C153.079 94.1923 154.05 94.5923 154.786 95.3923C155.522 96.1816 155.89 97.1789 155.89 98.3843C155.89 99.5896 155.516 100.592 154.77 101.392C154.034 102.182 153.058 102.576 151.842 102.576C150.978 102.576 150.226 102.39 149.586 102.016C148.956 101.632 148.503 101.115 148.226 100.464L149.138 99.9363C149.319 100.427 149.644 100.822 150.114 101.12C150.583 101.408 151.159 101.552 151.842 101.552C152.642 101.552 153.308 101.307 153.842 100.816C154.375 100.315 154.695 99.6749 154.802 98.8963H150.818V97.8723H154.802C154.706 97.0936 154.391 96.4589 153.858 95.9683C153.335 95.4669 152.674 95.2163 151.874 95.2163C151.266 95.2163 150.727 95.3603 150.258 95.6483C149.788 95.9363 149.442 96.3256 149.218 96.8163L148.29 96.2883C148.61 95.6376 149.084 95.1256 149.714 94.7523C150.354 94.3789 151.074 94.1923 151.874 94.1923ZM165.139 95.5363C165.907 96.3149 166.291 97.2643 166.291 98.3843C166.291 99.5043 165.907 100.454 165.139 101.232C164.371 102.011 163.357 102.454 162.099 102.56V105.584H161.043V102.56C159.784 102.454 158.771 102.011 158.003 101.232C157.235 100.454 156.851 99.5043 156.851 98.3843C156.851 97.2643 157.235 96.3149 158.003 95.5363C158.771 94.7576 159.784 94.3149 161.043 94.2083V91.1843H162.099V94.2083C163.357 94.3149 164.371 94.7576 165.139 95.5363ZM158.755 96.2723C158.189 96.8483 157.907 97.5523 157.907 98.3843C157.907 99.2163 158.189 99.9256 158.755 100.512C159.32 101.088 160.083 101.424 161.043 101.52V95.2483C160.083 95.3443 159.32 95.6856 158.755 96.2723ZM162.099 101.52C163.059 101.424 163.821 101.088 164.387 100.512C164.952 99.9256 165.235 99.2163 165.235 98.3843C165.235 97.5523 164.952 96.8483 164.387 96.2723C163.821 95.6856 163.059 95.3443 162.099 95.2483V101.52ZM175.538 95.5363C176.306 96.3149 176.69 97.2643 176.69 98.3843C176.69 99.5043 176.306 100.454 175.538 101.232C174.77 102.011 173.756 102.454 172.498 102.56V105.584H171.442V102.56C170.183 102.454 169.17 102.011 168.402 101.232C167.634 100.454 167.25 99.5043 167.25 98.3843C167.25 97.2643 167.634 96.3149 168.402 95.5363C169.17 94.7576 170.183 94.3149 171.442 94.2083V91.1843H172.498V94.2083C173.756 94.3149 174.77 94.7576 175.538 95.5363ZM169.154 96.2723C168.588 96.8483 168.306 97.5523 168.306 98.3843C168.306 99.2163 168.588 99.9256 169.154 100.512C169.719 101.088 170.482 101.424 171.442 101.52V95.2483C170.482 95.3443 169.719 95.6856 169.154 96.2723ZM172.498 101.52C173.458 101.424 174.22 101.088 174.786 100.512C175.351 99.9256 175.634 99.2163 175.634 98.3843C175.634 97.5523 175.351 96.8483 174.786 96.2723C174.22 95.6856 173.458 95.3443 172.498 95.2483V101.52ZM181.824 94.1923C183.008 94.1923 183.963 94.6136 184.688 95.4563C185.424 96.2883 185.792 97.2749 185.792 98.4163C185.792 98.5336 185.782 98.6989 185.76 98.9123H178.736C178.843 99.7229 179.184 100.368 179.76 100.848C180.347 101.318 181.067 101.552 181.92 101.552C182.528 101.552 183.051 101.43 183.488 101.184C183.936 100.928 184.272 100.598 184.496 100.192L185.424 100.736C185.072 101.302 184.592 101.75 183.984 102.08C183.376 102.411 182.683 102.576 181.904 102.576C180.646 102.576 179.622 102.182 178.832 101.392C178.043 100.603 177.648 99.6003 177.648 98.3843C177.648 97.1896 178.038 96.1923 178.816 95.3923C179.595 94.5923 180.598 94.1923 181.824 94.1923ZM181.824 95.2163C180.992 95.2163 180.294 95.4669 179.728 95.9683C179.174 96.4589 178.843 97.0989 178.736 97.8883H184.704C184.598 97.0456 184.272 96.3896 183.728 95.9203C183.184 95.4509 182.55 95.2163 181.824 95.2163ZM193.616 102.384H192.208L188.208 98.5283V102.384H187.152V94.3843H188.208V97.9203L192.016 94.3843H193.456L189.328 98.2243L193.616 102.384ZM200.498 94.3843V95.4083H197.666V102.384H196.61V95.4083H193.778V94.3843H200.498ZM207.857 101.376C207.046 102.176 206.054 102.576 204.881 102.576C203.707 102.576 202.71 102.176 201.889 101.376C201.078 100.566 200.673 99.5683 200.673 98.3843C200.673 97.2003 201.078 96.2083 201.889 95.4083C202.71 94.5976 203.707 94.1923 204.881 94.1923C206.054 94.1923 207.046 94.5976 207.857 95.4083C208.678 96.2083 209.089 97.2003 209.089 98.3843C209.089 99.5683 208.678 100.566 207.857 101.376ZM202.641 100.64C203.249 101.248 203.995 101.552 204.881 101.552C205.766 101.552 206.513 101.248 207.121 100.64C207.729 100.022 208.033 99.2696 208.033 98.3843C208.033 97.4989 207.729 96.7523 207.121 96.1443C206.513 95.5256 205.766 95.2163 204.881 95.2163C203.995 95.2163 203.249 95.5256 202.641 96.1443C202.033 96.7523 201.729 97.4989 201.729 98.3843C201.729 99.2696 202.033 100.022 202.641 100.64ZM218.376 94.3843V102.384H217.32V96.0003L214.52 100.544H214.392L211.592 96.0003V102.384H210.536V94.3843H211.752L214.456 98.7683L217.16 94.3843H218.376Z" fill="#020828"/>
<circle cx="27.6043" cy="42.4798" r="12.8641" stroke="#A7DFDE" stroke-width="2"/>
<path d="M28.4045 37.484C28.1378 37.7507 27.8178 37.884 27.4445 37.884C27.0712 37.884 26.7445 37.7507 26.4645 37.484C26.1978 37.204 26.0645 36.8774 26.0645 36.504C26.0645 36.1307 26.1978 35.8107 26.4645 35.544C26.7312 35.264 27.0578 35.124 27.4445 35.124C27.8312 35.124 28.1578 35.264 28.4245 35.544C28.6912 35.8107 28.8245 36.1307 28.8245 36.504C28.8245 36.8774 28.6845 37.204 28.4045 37.484ZM26.3645 49.384V39.384H28.5245V49.384H26.3645Z" fill="#020828"/>
</svg>
