<svg width="418" height="117" viewBox="0 0 418 117" fill="none" xmlns="http://www.w3.org/2000/svg">
<rect x="0.5" y="28.3904" width="416.959" height="87.8637" rx="10" fill="white"/>
<circle cx="28.9207" cy="58.4581" r="12.8641" stroke="#A7DFDE" stroke-width="2"/>
<path d="M0.5 40.953V10.442C0.5 9.13457 2.20951 8.64017 2.9074 9.74579C9.93293 20.8759 19.4718 30.2025 30.7573 36.9757L37.3843 40.953H0.5Z" fill="white"/>
<path d="M68.0119 67.6423C70.6119 67.6423 72.9319 66.4223 74.1119 64.0423L72.7519 63.2423C71.7719 65.1823 70.1319 66.0823 68.1319 66.0823C64.8919 66.0823 62.7119 63.6823 62.7119 60.3623C62.7119 57.0423 64.8919 54.6423 68.1319 54.6423C70.1319 54.6423 71.7319 55.5423 72.7119 57.4823L74.1119 56.6823C72.9319 54.3023 70.6119 53.0823 68.0119 53.0823C63.9119 53.0823 60.9719 56.2423 60.9719 60.3623C60.9719 64.4823 63.8719 67.6423 68.0119 67.6423ZM80.6886 67.6423C83.8486 67.6423 85.8886 65.2023 85.8886 62.3023C85.8886 59.4223 83.8486 56.9623 80.6886 56.9623C77.5286 56.9623 75.5086 59.4223 75.5086 62.3023C75.5086 65.2023 77.5286 67.6423 80.6886 67.6423ZM80.6886 66.1623C78.5686 66.1623 77.1686 64.5423 77.1686 62.3023C77.1686 60.0623 78.5686 58.4623 80.6886 58.4623C82.8086 58.4623 84.2086 60.0623 84.2086 62.3023C84.2086 64.5423 82.8086 66.1623 80.6886 66.1623ZM93.5272 56.9623C91.8872 56.9623 90.5672 57.6823 89.9872 58.9823V57.2423H88.3872V67.3623H89.9872V61.3423C89.9872 59.5623 91.3472 58.4623 93.1672 58.4623C94.7672 58.4623 95.5472 59.3223 95.5472 61.2823V67.3623H97.1472V60.9023C97.1472 58.3623 95.8272 56.9623 93.5272 56.9623ZM103.955 67.5223C104.455 67.5223 105.115 67.4623 105.755 67.2623V65.9223C105.175 66.0423 104.635 66.1023 104.195 66.1023C103.035 66.1023 102.515 65.7023 102.515 64.6823V58.6223H105.715V57.2423H102.515V54.2423H100.915V57.2423H98.8747V58.6223H100.915V64.7823C100.915 66.6023 101.995 67.5223 103.955 67.5223ZM111.82 56.9623C110.08 56.9623 108.6 57.6423 107.66 58.9023L108.68 59.8623C109.44 58.9223 110.54 58.4223 111.76 58.4223C113.3 58.4223 114.18 59.2423 114.18 60.7023V61.4823H111.14C108.46 61.4823 107.06 62.6823 107.06 64.5023C107.06 66.3823 108.46 67.5623 110.6 67.5623C112.38 67.5623 113.74 66.7623 114.22 65.5623V67.3623H115.74V60.7023C115.74 58.3823 114.3 56.9623 111.82 56.9623ZM110.86 66.2223C109.48 66.2223 108.7 65.5623 108.7 64.4623C108.7 63.4023 109.5 62.7623 111.2 62.7623H114.18V63.2623C114.18 64.9623 112.76 66.2223 110.86 66.2223ZM119.726 55.0823C120.366 55.0823 120.826 54.6023 120.826 53.9623C120.826 53.3223 120.366 52.8423 119.726 52.8423C119.066 52.8423 118.606 53.3223 118.606 53.9623C118.606 54.6023 119.066 55.0823 119.726 55.0823ZM118.926 67.3623H120.526V57.2423H118.926V67.3623ZM128.9 56.9623C127.26 56.9623 125.94 57.6823 125.36 58.9823V57.2423H123.76V67.3623H125.36V61.3423C125.36 59.5623 126.72 58.4623 128.54 58.4623C130.14 58.4623 130.92 59.3223 130.92 61.2823V67.3623H132.52V60.9023C132.52 58.3623 131.2 56.9623 128.9 56.9623ZM139.185 67.6423C141.705 67.6423 143.145 66.3623 143.145 64.4823C143.145 63.1223 142.365 62.1823 140.305 61.7223L138.505 61.3223C137.065 61.0023 136.665 60.5823 136.665 59.9223C136.665 59.0023 137.425 58.4223 138.925 58.4223C140.205 58.4223 141.225 58.8423 141.885 59.6823L142.985 58.7223C142.185 57.6023 140.785 56.9623 139.005 56.9623C136.525 56.9623 135.065 58.2223 135.065 59.9423C135.065 61.3623 136.025 62.2623 138.105 62.7423L139.725 63.1223C141.085 63.4223 141.545 63.8823 141.545 64.6023C141.545 65.5423 140.665 66.1823 139.165 66.1823C137.785 66.1823 136.585 65.6623 135.865 64.5623L134.685 65.4023C135.465 66.7623 137.105 67.6423 139.185 67.6423ZM153.648 56.9623C151.908 56.9623 150.428 57.6423 149.488 58.9023L150.508 59.8623C151.268 58.9223 152.368 58.4223 153.588 58.4223C155.128 58.4223 156.008 59.2423 156.008 60.7023V61.4823H152.968C150.288 61.4823 148.888 62.6823 148.888 64.5023C148.888 66.3823 150.288 67.5623 152.428 67.5623C154.208 67.5623 155.568 66.7623 156.048 65.5623V67.3623H157.568V60.7023C157.568 58.3823 156.128 56.9623 153.648 56.9623ZM152.688 66.2223C151.308 66.2223 150.528 65.5623 150.528 64.4623C150.528 63.4023 151.328 62.7623 153.028 62.7623H156.008V63.2623C156.008 64.9623 154.588 66.2223 152.688 66.2223ZM176.643 56.9623C174.903 56.9623 173.583 57.8023 173.063 59.1023C172.583 57.7223 171.483 56.9623 169.903 56.9623C168.343 56.9623 167.123 57.7023 166.563 58.9823V57.2423H164.963V67.3623H166.563V61.3423C166.563 59.5623 167.803 58.4623 169.543 58.4623C171.063 58.4623 171.723 59.3223 171.723 61.2423V67.3623H173.323V61.3423C173.323 59.5623 174.583 58.4623 176.303 58.4623C177.843 58.4623 178.503 59.3223 178.503 61.2423V67.3623H180.103V60.8623C180.103 58.3823 178.883 56.9623 176.643 56.9623ZM187.174 56.9623C185.434 56.9623 183.954 57.6423 183.014 58.9023L184.034 59.8623C184.794 58.9223 185.894 58.4223 187.114 58.4223C188.654 58.4223 189.534 59.2423 189.534 60.7023V61.4823H186.494C183.814 61.4823 182.414 62.6823 182.414 64.5023C182.414 66.3823 183.814 67.5623 185.954 67.5623C187.734 67.5623 189.094 66.7623 189.574 65.5623V67.3623H191.094V60.7023C191.094 58.3823 189.654 56.9623 187.174 56.9623ZM186.214 66.2223C184.834 66.2223 184.054 65.5623 184.054 64.4623C184.054 63.4023 184.854 62.7623 186.554 62.7623H189.534V63.2623C189.534 64.9623 188.114 66.2223 186.214 66.2223ZM197.781 67.6423C200.301 67.6423 201.741 66.3623 201.741 64.4823C201.741 63.1223 200.961 62.1823 198.901 61.7223L197.101 61.3223C195.661 61.0023 195.261 60.5823 195.261 59.9223C195.261 59.0023 196.021 58.4223 197.521 58.4223C198.801 58.4223 199.821 58.8423 200.481 59.6823L201.581 58.7223C200.781 57.6023 199.381 56.9623 197.601 56.9623C195.121 56.9623 193.661 58.2223 193.661 59.9423C193.661 61.3623 194.621 62.2623 196.701 62.7423L198.321 63.1223C199.681 63.4223 200.141 63.8823 200.141 64.6023C200.141 65.5423 199.261 66.1823 197.761 66.1823C196.381 66.1823 195.181 65.6623 194.461 64.5623L193.281 65.4023C194.061 66.7623 195.701 67.6423 197.781 67.6423ZM207.595 67.6423C210.115 67.6423 211.555 66.3623 211.555 64.4823C211.555 63.1223 210.775 62.1823 208.715 61.7223L206.915 61.3223C205.475 61.0023 205.075 60.5823 205.075 59.9223C205.075 59.0023 205.835 58.4223 207.335 58.4223C208.615 58.4223 209.635 58.8423 210.295 59.6823L211.395 58.7223C210.595 57.6023 209.195 56.9623 207.415 56.9623C204.935 56.9623 203.475 58.2223 203.475 59.9423C203.475 61.3623 204.435 62.2623 206.515 62.7423L208.135 63.1223C209.495 63.4223 209.955 63.8823 209.955 64.6023C209.955 65.5423 209.075 66.1823 207.575 66.1823C206.195 66.1823 204.995 65.6623 204.275 64.5623L203.095 65.4023C203.875 66.7623 205.515 67.6423 207.595 67.6423ZM217.83 56.9623C216.09 56.9623 214.61 57.6423 213.67 58.9023L214.69 59.8623C215.45 58.9223 216.55 58.4223 217.77 58.4223C219.31 58.4223 220.19 59.2423 220.19 60.7023V61.4823H217.15C214.47 61.4823 213.07 62.6823 213.07 64.5023C213.07 66.3823 214.47 67.5623 216.61 67.5623C218.39 67.5623 219.75 66.7623 220.23 65.5623V67.3623H221.75V60.7023C221.75 58.3823 220.31 56.9623 217.83 56.9623ZM216.87 66.2223C215.49 66.2223 214.71 65.5623 214.71 64.4623C214.71 63.4023 215.51 62.7623 217.21 62.7623H220.19V63.2623C220.19 64.9623 218.77 66.2223 216.87 66.2223ZM229.965 55.0823C230.605 55.0823 231.065 54.6023 231.065 53.9623C231.065 53.3223 230.605 52.8423 229.965 52.8423C229.305 52.8423 228.845 53.3223 228.845 53.9623C228.845 54.6023 229.305 55.0823 229.965 55.0823ZM229.165 67.3623H230.765V57.2423H229.165V67.3623ZM241.879 52.7223V59.1623C241.279 57.8223 239.819 56.9623 238.079 56.9623C235.279 56.9623 233.279 59.1423 233.279 62.3023C233.279 65.4623 235.279 67.6423 238.079 67.6423C239.819 67.6423 241.279 66.8023 241.879 65.4423V67.3623H243.479V52.7223H241.879ZM238.459 66.1623C236.339 66.1623 234.939 64.5423 234.939 62.3023C234.939 60.0623 236.339 58.4623 238.459 58.4623C240.559 58.4623 241.959 60.0623 241.959 62.3023C241.959 64.5423 240.559 66.1623 238.459 66.1623ZM250.953 67.3623H252.553V52.7223H250.953V67.3623ZM256.588 55.0823C257.228 55.0823 257.688 54.6023 257.688 53.9623C257.688 53.3223 257.228 52.8423 256.588 52.8423C255.928 52.8423 255.468 53.3223 255.468 53.9623C255.468 54.6023 255.928 55.0823 256.588 55.0823ZM255.788 67.3623H257.388V57.2423H255.788V67.3623ZM266.022 56.9623C264.282 56.9623 262.822 57.8223 262.222 59.1623V52.7223H260.622V67.3623H262.222V65.4423C262.822 66.8023 264.282 67.6423 266.022 67.6423C268.822 67.6423 270.822 65.4623 270.822 62.3023C270.822 59.1423 268.822 56.9623 266.022 56.9623ZM265.642 66.1623C263.542 66.1623 262.142 64.5423 262.142 62.3023C262.142 60.0623 263.542 58.4623 265.642 58.4623C267.762 58.4623 269.162 60.0623 269.162 62.3023C269.162 64.5423 267.762 66.1623 265.642 66.1623ZM282.467 61.9223C282.467 58.9623 280.467 56.9623 277.667 56.9623C274.687 56.9623 272.627 59.2223 272.627 62.3223C272.627 65.4623 274.727 67.6423 277.807 67.6423C279.687 67.6423 281.207 66.8423 282.187 65.4623L281.107 64.5423C280.247 65.6423 279.147 66.1623 277.847 66.1623C275.807 66.1623 274.447 64.9023 274.267 62.7823H282.407C282.447 62.5023 282.467 62.2023 282.467 61.9223ZM277.667 58.4623C279.427 58.4623 280.667 59.5423 280.827 61.4823H274.307C274.587 59.6623 275.807 58.4623 277.667 58.4623ZM289.639 57.1023C288.159 57.1023 286.999 57.8623 286.539 59.1623V57.2423H284.939V67.3623H286.539V62.1623C286.539 59.7023 287.759 58.5823 289.679 58.5823C289.939 58.5823 290.259 58.6023 290.539 58.6423V57.2223C290.279 57.1223 289.979 57.1023 289.639 57.1023ZM296.538 67.6423C299.698 67.6423 301.738 65.2023 301.738 62.3023C301.738 59.4223 299.698 56.9623 296.538 56.9623C293.378 56.9623 291.358 59.4223 291.358 62.3023C291.358 65.2023 293.378 67.6423 296.538 67.6423ZM296.538 66.1623C294.418 66.1623 293.018 64.5423 293.018 62.3023C293.018 60.0623 294.418 58.4623 296.538 58.4623C298.658 58.4623 300.058 60.0623 300.058 62.3023C300.058 64.5423 298.658 66.1623 296.538 66.1623ZM308.465 67.3623H310.065V52.7223H308.465V67.3623ZM317.2 56.9623C315.46 56.9623 313.98 57.6423 313.04 58.9023L314.06 59.8623C314.82 58.9223 315.92 58.4223 317.14 58.4223C318.68 58.4223 319.56 59.2423 319.56 60.7023V61.4823H316.52C313.84 61.4823 312.44 62.6823 312.44 64.5023C312.44 66.3823 313.84 67.5623 315.98 67.5623C317.76 67.5623 319.12 66.7623 319.6 65.5623V67.3623H321.12V60.7023C321.12 58.3823 319.68 56.9623 317.2 56.9623ZM316.24 66.2223C314.86 66.2223 314.08 65.5623 314.08 64.4623C314.08 63.4023 314.88 62.7623 316.58 62.7623H319.56V63.2623C319.56 64.9623 318.14 66.2223 316.24 66.2223ZM328.666 67.6423C330.746 67.6423 332.466 66.5623 333.106 64.7223L331.666 64.1223C331.086 65.5223 330.106 66.1623 328.786 66.1623C326.646 66.1623 325.226 64.6223 325.226 62.3023C325.226 59.9823 326.646 58.4623 328.786 58.4623C330.106 58.4623 331.086 59.0823 331.666 60.5023L333.146 59.8823C332.466 58.0623 330.806 56.9623 328.666 56.9623C325.686 56.9623 323.566 59.2023 323.566 62.3023C323.566 65.4023 325.686 67.6423 328.666 67.6423ZM335.995 55.0823C336.635 55.0823 337.095 54.6023 337.095 53.9623C337.095 53.3223 336.635 52.8423 335.995 52.8423C335.335 52.8423 334.875 53.3223 334.875 53.9623C334.875 54.6023 335.335 55.0823 335.995 55.0823ZM335.195 67.3623H336.795V57.2423H335.195V67.3623ZM345.169 56.9623C343.529 56.9623 342.209 57.6823 341.629 58.9823V57.2423H340.029V67.3623H341.629V61.3423C341.629 59.5623 342.989 58.4623 344.809 58.4623C346.409 58.4623 347.189 59.3223 347.189 61.2823V67.3623H348.789V60.9023C348.789 58.3623 347.469 56.9623 345.169 56.9623ZM352.754 55.0823C353.394 55.0823 353.854 54.6023 353.854 53.9623C353.854 53.3223 353.394 52.8423 352.754 52.8423C352.094 52.8423 351.634 53.3223 351.634 53.9623C351.634 54.6023 352.094 55.0823 352.754 55.0823ZM351.954 67.3623H353.554V57.2423H351.954V67.3623ZM360.708 56.9623C358.968 56.9623 357.488 57.6423 356.548 58.9023L357.568 59.8623C358.328 58.9223 359.428 58.4223 360.648 58.4223C362.188 58.4223 363.068 59.2423 363.068 60.7023V61.4823H360.028C357.348 61.4823 355.948 62.6823 355.948 64.5023C355.948 66.3823 357.348 67.5623 359.488 67.5623C361.268 67.5623 362.628 66.7623 363.108 65.5623V67.3623H364.628V60.7023C364.628 58.3823 363.188 56.9623 360.708 56.9623ZM359.748 66.2223C358.368 66.2223 357.588 65.5623 357.588 64.4623C357.588 63.4023 358.388 62.7623 360.088 62.7623H363.068V63.2623C363.068 64.9623 361.648 66.2223 359.748 66.2223ZM66.8919 83.9623C65.1519 83.9623 63.6919 84.8223 63.0919 86.1623V84.2423H61.4919V98.3623H63.0919V92.4423C63.6919 93.8023 65.1519 94.6423 66.8919 94.6423C69.6919 94.6423 71.6919 92.4623 71.6919 89.3023C71.6919 86.1423 69.6919 83.9623 66.8919 83.9623ZM66.5119 93.1623C64.4119 93.1623 63.0119 91.5423 63.0119 89.3023C63.0119 87.0623 64.4119 85.4623 66.5119 85.4623C68.6319 85.4623 70.0319 87.0623 70.0319 89.3023C70.0319 91.5423 68.6319 93.1623 66.5119 93.1623ZM79.3569 83.9623C77.7169 83.9623 76.3969 84.6823 75.8169 85.9823V79.7223H74.2169V94.3623H75.8169V88.3423C75.8169 86.5623 77.1769 85.4623 78.9969 85.4623C80.5969 85.4623 81.3769 86.3223 81.3769 88.2823V94.3623H82.9769V87.9023C82.9769 85.3623 81.6569 83.9623 79.3569 83.9623ZM90.0416 83.9623C88.3016 83.9623 86.8216 84.6423 85.8816 85.9023L86.9016 86.8623C87.6616 85.9223 88.7616 85.4223 89.9816 85.4223C91.5216 85.4223 92.4016 86.2423 92.4016 87.7023V88.4823H89.3616C86.6816 88.4823 85.2816 89.6823 85.2816 91.5023C85.2816 93.3823 86.6816 94.5623 88.8216 94.5623C90.6016 94.5623 91.9616 93.7623 92.4416 92.5623V94.3623H93.9616V87.7023C93.9616 85.3823 92.5216 83.9623 90.0416 83.9623ZM89.0816 93.2223C87.7016 93.2223 86.9216 92.5623 86.9216 91.4623C86.9216 90.4023 87.7216 89.7623 89.4216 89.7623H92.4016V90.2623C92.4016 91.9623 90.9816 93.2223 89.0816 93.2223ZM101.828 84.1023C100.348 84.1023 99.1878 84.8623 98.7278 86.1623V84.2423H97.1278V94.3623H98.7278V89.1623C98.7278 86.7023 99.9478 85.5823 101.868 85.5823C102.128 85.5823 102.448 85.6023 102.728 85.6423V84.2223C102.468 84.1223 102.168 84.1023 101.828 84.1023ZM113.387 88.9223C113.387 85.9623 111.387 83.9623 108.587 83.9623C105.607 83.9623 103.547 86.2223 103.547 89.3223C103.547 92.4623 105.647 94.6423 108.727 94.6423C110.607 94.6423 112.127 93.8423 113.107 92.4623L112.027 91.5423C111.167 92.6423 110.067 93.1623 108.767 93.1623C106.727 93.1623 105.367 91.9023 105.187 89.7823H113.327C113.367 89.5023 113.387 89.2023 113.387 88.9223ZM108.587 85.4623C110.347 85.4623 111.587 86.5423 111.747 88.4823H105.227C105.507 86.6623 106.727 85.4623 108.587 85.4623ZM119.444 94.5223C119.944 94.5223 120.604 94.4623 121.244 94.2623V92.9223C120.664 93.0423 120.124 93.1023 119.684 93.1023C118.524 93.1023 118.004 92.7023 118.004 91.6823V85.6223H121.204V84.2423H118.004V81.2423H116.404V84.2423H114.364V85.6223H116.404V91.7823C116.404 93.6023 117.484 94.5223 119.444 94.5223ZM128.128 84.1023C126.648 84.1023 125.488 84.8623 125.028 86.1623V84.2423H123.428V94.3623H125.028V89.1623C125.028 86.7023 126.248 85.5823 128.168 85.5823C128.428 85.5823 128.748 85.6023 129.028 85.6423V84.2223C128.768 84.1223 128.468 84.1023 128.128 84.1023ZM134.604 83.9623C132.864 83.9623 131.384 84.6423 130.444 85.9023L131.464 86.8623C132.224 85.9223 133.324 85.4223 134.544 85.4223C136.084 85.4223 136.964 86.2423 136.964 87.7023V88.4823H133.924C131.244 88.4823 129.844 89.6823 129.844 91.5023C129.844 93.3823 131.244 94.5623 133.384 94.5623C135.164 94.5623 136.524 93.7623 137.004 92.5623V94.3623H138.524V87.7023C138.524 85.3823 137.084 83.9623 134.604 83.9623ZM133.644 93.2223C132.264 93.2223 131.484 92.5623 131.484 91.4623C131.484 90.4023 132.284 89.7623 133.984 89.7623H136.964V90.2623C136.964 91.9623 135.544 93.2223 133.644 93.2223ZM146.739 82.0823C147.379 82.0823 147.839 81.6023 147.839 80.9623C147.839 80.3223 147.379 79.8423 146.739 79.8423C146.079 79.8423 145.619 80.3223 145.619 80.9623C145.619 81.6023 146.079 82.0823 146.739 82.0823ZM145.939 94.3623H147.539V84.2423H145.939V94.3623ZM158.653 79.7223V86.1623C158.053 84.8223 156.593 83.9623 154.853 83.9623C152.053 83.9623 150.053 86.1423 150.053 89.3023C150.053 92.4623 152.053 94.6423 154.853 94.6423C156.593 94.6423 158.053 93.8023 158.653 92.4423V94.3623H160.253V79.7223H158.653ZM155.233 93.1623C153.113 93.1623 151.713 91.5423 151.713 89.3023C151.713 87.0623 153.113 85.4623 155.233 85.4623C157.333 85.4623 158.733 87.0623 158.733 89.3023C158.733 91.5423 157.333 93.1623 155.233 93.1623ZM176.847 88.9223C176.847 85.9623 174.847 83.9623 172.047 83.9623C169.067 83.9623 167.007 86.2223 167.007 89.3223C167.007 92.4623 169.107 94.6423 172.187 94.6423C174.067 94.6423 175.587 93.8423 176.567 92.4623L175.487 91.5423C174.627 92.6423 173.527 93.1623 172.227 93.1623C170.187 93.1623 168.827 91.9023 168.647 89.7823H176.787C176.827 89.5023 176.847 89.2023 176.847 88.9223ZM172.047 85.4623C173.807 85.4623 175.047 86.5423 175.207 88.4823H168.687C168.967 86.6623 170.187 85.4623 172.047 85.4623ZM187.199 84.2423V86.1423C186.599 84.8023 185.159 83.9623 183.419 83.9623C180.619 83.9623 178.599 86.1023 178.599 89.1623C178.599 92.2423 180.619 94.3623 183.419 94.3623C185.159 94.3623 186.599 93.5423 187.199 92.2223V93.2223C187.199 95.8423 185.879 97.1623 183.559 97.1623C182.099 97.1623 180.799 96.6223 179.899 95.7623L178.979 96.9423C179.999 98.0023 181.639 98.6423 183.559 98.6423C186.899 98.6423 188.799 96.7423 188.799 93.2223V84.2423H187.199ZM183.779 92.8823C181.659 92.8823 180.259 91.3223 180.259 89.1623C180.259 87.0023 181.659 85.4623 183.779 85.4623C185.879 85.4623 187.279 87.0023 187.279 89.1623C187.279 91.3223 185.879 92.8823 183.779 92.8823ZM201.164 88.9223C201.164 85.9623 199.164 83.9623 196.364 83.9623C193.384 83.9623 191.324 86.2223 191.324 89.3223C191.324 92.4623 193.424 94.6423 196.504 94.6423C198.384 94.6423 199.904 93.8423 200.884 92.4623L199.804 91.5423C198.944 92.6423 197.844 93.1623 196.544 93.1623C194.504 93.1623 193.144 91.9023 192.964 89.7823H201.104C201.144 89.5023 201.164 89.2023 201.164 88.9223ZM196.364 85.4623C198.124 85.4623 199.364 86.5423 199.524 88.4823H193.004C193.284 86.6623 194.504 85.4623 196.364 85.4623ZM207.221 94.5223C207.721 94.5223 208.381 94.4623 209.021 94.2623V92.9223C208.441 93.0423 207.901 93.1023 207.461 93.1023C206.301 93.1023 205.781 92.7023 205.781 91.6823V85.6223H208.981V84.2423H205.781V81.2423H204.181V84.2423H202.141V85.6223H204.181V91.7823C204.181 93.6023 205.261 94.5223 207.221 94.5223ZM223.314 79.7223V86.1623C222.714 84.8223 221.254 83.9623 219.514 83.9623C216.714 83.9623 214.714 86.1423 214.714 89.3023C214.714 92.4623 216.714 94.6423 219.514 94.6423C221.254 94.6423 222.714 93.8023 223.314 92.4423V94.3623H224.914V79.7223H223.314ZM219.894 93.1623C217.774 93.1623 216.374 91.5423 216.374 89.3023C216.374 87.0623 217.774 85.4623 219.894 85.4623C221.994 85.4623 223.394 87.0623 223.394 89.3023C223.394 91.5423 221.994 93.1623 219.894 93.1623ZM228.979 82.0823C229.619 82.0823 230.079 81.6023 230.079 80.9623C230.079 80.3223 229.619 79.8423 228.979 79.8423C228.319 79.8423 227.859 80.3223 227.859 80.9623C227.859 81.6023 228.319 82.0823 228.979 82.0823ZM228.179 94.3623H229.779V84.2423H228.179V94.3623ZM236.933 83.9623C235.193 83.9623 233.713 84.6423 232.773 85.9023L233.793 86.8623C234.553 85.9223 235.653 85.4223 236.873 85.4223C238.413 85.4223 239.293 86.2423 239.293 87.7023V88.4823H236.253C233.573 88.4823 232.173 89.6823 232.173 91.5023C232.173 93.3823 233.573 94.5623 235.713 94.5623C237.493 94.5623 238.853 93.7623 239.333 92.5623V94.3623H240.853V87.7023C240.853 85.3823 239.413 83.9623 236.933 83.9623ZM235.973 93.2223C234.593 93.2223 233.813 92.5623 233.813 91.4623C233.813 90.4023 234.613 89.7623 236.313 89.7623H239.293V90.2623C239.293 91.9623 237.873 93.2223 235.973 93.2223ZM255.699 83.9623C253.959 83.9623 252.639 84.8023 252.119 86.1023C251.639 84.7223 250.539 83.9623 248.959 83.9623C247.399 83.9623 246.179 84.7023 245.619 85.9823V84.2423H244.019V94.3623H245.619V88.3423C245.619 86.5623 246.859 85.4623 248.599 85.4623C250.119 85.4623 250.779 86.3223 250.779 88.2423V94.3623H252.379V88.3423C252.379 86.5623 253.639 85.4623 255.359 85.4623C256.899 85.4623 257.559 86.3223 257.559 88.2423V94.3623H259.159V87.8623C259.159 85.3823 257.939 83.9623 255.699 83.9623ZM262.971 94.5223C263.671 94.5223 264.111 94.0223 264.111 93.3423C264.111 92.6823 263.671 92.2023 262.971 92.2023C262.251 92.2023 261.811 92.6823 261.811 93.3423C261.811 94.0223 262.251 94.5223 262.971 94.5223Z" fill="#020828"/>
<path d="M29.7209 53.4623C29.4542 53.729 29.1342 53.8623 28.7609 53.8623C28.3876 53.8623 28.0609 53.729 27.7809 53.4623C27.5142 53.1823 27.3809 52.8556 27.3809 52.4823C27.3809 52.109 27.5142 51.789 27.7809 51.5223C28.0476 51.2423 28.3742 51.1023 28.7609 51.1023C29.1476 51.1023 29.4742 51.2423 29.7409 51.5223C30.0076 51.789 30.1409 52.109 30.1409 52.4823C30.1409 52.8556 30.0009 53.1823 29.7209 53.4623ZM27.6809 65.3623V55.3623H29.8409V65.3623H27.6809Z" fill="#020828"/>
</svg>
