<svg width="315" height="183" viewBox="0 0 315 183" fill="none" xmlns="http://www.w3.org/2000/svg">
<rect x="1" y="15" width="314" height="168" rx="10" fill="white"/>
<path d="M0.481445 25.4982V3.30014C0.481445 2.35082 1.72494 1.99501 2.2271 2.80065C7.26836 10.8886 14.1373 17.6807 22.2814 22.6306L26.9996 25.4982H0.481445Z" fill="white"/>
<path d="M59.4058 45.3843V36.2643L53.1658 45.3843H52.2058V34.1843H53.3258V43.3043L59.5658 34.1843H60.5258V45.3843H59.4058ZM69.3208 44.3603H70.4408V47.5283H69.3848V45.3843H62.8568V47.5283H61.8008V44.3603H62.7768C63.3208 43.6456 63.5928 42.6376 63.5928 41.3363V37.3843H69.3208V44.3603ZM64.0568 44.3603H68.2648V38.4083H64.6488V41.3363C64.6488 42.5629 64.4514 43.5709 64.0568 44.3603ZM75.1018 37.1923C76.2858 37.1923 77.2404 37.6136 77.9658 38.4563C78.7018 39.2883 79.0698 40.2749 79.0698 41.4163C79.0698 41.5336 79.0591 41.6989 79.0378 41.9123H72.0138C72.1204 42.7229 72.4618 43.3683 73.0378 43.8483C73.6244 44.3176 74.3444 44.5523 75.1978 44.5523C75.8058 44.5523 76.3284 44.4296 76.7658 44.1843C77.2138 43.9283 77.5498 43.5976 77.7738 43.1923L78.7018 43.7363C78.3498 44.3016 77.8698 44.7496 77.2618 45.0803C76.6538 45.4109 75.9604 45.5763 75.1818 45.5763C73.9231 45.5763 72.8991 45.1816 72.1098 44.3923C71.3204 43.6029 70.9258 42.6003 70.9258 41.3843C70.9258 40.1896 71.3151 39.1923 72.0938 38.3923C72.8724 37.5923 73.8751 37.1923 75.1018 37.1923ZM75.1018 38.2163C74.2698 38.2163 73.5711 38.4669 73.0058 38.9683C72.4511 39.4589 72.1204 40.0989 72.0138 40.8883H77.9818C77.8751 40.0456 77.5498 39.3896 77.0058 38.9203C76.4618 38.4509 75.8271 38.2163 75.1018 38.2163ZM87.3095 37.3843H88.3655V45.3843H87.3095V43.8163C86.5735 44.9896 85.4962 45.5763 84.0775 45.5763C82.9362 45.5763 81.9602 45.1709 81.1495 44.3603C80.3495 43.5496 79.9495 42.5576 79.9495 41.3843C79.9495 40.2109 80.3495 39.2189 81.1495 38.4083C81.9602 37.5976 82.9362 37.1923 84.0775 37.1923C85.4962 37.1923 86.5735 37.7789 87.3095 38.9523V37.3843ZM81.9175 43.6403C82.5255 44.2483 83.2722 44.5523 84.1575 44.5523C85.0429 44.5523 85.7895 44.2483 86.3975 43.6403C87.0055 43.0216 87.3095 42.2696 87.3095 41.3843C87.3095 40.4989 87.0055 39.7523 86.3975 39.1443C85.7895 38.5256 85.0429 38.2163 84.1575 38.2163C83.2722 38.2163 82.5255 38.5256 81.9175 39.1443C81.3095 39.7523 81.0055 40.4989 81.0055 41.3843C81.0055 42.2696 81.3095 43.0216 81.9175 43.6403ZM96.8414 37.3843V45.3843H95.7854V38.4083H92.1694V41.9763C92.1694 43.3096 91.9134 44.2269 91.4014 44.7283C90.9001 45.2296 90.2067 45.4483 89.3214 45.3843V44.3923C89.9294 44.4563 90.3774 44.3123 90.6654 43.9603C90.9641 43.6083 91.1134 42.9469 91.1134 41.9763V37.3843H96.8414ZM102.006 40.4243C102.753 40.4243 103.382 40.6589 103.894 41.1283C104.417 41.5869 104.678 42.1789 104.678 42.9043C104.678 43.6296 104.417 44.2269 103.894 44.6963C103.382 45.1549 102.753 45.3843 102.006 45.3843H98.7583V37.3843H99.8143V40.4243H102.006ZM102.006 44.3603C102.454 44.3603 102.833 44.2269 103.142 43.9603C103.462 43.6936 103.622 43.3416 103.622 42.9043C103.622 42.4669 103.462 42.1149 103.142 41.8483C102.833 41.5816 102.454 41.4483 102.006 41.4483H99.8143V44.3603H102.006ZM111.618 37.3843H112.674V45.3843H111.618V41.8963H107.01V45.3843H105.954V37.3843H107.01V40.8723H111.618V37.3843ZM121.291 44.3763C120.48 45.1763 119.488 45.5763 118.315 45.5763C117.142 45.5763 116.144 45.1763 115.323 44.3763C114.512 43.5656 114.107 42.5683 114.107 41.3843C114.107 40.2003 114.512 39.2083 115.323 38.4083C116.144 37.5976 117.142 37.1923 118.315 37.1923C119.488 37.1923 120.48 37.5976 121.291 38.4083C122.112 39.2083 122.523 40.2003 122.523 41.3843C122.523 42.5683 122.112 43.5656 121.291 44.3763ZM116.075 43.6403C116.683 44.2483 117.43 44.5523 118.315 44.5523C119.2 44.5523 119.947 44.2483 120.555 43.6403C121.163 43.0216 121.467 42.2696 121.467 41.3843C121.467 40.4989 121.163 39.7523 120.555 39.1443C119.947 38.5256 119.2 38.2163 118.315 38.2163C117.43 38.2163 116.683 38.5256 116.075 39.1443C115.467 39.7523 115.163 40.4989 115.163 41.3843C115.163 42.2696 115.467 43.0216 116.075 43.6403ZM134.37 37.3843V45.3843H133.314V38.4083H128.706V45.3843H127.65V37.3843H134.37ZM142.987 44.3763C142.177 45.1763 141.185 45.5763 140.011 45.5763C138.838 45.5763 137.841 45.1763 137.019 44.3763C136.209 43.5656 135.803 42.5683 135.803 41.3843C135.803 40.2003 136.209 39.2083 137.019 38.4083C137.841 37.5976 138.838 37.1923 140.011 37.1923C141.185 37.1923 142.177 37.5976 142.987 38.4083C143.809 39.2083 144.219 40.2003 144.219 41.3843C144.219 42.5683 143.809 43.5656 142.987 44.3763ZM137.771 43.6403C138.379 44.2483 139.126 44.5523 140.011 44.5523C140.897 44.5523 141.643 44.2483 142.251 43.6403C142.859 43.0216 143.163 42.2696 143.163 41.3843C143.163 40.4989 142.859 39.7523 142.251 39.1443C141.643 38.5256 140.897 38.2163 140.011 38.2163C139.126 38.2163 138.379 38.5256 137.771 39.1443C137.163 39.7523 136.859 40.4989 136.859 41.3843C136.859 42.2696 137.163 43.0216 137.771 43.6403ZM152.074 44.3603H153.194V47.5283H152.138V45.3843H145.61V47.5283H144.554V44.3603H145.53C146.074 43.6456 146.346 42.6376 146.346 41.3363V37.3843H152.074V44.3603ZM146.81 44.3603H151.018V38.4083H147.402V41.3363C147.402 42.5629 147.205 43.5709 146.81 44.3603ZM161.191 45.3843H159.927L157.431 42.0883L154.935 45.3843H153.671L156.807 41.2403L153.879 37.3843H155.143L157.431 40.4083L159.719 37.3843H160.983L158.071 41.2403L161.191 45.3843ZM168.449 44.3763C167.638 45.1763 166.646 45.5763 165.473 45.5763C164.3 45.5763 163.302 45.1763 162.481 44.3763C161.67 43.5656 161.265 42.5683 161.265 41.3843C161.265 40.2003 161.67 39.2083 162.481 38.4083C163.302 37.5976 164.3 37.1923 165.473 37.1923C166.646 37.1923 167.638 37.5976 168.449 38.4083C169.27 39.2083 169.681 40.2003 169.681 41.3843C169.681 42.5683 169.27 43.5656 168.449 44.3763ZM163.233 43.6403C163.841 44.2483 164.588 44.5523 165.473 44.5523C166.358 44.5523 167.105 44.2483 167.713 43.6403C168.321 43.0216 168.625 42.2696 168.625 41.3843C168.625 40.4989 168.321 39.7523 167.713 39.1443C167.105 38.5256 166.358 38.2163 165.473 38.2163C164.588 38.2163 163.841 38.5256 163.233 39.1443C162.625 39.7523 162.321 40.4989 162.321 41.3843C162.321 42.2696 162.625 43.0216 163.233 43.6403ZM177.536 44.3603H178.656V47.5283H177.6V45.3843H171.072V47.5283H170.016V44.3603H170.992C171.536 43.6456 171.808 42.6376 171.808 41.3363V37.3843H177.536V44.3603ZM172.272 44.3603H176.48V38.4083H172.864V41.3363C172.864 42.5629 172.666 43.5709 172.272 44.3603ZM185.757 37.3843H186.653V45.3843H185.597V39.2243L180.829 45.3843H179.933V37.3843H180.989V43.5443L185.757 37.3843ZM194.326 37.3843V38.4083H191.494V45.3843H190.438V38.4083H187.606V37.3843H194.326ZM205.693 44.3603H206.813V47.5283H205.757V45.3843H199.229V47.5283H198.173V44.3603H199.149C199.693 43.6456 199.965 42.6376 199.965 41.3363V37.3843H205.693V44.3603ZM200.429 44.3603H204.637V38.4083H201.021V41.3363C201.021 42.5629 200.824 43.5709 200.429 44.3603ZM214.651 37.3843V45.3843H213.595V38.4083H209.979V41.9763C209.979 43.3096 209.723 44.2269 209.211 44.7283C208.709 45.2296 208.016 45.4483 207.131 45.3843V44.3923C207.739 44.4563 208.187 44.3123 208.475 43.9603C208.773 43.6083 208.923 42.9469 208.923 41.9763V37.3843H214.651ZM222.328 37.3843V45.3843H221.272V42.3123H219.896L217.432 45.3843H216.088L218.616 42.2803C217.976 42.1843 217.448 41.9176 217.032 41.4803C216.616 41.0429 216.408 40.5043 216.408 39.8643C216.408 39.1389 216.664 38.5469 217.176 38.0883C217.698 37.6189 218.333 37.3843 219.08 37.3843H222.328ZM219.08 41.3203H221.272V38.4083H219.08C218.632 38.4083 218.248 38.5416 217.928 38.8083C217.618 39.0749 217.464 39.4269 217.464 39.8643C217.464 40.3016 217.618 40.6536 217.928 40.9203C218.248 41.1869 218.632 41.3203 219.08 41.3203ZM234.488 37.3843V45.3843H233.432V38.4083H229.816V41.9763C229.816 43.3096 229.56 44.2269 229.048 44.7283C228.546 45.2296 227.853 45.4483 226.968 45.3843V44.3923C227.576 44.4563 228.024 44.3123 228.312 43.9603C228.61 43.6083 228.76 42.9469 228.76 41.9763V37.3843H234.488ZM242.229 37.3843H243.125V45.3843H242.069V39.2243L237.301 45.3843H236.405V37.3843H237.461V43.5443L242.229 37.3843ZM252.846 38.5363C253.614 39.3149 253.998 40.2643 253.998 41.3843C253.998 42.5043 253.614 43.4536 252.846 44.2323C252.078 45.0109 251.064 45.4536 249.806 45.5603V48.5843H248.75V45.5603C247.491 45.4536 246.478 45.0109 245.71 44.2323C244.942 43.4536 244.558 42.5043 244.558 41.3843C244.558 40.2643 244.942 39.3149 245.71 38.5363C246.478 37.7576 247.491 37.3149 248.75 37.2083V34.1843H249.806V37.2083C251.064 37.3149 252.078 37.7576 252.846 38.5363ZM246.462 39.2723C245.896 39.8483 245.614 40.5523 245.614 41.3843C245.614 42.2163 245.896 42.9256 246.462 43.5123C247.027 44.0883 247.79 44.4243 248.75 44.5203V38.2483C247.79 38.3443 247.027 38.6856 246.462 39.2723ZM249.806 44.5203C250.766 44.4243 251.528 44.0883 252.094 43.5123C252.659 42.9256 252.942 42.2163 252.942 41.3843C252.942 40.5523 252.659 39.8483 252.094 39.2723C251.528 38.6856 250.766 38.3443 249.806 38.2483V44.5203ZM260.884 37.3843V38.4083H258.052V45.3843H256.996V38.4083H254.164V37.3843H260.884ZM267.675 37.3843H268.571V45.3843H267.515V39.2243L262.747 45.3843H261.851V37.3843H262.907V43.5443L267.675 37.3843ZM276.148 37.3843H277.204V45.3843H276.148V41.8963H271.54V45.3843H270.484V37.3843H271.54V40.8723H276.148V37.3843ZM284.237 37.3843V38.4083H280.173V45.3843H279.117V37.3843H284.237ZM291.771 37.3843H292.827V45.3843H291.771V43.8163C291.035 44.9896 289.957 45.5763 288.539 45.5763C287.397 45.5763 286.421 45.1709 285.611 44.3603C284.811 43.5496 284.411 42.5576 284.411 41.3843C284.411 40.2109 284.811 39.2189 285.611 38.4083C286.421 37.5976 287.397 37.1923 288.539 37.1923C289.957 37.1923 291.035 37.7789 291.771 38.9523V37.3843ZM286.379 43.6403C286.987 44.2483 287.733 44.5523 288.619 44.5523C289.504 44.5523 290.251 44.2483 290.859 43.6403C291.467 43.0216 291.771 42.2696 291.771 41.3843C291.771 40.4989 291.467 39.7523 290.859 39.1443C290.251 38.5256 289.504 38.2163 288.619 38.2163C287.733 38.2163 286.987 38.5256 286.379 39.1443C285.771 39.7523 285.467 40.4989 285.467 41.3843C285.467 42.2696 285.771 43.0216 286.379 43.6403ZM57.8698 56.3843H58.7658V64.3843H57.7098V58.2243L52.9418 64.3843H52.0458V56.3843H53.1018V62.5443L57.8698 56.3843ZM71.0789 63.3603H72.1989V66.5283H71.1429V64.3843H64.6149V66.5283H63.5589V63.3603H64.5349C65.0789 62.6456 65.3509 61.6376 65.3509 60.3363V56.3843H71.0789V63.3603ZM65.8149 63.3603H70.0229V57.4083H66.4069V60.3363C66.4069 61.5629 66.2096 62.5709 65.8149 63.3603ZM80.0364 56.3843V64.3843H78.9804V57.4083H75.3644V60.9763C75.3644 62.3096 75.1084 63.2269 74.5964 63.7283C74.0951 64.2296 73.4017 64.4483 72.5164 64.3843V63.3923C73.1244 63.4563 73.5724 63.3123 73.8604 62.9603C74.1591 62.6083 74.3084 61.9469 74.3084 60.9763V56.3843H80.0364ZM87.7133 56.3843V64.3843H86.6573V61.3123H85.2813L82.8173 64.3843H81.4733L84.0013 61.2803C83.3613 61.1843 82.8333 60.9176 82.4173 60.4803C82.0013 60.0429 81.7933 59.5043 81.7933 58.8643C81.7933 58.1389 82.0493 57.5469 82.5613 57.0883C83.0839 56.6189 83.7186 56.3843 84.4653 56.3843H87.7133ZM84.4653 60.3203H86.6573V57.4083H84.4653C84.0173 57.4083 83.6333 57.5416 83.3133 57.8083C83.0039 58.0749 82.8493 58.4269 82.8493 58.8643C82.8493 59.3016 83.0039 59.6536 83.3133 59.9203C83.6333 60.1869 84.0173 60.3203 84.4653 60.3203ZM97.0413 64.5763C95.8359 64.5763 94.8333 64.1763 94.0333 63.3763C93.2333 62.5656 92.8333 61.5683 92.8333 60.3843C92.8333 59.2003 93.2333 58.2083 94.0333 57.4083C94.8333 56.5976 95.8359 56.1923 97.0413 56.1923C97.8306 56.1923 98.5399 56.3843 99.1693 56.7683C99.7986 57.1416 100.257 57.6483 100.545 58.2883L99.6813 58.7843C99.468 58.3043 99.1213 57.9256 98.6413 57.6483C98.172 57.3603 97.6386 57.2163 97.0413 57.2163C96.1559 57.2163 95.4093 57.5256 94.8013 58.1443C94.1933 58.7523 93.8893 59.4989 93.8893 60.3843C93.8893 61.2696 94.1933 62.0216 94.8013 62.6403C95.4093 63.2483 96.1559 63.5523 97.0413 63.5523C97.6386 63.5523 98.172 63.4136 98.6413 63.1363C99.1106 62.8483 99.4786 62.4643 99.7453 61.9843L100.625 62.4963C100.295 63.1363 99.8093 63.6429 99.1693 64.0163C98.5293 64.3896 97.8199 64.5763 97.0413 64.5763ZM108.447 63.3763C107.637 64.1763 106.645 64.5763 105.471 64.5763C104.298 64.5763 103.301 64.1763 102.479 63.3763C101.669 62.5656 101.263 61.5683 101.263 60.3843C101.263 59.2003 101.669 58.2083 102.479 57.4083C103.301 56.5976 104.298 56.1923 105.471 56.1923C106.645 56.1923 107.637 56.5976 108.447 57.4083C109.269 58.2083 109.679 59.2003 109.679 60.3843C109.679 61.5683 109.269 62.5656 108.447 63.3763ZM103.231 62.6403C103.839 63.2483 104.586 63.5523 105.471 63.5523C106.357 63.5523 107.103 63.2483 107.711 62.6403C108.319 62.0216 108.623 61.2696 108.623 60.3843C108.623 59.4989 108.319 58.7523 107.711 58.1443C107.103 57.5256 106.357 57.2163 105.471 57.2163C104.586 57.2163 103.839 57.5256 103.231 58.1443C102.623 58.7523 102.319 59.4989 102.319 60.3843C102.319 61.2696 102.623 62.0216 103.231 62.6403ZM114.942 60.2723C115.87 60.6243 116.334 61.2643 116.334 62.1923C116.334 62.8536 116.073 63.4189 115.55 63.8883C115.038 64.3469 114.302 64.5763 113.342 64.5763C111.731 64.5763 110.675 63.9363 110.174 62.6563L111.07 62.1283C111.401 63.0776 112.158 63.5523 113.342 63.5523C113.961 63.5523 114.435 63.4189 114.766 63.1523C115.107 62.8856 115.278 62.5443 115.278 62.1283C115.278 61.7549 115.139 61.4509 114.862 61.2163C114.585 60.9816 114.211 60.8643 113.742 60.8643H112.574V59.8403H113.422C113.881 59.8403 114.238 59.7283 114.494 59.5043C114.761 59.2696 114.894 58.9496 114.894 58.5443C114.894 58.1603 114.739 57.8456 114.43 57.6003C114.121 57.3443 113.705 57.2163 113.182 57.2163C112.179 57.2163 111.513 57.6163 111.182 58.4163L110.302 57.9043C110.835 56.7629 111.795 56.1923 113.182 56.1923C114.025 56.1923 114.697 56.4163 115.198 56.8643C115.699 57.3016 115.95 57.8403 115.95 58.4803C115.95 59.3016 115.614 59.8989 114.942 60.2723ZM124.183 63.3603H125.303V66.5283H124.247V64.3843H117.719V66.5283H116.663V63.3603H117.639C118.183 62.6456 118.455 61.6376 118.455 60.3363V56.3843H124.183V63.3603ZM118.919 63.3603H123.127V57.4083H119.511V60.3363C119.511 61.5629 119.313 62.5709 118.919 63.3603ZM133.148 56.3843H134.204V64.3843H133.148V62.8163C132.412 63.9896 131.334 64.5763 129.916 64.5763C128.774 64.5763 127.798 64.1709 126.988 63.3603C126.188 62.5496 125.788 61.5576 125.788 60.3843C125.788 59.2109 126.188 58.2189 126.988 57.4083C127.798 56.5976 128.774 56.1923 129.916 56.1923C131.334 56.1923 132.412 56.7789 133.148 57.9523V56.3843ZM127.756 62.6403C128.364 63.2483 129.11 63.5523 129.996 63.5523C130.881 63.5523 131.628 63.2483 132.236 62.6403C132.844 62.0216 133.148 61.2696 133.148 60.3843C133.148 59.4989 132.844 58.7523 132.236 58.1443C131.628 57.5256 130.881 57.2163 129.996 57.2163C129.11 57.2163 128.364 57.5256 127.756 58.1443C127.148 58.7523 126.844 59.4989 126.844 60.3843C126.844 61.2696 127.148 62.0216 127.756 62.6403ZM141.784 56.3843H142.84V64.3843H141.784V60.8963H137.176V64.3843H136.12V56.3843H137.176V59.8723H141.784V56.3843ZM150.577 56.3843H151.473V64.3843H150.417V58.2243L145.649 64.3843H144.753V56.3843H145.809V62.5443L150.577 56.3843ZM159.146 56.3843V64.3843H158.09V61.3123H156.714L154.25 64.3843H152.906L155.434 61.2803C154.794 61.1843 154.266 60.9176 153.85 60.4803C153.434 60.0429 153.226 59.5043 153.226 58.8643C153.226 58.1389 153.482 57.5469 153.994 57.0883C154.516 56.6189 155.151 56.3843 155.898 56.3843H159.146ZM155.898 60.3203H158.09V57.4083H155.898C155.45 57.4083 155.066 57.5416 154.746 57.8083C154.436 58.0749 154.282 58.4269 154.282 58.8643C154.282 59.3016 154.436 59.6536 154.746 59.9203C155.066 60.1869 155.45 60.3203 155.898 60.3203ZM170.41 56.3843H171.466V64.3843H170.41V60.8963H165.802V64.3843H164.746V56.3843H165.802V59.8723H170.41V56.3843ZM177.075 56.1923C178.259 56.1923 179.214 56.6136 179.939 57.4563C180.675 58.2883 181.043 59.2749 181.043 60.4163C181.043 60.5336 181.032 60.6989 181.011 60.9123H173.987C174.094 61.7229 174.435 62.3683 175.011 62.8483C175.598 63.3176 176.318 63.5523 177.171 63.5523C177.779 63.5523 178.302 63.4296 178.739 63.1843C179.187 62.9283 179.523 62.5976 179.747 62.1923L180.675 62.7363C180.323 63.3016 179.843 63.7496 179.235 64.0803C178.627 64.4109 177.934 64.5763 177.155 64.5763C175.896 64.5763 174.872 64.1816 174.083 63.3923C173.294 62.6029 172.899 61.6003 172.899 60.3843C172.899 59.1896 173.288 58.1923 174.067 57.3923C174.846 56.5923 175.848 56.1923 177.075 56.1923ZM177.075 57.2163C176.243 57.2163 175.544 57.4669 174.979 57.9683C174.424 58.4589 174.094 59.0989 173.987 59.8883H179.955C179.848 59.0456 179.523 58.3896 178.979 57.9203C178.435 57.4509 177.8 57.2163 177.075 57.2163ZM189.107 63.3763C188.296 64.1763 187.304 64.5763 186.131 64.5763C184.957 64.5763 183.96 64.1763 183.139 63.3763C182.328 62.5656 181.923 61.5683 181.923 60.3843C181.923 59.2003 182.328 58.2083 183.139 57.4083C183.96 56.5976 184.957 56.1923 186.131 56.1923C187.304 56.1923 188.296 56.5976 189.107 57.4083C189.928 58.2083 190.339 59.2003 190.339 60.3843C190.339 61.5683 189.928 62.5656 189.107 63.3763ZM183.891 62.6403C184.499 63.2483 185.245 63.5523 186.131 63.5523C187.016 63.5523 187.763 63.2483 188.371 62.6403C188.979 62.0216 189.283 61.2696 189.283 60.3843C189.283 59.4989 188.979 58.7523 188.371 58.1443C187.763 57.5256 187.016 57.2163 186.131 57.2163C185.245 57.2163 184.499 57.5256 183.891 58.1443C183.283 58.7523 182.979 59.4989 182.979 60.3843C182.979 61.2696 183.283 62.0216 183.891 62.6403ZM195.338 64.5763C194.186 64.5763 193.226 64.1976 192.458 63.4403C191.69 62.6723 191.306 61.6803 191.306 60.4643C191.306 59.0989 191.508 58.0536 191.914 57.3283C192.319 56.5923 193.14 55.9256 194.378 55.3283C194.612 55.2109 194.922 55.0723 195.306 54.9123C195.7 54.7523 195.994 54.6243 196.186 54.5283C196.388 54.4323 196.607 54.3096 196.842 54.1603C197.076 54.0003 197.252 53.8243 197.37 53.6323C197.487 53.4403 197.562 53.2109 197.594 52.9443L198.426 53.4243C198.383 53.6803 198.298 53.9203 198.17 54.1443C198.042 54.3683 197.908 54.5496 197.77 54.6883C197.642 54.8269 197.434 54.9816 197.146 55.1523C196.868 55.3123 196.65 55.4296 196.49 55.5043C196.34 55.5683 196.074 55.6803 195.69 55.8403C195.316 56.0003 195.066 56.1069 194.938 56.1603C194.191 56.4803 193.642 56.8163 193.29 57.1683C192.938 57.5096 192.687 57.9576 192.538 58.5123C192.9 58.0323 193.359 57.6803 193.914 57.4563C194.479 57.2216 195.028 57.1043 195.562 57.1043C196.628 57.1043 197.508 57.4563 198.202 58.1603C198.906 58.8536 199.258 59.7443 199.258 60.8323C199.258 61.9096 198.884 62.8056 198.138 63.5203C197.402 64.2243 196.468 64.5763 195.338 64.5763ZM195.338 63.5203C196.17 63.5203 196.852 63.2696 197.386 62.7683C197.93 62.2563 198.202 61.6109 198.202 60.8323C198.202 60.0429 197.946 59.3976 197.434 58.8963C196.932 58.3843 196.26 58.1283 195.418 58.1283C194.66 58.1283 193.972 58.3683 193.354 58.8483C192.735 59.3176 192.426 59.9469 192.426 60.7363C192.426 61.5469 192.703 62.2136 193.258 62.7363C193.823 63.2589 194.516 63.5203 195.338 63.5203ZM206.701 64.3843H205.437L202.941 61.0883L200.445 64.3843H199.181L202.317 60.2403L199.389 56.3843H200.653L202.941 59.4083L205.229 56.3843H206.493L203.581 60.2403L206.701 64.3843ZM213.959 63.3763C213.148 64.1763 212.156 64.5763 210.983 64.5763C209.81 64.5763 208.812 64.1763 207.991 63.3763C207.18 62.5656 206.775 61.5683 206.775 60.3843C206.775 59.2003 207.18 58.2083 207.991 57.4083C208.812 56.5976 209.81 56.1923 210.983 56.1923C212.156 56.1923 213.148 56.5976 213.959 57.4083C214.78 58.2083 215.191 59.2003 215.191 60.3843C215.191 61.5683 214.78 62.5656 213.959 63.3763ZM208.743 62.6403C209.351 63.2483 210.098 63.5523 210.983 63.5523C211.868 63.5523 212.615 63.2483 213.223 62.6403C213.831 62.0216 214.135 61.2696 214.135 60.3843C214.135 59.4989 213.831 58.7523 213.223 58.1443C212.615 57.5256 211.868 57.2163 210.983 57.2163C210.098 57.2163 209.351 57.5256 208.743 58.1443C208.135 58.7523 207.831 59.4989 207.831 60.3843C207.831 61.2696 208.135 62.0216 208.743 62.6403ZM223.046 63.3603H224.166V66.5283H223.11V64.3843H216.582V66.5283H215.526V63.3603H216.502C217.046 62.6456 217.318 61.6376 217.318 60.3363V56.3843H223.046V63.3603ZM217.782 63.3603H221.99V57.4083H218.374V60.3363C218.374 61.5629 218.176 62.5709 217.782 63.3603ZM231.267 56.3843H232.163V64.3843H231.107V58.2243L226.339 64.3843H225.443V56.3843H226.499V62.5443L231.267 56.3843ZM241.916 56.3843V64.3843H240.86V58.0003L238.06 62.5443H237.932L235.132 58.0003V64.3843H234.076V56.3843H235.292L237.996 60.7683L240.7 56.3843H241.916ZM250.539 63.3763C249.728 64.1763 248.736 64.5763 247.563 64.5763C246.389 64.5763 245.392 64.1763 244.571 63.3763C243.76 62.5656 243.355 61.5683 243.355 60.3843C243.355 59.2003 243.76 58.2083 244.571 57.4083C245.392 56.5976 246.389 56.1923 247.563 56.1923C248.736 56.1923 249.728 56.5976 250.539 57.4083C251.36 58.2083 251.771 59.2003 251.771 60.3843C251.771 61.5683 251.36 62.5656 250.539 63.3763ZM245.323 62.6403C245.931 63.2483 246.677 63.5523 247.563 63.5523C248.448 63.5523 249.195 63.2483 249.803 62.6403C250.411 62.0216 250.715 61.2696 250.715 60.3843C250.715 59.4989 250.411 58.7523 249.803 58.1443C249.195 57.5256 248.448 57.2163 247.563 57.2163C246.677 57.2163 245.931 57.5256 245.323 58.1443C244.715 58.7523 244.411 59.4989 244.411 60.3843C244.411 61.2696 244.715 62.0216 245.323 62.6403ZM258.338 56.3843V57.4083H254.274V64.3843H253.218V56.3843H258.338ZM265.695 63.3763C264.885 64.1763 263.893 64.5763 262.719 64.5763C261.546 64.5763 260.549 64.1763 259.727 63.3763C258.917 62.5656 258.511 61.5683 258.511 60.3843C258.511 59.2003 258.917 58.2083 259.727 57.4083C260.549 56.5976 261.546 56.1923 262.719 56.1923C263.893 56.1923 264.885 56.5976 265.695 57.4083C266.517 58.2083 266.927 59.2003 266.927 60.3843C266.927 61.5683 266.517 62.5656 265.695 63.3763ZM260.479 62.6403C261.087 63.2483 261.834 63.5523 262.719 63.5523C263.605 63.5523 264.351 63.2483 264.959 62.6403C265.567 62.0216 265.871 61.2696 265.871 60.3843C265.871 59.4989 265.567 58.7523 264.959 58.1443C264.351 57.5256 263.605 57.2163 262.719 57.2163C261.834 57.2163 261.087 57.5256 260.479 58.1443C259.871 58.7523 259.567 59.4989 259.567 60.3843C259.567 61.2696 259.871 62.0216 260.479 62.6403ZM56.3338 75.1923C57.4751 75.1923 58.4458 75.5976 59.2458 76.4083C60.0564 77.2189 60.4618 78.2109 60.4618 79.3843C60.4618 80.5576 60.0564 81.5496 59.2458 82.3603C58.4458 83.1709 57.4751 83.5763 56.3338 83.5763C54.9151 83.5763 53.8378 82.9896 53.1018 81.8163V86.5843H52.0458V75.3843H53.1018V76.9523C53.8378 75.7789 54.9151 75.1923 56.3338 75.1923ZM54.0138 81.6403C54.6218 82.2483 55.3684 82.5523 56.2538 82.5523C57.1391 82.5523 57.8858 82.2483 58.4938 81.6403C59.1018 81.0216 59.4058 80.2696 59.4058 79.3843C59.4058 78.4989 59.1018 77.7523 58.4938 77.1443C57.8858 76.5256 57.1391 76.2163 56.2538 76.2163C55.3684 76.2163 54.6218 76.5256 54.0138 77.1443C53.4058 77.7523 53.1018 78.4989 53.1018 79.3843C53.1018 80.2696 53.4058 81.0216 54.0138 81.6403ZM65.5937 75.1923C66.7777 75.1923 67.7323 75.6136 68.4577 76.4563C69.1937 77.2883 69.5617 78.2749 69.5617 79.4163C69.5617 79.5336 69.551 79.6989 69.5297 79.9123H62.5057C62.6123 80.7229 62.9537 81.3683 63.5297 81.8483C64.1163 82.3176 64.8363 82.5523 65.6897 82.5523C66.2977 82.5523 66.8203 82.4296 67.2577 82.1843C67.7057 81.9283 68.0417 81.5976 68.2657 81.1923L69.1937 81.7363C68.8417 82.3016 68.3617 82.7496 67.7537 83.0803C67.1457 83.4109 66.4523 83.5763 65.6737 83.5763C64.415 83.5763 63.391 83.1816 62.6017 82.3923C61.8123 81.6029 61.4177 80.6003 61.4177 79.3843C61.4177 78.1896 61.807 77.1923 62.5857 76.3923C63.3643 75.5923 64.367 75.1923 65.5937 75.1923ZM65.5937 76.2163C64.7617 76.2163 64.063 76.4669 63.4977 76.9683C62.943 77.4589 62.6123 78.0989 62.5057 78.8883H68.4737C68.367 78.0456 68.0417 77.3896 67.4977 76.9203C66.9537 76.4509 66.319 76.2163 65.5937 76.2163ZM77.1689 75.3843V83.3843H76.1129V76.4083H72.4969V79.9763C72.4969 81.3096 72.2409 82.2269 71.7289 82.7283C71.2276 83.2296 70.5342 83.4483 69.6489 83.3843V82.3923C70.2569 82.4563 70.7049 82.3123 70.9929 81.9603C71.2916 81.6083 71.4409 80.9469 71.4409 79.9763V75.3843H77.1689ZM82.3338 78.4243C83.0804 78.4243 83.7098 78.6589 84.2218 79.1283C84.7444 79.5869 85.0058 80.1789 85.0058 80.9043C85.0058 81.6296 84.7444 82.2269 84.2218 82.6963C83.7098 83.1549 83.0804 83.3843 82.3338 83.3843H79.0858V75.3843H80.1418V78.4243H82.3338ZM82.3338 82.3603C82.7818 82.3603 83.1604 82.2269 83.4698 81.9603C83.7898 81.6936 83.9498 81.3416 83.9498 80.9043C83.9498 80.4669 83.7898 80.1149 83.4698 79.8483C83.1604 79.5816 82.7818 79.4483 82.3338 79.4483H80.1418V82.3603H82.3338ZM89.8993 75.1923C91.0833 75.1923 92.0379 75.6136 92.7633 76.4563C93.4993 77.2883 93.8673 78.2749 93.8673 79.4163C93.8673 79.5336 93.8566 79.6989 93.8353 79.9123H86.8113C86.9179 80.7229 87.2593 81.3683 87.8353 81.8483C88.4219 82.3176 89.1419 82.5523 89.9953 82.5523C90.6033 82.5523 91.1259 82.4296 91.5633 82.1843C92.0113 81.9283 92.3473 81.5976 92.5713 81.1923L93.4993 81.7363C93.1473 82.3016 92.6673 82.7496 92.0593 83.0803C91.4513 83.4109 90.7579 83.5763 89.9793 83.5763C88.7206 83.5763 87.6966 83.1816 86.9073 82.3923C86.1179 81.6029 85.7233 80.6003 85.7233 79.3843C85.7233 78.1896 86.1126 77.1923 86.8913 76.3923C87.6699 75.5923 88.6726 75.1923 89.8993 75.1923ZM89.8993 76.2163C89.0673 76.2163 88.3686 76.4669 87.8033 76.9683C87.2486 77.4589 86.9179 78.0989 86.8113 78.8883H92.7793C92.6726 78.0456 92.3473 77.3896 91.8033 76.9203C91.2593 76.4509 90.6246 76.2163 89.8993 76.2163ZM103.035 76.5363C103.803 77.3149 104.187 78.2643 104.187 79.3843C104.187 80.5043 103.803 81.4536 103.035 82.2323C102.267 83.0109 101.254 83.4536 99.995 83.5603V86.5843H98.939V83.5603C97.6804 83.4536 96.667 83.0109 95.899 82.2323C95.131 81.4536 94.747 80.5043 94.747 79.3843C94.747 78.2643 95.131 77.3149 95.899 76.5363C96.667 75.7576 97.6804 75.3149 98.939 75.2083V72.1843H99.995V75.2083C101.254 75.3149 102.267 75.7576 103.035 76.5363ZM96.651 77.2723C96.0857 77.8483 95.803 78.5523 95.803 79.3843C95.803 80.2163 96.0857 80.9256 96.651 81.5123C97.2164 82.0883 97.979 82.4243 98.939 82.5203V76.2483C97.979 76.3443 97.2164 76.6856 96.651 77.2723ZM99.995 82.5203C100.955 82.4243 101.718 82.0883 102.283 81.5123C102.848 80.9256 103.131 80.2163 103.131 79.3843C103.131 78.5523 102.848 77.8483 102.283 77.2723C101.718 76.6856 100.955 76.3443 99.995 76.2483V82.5203ZM112.506 75.3843H113.562V83.3843H112.506V81.8163C111.77 82.9896 110.692 83.5763 109.274 83.5763C108.132 83.5763 107.156 83.1709 106.346 82.3603C105.546 81.5496 105.146 80.5576 105.146 79.3843C105.146 78.2109 105.546 77.2189 106.346 76.4083C107.156 75.5976 108.132 75.1923 109.274 75.1923C110.692 75.1923 111.77 75.7789 112.506 76.9523V75.3843ZM107.114 81.6403C107.722 82.2483 108.468 82.5523 109.354 82.5523C110.239 82.5523 110.986 82.2483 111.594 81.6403C112.202 81.0216 112.506 80.2696 112.506 79.3843C112.506 78.4989 112.202 77.7523 111.594 77.1443C110.986 76.5256 110.239 76.2163 109.354 76.2163C108.468 76.2163 107.722 76.5256 107.114 77.1443C106.506 77.7523 106.202 78.4989 106.202 79.3843C106.202 80.2696 106.506 81.0216 107.114 81.6403ZM120.758 84.9843C119.584 82.6376 118.998 80.2376 118.998 77.7843C118.998 75.3309 119.584 72.9309 120.758 70.5843H121.814C120.64 72.9309 120.054 75.3309 120.054 77.7843C120.054 80.2376 120.64 82.6376 121.814 84.9843H120.758ZM130.896 76.5363C131.664 77.3149 132.048 78.2643 132.048 79.3843C132.048 80.5043 131.664 81.4536 130.896 82.2323C130.128 83.0109 129.114 83.4536 127.856 83.5603V86.5843H126.8V83.5603C125.541 83.4536 124.528 83.0109 123.76 82.2323C122.992 81.4536 122.608 80.5043 122.608 79.3843C122.608 78.2643 122.992 77.3149 123.76 76.5363C124.528 75.7576 125.541 75.3149 126.8 75.2083V72.1843H127.856V75.2083C129.114 75.3149 130.128 75.7576 130.896 76.5363ZM124.512 77.2723C123.946 77.8483 123.664 78.5523 123.664 79.3843C123.664 80.2163 123.946 80.9256 124.512 81.5123C125.077 82.0883 125.84 82.4243 126.8 82.5203V76.2483C125.84 76.3443 125.077 76.6856 124.512 77.2723ZM127.856 82.5203C128.816 82.4243 129.578 82.0883 130.144 81.5123C130.709 80.9256 130.992 80.2163 130.992 79.3843C130.992 78.5523 130.709 77.8483 130.144 77.2723C129.578 76.6856 128.816 76.3443 127.856 76.2483V82.5203ZM140.19 82.3763C139.38 83.1763 138.388 83.5763 137.214 83.5763C136.041 83.5763 135.044 83.1763 134.222 82.3763C133.412 81.5656 133.006 80.5683 133.006 79.3843C133.006 78.2003 133.412 77.2083 134.222 76.4083C135.044 75.5976 136.041 75.1923 137.214 75.1923C138.388 75.1923 139.38 75.5976 140.19 76.4083C141.012 77.2083 141.422 78.2003 141.422 79.3843C141.422 80.5683 141.012 81.5656 140.19 82.3763ZM134.974 81.6403C135.582 82.2483 136.329 82.5523 137.214 82.5523C138.1 82.5523 138.846 82.2483 139.454 81.6403C140.062 81.0216 140.366 80.2696 140.366 79.3843C140.366 78.4989 140.062 77.7523 139.454 77.1443C138.846 76.5256 138.1 76.2163 137.214 76.2163C136.329 76.2163 135.582 76.5256 134.974 77.1443C134.366 77.7523 134.062 78.4989 134.062 79.3843C134.062 80.2696 134.366 81.0216 134.974 81.6403ZM147.158 75.1923C148.299 75.1923 149.27 75.5976 150.07 76.4083C150.88 77.2189 151.286 78.2109 151.286 79.3843C151.286 80.5576 150.88 81.5496 150.07 82.3603C149.27 83.1709 148.299 83.5763 147.158 83.5763C145.739 83.5763 144.662 82.9896 143.926 81.8163V86.5843H142.87V75.3843H143.926V76.9523C144.662 75.7789 145.739 75.1923 147.158 75.1923ZM144.838 81.6403C145.446 82.2483 146.192 82.5523 147.078 82.5523C147.963 82.5523 148.71 82.2483 149.318 81.6403C149.926 81.0216 150.23 80.2696 150.23 79.3843C150.23 78.4989 149.926 77.7523 149.318 77.1443C148.71 76.5256 147.963 76.2163 147.078 76.2163C146.192 76.2163 145.446 76.5256 144.838 77.1443C144.23 77.7523 143.926 78.4989 143.926 79.3843C143.926 80.2696 144.23 81.0216 144.838 81.6403ZM160.561 75.3843V83.3843H159.505V77.0003L156.705 81.5443H156.577L153.777 77.0003V83.3843H152.721V75.3843H153.937L156.641 79.7683L159.345 75.3843H160.561ZM165.728 78.4243C166.474 78.4243 167.104 78.6589 167.616 79.1283C168.138 79.5869 168.4 80.1789 168.4 80.9043C168.4 81.6296 168.138 82.2269 167.616 82.6963C167.104 83.1549 166.474 83.3843 165.728 83.3843H162.48V75.3843H163.536V78.4243H165.728ZM169.52 75.3843H170.576V83.3843H169.52V75.3843ZM165.728 82.3603C166.176 82.3603 166.554 82.2269 166.864 81.9603C167.184 81.6936 167.344 81.3416 167.344 80.9043C167.344 80.4669 167.184 80.1149 166.864 79.8483C166.554 79.5816 166.176 79.4483 165.728 79.4483H163.536V82.3603H165.728ZM172.919 84.9843H171.863C173.037 82.6376 173.623 80.2376 173.623 77.7843C173.623 75.3309 173.037 72.9309 171.863 70.5843H172.919C174.093 72.9309 174.679 75.3309 174.679 77.7843C174.679 80.2376 174.093 82.6376 172.919 84.9843ZM178.193 82.0243L177.233 85.6243H176.273L176.913 82.0243H178.193ZM188.821 75.3843H189.877V83.3843H188.821V80.3443C188.202 80.6643 187.44 80.8243 186.533 80.8243C185.488 80.8243 184.688 80.5843 184.133 80.1043C183.589 79.6136 183.317 78.8936 183.317 77.9443V75.3843H184.373V77.9443C184.373 78.6163 184.549 79.1016 184.901 79.4003C185.253 79.6883 185.786 79.8323 186.501 79.8323C187.333 79.8323 188.106 79.6776 188.821 79.3683V75.3843ZM197.561 75.3843V76.4083H194.729V83.3843H193.673V76.4083H190.841V75.3843H197.561ZM204.92 82.3763C204.109 83.1763 203.117 83.5763 201.944 83.5763C200.77 83.5763 199.773 83.1763 198.952 82.3763C198.141 81.5656 197.736 80.5683 197.736 79.3843C197.736 78.2003 198.141 77.2083 198.952 76.4083C199.773 75.5976 200.77 75.1923 201.944 75.1923C203.117 75.1923 204.109 75.5976 204.92 76.4083C205.741 77.2083 206.152 78.2003 206.152 79.3843C206.152 80.5683 205.741 81.5656 204.92 82.3763ZM199.704 81.6403C200.312 82.2483 201.058 82.5523 201.944 82.5523C202.829 82.5523 203.576 82.2483 204.184 81.6403C204.792 81.0216 205.096 80.2696 205.096 79.3843C205.096 78.4989 204.792 77.7523 204.184 77.1443C203.576 76.5256 202.829 76.2163 201.944 76.2163C201.058 76.2163 200.312 76.5256 199.704 77.1443C199.096 77.7523 198.792 78.4989 198.792 79.3843C198.792 80.2696 199.096 81.0216 199.704 81.6403ZM58.7498 101.376C57.9391 102.176 56.9471 102.576 55.7738 102.576C54.6004 102.576 53.6031 102.176 52.7818 101.376C51.9711 100.566 51.5658 99.5683 51.5658 98.3843C51.5658 97.2003 51.9711 96.2083 52.7818 95.4083C53.6031 94.5976 54.6004 94.1923 55.7738 94.1923C56.9471 94.1923 57.9391 94.5976 58.7498 95.4083C59.5711 96.2083 59.9818 97.2003 59.9818 98.3843C59.9818 99.5683 59.5711 100.566 58.7498 101.376ZM53.5338 100.64C54.1418 101.248 54.8884 101.552 55.7738 101.552C56.6591 101.552 57.4058 101.248 58.0138 100.64C58.6218 100.022 58.9258 99.2696 58.9258 98.3843C58.9258 97.4989 58.6218 96.7523 58.0138 96.1443C57.4058 95.5256 56.6591 95.2163 55.7738 95.2163C54.8884 95.2163 54.1418 95.5256 53.5338 96.1443C52.9258 96.7523 52.6218 97.4989 52.6218 98.3843C52.6218 99.2696 52.9258 100.022 53.5338 100.64ZM64.9809 102.576C63.8289 102.576 62.8689 102.198 62.1009 101.44C61.3329 100.672 60.9489 99.6803 60.9489 98.4643C60.9489 97.0989 61.1516 96.0536 61.5569 95.3283C61.9622 94.5923 62.7836 93.9256 64.0209 93.3283C64.2556 93.2109 64.5649 93.0723 64.9489 92.9123C65.3436 92.7523 65.6369 92.6243 65.8289 92.5283C66.0316 92.4323 66.2502 92.3096 66.4849 92.1603C66.7196 92.0003 66.8956 91.8243 67.0129 91.6323C67.1302 91.4403 67.2049 91.2109 67.2369 90.9443L68.0689 91.4243C68.0262 91.6803 67.9409 91.9203 67.8129 92.1443C67.6849 92.3683 67.5516 92.5496 67.4129 92.6883C67.2849 92.8269 67.0769 92.9816 66.7889 93.1523C66.5116 93.3123 66.2929 93.4296 66.1329 93.5043C65.9836 93.5683 65.7169 93.6803 65.3329 93.8403C64.9596 94.0003 64.7089 94.1069 64.5809 94.1603C63.8342 94.4803 63.2849 94.8163 62.9329 95.1683C62.5809 95.5096 62.3302 95.9576 62.1809 96.5123C62.5436 96.0323 63.0022 95.6803 63.5569 95.4563C64.1222 95.2216 64.6716 95.1043 65.2049 95.1043C66.2716 95.1043 67.1516 95.4563 67.8449 96.1603C68.5489 96.8536 68.9009 97.7443 68.9009 98.8323C68.9009 99.9096 68.5276 100.806 67.7809 101.52C67.0449 102.224 66.1116 102.576 64.9809 102.576ZM64.9809 101.52C65.8129 101.52 66.4956 101.27 67.0289 100.768C67.5729 100.256 67.8449 99.6109 67.8449 98.8323C67.8449 98.0429 67.5889 97.3976 67.0769 96.8963C66.5756 96.3843 65.9036 96.1283 65.0609 96.1283C64.3036 96.1283 63.6156 96.3683 62.9969 96.8483C62.3782 97.3176 62.0689 97.9469 62.0689 98.7363C62.0689 99.5469 62.3462 100.214 62.9009 100.736C63.4662 101.259 64.1596 101.52 64.9809 101.52ZM73.883 94.1923C75.067 94.1923 76.0217 94.6136 76.747 95.4563C77.483 96.2883 77.851 97.2749 77.851 98.4163C77.851 98.5336 77.8404 98.6989 77.819 98.9123H70.795C70.9017 99.7229 71.243 100.368 71.819 100.848C72.4057 101.318 73.1257 101.552 73.979 101.552C74.587 101.552 75.1097 101.43 75.547 101.184C75.995 100.928 76.331 100.598 76.555 100.192L77.483 100.736C77.131 101.302 76.651 101.75 76.043 102.08C75.435 102.411 74.7417 102.576 73.963 102.576C72.7044 102.576 71.6804 102.182 70.891 101.392C70.1017 100.603 69.707 99.6003 69.707 98.3843C69.707 97.1896 70.0964 96.1923 70.875 95.3923C71.6537 94.5923 72.6564 94.1923 73.883 94.1923ZM73.883 95.2163C73.051 95.2163 72.3524 95.4669 71.787 95.9683C71.2324 96.4589 70.9017 97.0989 70.795 97.8883H76.763C76.6564 97.0456 76.331 96.3896 75.787 95.9203C75.243 95.4509 74.6084 95.2163 73.883 95.2163ZM82.9388 102.576C81.7334 102.576 80.7308 102.176 79.9308 101.376C79.1308 100.566 78.7308 99.5683 78.7308 98.3843C78.7308 97.2003 79.1308 96.2083 79.9308 95.4083C80.7308 94.5976 81.7334 94.1923 82.9388 94.1923C83.7281 94.1923 84.4374 94.3843 85.0668 94.7683C85.6961 95.1416 86.1548 95.6483 86.4428 96.2883L85.5788 96.7843C85.3654 96.3043 85.0188 95.9256 84.5388 95.6483C84.0694 95.3603 83.5361 95.2163 82.9388 95.2163C82.0534 95.2163 81.3068 95.5256 80.6988 96.1443C80.0908 96.7523 79.7868 97.4989 79.7868 98.3843C79.7868 99.2696 80.0908 100.022 80.6988 100.64C81.3068 101.248 82.0534 101.552 82.9388 101.552C83.5361 101.552 84.0694 101.414 84.5388 101.136C85.0081 100.848 85.3761 100.464 85.6428 99.9843L86.5228 100.496C86.1921 101.136 85.7068 101.643 85.0668 102.016C84.4268 102.39 83.7174 102.576 82.9388 102.576ZM94.4389 94.3843V102.384H93.3829V95.4083H88.7749V102.384H87.7189V94.3843H94.4389ZM100.048 94.1923C101.232 94.1923 102.187 94.6136 102.912 95.4563C103.648 96.2883 104.016 97.2749 104.016 98.4163C104.016 98.5336 104.005 98.6989 103.984 98.9123H96.96C97.0667 99.7229 97.408 100.368 97.984 100.848C98.5707 101.318 99.2907 101.552 100.144 101.552C100.752 101.552 101.275 101.43 101.712 101.184C102.16 100.928 102.496 100.598 102.72 100.192L103.648 100.736C103.296 101.302 102.816 101.75 102.208 102.08C101.6 102.411 100.907 102.576 100.128 102.576C98.8694 102.576 97.8454 102.182 97.056 101.392C96.2667 100.603 95.872 99.6003 95.872 98.3843C95.872 97.1896 96.2614 96.1923 97.04 95.3923C97.8187 94.5923 98.8214 94.1923 100.048 94.1923ZM100.048 95.2163C99.216 95.2163 98.5174 95.4669 97.952 95.9683C97.3974 96.4589 97.0667 97.0989 96.96 97.8883H102.928C102.821 97.0456 102.496 96.3896 101.952 95.9203C101.408 95.4509 100.773 95.2163 100.048 95.2163ZM110.56 94.3843H111.616V102.384H110.56V99.3443C109.941 99.6643 109.178 99.8243 108.272 99.8243C107.226 99.8243 106.426 99.5843 105.872 99.1043C105.328 98.6136 105.056 97.8936 105.056 96.9443V94.3843H106.112V96.9443C106.112 97.6163 106.288 98.1016 106.64 98.4003C106.992 98.6883 107.525 98.8323 108.24 98.8323C109.072 98.8323 109.845 98.6776 110.56 98.3683V94.3843ZM119.364 94.3843H120.26V102.384H119.204V96.2243L114.436 102.384H113.54V94.3843H114.596V100.544L119.364 94.3843ZM127.261 98.2723C128.136 98.5923 128.573 99.2163 128.573 100.144C128.573 100.795 128.355 101.334 127.917 101.76C127.491 102.176 126.872 102.384 126.061 102.384H122.173V94.3843H125.741C126.52 94.3843 127.123 94.5869 127.549 94.9923C127.976 95.3869 128.189 95.8989 128.189 96.5283C128.189 97.3283 127.88 97.9096 127.261 98.2723ZM125.741 95.4083H123.229V97.8403H125.741C126.669 97.8403 127.133 97.4243 127.133 96.5923C127.133 96.2189 127.011 95.9309 126.765 95.7283C126.531 95.5149 126.189 95.4083 125.741 95.4083ZM126.061 101.36C126.531 101.36 126.888 101.248 127.133 101.024C127.389 100.8 127.517 100.486 127.517 100.08C127.517 99.7069 127.389 99.4136 127.133 99.2003C126.888 98.9763 126.531 98.8643 126.061 98.8643H123.229V101.36H126.061ZM136.733 94.3843H137.789V102.384H136.733V100.816C135.997 101.99 134.92 102.576 133.501 102.576C132.36 102.576 131.384 102.171 130.573 101.36C129.773 100.55 129.373 99.5576 129.373 98.3843C129.373 97.2109 129.773 96.2189 130.573 95.4083C131.384 94.5976 132.36 94.1923 133.501 94.1923C134.92 94.1923 135.997 94.7789 136.733 95.9523V94.3843ZM131.341 100.64C131.949 101.248 132.696 101.552 133.581 101.552C134.467 101.552 135.213 101.248 135.821 100.64C136.429 100.022 136.733 99.2696 136.733 98.3843C136.733 97.4989 136.429 96.7523 135.821 96.1443C135.213 95.5256 134.467 95.2163 133.581 95.2163C132.696 95.2163 131.949 95.5256 131.341 96.1443C130.733 96.7523 130.429 97.4989 130.429 98.3843C130.429 99.2696 130.733 100.022 131.341 100.64ZM143.401 94.1923C144.585 94.1923 145.54 94.6136 146.265 95.4563C147.001 96.2883 147.369 97.2749 147.369 98.4163C147.369 98.5336 147.358 98.6989 147.337 98.9123H140.313C140.42 99.7229 140.761 100.368 141.337 100.848C141.924 101.318 142.644 101.552 143.497 101.552C144.105 101.552 144.628 101.43 145.065 101.184C145.513 100.928 145.849 100.598 146.073 100.192L147.001 100.736C146.649 101.302 146.169 101.75 145.561 102.08C144.953 102.411 144.26 102.576 143.481 102.576C142.222 102.576 141.198 102.182 140.409 101.392C139.62 100.603 139.225 99.6003 139.225 98.3843C139.225 97.1896 139.614 96.1923 140.393 95.3923C141.172 94.5923 142.174 94.1923 143.401 94.1923ZM143.401 95.2163C142.569 95.2163 141.87 95.4669 141.305 95.9683C140.75 96.4589 140.42 97.0989 140.313 97.8883H146.281C146.174 97.0456 145.849 96.3896 145.305 95.9203C144.761 95.4509 144.126 95.2163 143.401 95.2163ZM154.176 94.3843V95.4083H151.344V102.384H150.288V95.4083H147.456V94.3843H154.176ZM164.647 94.3843H165.543V102.384H164.487V96.2243L159.719 102.384H158.823V94.3843H159.879V100.544L164.647 94.3843ZM174.176 101.36H175.296V104.528H174.24V102.384H167.712V104.528H166.656V101.36H167.632C168.176 100.646 168.448 99.6376 168.448 98.3363V94.3843H174.176V101.36ZM168.912 101.36H173.12V95.4083H169.504V98.3363C169.504 99.5629 169.307 100.571 168.912 101.36ZM179.957 94.1923C181.141 94.1923 182.096 94.6136 182.821 95.4563C183.557 96.2883 183.925 97.2749 183.925 98.4163C183.925 98.5336 183.915 98.6989 183.893 98.9123H176.869C176.976 99.7229 177.317 100.368 177.893 100.848C178.48 101.318 179.2 101.552 180.053 101.552C180.661 101.552 181.184 101.43 181.621 101.184C182.069 100.928 182.405 100.598 182.629 100.192L183.557 100.736C183.205 101.302 182.725 101.75 182.117 102.08C181.509 102.411 180.816 102.576 180.037 102.576C178.779 102.576 177.755 102.182 176.965 101.392C176.176 100.603 175.781 99.6003 175.781 98.3843C175.781 97.1896 176.171 96.1923 176.949 95.3923C177.728 94.5923 178.731 94.1923 179.957 94.1923ZM179.957 95.2163C179.125 95.2163 178.427 95.4669 177.861 95.9683C177.307 96.4589 176.976 97.0989 176.869 97.8883H182.837C182.731 97.0456 182.405 96.3896 181.861 95.9203C181.317 95.4509 180.683 95.2163 179.957 95.2163ZM192.165 94.3843H193.221V102.384H192.165V100.816C191.429 101.99 190.352 102.576 188.933 102.576C187.792 102.576 186.816 102.171 186.005 101.36C185.205 100.55 184.805 99.5576 184.805 98.3843C184.805 97.2109 185.205 96.2189 186.005 95.4083C186.816 94.5976 187.792 94.1923 188.933 94.1923C190.352 94.1923 191.429 94.7789 192.165 95.9523V94.3843ZM186.773 100.64C187.381 101.248 188.128 101.552 189.013 101.552C189.898 101.552 190.645 101.248 191.253 100.64C191.861 100.022 192.165 99.2696 192.165 98.3843C192.165 97.4989 191.861 96.7523 191.253 96.1443C190.645 95.5256 189.898 95.2163 189.013 95.2163C188.128 95.2163 187.381 95.5256 186.773 96.1443C186.165 96.7523 185.861 97.4989 185.861 98.3843C185.861 99.2696 186.165 100.022 186.773 100.64ZM201.697 94.3843V102.384H200.641V95.4083H197.025V98.9763C197.025 100.31 196.769 101.227 196.257 101.728C195.756 102.23 195.062 102.448 194.177 102.384V101.392C194.785 101.456 195.233 101.312 195.521 100.96C195.82 100.608 195.969 99.9469 195.969 98.9763V94.3843H201.697ZM206.862 97.4243C207.609 97.4243 208.238 97.6589 208.75 98.1283C209.273 98.5869 209.534 99.1789 209.534 99.9043C209.534 100.63 209.273 101.227 208.75 101.696C208.238 102.155 207.609 102.384 206.862 102.384H203.614V94.3843H204.67V97.4243H206.862ZM206.862 101.36C207.31 101.36 207.689 101.227 207.998 100.96C208.318 100.694 208.478 100.342 208.478 99.9043C208.478 99.4669 208.318 99.1149 207.998 98.8483C207.689 98.5816 207.31 98.4483 206.862 98.4483H204.67V101.36H206.862ZM216.474 94.3843H217.53V102.384H216.474V98.8963H211.866V102.384H210.81V94.3843H211.866V97.8723H216.474V94.3843ZM225.203 94.3843H226.323L222.899 103.12C222.589 103.91 222.147 104.528 221.571 104.976C221.005 105.435 220.371 105.638 219.667 105.584V104.592C220.627 104.699 221.357 104.144 221.859 102.928L222.067 102.432L218.483 94.3843H219.603L222.611 101.088L225.203 94.3843ZM234.111 94.1923C235.284 94.1923 236.276 94.5976 237.087 95.4083C237.908 96.2083 238.319 97.2003 238.319 98.3843C238.319 99.5683 237.908 100.566 237.087 101.376C236.276 102.176 235.284 102.576 234.111 102.576C233.034 102.576 232.106 102.23 231.327 101.536C230.559 100.832 230.116 99.9523 229.999 98.8963H228.335V102.384H227.279V94.3843H228.335V97.8723H229.999C230.116 96.8163 230.559 95.9416 231.327 95.2483C232.106 94.5443 233.034 94.1923 234.111 94.1923ZM231.871 100.64C232.479 101.248 233.226 101.552 234.111 101.552C234.996 101.552 235.743 101.248 236.351 100.64C236.959 100.022 237.263 99.2696 237.263 98.3843C237.263 97.4989 236.959 96.7523 236.351 96.1443C235.743 95.5256 234.996 95.2163 234.111 95.2163C233.226 95.2163 232.479 95.5256 231.871 96.1443C231.263 96.7523 230.959 97.4989 230.959 98.3843C230.959 99.2696 231.263 100.022 231.871 100.64ZM55.7738 121.576C54.5684 121.576 53.5658 121.176 52.7658 120.376C51.9658 119.566 51.5658 118.568 51.5658 117.384C51.5658 116.2 51.9658 115.208 52.7658 114.408C53.5658 113.598 54.5684 113.192 55.7738 113.192C56.5631 113.192 57.2724 113.384 57.9018 113.768C58.5311 114.142 58.9898 114.648 59.2778 115.288L58.4138 115.784C58.2004 115.304 57.8538 114.926 57.3738 114.648C56.9044 114.36 56.3711 114.216 55.7738 114.216C54.8884 114.216 54.1418 114.526 53.5338 115.144C52.9258 115.752 52.6218 116.499 52.6218 117.384C52.6218 118.27 52.9258 119.022 53.5338 119.64C54.1418 120.248 54.8884 120.552 55.7738 120.552C56.3711 120.552 56.9044 120.414 57.3738 120.136C57.8431 119.848 58.2111 119.464 58.4778 118.984L59.3578 119.496C59.0271 120.136 58.5418 120.643 57.9018 121.016C57.2618 121.39 56.5524 121.576 55.7738 121.576ZM66.1577 113.384V114.408H63.3257V121.384H62.2697V114.408H59.4377V113.384H66.1577ZM71.4125 113.192C72.5539 113.192 73.5245 113.598 74.3245 114.408C75.1352 115.219 75.5405 116.211 75.5405 117.384C75.5405 118.558 75.1352 119.55 74.3245 120.36C73.5245 121.171 72.5539 121.576 71.4125 121.576C69.9939 121.576 68.9165 120.99 68.1805 119.816V124.584H67.1245V113.384H68.1805V114.952C68.9165 113.779 69.9939 113.192 71.4125 113.192ZM69.0925 119.64C69.7005 120.248 70.4472 120.552 71.3325 120.552C72.2179 120.552 72.9645 120.248 73.5725 119.64C74.1805 119.022 74.4845 118.27 74.4845 117.384C74.4845 116.499 74.1805 115.752 73.5725 115.144C72.9645 114.526 72.2179 114.216 71.3325 114.216C70.4472 114.216 69.7005 114.526 69.0925 115.144C68.4845 115.752 68.1805 116.499 68.1805 117.384C68.1805 118.27 68.4845 119.022 69.0925 119.64ZM82.4239 113.384H83.5439L80.1199 122.12C79.8106 122.91 79.3679 123.528 78.7919 123.976C78.2266 124.435 77.5919 124.638 76.8879 124.584V123.592C77.8479 123.699 78.5786 123.144 79.0799 121.928L79.2879 121.432L75.7039 113.384H76.8239L79.8319 120.088L82.4239 113.384ZM90.9642 121.384H89.5562L85.5562 117.528V121.384H84.5002V113.384H85.5562V116.92L89.3642 113.384H90.8042L86.6762 117.224L90.9642 121.384ZM97.8464 113.384V114.408H95.0144V121.384H93.9584V114.408H91.1264V113.384H97.8464ZM104.573 113.384H105.693L102.269 122.12C101.96 122.91 101.517 123.528 100.941 123.976C100.376 124.435 99.7413 124.638 99.0373 124.584V123.592C99.9973 123.699 100.728 123.144 101.229 121.928L101.437 121.432L97.8533 113.384H98.9733L101.981 120.088L104.573 113.384ZM110.938 113.192C112.079 113.192 113.05 113.598 113.85 114.408C114.66 115.219 115.066 116.211 115.066 117.384C115.066 118.558 114.66 119.55 113.85 120.36C113.05 121.171 112.079 121.576 110.938 121.576C109.519 121.576 108.442 120.99 107.706 119.816V124.584H106.65V113.384H107.706V114.952C108.442 113.779 109.519 113.192 110.938 113.192ZM108.618 119.64C109.226 120.248 109.972 120.552 110.858 120.552C111.743 120.552 112.49 120.248 113.098 119.64C113.706 119.022 114.01 118.27 114.01 117.384C114.01 116.499 113.706 115.752 113.098 115.144C112.49 114.526 111.743 114.216 110.858 114.216C109.972 114.216 109.226 114.526 108.618 115.144C108.01 115.752 107.706 116.499 107.706 117.384C107.706 118.27 108.01 119.022 108.618 119.64ZM121.949 113.384H123.069L119.645 122.12C119.336 122.91 118.893 123.528 118.317 123.976C117.752 124.435 117.117 124.638 116.413 124.584V123.592C117.373 123.699 118.104 123.144 118.605 121.928L118.813 121.432L115.229 113.384H116.349L119.357 120.088L121.949 113.384ZM132.793 117.272C133.668 117.592 134.105 118.216 134.105 119.144C134.105 119.795 133.886 120.334 133.449 120.76C133.022 121.176 132.404 121.384 131.593 121.384H127.705V113.384H131.273C132.052 113.384 132.654 113.587 133.081 113.992C133.508 114.387 133.721 114.899 133.721 115.528C133.721 116.328 133.412 116.91 132.793 117.272ZM131.273 114.408H128.761V116.84H131.273C132.201 116.84 132.665 116.424 132.665 115.592C132.665 115.219 132.542 114.931 132.297 114.728C132.062 114.515 131.721 114.408 131.273 114.408ZM131.593 120.36C132.062 120.36 132.42 120.248 132.665 120.024C132.921 119.8 133.049 119.486 133.049 119.08C133.049 118.707 132.921 118.414 132.665 118.2C132.42 117.976 132.062 117.864 131.593 117.864H128.761V120.36H131.593ZM144.825 113.384V114.408H141.993V121.384H140.937V114.408H138.105V113.384H144.825ZM149.176 113.192C150.36 113.192 151.314 113.614 152.04 114.456C152.776 115.288 153.144 116.275 153.144 117.416C153.144 117.534 153.133 117.699 153.112 117.912H146.088C146.194 118.723 146.536 119.368 147.112 119.848C147.698 120.318 148.418 120.552 149.272 120.552C149.88 120.552 150.402 120.43 150.84 120.184C151.288 119.928 151.624 119.598 151.848 119.192L152.776 119.736C152.424 120.302 151.944 120.75 151.336 121.08C150.728 121.411 150.034 121.576 149.256 121.576C147.997 121.576 146.973 121.182 146.184 120.392C145.394 119.603 145 118.6 145 117.384C145 116.19 145.389 115.192 146.168 114.392C146.946 113.592 147.949 113.192 149.176 113.192ZM149.176 114.216C148.344 114.216 147.645 114.467 147.08 114.968C146.525 115.459 146.194 116.099 146.088 116.888H152.056C151.949 116.046 151.624 115.39 151.08 114.92C150.536 114.451 149.901 114.216 149.176 114.216ZM160.911 121.384H159.647L157.151 118.088L154.655 121.384H153.391L156.527 117.24L153.599 113.384H154.863L157.151 116.408L159.439 113.384H160.703L157.791 117.24L160.911 121.384ZM169.835 117.272C170.763 117.624 171.227 118.264 171.227 119.192C171.227 119.854 170.966 120.419 170.443 120.888C169.931 121.347 169.195 121.576 168.235 121.576C166.624 121.576 165.568 120.936 165.067 119.656L165.963 119.128C166.294 120.078 167.051 120.552 168.235 120.552C168.854 120.552 169.328 120.419 169.659 120.152C170 119.886 170.171 119.544 170.171 119.128C170.171 118.755 170.032 118.451 169.755 118.216C169.478 117.982 169.104 117.864 168.635 117.864H167.467V116.84H168.315C168.774 116.84 169.131 116.728 169.387 116.504C169.654 116.27 169.787 115.95 169.787 115.544C169.787 115.16 169.632 114.846 169.323 114.6C169.014 114.344 168.598 114.216 168.075 114.216C167.072 114.216 166.406 114.616 166.075 115.416L165.195 114.904C165.728 113.763 166.688 113.192 168.075 113.192C168.918 113.192 169.59 113.416 170.091 113.864C170.592 114.302 170.843 114.84 170.843 115.48C170.843 116.302 170.507 116.899 169.835 117.272ZM179.216 120.376C178.405 121.176 177.413 121.576 176.24 121.576C175.067 121.576 174.069 121.176 173.248 120.376C172.437 119.566 172.032 118.568 172.032 117.384C172.032 116.2 172.437 115.208 173.248 114.408C174.069 113.598 175.067 113.192 176.24 113.192C177.413 113.192 178.405 113.598 179.216 114.408C180.037 115.208 180.448 116.2 180.448 117.384C180.448 118.568 180.037 119.566 179.216 120.376ZM174 119.64C174.608 120.248 175.355 120.552 176.24 120.552C177.125 120.552 177.872 120.248 178.48 119.64C179.088 119.022 179.392 118.27 179.392 117.384C179.392 116.499 179.088 115.752 178.48 115.144C177.872 114.526 177.125 114.216 176.24 114.216C175.355 114.216 174.608 114.526 174 115.144C173.392 115.752 173.088 116.499 173.088 117.384C173.088 118.27 173.392 119.022 174 119.64ZM187.559 113.384H188.615V121.384H187.559V117.896H182.951V121.384H181.895V113.384H182.951V116.872H187.559V113.384ZM197.408 113.384H198.464V121.384H197.408V119.816C196.672 120.99 195.595 121.576 194.176 121.576C193.035 121.576 192.059 121.171 191.248 120.36C190.448 119.55 190.048 118.558 190.048 117.384C190.048 116.211 190.448 115.219 191.248 114.408C192.059 113.598 193.035 113.192 194.176 113.192C195.595 113.192 196.672 113.779 197.408 114.952V113.384ZM192.016 119.64C192.624 120.248 193.371 120.552 194.256 120.552C195.142 120.552 195.888 120.248 196.496 119.64C197.104 119.022 197.408 118.27 197.408 117.384C197.408 116.499 197.104 115.752 196.496 115.144C195.888 114.526 195.142 114.216 194.256 114.216C193.371 114.216 192.624 114.526 192.016 115.144C191.408 115.752 191.104 116.499 191.104 117.384C191.104 118.27 191.408 119.022 192.016 119.64ZM207.1 121.384H205.836L203.34 118.088L200.844 121.384H199.58L202.716 117.24L199.788 113.384H201.052L203.34 116.408L205.628 113.384H206.892L203.98 117.24L207.1 121.384ZM209.976 120.024L209.016 123.624H208.056L208.696 120.024H209.976ZM220.54 113.384V114.408H216.476V121.384H215.42V113.384H220.54ZM227.742 120.36H228.862V123.528H227.806V121.384H221.278V123.528H220.222V120.36H221.198C221.742 119.646 222.014 118.638 222.014 117.336V113.384H227.742V120.36ZM222.478 120.36H226.686V114.408H223.07V117.336C223.07 118.563 222.873 119.571 222.478 120.36ZM233.523 113.192C234.707 113.192 235.662 113.614 236.387 114.456C237.123 115.288 237.491 116.275 237.491 117.416C237.491 117.534 237.48 117.699 237.459 117.912H230.435C230.542 118.723 230.883 119.368 231.459 119.848C232.046 120.318 232.766 120.552 233.619 120.552C234.227 120.552 234.75 120.43 235.187 120.184C235.635 119.928 235.971 119.598 236.195 119.192L237.123 119.736C236.771 120.302 236.291 120.75 235.683 121.08C235.075 121.411 234.382 121.576 233.603 121.576C232.344 121.576 231.32 121.182 230.531 120.392C229.742 119.603 229.347 118.6 229.347 117.384C229.347 116.19 229.736 115.192 230.515 114.392C231.294 113.592 232.296 113.192 233.523 113.192ZM233.523 114.216C232.691 114.216 231.992 114.467 231.427 114.968C230.872 115.459 230.542 116.099 230.435 116.888H236.403C236.296 116.046 235.971 115.39 235.427 114.92C234.883 114.451 234.248 114.216 233.523 114.216ZM57.7098 132.384H58.7658V140.384H57.7098V136.896H53.1018V140.384H52.0458V132.384H53.1018V135.872H57.7098V132.384ZM64.3749 132.192C65.5589 132.192 66.5136 132.614 67.2389 133.456C67.9749 134.288 68.3429 135.275 68.3429 136.416C68.3429 136.534 68.3322 136.699 68.3109 136.912H61.2869C61.3936 137.723 61.7349 138.368 62.3109 138.848C62.8976 139.318 63.6176 139.552 64.4709 139.552C65.0789 139.552 65.6016 139.43 66.0389 139.184C66.4869 138.928 66.8229 138.598 67.0469 138.192L67.9749 138.736C67.6229 139.302 67.1429 139.75 66.5349 140.08C65.9269 140.411 65.2336 140.576 64.4549 140.576C63.1962 140.576 62.1722 140.182 61.3829 139.392C60.5936 138.603 60.1989 137.6 60.1989 136.384C60.1989 135.19 60.5882 134.192 61.3669 133.392C62.1456 132.592 63.1482 132.192 64.3749 132.192ZM64.3749 133.216C63.5429 133.216 62.8442 133.467 62.2789 133.968C61.7242 134.459 61.3936 135.099 61.2869 135.888H67.2549C67.1482 135.046 66.8229 134.39 66.2789 133.92C65.7349 133.451 65.1002 133.216 64.3749 133.216ZM76.4067 139.376C75.596 140.176 74.604 140.576 73.4307 140.576C72.2573 140.576 71.26 140.176 70.4387 139.376C69.628 138.566 69.2227 137.568 69.2227 136.384C69.2227 135.2 69.628 134.208 70.4387 133.408C71.26 132.598 72.2573 132.192 73.4307 132.192C74.604 132.192 75.596 132.598 76.4067 133.408C77.228 134.208 77.6387 135.2 77.6387 136.384C77.6387 137.568 77.228 138.566 76.4067 139.376ZM71.1907 138.64C71.7987 139.248 72.5453 139.552 73.4307 139.552C74.316 139.552 75.0627 139.248 75.6707 138.64C76.2787 138.022 76.5827 137.27 76.5827 136.384C76.5827 135.499 76.2787 134.752 75.6707 134.144C75.0627 133.526 74.316 133.216 73.4307 133.216C72.5453 133.216 71.7987 133.526 71.1907 134.144C70.5827 134.752 70.2787 135.499 70.2787 136.384C70.2787 137.27 70.5827 138.022 71.1907 138.64ZM82.6378 140.576C81.4858 140.576 80.5258 140.198 79.7578 139.44C78.9898 138.672 78.6058 137.68 78.6058 136.464C78.6058 135.099 78.8084 134.054 79.2138 133.328C79.6191 132.592 80.4404 131.926 81.6778 131.328C81.9124 131.211 82.2218 131.072 82.6058 130.912C83.0004 130.752 83.2938 130.624 83.4858 130.528C83.6884 130.432 83.9071 130.31 84.1418 130.16C84.3764 130 84.5524 129.824 84.6698 129.632C84.7871 129.44 84.8618 129.211 84.8938 128.944L85.7258 129.424C85.6831 129.68 85.5978 129.92 85.4698 130.144C85.3418 130.368 85.2084 130.55 85.0698 130.688C84.9418 130.827 84.7338 130.982 84.4458 131.152C84.1684 131.312 83.9498 131.43 83.7898 131.504C83.6404 131.568 83.3738 131.68 82.9898 131.84C82.6164 132 82.3658 132.107 82.2378 132.16C81.4911 132.48 80.9418 132.816 80.5898 133.168C80.2378 133.51 79.9871 133.958 79.8378 134.512C80.2004 134.032 80.6591 133.68 81.2138 133.456C81.7791 133.222 82.3284 133.104 82.8618 133.104C83.9284 133.104 84.8084 133.456 85.5018 134.16C86.2058 134.854 86.5578 135.744 86.5578 136.832C86.5578 137.91 86.1844 138.806 85.4378 139.52C84.7018 140.224 83.7684 140.576 82.6378 140.576ZM82.6378 139.52C83.4698 139.52 84.1524 139.27 84.6858 138.768C85.2298 138.256 85.5018 137.611 85.5018 136.832C85.5018 136.043 85.2458 135.398 84.7338 134.896C84.2324 134.384 83.5604 134.128 82.7178 134.128C81.9604 134.128 81.2724 134.368 80.6538 134.848C80.0351 135.318 79.7258 135.947 79.7258 136.736C79.7258 137.547 80.0031 138.214 80.5578 138.736C81.1231 139.259 81.8164 139.52 82.6378 139.52ZM94.0014 140.384H92.7374L90.2414 137.088L87.7454 140.384H86.4814L89.6174 136.24L86.6894 132.384H87.9534L90.2414 135.408L92.5294 132.384H93.7934L90.8814 136.24L94.0014 140.384ZM101.259 139.376C100.448 140.176 99.4565 140.576 98.2832 140.576C97.1098 140.576 96.1125 140.176 95.2912 139.376C94.4805 138.566 94.0752 137.568 94.0752 136.384C94.0752 135.2 94.4805 134.208 95.2912 133.408C96.1125 132.598 97.1098 132.192 98.2832 132.192C99.4565 132.192 100.448 132.598 101.259 133.408C102.08 134.208 102.491 135.2 102.491 136.384C102.491 137.568 102.08 138.566 101.259 139.376ZM96.0432 138.64C96.6512 139.248 97.3978 139.552 98.2832 139.552C99.1685 139.552 99.9152 139.248 100.523 138.64C101.131 138.022 101.435 137.27 101.435 136.384C101.435 135.499 101.131 134.752 100.523 134.144C99.9152 133.526 99.1685 133.216 98.2832 133.216C97.3978 133.216 96.6512 133.526 96.0432 134.144C95.4352 134.752 95.1312 135.499 95.1312 136.384C95.1312 137.27 95.4352 138.022 96.0432 138.64ZM110.346 139.36H111.466V142.528H110.41V140.384H103.882V142.528H102.826V139.36H103.802C104.346 138.646 104.618 137.638 104.618 136.336V132.384H110.346V139.36ZM105.082 139.36H109.29V133.408H105.674V136.336C105.674 137.563 105.476 138.571 105.082 139.36ZM118.567 132.384H119.463V140.384H118.407V134.224L113.639 140.384H112.743V132.384H113.799V138.544L118.567 132.384ZM129.216 132.384V140.384H128.16V134L125.36 138.544H125.232L122.432 134V140.384H121.376V132.384H122.592L125.296 136.768L128 132.384H129.216ZM138.015 132.384H139.071V140.384H138.015V138.816C137.279 139.99 136.201 140.576 134.783 140.576C133.641 140.576 132.665 140.171 131.855 139.36C131.055 138.55 130.655 137.558 130.655 136.384C130.655 135.211 131.055 134.219 131.855 133.408C132.665 132.598 133.641 132.192 134.783 132.192C136.201 132.192 137.279 132.779 138.015 133.952V132.384ZM132.623 138.64C133.231 139.248 133.977 139.552 134.863 139.552C135.748 139.552 136.495 139.248 137.103 138.64C137.711 138.022 138.015 137.27 138.015 136.384C138.015 135.499 137.711 134.752 137.103 134.144C136.495 133.526 135.748 133.216 134.863 133.216C133.977 133.216 133.231 133.526 132.623 134.144C132.015 134.752 131.711 135.499 131.711 136.384C131.711 137.27 132.015 138.022 132.623 138.64ZM149.754 136.272C150.629 136.592 151.066 137.216 151.066 138.144C151.066 138.795 150.848 139.334 150.41 139.76C149.984 140.176 149.365 140.384 148.554 140.384H144.666V132.384H148.234C149.013 132.384 149.616 132.587 150.042 132.992C150.469 133.387 150.682 133.899 150.682 134.528C150.682 135.328 150.373 135.91 149.754 136.272ZM148.234 133.408H145.722V135.84H148.234C149.162 135.84 149.626 135.424 149.626 134.592C149.626 134.219 149.504 133.931 149.258 133.728C149.024 133.515 148.682 133.408 148.234 133.408ZM148.554 139.36C149.024 139.36 149.381 139.248 149.626 139.024C149.882 138.8 150.01 138.486 150.01 138.08C150.01 137.707 149.882 137.414 149.626 137.2C149.381 136.976 149.024 136.864 148.554 136.864H145.722V139.36H148.554ZM155.594 135.424C156.341 135.424 156.97 135.659 157.482 136.128C158.005 136.587 158.266 137.179 158.266 137.904C158.266 138.63 158.005 139.227 157.482 139.696C156.97 140.155 156.341 140.384 155.594 140.384H152.346V132.384H153.402V135.424H155.594ZM159.386 132.384H160.442V140.384H159.386V132.384ZM155.594 139.36C156.042 139.36 156.421 139.227 156.73 138.96C157.05 138.694 157.21 138.342 157.21 137.904C157.21 137.467 157.05 137.115 156.73 136.848C156.421 136.582 156.042 136.448 155.594 136.448H153.402V139.36H155.594ZM166.098 140.576C164.893 140.576 163.89 140.176 163.09 139.376C162.29 138.566 161.89 137.568 161.89 136.384C161.89 135.2 162.29 134.208 163.09 133.408C163.89 132.598 164.893 132.192 166.098 132.192C166.887 132.192 167.597 132.384 168.226 132.768C168.855 133.142 169.314 133.648 169.602 134.288L168.738 134.784C168.525 134.304 168.178 133.926 167.698 133.648C167.229 133.36 166.695 133.216 166.098 133.216C165.213 133.216 164.466 133.526 163.858 134.144C163.25 134.752 162.946 135.499 162.946 136.384C162.946 137.27 163.25 138.022 163.858 138.64C164.466 139.248 165.213 139.552 166.098 139.552C166.695 139.552 167.229 139.414 167.698 139.136C168.167 138.848 168.535 138.464 168.802 137.984L169.682 138.496C169.351 139.136 168.866 139.643 168.226 140.016C167.586 140.39 166.877 140.576 166.098 140.576ZM177.504 139.376C176.693 140.176 175.701 140.576 174.528 140.576C173.355 140.576 172.357 140.176 171.536 139.376C170.725 138.566 170.32 137.568 170.32 136.384C170.32 135.2 170.725 134.208 171.536 133.408C172.357 132.598 173.355 132.192 174.528 132.192C175.701 132.192 176.693 132.598 177.504 133.408C178.325 134.208 178.736 135.2 178.736 136.384C178.736 137.568 178.325 138.566 177.504 139.376ZM172.288 138.64C172.896 139.248 173.643 139.552 174.528 139.552C175.413 139.552 176.16 139.248 176.768 138.64C177.376 138.022 177.68 137.27 177.68 136.384C177.68 135.499 177.376 134.752 176.768 134.144C176.16 133.526 175.413 133.216 174.528 133.216C173.643 133.216 172.896 133.526 172.288 134.144C171.68 134.752 171.376 135.499 171.376 136.384C171.376 137.27 171.68 138.022 172.288 138.64ZM186.647 140.384H185.239L181.239 136.528V140.384H180.183V132.384H181.239V135.92L185.047 132.384H186.487L182.359 136.224L186.647 140.384ZM193.853 132.384H194.909V140.384H193.853V138.816C193.117 139.99 192.039 140.576 190.621 140.576C189.479 140.576 188.503 140.171 187.693 139.36C186.893 138.55 186.493 137.558 186.493 136.384C186.493 135.211 186.893 134.219 187.693 133.408C188.503 132.598 189.479 132.192 190.621 132.192C192.039 132.192 193.117 132.779 193.853 133.952V132.384ZM188.461 138.64C189.069 139.248 189.815 139.552 190.701 139.552C191.586 139.552 192.333 139.248 192.941 138.64C193.549 138.022 193.853 137.27 193.853 136.384C193.853 135.499 193.549 134.752 192.941 134.144C192.333 133.526 191.586 133.216 190.701 133.216C189.815 133.216 189.069 133.526 188.461 134.144C187.853 134.752 187.549 135.499 187.549 136.384C187.549 137.27 187.853 138.022 188.461 138.64ZM202.585 132.384V140.384H201.529V137.312H200.153L197.689 140.384H196.345L198.873 137.28C198.233 137.184 197.705 136.918 197.289 136.48C196.873 136.043 196.665 135.504 196.665 134.864C196.665 134.139 196.921 133.547 197.433 133.088C197.955 132.619 198.59 132.384 199.337 132.384H202.585ZM199.337 136.32H201.529V133.408H199.337C198.889 133.408 198.505 133.542 198.185 133.808C197.875 134.075 197.721 134.427 197.721 134.864C197.721 135.302 197.875 135.654 198.185 135.92C198.505 136.187 198.889 136.32 199.337 136.32ZM213.945 132.384V133.408H211.113V140.384H210.057V133.408H207.225V132.384H213.945ZM221.303 139.376C220.492 140.176 219.5 140.576 218.327 140.576C217.154 140.576 216.156 140.176 215.335 139.376C214.524 138.566 214.119 137.568 214.119 136.384C214.119 135.2 214.524 134.208 215.335 133.408C216.156 132.598 217.154 132.192 218.327 132.192C219.5 132.192 220.492 132.598 221.303 133.408C222.124 134.208 222.535 135.2 222.535 136.384C222.535 137.568 222.124 138.566 221.303 139.376ZM216.087 138.64C216.695 139.248 217.442 139.552 218.327 139.552C219.212 139.552 219.959 139.248 220.567 138.64C221.175 138.022 221.479 137.27 221.479 136.384C221.479 135.499 221.175 134.752 220.567 134.144C219.959 133.526 219.212 133.216 218.327 133.216C217.442 133.216 216.695 133.526 216.087 134.144C215.479 134.752 215.175 135.499 215.175 136.384C215.175 137.27 215.479 138.022 216.087 138.64ZM229.01 132.384H230.066V140.384H229.01V137.344C228.391 137.664 227.628 137.824 226.722 137.824C225.676 137.824 224.876 137.584 224.322 137.104C223.778 136.614 223.506 135.894 223.506 134.944V132.384H224.562V134.944C224.562 135.616 224.738 136.102 225.09 136.4C225.442 136.688 225.975 136.832 226.69 136.832C227.522 136.832 228.295 136.678 229.01 136.368V132.384ZM237.654 132.384H238.71V140.384H237.654V136.896H233.046V140.384H231.99V132.384H233.046V135.872H237.654V132.384ZM247.327 139.376C246.517 140.176 245.525 140.576 244.351 140.576C243.178 140.576 242.181 140.176 241.359 139.376C240.549 138.566 240.143 137.568 240.143 136.384C240.143 135.2 240.549 134.208 241.359 133.408C242.181 132.598 243.178 132.192 244.351 132.192C245.525 132.192 246.517 132.598 247.327 133.408C248.149 134.208 248.559 135.2 248.559 136.384C248.559 137.568 248.149 138.566 247.327 139.376ZM242.111 138.64C242.719 139.248 243.466 139.552 244.351 139.552C245.237 139.552 245.983 139.248 246.591 138.64C247.199 138.022 247.503 137.27 247.503 136.384C247.503 135.499 247.199 134.752 246.591 134.144C245.983 133.526 245.237 133.216 244.351 133.216C243.466 133.216 242.719 133.526 242.111 134.144C241.503 134.752 241.199 135.499 241.199 136.384C241.199 137.27 241.503 138.022 242.111 138.64ZM253.734 140.576C252.529 140.576 251.526 140.176 250.726 139.376C249.926 138.566 249.526 137.568 249.526 136.384C249.526 135.2 249.926 134.208 250.726 133.408C251.526 132.598 252.529 132.192 253.734 132.192C254.524 132.192 255.233 132.384 255.862 132.768C256.492 133.142 256.95 133.648 257.238 134.288L256.374 134.784C256.161 134.304 255.814 133.926 255.334 133.648C254.865 133.36 254.332 133.216 253.734 133.216C252.849 133.216 252.102 133.526 251.494 134.144C250.886 134.752 250.582 135.499 250.582 136.384C250.582 137.27 250.886 138.022 251.494 138.64C252.102 139.248 252.849 139.552 253.734 139.552C254.332 139.552 254.865 139.414 255.334 139.136C255.804 138.848 256.172 138.464 256.438 137.984L257.318 138.496C256.988 139.136 256.502 139.643 255.862 140.016C255.222 140.39 254.513 140.576 253.734 140.576ZM264.118 132.384V133.408H261.286V140.384H260.23V133.408H257.398V132.384H264.118ZM268.333 135.424C269.08 135.424 269.709 135.659 270.221 136.128C270.744 136.587 271.005 137.179 271.005 137.904C271.005 138.63 270.744 139.227 270.221 139.696C269.709 140.155 269.08 140.384 268.333 140.384H265.085V132.384H266.141V135.424H268.333ZM268.333 139.36C268.781 139.36 269.16 139.227 269.469 138.96C269.789 138.694 269.949 138.342 269.949 137.904C269.949 137.467 269.789 137.115 269.469 136.848C269.16 136.582 268.781 136.448 268.333 136.448H266.141V139.36H268.333ZM57.8698 151.384H58.7658V159.384H57.7098V153.224L52.9418 159.384H52.0458V151.384H53.1018V157.544L57.8698 151.384ZM66.3429 151.384H67.3989V159.384H66.3429V155.896H61.7349V159.384H60.6789V151.384H61.7349V154.872H66.3429V151.384ZM73.68 154.424C74.4267 154.424 75.056 154.659 75.568 155.128C76.0907 155.587 76.352 156.179 76.352 156.904C76.352 157.63 76.0907 158.227 75.568 158.696C75.056 159.155 74.4267 159.384 73.68 159.384H70.432V152.408H68.192V151.384H71.488V154.424H73.68ZM73.68 158.36C74.128 158.36 74.5067 158.227 74.816 157.96C75.136 157.694 75.296 157.342 75.296 156.904C75.296 156.467 75.136 156.115 74.816 155.848C74.5067 155.582 74.128 155.448 73.68 155.448H71.488V158.36H73.68ZM81.2505 151.192C82.4345 151.192 83.3892 151.614 84.1145 152.456C84.8505 153.288 85.2185 154.275 85.2185 155.416C85.2185 155.534 85.2079 155.699 85.1865 155.912H78.1625C78.2692 156.723 78.6105 157.368 79.1865 157.848C79.7732 158.318 80.4932 158.552 81.3465 158.552C81.9545 158.552 82.4772 158.43 82.9145 158.184C83.3625 157.928 83.6985 157.598 83.9225 157.192L84.8505 157.736C84.4985 158.302 84.0185 158.75 83.4105 159.08C82.8025 159.411 82.1092 159.576 81.3305 159.576C80.0719 159.576 79.0479 159.182 78.2585 158.392C77.4692 157.603 77.0745 156.6 77.0745 155.384C77.0745 154.19 77.4639 153.192 78.2425 152.392C79.0212 151.592 80.0239 151.192 81.2505 151.192ZM81.2505 152.216C80.4185 152.216 79.7199 152.467 79.1545 152.968C78.5999 153.459 78.2692 154.099 78.1625 154.888H84.1305C84.0239 154.046 83.6985 153.39 83.1545 152.92C82.6105 152.451 81.9759 152.216 81.2505 152.216ZM93.0423 159.384H91.6343L87.6343 155.528V159.384H86.5783V151.384H87.6343V154.92L91.4423 151.384H92.8823L88.7543 155.224L93.0423 159.384ZM100.725 158.36H102.005V161.528H100.949V159.384H94.1645V151.384H95.2205V158.36H99.6685V151.384H100.725V158.36ZM109.106 151.384H110.002V159.384H108.946V153.224L104.178 159.384H103.282V151.384H104.338V157.544L109.106 151.384ZM117.739 151.384H118.635V159.384H117.579V153.224L112.811 159.384H111.915V151.384H112.971V157.544L117.739 151.384Z" fill="#020828"/>
<circle cx="27.6043" cy="42.4798" r="12.8641" stroke="#A7DFDE" stroke-width="2"/>
<path d="M28.4045 37.484C28.1378 37.7507 27.8178 37.884 27.4445 37.884C27.0712 37.884 26.7445 37.7507 26.4645 37.484C26.1978 37.204 26.0645 36.8774 26.0645 36.504C26.0645 36.1307 26.1978 35.8107 26.4645 35.544C26.7312 35.264 27.0578 35.124 27.4445 35.124C27.8312 35.124 28.1578 35.264 28.4245 35.544C28.6912 35.8107 28.8245 36.1307 28.8245 36.504C28.8245 36.8774 28.6845 37.204 28.4045 37.484ZM26.3645 49.384V39.384H28.5245V49.384H26.3645Z" fill="#020828"/>
</svg>
