<svg width="418" height="116" viewBox="0 0 418 116" fill="none" xmlns="http://www.w3.org/2000/svg">
<rect x="0.5" y="27.9199" width="416.959" height="87.8637" rx="10" fill="white"/>
<circle cx="28.9207" cy="57.9876" r="12.8641" stroke="#A7DFDE" stroke-width="2"/>
<path d="M0.5 40.4825V9.97158C0.5 8.66412 2.20951 8.16971 2.9074 9.27533C9.93293 20.4055 19.4718 29.732 30.7573 36.5053L37.3843 40.4825H0.5Z" fill="white"/>
<path d="M71.6919 66.8918H73.4119L67.6919 52.8918H65.8319L60.1119 66.8918H61.8519L63.3919 63.0518H70.1519L71.6919 66.8918ZM63.9919 61.5318L66.7719 54.5718L69.5519 61.5318H63.9919ZM91.2 56.4918C89.46 56.4918 88.14 57.3318 87.62 58.6318C87.14 57.2518 86.04 56.4918 84.46 56.4918C82.9 56.4918 81.68 57.2318 81.12 58.5118V56.7718H79.52V66.8918H81.12V60.8718C81.12 59.0918 82.36 57.9918 84.1 57.9918C85.62 57.9918 86.28 58.8518 86.28 60.7718V66.8918H87.88V60.8718C87.88 59.0918 89.14 57.9918 90.86 57.9918C92.4 57.9918 93.06 58.8518 93.06 60.7718V66.8918H94.66V60.3918C94.66 57.9118 93.44 56.4918 91.2 56.4918ZM101.731 56.4918C99.9914 56.4918 98.5114 57.1718 97.5714 58.4318L98.5914 59.3918C99.3514 58.4518 100.451 57.9518 101.671 57.9518C103.211 57.9518 104.091 58.7718 104.091 60.2318V61.0118H101.051C98.3714 61.0118 96.9714 62.2118 96.9714 64.0318C96.9714 65.9118 98.3714 67.0918 100.511 67.0918C102.291 67.0918 103.651 66.2918 104.131 65.0918V66.8918H105.651V60.2318C105.651 57.9118 104.211 56.4918 101.731 56.4918ZM100.771 65.7518C99.3914 65.7518 98.6114 65.0918 98.6114 63.9918C98.6114 62.9318 99.4114 62.2918 101.111 62.2918H104.091V62.7918C104.091 64.4918 102.671 65.7518 100.771 65.7518ZM112.338 67.1718C114.858 67.1718 116.298 65.8918 116.298 64.0118C116.298 62.6518 115.518 61.7118 113.458 61.2518L111.658 60.8518C110.218 60.5318 109.818 60.1118 109.818 59.4518C109.818 58.5318 110.578 57.9518 112.078 57.9518C113.358 57.9518 114.378 58.3718 115.038 59.2118L116.138 58.2518C115.338 57.1318 113.938 56.4918 112.158 56.4918C109.678 56.4918 108.218 57.7518 108.218 59.4718C108.218 60.8918 109.178 61.7918 111.258 62.2718L112.878 62.6518C114.238 62.9518 114.698 63.4118 114.698 64.1318C114.698 65.0718 113.818 65.7118 112.318 65.7118C110.938 65.7118 109.738 65.1918 109.018 64.0918L107.838 64.9318C108.618 66.2918 110.258 67.1718 112.338 67.1718ZM122.153 67.1718C124.673 67.1718 126.113 65.8918 126.113 64.0118C126.113 62.6518 125.333 61.7118 123.273 61.2518L121.473 60.8518C120.033 60.5318 119.633 60.1118 119.633 59.4518C119.633 58.5318 120.393 57.9518 121.893 57.9518C123.173 57.9518 124.193 58.3718 124.853 59.2118L125.953 58.2518C125.153 57.1318 123.753 56.4918 121.973 56.4918C119.493 56.4918 118.033 57.7518 118.033 59.4718C118.033 60.8918 118.993 61.7918 121.073 62.2718L122.692 62.6518C124.053 62.9518 124.513 63.4118 124.513 64.1318C124.513 65.0718 123.633 65.7118 122.133 65.7118C120.753 65.7118 119.553 65.1918 118.833 64.0918L117.653 64.9318C118.433 66.2918 120.073 67.1718 122.153 67.1718ZM132.387 56.4918C130.647 56.4918 129.167 57.1718 128.227 58.4318L129.247 59.3918C130.007 58.4518 131.107 57.9518 132.327 57.9518C133.867 57.9518 134.747 58.7718 134.747 60.2318V61.0118H131.707C129.027 61.0118 127.627 62.2118 127.627 64.0318C127.627 65.9118 129.027 67.0918 131.167 67.0918C132.947 67.0918 134.307 66.2918 134.787 65.0918V66.8918H136.307V60.2318C136.307 57.9118 134.867 56.4918 132.387 56.4918ZM131.427 65.7518C130.047 65.7518 129.267 65.0918 129.267 63.9918C129.267 62.9318 130.067 62.2918 131.767 62.2918H134.747V62.7918C134.747 64.4918 133.327 65.7518 131.427 65.7518ZM144.522 54.6118C145.162 54.6118 145.622 54.1318 145.622 53.4918C145.622 52.8518 145.162 52.3718 144.522 52.3718C143.862 52.3718 143.402 52.8518 143.402 53.4918C143.402 54.1318 143.862 54.6118 144.522 54.6118ZM143.722 66.8918H145.322V56.7718H143.722V66.8918ZM156.436 52.2518V58.6918C155.836 57.3518 154.376 56.4918 152.636 56.4918C149.836 56.4918 147.836 58.6718 147.836 61.8318C147.836 64.9918 149.836 67.1718 152.636 67.1718C154.376 67.1718 155.836 66.3318 156.436 64.9718V66.8918H158.036V52.2518H156.436ZM153.016 65.6918C150.896 65.6918 149.496 64.0718 149.496 61.8318C149.496 59.5918 150.896 57.9918 153.016 57.9918C155.116 57.9918 156.516 59.5918 156.516 61.8318C156.516 64.0718 155.116 65.6918 153.016 65.6918ZM165.51 66.8918H167.11V52.2518H165.51V66.8918ZM171.145 54.6118C171.785 54.6118 172.245 54.1318 172.245 53.4918C172.245 52.8518 171.785 52.3718 171.145 52.3718C170.485 52.3718 170.025 52.8518 170.025 53.4918C170.025 54.1318 170.485 54.6118 171.145 54.6118ZM170.345 66.8918H171.945V56.7718H170.345V66.8918ZM180.579 56.4918C178.839 56.4918 177.379 57.3518 176.779 58.6918V52.2518H175.179V66.8918H176.779V64.9718C177.379 66.3318 178.839 67.1718 180.579 67.1718C183.379 67.1718 185.379 64.9918 185.379 61.8318C185.379 58.6718 183.379 56.4918 180.579 56.4918ZM180.199 65.6918C178.099 65.6918 176.699 64.0718 176.699 61.8318C176.699 59.5918 178.099 57.9918 180.199 57.9918C182.319 57.9918 183.719 59.5918 183.719 61.8318C183.719 64.0718 182.319 65.6918 180.199 65.6918ZM197.024 61.4518C197.024 58.4918 195.024 56.4918 192.224 56.4918C189.244 56.4918 187.184 58.7518 187.184 61.8518C187.184 64.9918 189.284 67.1718 192.364 67.1718C194.244 67.1718 195.764 66.3718 196.744 64.9918L195.664 64.0718C194.804 65.1718 193.704 65.6918 192.404 65.6918C190.364 65.6918 189.004 64.4318 188.824 62.3118H196.964C197.004 62.0318 197.024 61.7318 197.024 61.4518ZM192.224 57.9918C193.984 57.9918 195.224 59.0718 195.384 61.0118H188.864C189.144 59.1918 190.364 57.9918 192.224 57.9918ZM204.196 56.6318C202.716 56.6318 201.556 57.3918 201.096 58.6918V56.7718H199.496V66.8918H201.096V61.6918C201.096 59.2318 202.316 58.1118 204.236 58.1118C204.496 58.1118 204.816 58.1318 205.096 58.1718V56.7518C204.836 56.6518 204.536 56.6318 204.196 56.6318ZM211.095 67.1718C214.255 67.1718 216.295 64.7318 216.295 61.8318C216.295 58.9518 214.255 56.4918 211.095 56.4918C207.935 56.4918 205.915 58.9518 205.915 61.8318C205.915 64.7318 207.935 67.1718 211.095 67.1718ZM211.095 65.6918C208.975 65.6918 207.575 64.0718 207.575 61.8318C207.575 59.5918 208.975 57.9918 211.095 57.9918C213.215 57.9918 214.615 59.5918 214.615 61.8318C214.615 64.0718 213.215 65.6918 211.095 65.6918ZM223.022 66.8918H224.622V52.2518H223.022V66.8918ZM231.757 56.4918C230.017 56.4918 228.537 57.1718 227.597 58.4318L228.617 59.3918C229.377 58.4518 230.477 57.9518 231.697 57.9518C233.237 57.9518 234.117 58.7718 234.117 60.2318V61.0118H231.077C228.397 61.0118 226.997 62.2118 226.997 64.0318C226.997 65.9118 228.397 67.0918 230.537 67.0918C232.317 67.0918 233.677 66.2918 234.157 65.0918V66.8918H235.677V60.2318C235.677 57.9118 234.237 56.4918 231.757 56.4918ZM230.797 65.7518C229.417 65.7518 228.637 65.0918 228.637 63.9918C228.637 62.9318 229.437 62.2918 231.137 62.2918H234.117V62.7918C234.117 64.4918 232.697 65.7518 230.797 65.7518ZM243.223 67.1718C245.303 67.1718 247.023 66.0918 247.663 64.2518L246.223 63.6518C245.643 65.0518 244.663 65.6918 243.343 65.6918C241.203 65.6918 239.783 64.1518 239.783 61.8318C239.783 59.5118 241.203 57.9918 243.343 57.9918C244.663 57.9918 245.643 58.6118 246.223 60.0318L247.703 59.4118C247.023 57.5918 245.363 56.4918 243.223 56.4918C240.243 56.4918 238.123 58.7318 238.123 61.8318C238.123 64.9318 240.243 67.1718 243.223 67.1718ZM250.553 54.6118C251.193 54.6118 251.653 54.1318 251.653 53.4918C251.653 52.8518 251.193 52.3718 250.553 52.3718C249.893 52.3718 249.433 52.8518 249.433 53.4918C249.433 54.1318 249.893 54.6118 250.553 54.6118ZM249.753 66.8918H251.353V56.7718H249.753V66.8918ZM259.726 56.4918C258.086 56.4918 256.766 57.2118 256.186 58.5118V56.7718H254.586V66.8918H256.186V60.8718C256.186 59.0918 257.546 57.9918 259.366 57.9918C260.966 57.9918 261.746 58.8518 261.746 60.8118V66.8918H263.346V60.4318C263.346 57.8918 262.026 56.4918 259.726 56.4918ZM267.311 54.6118C267.951 54.6118 268.411 54.1318 268.411 53.4918C268.411 52.8518 267.951 52.3718 267.311 52.3718C266.651 52.3718 266.191 52.8518 266.191 53.4918C266.191 54.1318 266.651 54.6118 267.311 54.6118ZM266.511 66.8918H268.111V56.7718H266.511V66.8918ZM275.265 56.4918C273.525 56.4918 272.045 57.1718 271.105 58.4318L272.125 59.3918C272.885 58.4518 273.985 57.9518 275.205 57.9518C276.745 57.9518 277.625 58.7718 277.625 60.2318V61.0118H274.585C271.905 61.0118 270.505 62.2118 270.505 64.0318C270.505 65.9118 271.905 67.0918 274.045 67.0918C275.825 67.0918 277.185 66.2918 277.665 65.0918V66.8918H279.185V60.2318C279.185 57.9118 277.745 56.4918 275.265 56.4918ZM274.305 65.7518C272.925 65.7518 272.145 65.0918 272.145 63.9918C272.145 62.9318 272.945 62.2918 274.645 62.2918H277.625V62.7918C277.625 64.4918 276.205 65.7518 274.305 65.7518ZM291.98 56.4918C290.24 56.4918 288.78 57.3518 288.18 58.6918V56.7718H286.58V70.8918H288.18V64.9718C288.78 66.3318 290.24 67.1718 291.98 67.1718C294.78 67.1718 296.78 64.9918 296.78 61.8318C296.78 58.6718 294.78 56.4918 291.98 56.4918ZM291.6 65.6918C289.5 65.6918 288.1 64.0718 288.1 61.8318C288.1 59.5918 289.5 57.9918 291.6 57.9918C293.72 57.9918 295.12 59.5918 295.12 61.8318C295.12 64.0718 293.72 65.6918 291.6 65.6918ZM304.445 56.4918C302.805 56.4918 301.485 57.2118 300.905 58.5118V52.2518H299.305V66.8918H300.905V60.8718C300.905 59.0918 302.265 57.9918 304.085 57.9918C305.685 57.9918 306.465 58.8518 306.465 60.8118V66.8918H308.065V60.4318C308.065 57.8918 306.745 56.4918 304.445 56.4918ZM315.13 56.4918C313.39 56.4918 311.91 57.1718 310.97 58.4318L311.99 59.3918C312.75 58.4518 313.85 57.9518 315.07 57.9518C316.61 57.9518 317.49 58.7718 317.49 60.2318V61.0118H314.45C311.77 61.0118 310.37 62.2118 310.37 64.0318C310.37 65.9118 311.77 67.0918 313.91 67.0918C315.69 67.0918 317.05 66.2918 317.53 65.0918V66.8918H319.05V60.2318C319.05 57.9118 317.61 56.4918 315.13 56.4918ZM314.17 65.7518C312.79 65.7518 312.01 65.0918 312.01 63.9918C312.01 62.9318 312.81 62.2918 314.51 62.2918H317.49V62.7918C317.49 64.4918 316.07 65.7518 314.17 65.7518ZM326.916 56.6318C325.436 56.6318 324.276 57.3918 323.816 58.6918V56.7718H322.216V66.8918H323.816V61.6918C323.816 59.2318 325.036 58.1118 326.956 58.1118C327.216 58.1118 327.536 58.1318 327.816 58.1718V56.7518C327.556 56.6518 327.256 56.6318 326.916 56.6318ZM338.475 61.4518C338.475 58.4918 336.475 56.4918 333.675 56.4918C330.695 56.4918 328.635 58.7518 328.635 61.8518C328.635 64.9918 330.735 67.1718 333.815 67.1718C335.695 67.1718 337.215 66.3718 338.195 64.9918L337.115 64.0718C336.255 65.1718 335.155 65.6918 333.855 65.6918C331.815 65.6918 330.455 64.4318 330.275 62.3118H338.415C338.455 62.0318 338.475 61.7318 338.475 61.4518ZM333.675 57.9918C335.435 57.9918 336.675 59.0718 336.835 61.0118H330.315C330.595 59.1918 331.815 57.9918 333.675 57.9918ZM344.532 67.0518C345.032 67.0518 345.692 66.9918 346.332 66.7918V65.4518C345.752 65.5718 345.212 65.6318 344.772 65.6318C343.612 65.6318 343.092 65.2318 343.092 64.2118V58.1518H346.292V56.7718H343.092V53.7718H341.492V56.7718H339.452V58.1518H341.492V64.3118C341.492 66.1318 342.572 67.0518 344.532 67.0518ZM353.216 56.6318C351.736 56.6318 350.576 57.3918 350.116 58.6918V56.7718H348.516V66.8918H350.116V61.6918C350.116 59.2318 351.336 58.1118 353.256 58.1118C353.516 58.1118 353.836 58.1318 354.116 58.1718V56.7518C353.856 56.6518 353.556 56.6318 353.216 56.6318ZM359.692 56.4918C357.952 56.4918 356.472 57.1718 355.532 58.4318L356.552 59.3918C357.312 58.4518 358.412 57.9518 359.632 57.9518C361.172 57.9518 362.052 58.7718 362.052 60.2318V61.0118H359.012C356.332 61.0118 354.932 62.2118 354.932 64.0318C354.932 65.9118 356.332 67.0918 358.472 67.0918C360.252 67.0918 361.612 66.2918 362.092 65.0918V66.8918H363.612V60.2318C363.612 57.9118 362.172 56.4918 359.692 56.4918ZM358.732 65.7518C357.352 65.7518 356.572 65.0918 356.572 63.9918C356.572 62.9318 357.372 62.2918 359.072 62.2918H362.052V62.7918C362.052 64.4918 360.632 65.7518 358.732 65.7518ZM62.3119 81.6118C62.9519 81.6118 63.4119 81.1318 63.4119 80.4918C63.4119 79.8518 62.9519 79.3718 62.3119 79.3718C61.6519 79.3718 61.1919 79.8518 61.1919 80.4918C61.1919 81.1318 61.6519 81.6118 62.3119 81.6118ZM61.5119 93.8918H63.1119V83.7718H61.5119V93.8918ZM74.2258 79.2518V85.6918C73.6258 84.3518 72.1658 83.4918 70.4258 83.4918C67.6258 83.4918 65.6258 85.6718 65.6258 88.8318C65.6258 91.9918 67.6258 94.1718 70.4258 94.1718C72.1658 94.1718 73.6258 93.3318 74.2258 91.9718V93.8918H75.8258V79.2518H74.2258ZM70.8058 92.6918C68.6858 92.6918 67.2858 91.0718 67.2858 88.8318C67.2858 86.5918 68.6858 84.9918 70.8058 84.9918C72.9058 84.9918 74.3058 86.5918 74.3058 88.8318C74.3058 91.0718 72.9058 92.6918 70.8058 92.6918ZM92.4197 88.4518C92.4197 85.4918 90.4197 83.4918 87.6197 83.4918C84.6397 83.4918 82.5797 85.7518 82.5797 88.8518C82.5797 91.9918 84.6797 94.1718 87.7597 94.1718C89.6397 94.1718 91.1597 93.3718 92.1397 91.9918L91.0597 91.0718C90.1997 92.1718 89.0997 92.6918 87.7997 92.6918C85.7597 92.6918 84.3997 91.4318 84.2197 89.3118H92.3597C92.3997 89.0318 92.4197 88.7318 92.4197 88.4518ZM87.6197 84.9918C89.3797 84.9918 90.6197 86.0718 90.7797 88.0118H84.2597C84.5397 86.1918 85.7597 84.9918 87.6197 84.9918ZM102.772 83.7718V85.6718C102.172 84.3318 100.732 83.4918 98.9919 83.4918C96.1919 83.4918 94.1719 85.6318 94.1719 88.6918C94.1719 91.7718 96.1919 93.8918 98.9919 93.8918C100.732 93.8918 102.172 93.0718 102.772 91.7518V92.7518C102.772 95.3718 101.452 96.6918 99.1319 96.6918C97.6719 96.6918 96.3719 96.1518 95.4719 95.2918L94.5519 96.4718C95.5719 97.5318 97.2119 98.1718 99.1319 98.1718C102.472 98.1718 104.372 96.2718 104.372 92.7518V83.7718H102.772ZM99.3519 92.4118C97.2319 92.4118 95.8319 90.8518 95.8319 88.6918C95.8319 86.5318 97.2319 84.9918 99.3519 84.9918C101.452 84.9918 102.852 86.5318 102.852 88.6918C102.852 90.8518 101.452 92.4118 99.3519 92.4118ZM116.737 88.4518C116.737 85.4918 114.737 83.4918 111.937 83.4918C108.957 83.4918 106.897 85.7518 106.897 88.8518C106.897 91.9918 108.997 94.1718 112.077 94.1718C113.957 94.1718 115.477 93.3718 116.457 91.9918L115.377 91.0718C114.517 92.1718 113.417 92.6918 112.117 92.6918C110.077 92.6918 108.717 91.4318 108.537 89.3118H116.677C116.717 89.0318 116.737 88.7318 116.737 88.4518ZM111.937 84.9918C113.697 84.9918 114.937 86.0718 115.097 88.0118H108.577C108.857 86.1918 110.077 84.9918 111.937 84.9918ZM122.794 94.0518C123.294 94.0518 123.954 93.9918 124.594 93.7918V92.4518C124.014 92.5718 123.474 92.6318 123.034 92.6318C121.874 92.6318 121.354 92.2318 121.354 91.2118V85.1518H124.554V83.7718H121.354V80.7718H119.754V83.7718H117.714V85.1518H119.754V91.3118C119.754 93.1318 120.834 94.0518 122.794 94.0518ZM138.887 79.2518V85.6918C138.287 84.3518 136.827 83.4918 135.087 83.4918C132.287 83.4918 130.287 85.6718 130.287 88.8318C130.287 91.9918 132.287 94.1718 135.087 94.1718C136.827 94.1718 138.287 93.3318 138.887 91.9718V93.8918H140.487V79.2518H138.887ZM135.467 92.6918C133.347 92.6918 131.947 91.0718 131.947 88.8318C131.947 86.5918 133.347 84.9918 135.467 84.9918C137.567 84.9918 138.967 86.5918 138.967 88.8318C138.967 91.0718 137.567 92.6918 135.467 92.6918ZM144.552 81.6118C145.192 81.6118 145.652 81.1318 145.652 80.4918C145.652 79.8518 145.192 79.3718 144.552 79.3718C143.892 79.3718 143.432 79.8518 143.432 80.4918C143.432 81.1318 143.892 81.6118 144.552 81.6118ZM143.752 93.8918H145.352V83.7718H143.752V93.8918ZM152.506 83.4918C150.766 83.4918 149.286 84.1718 148.346 85.4318L149.366 86.3918C150.126 85.4518 151.226 84.9518 152.446 84.9518C153.986 84.9518 154.866 85.7718 154.866 87.2318V88.0118H151.826C149.146 88.0118 147.746 89.2118 147.746 91.0318C147.746 92.9118 149.146 94.0918 151.286 94.0918C153.066 94.0918 154.426 93.2918 154.906 92.0918V93.8918H156.426V87.2318C156.426 84.9118 154.986 83.4918 152.506 83.4918ZM151.546 92.7518C150.166 92.7518 149.386 92.0918 149.386 90.9918C149.386 89.9318 150.186 89.2918 151.886 89.2918H154.866V89.7918C154.866 91.4918 153.446 92.7518 151.546 92.7518ZM171.272 83.4918C169.532 83.4918 168.212 84.3318 167.692 85.6318C167.212 84.2518 166.112 83.4918 164.532 83.4918C162.972 83.4918 161.752 84.2318 161.192 85.5118V83.7718H159.592V93.8918H161.192V87.8718C161.192 86.0918 162.432 84.9918 164.172 84.9918C165.692 84.9918 166.352 85.8518 166.352 87.7718V93.8918H167.952V87.8718C167.952 86.0918 169.212 84.9918 170.932 84.9918C172.472 84.9918 173.132 85.8518 173.132 87.7718V93.8918H174.732V87.3918C174.732 84.9118 173.512 83.4918 171.272 83.4918ZM178.543 94.0518C179.243 94.0518 179.683 93.5518 179.683 92.8718C179.683 92.2118 179.243 91.7318 178.543 91.7318C177.823 91.7318 177.383 92.2118 177.383 92.8718C177.383 93.5518 177.823 94.0518 178.543 94.0518Z" fill="#020828"/>
<path d="M29.7209 52.9918C29.4542 53.2585 29.1342 53.3918 28.7609 53.3918C28.3876 53.3918 28.0609 53.2585 27.7809 52.9918C27.5142 52.7118 27.3809 52.3852 27.3809 52.0118C27.3809 51.6385 27.5142 51.3185 27.7809 51.0518C28.0476 50.7718 28.3742 50.6318 28.7609 50.6318C29.1476 50.6318 29.4742 50.7718 29.7409 51.0518C30.0076 51.3185 30.1409 51.6385 30.1409 52.0118C30.1409 52.3852 30.0009 52.7118 29.7209 52.9918ZM27.6809 64.8918V54.8918H29.8409V64.8918H27.6809Z" fill="#020828"/>
</svg>
