<svg width="319" height="140" viewBox="0 0 319 140" fill="none" xmlns="http://www.w3.org/2000/svg">
<rect x="1" y="15" width="318" height="125" rx="10" fill="white"/>
<path d="M0.481445 25.4982V3.30014C0.481445 2.35082 1.72494 1.99501 2.2271 2.80065C7.26836 10.8886 14.1373 17.6807 22.2814 22.6306L26.9996 25.4982H0.481445Z" fill="white"/>
<path d="M59.4058 45.3843V36.2643L53.1658 45.3843H52.2058V34.1843H53.3258V43.3043L59.5658 34.1843H60.5258V45.3843H59.4058ZM67.7208 37.3843V38.4083H63.6568V45.3843H62.6008V37.3843H67.7208ZM74.7627 37.3843V45.3843H73.7067V38.4083H70.0907V41.9763C70.0907 43.3096 69.8347 44.2269 69.3227 44.7283C68.8213 45.2296 68.128 45.4483 67.2427 45.3843V44.3923C67.8507 44.4563 68.2987 44.3123 68.5867 43.9603C68.8853 43.6083 69.0347 42.9469 69.0347 41.9763V37.3843H74.7627ZM83.5595 37.3843H84.6155V45.3843H83.5595V43.8163C82.8235 44.9896 81.7462 45.5763 80.3275 45.5763C79.1862 45.5763 78.2102 45.1709 77.3995 44.3603C76.5995 43.5496 76.1995 42.5576 76.1995 41.3843C76.1995 40.2109 76.5995 39.2189 77.3995 38.4083C78.2102 37.5976 79.1862 37.1923 80.3275 37.1923C81.7462 37.1923 82.8235 37.7789 83.5595 38.9523V37.3843ZM78.1675 43.6403C78.7755 44.2483 79.5222 44.5523 80.4075 44.5523C81.2929 44.5523 82.0395 44.2483 82.6475 43.6403C83.2555 43.0216 83.5595 42.2696 83.5595 41.3843C83.5595 40.4989 83.2555 39.7523 82.6475 39.1443C82.0395 38.5256 81.2929 38.2163 80.4075 38.2163C79.5222 38.2163 78.7755 38.5256 78.1675 39.1443C77.5595 39.7523 77.2555 40.4989 77.2555 41.3843C77.2555 42.2696 77.5595 43.0216 78.1675 43.6403ZM96.0354 37.3843H96.9314V45.3843H95.8754V39.2243L91.1074 45.3843H90.2114V37.3843H91.2674V43.5443L96.0354 37.3843ZM106.685 37.3843V45.3843H105.629V39.0003L102.829 43.5443H102.701L99.9005 39.0003V45.3843H98.8445V37.3843H100.061L102.765 41.7683L105.469 37.3843H106.685ZM112.299 37.1923C113.483 37.1923 114.437 37.6136 115.163 38.4563C115.899 39.2883 116.267 40.2749 116.267 41.4163C116.267 41.5336 116.256 41.6989 116.235 41.9123H109.211C109.317 42.7229 109.659 43.3683 110.235 43.8483C110.821 44.3176 111.541 44.5523 112.395 44.5523C113.003 44.5523 113.525 44.4296 113.963 44.1843C114.411 43.9283 114.747 43.5976 114.971 43.1923L115.899 43.7363C115.547 44.3016 115.067 44.7496 114.459 45.0803C113.851 45.4109 113.157 45.5763 112.379 45.5763C111.12 45.5763 110.096 45.1816 109.307 44.3923C108.517 43.6029 108.123 42.6003 108.123 41.3843C108.123 40.1896 108.512 39.1923 109.291 38.3923C110.069 37.5923 111.072 37.1923 112.299 37.1923ZM112.299 38.2163C111.467 38.2163 110.768 38.4669 110.203 38.9683C109.648 39.4589 109.317 40.0989 109.211 40.8883H115.179C115.072 40.0456 114.747 39.3896 114.203 38.9203C113.659 38.4509 113.024 38.2163 112.299 38.2163ZM121.322 37.1923C122.506 37.1923 123.461 37.6136 124.186 38.4563C124.922 39.2883 125.29 40.2749 125.29 41.4163C125.29 41.5336 125.28 41.6989 125.258 41.9123H118.234C118.341 42.7229 118.682 43.3683 119.258 43.8483C119.845 44.3176 120.565 44.5523 121.418 44.5523C122.026 44.5523 122.549 44.4296 122.986 44.1843C123.434 43.9283 123.77 43.5976 123.994 43.1923L124.922 43.7363C124.57 44.3016 124.09 44.7496 123.482 45.0803C122.874 45.4109 122.181 45.5763 121.402 45.5763C120.144 45.5763 119.12 45.1816 118.33 44.3923C117.541 43.6029 117.146 42.6003 117.146 41.3843C117.146 40.1896 117.536 39.1923 118.314 38.3923C119.093 37.5923 120.096 37.1923 121.322 37.1923ZM121.322 38.2163C120.49 38.2163 119.792 38.4669 119.226 38.9683C118.672 39.4589 118.341 40.0989 118.234 40.8883H124.202C124.096 40.0456 123.77 39.3896 123.226 38.9203C122.682 38.4509 122.048 38.2163 121.322 38.2163ZM132.098 37.3843V38.4083H129.266V45.3843H128.21V38.4083H125.378V37.3843H132.098ZM141.833 41.2723C142.707 41.5923 143.145 42.2163 143.145 43.1443C143.145 43.7949 142.926 44.3336 142.489 44.7603C142.062 45.1763 141.443 45.3843 140.633 45.3843H136.745V37.3843H140.313C141.091 37.3843 141.694 37.5869 142.121 37.9923C142.547 38.3869 142.761 38.8989 142.761 39.5283C142.761 40.3283 142.451 40.9096 141.833 41.2723ZM140.313 38.4083H137.801V40.8403H140.313C141.241 40.8403 141.705 40.4243 141.705 39.5923C141.705 39.2189 141.582 38.9309 141.337 38.7283C141.102 38.5149 140.761 38.4083 140.313 38.4083ZM140.633 44.3603C141.102 44.3603 141.459 44.2483 141.705 44.0243C141.961 43.8003 142.089 43.4856 142.089 43.0803C142.089 42.7069 141.961 42.4136 141.705 42.2003C141.459 41.9763 141.102 41.8643 140.633 41.8643H137.801V44.3603H140.633ZM150.089 37.3843H151.145V45.3843H150.089V41.8963H145.481V45.3843H144.425V37.3843H145.481V40.8723H150.089V37.3843ZM158.818 37.3843H159.938L156.514 46.1203C156.204 46.9096 155.762 47.5283 155.186 47.9763C154.62 48.4349 153.986 48.6376 153.282 48.5843V47.5923C154.242 47.6989 154.972 47.1443 155.474 45.9283L155.682 45.4323L152.098 37.3843H153.218L156.226 44.0883L158.818 37.3843ZM166.654 37.3843V38.4083H163.822V45.3843H162.766V38.4083H159.934V37.3843H166.654ZM171.909 37.1923C173.05 37.1923 174.021 37.5976 174.821 38.4083C175.631 39.2189 176.037 40.2109 176.037 41.3843C176.037 42.5576 175.631 43.5496 174.821 44.3603C174.021 45.1709 173.05 45.5763 171.909 45.5763C170.49 45.5763 169.413 44.9896 168.677 43.8163V48.5843H167.621V37.3843H168.677V38.9523C169.413 37.7789 170.49 37.1923 171.909 37.1923ZM169.589 43.6403C170.197 44.2483 170.943 44.5523 171.829 44.5523C172.714 44.5523 173.461 44.2483 174.069 43.6403C174.677 43.0216 174.981 42.2696 174.981 41.3843C174.981 40.4989 174.677 39.7523 174.069 39.1443C173.461 38.5256 172.714 38.2163 171.829 38.2163C170.943 38.2163 170.197 38.5256 169.589 39.1443C168.981 39.7523 168.677 40.4989 168.677 41.3843C168.677 42.2696 168.981 43.0216 169.589 43.6403ZM181.169 37.1923C182.353 37.1923 183.307 37.6136 184.033 38.4563C184.769 39.2883 185.137 40.2749 185.137 41.4163C185.137 41.5336 185.126 41.6989 185.105 41.9123H178.081C178.187 42.7229 178.529 43.3683 179.105 43.8483C179.691 44.3176 180.411 44.5523 181.265 44.5523C181.873 44.5523 182.395 44.4296 182.833 44.1843C183.281 43.9283 183.617 43.5976 183.841 43.1923L184.769 43.7363C184.417 44.3016 183.937 44.7496 183.329 45.0803C182.721 45.4109 182.027 45.5763 181.249 45.5763C179.99 45.5763 178.966 45.1816 178.177 44.3923C177.387 43.6029 176.993 42.6003 176.993 41.3843C176.993 40.1896 177.382 39.1923 178.161 38.3923C178.939 37.5923 179.942 37.1923 181.169 37.1923ZM181.169 38.2163C180.337 38.2163 179.638 38.4669 179.073 38.9683C178.518 39.4589 178.187 40.0989 178.081 40.8883H184.049C183.942 40.0456 183.617 39.3896 183.073 38.9203C182.529 38.4509 181.894 38.2163 181.169 38.2163ZM192.16 37.3843H193.216V45.3843H192.16V41.8963H187.552V45.3843H186.496V37.3843H187.552V40.8723H192.16V37.3843ZM200.794 37.3843H201.85V45.3843H200.794V41.8963H196.186V45.3843H195.13V37.3843H196.186V40.8723H200.794V37.3843ZM209.587 37.3843H210.483V45.3843H209.427V39.2243L204.659 45.3843H203.763V37.3843H204.819V43.5443L209.587 37.3843ZM213.676 36.1043V35.1763H217.836V36.1043H213.676ZM218.22 37.3843H219.116V45.3843H218.06V39.2243L213.292 45.3843H212.396V37.3843H213.452V43.5443L218.22 37.3843ZM231.429 44.3603H232.549V47.5283H231.493V45.3843H224.965V47.5283H223.909V44.3603H224.885C225.429 43.6456 225.701 42.6376 225.701 41.3363V37.3843H231.429V44.3603ZM226.165 44.3603H230.373V38.4083H226.757V41.3363C226.757 42.5629 226.56 43.5709 226.165 44.3603ZM239.65 37.3843H240.546V45.3843H239.49V39.2243L234.722 45.3843H233.826V37.3843H234.882V43.5443L239.65 37.3843ZM249.34 37.3843H250.396V45.3843H249.34V43.8163C248.604 44.9896 247.526 45.5763 246.108 45.5763C244.966 45.5763 243.99 45.1709 243.18 44.3603C242.38 43.5496 241.98 42.5576 241.98 41.3843C241.98 40.2109 242.38 39.2189 243.18 38.4083C243.99 37.5976 244.966 37.1923 246.108 37.1923C247.526 37.1923 248.604 37.7789 249.34 38.9523V37.3843ZM243.948 43.6403C244.556 44.2483 245.302 44.5523 246.188 44.5523C247.073 44.5523 247.82 44.2483 248.428 43.6403C249.036 43.0216 249.34 42.2696 249.34 41.3843C249.34 40.4989 249.036 39.7523 248.428 39.1443C247.82 38.5256 247.073 38.2163 246.188 38.2163C245.302 38.2163 244.556 38.5256 243.948 39.1443C243.34 39.7523 243.036 40.4989 243.036 41.3843C243.036 42.2696 243.34 43.0216 243.948 43.6403ZM260.151 37.3843V45.3843H259.095V39.0003L256.295 43.5443H256.167L253.367 39.0003V45.3843H252.311V37.3843H253.527L256.231 41.7683L258.935 37.3843H260.151ZM265.766 37.1923C266.95 37.1923 267.904 37.6136 268.63 38.4563C269.366 39.2883 269.734 40.2749 269.734 41.4163C269.734 41.5336 269.723 41.6989 269.702 41.9123H262.678C262.784 42.7229 263.126 43.3683 263.702 43.8483C264.288 44.3176 265.008 44.5523 265.862 44.5523C266.47 44.5523 266.992 44.4296 267.43 44.1843C267.878 43.9283 268.214 43.5976 268.438 43.1923L269.366 43.7363C269.014 44.3016 268.534 44.7496 267.926 45.0803C267.318 45.4109 266.624 45.5763 265.846 45.5763C264.587 45.5763 263.563 45.1816 262.774 44.3923C261.984 43.6029 261.59 42.6003 261.59 41.3843C261.59 40.1896 261.979 39.1923 262.758 38.3923C263.536 37.5923 264.539 37.1923 265.766 37.1923ZM265.766 38.2163C264.934 38.2163 264.235 38.4669 263.67 38.9683C263.115 39.4589 262.784 40.0989 262.678 40.8883H268.646C268.539 40.0456 268.214 39.3896 267.67 38.9203C267.126 38.4509 266.491 38.2163 265.766 38.2163ZM276.541 37.3843V38.4083H273.709V45.3843H272.653V38.4083H269.821V37.3843H276.541ZM281.796 37.1923C282.937 37.1923 283.908 37.5976 284.708 38.4083C285.518 39.2189 285.924 40.2109 285.924 41.3843C285.924 42.5576 285.518 43.5496 284.708 44.3603C283.908 45.1709 282.937 45.5763 281.796 45.5763C280.377 45.5763 279.3 44.9896 278.564 43.8163V48.5843H277.508V37.3843H278.564V38.9523C279.3 37.7789 280.377 37.1923 281.796 37.1923ZM279.476 43.6403C280.084 44.2483 280.83 44.5523 281.716 44.5523C282.601 44.5523 283.348 44.2483 283.956 43.6403C284.564 43.0216 284.868 42.2696 284.868 41.3843C284.868 40.4989 284.564 39.7523 283.956 39.1443C283.348 38.5256 282.601 38.2163 281.716 38.2163C280.83 38.2163 280.084 38.5256 279.476 39.1443C278.868 39.7523 278.564 40.4989 278.564 41.3843C278.564 42.2696 278.868 43.0216 279.476 43.6403ZM51.5658 64.3843V63.3763L55.5978 59.3123C56.7498 58.1603 57.3258 57.1736 57.3258 56.3523C57.3258 55.6376 57.1018 55.0829 56.6538 54.6883C56.2164 54.2829 55.6884 54.0803 55.0698 54.0803C53.9178 54.0803 53.0804 54.6083 52.5578 55.6643L51.6138 55.1043C51.9658 54.4109 52.4458 53.8883 53.0538 53.5363C53.6618 53.1736 54.3338 52.9923 55.0698 52.9923C55.9658 52.9923 56.7498 53.2963 57.4218 53.9043C58.1044 54.5016 58.4458 55.3176 58.4458 56.3523C58.4458 57.0029 58.2644 57.6269 57.9018 58.2243C57.5391 58.8216 57.0271 59.4509 56.3658 60.1123L53.1658 63.2963H58.6858V64.3843H51.5658ZM59.0195 53.1843H65.8995V54.2403L61.6755 64.3843H60.5075L64.7315 54.2403H59.0195V53.1843ZM66.697 63.0243L65.737 66.6243H64.777L65.417 63.0243H66.697ZM79.0208 56.3843H80.0768V64.3843H79.0208V62.8163C78.2848 63.9896 77.2074 64.5763 75.7888 64.5763C74.6474 64.5763 73.6714 64.1709 72.8608 63.3603C72.0608 62.5496 71.6608 61.5576 71.6608 60.3843C71.6608 59.2109 72.0608 58.2189 72.8608 57.4083C73.6714 56.5976 74.6474 56.1923 75.7888 56.1923C77.2074 56.1923 78.2848 56.7789 79.0208 57.9523V56.3843ZM73.6288 62.6403C74.2368 63.2483 74.9834 63.5523 75.8688 63.5523C76.7541 63.5523 77.5008 63.2483 78.1088 62.6403C78.7168 62.0216 79.0208 61.2696 79.0208 60.3843C79.0208 59.4989 78.7168 58.7523 78.1088 58.1443C77.5008 57.5256 76.7541 57.2163 75.8688 57.2163C74.9834 57.2163 74.2368 57.5256 73.6288 58.1443C73.0208 58.7523 72.7168 59.4989 72.7168 60.3843C72.7168 61.2696 73.0208 62.0216 73.6288 62.6403ZM90.7607 60.2723C91.6353 60.5923 92.0727 61.2163 92.0727 62.1443C92.0727 62.7949 91.854 63.3336 91.4167 63.7603C90.99 64.1763 90.3713 64.3843 89.5607 64.3843H85.6727V56.3843H89.2407C90.0193 56.3843 90.622 56.5869 91.0487 56.9923C91.4753 57.3869 91.6887 57.8989 91.6887 58.5283C91.6887 59.3283 91.3793 59.9096 90.7607 60.2723ZM89.2407 57.4083H86.7287V59.8403H89.2407C90.1687 59.8403 90.6327 59.4243 90.6327 58.5923C90.6327 58.2189 90.51 57.9309 90.2647 57.7283C90.03 57.5149 89.6887 57.4083 89.2407 57.4083ZM89.5607 63.3603C90.03 63.3603 90.3873 63.2483 90.6327 63.0243C90.8887 62.8003 91.0167 62.4856 91.0167 62.0803C91.0167 61.7069 90.8887 61.4136 90.6327 61.2003C90.3873 60.9763 90.03 60.8643 89.5607 60.8643H86.7287V63.3603H89.5607ZM99.0167 56.3843H100.073V64.3843H99.0167V60.8963H94.4087V64.3843H93.3527V56.3843H94.4087V59.8723H99.0167V56.3843ZM105.682 56.1923C106.866 56.1923 107.82 56.6136 108.546 57.4563C109.282 58.2883 109.65 59.2749 109.65 60.4163C109.65 60.5336 109.639 60.6989 109.618 60.9123H102.594C102.7 61.7229 103.042 62.3683 103.618 62.8483C104.204 63.3176 104.924 63.5523 105.778 63.5523C106.386 63.5523 106.908 63.4296 107.346 63.1843C107.794 62.9283 108.13 62.5976 108.354 62.1923L109.282 62.7363C108.93 63.3016 108.45 63.7496 107.842 64.0803C107.234 64.4109 106.54 64.5763 105.762 64.5763C104.503 64.5763 103.479 64.1816 102.69 63.3923C101.9 62.6029 101.506 61.6003 101.506 60.3843C101.506 59.1896 101.895 58.1923 102.674 57.3923C103.452 56.5923 104.455 56.1923 105.682 56.1923ZM105.682 57.2163C104.85 57.2163 104.151 57.4669 103.586 57.9683C103.031 58.4589 102.7 59.0989 102.594 59.8883H108.562C108.455 59.0456 108.13 58.3896 107.586 57.9203C107.042 57.4509 106.407 57.2163 105.682 57.2163ZM120.674 56.3843H121.73V64.3843H111.01V56.3843H112.066V63.3603H115.842V56.3843H116.898V63.3603H120.674V56.3843ZM129.307 56.3843H130.363V64.3843H129.307V60.8963H124.699V64.3843H123.643V56.3843H124.699V59.8723H129.307V56.3843ZM138.1 56.3843H138.996V64.3843H137.94V58.2243L133.172 64.3843H132.276V56.3843H133.332V62.5443L138.1 56.3843ZM142.189 55.1043V54.1763H146.349V55.1043H142.189ZM146.733 56.3843H147.629V64.3843H146.573V58.2243L141.805 64.3843H140.909V56.3843H141.965V62.5443L146.733 56.3843ZM159.942 63.3603H161.062V66.5283H160.006V64.3843H153.478V66.5283H152.422V63.3603H153.398C153.942 62.6456 154.214 61.6376 154.214 60.3363V56.3843H159.942V63.3603ZM154.678 63.3603H158.886V57.4083H155.27V60.3363C155.27 61.5629 155.073 62.5709 154.678 63.3603ZM168.164 56.3843H169.06V64.3843H168.004V58.2243L163.236 64.3843H162.34V56.3843H163.396V62.5443L168.164 56.3843ZM177.853 56.3843H178.909V64.3843H177.853V62.8163C177.117 63.9896 176.039 64.5763 174.621 64.5763C173.479 64.5763 172.503 64.1709 171.693 63.3603C170.893 62.5496 170.493 61.5576 170.493 60.3843C170.493 59.2109 170.893 58.2189 171.693 57.4083C172.503 56.5976 173.479 56.1923 174.621 56.1923C176.039 56.1923 177.117 56.7789 177.853 57.9523V56.3843ZM172.461 62.6403C173.069 63.2483 173.815 63.5523 174.701 63.5523C175.586 63.5523 176.333 63.2483 176.941 62.6403C177.549 62.0216 177.853 61.2696 177.853 60.3843C177.853 59.4989 177.549 58.7523 176.941 58.1443C176.333 57.5256 175.586 57.2163 174.701 57.2163C173.815 57.2163 173.069 57.5256 172.461 58.1443C171.853 58.7523 171.549 59.4989 171.549 60.3843C171.549 61.2696 171.853 62.0216 172.461 62.6403ZM188.665 56.3843V64.3843H187.609V58.0003L184.809 62.5443H184.681L181.881 58.0003V64.3843H180.825V56.3843H182.041L184.745 60.7683L187.449 56.3843H188.665ZM194.279 56.1923C195.463 56.1923 196.417 56.6136 197.143 57.4563C197.879 58.2883 198.247 59.2749 198.247 60.4163C198.247 60.5336 198.236 60.6989 198.215 60.9123H191.191C191.297 61.7229 191.639 62.3683 192.215 62.8483C192.801 63.3176 193.521 63.5523 194.375 63.5523C194.983 63.5523 195.505 63.4296 195.943 63.1843C196.391 62.9283 196.727 62.5976 196.951 62.1923L197.879 62.7363C197.527 63.3016 197.047 63.7496 196.439 64.0803C195.831 64.4109 195.137 64.5763 194.359 64.5763C193.1 64.5763 192.076 64.1816 191.287 63.3923C190.497 62.6029 190.103 61.6003 190.103 60.3843C190.103 59.1896 190.492 58.1923 191.271 57.3923C192.049 56.5923 193.052 56.1923 194.279 56.1923ZM194.279 57.2163C193.447 57.2163 192.748 57.4669 192.183 57.9683C191.628 58.4589 191.297 59.0989 191.191 59.8883H197.159C197.052 59.0456 196.727 58.3896 196.183 57.9203C195.639 57.4509 195.004 57.2163 194.279 57.2163ZM205.054 56.3843V57.4083H202.222V64.3843H201.166V57.4083H198.334V56.3843H205.054ZM210.309 56.1923C211.45 56.1923 212.421 56.5976 213.221 57.4083C214.031 58.2189 214.437 59.2109 214.437 60.3843C214.437 61.5576 214.031 62.5496 213.221 63.3603C212.421 64.1709 211.45 64.5763 210.309 64.5763C208.89 64.5763 207.813 63.9896 207.077 62.8163V67.5843H206.021V56.3843H207.077V57.9523C207.813 56.7789 208.89 56.1923 210.309 56.1923ZM207.989 62.6403C208.597 63.2483 209.343 63.5523 210.229 63.5523C211.114 63.5523 211.861 63.2483 212.469 62.6403C213.077 62.0216 213.381 61.2696 213.381 60.3843C213.381 59.4989 213.077 58.7523 212.469 58.1443C211.861 57.5256 211.114 57.2163 210.229 57.2163C209.343 57.2163 208.597 57.5256 207.989 58.1443C207.381 58.7523 207.077 59.4989 207.077 60.3843C207.077 61.2696 207.381 62.0216 207.989 62.6403ZM219.713 59.9523V58.9283H227.713V59.9523H219.713ZM232.995 64.3843V63.3763L237.027 59.3123C238.179 58.1603 238.755 57.1736 238.755 56.3523C238.755 55.6376 238.531 55.0829 238.083 54.6883C237.646 54.2829 237.118 54.0803 236.499 54.0803C235.347 54.0803 234.51 54.6083 233.987 55.6643L233.043 55.1043C233.395 54.4109 233.875 53.8883 234.483 53.5363C235.091 53.1736 235.763 52.9923 236.499 52.9923C237.395 52.9923 238.179 53.2963 238.851 53.9043C239.534 54.5016 239.875 55.3176 239.875 56.3523C239.875 57.0029 239.694 57.6269 239.331 58.2243C238.968 58.8216 238.456 59.4509 237.795 60.1123L234.595 63.2963H240.115V64.3843H232.995ZM248.441 56.6883C248.441 57.5309 248.212 58.2776 247.753 58.9283L244.089 64.3843H242.825L245.577 60.2883C245.289 60.3523 244.991 60.3843 244.681 60.3843C243.583 60.3843 242.681 60.0429 241.977 59.3603C241.273 58.6669 240.921 57.7763 240.921 56.6883C240.921 55.6003 241.273 54.7149 241.977 54.0323C242.681 53.3389 243.583 52.9923 244.681 52.9923C245.78 52.9923 246.681 53.3389 247.385 54.0323C248.089 54.7149 248.441 55.6003 248.441 56.6883ZM242.761 54.8003C242.281 55.2803 242.041 55.9096 242.041 56.6883C242.041 57.4669 242.281 58.0963 242.761 58.5763C243.252 59.0563 243.892 59.2963 244.681 59.2963C245.471 59.2963 246.105 59.0563 246.585 58.5763C247.076 58.0963 247.321 57.4669 247.321 56.6883C247.321 55.9096 247.076 55.2803 246.585 54.8003C246.105 54.3203 245.471 54.0803 244.681 54.0803C243.892 54.0803 243.252 54.3203 242.761 54.8003ZM249.251 63.0243L248.291 66.6243H247.331L247.971 63.0243H249.251ZM259.879 56.3843H260.935V64.3843H259.879V61.3443C259.26 61.6643 258.498 61.8243 257.591 61.8243C256.546 61.8243 255.746 61.5843 255.191 61.1043C254.647 60.6136 254.375 59.8936 254.375 58.9443V56.3843H255.431V58.9443C255.431 59.6163 255.607 60.1016 255.959 60.4003C256.311 60.6883 256.844 60.8323 257.559 60.8323C258.391 60.8323 259.164 60.6776 259.879 60.3683V56.3843ZM268.62 56.3843V57.4083H265.788V64.3843H264.732V57.4083H261.9V56.3843H268.62ZM275.978 63.3763C275.167 64.1763 274.175 64.5763 273.002 64.5763C271.829 64.5763 270.831 64.1763 270.01 63.3763C269.199 62.5656 268.794 61.5683 268.794 60.3843C268.794 59.2003 269.199 58.2083 270.01 57.4083C270.831 56.5976 271.829 56.1923 273.002 56.1923C274.175 56.1923 275.167 56.5976 275.978 57.4083C276.799 58.2083 277.21 59.2003 277.21 60.3843C277.21 61.5683 276.799 62.5656 275.978 63.3763ZM270.762 62.6403C271.37 63.2483 272.117 63.5523 273.002 63.5523C273.887 63.5523 274.634 63.2483 275.242 62.6403C275.85 62.0216 276.154 61.2696 276.154 60.3843C276.154 59.4989 275.85 58.7523 275.242 58.1443C274.634 57.5256 273.887 57.2163 273.002 57.2163C272.117 57.2163 271.37 57.5256 270.762 58.1443C270.154 58.7523 269.85 59.4989 269.85 60.3843C269.85 61.2696 270.154 62.0216 270.762 62.6403ZM58.7498 82.3763C57.9391 83.1763 56.9471 83.5763 55.7738 83.5763C54.6004 83.5763 53.6031 83.1763 52.7818 82.3763C51.9711 81.5656 51.5658 80.5683 51.5658 79.3843C51.5658 78.2003 51.9711 77.2083 52.7818 76.4083C53.6031 75.5976 54.6004 75.1923 55.7738 75.1923C56.9471 75.1923 57.9391 75.5976 58.7498 76.4083C59.5711 77.2083 59.9818 78.2003 59.9818 79.3843C59.9818 80.5683 59.5711 81.5656 58.7498 82.3763ZM53.5338 81.6403C54.1418 82.2483 54.8884 82.5523 55.7738 82.5523C56.6591 82.5523 57.4058 82.2483 58.0138 81.6403C58.6218 81.0216 58.9258 80.2696 58.9258 79.3843C58.9258 78.4989 58.6218 77.7523 58.0138 77.1443C57.4058 76.5256 56.6591 76.2163 55.7738 76.2163C54.8884 76.2163 54.1418 76.5256 53.5338 77.1443C52.9258 77.7523 52.6218 78.4989 52.6218 79.3843C52.6218 80.2696 52.9258 81.0216 53.5338 81.6403ZM64.9809 83.5763C63.8289 83.5763 62.8689 83.1976 62.1009 82.4403C61.3329 81.6723 60.9489 80.6803 60.9489 79.4643C60.9489 78.0989 61.1516 77.0536 61.5569 76.3283C61.9622 75.5923 62.7836 74.9256 64.0209 74.3283C64.2556 74.2109 64.5649 74.0723 64.9489 73.9123C65.3436 73.7523 65.6369 73.6243 65.8289 73.5283C66.0316 73.4323 66.2502 73.3096 66.4849 73.1603C66.7196 73.0003 66.8956 72.8243 67.0129 72.6323C67.1302 72.4403 67.2049 72.2109 67.2369 71.9443L68.0689 72.4243C68.0262 72.6803 67.9409 72.9203 67.8129 73.1443C67.6849 73.3683 67.5516 73.5496 67.4129 73.6883C67.2849 73.8269 67.0769 73.9816 66.7889 74.1523C66.5116 74.3123 66.2929 74.4296 66.1329 74.5043C65.9836 74.5683 65.7169 74.6803 65.3329 74.8403C64.9596 75.0003 64.7089 75.1069 64.5809 75.1603C63.8342 75.4803 63.2849 75.8163 62.9329 76.1683C62.5809 76.5096 62.3302 76.9576 62.1809 77.5123C62.5436 77.0323 63.0022 76.6803 63.5569 76.4563C64.1222 76.2216 64.6716 76.1043 65.2049 76.1043C66.2716 76.1043 67.1516 76.4563 67.8449 77.1603C68.5489 77.8536 68.9009 78.7443 68.9009 79.8323C68.9009 80.9096 68.5276 81.8056 67.7809 82.5203C67.0449 83.2243 66.1116 83.5763 64.9809 83.5763ZM64.9809 82.5203C65.8129 82.5203 66.4956 82.2696 67.0289 81.7683C67.5729 81.2563 67.8449 80.6109 67.8449 79.8323C67.8449 79.0429 67.5889 78.3976 67.0769 77.8963C66.5756 77.3843 65.9036 77.1283 65.0609 77.1283C64.3036 77.1283 63.6156 77.3683 62.9969 77.8483C62.3782 78.3176 62.0689 78.9469 62.0689 79.7363C62.0689 80.5469 62.3462 81.2136 62.9009 81.7363C63.4662 82.2589 64.1596 82.5203 64.9809 82.5203ZM73.883 75.1923C75.067 75.1923 76.0217 75.6136 76.747 76.4563C77.483 77.2883 77.851 78.2749 77.851 79.4163C77.851 79.5336 77.8404 79.6989 77.819 79.9123H70.795C70.9017 80.7229 71.243 81.3683 71.819 81.8483C72.4057 82.3176 73.1257 82.5523 73.979 82.5523C74.587 82.5523 75.1097 82.4296 75.547 82.1843C75.995 81.9283 76.331 81.5976 76.555 81.1923L77.483 81.7363C77.131 82.3016 76.651 82.7496 76.043 83.0803C75.435 83.4109 74.7417 83.5763 73.963 83.5763C72.7044 83.5763 71.6804 83.1816 70.891 82.3923C70.1017 81.6029 69.707 80.6003 69.707 79.3843C69.707 78.1896 70.0964 77.1923 70.875 76.3923C71.6537 75.5923 72.6564 75.1923 73.883 75.1923ZM73.883 76.2163C73.051 76.2163 72.3524 76.4669 71.787 76.9683C71.2324 77.4589 70.9017 78.0989 70.795 78.8883H76.763C76.6564 78.0456 76.331 77.3896 75.787 76.9203C75.243 76.4509 74.6084 76.2163 73.883 76.2163ZM82.9388 83.5763C81.7334 83.5763 80.7308 83.1763 79.9308 82.3763C79.1308 81.5656 78.7308 80.5683 78.7308 79.3843C78.7308 78.2003 79.1308 77.2083 79.9308 76.4083C80.7308 75.5976 81.7334 75.1923 82.9388 75.1923C83.7281 75.1923 84.4374 75.3843 85.0668 75.7683C85.6961 76.1416 86.1548 76.6483 86.4428 77.2883L85.5788 77.7843C85.3654 77.3043 85.0188 76.9256 84.5388 76.6483C84.0694 76.3603 83.5361 76.2163 82.9388 76.2163C82.0534 76.2163 81.3068 76.5256 80.6988 77.1443C80.0908 77.7523 79.7868 78.4989 79.7868 79.3843C79.7868 80.2696 80.0908 81.0216 80.6988 81.6403C81.3068 82.2483 82.0534 82.5523 82.9388 82.5523C83.5361 82.5523 84.0694 82.4136 84.5388 82.1363C85.0081 81.8483 85.3761 81.4643 85.6428 80.9843L86.5228 81.4963C86.1921 82.1363 85.7068 82.6429 85.0668 83.0163C84.4268 83.3896 83.7174 83.5763 82.9388 83.5763ZM94.4389 75.3843V83.3843H93.3829V76.4083H88.7749V83.3843H87.7189V75.3843H94.4389ZM100.048 75.1923C101.232 75.1923 102.187 75.6136 102.912 76.4563C103.648 77.2883 104.016 78.2749 104.016 79.4163C104.016 79.5336 104.005 79.6989 103.984 79.9123H96.96C97.0667 80.7229 97.408 81.3683 97.984 81.8483C98.5707 82.3176 99.2907 82.5523 100.144 82.5523C100.752 82.5523 101.275 82.4296 101.712 82.1843C102.16 81.9283 102.496 81.5976 102.72 81.1923L103.648 81.7363C103.296 82.3016 102.816 82.7496 102.208 83.0803C101.6 83.4109 100.907 83.5763 100.128 83.5763C98.8694 83.5763 97.8454 83.1816 97.056 82.3923C96.2667 81.6029 95.872 80.6003 95.872 79.3843C95.872 78.1896 96.2614 77.1923 97.04 76.3923C97.8187 75.5923 98.8214 75.1923 100.048 75.1923ZM100.048 76.2163C99.216 76.2163 98.5174 76.4669 97.952 76.9683C97.3974 77.4589 97.0667 78.0989 96.96 78.8883H102.928C102.821 78.0456 102.496 77.3896 101.952 76.9203C101.408 76.4509 100.773 76.2163 100.048 76.2163ZM110.56 75.3843H111.616V83.3843H110.56V80.3443C109.941 80.6643 109.178 80.8243 108.272 80.8243C107.226 80.8243 106.426 80.5843 105.872 80.1043C105.328 79.6136 105.056 78.8936 105.056 77.9443V75.3843H106.112V77.9443C106.112 78.6163 106.288 79.1016 106.64 79.4003C106.992 79.6883 107.525 79.8323 108.24 79.8323C109.072 79.8323 109.845 79.6776 110.56 79.3683V75.3843ZM119.364 75.3843H120.26V83.3843H119.204V77.2243L114.436 83.3843H113.54V75.3843H114.596V81.5443L119.364 75.3843ZM127.261 79.2723C128.136 79.5923 128.573 80.2163 128.573 81.1443C128.573 81.7949 128.355 82.3336 127.917 82.7603C127.491 83.1763 126.872 83.3843 126.061 83.3843H122.173V75.3843H125.741C126.52 75.3843 127.123 75.5869 127.549 75.9923C127.976 76.3869 128.189 76.8989 128.189 77.5283C128.189 78.3283 127.88 78.9096 127.261 79.2723ZM125.741 76.4083H123.229V78.8403H125.741C126.669 78.8403 127.133 78.4243 127.133 77.5923C127.133 77.2189 127.011 76.9309 126.765 76.7283C126.531 76.5149 126.189 76.4083 125.741 76.4083ZM126.061 82.3603C126.531 82.3603 126.888 82.2483 127.133 82.0243C127.389 81.8003 127.517 81.4856 127.517 81.0803C127.517 80.7069 127.389 80.4136 127.133 80.2003C126.888 79.9763 126.531 79.8643 126.061 79.8643H123.229V82.3603H126.061ZM136.733 75.3843H137.789V83.3843H136.733V81.8163C135.997 82.9896 134.92 83.5763 133.501 83.5763C132.36 83.5763 131.384 83.1709 130.573 82.3603C129.773 81.5496 129.373 80.5576 129.373 79.3843C129.373 78.2109 129.773 77.2189 130.573 76.4083C131.384 75.5976 132.36 75.1923 133.501 75.1923C134.92 75.1923 135.997 75.7789 136.733 76.9523V75.3843ZM131.341 81.6403C131.949 82.2483 132.696 82.5523 133.581 82.5523C134.467 82.5523 135.213 82.2483 135.821 81.6403C136.429 81.0216 136.733 80.2696 136.733 79.3843C136.733 78.4989 136.429 77.7523 135.821 77.1443C135.213 76.5256 134.467 76.2163 133.581 76.2163C132.696 76.2163 131.949 76.5256 131.341 77.1443C130.733 77.7523 130.429 78.4989 130.429 79.3843C130.429 80.2696 130.733 81.0216 131.341 81.6403ZM143.401 75.1923C144.585 75.1923 145.54 75.6136 146.265 76.4563C147.001 77.2883 147.369 78.2749 147.369 79.4163C147.369 79.5336 147.358 79.6989 147.337 79.9123H140.313C140.42 80.7229 140.761 81.3683 141.337 81.8483C141.924 82.3176 142.644 82.5523 143.497 82.5523C144.105 82.5523 144.628 82.4296 145.065 82.1843C145.513 81.9283 145.849 81.5976 146.073 81.1923L147.001 81.7363C146.649 82.3016 146.169 82.7496 145.561 83.0803C144.953 83.4109 144.26 83.5763 143.481 83.5763C142.222 83.5763 141.198 83.1816 140.409 82.3923C139.62 81.6029 139.225 80.6003 139.225 79.3843C139.225 78.1896 139.614 77.1923 140.393 76.3923C141.172 75.5923 142.174 75.1923 143.401 75.1923ZM143.401 76.2163C142.569 76.2163 141.87 76.4669 141.305 76.9683C140.75 77.4589 140.42 78.0989 140.313 78.8883H146.281C146.174 78.0456 145.849 77.3896 145.305 76.9203C144.761 76.4509 144.126 76.2163 143.401 76.2163ZM154.176 75.3843V76.4083H151.344V83.3843H150.288V76.4083H147.456V75.3843H154.176ZM162.375 83.5763C161.223 83.5763 160.263 83.1976 159.495 82.4403C158.727 81.6723 158.343 80.6803 158.343 79.4643C158.343 78.0989 158.546 77.0536 158.951 76.3283C159.357 75.5923 160.178 74.9256 161.415 74.3283C161.65 74.2109 161.959 74.0723 162.343 73.9123C162.738 73.7523 163.031 73.6243 163.223 73.5283C163.426 73.4323 163.645 73.3096 163.879 73.1603C164.114 73.0003 164.29 72.8243 164.407 72.6323C164.525 72.4403 164.599 72.2109 164.631 71.9443L165.463 72.4243C165.421 72.6803 165.335 72.9203 165.207 73.1443C165.079 73.3683 164.946 73.5496 164.807 73.6883C164.679 73.8269 164.471 73.9816 164.183 74.1523C163.906 74.3123 163.687 74.4296 163.527 74.5043C163.378 74.5683 163.111 74.6803 162.727 74.8403C162.354 75.0003 162.103 75.1069 161.975 75.1603C161.229 75.4803 160.679 75.8163 160.327 76.1683C159.975 76.5096 159.725 76.9576 159.575 77.5123C159.938 77.0323 160.397 76.6803 160.951 76.4563C161.517 76.2216 162.066 76.1043 162.599 76.1043C163.666 76.1043 164.546 76.4563 165.239 77.1603C165.943 77.8536 166.295 78.7443 166.295 79.8323C166.295 80.9096 165.922 81.8056 165.175 82.5203C164.439 83.2243 163.506 83.5763 162.375 83.5763ZM162.375 82.5203C163.207 82.5203 163.89 82.2696 164.423 81.7683C164.967 81.2563 165.239 80.6109 165.239 79.8323C165.239 79.0429 164.983 78.3976 164.471 77.8963C163.97 77.3843 163.298 77.1283 162.455 77.1283C161.698 77.1283 161.01 77.3683 160.391 77.8483C159.773 78.3176 159.463 78.9469 159.463 79.7363C159.463 80.5469 159.741 81.2136 160.295 81.7363C160.861 82.2589 161.554 82.5203 162.375 82.5203ZM174.285 82.3763C173.475 83.1763 172.483 83.5763 171.309 83.5763C170.136 83.5763 169.139 83.1763 168.317 82.3763C167.507 81.5656 167.101 80.5683 167.101 79.3843C167.101 78.2003 167.507 77.2083 168.317 76.4083C169.139 75.5976 170.136 75.1923 171.309 75.1923C172.483 75.1923 173.475 75.5976 174.285 76.4083C175.107 77.2083 175.517 78.2003 175.517 79.3843C175.517 80.5683 175.107 81.5656 174.285 82.3763ZM169.069 81.6403C169.677 82.2483 170.424 82.5523 171.309 82.5523C172.195 82.5523 172.941 82.2483 173.549 81.6403C174.157 81.0216 174.461 80.2696 174.461 79.3843C174.461 78.4989 174.157 77.7523 173.549 77.1443C172.941 76.5256 172.195 76.2163 171.309 76.2163C170.424 76.2163 169.677 76.5256 169.069 77.1443C168.461 77.7523 168.157 78.4989 168.157 79.3843C168.157 80.2696 168.461 81.0216 169.069 81.6403ZM183.212 75.3843V83.3843H182.156V76.4083H178.54V79.9763C178.54 81.3096 178.284 82.2269 177.772 82.7283C177.271 83.2296 176.577 83.4483 175.692 83.3843V82.3923C176.3 82.4563 176.748 82.3123 177.036 81.9603C177.335 81.6083 177.484 80.9469 177.484 79.9763V75.3843H183.212ZM188.377 78.4243C189.124 78.4243 189.753 78.6589 190.265 79.1283C190.788 79.5869 191.049 80.1789 191.049 80.9043C191.049 81.6296 190.788 82.2269 190.265 82.6963C189.753 83.1549 189.124 83.3843 188.377 83.3843H185.129V75.3843H186.185V78.4243H188.377ZM188.377 82.3603C188.825 82.3603 189.204 82.2269 189.513 81.9603C189.833 81.6936 189.993 81.3416 189.993 80.9043C189.993 80.4669 189.833 80.1149 189.513 79.8483C189.204 79.5816 188.825 79.4483 188.377 79.4483H186.185V82.3603H188.377ZM201.989 75.3843H203.045V83.3843H192.325V75.3843H193.381V82.3603H197.157V75.3843H198.213V82.3603H201.989V75.3843ZM208.654 75.1923C209.838 75.1923 210.792 75.6136 211.518 76.4563C212.254 77.2883 212.622 78.2749 212.622 79.4163C212.622 79.5336 212.611 79.6989 212.59 79.9123H205.566C205.672 80.7229 206.014 81.3683 206.59 81.8483C207.176 82.3176 207.896 82.5523 208.75 82.5523C209.358 82.5523 209.88 82.4296 210.318 82.1843C210.766 81.9283 211.102 81.5976 211.326 81.1923L212.254 81.7363C211.902 82.3016 211.422 82.7496 210.814 83.0803C210.206 83.4109 209.512 83.5763 208.734 83.5763C207.475 83.5763 206.451 83.1816 205.662 82.3923C204.872 81.6029 204.478 80.6003 204.478 79.3843C204.478 78.1896 204.867 77.1923 205.646 76.3923C206.424 75.5923 207.427 75.1923 208.654 75.1923ZM208.654 76.2163C207.822 76.2163 207.123 76.4669 206.558 76.9683C206.003 77.4589 205.672 78.0989 205.566 78.8883H211.534C211.427 78.0456 211.102 77.3896 210.558 76.9203C210.014 76.4509 209.379 76.2163 208.654 76.2163ZM224.125 83.3843H222.717L218.717 79.5283V83.3843H217.661V75.3843H218.717V78.9203L222.525 75.3843H223.965L219.837 79.2243L224.125 83.3843ZM231.155 82.3763C230.344 83.1763 229.352 83.5763 228.179 83.5763C227.005 83.5763 226.008 83.1763 225.187 82.3763C224.376 81.5656 223.971 80.5683 223.971 79.3843C223.971 78.2003 224.376 77.2083 225.187 76.4083C226.008 75.5976 227.005 75.1923 228.179 75.1923C229.352 75.1923 230.344 75.5976 231.155 76.4083C231.976 77.2083 232.387 78.2003 232.387 79.3843C232.387 80.5683 231.976 81.5656 231.155 82.3763ZM225.939 81.6403C226.547 82.2483 227.293 82.5523 228.179 82.5523C229.064 82.5523 229.811 82.2483 230.419 81.6403C231.027 81.0216 231.331 80.2696 231.331 79.3843C231.331 78.4989 231.027 77.7523 230.419 77.1443C229.811 76.5256 229.064 76.2163 228.179 76.2163C227.293 76.2163 226.547 76.5256 225.939 77.1443C225.331 77.7523 225.027 78.4989 225.027 79.3843C225.027 80.2696 225.331 81.0216 225.939 81.6403ZM239.498 75.3843H240.554V83.3843H239.498V79.8963H234.89V83.3843H233.834V75.3843H234.89V78.8723H239.498V75.3843ZM248.227 75.3843V76.4083H245.395V83.3843H244.339V76.4083H241.507V75.3843H248.227ZM253.482 75.1923C254.623 75.1923 255.594 75.5976 256.394 76.4083C257.205 77.2189 257.61 78.2109 257.61 79.3843C257.61 80.5576 257.205 81.5496 256.394 82.3603C255.594 83.1709 254.623 83.5763 253.482 83.5763C252.063 83.5763 250.986 82.9896 250.25 81.8163V86.5843H249.194V75.3843H250.25V76.9523C250.986 75.7789 252.063 75.1923 253.482 75.1923ZM251.162 81.6403C251.77 82.2483 252.517 82.5523 253.402 82.5523C254.287 82.5523 255.034 82.2483 255.642 81.6403C256.25 81.0216 256.554 80.2696 256.554 79.3843C256.554 78.4989 256.25 77.7523 255.642 77.1443C255.034 76.5256 254.287 76.2163 253.402 76.2163C252.517 76.2163 251.77 76.5256 251.162 77.1443C250.554 77.7523 250.25 78.4989 250.25 79.3843C250.25 80.2696 250.554 81.0216 251.162 81.6403ZM265.75 82.3763C264.939 83.1763 263.947 83.5763 262.774 83.5763C261.6 83.5763 260.603 83.1763 259.782 82.3763C258.971 81.5656 258.566 80.5683 258.566 79.3843C258.566 78.2003 258.971 77.2083 259.782 76.4083C260.603 75.5976 261.6 75.1923 262.774 75.1923C263.947 75.1923 264.939 75.5976 265.75 76.4083C266.571 77.2083 266.982 78.2003 266.982 79.3843C266.982 80.5683 266.571 81.5656 265.75 82.3763ZM260.534 81.6403C261.142 82.2483 261.888 82.5523 262.774 82.5523C263.659 82.5523 264.406 82.2483 265.014 81.6403C265.622 81.0216 265.926 80.2696 265.926 79.3843C265.926 78.4989 265.622 77.7523 265.014 77.1443C264.406 76.5256 263.659 76.2163 262.774 76.2163C261.888 76.2163 261.142 76.5256 260.534 77.1443C259.926 77.7523 259.622 78.4989 259.622 79.3843C259.622 80.2696 259.926 81.0216 260.534 81.6403ZM274.676 75.3843V83.3843H273.62V76.4083H270.004V79.9763C270.004 81.3096 269.748 82.2269 269.236 82.7283C268.735 83.2296 268.042 83.4483 267.156 83.3843V82.3923C267.764 82.4563 268.212 82.3123 268.5 81.9603C268.799 81.6083 268.948 80.9469 268.948 79.9763V75.3843H274.676ZM282.353 75.3843V83.3843H281.297V80.3123H279.921L277.457 83.3843H276.113L278.641 80.2803C278.001 80.1843 277.473 79.9176 277.057 79.4803C276.641 79.0429 276.433 78.5043 276.433 77.8643C276.433 77.1389 276.689 76.5469 277.201 76.0883C277.724 75.6189 278.359 75.3843 279.105 75.3843H282.353ZM279.105 79.3203H281.297V76.4083H279.105C278.657 76.4083 278.273 76.5416 277.953 76.8083C277.644 77.0749 277.489 77.4269 277.489 77.8643C277.489 78.3016 277.644 78.6536 277.953 78.9203C278.273 79.1869 278.657 79.3203 279.105 79.3203ZM293.777 75.3843H294.673V83.3843H293.617V77.2243L288.849 83.3843H287.953V75.3843H289.009V81.5443L293.777 75.3843ZM58.5098 102.384H57.1018L53.1018 98.5283V102.384H52.0458V94.3843H53.1018V97.9203L56.9098 94.3843H58.3498L54.2218 98.2243L58.5098 102.384ZM65.5392 101.376C64.7285 102.176 63.7365 102.576 62.5632 102.576C61.3898 102.576 60.3925 102.176 59.5712 101.376C58.7605 100.566 58.3552 99.5683 58.3552 98.3843C58.3552 97.2003 58.7605 96.2083 59.5712 95.4083C60.3925 94.5976 61.3898 94.1923 62.5632 94.1923C63.7365 94.1923 64.7285 94.5976 65.5392 95.4083C66.3605 96.2083 66.7712 97.2003 66.7712 98.3843C66.7712 99.5683 66.3605 100.566 65.5392 101.376ZM60.3232 100.64C60.9312 101.248 61.6778 101.552 62.5632 101.552C63.4485 101.552 64.1952 101.248 64.8032 100.64C65.4112 100.022 65.7152 99.2696 65.7152 98.3843C65.7152 97.4989 65.4112 96.7523 64.8032 96.1443C64.1952 95.5256 63.4485 95.2163 62.5632 95.2163C61.6778 95.2163 60.9312 95.5256 60.3232 96.1443C59.7152 96.7523 59.4112 97.4989 59.4112 98.3843C59.4112 99.2696 59.7152 100.022 60.3232 100.64ZM76.0583 94.3843V102.384H75.0023V96.0003L72.2023 100.544H72.0743L69.2743 96.0003V102.384H68.2183V94.3843H69.4343L72.1383 98.7683L74.8423 94.3843H76.0583ZM85.7844 95.5363C86.5524 96.3149 86.9364 97.2643 86.9364 98.3843C86.9364 99.5043 86.5524 100.454 85.7844 101.232C85.0164 102.011 84.0031 102.454 82.7444 102.56V105.584H81.6884V102.56C80.4297 102.454 79.4164 102.011 78.6484 101.232C77.8804 100.454 77.4964 99.5043 77.4964 98.3843C77.4964 97.2643 77.8804 96.3149 78.6484 95.5363C79.4164 94.7576 80.4297 94.3149 81.6884 94.2083V91.1843H82.7444V94.2083C84.0031 94.3149 85.0164 94.7576 85.7844 95.5363ZM79.4004 96.2723C78.8351 96.8483 78.5524 97.5523 78.5524 98.3843C78.5524 99.2163 78.8351 99.9256 79.4004 100.512C79.9657 101.088 80.7284 101.424 81.6884 101.52V95.2483C80.7284 95.3443 79.9657 95.6856 79.4004 96.2723ZM82.7444 101.52C83.7044 101.424 84.4671 101.088 85.0324 100.512C85.5977 99.9256 85.8804 99.2163 85.8804 98.3843C85.8804 97.5523 85.5977 96.8483 85.0324 96.2723C84.4671 95.6856 83.7044 95.3443 82.7444 95.2483V101.52ZM95.0792 101.376C94.2685 102.176 93.2765 102.576 92.1032 102.576C90.9298 102.576 89.9325 102.176 89.1112 101.376C88.3005 100.566 87.8952 99.5683 87.8952 98.3843C87.8952 97.2003 88.3005 96.2083 89.1112 95.4083C89.9325 94.5976 90.9298 94.1923 92.1032 94.1923C93.2765 94.1923 94.2685 94.5976 95.0792 95.4083C95.9005 96.2083 96.3112 97.2003 96.3112 98.3843C96.3112 99.5683 95.9005 100.566 95.0792 101.376ZM89.8632 100.64C90.4712 101.248 91.2178 101.552 92.1032 101.552C92.9885 101.552 93.7352 101.248 94.3432 100.64C94.9512 100.022 95.2552 99.2696 95.2552 98.3843C95.2552 97.4989 94.9512 96.7523 94.3432 96.1443C93.7352 95.5256 92.9885 95.2163 92.1032 95.2163C91.2178 95.2163 90.4712 95.5256 89.8632 96.1443C89.2552 96.7523 88.9512 97.4989 88.9512 98.3843C88.9512 99.2696 89.2552 100.022 89.8632 100.64ZM102.046 94.1923C103.188 94.1923 104.158 94.5976 104.958 95.4083C105.769 96.2189 106.174 97.2109 106.174 98.3843C106.174 99.5576 105.769 100.55 104.958 101.36C104.158 102.171 103.188 102.576 102.046 102.576C100.628 102.576 99.5503 101.99 98.8143 100.816V105.584H97.7583V94.3843H98.8143V95.9523C99.5503 94.7789 100.628 94.1923 102.046 94.1923ZM99.7263 100.64C100.334 101.248 101.081 101.552 101.966 101.552C102.852 101.552 103.598 101.248 104.206 100.64C104.814 100.022 105.118 99.2696 105.118 98.3843C105.118 97.4989 104.814 96.7523 104.206 96.1443C103.598 95.5256 102.852 95.2163 101.966 95.2163C101.081 95.2163 100.334 95.5256 99.7263 96.1443C99.1183 96.7523 98.8143 97.4989 98.8143 98.3843C98.8143 99.2696 99.1183 100.022 99.7263 100.64ZM113.058 94.3843V95.4083H110.226V102.384H109.17V95.4083H106.338V94.3843H113.058ZM120.592 94.3843H121.648V102.384H120.592V100.816C119.856 101.99 118.779 102.576 117.36 102.576C116.219 102.576 115.243 102.171 114.432 101.36C113.632 100.55 113.232 99.5576 113.232 98.3843C113.232 97.2109 113.632 96.2189 114.432 95.4083C115.243 94.5976 116.219 94.1923 117.36 94.1923C118.779 94.1923 119.856 94.7789 120.592 95.9523V94.3843ZM115.2 100.64C115.808 101.248 116.555 101.552 117.44 101.552C118.325 101.552 119.072 101.248 119.68 100.64C120.288 100.022 120.592 99.2696 120.592 98.3843C120.592 97.4989 120.288 96.7523 119.68 96.1443C119.072 95.5256 118.325 95.2163 117.44 95.2163C116.555 95.2163 115.808 95.5256 115.2 96.1443C114.592 96.7523 114.288 97.4989 114.288 98.3843C114.288 99.2696 114.592 100.022 115.2 100.64ZM132.332 98.2723C133.207 98.5923 133.644 99.2163 133.644 100.144C133.644 100.795 133.425 101.334 132.988 101.76C132.561 102.176 131.943 102.384 131.132 102.384H127.244V94.3843H130.812C131.591 94.3843 132.193 94.5869 132.62 94.9923C133.047 95.3869 133.26 95.8989 133.26 96.5283C133.26 97.3283 132.951 97.9096 132.332 98.2723ZM130.812 95.4083H128.3V97.8403H130.812C131.74 97.8403 132.204 97.4243 132.204 96.5923C132.204 96.2189 132.081 95.9309 131.836 95.7283C131.601 95.5149 131.26 95.4083 130.812 95.4083ZM131.132 101.36C131.601 101.36 131.959 101.248 132.204 101.024C132.46 100.8 132.588 100.486 132.588 100.08C132.588 99.7069 132.46 99.4136 132.204 99.2003C131.959 98.9763 131.601 98.8643 131.132 98.8643H128.3V101.36H131.132ZM141.628 101.376C140.817 102.176 139.825 102.576 138.652 102.576C137.479 102.576 136.481 102.176 135.66 101.376C134.849 100.566 134.444 99.5683 134.444 98.3843C134.444 97.2003 134.849 96.2083 135.66 95.4083C136.481 94.5976 137.479 94.1923 138.652 94.1923C139.825 94.1923 140.817 94.5976 141.628 95.4083C142.449 96.2083 142.86 97.2003 142.86 98.3843C142.86 99.5683 142.449 100.566 141.628 101.376ZM136.412 100.64C137.02 101.248 137.767 101.552 138.652 101.552C139.537 101.552 140.284 101.248 140.892 100.64C141.5 100.022 141.804 99.2696 141.804 98.3843C141.804 97.4989 141.5 96.7523 140.892 96.1443C140.284 95.5256 139.537 95.2163 138.652 95.2163C137.767 95.2163 137.02 95.5256 136.412 96.1443C135.804 96.7523 135.5 97.4989 135.5 98.3843C135.5 99.2696 135.804 100.022 136.412 100.64ZM153.075 98.2723C153.95 98.5923 154.387 99.2163 154.387 100.144C154.387 100.795 154.168 101.334 153.731 101.76C153.304 102.176 152.686 102.384 151.875 102.384H147.987V94.3843H151.555C152.334 94.3843 152.936 94.5869 153.363 94.9923C153.79 95.3869 154.003 95.8989 154.003 96.5283C154.003 97.3283 153.694 97.9096 153.075 98.2723ZM151.555 95.4083H149.043V97.8403H151.555C152.483 97.8403 152.947 97.4243 152.947 96.5923C152.947 96.2189 152.824 95.9309 152.579 95.7283C152.344 95.5149 152.003 95.4083 151.555 95.4083ZM151.875 101.36C152.344 101.36 152.702 101.248 152.947 101.024C153.203 100.8 153.331 100.486 153.331 100.08C153.331 99.7069 153.203 99.4136 152.947 99.2003C152.702 98.9763 152.344 98.8643 151.875 98.8643H149.043V101.36H151.875ZM159.955 94.1923C161.096 94.1923 162.067 94.5976 162.867 95.4083C163.678 96.2189 164.083 97.2109 164.083 98.3843C164.083 99.5576 163.678 100.55 162.867 101.36C162.067 102.171 161.096 102.576 159.955 102.576C158.536 102.576 157.459 101.99 156.723 100.816V105.584H155.667V94.3843H156.723V95.9523C157.459 94.7789 158.536 94.1923 159.955 94.1923ZM157.635 100.64C158.243 101.248 158.99 101.552 159.875 101.552C160.76 101.552 161.507 101.248 162.115 100.64C162.723 100.022 163.027 99.2696 163.027 98.3843C163.027 97.4989 162.723 96.7523 162.115 96.1443C161.507 95.5256 160.76 95.2163 159.875 95.2163C158.99 95.2163 158.243 95.5256 157.635 96.1443C157.027 96.7523 156.723 97.4989 156.723 98.3843C156.723 99.2696 157.027 100.022 157.635 100.64ZM169.215 94.1923C170.399 94.1923 171.354 94.6136 172.079 95.4563C172.815 96.2883 173.183 97.2749 173.183 98.4163C173.183 98.5336 173.172 98.6989 173.151 98.9123H166.127C166.234 99.7229 166.575 100.368 167.151 100.848C167.738 101.318 168.458 101.552 169.311 101.552C169.919 101.552 170.442 101.43 170.879 101.184C171.327 100.928 171.663 100.598 171.887 100.192L172.815 100.736C172.463 101.302 171.983 101.75 171.375 102.08C170.767 102.411 170.074 102.576 169.295 102.576C168.036 102.576 167.012 102.182 166.223 101.392C165.434 100.603 165.039 99.6003 165.039 98.3843C165.039 97.1896 165.428 96.1923 166.207 95.3923C166.986 94.5923 167.988 94.1923 169.215 94.1923ZM169.215 95.2163C168.383 95.2163 167.684 95.4669 167.119 95.9683C166.564 96.4589 166.234 97.0989 166.127 97.8883H172.095C171.988 97.0456 171.663 96.3896 171.119 95.9203C170.575 95.4509 169.94 95.2163 169.215 95.2163ZM182.383 94.3843V102.384H181.327V96.0003L178.527 100.544H178.399L175.599 96.0003V102.384H174.543V94.3843H175.759L178.463 98.7683L181.167 94.3843H182.383ZM190.061 94.3843V102.384H189.005V99.3123H187.629L185.165 102.384H183.821L186.349 99.2803C185.709 99.1843 185.181 98.9176 184.765 98.4803C184.349 98.0429 184.141 97.5043 184.141 96.8643C184.141 96.1389 184.397 95.5469 184.909 95.0883C185.431 94.6189 186.066 94.3843 186.813 94.3843H190.061ZM186.813 98.3203H189.005V95.4083H186.813C186.365 95.4083 185.981 95.5416 185.661 95.8083C185.351 96.0749 185.197 96.4269 185.197 96.8643C185.197 97.3016 185.351 97.6536 185.661 97.9203C185.981 98.1869 186.365 98.3203 186.813 98.3203ZM202.381 94.3843V102.384H201.325V95.4083H196.717V102.384H195.661V94.3843H202.381ZM208.582 94.1923C209.723 94.1923 210.694 94.5976 211.494 95.4083C212.305 96.2189 212.71 97.2109 212.71 98.3843C212.71 99.5576 212.305 100.55 211.494 101.36C210.694 102.171 209.723 102.576 208.582 102.576C207.163 102.576 206.086 101.99 205.35 100.816V105.584H204.294V94.3843H205.35V95.9523C206.086 94.7789 207.163 94.1923 208.582 94.1923ZM206.262 100.64C206.87 101.248 207.617 101.552 208.502 101.552C209.387 101.552 210.134 101.248 210.742 100.64C211.35 100.022 211.654 99.2696 211.654 98.3843C211.654 97.4989 211.35 96.7523 210.742 96.1443C210.134 95.5256 209.387 95.2163 208.502 95.2163C207.617 95.2163 206.87 95.5256 206.262 96.1443C205.654 96.7523 205.35 97.4989 205.35 98.3843C205.35 99.2696 205.654 100.022 206.262 100.64ZM220.85 101.376C220.039 102.176 219.047 102.576 217.874 102.576C216.7 102.576 215.703 102.176 214.882 101.376C214.071 100.566 213.666 99.5683 213.666 98.3843C213.666 97.2003 214.071 96.2083 214.882 95.4083C215.703 94.5976 216.7 94.1923 217.874 94.1923C219.047 94.1923 220.039 94.5976 220.85 95.4083C221.671 96.2083 222.082 97.2003 222.082 98.3843C222.082 99.5683 221.671 100.566 220.85 101.376ZM215.634 100.64C216.242 101.248 216.988 101.552 217.874 101.552C218.759 101.552 219.506 101.248 220.114 100.64C220.722 100.022 221.026 99.2696 221.026 98.3843C221.026 97.4989 220.722 96.7523 220.114 96.1443C219.506 95.5256 218.759 95.2163 217.874 95.2163C216.988 95.2163 216.242 95.5256 215.634 96.1443C215.026 96.7523 214.722 97.4989 214.722 98.3843C214.722 99.2696 215.026 100.022 215.634 100.64ZM228.617 98.2723C229.492 98.5923 229.929 99.2163 229.929 100.144C229.929 100.795 229.71 101.334 229.273 101.76C228.846 102.176 228.228 102.384 227.417 102.384H223.529V94.3843H227.097C227.876 94.3843 228.478 94.5869 228.905 94.9923C229.332 95.3869 229.545 95.8989 229.545 96.5283C229.545 97.3283 229.236 97.9096 228.617 98.2723ZM227.097 95.4083H224.585V97.8403H227.097C228.025 97.8403 228.489 97.4243 228.489 96.5923C228.489 96.2189 228.366 95.9309 228.121 95.7283C227.886 95.5149 227.545 95.4083 227.097 95.4083ZM227.417 101.36C227.886 101.36 228.244 101.248 228.489 101.024C228.745 100.8 228.873 100.486 228.873 100.08C228.873 99.7069 228.745 99.4136 228.489 99.2003C228.244 98.9763 227.886 98.8643 227.417 98.8643H224.585V101.36H227.417ZM234.905 94.1923C236.089 94.1923 237.044 94.6136 237.769 95.4563C238.505 96.2883 238.873 97.2749 238.873 98.4163C238.873 98.5336 238.862 98.6989 238.841 98.9123H231.817C231.924 99.7229 232.265 100.368 232.841 100.848C233.428 101.318 234.148 101.552 235.001 101.552C235.609 101.552 236.132 101.43 236.569 101.184C237.017 100.928 237.353 100.598 237.577 100.192L238.505 100.736C238.153 101.302 237.673 101.75 237.065 102.08C236.457 102.411 235.764 102.576 234.985 102.576C233.726 102.576 232.702 102.182 231.913 101.392C231.124 100.603 230.729 99.6003 230.729 98.3843C230.729 97.1896 231.118 96.1923 231.897 95.3923C232.676 94.5923 233.678 94.1923 234.905 94.1923ZM234.905 95.2163C234.073 95.2163 233.374 95.4669 232.809 95.9683C232.254 96.4589 231.924 97.0989 231.817 97.8883H237.785C237.678 97.0456 237.353 96.3896 236.809 95.9203C236.265 95.4509 235.63 95.2163 234.905 95.2163ZM246.64 101.36H247.76V104.528H246.704V102.384H240.176V104.528H239.12V101.36H240.096C240.64 100.646 240.912 99.6376 240.912 98.3363V94.3843H246.64V101.36ZM241.376 101.36H245.584V95.4083H241.968V98.3363C241.968 99.5629 241.771 100.571 241.376 101.36ZM252.421 94.1923C253.605 94.1923 254.56 94.6136 255.285 95.4563C256.021 96.2883 256.389 97.2749 256.389 98.4163C256.389 98.5336 256.378 98.6989 256.357 98.9123H249.333C249.44 99.7229 249.781 100.368 250.357 100.848C250.944 101.318 251.664 101.552 252.517 101.552C253.125 101.552 253.648 101.43 254.085 101.184C254.533 100.928 254.869 100.598 255.093 100.192L256.021 100.736C255.669 101.302 255.189 101.75 254.581 102.08C253.973 102.411 253.28 102.576 252.501 102.576C251.242 102.576 250.218 102.182 249.429 101.392C248.64 100.603 248.245 99.6003 248.245 98.3843C248.245 97.1896 248.634 96.1923 249.413 95.3923C250.192 94.5923 251.194 94.1923 252.421 94.1923ZM252.421 95.2163C251.589 95.2163 250.89 95.4669 250.325 95.9683C249.77 96.4589 249.44 97.0989 249.333 97.8883H255.301C255.194 97.0456 254.869 96.3896 254.325 95.9203C253.781 95.4509 253.146 95.2163 252.421 95.2163ZM263.413 94.3843H264.469V102.384H263.413V98.8963H258.805V102.384H257.749V94.3843H258.805V97.8723H263.413V94.3843ZM272.206 94.3843H273.102V102.384H272.046V96.2243L267.278 102.384H266.382V94.3843H267.438V100.544L272.206 94.3843ZM280.775 94.3843V102.384H279.719V99.3123H278.343L275.879 102.384H274.535L277.063 99.2803C276.423 99.1843 275.895 98.9176 275.479 98.4803C275.063 98.0429 274.855 97.5043 274.855 96.8643C274.855 96.1389 275.111 95.5469 275.623 95.0883C276.146 94.6189 276.78 94.3843 277.527 94.3843H280.775ZM277.527 98.3203H279.719V95.4083H277.527C277.079 95.4083 276.695 95.5416 276.375 95.8083C276.066 96.0749 275.911 96.4269 275.911 96.8643C275.911 97.3016 276.066 97.6536 276.375 97.9203C276.695 98.1869 277.079 98.3203 277.527 98.3203ZM57.8698 113.384H58.7658V121.384H57.7098V115.224L52.9418 121.384H52.0458V113.384H53.1018V119.544L57.8698 113.384ZM66.3429 113.384H67.3989V121.384H66.3429V117.896H61.7349V121.384H60.6789V113.384H61.7349V116.872H66.3429V113.384ZM73.68 116.424C74.4267 116.424 75.056 116.659 75.568 117.128C76.0907 117.587 76.352 118.179 76.352 118.904C76.352 119.63 76.0907 120.227 75.568 120.696C75.056 121.155 74.4267 121.384 73.68 121.384H70.432V114.408H68.192V113.384H71.488V116.424H73.68ZM73.68 120.36C74.128 120.36 74.5067 120.227 74.816 119.96C75.136 119.694 75.296 119.342 75.296 118.904C75.296 118.467 75.136 118.115 74.816 117.848C74.5067 117.582 74.128 117.448 73.68 117.448H71.488V120.36H73.68ZM81.2505 113.192C82.4345 113.192 83.3892 113.614 84.1145 114.456C84.8505 115.288 85.2185 116.275 85.2185 117.416C85.2185 117.534 85.2079 117.699 85.1865 117.912H78.1625C78.2692 118.723 78.6105 119.368 79.1865 119.848C79.7732 120.318 80.4932 120.552 81.3465 120.552C81.9545 120.552 82.4772 120.43 82.9145 120.184C83.3625 119.928 83.6985 119.598 83.9225 119.192L84.8505 119.736C84.4985 120.302 84.0185 120.75 83.4105 121.08C82.8025 121.411 82.1092 121.576 81.3305 121.576C80.0719 121.576 79.0479 121.182 78.2585 120.392C77.4692 119.603 77.0745 118.6 77.0745 117.384C77.0745 116.19 77.4639 115.192 78.2425 114.392C79.0212 113.592 80.0239 113.192 81.2505 113.192ZM81.2505 114.216C80.4185 114.216 79.7199 114.467 79.1545 114.968C78.5999 115.459 78.2692 116.099 78.1625 116.888H84.1305C84.0239 116.046 83.6985 115.39 83.1545 114.92C82.6105 114.451 81.9759 114.216 81.2505 114.216ZM93.0423 121.384H91.6343L87.6343 117.528V121.384H86.5783V113.384H87.6343V116.92L91.4423 113.384H92.8823L88.7543 117.224L93.0423 121.384ZM100.725 120.36H102.005V123.528H100.949V121.384H94.1645V113.384H95.2205V120.36H99.6685V113.384H100.725V120.36ZM109.106 113.384H110.002V121.384H108.946V115.224L104.178 121.384H103.282V113.384H104.338V119.544L109.106 113.384ZM117.739 113.384H118.635V121.384H117.579V115.224L112.811 121.384H111.915V113.384H112.971V119.544L117.739 113.384Z" fill="#020828"/>
<circle cx="27.6043" cy="42.4798" r="12.8641" stroke="#A7DFDE" stroke-width="2"/>
<path d="M28.4045 37.484C28.1378 37.7507 27.8178 37.884 27.4445 37.884C27.0712 37.884 26.7445 37.7507 26.4645 37.484C26.1978 37.204 26.0645 36.8774 26.0645 36.504C26.0645 36.1307 26.1978 35.8107 26.4645 35.544C26.7312 35.264 27.0578 35.124 27.4445 35.124C27.8312 35.124 28.1578 35.264 28.4245 35.544C28.6912 35.8107 28.8245 36.1307 28.8245 36.504C28.8245 36.8774 28.6845 37.204 28.4045 37.484ZM26.3645 49.384V39.384H28.5245V49.384H26.3645Z" fill="#020828"/>
</svg>
