<svg width="72" height="72" viewBox="0 0 72 72" fill="none" xmlns="http://www.w3.org/2000/svg">
<path d="M11.1748 52.2891C10.7843 51.8986 10.7843 51.2654 11.1748 50.8749L34.3167 27.7331L44.4976 37.9141L21.3558 61.0559C20.9653 61.4464 20.3321 61.4464 19.9416 61.0559L11.1748 52.2891Z" stroke="white" stroke-width="6"/>
<rect x="38.4243" y="29.9805" width="5.30136" height="4.50499" transform="rotate(-45 38.4243 29.9805)" fill="white" stroke="white" stroke-width="4.50499"/>
<mask id="path-3-inside-1" fill="white">
<rect x="38.0649" y="19.7402" width="6.23225" height="20.398" rx="2" transform="rotate(-45 38.0649 19.7402)"/>
</mask>
<rect x="38.0649" y="19.7402" width="6.23225" height="20.398" rx="2" transform="rotate(-45 38.0649 19.7402)" fill="white" stroke="white" stroke-width="6.23225" mask="url(#path-3-inside-1)"/>
<mask id="path-4-inside-2" fill="white">
<path d="M2.78976 69.4387C1.79402 68.4429 1.79402 66.8285 2.78976 65.8328L12.9677 55.6549L16.5736 59.2607L6.39565 69.4387C5.39991 70.4344 3.7855 70.4344 2.78976 69.4387Z"/>
</mask>
<path d="M2.78976 69.4387C1.79402 68.4429 1.79402 66.8285 2.78976 65.8328L12.9677 55.6549L16.5736 59.2607L6.39565 69.4387C5.39991 70.4344 3.7855 70.4344 2.78976 69.4387Z" fill="white"/>
<path d="M12.9677 55.6549L17.2103 51.4122L12.9677 47.1696L8.72507 51.4122L12.9677 55.6549ZM16.5736 59.2607L20.8162 63.5034L25.0589 59.2607L20.8162 55.0181L16.5736 59.2607ZM7.0324 70.0754L17.2103 59.8975L8.72507 51.4122L-1.45288 61.5902L7.0324 70.0754ZM8.72507 59.8975L12.331 63.5034L20.8162 55.0181L17.2103 51.4122L8.72507 59.8975ZM12.331 55.0181L2.15301 65.196L10.6383 73.6813L20.8162 63.5034L12.331 55.0181ZM2.15301 65.196C3.50042 63.8486 5.68499 63.8486 7.0324 65.196L-1.45288 73.6813C1.88601 77.0202 7.29941 77.0202 10.6383 73.6813L2.15301 65.196ZM-1.45288 61.5902C-4.79176 64.929 -4.79177 70.3424 -1.45288 73.6813L7.0324 65.196C8.37981 66.5435 8.37981 68.728 7.0324 70.0754L-1.45288 61.5902Z" fill="white" mask="url(#path-4-inside-2)"/>
<path d="M13.1865 50.834L26.2232 37.7972L34.0131 45.5871L20.9764 58.6239L13.1865 50.834Z" fill="white" stroke="white" stroke-width="6"/>
<path d="M48.7407 11.2246L60.5631 11.2243L60.5631 23.047" stroke="white" stroke-width="6" stroke-linecap="round"/>
</svg>
