<?xml version="1.0" standalone="no"?>
<!DOCTYPE svg PUBLIC "-//W3C//DTD SVG 1.1//EN" "http://www.w3.org/Graphics/SVG/1.1/DTD/svg11.dtd" >
<svg xmlns="http://www.w3.org/2000/svg" xmlns:xlink="http://www.w3.org/1999/xlink" version="1.1">
<metadata>
Created by FontForge 20170731 at Wed Feb 17 23:23:57 2021
 By Aleksey,,,
Copyright (c) by Christoph York. All rights reserved. Modification of this file requires prior written permission from Brink Type.
</metadata>
<defs>
<font id="Segma-ExtraLight" horiz-adv-x="1454" >
  <font-face 
    font-family="Segma ExtraLight"
    font-weight="260"
    font-stretch="normal"
    units-per-em="2048"
    panose-1="0 0 3 0 0 0 0 0 0 0"
    ascent="1556"
    descent="-492"
    x-height="1028"
    cap-height="1434"
    bbox="-952 -537 2458 2032"
    underline-thickness="102"
    underline-position="-450"
    unicode-range="U+000D-2B51"
  />
<missing-glyph horiz-adv-x="1667" 
d="M244 0v1434h1179v-1434h-1179zM733 543h156v57q0 41 10.5 61t46.5 50l60 49q66 55 93 104.5t27 106.5q0 106 -76 171.5t-198 65.5q-107 0 -190.5 -52t-124.5 -138l118 -80q73 123 195 123q54 0 85.5 -25t31.5 -71q0 -55 -62 -105l-65 -53q-66 -54 -86.5 -93t-20.5 -108
v-63zM811 215q46 0 75 30t29 77t-29 76.5t-75 29.5t-75 -29.5t-29 -76.5t29 -77t75 -30z" />
    <glyph glyph-name=".notdef" horiz-adv-x="1667" 
d="M244 0v1434h1179v-1434h-1179zM733 543h156v57q0 41 10.5 61t46.5 50l60 49q66 55 93 104.5t27 106.5q0 106 -76 171.5t-198 65.5q-107 0 -190.5 -52t-124.5 -138l118 -80q73 123 195 123q54 0 85.5 -25t31.5 -71q0 -55 -62 -105l-65 -53q-66 -54 -86.5 -93t-20.5 -108
v-63zM811 215q46 0 75 30t29 77t-29 76.5t-75 29.5t-75 -29.5t-29 -76.5t29 -77t75 -30z" />
    <glyph glyph-name=".null" horiz-adv-x="0" 
 />
    <glyph glyph-name="nonmarkingreturn" horiz-adv-x="682" 
 />
    <glyph glyph-name="CR" unicode="&#xd;" horiz-adv-x="501" 
 />
    <glyph glyph-name="space" unicode=" " horiz-adv-x="501" 
 />
    <glyph glyph-name="exclam" unicode="!" horiz-adv-x="550" 
d="M246 387l-8 1047h75l-8 -1047h-59zM276 -4q-29 0 -46 17.5t-17 45.5t17 46t46 18q28 0 45 -18t17 -46t-17 -45.5t-45 -17.5z" />
    <glyph glyph-name="quotedbl" unicode="&#x22;" horiz-adv-x="655" 
d="M145 924l-10 536h76l-10 -536h-56zM455 924l-11 536h76l-10 -536h-55z" />
    <glyph glyph-name="numbersign" unicode="#" horiz-adv-x="1490" 
d="M1358 922h-275l-82 -410h271v-57h-281l-84 -424h-67l84 424h-459l-84 -424h-68l84 424h-264v57h275l81 410h-270v57h281l84 424h67l-84 -424h459l84 424h68l-84 -424h264v-57zM934 512l82 410h-459l-82 -410h459z" />
    <glyph glyph-name="dollar" unicode="$" horiz-adv-x="1200" 
d="M1081 397q0 -162 -117 -260t-319 -104v-135h-57v135q-177 7 -296.5 86.5t-174.5 220.5l57 31q109 -258 414 -273v602l-66 17q-192 44 -279 123.5t-87 208.5q0 156 115 252t317 100v135h57v-135q154 -7 261.5 -72.5t152.5 -175.5l-55 -33q-92 201 -359 213v-579l86 -21
q187 -44 268.5 -126.5t81.5 -209.5zM541 778l47 -10v567q-171 -3 -266 -78t-95 -208q0 -104 70 -167.5t244 -103.5zM645 98q171 6 268 86t97 213q0 105 -70.5 171.5t-234.5 105.5l-60 14v-590z" />
    <glyph glyph-name="percent" unicode="%" horiz-adv-x="1644" 
d="M420 791q-145 0 -239.5 93.5t-94.5 239.5q0 147 94.5 241.5t239.5 94.5q143 0 237.5 -94.5t94.5 -241.5q0 -145 -94.5 -239t-237.5 -94zM258 0l1053 1434h75l-1052 -1434h-76zM420 850q120 0 194 75.5t74 198.5q0 124 -74 200.5t-194 76.5q-121 0 -195.5 -76t-74.5 -201
q0 -123 74.5 -198.5t195.5 -75.5zM1225 -27q-143 0 -237.5 94.5t-94.5 241.5q0 146 94.5 240t237.5 94t237 -94t94 -240q0 -147 -94 -241.5t-237 -94.5zM1225 33q120 0 195 76t75 200q0 123 -75 199t-195 76t-194.5 -76t-74.5 -199q0 -124 74.5 -200t194.5 -76z" />
    <glyph glyph-name="ampersand" unicode="&#x26;" horiz-adv-x="1357" 
d="M1266 0h-84l-162 184q-161 -211 -430 -211q-192 0 -313 103.5t-121 267.5q0 119 74.5 213.5t250.5 196.5l25 14l-37 43q-98 116 -138 192.5t-40 151.5q0 129 94.5 217t247.5 88q154 0 249 -86.5t95 -216.5q0 -100 -67 -185.5t-220 -174.5l-80 -47l402 -459
q87 156 108 401h68q-23 -272 -131 -452zM360 1155q0 -65 36 -134t122 -165l51 -59l88 51q138 81 194 152t56 153q0 109 -77.5 175.5t-196.5 66.5q-118 0 -195.5 -67t-77.5 -173zM590 39q243 0 385 197l-426 485l-27 -16q-158 -91 -225.5 -173.5t-67.5 -185.5
q0 -139 100 -223t261 -84z" />
    <glyph glyph-name="quotesingle" unicode="'" horiz-adv-x="346" 
d="M145 924l-10 536h76l-10 -536h-56z" />
    <glyph glyph-name="parenleft" unicode="(" horiz-adv-x="618" 
d="M485 -260q-153 182 -236 417t-83 482t83 482t236 417l56 -41q-139 -166 -220 -396t-81 -462t81 -462t220 -396z" />
    <glyph glyph-name="parenright" unicode=")" horiz-adv-x="618" 
d="M133 -260l-57 41q141 165 222 395.5t81 462.5t-81 462.5t-222 395.5l57 41q153 -182 236.5 -417t83.5 -482t-83.5 -482t-236.5 -417z" />
    <glyph glyph-name="asterisk" unicode="*" horiz-adv-x="909" 
d="M252 731l-51 37l211 283l-336 102l20 59l332 -112l-6 350h63l-6 -350l332 112l20 -59l-335 -104l213 -279l-54 -39l-202 287z" />
    <glyph glyph-name="plus" unicode="+" 
d="M1163 680v-62h-401v-425h-68v425h-403v62h403v426h68v-426h401z" />
    <glyph glyph-name="comma" unicode="," horiz-adv-x="397" 
d="M100 -305l93 534h73l-108 -534h-58z" />
    <glyph glyph-name="hyphen" unicode="-" horiz-adv-x="833" 
d="M127 559v66h580v-66h-580z" />
    <glyph glyph-name="period" unicode="." horiz-adv-x="450" 
d="M225 -4q-28 0 -45.5 17.5t-17.5 45.5t17.5 46t45.5 18t46 -18t18 -46t-18 -45.5t-46 -17.5z" />
    <glyph glyph-name="slash" unicode="/" horiz-adv-x="899" 
d="M35 -193l758 1709h71l-758 -1709h-71z" />
    <glyph glyph-name="zero" unicode="0" horiz-adv-x="1429" 
d="M715 -27q-254 0 -401.5 193.5t-147.5 550.5t147.5 550t401.5 193q253 0 400 -193t147 -550t-147.5 -550.5t-399.5 -193.5zM715 41q220 0 345.5 172.5t125.5 503.5t-125.5 503.5t-345.5 172.5q-221 0 -347 -172.5t-126 -503.5t126 -503.5t347 -172.5z" />
    <glyph glyph-name="one" unicode="1" horiz-adv-x="858" 
d="M543 1434h59v-1434h-72v1356l-421 -219v71z" />
    <glyph glyph-name="two" unicode="2" horiz-adv-x="1193" 
d="M213 68h858v-68h-965v59l588 549q150 139 211.5 245.5t61.5 213.5q0 152 -97 239t-254 87q-146 0 -260 -80.5t-186 -243.5l-57 33q73 176 204.5 267t296.5 91q189 0 307.5 -109t118.5 -282q0 -119 -65 -235t-215 -256z" />
    <glyph glyph-name="three" unicode="3" horiz-adv-x="1148" 
d="M719 729q154 -33 232.5 -121t78.5 -223q0 -184 -133.5 -298t-347.5 -114q-145 0 -269 55.5t-202 161.5l49 46q74 -97 183 -146t239 -49q187 0 297 94.5t110 251.5q0 154 -117.5 234.5t-353.5 80.5h-100v64h180q180 0 277.5 82t97.5 223q0 147 -99.5 234.5t-267.5 87.5
q-136 0 -245.5 -60t-177.5 -170l-54 41q81 125 204 190.5t275 65.5q200 0 318.5 -108.5t118.5 -278.5q0 -133 -76.5 -225t-216.5 -119z" />
    <glyph glyph-name="four" unicode="4" horiz-adv-x="1245" 
d="M1200 414v-64h-233v-350h-70v350h-807v64l780 1020h97v-1020h233zM174 414h723v944z" />
    <glyph glyph-name="five" unicode="5" horiz-adv-x="1185" 
d="M614 879q207 0 336 -119t129 -320q0 -207 -138.5 -337t-365.5 -130q-284 0 -458 207l47 45q153 -184 409 -184q196 0 314.5 107t118.5 292q0 174 -105.5 273.5t-288.5 99.5q-198 0 -366 -133l-60 35v719h822v-66h-752v-612q165 123 358 123z" />
    <glyph glyph-name="six" unicode="6" horiz-adv-x="1224" 
d="M639 954q213 0 354.5 -132.5t141.5 -356.5q0 -150 -67 -263t-181.5 -171t-259.5 -58q-222 0 -365 133t-143 361q0 113 43.5 225t142.5 246l367 496h90l-440 -586q132 106 317 106zM627 41q196 0 314 113.5t118 310.5t-118 310.5t-314 113.5t-314 -113.5t-118 -310.5
t118 -310.5t314 -113.5z" />
    <glyph glyph-name="seven" unicode="7" horiz-adv-x="1058" 
d="M59 1434h940v-62l-669 -1372h-78l666 1366h-859v68z" />
    <glyph glyph-name="eight" unicode="8" horiz-adv-x="1284" 
d="M821 737q155 -37 240.5 -134t85.5 -234q0 -174 -135.5 -285t-368.5 -111q-234 0 -370 111t-136 285q0 137 85.5 234t240.5 134q-136 37 -211.5 127.5t-75.5 216.5q0 168 125.5 273.5t341.5 105.5q214 0 339.5 -105.5t125.5 -273.5q0 -126 -75.5 -216.5t-211.5 -127.5z
M250 1079q0 -141 103.5 -226t289.5 -85q184 0 287.5 85t103.5 226q0 143 -103 228.5t-288 85.5q-186 0 -289.5 -85.5t-103.5 -228.5zM643 41q202 0 316 91t114 241q0 149 -114 239t-316 90q-203 0 -317.5 -90t-114.5 -239q0 -151 114 -241.5t318 -90.5z" />
    <glyph glyph-name="nine" unicode="9" horiz-adv-x="1224" 
d="M600 1460q144 0 258 -57.5t181 -170.5t67 -265q0 -114 -43 -226t-143 -245l-367 -496h-90l440 586q-134 -107 -317 -107q-213 0 -354.5 133t-141.5 357q0 226 143.5 358.5t366.5 132.5zM166 969q0 -197 118 -310.5t314 -113.5t314 113.5t118 310.5t-118 310.5t-314 113.5
t-314 -113.5t-118 -310.5z" />
    <glyph glyph-name="colon" unicode=":" horiz-adv-x="460" 
d="M236 817q-28 0 -46 18t-18 46q0 26 18 43.5t46 17.5t45.5 -17.5t17.5 -43.5q0 -28 -17.5 -46t-45.5 -18zM236 -4q-28 0 -46 17.5t-18 45.5t18 46t46 18t45.5 -18t17.5 -46t-17.5 -45.5t-45.5 -17.5z" />
    <glyph glyph-name="semicolon" unicode=";" horiz-adv-x="415" 
d="M221 817q-28 0 -45.5 18t-17.5 46q0 26 17.5 43.5t45.5 17.5t46 -17.5t18 -43.5q0 -28 -18 -46t-46 -18zM100 -305l93 534h73l-108 -534h-58z" />
    <glyph glyph-name="less" unicode="&#x3c;" 
d="M1163 1049v-70l-796 -330l796 -330v-69l-872 362v74z" />
    <glyph glyph-name="equal" unicode="=" 
d="M291 838v63h872v-63h-872zM291 397v64h872v-64h-872z" />
    <glyph glyph-name="greater" unicode="&#x3e;" 
d="M291 1049l872 -363v-74l-872 -362v69l796 330l-796 330v70z" />
    <glyph glyph-name="question" unicode="?" horiz-adv-x="927" 
d="M389 387v135q0 100 28 153t124 132l100 84q135 115 135 250q0 118 -79.5 184t-207.5 66q-122 0 -221.5 -62.5t-154.5 -177.5l-58 35q58 129 173.5 201.5t260.5 72.5q161 0 260 -86.5t99 -230.5q0 -86 -40.5 -162t-131.5 -152l-101 -84q-74 -61 -94 -100.5t-20 -122.5
v-135h-72zM426 -4q-29 0 -46.5 17.5t-17.5 45.5t17.5 46t46.5 18q27 0 44 -18t17 -46t-16.5 -45.5t-44.5 -17.5z" />
    <glyph glyph-name="at" unicode="@" horiz-adv-x="1937" 
d="M997 1315q171 0 320 -56.5t258 -158.5t172 -252.5t63 -329.5q0 -220 -88.5 -349.5t-224.5 -129.5q-89 0 -150 58.5t-73 170.5q-34 -107 -119 -168t-201 -61q-160 0 -263 115t-103 301t103 300.5t263 114.5q111 0 193 -58.5t119 -162.5v193h63v-518q0 -111 45.5 -170.5
t122.5 -59.5q110 0 179 112.5t69 307.5q0 174 -59 315.5t-160.5 233t-236.5 141t-290 49.5q-170 0 -317.5 -59.5t-251 -164.5t-162.5 -253t-59 -319q0 -229 102.5 -407.5t285 -276t413.5 -97.5q117 0 227.5 25t187.5 68l27 -54q-83 -47 -199 -73.5t-243 -26.5
q-188 0 -349 62t-275.5 171.5t-179.5 266.5t-65 340q0 247 111.5 444t307 306.5t437.5 109.5zM963 100q133 0 219 96t86 259q0 161 -86 257.5t-219 96.5q-132 0 -219 -96.5t-87 -257.5q0 -162 87 -258.5t219 -96.5z" />
    <glyph glyph-name="A" unicode="A" horiz-adv-x="1396" 
d="M1270 0l-185 438h-774l-184 -438h-76l606 1434h82l607 -1434h-76zM340 506h717l-359 850z" />
    <glyph glyph-name="B" unicode="B" horiz-adv-x="1427" 
d="M958 739q156 -26 240 -119.5t84 -240.5q0 -175 -119.5 -277t-335.5 -102h-583v1434h534q214 0 331.5 -98.5t117.5 -264.5q0 -124 -69 -210.5t-200 -121.5zM778 1366h-461v-598h461q183 0 279 78.5t96 220.5t-96 220.5t-279 78.5zM827 68q183 0 280 82.5t97 234.5
t-96 233.5t-281 81.5h-510v-632h510z" />
    <glyph glyph-name="C" unicode="C" horiz-adv-x="1595" 
d="M866 -27q-206 0 -369.5 96t-254 265.5t-90.5 382.5q0 212 91 382t254.5 265.5t368.5 95.5q209 0 373.5 -99t237.5 -271l-62 -33q-69 160 -215 247t-332 87q-137 0 -255.5 -49.5t-203 -137.5t-132.5 -214t-48 -273t48 -273t132.5 -214t203 -137.5t255.5 -49.5
q186 0 332 87t215 247l62 -33q-73 -172 -237.5 -271.5t-373.5 -99.5z" />
    <glyph glyph-name="D" unicode="D" horiz-adv-x="1566" 
d="M698 1434q327 0 521 -188.5t194 -528.5t-194 -528.5t-521 -188.5h-454v1434h454zM698 68q294 0 466.5 168.5t172.5 480.5t-172.5 480.5t-466.5 168.5h-381v-1298h381z" />
    <glyph glyph-name="E" unicode="E" horiz-adv-x="1357" 
d="M317 68h873v-68h-946v1434h925v-68h-852v-608h816v-68h-816v-622z" />
    <glyph glyph-name="F" unicode="F" horiz-adv-x="1306" 
d="M1169 1366h-852v-618h826v-68h-826v-680h-73v1434h925v-68z" />
    <glyph glyph-name="G" unicode="G" horiz-adv-x="1630" 
d="M952 721h514v-526q-92 -106 -234.5 -164t-320.5 -58q-171 0 -313.5 54.5t-240 151.5t-151.5 234.5t-54 301.5q0 218 92.5 388t258 263.5t376.5 93.5q176 0 316.5 -65.5t225.5 -186.5l-59 -41q-75 107 -201 165.5t-280 58.5q-186 0 -333.5 -82t-233 -237t-85.5 -359
q0 -206 88 -359t241 -232t351 -79q153 0 281 47.5t203 128.5v434h-441v68z" />
    <glyph glyph-name="H" unicode="H" horiz-adv-x="1599" 
d="M1282 1434h74v-1434h-74v702h-965v-702h-73v1434h73v-662h965v662z" />
    <glyph glyph-name="I" unicode="I" horiz-adv-x="569" 
d="M248 0v1434h74v-1434h-74z" />
    <glyph glyph-name="J" unicode="J" horiz-adv-x="1204" 
d="M502 -27q-131 0 -244.5 51.5t-194.5 149.5l50 49q68 -88 169.5 -134t217.5 -46q188 0 297.5 121.5t109.5 353.5v916h74v-920q0 -256 -127.5 -398.5t-351.5 -142.5z" />
    <glyph glyph-name="K" unicode="K" horiz-adv-x="1386" 
d="M1257 0l-608 754l-332 -344v-410h-73v1434h73v-928l904 928h90l-611 -629l646 -805h-89z" />
    <glyph glyph-name="L" unicode="L" horiz-adv-x="1220" 
d="M317 68h824v-68h-897v1434h73v-1366z" />
    <glyph glyph-name="M" unicode="M" horiz-adv-x="1921" 
d="M1597 1434h80v-1434h-71v1321l-613 -930h-65l-613 930v-1321h-71v1434h78l639 -967z" />
    <glyph glyph-name="N" unicode="N" horiz-adv-x="1619" 
d="M1305 1434h71v-1434h-73l-988 1321v-1321h-71v1434h73l988 -1321v1321z" />
    <glyph glyph-name="O" unicode="O" horiz-adv-x="1746" 
d="M872 -27q-205 0 -370 97.5t-257.5 267.5t-92.5 379q0 156 54.5 293.5t149 236.5t229 156t287.5 57q154 0 289 -57t230 -156t149.5 -236.5t54.5 -293.5q0 -209 -93 -379t-258.5 -267.5t-371.5 -97.5zM872 43q183 0 331 87t231.5 241t83.5 346t-83.5 346t-231.5 241
t-331 87q-182 0 -329 -87t-230.5 -241t-83.5 -346t83.5 -346t230.5 -241t329 -87z" />
    <glyph glyph-name="P" unicode="P" horiz-adv-x="1382" 
d="M791 1434q228 0 353.5 -112t125.5 -314t-125.5 -314t-353.5 -112h-474v-582h-73v1434h547zM786 649q198 0 303 91.5t105 267.5t-105 267t-303 91h-469v-717h469z" />
    <glyph glyph-name="Q" unicode="Q" horiz-adv-x="1746" 
d="M1595 717q0 -185 -73.5 -340t-204.5 -256l188 -234l-51 -41l-192 236q-173 -109 -390 -109q-205 0 -370 97.5t-257.5 267.5t-92.5 379q0 156 54.5 293.5t149 236.5t229 156t287.5 57q154 0 289 -57t230 -156t149.5 -236.5t54.5 -293.5zM872 43q191 0 345 96l-291 359
l51 41l293 -363q117 92 182.5 232.5t65.5 308.5q0 192 -83.5 346t-231.5 241t-331 87q-182 0 -329 -87t-230.5 -241t-83.5 -346t83.5 -346t230.5 -241t329 -87z" />
    <glyph glyph-name="R" unicode="R" horiz-adv-x="1427" 
d="M1204 0l-510 612h-377v-612h-73v1434h551q225 0 351 -110.5t126 -301.5t-126 -300.5t-351 -109.5h-11l510 -612h-90zM317 1366v-686h474q195 0 300 88.5t105 253.5q0 166 -105 255t-300 89h-474z" />
    <glyph glyph-name="S" unicode="S" horiz-adv-x="1267" 
d="M659 -27q-207 0 -347.5 87t-202.5 247l61 31q127 -297 489 -297q197 0 308.5 88.5t111.5 239.5q0 115 -76 186t-255 113l-201 47q-207 51 -301 137t-94 225q0 173 128 278t353 105q185 0 314.5 -71t182.5 -197l-59 -33q-52 116 -164.5 175t-273.5 59q-194 0 -301 -82.5
t-107 -233.5q0 -113 75.5 -182t264.5 -113l205 -49q207 -50 296 -137.5t89 -224.5q0 -183 -133 -290.5t-363 -107.5z" />
    <glyph glyph-name="T" unicode="T" horiz-adv-x="1243" 
d="M584 0v1366h-525v68h1125v-68h-527v-1366h-73z" />
    <glyph glyph-name="U" unicode="U" horiz-adv-x="1564" 
d="M782 -27q-257 0 -408 143.5t-151 397.5v920h74v-916q0 -225 129 -350t356 -125t356.5 125t129.5 350v916h73v-920q0 -254 -151 -397.5t-408 -143.5z" />
    <glyph glyph-name="V" unicode="V" horiz-adv-x="1372" 
d="M1245 1434h76l-596 -1434h-78l-596 1434h78l557 -1348z" />
    <glyph glyph-name="W" unicode="W" horiz-adv-x="2088" 
d="M1948 1434h73l-458 -1434h-78l-441 1335l-440 -1335h-78l-458 1434h73l426 -1332l439 1332h77l439 -1332z" />
    <glyph glyph-name="X" unicode="X" horiz-adv-x="1282" 
d="M1223 0h-82l-500 690l-500 -690h-84l535 737l-504 697h80l473 -652l473 652h80l-504 -697z" />
    <glyph glyph-name="Y" unicode="Y" horiz-adv-x="1261" 
d="M1155 1434h84l-571 -816v-618h-74v618l-571 816h83l525 -750z" />
    <glyph glyph-name="Z" unicode="Z" horiz-adv-x="1232" 
d="M193 68h940v-68h-1033v57l928 1309h-905v68h997v-58z" />
    <glyph glyph-name="bracketleft" unicode="[" horiz-adv-x="741" 
d="M664 1454h-353v-1630h353v-62h-420v1754h420v-62z" />
    <glyph glyph-name="backslash" unicode="\" horiz-adv-x="899" 
d="M864 -193h-71l-758 1709h71z" />
    <glyph glyph-name="bracketright" unicode="]" horiz-adv-x="743" 
d="M80 1516h418v-1754h-418v62h350v1630h-350v62z" />
    <glyph glyph-name="asciicircum" unicode="^" horiz-adv-x="1095" 
d="M1020 729h-82l-389 588l-391 -588h-82l440 655h64z" />
    <glyph glyph-name="underscore" unicode="_" horiz-adv-x="882" 
d="M0 -209v62h883v-62h-883z" />
    <glyph glyph-name="grave" unicode="`" horiz-adv-x="1269" 
d="M694 1202h-76l-264 314h88z" />
    <glyph glyph-name="a" unicode="a" horiz-adv-x="1140" 
d="M578 1053q179 0 274.5 -94t95.5 -265v-694h-67v240q-39 -120 -146 -189t-262 -69q-166 0 -261 81.5t-95 221.5q0 132 99 206t282 74h383v129q0 146 -79 220.5t-227 74.5q-234 0 -348 -178l-49 41q63 98 165.5 149.5t234.5 51.5zM481 43q180 0 290 105.5t110 283.5v74
h-381q-154 0 -233 -58t-79 -163q0 -115 77.5 -178.5t215.5 -63.5z" />
    <glyph glyph-name="b" unicode="b" horiz-adv-x="1343" 
d="M715 1053q224 0 364 -150.5t140 -388.5t-140 -389.5t-364 -151.5q-161 0 -280 83t-167 225v-281h-69v1499h69v-751q47 142 166 223.5t281 81.5zM705 39q193 0 316.5 132.5t123.5 342.5t-123.5 341.5t-316.5 131.5t-316 -131.5t-123 -341.5t123 -342.5t316 -132.5z" />
    <glyph glyph-name="c" unicode="c" horiz-adv-x="1167" 
d="M639 -27q-233 0 -373.5 151.5t-140.5 389.5q0 239 141 389t371 150q156 0 269 -72t169 -217l-63 -27q-101 250 -369 250q-200 0 -322 -130t-122 -343q0 -214 121.5 -344.5t322.5 -130.5q269 0 369 252l61 -29q-54 -143 -167.5 -216t-266.5 -73z" />
    <glyph glyph-name="d" unicode="d" horiz-adv-x="1343" 
d="M1075 1499h70v-1499h-70v281q-48 -142 -166.5 -225t-279.5 -83q-224 0 -364 151.5t-140 389.5t140 388.5t364 150.5q162 0 280 -81.5t166 -223.5v751zM639 39q193 0 315.5 132.5t122.5 342.5t-122.5 341.5t-315.5 131.5t-316.5 -131.5t-123.5 -341.5t123.5 -342.5
t316.5 -132.5z" />
    <glyph glyph-name="e" unicode="e" horiz-adv-x="1218" 
d="M1100 569q0 -31 -4 -63h-899q1 -216 123.5 -341.5t316.5 -125.5q124 0 224.5 53.5t162.5 151.5l51 -37q-67 -111 -181 -172.5t-259 -61.5q-229 0 -369.5 147.5t-140.5 389.5q0 244 141 393.5t361 149.5q208 0 340.5 -133.5t132.5 -350.5zM627 987q-174 0 -292.5 -114
t-135.5 -308h829q0 194 -112 308t-289 114z" />
    <glyph glyph-name="f" unicode="f" horiz-adv-x="755" 
d="M303 0v965h-250v63h250v217q0 143 67.5 208t204.5 65q69 0 146 -21v-61q-70 20 -137 20q-109 0 -160 -50t-51 -161v-217h344v-63h-344v-965h-70z" />
    <glyph glyph-name="g" unicode="g" horiz-adv-x="1343" 
d="M1075 1028h70v-930q0 -253 -138 -393.5t-384 -140.5q-148 0 -266.5 51.5t-190.5 142.5l45 49q68 -84 176 -131t236 -47q211 0 331.5 124t120.5 345v207q-48 -142 -166 -223.5t-280 -81.5q-223 0 -363.5 147.5t-140.5 378.5t140.5 379t363.5 148q162 0 280 -81.5
t166 -223.5v280zM639 66q192 0 315 129.5t123 330.5t-123 331t-315 130t-316 -130t-124 -331t124 -330.5t316 -129.5z" />
    <glyph glyph-name="h" unicode="h" horiz-adv-x="1241" 
d="M674 1053q184 0 279.5 -107t95.5 -315v-631h-70v621q0 366 -315 366q-174 0 -285 -102.5t-111 -280.5v-604h-69v1499h69v-706q40 121 147 190.5t259 69.5z" />
    <glyph glyph-name="i" unicode="i" horiz-adv-x="473" 
d="M236 1305q-26 0 -44 17.5t-18 43.5t18 43.5t44 17.5q27 0 44 -17t17 -44t-17 -44t-44 -17zM201 0v1028h69v-1028h-69z" />
    <glyph glyph-name="j" unicode="j" horiz-adv-x="473" 
d="M236 1305q-26 0 -44 17.5t-18 43.5t18 43.5t44 17.5q27 0 44 -17t17 -44t-17 -44t-44 -17zM35 -438q-49 0 -98 14v64q50 -13 92 -13q84 0 128 52.5t44 148.5v1200h69v-1204q0 -126 -60 -194t-175 -68z" />
    <glyph glyph-name="k" unicode="k" horiz-adv-x="1085" 
d="M967 0l-451 535l-248 -236v-299h-69v1497h69v-1114l678 643h92l-471 -444l486 -582h-86z" />
    <glyph glyph-name="l" unicode="l" horiz-adv-x="468" 
d="M199 0v1499h69v-1499h-69z" />
    <glyph glyph-name="m" unicode="m" horiz-adv-x="1884" 
d="M1341 1053q173 0 263 -106t90 -308v-639h-70v629q0 358 -291 358q-163 0 -257.5 -103t-94.5 -280v-604h-70v629q0 358 -290 358q-163 0 -258 -103t-95 -280v-604h-69v1028h69v-233q37 123 131 190.5t232 67.5t223 -70t113 -205q32 126 129.5 200.5t244.5 74.5z" />
    <glyph glyph-name="n" unicode="n" horiz-adv-x="1241" 
d="M674 1053q184 0 279.5 -107t95.5 -315v-631h-70v621q0 366 -315 366q-174 0 -285 -102.5t-111 -280.5v-604h-69v1028h69v-235q40 121 147 190.5t259 69.5z" />
    <glyph glyph-name="o" unicode="o" horiz-adv-x="1288" 
d="M645 -27q-233 0 -376.5 152.5t-143.5 388.5q0 235 143.5 387t376.5 152q232 0 375 -152t143 -387q0 -236 -143 -388.5t-375 -152.5zM645 39q197 0 321 131t124 344q0 211 -124 342t-321 131q-199 0 -322.5 -130.5t-123.5 -342.5q0 -213 123.5 -344t322.5 -131z" />
    <glyph glyph-name="p" unicode="p" horiz-adv-x="1343" 
d="M715 1053q224 0 364 -150.5t140 -388.5t-140 -389.5t-364 -151.5q-161 0 -280 83t-167 225v-691h-69v1438h69v-280q47 142 166 223.5t281 81.5zM705 39q193 0 316.5 132.5t123.5 342.5t-123.5 341.5t-316.5 131.5t-316 -131.5t-123 -341.5t123 -342.5t316 -132.5z" />
    <glyph glyph-name="q" unicode="q" horiz-adv-x="1343" 
d="M1075 1028h70v-1438h-70v691q-48 -142 -166.5 -225t-279.5 -83q-224 0 -364 151.5t-140 389.5t140 388.5t364 150.5q162 0 280 -81.5t166 -223.5v280zM639 39q193 0 315.5 132.5t122.5 342.5t-122.5 341.5t-315.5 131.5t-316.5 -131.5t-123.5 -341.5t123.5 -342.5
t316.5 -132.5z" />
    <glyph glyph-name="r" unicode="r" horiz-adv-x="763" 
d="M631 1038q39 0 69 -6v-63q-40 4 -67 4q-162 0 -263.5 -107.5t-101.5 -304.5v-561h-69v1028h69v-252q35 121 134 191.5t229 70.5z" />
    <glyph glyph-name="s" unicode="s" horiz-adv-x="1017" 
d="M530 -27q-151 0 -265 58.5t-167 158.5l54 35q53 -90 150.5 -138t227.5 -48q147 0 226.5 62t79.5 163q0 77 -52.5 124.5t-175.5 76.5l-207 49q-136 32 -200 95.5t-64 162.5q0 130 100 205.5t279 75.5q135 0 232.5 -45t146.5 -131l-53 -37q-93 149 -328 149
q-149 0 -227 -57t-78 -162q0 -76 51 -121.5t176 -75.5l211 -49q137 -33 198.5 -96t61.5 -160q0 -134 -99 -214.5t-278 -80.5z" />
    <glyph glyph-name="t" unicode="t" horiz-adv-x="794" 
d="M555 -16q-270 0 -270 249v732h-232v63h232v309h69v-309h359v-63h-359v-729q0 -97 51.5 -143t155.5 -46q69 0 156 19v-58q-76 -24 -162 -24z" />
    <glyph glyph-name="u" unicode="u" horiz-adv-x="1232" 
d="M963 1028h69v-1028h-69v236q-40 -123 -147 -193t-259 -70q-182 0 -274.5 106t-92.5 312v637h70v-622q0 -367 309 -367q174 0 284 103t110 280v606z" />
    <glyph glyph-name="v" unicode="v" horiz-adv-x="1050" 
d="M928 1028h76l-441 -1028h-78l-440 1028h76l403 -948z" />
    <glyph glyph-name="w" unicode="w" horiz-adv-x="1665" 
d="M1540 1028h72l-363 -1028h-78l-337 944l-340 -944h-76l-365 1028h72l332 -940l338 940h75l338 -942z" />
    <glyph glyph-name="x" unicode="x" horiz-adv-x="1005" 
d="M954 0h-80l-370 485l-373 -485h-82l406 528l-379 500h80l348 -455l346 455h80l-379 -500z" />
    <glyph glyph-name="y" unicode="y" horiz-adv-x="1064" 
d="M944 1028h74l-610 -1436h-74l168 398l-453 1038h76l416 -958z" />
    <glyph glyph-name="z" unicode="z" horiz-adv-x="999" 
d="M197 63h690v-63h-778v53l684 912h-666v63h752v-53z" />
    <glyph glyph-name="braceleft" unicode="{" horiz-adv-x="720" 
d="M348 838q0 -85 -30.5 -133.5t-96.5 -65.5q66 -17 96.5 -65.5t30.5 -133.5v-422q0 -113 38.5 -153.5t137.5 -40.5h117v-62h-121q-132 0 -185.5 57t-53.5 199v428q0 88 -36 125t-122 37h-19v62h19q86 0 122 36.5t36 124.5v429q0 142 53.5 199t185.5 57h121v-62h-117
q-99 0 -137.5 -40.5t-38.5 -153.5v-422z" />
    <glyph glyph-name="bar" unicode="|" horiz-adv-x="634" 
d="M285 -205v1772h65v-1772h-65z" />
    <glyph glyph-name="braceright" unicode="}" horiz-adv-x="720" 
d="M598 670h18v-62h-18q-86 0 -122 -37t-36 -125v-428q0 -142 -53.5 -199t-185.5 -57h-121v62h117q99 0 137.5 40.5t38.5 153.5v422q0 85 30.5 133.5t96.5 65.5q-66 17 -96.5 65.5t-30.5 133.5v422q0 113 -38.5 153.5t-137.5 40.5h-117v62h121q132 0 185.5 -57t53.5 -199
v-429q0 -88 36 -124.5t122 -36.5z" />
    <glyph glyph-name="asciitilde" unicode="~" 
d="M928 565q-68 0 -200 54.5t-198 54.5q-112 0 -239 -96v63q114 92 239 92q65 0 200 -53t196 -53q114 0 237 94v-64q-118 -92 -235 -92z" />
    <glyph glyph-name="uni00A0" unicode="&#xa0;" horiz-adv-x="501" 
 />
    <glyph glyph-name="exclamdown" unicode="&#xa1;" horiz-adv-x="550" 
d="M276 1028q27 0 44.5 -18.5t17.5 -46.5q0 -27 -17.5 -44.5t-44.5 -17.5q-29 0 -46 17.5t-17 44.5q0 28 17 46.5t46 18.5zM246 635h59l8 -1047h-75z" />
    <glyph glyph-name="cent" unicode="&#xa2;" horiz-adv-x="1189" 
d="M666 242q120 5 212.5 59.5t141.5 151.5l57 -37q-58 -111 -165 -172t-246 -66v-178h-58v180q-217 12 -346 160t-129 377t129 376.5t346 159.5v181h58v-179q140 -5 246.5 -65.5t164.5 -171.5l-57 -37q-49 97 -141.5 151.5t-212.5 59.5v-950zM205 717q0 -204 111 -332.5
t292 -140.5v946q-181 -12 -292 -140.5t-111 -332.5z" />
    <glyph glyph-name="sterling" unicode="&#xa3;" horiz-adv-x="1081" 
d="M317 676v-608h703v-68h-950v68h174v608h-185v63h185v328q0 183 102 288t277 105q133 0 236 -62t161 -179l-55 -33q-53 103 -141.5 155t-200.5 52q-147 0 -226.5 -84.5t-79.5 -243.5v-326h543v-63h-543z" />
    <glyph glyph-name="currency" unicode="&#xa4;" horiz-adv-x="1148" 
d="M973 707q0 -152 -84 -263l137 -137l-43 -43l-135 135q-111 -100 -275 -100q-160 0 -270 102l-135 -137l-45 43l139 139q-84 111 -84 261q0 152 82 260l-135 139l43 43l135 -137q108 100 270 100q165 0 273 -100l137 137l43 -43l-137 -141q84 -108 84 -258zM573 365
q149 0 241.5 95t92.5 247q0 151 -92.5 246.5t-241.5 95.5q-146 0 -238.5 -95.5t-92.5 -246.5q0 -152 92 -247t239 -95z" />
    <glyph glyph-name="yen" unicode="&#xa5;" horiz-adv-x="1124" 
d="M1098 1434l-467 -779h358v-57h-391v-242h391v-57h-391v-299h-72v299h-387v57h387v242h-387v57h355l-465 779h80l454 -760l455 760h80z" />
    <glyph glyph-name="brokenbar" unicode="&#xa6;" horiz-adv-x="634" 
d="M285 858v709h65v-709h-65zM285 -205v692h65v-692h-65z" />
    <glyph glyph-name="section" unicode="&#xa7;" horiz-adv-x="1103" 
d="M731 305q120 -36 175 -100.5t55 -165.5q0 -141 -101 -224t-287 -83q-154 0 -270 58t-168 157l53 35q53 -90 152.5 -138.5t232.5 -48.5q155 0 236.5 65t81.5 177q0 87 -55.5 138.5t-182.5 82.5l-207 49q-140 33 -209 102.5t-69 182.5q0 112 63.5 194t176.5 103
q-119 34 -175.5 99t-56.5 169q0 143 102 223t287 80q278 0 381 -176l-49 -39q-94 150 -336 150q-313 0 -313 -238q0 -92 52.5 -141t180.5 -80l211 -51q141 -32 209 -101.5t68 -181.5t-63.5 -194t-174.5 -103zM238 598q0 -95 56.5 -148.5t186.5 -84.5l92 -23
q151 -26 238.5 50.5t87.5 205.5q0 95 -58 147.5t-188 83.5l-65 17v-2q-160 39 -255 -37t-95 -209z" />
    <glyph glyph-name="dieresis" unicode="&#xa8;" horiz-adv-x="1269" 
d="M424 1305q-28 0 -46 17.5t-18 43.5t18 43.5t46 17.5q26 0 43.5 -17.5t17.5 -43.5t-17.5 -43.5t-43.5 -17.5zM846 1305q-26 0 -44 17.5t-18 43.5t18 43.5t44 17.5q28 0 45.5 -17.5t17.5 -43.5t-17.5 -43.5t-45.5 -17.5z" />
    <glyph glyph-name="copyright" unicode="&#xa9;" horiz-adv-x="1781" 
d="M891 -27q-154 0 -291.5 58.5t-235.5 158.5t-155 237.5t-57 289.5t57 289.5t155 237t235.5 158t291.5 58.5q205 0 375 -99.5t266 -270t96 -373.5q0 -152 -57 -289.5t-154.5 -237.5t-234.5 -158.5t-291 -58.5zM891 35q190 0 345 91t242 247t87 344t-87 344t-242 247
t-345 91t-345 -91t-242 -247t-87 -344t87 -344t242 -247t345 -91zM907 311q-176 0 -282.5 112.5t-106.5 293.5t106.5 293t282.5 112q109 0 194 -45.5t130 -134.5l-51 -33q-38 72 -111 112t-164 40q-141 0 -230 -94t-89 -250t89 -250t230 -94q91 0 164 39.5t111 111.5l51 -32
q-45 -88 -130.5 -134.5t-193.5 -46.5z" />
    <glyph glyph-name="ordfeminine" unicode="&#xaa;" horiz-adv-x="987" 
d="M512 1516q152 0 233.5 -81t81.5 -229v-585h-63v206q-29 -103 -120.5 -163t-221.5 -60q-140 0 -220.5 69.5t-80.5 188.5q0 120 83.5 185t241.5 65h316v94q0 123 -65.5 185.5t-188.5 62.5q-193 0 -287 -149l-47 38q54 85 140.5 129t197.5 44zM430 662q149 0 240.5 87.5
t91.5 235.5v72h-313q-259 0 -259 -193q0 -96 63.5 -149t176.5 -53z" />
    <glyph glyph-name="guillemotleft" unicode="&#xab;" horiz-adv-x="956" 
d="M387 938h80l-297 -424l297 -424h-80l-297 424zM850 938l-297 -424l297 -424h-82l-297 424l297 424h82z" />
    <glyph glyph-name="logicalnot" unicode="&#xac;" 
d="M291 680h872v-291h-67v229h-805v62z" />
    <glyph glyph-name="registered" unicode="&#xae;" horiz-adv-x="1191" 
d="M596 1462q187 0 315.5 -129.5t128.5 -316.5q0 -185 -128.5 -315t-315.5 -130t-315.5 130t-128.5 315q0 187 128.5 316.5t315.5 129.5zM596 614q168 0 281.5 117t113.5 285t-113.5 284.5t-281.5 116.5t-281.5 -116.5t-113.5 -284.5t113.5 -285t281.5 -117zM791 1114
q0 -64 -37.5 -101t-106.5 -42l152 -193h-64l-147 193h-101v-193h-55v479h195q79 0 121.5 -38t42.5 -105zM487 1208v-190h136q110 0 110 96q0 45 -28.5 69.5t-81.5 24.5h-136z" />
    <glyph glyph-name="macron" unicode="&#xaf;" horiz-adv-x="1269" 
d="M338 1292v62h594v-62h-594z" />
    <glyph glyph-name="degree" unicode="&#xb0;" horiz-adv-x="745" 
d="M373 909q-121 0 -199 78.5t-78 196.5t78 197t199 79q120 0 198 -79t78 -197t-77.5 -196.5t-198.5 -78.5zM373 969q94 0 153.5 59.5t59.5 155.5q0 98 -59.5 157.5t-153.5 59.5t-153.5 -59.5t-59.5 -157.5q0 -96 59.5 -155.5t153.5 -59.5z" />
    <glyph glyph-name="plusminus" unicode="&#xb1;" 
d="M762 700h401v-61h-401v-397h-68v397h-403v61h403v398h68v-398zM291 0v63h872v-63h-872z" />
    <glyph glyph-name="uni00B2" unicode="&#xb2;" horiz-adv-x="675" 
d="M168 786h436v-59h-530v49l311 291q77 72 108 125t31 106q0 72 -48 115t-124 43q-157 0 -225 -166l-53 29q39 95 112.5 146t165.5 51q104 0 170 -61t66 -155q0 -123 -146 -258z" />
    <glyph glyph-name="uni00B3" unicode="&#xb3;" horiz-adv-x="665" 
d="M426 1122q80 -19 122 -66.5t42 -119.5q0 -100 -73 -161.5t-191 -61.5q-80 0 -149 29.5t-114 86.5l39 41q40 -49 98.5 -73.5t123.5 -24.5q95 0 148.5 46t53.5 120q0 76 -58.5 116t-172.5 40h-59v57h94q91 0 139.5 40t48.5 109q0 70 -49 113t-131 43q-70 0 -128 -30.5
t-93 -86.5l-43 39q44 67 112.5 102.5t151.5 35.5q112 0 178 -58.5t66 -152.5q0 -71 -41 -120.5t-115 -62.5z" />
    <glyph glyph-name="acute" unicode="&#xb4;" horiz-adv-x="1269" 
d="M580 1202l251 314h87l-263 -314h-75z" />
    <glyph glyph-name="uni00B5" unicode="&#xb5;" horiz-adv-x="1249" 
d="M979 1028h70v-1028h-70v233q-39 -120 -144.5 -190t-252.5 -70q-233 0 -314 185v-609h-69v1479h69v-622q0 -367 318 -367q175 0 284 105t109 290v594z" />
    <glyph glyph-name="paragraph" unicode="&#xb6;" horiz-adv-x="1298" 
d="M539 -266v1116h-43q-177 0 -273 82.5t-96 208.5q0 129 99 211t290 82h92v-1700h-69zM944 -266v1700h70v-1700h-70z" />
    <glyph glyph-name="periodcentered" unicode="&#xb7;" horiz-adv-x="450" 
d="M225 674q-28 0 -45.5 17.5t-17.5 45.5q0 27 18 44.5t45 17.5q28 0 46 -18t18 -44q0 -28 -18 -45.5t-46 -17.5z" />
    <glyph glyph-name="cedilla" unicode="&#xb8;" horiz-adv-x="1269" 
d="M481 -397l142 413h63l-131 -413h-74z" />
    <glyph glyph-name="uni00B9" unicode="&#xb9;" horiz-adv-x="493" 
d="M297 1501h53v-774h-63v705l-219 -113v63z" />
    <glyph glyph-name="ordmasculine" unicode="&#xba;" horiz-adv-x="1112" 
d="M555 598q-197 0 -318.5 130t-121.5 329q0 200 121.5 329.5t318.5 129.5t318.5 -129.5t121.5 -329.5q0 -199 -121.5 -329t-318.5 -130zM555 659q163 0 267 111t104 287t-104 286.5t-267 110.5t-266 -110t-103 -287t103 -287.5t266 -110.5z" />
    <glyph glyph-name="guillemotright" unicode="&#xbb;" horiz-adv-x="956" 
d="M106 938h82l297 -424l-297 -424h-82l297 424zM571 938l295 -424l-295 -424h-82l297 424l-297 424h82z" />
    <glyph glyph-name="onequarter" unicode="&#xbc;" horiz-adv-x="1536" 
d="M369 672v706l-219 -114v63l229 119h53v-774h-63zM1196 1434h74l-1004 -1434h-73zM1348 225v-55h-121v-182h-60v182h-426v55l408 537h78v-537h121zM811 225h356v469z" />
    <glyph glyph-name="onehalf" unicode="&#xbd;" horiz-adv-x="1536" 
d="M352 672v704l-219 -112v63l229 119h54v-774h-64zM1182 1434h73l-1003 -1434h-74zM958 47h437v-59h-531v49l312 291q77 72 108 125t31 106q0 72 -48 115t-124 43q-157 0 -225 -166l-52 29q38 95 111 145.5t166 50.5q104 0 170.5 -60.5t66.5 -154.5q0 -122 -147 -258z" />
    <glyph glyph-name="threequarters" unicode="&#xbe;" horiz-adv-x="1536" 
d="M623 881q0 -100 -73.5 -162t-191.5 -62q-79 0 -148 30t-112 87l39 41q79 -98 221 -98q93 0 147 46t54 120q0 155 -231 155h-60v58h94q92 0 140.5 40t48.5 109q0 70 -48 113t-132 43q-69 0 -126.5 -30.5t-94.5 -86.5l-44 39q45 66 114.5 101.5t150.5 35.5
q112 0 177.5 -58.5t65.5 -152.5q0 -73 -40.5 -121t-114.5 -61q164 -41 164 -186zM1282 1434h74l-1004 -1434h-73zM1432 225v-55h-119v-182h-62v182h-426v55l408 537h80v-537h119zM895 225h356v469z" />
    <glyph glyph-name="questiondown" unicode="&#xbf;" horiz-adv-x="927" 
d="M504 1028q27 0 44 -18.5t17 -46.5q0 -27 -17 -44.5t-44 -17.5q-29 0 -46.5 17.5t-17.5 44.5q0 28 17.5 46.5t46.5 18.5zM539 635v-133q0 -102 -28 -154.5t-124 -130.5l-100 -84q-135 -115 -135 -252q0 -117 79 -183.5t207 -66.5q122 0 222 63t155 179l57 -37
q-58 -128 -173.5 -200t-260.5 -72q-161 0 -259.5 86.5t-98.5 230.5q0 86 40.5 161t133.5 151l100 83q73 63 93 103t20 123v133h72z" />
    <glyph glyph-name="Agrave" unicode="&#xc0;" horiz-adv-x="1396" 
d="M807 1608h-76l-264 313h88zM1270 0l-185 438h-774l-184 -438h-76l606 1434h82l607 -1434h-76zM340 506h717l-359 850z" />
    <glyph glyph-name="Aacute" unicode="&#xc1;" horiz-adv-x="1396" 
d="M932 1921l-262 -313h-76l252 313h86zM1270 0l-185 438h-774l-184 -438h-76l606 1434h82l607 -1434h-76zM340 506h717l-359 850z" />
    <glyph glyph-name="Acircumflex" unicode="&#xc2;" horiz-adv-x="1396" 
d="M698 1876l-241 -268h-76l283 313h69l283 -313h-76zM1270 0l-185 438h-774l-184 -438h-76l606 1434h82l607 -1434h-76zM340 506h717l-359 850z" />
    <glyph glyph-name="Atilde" unicode="&#xc3;" horiz-adv-x="1396" 
d="M553 1810q-44 0 -71 -38t-27 -105h-56q0 92 42.5 145.5t109.5 53.5q40 0 78 -19.5t90 -68.5q41 -39 67.5 -53.5t57.5 -14.5q44 0 71 38.5t27 106.5h55q0 -93 -42 -146.5t-109 -53.5q-40 0 -78 19t-92 69q-38 38 -65 52.5t-58 14.5zM1270 0l-185 438h-774l-184 -438h-76
l606 1434h82l607 -1434h-76zM340 506h717l-359 850z" />
    <glyph glyph-name="Adieresis" unicode="&#xc4;" horiz-adv-x="1396" 
d="M487 1710q-27 0 -45 18t-18 44t17.5 43.5t45.5 17.5q26 0 44 -17.5t18 -43.5t-18 -44t-44 -18zM909 1710q-26 0 -43.5 18t-17.5 44t17.5 43.5t43.5 17.5q28 0 46 -17.5t18 -43.5t-18 -44t-46 -18zM1270 0l-185 438h-774l-184 -438h-76l606 1434h82l607 -1434h-76z
M340 506h717l-359 850z" />
    <glyph glyph-name="Aring" unicode="&#xc5;" horiz-adv-x="1396" 
d="M698 1608q-95 0 -157 61t-62 152q0 90 62 150.5t157 60.5t157.5 -60.5t62.5 -150.5q0 -91 -62.5 -152t-157.5 -61zM698 1978q-72 0 -115.5 -44t-43.5 -113q0 -70 44 -114t115 -44q72 0 116 44.5t44 113.5t-44 113t-116 44zM1270 0l-185 438h-774l-184 -438h-76l606 1434
h82l607 -1434h-76zM340 506h717l-359 850z" />
    <glyph glyph-name="AE" unicode="&#xc6;" horiz-adv-x="2211" 
d="M1174 68h872v-68h-946v410h-684l-293 -410h-84l1026 1434h960v-68h-851v-608h817v-68h-817v-622zM463 477h637v891z" />
    <glyph glyph-name="Ccedilla" unicode="&#xc7;" horiz-adv-x="1595" 
d="M868 43q186 0 332 87t215 247l62 -33q-72 -170 -233 -269t-367 -102l-117 -370h-74l127 372q-292 19 -476.5 226t-184.5 516q0 212 91 382t254.5 265.5t368.5 95.5q209 0 373.5 -99t237.5 -271l-62 -33q-69 160 -215 247t-332 87q-137 0 -255.5 -49.5t-203 -137.5
t-132.5 -214t-48 -273t48 -273t132.5 -214t203 -137.5t255.5 -49.5z" />
    <glyph glyph-name="Egrave" unicode="&#xc8;" horiz-adv-x="1357" 
d="M805 1608h-76l-264 313h88zM317 68h873v-68h-946v1434h925v-68h-852v-608h816v-68h-816v-622z" />
    <glyph glyph-name="Eacute" unicode="&#xc9;" horiz-adv-x="1357" 
d="M928 1921l-262 -313h-76l252 313h86zM317 68h873v-68h-946v1434h925v-68h-852v-608h816v-68h-816v-622z" />
    <glyph glyph-name="Ecircumflex" unicode="&#xca;" horiz-adv-x="1357" 
d="M694 1876l-241 -268h-76l282 313h70l283 -313h-76zM317 68h873v-68h-946v1434h925v-68h-852v-608h816v-68h-816v-622z" />
    <glyph glyph-name="Edieresis" unicode="&#xcb;" horiz-adv-x="1357" 
d="M483 1710q-27 0 -45 18t-18 44t17.5 43.5t45.5 17.5q26 0 44 -17.5t18 -43.5t-18 -44t-44 -18zM905 1710q-26 0 -43.5 18t-17.5 44t17.5 43.5t43.5 17.5q28 0 46 -17.5t18 -43.5t-18 -44t-46 -18zM317 68h873v-68h-946v1434h925v-68h-852v-608h816v-68h-816v-622z" />
    <glyph glyph-name="Igrave" unicode="&#xcc;" horiz-adv-x="569" 
d="M393 1608h-76l-264 313h88zM248 0v1434h74v-1434h-74z" />
    <glyph glyph-name="Iacute" unicode="&#xcd;" horiz-adv-x="569" 
d="M180 1608l252 313h86l-262 -313h-76zM248 0v1434h74v-1434h-74z" />
    <glyph glyph-name="Icircumflex" unicode="&#xce;" horiz-adv-x="569" 
d="M319 1921l283 -313h-76l-241 268l-242 -268h-76l283 313h69zM248 0v1434h74v-1434h-74z" />
    <glyph glyph-name="Idieresis" unicode="&#xcf;" horiz-adv-x="569" 
d="M74 1710q-28 0 -46 18t-18 44t18 43.5t46 17.5q26 0 43.5 -17.5t17.5 -43.5t-17.5 -44t-43.5 -18zM496 1710q-26 0 -44 18t-18 44t18 43.5t44 17.5q28 0 45.5 -17.5t17.5 -43.5t-17.5 -44t-45.5 -18zM248 0v1434h74v-1434h-74z" />
    <glyph glyph-name="Eth" unicode="&#xd0;" horiz-adv-x="1597" 
d="M729 1434q327 0 521 -188.5t194 -528.5t-194 -528.5t-521 -188.5h-455v686h-223v62h223v686h455zM729 68q294 0 466.5 168.5t172.5 480.5t-172.5 480.5t-466.5 168.5h-381v-618h457v-62h-457v-618h381z" />
    <glyph glyph-name="Ntilde" unicode="&#xd1;" horiz-adv-x="1619" 
d="M666 1810q-44 0 -71.5 -38t-27.5 -105h-55q0 92 42.5 145.5t109.5 53.5q40 0 77.5 -19.5t89.5 -68.5q41 -39 67.5 -53.5t57.5 -14.5q44 0 71.5 38.5t27.5 106.5h55q0 -93 -42 -146.5t-110 -53.5q-40 0 -78 19t-92 69q-38 38 -64.5 52.5t-57.5 14.5zM1305 1434h71v-1434
h-73l-988 1321v-1321h-71v1434h73l988 -1321v1321z" />
    <glyph glyph-name="Ograve" unicode="&#xd2;" horiz-adv-x="1746" 
d="M983 1608h-76l-264 313h88zM872 -27q-205 0 -370 97.5t-257.5 267.5t-92.5 379q0 156 54.5 293.5t149 236.5t229 156t287.5 57q154 0 289 -57t230 -156t149.5 -236.5t54.5 -293.5q0 -209 -93 -379t-258.5 -267.5t-371.5 -97.5zM872 43q183 0 331 87t231.5 241t83.5 346
t-83.5 346t-231.5 241t-331 87q-182 0 -329 -87t-230.5 -241t-83.5 -346t83.5 -346t230.5 -241t329 -87z" />
    <glyph glyph-name="Oacute" unicode="&#xd3;" horiz-adv-x="1746" 
d="M768 1608l252 313h86l-262 -313h-76zM872 -27q-205 0 -370 97.5t-257.5 267.5t-92.5 379q0 156 54.5 293.5t149 236.5t229 156t287.5 57q154 0 289 -57t230 -156t149.5 -236.5t54.5 -293.5q0 -209 -93 -379t-258.5 -267.5t-371.5 -97.5zM872 43q183 0 331 87t231.5 241
t83.5 346t-83.5 346t-231.5 241t-331 87q-182 0 -329 -87t-230.5 -241t-83.5 -346t83.5 -346t230.5 -241t329 -87z" />
    <glyph glyph-name="Ocircumflex" unicode="&#xd4;" horiz-adv-x="1746" 
d="M872 1876l-241 -268h-76l283 313h69l283 -313h-76zM872 1460q154 0 289 -57t230 -156t149.5 -236.5t54.5 -293.5q0 -209 -93 -379t-258.5 -267.5t-371.5 -97.5q-205 0 -370 97.5t-257.5 267.5t-92.5 379q0 156 54.5 293.5t149 236.5t229 156t287.5 57zM872 43
q183 0 331 87t231.5 241t83.5 346t-83.5 346t-231.5 241t-331 87q-182 0 -329 -87t-230.5 -241t-83.5 -346t83.5 -346t230.5 -241t329 -87z" />
    <glyph glyph-name="Otilde" unicode="&#xd5;" horiz-adv-x="1746" 
d="M1020 1655q-40 0 -78 19t-92 69q-38 38 -65 52.5t-58 14.5q-44 0 -71 -38t-27 -105h-56q0 92 42.5 145.5t109.5 53.5q40 0 78 -19.5t90 -68.5q41 -39 67.5 -53.5t57.5 -14.5q44 0 71 38.5t27 106.5h55q0 -93 -42 -146.5t-109 -53.5zM872 -27q-205 0 -370 97.5
t-257.5 267.5t-92.5 379q0 156 54.5 293.5t149 236.5t229 156t287.5 57q154 0 289 -57t230 -156t149.5 -236.5t54.5 -293.5q0 -209 -93 -379t-258.5 -267.5t-371.5 -97.5zM872 43q183 0 331 87t231.5 241t83.5 346t-83.5 346t-231.5 241t-331 87q-182 0 -329 -87
t-230.5 -241t-83.5 -346t83.5 -346t230.5 -241t329 -87z" />
    <glyph glyph-name="Odieresis" unicode="&#xd6;" horiz-adv-x="1746" 
d="M662 1710q-28 0 -46 18t-18 44t18 43.5t46 17.5q26 0 43.5 -17.5t17.5 -43.5t-17.5 -44t-43.5 -18zM1083 1710q-26 0 -43.5 18t-17.5 44t17.5 43.5t43.5 17.5q28 0 46 -17.5t18 -43.5t-18 -44t-46 -18zM872 -27q-205 0 -370 97.5t-257.5 267.5t-92.5 379
q0 156 54.5 293.5t149 236.5t229 156t287.5 57q154 0 289 -57t230 -156t149.5 -236.5t54.5 -293.5q0 -209 -93 -379t-258.5 -267.5t-371.5 -97.5zM872 43q183 0 331 87t231.5 241t83.5 346t-83.5 346t-231.5 241t-331 87q-182 0 -329 -87t-230.5 -241t-83.5 -346t83.5 -346
t230.5 -241t329 -87z" />
    <glyph glyph-name="multiply" unicode="&#xd7;" 
d="M1104 981l-332 -332l332 -332l-45 -45l-332 332l-332 -332l-45 45l332 332l-332 332l45 45l332 -332l332 332z" />
    <glyph glyph-name="Oslash" unicode="&#xd8;" horiz-adv-x="1746" 
d="M1417 1217q178 -206 178 -500q0 -209 -93 -379t-258.5 -267.5t-371.5 -97.5q-147 0 -274.5 51.5t-224.5 145.5l-166 -166l-45 47l166 166q-176 208 -176 500q0 156 54.5 293.5t149 236.5t229 156t287.5 57q148 0 276.5 -51t225.5 -145l166 166l47 -46zM872 1391
q-182 0 -329 -87t-230.5 -241t-83.5 -346q0 -260 152 -449l942 944q-87 86 -203 132.5t-248 46.5zM872 43q183 0 331 87t231.5 241t83.5 346q0 263 -152 448l-942 -942q86 -86 201 -133t247 -47z" />
    <glyph glyph-name="Ugrave" unicode="&#xd9;" horiz-adv-x="1564" 
d="M891 1608h-76l-264 313h88zM782 -27q-257 0 -408 143.5t-151 397.5v920h74v-916q0 -225 129 -350t356 -125t356.5 125t129.5 350v916h73v-920q0 -254 -151 -397.5t-408 -143.5z" />
    <glyph glyph-name="Uacute" unicode="&#xda;" horiz-adv-x="1564" 
d="M678 1608l252 313h86l-262 -313h-76zM782 -27q-257 0 -408 143.5t-151 397.5v920h74v-916q0 -225 129 -350t356 -125t356.5 125t129.5 350v916h73v-920q0 -254 -151 -397.5t-408 -143.5z" />
    <glyph glyph-name="Ucircumflex" unicode="&#xdb;" horiz-adv-x="1564" 
d="M782 1876l-241 -268h-76l283 313h69l283 -313h-76zM1268 1434h73v-920q0 -254 -151 -397.5t-408 -143.5t-408 143.5t-151 397.5v920h74v-916q0 -225 129 -350t356 -125t356.5 125t129.5 350v916z" />
    <glyph glyph-name="Udieresis" unicode="&#xdc;" horiz-adv-x="1564" 
d="M571 1710q-27 0 -45 18t-18 44t17.5 43.5t45.5 17.5q26 0 44 -17.5t18 -43.5t-18 -44t-44 -18zM993 1710q-26 0 -43.5 18t-17.5 44t17.5 43.5t43.5 17.5q28 0 46 -17.5t18 -43.5t-18 -44t-46 -18zM782 -27q-257 0 -408 143.5t-151 397.5v920h74v-916q0 -225 129 -350
t356 -125t356.5 125t129.5 350v916h73v-920q0 -254 -151 -397.5t-408 -143.5z" />
    <glyph glyph-name="Yacute" unicode="&#xdd;" horiz-adv-x="1261" 
d="M864 1921l-262 -313h-76l252 313h86zM1155 1434h84l-571 -816v-618h-74v618l-571 816h83l525 -750z" />
    <glyph glyph-name="Thorn" unicode="&#xde;" horiz-adv-x="1382" 
d="M791 1161q227 0 352 -112.5t125 -313.5t-125 -313.5t-352 -112.5h-474v-309h-73v1434h73v-273h474zM786 377q198 0 303 91t105 267t-105 267.5t-303 91.5h-469v-717h469z" />
    <glyph glyph-name="germandbls" unicode="&#xdf;" horiz-adv-x="1230" 
d="M739 762q182 -9 279.5 -106t97.5 -265q0 -189 -119 -297t-331 -108q-76 0 -144 16v64q69 -17 135 -17q189 0 287 90t98 254q0 162 -95.5 245t-276.5 83h-150v63h60q180 0 279 88.5t99 257.5q0 157 -86.5 239.5t-248.5 82.5q-173 0 -264 -92t-91 -266v-1094h-69v1096
q0 202 112.5 311t311.5 109q190 0 297.5 -101.5t107.5 -284.5q0 -149 -74.5 -244t-214.5 -124z" />
    <glyph glyph-name="agrave" unicode="&#xe0;" horiz-adv-x="1140" 
d="M684 1202h-76l-264 314h88zM578 1053q179 0 274.5 -94t95.5 -265v-694h-67v240q-39 -120 -146 -189t-262 -69q-166 0 -261 81.5t-95 221.5q0 132 99 206t282 74h383v129q0 146 -79 220.5t-227 74.5q-234 0 -348 -178l-49 41q63 98 165.5 149.5t234.5 51.5zM481 43
q180 0 290 105.5t110 283.5v74h-381q-154 0 -233 -58t-79 -163q0 -115 77.5 -178.5t215.5 -63.5z" />
    <glyph glyph-name="aacute" unicode="&#xe1;" horiz-adv-x="1140" 
d="M807 1516l-262 -314h-76l252 314h86zM578 1053q179 0 274.5 -94t95.5 -265v-694h-67v240q-39 -120 -146 -189t-262 -69q-166 0 -261 81.5t-95 221.5q0 132 99 206t282 74h383v129q0 146 -79 220.5t-227 74.5q-234 0 -348 -178l-49 41q63 98 165.5 149.5t234.5 51.5z
M481 43q180 0 290 105.5t110 283.5v74h-381q-154 0 -233 -58t-79 -163q0 -115 77.5 -178.5t215.5 -63.5z" />
    <glyph glyph-name="acircumflex" unicode="&#xe2;" horiz-adv-x="1140" 
d="M575 1470l-241 -268h-76l283 314h69l283 -314h-76zM578 1053q179 0 274.5 -94t95.5 -265v-694h-67v240q-39 -120 -146 -189t-262 -69q-166 0 -261 81.5t-95 221.5q0 132 99 206t282 74h383v129q0 146 -79 220.5t-227 74.5q-234 0 -348 -178l-49 41q63 98 165.5 149.5
t234.5 51.5zM481 43q180 0 290 105.5t110 283.5v74h-381q-154 0 -233 -58t-79 -163q0 -115 77.5 -178.5t215.5 -63.5z" />
    <glyph glyph-name="atilde" unicode="&#xe3;" horiz-adv-x="1140" 
d="M430 1405q-44 0 -71 -38t-27 -105h-56q0 92 42.5 145t109.5 53q40 0 78 -19.5t90 -68.5q41 -39 67.5 -53t57.5 -14q44 0 71 38.5t27 106.5h55q0 -94 -42 -147.5t-109 -53.5q-40 0 -78 19t-92 69q-38 38 -65 53t-58 15zM578 1053q179 0 274.5 -94t95.5 -265v-694h-67v240
q-39 -120 -146 -189t-262 -69q-166 0 -261 81.5t-95 221.5q0 132 99 206t282 74h383v129q0 146 -79 220.5t-227 74.5q-234 0 -348 -178l-49 41q63 98 165.5 149.5t234.5 51.5zM481 43q180 0 290 105.5t110 283.5v74h-381q-154 0 -233 -58t-79 -163q0 -115 77.5 -178.5
t215.5 -63.5z" />
    <glyph glyph-name="adieresis" unicode="&#xe4;" horiz-adv-x="1140" 
d="M365 1305q-28 0 -46 17.5t-18 43.5t18 43.5t46 17.5q26 0 43.5 -17.5t17.5 -43.5t-17.5 -43.5t-43.5 -17.5zM786 1305q-26 0 -43.5 17.5t-17.5 43.5t17.5 43.5t43.5 17.5q28 0 46 -17.5t18 -43.5t-18 -43.5t-46 -17.5zM578 1053q179 0 274.5 -94t95.5 -265v-694h-67v240
q-39 -120 -146 -189t-262 -69q-166 0 -261 81.5t-95 221.5q0 132 99 206t282 74h383v129q0 146 -79 220.5t-227 74.5q-234 0 -348 -178l-49 41q63 98 165.5 149.5t234.5 51.5zM481 43q180 0 290 105.5t110 283.5v74h-381q-154 0 -233 -58t-79 -163q0 -115 77.5 -178.5
t215.5 -63.5z" />
    <glyph glyph-name="aring" unicode="&#xe5;" horiz-adv-x="1140" 
d="M575 1202q-95 0 -157 61t-62 152q0 90 62 150.5t157 60.5t157.5 -60.5t62.5 -150.5q0 -91 -62.5 -152t-157.5 -61zM575 1573q-71 0 -115 -44t-44 -114t44 -114t115 -44t115.5 44.5t44.5 113.5t-44.5 113.5t-115.5 44.5zM578 1053q179 0 274.5 -94t95.5 -265v-694h-67v240
q-39 -120 -146 -189t-262 -69q-166 0 -261 81.5t-95 221.5q0 132 99 206t282 74h383v129q0 146 -79 220.5t-227 74.5q-234 0 -348 -178l-49 41q63 98 165.5 149.5t234.5 51.5zM481 43q180 0 290 105.5t110 283.5v74h-381q-154 0 -233 -58t-79 -163q0 -115 77.5 -178.5
t215.5 -63.5z" />
    <glyph glyph-name="ae" unicode="&#xe6;" horiz-adv-x="1961" 
d="M1843 575q0 -29 -4 -65h-881q0 -217 121 -344t310 -127q120 0 219.5 53.5t160.5 151.5l50 -37q-66 -111 -178.5 -172.5t-251.5 -61.5q-168 0 -289 86.5t-172 239.5q-35 -154 -153.5 -240t-293.5 -86q-171 0 -267.5 82.5t-96.5 225.5q0 142 97.5 215t285.5 73h389v125
q0 145 -81.5 220t-232.5 75q-234 0 -348 -178l-49 41q129 201 402 201q159 0 252.5 -73t113.5 -212q60 135 173.5 210t260.5 75q201 0 332 -133.5t131 -344.5zM1380 987q-170 0 -286 -113t-133 -305h811q-1 192 -111.5 305t-280.5 113zM485 35q183 0 293.5 107t110.5 290v78
h-387q-314 0 -314 -229q0 -117 78 -181.5t219 -64.5z" />
    <glyph glyph-name="ccedilla" unicode="&#xe7;" horiz-adv-x="1167" 
d="M643 39q269 0 369 252l61 -29q-51 -135 -156.5 -208t-246.5 -81l-117 -370h-74l127 370q-220 12 -350.5 161.5t-130.5 379.5q0 239 141 389t371 150q156 0 269 -72t169 -217l-63 -27q-101 250 -369 250q-200 0 -322 -130t-122 -343q0 -214 121.5 -344.5t322.5 -130.5z
" />
    <glyph glyph-name="egrave" unicode="&#xe8;" horiz-adv-x="1218" 
d="M737 1202h-75l-265 314h88zM1100 569q0 -31 -4 -63h-899q1 -216 123.5 -341.5t316.5 -125.5q124 0 224.5 53.5t162.5 151.5l51 -37q-67 -111 -181 -172.5t-259 -61.5q-229 0 -369.5 147.5t-140.5 389.5q0 244 141 393.5t361 149.5q208 0 340.5 -133.5t132.5 -350.5z
M627 987q-174 0 -292.5 -114t-135.5 -308h829q0 194 -112 308t-289 114z" />
    <glyph glyph-name="eacute" unicode="&#xe9;" horiz-adv-x="1218" 
d="M860 1516l-262 -314h-76l252 314h86zM1100 569q0 -31 -4 -63h-899q1 -216 123.5 -341.5t316.5 -125.5q124 0 224.5 53.5t162.5 151.5l51 -37q-67 -111 -181 -172.5t-259 -61.5q-229 0 -369.5 147.5t-140.5 389.5q0 244 141 393.5t361 149.5q208 0 340.5 -133.5
t132.5 -350.5zM627 987q-174 0 -292.5 -114t-135.5 -308h829q0 194 -112 308t-289 114z" />
    <glyph glyph-name="ecircumflex" unicode="&#xea;" horiz-adv-x="1218" 
d="M629 1470l-242 -268h-76l283 314h70l282 -314h-76zM1100 569q0 -31 -4 -63h-899q1 -216 123.5 -341.5t316.5 -125.5q124 0 224.5 53.5t162.5 151.5l51 -37q-67 -111 -181 -172.5t-259 -61.5q-229 0 -369.5 147.5t-140.5 389.5q0 244 141 393.5t361 149.5
q208 0 340.5 -133.5t132.5 -350.5zM627 987q-174 0 -292.5 -114t-135.5 -308h829q0 194 -112 308t-289 114z" />
    <glyph glyph-name="edieresis" unicode="&#xeb;" horiz-adv-x="1218" 
d="M418 1305q-28 0 -46 17.5t-18 43.5t18 43.5t46 17.5q26 0 43.5 -17.5t17.5 -43.5t-17.5 -43.5t-43.5 -17.5zM840 1305q-26 0 -44 17.5t-18 43.5t18 43.5t44 17.5q28 0 45.5 -17.5t17.5 -43.5t-17.5 -43.5t-45.5 -17.5zM1100 569q0 -31 -4 -63h-899q1 -216 123.5 -341.5
t316.5 -125.5q124 0 224.5 53.5t162.5 151.5l51 -37q-67 -111 -181 -172.5t-259 -61.5q-229 0 -369.5 147.5t-140.5 389.5q0 244 141 393.5t361 149.5q208 0 340.5 -133.5t132.5 -350.5zM627 987q-174 0 -292.5 -114t-135.5 -308h829q0 194 -112 308t-289 114z" />
    <glyph glyph-name="igrave" unicode="&#xec;" horiz-adv-x="473" 
d="M270 1202l-229 314h86l219 -314h-76zM201 0v1028h69v-1028h-69z" />
    <glyph glyph-name="iacute" unicode="&#xed;" horiz-adv-x="473" 
d="M133 1202l219 314h86l-229 -314h-76zM201 0v1028h69v-1028h-69z" />
    <glyph glyph-name="icircumflex" unicode="&#xee;" horiz-adv-x="473" 
d="M272 1516l254 -314h-73l-215 268l-215 -268h-74l254 314h69zM201 0v1028h69v-1028h-69z" />
    <glyph glyph-name="idieresis" unicode="&#xef;" horiz-adv-x="473" 
d="M51 1305q-28 0 -45.5 17.5t-17.5 43.5t17.5 43.5t45.5 17.5q26 0 44 -17.5t18 -43.5t-18 -43.5t-44 -17.5zM424 1305q-26 0 -44 17.5t-18 43.5t18 43.5t44 17.5q28 0 45.5 -17.5t17.5 -43.5t-17.5 -43.5t-45.5 -17.5zM201 0v1028h69v-1028h-69z" />
    <glyph glyph-name="eth" unicode="&#xf0;" horiz-adv-x="1288" 
d="M801 1325q177 -142 269.5 -348.5t92.5 -458.5q0 -229 -127 -375q-69 -80 -169.5 -125t-221.5 -45q-232 0 -376 150t-144 377q0 226 143.5 376t374.5 150q140 0 251 -61.5t173 -180.5q-75 312 -317 504l-254 -178l-33 43l239 168q-137 96 -311 154l19 53q197 -62 346 -168
l237 166l33 -43zM645 39q196 0 320.5 129t124.5 332q0 204 -124.5 333.5t-320.5 129.5q-198 0 -322 -129.5t-124 -333.5q0 -203 124 -332t322 -129z" />
    <glyph glyph-name="ntilde" unicode="&#xf1;" horiz-adv-x="1241" 
d="M479 1405q-44 0 -71 -38t-27 -105h-55q0 92 42 145t109 53q40 0 78 -19.5t90 -68.5q41 -39 67.5 -53t57.5 -14q44 0 71 38.5t27 106.5h56q0 -93 -42.5 -147t-109.5 -54q-40 0 -78 19t-92 69q-38 38 -65 53t-58 15zM674 1053q184 0 279.5 -107t95.5 -315v-631h-70v621
q0 366 -315 366q-174 0 -285 -102.5t-111 -280.5v-604h-69v1028h69v-235q40 121 147 190.5t259 69.5z" />
    <glyph glyph-name="ograve" unicode="&#xf2;" horiz-adv-x="1288" 
d="M754 1202h-76l-264 314h88zM645 -27q-233 0 -376.5 152.5t-143.5 388.5q0 235 143.5 387t376.5 152q232 0 375 -152t143 -387q0 -236 -143 -388.5t-375 -152.5zM645 39q197 0 321 131t124 344q0 211 -124 342t-321 131q-199 0 -322.5 -130.5t-123.5 -342.5
q0 -213 123.5 -344t322.5 -131z" />
    <glyph glyph-name="oacute" unicode="&#xf3;" horiz-adv-x="1288" 
d="M539 1202l252 314h86l-263 -314h-75zM645 -27q-233 0 -376.5 152.5t-143.5 388.5q0 235 143.5 387t376.5 152q232 0 375 -152t143 -387q0 -236 -143 -388.5t-375 -152.5zM645 39q197 0 321 131t124 344q0 211 -124 342t-321 131q-199 0 -322.5 -130.5t-123.5 -342.5
q0 -213 123.5 -344t322.5 -131z" />
    <glyph glyph-name="ocircumflex" unicode="&#xf4;" horiz-adv-x="1288" 
d="M645 1470l-242 -268h-75l282 314h70l283 -314h-76zM645 1053q232 0 375 -152t143 -387q0 -236 -143 -388.5t-375 -152.5q-233 0 -376.5 152.5t-143.5 388.5q0 235 143.5 387t376.5 152zM645 39q197 0 321 131t124 344q0 211 -124 342t-321 131q-199 0 -322.5 -130.5
t-123.5 -342.5q0 -213 123.5 -344t322.5 -131z" />
    <glyph glyph-name="otilde" unicode="&#xf5;" horiz-adv-x="1288" 
d="M793 1249q-40 0 -78 19t-92 69q-38 38 -65 53t-58 15q-44 0 -71.5 -38t-27.5 -105h-55q0 92 42.5 145t109.5 53q40 0 78 -19.5t90 -68.5q41 -39 67.5 -53t57.5 -14q44 0 71 38.5t27 106.5h55q0 -94 -42 -147.5t-109 -53.5zM645 -27q-233 0 -376.5 152.5t-143.5 388.5
q0 235 143.5 387t376.5 152q232 0 375 -152t143 -387q0 -236 -143 -388.5t-375 -152.5zM645 39q197 0 321 131t124 344q0 211 -124 342t-321 131q-199 0 -322.5 -130.5t-123.5 -342.5q0 -213 123.5 -344t322.5 -131z" />
    <glyph glyph-name="odieresis" unicode="&#xf6;" horiz-adv-x="1288" 
d="M434 1305q-28 0 -45.5 17.5t-17.5 43.5t17.5 43.5t45.5 17.5q26 0 44 -17.5t18 -43.5t-18 -43.5t-44 -17.5zM856 1305q-26 0 -43.5 17.5t-17.5 43.5t17.5 43.5t43.5 17.5q28 0 46 -17.5t18 -43.5t-18 -43.5t-46 -17.5zM645 -27q-233 0 -376.5 152.5t-143.5 388.5
q0 235 143.5 387t376.5 152q232 0 375 -152t143 -387q0 -236 -143 -388.5t-375 -152.5zM645 39q197 0 321 131t124 344q0 211 -124 342t-321 131q-199 0 -322.5 -130.5t-123.5 -342.5q0 -213 123.5 -344t322.5 -131z" />
    <glyph glyph-name="divide" unicode="&#xf7;" 
d="M727 944q-27 0 -44 17.5t-17 44.5q0 28 16.5 45.5t44.5 17.5t44.5 -17.5t16.5 -45.5q0 -27 -17 -44.5t-44 -17.5zM291 618v62h872v-62h-872zM727 229q-27 0 -44 17.5t-17 44.5t17 44t44 17t44 -17t17 -44t-17 -44.5t-44 -17.5z" />
    <glyph glyph-name="oslash" unicode="&#xf8;" horiz-adv-x="1296" 
d="M1184 1006l-133 -136q116 -140 116 -356q0 -236 -143 -388.5t-375 -152.5q-218 0 -362 138l-131 -134l-43 46l133 133q-117 145 -117 358q0 235 143.5 387t376.5 152q216 0 361 -135l131 131zM649 987q-199 0 -322.5 -130.5t-123.5 -342.5q0 -185 96 -311l662 661
q-123 123 -312 123zM649 39q197 0 321 131t124 344q0 180 -95 309l-663 -663q121 -121 313 -121z" />
    <glyph glyph-name="ugrave" unicode="&#xf9;" horiz-adv-x="1232" 
d="M721 1202h-76l-264 314h88zM963 1028h69v-1028h-69v236q-40 -123 -147 -193t-259 -70q-182 0 -274.5 106t-92.5 312v637h70v-622q0 -367 309 -367q174 0 284 103t110 280v606z" />
    <glyph glyph-name="uacute" unicode="&#xfa;" horiz-adv-x="1232" 
d="M844 1516l-262 -314h-76l252 314h86zM963 1028h69v-1028h-69v236q-40 -123 -147 -193t-259 -70q-182 0 -274.5 106t-92.5 312v637h70v-622q0 -367 309 -367q174 0 284 103t110 280v606z" />
    <glyph glyph-name="ucircumflex" unicode="&#xfb;" horiz-adv-x="1232" 
d="M612 1470l-241 -268h-76l283 314h69l283 -314h-76zM963 1028h69v-1028h-69v236q-40 -123 -147 -193t-259 -70q-182 0 -274.5 106t-92.5 312v637h70v-622q0 -367 309 -367q174 0 284 103t110 280v606z" />
    <glyph glyph-name="udieresis" unicode="&#xfc;" horiz-adv-x="1232" 
d="M401 1305q-28 0 -45.5 17.5t-17.5 43.5t17.5 43.5t45.5 17.5q26 0 44 -17.5t18 -43.5t-18 -43.5t-44 -17.5zM823 1305q-26 0 -43.5 17.5t-17.5 43.5t17.5 43.5t43.5 17.5q28 0 46 -17.5t18 -43.5t-18 -43.5t-46 -17.5zM963 1028h69v-1028h-69v236q-40 -123 -147 -193
t-259 -70q-182 0 -274.5 106t-92.5 312v637h70v-622q0 -367 309 -367q174 0 284 103t110 280v606z" />
    <glyph glyph-name="yacute" unicode="&#xfd;" horiz-adv-x="1060" 
d="M762 1516l-262 -314h-76l252 314h86zM944 1028h74l-610 -1436h-74l168 398l-453 1038h76l416 -958z" />
    <glyph glyph-name="thorn" unicode="&#xfe;" horiz-adv-x="1343" 
d="M715 1053q224 0 364 -150.5t140 -388.5t-140 -389.5t-364 -151.5q-161 0 -280 83t-167 225v-691h-69v1909h69v-751q47 142 166 223.5t281 81.5zM705 39q193 0 316.5 132.5t123.5 342.5t-123.5 341.5t-316.5 131.5t-316 -131.5t-123 -341.5t123 -342.5t316 -132.5z" />
    <glyph glyph-name="ydieresis" unicode="&#xff;" horiz-adv-x="1060" 
d="M317 1305q-27 0 -44 17t-17 44t17 44t44 17t44.5 -17.5t17.5 -43.5t-17.5 -43.5t-44.5 -17.5zM741 1305q-28 0 -45.5 17.5t-17.5 43.5t17.5 43.5t45.5 17.5q26 0 44 -17.5t18 -43.5t-18 -43.5t-44 -17.5zM944 1028h74l-610 -1436h-74l168 398l-453 1038h76l416 -958z" />
    <glyph glyph-name="Amacron" unicode="&#x100;" horiz-adv-x="1396" 
d="M995 1759v-61h-594v61h594zM1270 0l-185 438h-774l-184 -438h-76l606 1434h82l607 -1434h-76zM340 506h717l-359 850z" />
    <glyph glyph-name="amacron" unicode="&#x101;" horiz-adv-x="1140" 
d="M872 1354v-62h-593v62h593zM578 1053q179 0 274.5 -94t95.5 -265v-694h-67v240q-39 -120 -146 -189t-262 -69q-166 0 -261 81.5t-95 221.5q0 132 99 206t282 74h383v129q0 146 -79 220.5t-227 74.5q-234 0 -348 -178l-49 41q63 98 165.5 149.5t234.5 51.5zM481 43
q180 0 290 105.5t110 283.5v74h-381q-154 0 -233 -58t-79 -163q0 -115 77.5 -178.5t215.5 -63.5z" />
    <glyph glyph-name="Abreve" unicode="&#x102;" horiz-adv-x="1396" 
d="M698 1618q-270 0 -270 248v4h66q0 -100 49.5 -148.5t154.5 -48.5t155 48.5t50 148.5h66v-4q0 -122 -68.5 -185t-202.5 -63zM1270 0l-185 438h-774l-184 -438h-76l606 1434h82l607 -1434h-76zM340 506h717l-359 850z" />
    <glyph glyph-name="abreve" unicode="&#x103;" horiz-adv-x="1140" 
d="M575 1212q-270 0 -270 248v4h66q0 -100 49.5 -148t154.5 -48t155 48t50 148h66v-4q0 -122 -68.5 -185t-202.5 -63zM578 1053q179 0 274.5 -94t95.5 -265v-694h-67v240q-39 -120 -146 -189t-262 -69q-166 0 -261 81.5t-95 221.5q0 132 99 206t282 74h383v129
q0 146 -79 220.5t-227 74.5q-234 0 -348 -178l-49 41q63 98 165.5 149.5t234.5 51.5zM481 43q180 0 290 105.5t110 283.5v74h-381q-154 0 -233 -58t-79 -163q0 -115 77.5 -178.5t215.5 -63.5z" />
    <glyph glyph-name="Aogonek" unicode="&#x104;" horiz-adv-x="1396" 
d="M1143 -252q0 -62 43.5 -92.5t136.5 -30.5h23v-61h-27q-122 0 -183 47t-61 131q0 151 195 260l-185 436h-774l-184 -438h-76l606 1434h82l607 -1434q-106 -65 -154.5 -126t-48.5 -126zM340 506h717l-359 850z" />
    <glyph glyph-name="aogonek" unicode="&#x105;" horiz-adv-x="1140" 
d="M948 0q-106 -65 -154.5 -126t-48.5 -126q0 -123 181 -123h22v-61h-26q-122 0 -183 47t-61 131q0 153 203 266v232q-39 -120 -146 -189t-262 -69q-166 0 -261 81.5t-95 221.5q0 132 99 206t282 74h383v129q0 146 -79 220.5t-227 74.5q-234 0 -348 -178l-49 41
q63 98 165.5 149.5t234.5 51.5q179 0 274.5 -94t95.5 -265v-694zM481 43q180 0 290 105.5t110 283.5v74h-381q-154 0 -233 -58t-79 -163q0 -115 77.5 -178.5t215.5 -63.5z" />
    <glyph glyph-name="Cacute" unicode="&#x106;" horiz-adv-x="1595" 
d="M758 1608l252 313h86l-262 -313h-76zM866 -27q-206 0 -369.5 96t-254 265.5t-90.5 382.5q0 212 91 382t254.5 265.5t368.5 95.5q209 0 373.5 -99t237.5 -271l-62 -33q-69 160 -215 247t-332 87q-137 0 -255.5 -49.5t-203 -137.5t-132.5 -214t-48 -273t48 -273t132.5 -214
t203 -137.5t255.5 -49.5q186 0 332 87t215 247l62 -33q-73 -172 -237.5 -271.5t-373.5 -99.5z" />
    <glyph glyph-name="cacute" unicode="&#x107;" horiz-adv-x="1167" 
d="M530 1202l252 314h86l-262 -314h-76zM639 -27q-233 0 -373.5 151.5t-140.5 389.5q0 239 141 389t371 150q156 0 269 -72t169 -217l-63 -27q-101 250 -369 250q-200 0 -322 -130t-122 -343q0 -214 121.5 -344.5t322.5 -130.5q269 0 369 252l61 -29q-54 -143 -167.5 -216
t-266.5 -73z" />
    <glyph glyph-name="Ccircumflex" unicode="&#x108;" horiz-adv-x="1595" 
d="M864 1876l-241 -268h-76l282 313h70l283 -313h-76zM868 43q186 0 332 87t215 247l62 -33q-73 -172 -237.5 -271.5t-373.5 -99.5q-206 0 -369.5 96t-254 265.5t-90.5 382.5q0 212 91 382t254.5 265.5t368.5 95.5q209 0 373.5 -99t237.5 -271l-62 -33q-69 160 -215 247
t-332 87q-137 0 -255.5 -49.5t-203 -137.5t-132.5 -214t-48 -273t48 -273t132.5 -214t203 -137.5t255.5 -49.5z" />
    <glyph glyph-name="ccircumflex" unicode="&#x109;" horiz-adv-x="1167" 
d="M635 1470l-242 -268h-76l283 314h70l282 -314h-75zM643 39q269 0 369 252l61 -29q-54 -143 -167.5 -216t-266.5 -73q-233 0 -373.5 151.5t-140.5 389.5q0 239 141 389t371 150q156 0 269 -72t169 -217l-63 -27q-101 250 -369 250q-200 0 -322 -130t-122 -343
q0 -214 121.5 -344.5t322.5 -130.5z" />
    <glyph glyph-name="Cdotaccent" unicode="&#x10a;" horiz-adv-x="1595" 
d="M864 1710q-27 0 -44 17.5t-17 44.5t17 44t44 17q28 0 45 -17.5t17 -43.5q0 -27 -17.5 -44.5t-44.5 -17.5zM866 -27q-206 0 -369.5 96t-254 265.5t-90.5 382.5q0 212 91 382t254.5 265.5t368.5 95.5q209 0 373.5 -99t237.5 -271l-62 -33q-69 160 -215 247t-332 87
q-137 0 -255.5 -49.5t-203 -137.5t-132.5 -214t-48 -273t48 -273t132.5 -214t203 -137.5t255.5 -49.5q186 0 332 87t215 247l62 -33q-73 -172 -237.5 -271.5t-373.5 -99.5z" />
    <glyph glyph-name="cdotaccent" unicode="&#x10b;" horiz-adv-x="1167" 
d="M635 1305q-27 0 -44.5 17.5t-17.5 43.5t17.5 43.5t44.5 17.5t44 -17t17 -44t-17 -44t-44 -17zM639 -27q-233 0 -373.5 151.5t-140.5 389.5q0 239 141 389t371 150q156 0 269 -72t169 -217l-63 -27q-101 250 -369 250q-200 0 -322 -130t-122 -343q0 -214 121.5 -344.5
t322.5 -130.5q269 0 369 252l61 -29q-54 -143 -167.5 -216t-266.5 -73z" />
    <glyph glyph-name="Ccaron" unicode="&#x10c;" horiz-adv-x="1595" 
d="M899 1608h-70l-282 313h76l241 -268l242 268h76zM868 43q186 0 332 87t215 247l62 -33q-73 -172 -237.5 -271.5t-373.5 -99.5q-206 0 -369.5 96t-254 265.5t-90.5 382.5q0 212 91 382t254.5 265.5t368.5 95.5q209 0 373.5 -99t237.5 -271l-62 -33q-69 160 -215 247
t-332 87q-137 0 -255.5 -49.5t-203 -137.5t-132.5 -214t-48 -273t48 -273t132.5 -214t203 -137.5t255.5 -49.5z" />
    <glyph glyph-name="ccaron" unicode="&#x10d;" horiz-adv-x="1167" 
d="M670 1202h-70l-283 314h76l242 -269l242 269h75zM643 39q269 0 369 252l61 -29q-54 -143 -167.5 -216t-266.5 -73q-233 0 -373.5 151.5t-140.5 389.5q0 239 141 389t371 150q156 0 269 -72t169 -217l-63 -27q-101 250 -369 250q-200 0 -322 -130t-122 -343
q0 -214 121.5 -344.5t322.5 -130.5z" />
    <glyph glyph-name="Dcaron" unicode="&#x10e;" horiz-adv-x="1566" 
d="M754 1608h-70l-283 313h76l242 -268l242 268h75zM698 1434q327 0 521 -188.5t194 -528.5t-194 -528.5t-521 -188.5h-454v1434h454zM698 68q294 0 466.5 168.5t172.5 480.5t-172.5 480.5t-466.5 168.5h-381v-1298h381z" />
    <glyph glyph-name="dcaron" unicode="&#x10f;" horiz-adv-x="1425" 
d="M1075 748v751h70v-1499h-70v281q-48 -142 -166.5 -225t-279.5 -83q-224 0 -364 151.5t-140 389.5t140 388.5t364 150.5q162 0 280 -81.5t166 -223.5zM1348 1499h71l-16 -389h-55v389zM639 39q193 0 315.5 132.5t122.5 342.5t-122.5 341.5t-315.5 131.5t-316.5 -131.5
t-123.5 -341.5t123.5 -342.5t316.5 -132.5z" />
    <glyph glyph-name="Dcroat" unicode="&#x110;" horiz-adv-x="1603" 
d="M729 1434q327 0 521 -188.5t194 -528.5t-194 -528.5t-521 -188.5h-455v686h-223v62h223v686h455zM729 68q294 0 466.5 168.5t172.5 480.5t-172.5 480.5t-466.5 168.5h-381v-618h457v-62h-457v-618h381z" />
    <glyph glyph-name="dcroat" unicode="&#x111;" horiz-adv-x="1343" 
d="M1337 1298v-59h-192v-1239h-70v281q-48 -142 -166.5 -225t-279.5 -83q-223 0 -363.5 150t-140.5 383q0 234 140.5 383t363.5 149q162 0 280 -81.5t166 -223.5v506h-430v59h430v201h70v-201h192zM639 39q192 0 315 131.5t123 335.5q0 206 -123 337.5t-315 131.5t-316 -132
t-124 -337q0 -204 124 -335.5t316 -131.5z" />
    <glyph glyph-name="Emacron" unicode="&#x112;" horiz-adv-x="1357" 
d="M991 1759v-61h-594v61h594zM317 68h873v-68h-946v1434h925v-68h-852v-608h816v-68h-816v-622z" />
    <glyph glyph-name="emacron" unicode="&#x113;" horiz-adv-x="1218" 
d="M926 1354v-62h-594v62h594zM1100 569q0 -31 -4 -63h-899q1 -216 123.5 -341.5t316.5 -125.5q124 0 224.5 53.5t162.5 151.5l51 -37q-67 -111 -181 -172.5t-259 -61.5q-229 0 -369.5 147.5t-140.5 389.5q0 244 141 393.5t361 149.5q208 0 340.5 -133.5t132.5 -350.5z
M627 987q-174 0 -292.5 -114t-135.5 -308h829q0 194 -112 308t-289 114z" />
    <glyph glyph-name="Ebreve" unicode="&#x114;" horiz-adv-x="1357" 
d="M694 1618q-270 0 -270 248v4h65q0 -100 50 -148.5t155 -48.5t155 48.5t50 148.5h66v-4q0 -122 -68.5 -185t-202.5 -63zM317 68h873v-68h-946v1434h925v-68h-852v-608h816v-68h-816v-622z" />
    <glyph glyph-name="ebreve" unicode="&#x115;" horiz-adv-x="1218" 
d="M629 1212q-134 0 -202.5 63t-68.5 185v4h66q0 -100 50 -148t155 -48t155 48t50 148h65v-4q0 -248 -270 -248zM1100 569q0 -31 -4 -63h-899q1 -216 123.5 -341.5t316.5 -125.5q124 0 224.5 53.5t162.5 151.5l51 -37q-67 -111 -181 -172.5t-259 -61.5q-229 0 -369.5 147.5
t-140.5 389.5q0 244 141 393.5t361 149.5q208 0 340.5 -133.5t132.5 -350.5zM627 987q-174 0 -292.5 -114t-135.5 -308h829q0 194 -112 308t-289 114z" />
    <glyph glyph-name="Edotaccent" unicode="&#x116;" horiz-adv-x="1357" 
d="M694 1710q-27 0 -44 17.5t-17 44.5t17 44t44 17q28 0 45 -17.5t17 -43.5q0 -27 -17.5 -44.5t-44.5 -17.5zM317 68h873v-68h-946v1434h925v-68h-852v-608h816v-68h-816v-622z" />
    <glyph glyph-name="edotaccent" unicode="&#x117;" horiz-adv-x="1218" 
d="M629 1305q-27 0 -44.5 17.5t-17.5 43.5t17.5 43.5t44.5 17.5t44 -17t17 -44t-17 -44t-44 -17zM1100 569q0 -31 -4 -63h-899q1 -216 123.5 -341.5t316.5 -125.5q124 0 224.5 53.5t162.5 151.5l51 -37q-67 -111 -181 -172.5t-259 -61.5q-229 0 -369.5 147.5t-140.5 389.5
q0 244 141 393.5t361 149.5q208 0 340.5 -133.5t132.5 -350.5zM627 987q-174 0 -292.5 -114t-135.5 -308h829q0 194 -112 308t-289 114z" />
    <glyph glyph-name="Eogonek" unicode="&#x118;" horiz-adv-x="1357" 
d="M1190 0q-106 -65 -154.5 -126t-48.5 -126q0 -62 43.5 -92.5t136.5 -30.5h23v-61h-27q-121 0 -182 47t-61 131q0 149 188 258h-864v1434h925v-68h-852v-608h816v-68h-816v-622h873v-68z" />
    <glyph glyph-name="eogonek" unicode="&#x119;" horiz-adv-x="1218" 
d="M1100 569q0 -31 -4 -63h-899q1 -216 123.5 -341.5t316.5 -125.5q124 0 224.5 53.5t162.5 151.5l51 -37q-66 -112 -188 -176q-101 -64 -147 -123.5t-46 -122.5q0 -62 43.5 -92.5t136.5 -30.5h23v-61h-27q-121 0 -182 47t-61 131q0 112 108 203q-50 -9 -100 -9
q-229 0 -369.5 147.5t-140.5 389.5q0 244 141 393.5t361 149.5q208 0 340.5 -133.5t132.5 -350.5zM627 987q-174 0 -292.5 -114t-135.5 -308h829q0 194 -112 308t-289 114z" />
    <glyph glyph-name="Ecaron" unicode="&#x11a;" horiz-adv-x="1357" 
d="M729 1608h-70l-282 313h76l241 -268l242 268h76zM317 68h873v-68h-946v1434h925v-68h-852v-608h816v-68h-816v-622z" />
    <glyph glyph-name="ecaron" unicode="&#x11b;" horiz-adv-x="1218" 
d="M664 1202h-70l-283 314h76l242 -269l241 269h76zM1100 569q0 -31 -4 -63h-899q1 -216 123.5 -341.5t316.5 -125.5q124 0 224.5 53.5t162.5 151.5l51 -37q-67 -111 -181 -172.5t-259 -61.5q-229 0 -369.5 147.5t-140.5 389.5q0 244 141 393.5t361 149.5
q208 0 340.5 -133.5t132.5 -350.5zM627 987q-174 0 -292.5 -114t-135.5 -308h829q0 194 -112 308t-289 114z" />
    <glyph glyph-name="Gcircumflex" unicode="&#x11c;" horiz-adv-x="1630" 
d="M862 1876l-241 -268h-76l282 313h70l283 -313h-76zM952 721h514v-526q-92 -106 -234.5 -164t-320.5 -58q-171 0 -313.5 54.5t-240 151.5t-151.5 234.5t-54 301.5q0 218 92.5 388t258 263.5t376.5 93.5q176 0 316.5 -65.5t225.5 -186.5l-59 -41q-75 107 -201 165.5
t-280 58.5q-186 0 -333.5 -82t-233 -237t-85.5 -359q0 -206 88 -359t241 -232t351 -79q153 0 281 47.5t203 128.5v434h-441v68z" />
    <glyph glyph-name="gcircumflex" unicode="&#x11d;" horiz-adv-x="1343" 
d="M668 1470l-242 -268h-76l283 314h69l283 -314h-76zM1075 1028h70v-930q0 -253 -138 -393.5t-384 -140.5q-148 0 -266.5 51.5t-190.5 142.5l45 49q68 -84 176 -131t236 -47q211 0 331.5 124t120.5 345v207q-48 -142 -166 -223.5t-280 -81.5q-223 0 -363.5 147.5
t-140.5 378.5t140.5 379t363.5 148q162 0 280 -81.5t166 -223.5v280zM639 66q192 0 315 129.5t123 330.5t-123 331t-315 130t-316 -130t-124 -331t124 -330.5t316 -129.5z" />
    <glyph glyph-name="Gbreve" unicode="&#x11e;" horiz-adv-x="1630" 
d="M862 1618q-270 0 -270 248v4h65q0 -100 50 -148.5t155 -48.5t155 48.5t50 148.5h66v-4q0 -122 -68.5 -185t-202.5 -63zM952 721h514v-526q-92 -106 -234.5 -164t-320.5 -58q-171 0 -313.5 54.5t-240 151.5t-151.5 234.5t-54 301.5q0 218 92.5 388t258 263.5t376.5 93.5
q176 0 316.5 -65.5t225.5 -186.5l-59 -41q-75 107 -201 165.5t-280 58.5q-186 0 -333.5 -82t-233 -237t-85.5 -359q0 -206 88 -359t241 -232t351 -79q153 0 281 47.5t203 128.5v434h-441v68z" />
    <glyph glyph-name="gbreve" unicode="&#x11f;" horiz-adv-x="1343" 
d="M668 1212q-134 0 -202.5 63t-68.5 185v4h66q0 -100 50 -148t155 -48t154.5 48t49.5 148h66v-4q0 -248 -270 -248zM1075 1028h70v-930q0 -253 -138 -393.5t-384 -140.5q-148 0 -266.5 51.5t-190.5 142.5l45 49q68 -84 176 -131t236 -47q211 0 331.5 124t120.5 345v207
q-48 -142 -166 -223.5t-280 -81.5q-223 0 -363.5 147.5t-140.5 378.5t140.5 379t363.5 148q162 0 280 -81.5t166 -223.5v280zM639 66q192 0 315 129.5t123 330.5t-123 331t-315 130t-316 -130t-124 -331t124 -330.5t316 -129.5z" />
    <glyph glyph-name="Gdotaccent" unicode="&#x120;" horiz-adv-x="1630" 
d="M862 1710q-27 0 -44 17.5t-17 44.5t17 44t44 17q28 0 45 -17.5t17 -43.5q0 -27 -17.5 -44.5t-44.5 -17.5zM952 721h514v-526q-92 -106 -234.5 -164t-320.5 -58q-171 0 -313.5 54.5t-240 151.5t-151.5 234.5t-54 301.5q0 218 92.5 388t258 263.5t376.5 93.5
q176 0 316.5 -65.5t225.5 -186.5l-59 -41q-75 107 -201 165.5t-280 58.5q-186 0 -333.5 -82t-233 -237t-85.5 -359q0 -206 88 -359t241 -232t351 -79q153 0 281 47.5t203 128.5v434h-441v68z" />
    <glyph glyph-name="gdotaccent" unicode="&#x121;" horiz-adv-x="1343" 
d="M668 1305q-28 0 -45 17.5t-17 43.5t17 43.5t45 17.5q27 0 44 -17t17 -44t-17 -44t-44 -17zM1075 1028h70v-930q0 -253 -138 -393.5t-384 -140.5q-148 0 -266.5 51.5t-190.5 142.5l45 49q68 -84 176 -131t236 -47q211 0 331.5 124t120.5 345v207q-48 -142 -166 -223.5
t-280 -81.5q-223 0 -363.5 147.5t-140.5 378.5t140.5 379t363.5 148q162 0 280 -81.5t166 -223.5v280zM639 66q192 0 315 129.5t123 330.5t-123 331t-315 130t-316 -130t-124 -331t124 -330.5t316 -129.5z" />
    <glyph glyph-name="uni0122" unicode="&#x122;" horiz-adv-x="1630" 
d="M952 721h514v-526q-92 -106 -234.5 -164t-320.5 -58q-171 0 -313.5 54.5t-240 151.5t-151.5 234.5t-54 301.5q0 218 92.5 388t258 263.5t376.5 93.5q176 0 316.5 -65.5t225.5 -186.5l-59 -41q-75 107 -201 165.5t-280 58.5q-186 0 -333.5 -82t-233 -237t-85.5 -359
q0 -206 88 -359t241 -232t351 -79q153 0 281 47.5t203 128.5v434h-441v68zM768 -537l82 336h74l-99 -336h-57z" />
    <glyph glyph-name="uni0123" unicode="&#x123;" horiz-adv-x="1343" 
d="M786 1565l-81 -336h-74l98 336h57zM1075 1028h70v-930q0 -253 -138 -393.5t-384 -140.5q-148 0 -266.5 51.5t-190.5 142.5l45 49q68 -84 176 -131t236 -47q211 0 331.5 124t120.5 345v207q-48 -142 -166 -223.5t-280 -81.5q-223 0 -363.5 147.5t-140.5 378.5t140.5 379
t363.5 148q162 0 280 -81.5t166 -223.5v280zM639 66q192 0 315 129.5t123 330.5t-123 331t-315 130t-316 -130t-124 -331t124 -330.5t316 -129.5z" />
    <glyph glyph-name="Hcircumflex" unicode="&#x124;" horiz-adv-x="1599" 
d="M801 1876l-242 -268h-76l283 313h70l282 -313h-76zM1282 1434h74v-1434h-74v702h-965v-702h-73v1434h73v-662h965v662z" />
    <glyph glyph-name="hcircumflex" unicode="&#x125;" horiz-adv-x="1241" 
d="M477 1673l-241 269l-242 -269h-76l283 314h69l283 -314h-76zM674 1053q184 0 279.5 -107t95.5 -315v-631h-70v621q0 366 -315 366q-174 0 -285 -102.5t-111 -280.5v-604h-69v1499h69v-706q40 121 147 190.5t259 69.5z" />
    <glyph glyph-name="Hbar" unicode="&#x126;" horiz-adv-x="1656" 
d="M1530 1126v-61h-146v-1065h-73v702h-965v-702h-74v1065h-145v61h145v308h74v-308h965v308h73v-308h146zM1311 772v293h-965v-293h965z" />
    <glyph glyph-name="hbar" unicode="&#x127;" horiz-adv-x="1241" 
d="M674 1038q183 0 279 -107t96 -313v-618h-70v608q0 367 -315 367q-174 0 -285 -103.5t-111 -281.5v-590h-69v1239h-193v59h193v201h69v-201h430v-59h-430v-461q40 122 146.5 191t259.5 69z" />
    <glyph glyph-name="Itilde" unicode="&#x128;" horiz-adv-x="569" 
d="M432 1655q-40 0 -78 19t-92 69q-38 38 -65 52.5t-58 14.5q-44 0 -71 -38t-27 -105h-55q0 92 42 145.5t109 53.5q40 0 78 -19.5t90 -68.5q41 -39 67.5 -53.5t57.5 -14.5q44 0 71 38.5t27 106.5h56q0 -93 -42 -146.5t-110 -53.5zM248 0v1434h74v-1434h-74z" />
    <glyph glyph-name="itilde" unicode="&#x129;" horiz-adv-x="473" 
d="M381 1249q-68 0 -164 88q-40 38 -66.5 53t-54.5 15q-36 0 -53.5 -33.5t-17.5 -109.5h-56q0 198 125 198q38 0 75 -20t87 -68q42 -39 68.5 -53t54.5 -14q72 0 72 145h55q0 -201 -125 -201zM201 0v1028h69v-1028h-69z" />
    <glyph glyph-name="Imacron" unicode="&#x12a;" horiz-adv-x="569" 
d="M-12 1698v61h594v-61h-594zM248 0v1434h74v-1434h-74z" />
    <glyph glyph-name="imacron" unicode="&#x12b;" horiz-adv-x="473" 
d="M-14 1292v62h503v-62h-503zM201 0v1028h69v-1028h-69z" />
    <glyph glyph-name="Ibreve" unicode="&#x12c;" horiz-adv-x="569" 
d="M285 1618q-134 0 -202.5 63t-68.5 185v4h66q0 -100 50 -148.5t155 -48.5t154.5 48.5t49.5 148.5h66v-4q0 -248 -270 -248zM248 0v1434h74v-1434h-74z" />
    <glyph glyph-name="ibreve" unicode="&#x12d;" horiz-adv-x="473" 
d="M238 1212q-258 0 -258 248v4h63q0 -100 47 -148t148 -48t147.5 48t46.5 148h64v-4q0 -248 -258 -248zM201 0v1028h69v-1028h-69z" />
    <glyph glyph-name="Iogonek" unicode="&#x12e;" horiz-adv-x="569" 
d="M322 0q-106 -65 -154.5 -126t-48.5 -126q0 -62 43.5 -92.5t136.5 -30.5h23v-61h-27q-122 0 -183 47t-61 131q0 150 197 262v1430h74v-1434z" />
    <glyph glyph-name="iogonek" unicode="&#x12f;" horiz-adv-x="473" 
d="M238 1427q27 0 44 -17t17 -44t-17 -44t-44 -17q-28 0 -45 17.5t-17 43.5t17 43.5t45 17.5zM201 6v1022h69v-1028q-106 -65 -154 -126t-48 -126q0 -62 43.5 -92.5t136.5 -30.5h22v-61h-26q-122 0 -183 47t-61 131q0 152 201 264z" />
    <glyph glyph-name="Idotaccent" unicode="&#x130;" horiz-adv-x="569" 
d="M285 1710q-27 0 -44.5 17.5t-17.5 44.5q0 26 17.5 43.5t44.5 17.5t44 -17t17 -44t-17 -44.5t-44 -17.5zM248 0v1434h74v-1434h-74z" />
    <glyph glyph-name="dotlessi" unicode="&#x131;" horiz-adv-x="473" 
d="M201 0v1028h69v-1028h-69z" />
    <glyph glyph-name="Jcircumflex" unicode="&#x134;" horiz-adv-x="1204" 
d="M977 1921l283 -313h-76l-242 268l-242 -268h-75l282 313h70zM907 518v916h74v-920q0 -256 -127.5 -398.5t-351.5 -142.5q-131 0 -244.5 51.5t-194.5 149.5l50 49q68 -88 169.5 -134t217.5 -46q188 0 297.5 121.5t109.5 353.5z" />
    <glyph glyph-name="jcircumflex" unicode="&#x135;" horiz-adv-x="473" 
d="M272 1516l254 -314h-73l-215 268l-215 -268h-74l254 314h69zM201 -172v1200h69v-1204q0 -126 -60 -194t-175 -68q-49 0 -98 14v64q50 -13 92 -13q84 0 128 52.5t44 148.5z" />
    <glyph glyph-name="uni0136" unicode="&#x136;" horiz-adv-x="1380" 
d="M700 805l646 -805h-89l-608 754l-332 -344v-410h-73v1434h73v-928l904 928h90zM588 -537l82 336h73l-98 -336h-57z" />
    <glyph glyph-name="uni0137" unicode="&#x137;" horiz-adv-x="1073" 
d="M567 582l486 -582h-86l-451 535l-248 -236v-299h-69v1497h69v-1114l678 643h92zM436 -537l82 336h74l-98 -336h-58z" />
    <glyph glyph-name="Lacute" unicode="&#x139;" horiz-adv-x="1220" 
d="M514 1921l-262 -313h-76l252 313h86zM317 68h824v-68h-897v1434h73v-1366z" />
    <glyph glyph-name="lacute" unicode="&#x13a;" horiz-adv-x="468" 
d="M131 1673l252 314h86l-262 -314h-76zM199 0v1499h69v-1499h-69z" />
    <glyph glyph-name="uni013B" unicode="&#x13b;" horiz-adv-x="1220" 
d="M317 68h824v-68h-897v1434h73v-1366zM551 -537l82 336h74l-99 -336h-57z" />
    <glyph glyph-name="uni013C" unicode="&#x13c;" horiz-adv-x="468" 
d="M199 0v1499h69v-1499h-69zM117 -537l82 336h73l-98 -336h-57z" />
    <glyph glyph-name="Lcaron" unicode="&#x13d;" horiz-adv-x="1220" 
d="M739 1460l-16 -389h-55v389h71zM317 68h824v-68h-897v1434h73v-1366z" />
    <glyph glyph-name="lcaron" unicode="&#x13e;" horiz-adv-x="569" 
d="M199 0v1499h69v-1499h-69zM473 1110v389h72l-17 -389h-55z" />
    <glyph glyph-name="Ldot" unicode="&#x13f;" horiz-adv-x="1232" 
d="M317 68h824v-68h-897v1434h73v-1366zM788 674q-29 0 -46 17.5t-17 45.5q0 27 17 44.5t46 17.5q28 0 46 -18t18 -44q0 -28 -18 -45.5t-46 -17.5z" />
    <glyph glyph-name="ldot" unicode="&#x140;" horiz-adv-x="661" 
d="M199 0v1499h69v-1499h-69zM543 674q-28 0 -46 17.5t-18 45.5q0 26 18 44t46 18q29 0 46 -17.5t17 -44.5q0 -28 -17 -45.5t-46 -17.5z" />
    <glyph glyph-name="Lslash" unicode="&#x141;" horiz-adv-x="1245" 
d="M342 68h823v-68h-897v557l-254 -131v70l254 131v807h74v-768l582 301v-70l-582 -301v-528z" />
    <glyph glyph-name="lslash" unicode="&#x142;" horiz-adv-x="624" 
d="M592 977v-68l-244 -131v-778h-69v741l-246 -133v66l246 133v692h69v-655z" />
    <glyph glyph-name="Nacute" unicode="&#x143;" horiz-adv-x="1619" 
d="M1042 1921l-262 -313h-75l251 313h86zM1305 1434h71v-1434h-73l-988 1321v-1321h-71v1434h73l988 -1321v1321z" />
    <glyph glyph-name="nacute" unicode="&#x144;" horiz-adv-x="1241" 
d="M856 1516l-262 -314h-76l252 314h86zM674 1053q184 0 279.5 -107t95.5 -315v-631h-70v621q0 366 -315 366q-174 0 -285 -102.5t-111 -280.5v-604h-69v1028h69v-235q40 121 147 190.5t259 69.5z" />
    <glyph glyph-name="uni0145" unicode="&#x145;" horiz-adv-x="1619" 
d="M1305 1434h71v-1434h-73l-988 1321v-1321h-71v1434h73l988 -1321v1321zM692 -537l82 336h74l-98 -336h-58z" />
    <glyph glyph-name="uni0146" unicode="&#x146;" horiz-adv-x="1241" 
d="M674 1053q184 0 279.5 -107t95.5 -315v-631h-70v621q0 366 -315 366q-174 0 -285 -102.5t-111 -280.5v-604h-69v1028h69v-235q40 121 147 190.5t259 69.5zM502 -537l82 336h73l-98 -336h-57z" />
    <glyph glyph-name="Ncaron" unicode="&#x147;" horiz-adv-x="1619" 
d="M846 1608h-70l-282 313h75l242 -268l242 268h75zM1305 1434h71v-1434h-73l-988 1321v-1321h-71v1434h73l988 -1321v1321z" />
    <glyph glyph-name="ncaron" unicode="&#x148;" horiz-adv-x="1241" 
d="M659 1202h-69l-283 314h76l242 -269l241 269h76zM674 1053q184 0 279.5 -107t95.5 -315v-631h-70v621q0 366 -315 366q-174 0 -285 -102.5t-111 -280.5v-604h-69v1028h69v-235q40 121 147 190.5t259 69.5z" />
    <glyph glyph-name="Eng" unicode="&#x14a;" horiz-adv-x="1619" 
d="M1305 1434h71v-1536q0 -114 -59.5 -174t-173.5 -60h-101v66h97q82 0 124 44.5t42 129.5v102l-990 1315v-1321h-71v1434h73l988 -1313v1313z" />
    <glyph glyph-name="eng" unicode="&#x14b;" horiz-adv-x="1241" 
d="M674 1053q184 0 279.5 -107t95.5 -315v-707q0 -125 -61 -192.5t-177 -67.5q-50 0 -96 14v64q43 -14 92 -14q84 0 128 52.5t44 149.5v691q0 366 -315 366q-174 0 -285 -102.5t-111 -280.5v-604h-69v1028h69v-235q40 121 147 190.5t259 69.5z" />
    <glyph glyph-name="Omacron" unicode="&#x14c;" horiz-adv-x="1746" 
d="M575 1698v61h594v-61h-594zM872 -27q-205 0 -370 97.5t-257.5 267.5t-92.5 379q0 156 54.5 293.5t149 236.5t229 156t287.5 57q154 0 289 -57t230 -156t149.5 -236.5t54.5 -293.5q0 -209 -93 -379t-258.5 -267.5t-371.5 -97.5zM872 43q183 0 331 87t231.5 241t83.5 346
t-83.5 346t-231.5 241t-331 87q-182 0 -329 -87t-230.5 -241t-83.5 -346t83.5 -346t230.5 -241t329 -87z" />
    <glyph glyph-name="omacron" unicode="&#x14d;" horiz-adv-x="1288" 
d="M348 1292v62h594v-62h-594zM645 -27q-233 0 -376.5 152.5t-143.5 388.5q0 235 143.5 387t376.5 152q232 0 375 -152t143 -387q0 -236 -143 -388.5t-375 -152.5zM645 39q197 0 321 131t124 344q0 211 -124 342t-321 131q-199 0 -322.5 -130.5t-123.5 -342.5
q0 -213 123.5 -344t322.5 -131z" />
    <glyph glyph-name="Obreve" unicode="&#x14e;" horiz-adv-x="1746" 
d="M872 1618q-270 0 -270 248v4h66q0 -100 49.5 -148.5t154.5 -48.5t155 48.5t50 148.5h66v-4q0 -122 -68.5 -185t-202.5 -63zM872 -27q-205 0 -370 97.5t-257.5 267.5t-92.5 379q0 156 54.5 293.5t149 236.5t229 156t287.5 57q154 0 289 -57t230 -156t149.5 -236.5
t54.5 -293.5q0 -209 -93 -379t-258.5 -267.5t-371.5 -97.5zM872 43q183 0 331 87t231.5 241t83.5 346t-83.5 346t-231.5 241t-331 87q-182 0 -329 -87t-230.5 -241t-83.5 -346t83.5 -346t230.5 -241t329 -87z" />
    <glyph glyph-name="obreve" unicode="&#x14f;" horiz-adv-x="1288" 
d="M645 1212q-270 0 -270 248v4h65q0 -100 50 -148t155 -48t155 48t50 148h65v-4q0 -248 -270 -248zM645 -27q-233 0 -376.5 152.5t-143.5 388.5q0 235 143.5 387t376.5 152q232 0 375 -152t143 -387q0 -236 -143 -388.5t-375 -152.5zM645 39q197 0 321 131t124 344
q0 211 -124 342t-321 131q-199 0 -322.5 -130.5t-123.5 -342.5q0 -213 123.5 -344t322.5 -131z" />
    <glyph glyph-name="Ohungarumlaut" unicode="&#x150;" horiz-adv-x="1746" 
d="M600 1608l254 313h76l-256 -313h-74zM946 1608l254 313h78l-256 -313h-76zM872 -27q-205 0 -370 97.5t-257.5 267.5t-92.5 379q0 156 54.5 293.5t149 236.5t229 156t287.5 57q154 0 289 -57t230 -156t149.5 -236.5t54.5 -293.5q0 -209 -93 -379t-258.5 -267.5
t-371.5 -97.5zM872 43q183 0 331 87t231.5 241t83.5 346t-83.5 346t-231.5 241t-331 87q-182 0 -329 -87t-230.5 -241t-83.5 -346t83.5 -346t230.5 -241t329 -87z" />
    <glyph glyph-name="ohungarumlaut" unicode="&#x151;" horiz-adv-x="1288" 
d="M373 1202l254 314h75l-256 -314h-73zM719 1202l254 314h78l-256 -314h-76zM645 -27q-233 0 -376.5 152.5t-143.5 388.5q0 235 143.5 387t376.5 152q232 0 375 -152t143 -387q0 -236 -143 -388.5t-375 -152.5zM645 39q197 0 321 131t124 344q0 211 -124 342t-321 131
q-199 0 -322.5 -130.5t-123.5 -342.5q0 -213 123.5 -344t322.5 -131z" />
    <glyph glyph-name="OE" unicode="&#x152;" horiz-adv-x="2297" 
d="M1257 68h875v-68h-1251q-211 0 -377.5 91t-259 254.5t-92.5 371.5t92.5 371.5t259 254.5t377.5 91h1230v-68h-854v-608h816v-68h-816v-622zM883 68h303v1298h-303q-289 0 -471.5 -179.5t-182.5 -469.5t182.5 -469.5t471.5 -179.5z" />
    <glyph glyph-name="oe" unicode="&#x153;" horiz-adv-x="2174" 
d="M2056 569q0 -31 -4 -63h-897q1 -216 122.5 -341.5t315.5 -125.5q126 0 226.5 53.5t162.5 151.5l52 -37q-67 -111 -181.5 -172.5t-259.5 -61.5q-177 0 -301 90t-174 248q-52 -156 -176.5 -247t-300.5 -91q-231 0 -373.5 152.5t-142.5 388.5q0 154 63.5 276.5t181.5 192.5
t271 70q176 0 301 -92t176 -248q51 159 175 249.5t292 90.5q207 0 339 -133.5t132 -350.5zM641 39q196 0 319 131t123 344q0 211 -123 342t-319 131q-195 0 -318.5 -131t-123.5 -342q0 -212 123.5 -343.5t318.5 -131.5zM1585 987q-175 0 -293 -114t-135 -308h828
q0 194 -112 308t-288 114z" />
    <glyph glyph-name="Racute" unicode="&#x154;" horiz-adv-x="1427" 
d="M934 1921l-262 -313h-76l252 313h86zM1204 0l-510 612h-377v-612h-73v1434h551q225 0 351 -110.5t126 -301.5t-126 -300.5t-351 -109.5h-11l510 -612h-90zM317 1366v-686h474q195 0 300 88.5t105 253.5q0 166 -105 255t-300 89h-474z" />
    <glyph glyph-name="racute" unicode="&#x155;" horiz-adv-x="763" 
d="M637 1516l-262 -314h-76l252 314h86zM631 1038q39 0 69 -6v-63q-40 4 -67 4q-162 0 -263.5 -107.5t-101.5 -304.5v-561h-69v1028h69v-252q35 121 134 191.5t229 70.5z" />
    <glyph glyph-name="uni0156" unicode="&#x156;" horiz-adv-x="1427" 
d="M784 612l510 -612h-90l-510 612h-377v-612h-73v1434h551q225 0 351 -110.5t126 -301.5t-126 -300.5t-351 -109.5h-11zM317 1366v-686h474q195 0 300 88.5t105 253.5q0 166 -105 255t-300 89h-474zM602 -537l82 336h74l-99 -336h-57z" />
    <glyph glyph-name="uni0157" unicode="&#x157;" horiz-adv-x="763" 
d="M631 1038q39 0 69 -6v-63q-40 4 -67 4q-162 0 -263.5 -107.5t-101.5 -304.5v-561h-69v1028h69v-252q35 121 134 191.5t229 70.5zM117 -537l82 336h73l-98 -336h-57z" />
    <glyph glyph-name="Rcaron" unicode="&#x158;" horiz-adv-x="1427" 
d="M735 1608h-69l-283 313h76l241 -268l242 268h76zM1204 0l-510 612h-377v-612h-73v1434h551q225 0 351 -110.5t126 -301.5t-126 -300.5t-351 -109.5h-11l510 -612h-90zM317 1366v-686h474q195 0 300 88.5t105 253.5q0 166 -105 255t-300 89h-474z" />
    <glyph glyph-name="rcaron" unicode="&#x159;" horiz-adv-x="763" 
d="M438 1202h-69l-283 314h76l241 -269l242 269h76zM268 776q35 121 134 191.5t229 70.5q39 0 69 -6v-63q-40 4 -67 4q-162 0 -263.5 -107.5t-101.5 -304.5v-561h-69v1028h69v-252z" />
    <glyph glyph-name="Sacute" unicode="&#x15a;" horiz-adv-x="1267" 
d="M530 1608l252 313h86l-262 -313h-76zM659 -27q-207 0 -347.5 87t-202.5 247l61 31q127 -297 489 -297q197 0 308.5 88.5t111.5 239.5q0 115 -76 186t-255 113l-201 47q-207 51 -301 137t-94 225q0 173 128 278t353 105q185 0 314.5 -71t182.5 -197l-59 -33
q-52 116 -164.5 175t-273.5 59q-194 0 -301 -82.5t-107 -233.5q0 -113 75.5 -182t264.5 -113l205 -49q207 -50 296 -137.5t89 -224.5q0 -183 -133 -290.5t-363 -107.5z" />
    <glyph glyph-name="sacute" unicode="&#x15b;" horiz-adv-x="1017" 
d="M408 1202l251 314h86l-262 -314h-75zM530 -27q-151 0 -265 58.5t-167 158.5l54 35q53 -90 150.5 -138t227.5 -48q147 0 226.5 62t79.5 163q0 77 -52.5 124.5t-175.5 76.5l-207 49q-136 32 -200 95.5t-64 162.5q0 130 100 205.5t279 75.5q135 0 232.5 -45t146.5 -131
l-53 -37q-93 149 -328 149q-149 0 -227 -57t-78 -162q0 -76 51 -121.5t176 -75.5l211 -49q137 -33 198.5 -96t61.5 -160q0 -134 -99 -214.5t-278 -80.5z" />
    <glyph glyph-name="Scircumflex" unicode="&#x15c;" horiz-adv-x="1267" 
d="M635 1876l-242 -268h-76l283 313h70l282 -313h-75zM770 733q207 -50 296 -137.5t89 -224.5q0 -183 -133 -290.5t-363 -107.5q-207 0 -347.5 87t-202.5 247l61 31q127 -297 489 -297q197 0 308.5 88.5t111.5 239.5q0 115 -76 186t-255 113l-201 47q-207 51 -301 137
t-94 225q0 173 128 278t353 105q185 0 314.5 -71t182.5 -197l-59 -33q-52 116 -164.5 175t-273.5 59q-194 0 -301 -82.5t-107 -233.5q0 -113 75.5 -182t264.5 -113z" />
    <glyph glyph-name="scircumflex" unicode="&#x15d;" horiz-adv-x="1017" 
d="M514 1470l-242 -268h-75l282 314h70l282 -314h-75zM647 524q137 -33 198.5 -96t61.5 -160q0 -134 -99 -214.5t-278 -80.5q-151 0 -265 58.5t-167 158.5l54 35q53 -90 150.5 -138t227.5 -48q147 0 226.5 62t79.5 163q0 77 -52.5 124.5t-175.5 76.5l-207 49
q-136 32 -200 95.5t-64 162.5q0 130 100 205.5t279 75.5q135 0 232.5 -45t146.5 -131l-53 -37q-93 149 -328 149q-149 0 -227 -57t-78 -162q0 -76 51 -121.5t176 -75.5z" />
    <glyph glyph-name="Scedilla" unicode="&#x15e;" horiz-adv-x="1267" 
d="M1155 371q0 -176 -124 -283.5t-341 -114.5l-117 -370h-73l127 370q-194 7 -326.5 94t-191.5 240l61 31q127 -297 489 -297q197 0 308.5 88.5t111.5 239.5q0 115 -76 186t-255 113l-201 47q-207 51 -301 137t-94 225q0 173 128 278t353 105q185 0 314.5 -71t182.5 -197
l-59 -33q-52 116 -164.5 175t-273.5 59q-194 0 -301 -82.5t-107 -233.5q0 -113 75.5 -182t264.5 -113l205 -49q207 -50 296 -137.5t89 -224.5z" />
    <glyph glyph-name="scedilla" unicode="&#x15f;" horiz-adv-x="1017" 
d="M907 268q0 -130 -94 -210.5t-264 -84.5l-117 -370h-74l127 372q-135 7 -237 65t-150 150l54 35q53 -90 150.5 -138t227.5 -48q147 0 226.5 62t79.5 163q0 77 -52.5 124.5t-175.5 76.5l-207 49q-136 32 -200 95.5t-64 162.5q0 130 100 205.5t279 75.5q135 0 232.5 -45
t146.5 -131l-53 -37q-93 149 -328 149q-149 0 -227 -57t-78 -162q0 -76 51 -121.5t176 -75.5l211 -49q137 -33 198.5 -96t61.5 -160z" />
    <glyph glyph-name="Scaron" unicode="&#x160;" horiz-adv-x="1267" 
d="M670 1608h-70l-283 313h76l242 -268l242 268h75zM770 733q207 -50 296 -137.5t89 -224.5q0 -183 -133 -290.5t-363 -107.5q-207 0 -347.5 87t-202.5 247l61 31q127 -297 489 -297q197 0 308.5 88.5t111.5 239.5q0 115 -76 186t-255 113l-201 47q-207 51 -301 137t-94 225
q0 173 128 278t353 105q185 0 314.5 -71t182.5 -197l-59 -33q-52 116 -164.5 175t-273.5 59q-194 0 -301 -82.5t-107 -233.5q0 -113 75.5 -182t264.5 -113z" />
    <glyph glyph-name="scaron" unicode="&#x161;" horiz-adv-x="1017" 
d="M549 1202h-70l-282 314h75l242 -269l242 269h75zM647 524q137 -33 198.5 -96t61.5 -160q0 -134 -99 -214.5t-278 -80.5q-151 0 -265 58.5t-167 158.5l54 35q53 -90 150.5 -138t227.5 -48q147 0 226.5 62t79.5 163q0 77 -52.5 124.5t-175.5 76.5l-207 49
q-136 32 -200 95.5t-64 162.5q0 130 100 205.5t279 75.5q135 0 232.5 -45t146.5 -131l-53 -37q-93 149 -328 149q-149 0 -227 -57t-78 -162q0 -76 51 -121.5t176 -75.5z" />
    <glyph glyph-name="uni0162" unicode="&#x162;" horiz-adv-x="1243" 
d="M584 0v1366h-525v68h1125v-68h-527v-1366h-73zM492 -537l81 336h74l-98 -336h-57z" />
    <glyph glyph-name="uni0163" unicode="&#x163;" horiz-adv-x="794" 
d="M555 -16q-270 0 -270 249v732h-232v63h232v309h69v-309h359v-63h-359v-729q0 -97 51.5 -143t155.5 -46q69 0 156 19v-58q-76 -24 -162 -24zM365 -537l81 336h74l-98 -336h-57z" />
    <glyph glyph-name="Tcaron" unicode="&#x164;" horiz-adv-x="1243" 
d="M655 1608h-69l-283 313h76l242 -268l241 268h76zM59 1434h1125v-68h-527v-1366h-73v1366h-525v68z" />
    <glyph glyph-name="tcaron" unicode="&#x165;" horiz-adv-x="798" 
d="M563 1208v389h74l-16 -389h-58zM555 -16q-270 0 -270 249v732h-232v63h232v309h69v-309h359v-63h-359v-729q0 -97 51.5 -143t155.5 -46q69 0 156 19v-58q-76 -24 -162 -24z" />
    <glyph glyph-name="Tbar" unicode="&#x166;" horiz-adv-x="1243" 
d="M1184 1366h-527v-598h342v-61h-342v-707h-73v707h-340v61h340v598h-525v68h1125v-68z" />
    <glyph glyph-name="tbar" unicode="&#x167;" horiz-adv-x="794" 
d="M561 47q69 0 156 19v-58q-76 -24 -162 -24q-270 0 -270 249v295h-211v60h211v377h-232v63h232v309h69v-309h359v-63h-359v-377h314v-60h-314v-292q0 -97 51.5 -143t155.5 -46z" />
    <glyph glyph-name="Utilde" unicode="&#x168;" horiz-adv-x="1564" 
d="M930 1655q-40 0 -78 19t-92 69q-38 38 -65 52.5t-58 14.5q-44 0 -71 -38t-27 -105h-56q0 92 42.5 145.5t109.5 53.5q40 0 78 -19.5t90 -68.5q41 -39 67.5 -53.5t57.5 -14.5q44 0 71 38.5t27 106.5h55q0 -93 -42 -146.5t-109 -53.5zM782 -27q-257 0 -408 143.5t-151 397.5
v920h74v-916q0 -225 129 -350t356 -125t356.5 125t129.5 350v916h73v-920q0 -254 -151 -397.5t-408 -143.5z" />
    <glyph glyph-name="utilde" unicode="&#x169;" horiz-adv-x="1232" 
d="M467 1405q-44 0 -71 -38t-27 -105h-56q0 92 42.5 145t109.5 53q40 0 78 -19.5t90 -68.5q41 -39 67.5 -53t57.5 -14q44 0 71 38.5t27 106.5h55q0 -94 -42 -147.5t-109 -53.5q-40 0 -78 19t-92 69q-38 38 -65 53t-58 15zM963 1028h69v-1028h-69v236q-40 -123 -147 -193
t-259 -70q-182 0 -274.5 106t-92.5 312v637h70v-622q0 -367 309 -367q174 0 284 103t110 280v606z" />
    <glyph glyph-name="Umacron" unicode="&#x16a;" horiz-adv-x="1564" 
d="M485 1698v61h594v-61h-594zM782 -27q-257 0 -408 143.5t-151 397.5v920h74v-916q0 -225 129 -350t356 -125t356.5 125t129.5 350v916h73v-920q0 -254 -151 -397.5t-408 -143.5z" />
    <glyph glyph-name="umacron" unicode="&#x16b;" horiz-adv-x="1232" 
d="M909 1354v-62h-594v62h594zM963 1028h69v-1028h-69v236q-40 -123 -147 -193t-259 -70q-182 0 -274.5 106t-92.5 312v637h70v-622q0 -367 309 -367q174 0 284 103t110 280v606z" />
    <glyph glyph-name="Ubreve" unicode="&#x16c;" horiz-adv-x="1564" 
d="M782 1618q-270 0 -270 248v4h66q0 -100 49.5 -148.5t154.5 -48.5t155 48.5t50 148.5h66v-4q0 -122 -68.5 -185t-202.5 -63zM782 -27q-257 0 -408 143.5t-151 397.5v920h74v-916q0 -225 129 -350t356 -125t356.5 125t129.5 350v916h73v-920q0 -254 -151 -397.5
t-408 -143.5z" />
    <glyph glyph-name="ubreve" unicode="&#x16d;" horiz-adv-x="1232" 
d="M612 1212q-270 0 -270 248v4h66q0 -100 49.5 -148t154.5 -48t155 48t50 148h66v-4q0 -122 -68.5 -185t-202.5 -63zM963 1028h69v-1028h-69v236q-40 -123 -147 -193t-259 -70q-182 0 -274.5 106t-92.5 312v637h70v-622q0 -367 309 -367q174 0 284 103t110 280v606z" />
    <glyph glyph-name="Uring" unicode="&#x16e;" horiz-adv-x="1564" 
d="M782 1608q-95 0 -157 61t-62 152q0 90 62 150.5t157 60.5t157 -60.5t62 -150.5q0 -91 -62 -152t-157 -61zM782 1663q72 0 116 44.5t44 113.5t-44 113t-116 44t-115.5 -44t-43.5 -113q0 -70 44 -114t115 -44zM782 -27q-257 0 -408 143.5t-151 397.5v920h74v-916
q0 -225 129 -350t356 -125t356.5 125t129.5 350v916h73v-920q0 -254 -151 -397.5t-408 -143.5z" />
    <glyph glyph-name="uring" unicode="&#x16f;" horiz-adv-x="1232" 
d="M612 1202q-95 0 -157 61t-62 152q0 90 62 150.5t157 60.5t157 -60.5t62 -150.5q0 -91 -62 -152t-157 -61zM612 1573q-71 0 -115 -44t-44 -114t44 -114t115 -44q72 0 116 44.5t44 113.5t-44 113.5t-116 44.5zM963 1028h69v-1028h-69v236q-40 -123 -147 -193t-259 -70
q-182 0 -274.5 106t-92.5 312v637h70v-622q0 -367 309 -367q174 0 284 103t110 280v606z" />
    <glyph glyph-name="Uhungarumlaut" unicode="&#x170;" horiz-adv-x="1564" 
d="M510 1608l254 313h76l-256 -313h-74zM856 1608l254 313h78l-256 -313h-76zM782 -27q-257 0 -408 143.5t-151 397.5v920h74v-916q0 -225 129 -350t356 -125t356.5 125t129.5 350v916h73v-920q0 -254 -151 -397.5t-408 -143.5z" />
    <glyph glyph-name="uhungarumlaut" unicode="&#x171;" horiz-adv-x="1232" 
d="M670 1516l-256 -314h-74l254 314h76zM1018 1516l-256 -314h-76l254 314h78zM963 1028h69v-1028h-69v236q-40 -123 -147 -193t-259 -70q-182 0 -274.5 106t-92.5 312v637h70v-622q0 -367 309 -367q174 0 284 103t110 280v606z" />
    <glyph glyph-name="Uogonek" unicode="&#x172;" horiz-adv-x="1564" 
d="M1268 1434h73v-920q0 -190 -85.5 -319.5t-241.5 -184.5q-104 -66 -151.5 -125.5t-47.5 -124.5q0 -62 43.5 -92t136.5 -30h23v-62h-27q-121 0 -182 47t-61 131q0 129 139 226q-58 -7 -105 -7q-257 0 -408 143.5t-151 397.5v920h74v-916q0 -225 129 -350t356 -125
t356.5 125t129.5 350v916z" />
    <glyph glyph-name="uogonek" unicode="&#x173;" horiz-adv-x="1232" 
d="M1032 0q-106 -65 -154.5 -126t-48.5 -126q0 -123 181 -123h22v-61h-26q-122 0 -183 47t-61 131q0 152 201 264v230q-40 -123 -147 -193t-259 -70q-182 0 -274.5 106t-92.5 312v637h70v-622q0 -367 309 -367q174 0 284 103t110 280v606h69v-1028z" />
    <glyph glyph-name="Wcircumflex" unicode="&#x174;" horiz-adv-x="2088" 
d="M1044 1876l-241 -268h-76l283 313h69l283 -313h-76zM1948 1434h73l-458 -1434h-78l-441 1335l-440 -1335h-78l-458 1434h73l426 -1332l439 1332h77l439 -1332z" />
    <glyph glyph-name="wcircumflex" unicode="&#x175;" horiz-adv-x="1665" 
d="M834 1470l-242 -268h-76l283 314h69l283 -314h-76zM1540 1028h72l-363 -1028h-78l-337 944l-340 -944h-76l-365 1028h72l332 -940l338 940h75l338 -942z" />
    <glyph glyph-name="Ycircumflex" unicode="&#x176;" horiz-adv-x="1261" 
d="M631 1876l-242 -268h-76l283 313h70l282 -313h-76zM1155 1434h84l-571 -816v-618h-74v618l-571 816h83l525 -750z" />
    <glyph glyph-name="ycircumflex" unicode="&#x177;" horiz-adv-x="1060" 
d="M528 1470l-241 -268h-76l285 314h67l283 -314h-74zM944 1028h74l-610 -1436h-74l168 398l-453 1038h76l416 -958z" />
    <glyph glyph-name="Ydieresis" unicode="&#x178;" horiz-adv-x="1261" 
d="M420 1710q-28 0 -46 18t-18 44t18 43.5t46 17.5q26 0 43.5 -17.5t17.5 -43.5t-17.5 -44t-43.5 -18zM842 1710q-26 0 -44 18t-18 44t18 43.5t44 17.5q28 0 45.5 -17.5t17.5 -43.5t-17.5 -44t-45.5 -18zM1155 1434h84l-571 -816v-618h-74v618l-571 816h83l525 -750z" />
    <glyph glyph-name="Zacute" unicode="&#x179;" horiz-adv-x="1232" 
d="M856 1921l-262 -313h-76l252 313h86zM193 68h940v-68h-1033v57l928 1309h-905v68h997v-58z" />
    <glyph glyph-name="zacute" unicode="&#x17a;" horiz-adv-x="999" 
d="M735 1516l-262 -314h-76l252 314h86zM197 63h690v-63h-778v53l684 912h-666v63h752v-53z" />
    <glyph glyph-name="Zdotaccent" unicode="&#x17b;" horiz-adv-x="1232" 
d="M623 1710q-27 0 -44.5 17.5t-17.5 44.5q0 26 17.5 43.5t44.5 17.5t44 -17t17 -44t-17 -44.5t-44 -17.5zM193 68h940v-68h-1033v57l928 1309h-905v68h997v-58z" />
    <glyph glyph-name="zdotaccent" unicode="&#x17c;" horiz-adv-x="999" 
d="M504 1305q-28 0 -45 17.5t-17 43.5t17 43.5t45 17.5q27 0 44 -17t17 -44t-17 -44t-44 -17zM197 63h690v-63h-778v53l684 912h-666v63h752v-53z" />
    <glyph glyph-name="Zcaron" unicode="&#x17d;" horiz-adv-x="1232" 
d="M657 1608h-69l-283 313h76l242 -268l241 268h76zM193 68h940v-68h-1033v57l928 1309h-905v68h997v-58z" />
    <glyph glyph-name="zcaron" unicode="&#x17e;" horiz-adv-x="999" 
d="M539 1202h-70l-283 314h76l242 -269l241 269h76zM197 63h690v-63h-778v53l684 912h-666v63h752v-53z" />
    <glyph glyph-name="florin" unicode="&#x192;" horiz-adv-x="1017" 
d="M862 1368q-101 0 -157 -51t-76 -160l-62 -323h338v-62h-350l-152 -801q-26 -136 -97.5 -197t-203.5 -61h-67v66h67q101 0 156.5 51t77.5 160l147 782h-327v62h340l63 342q26 136 99 197t204 61h68v-66h-68z" />
    <glyph glyph-name="uni01CD" unicode="&#x1cd;" horiz-adv-x="1396" 
d="M733 1608h-69l-283 313h76l241 -268l242 268h76zM1270 0l-185 438h-774l-184 -438h-76l606 1434h82l607 -1434h-76zM340 506h717l-359 850z" />
    <glyph glyph-name="uni01CE" unicode="&#x1ce;" horiz-adv-x="1140" 
d="M610 1202h-69l-283 314h76l241 -269l242 269h76zM578 1053q179 0 274.5 -94t95.5 -265v-694h-67v240q-39 -120 -146 -189t-262 -69q-166 0 -261 81.5t-95 221.5q0 132 99 206t282 74h383v129q0 146 -79 220.5t-227 74.5q-234 0 -348 -178l-49 41q63 98 165.5 149.5
t234.5 51.5zM481 43q180 0 290 105.5t110 283.5v74h-381q-154 0 -233 -58t-79 -163q0 -115 77.5 -178.5t215.5 -63.5z" />
    <glyph glyph-name="uni01E2" unicode="&#x1e2;" horiz-adv-x="2211" 
d="M1765 1759v-61h-594v61h594zM1174 68h872v-68h-946v410h-684l-293 -410h-84l1026 1434h960v-68h-851v-608h817v-68h-817v-622zM463 477h637v891z" />
    <glyph glyph-name="uni01E3" unicode="&#x1e3;" horiz-adv-x="1961" 
d="M1296 1354v-62h-594v62h594zM1843 575q0 -29 -4 -65h-881q0 -217 121 -344t310 -127q120 0 219.5 53.5t160.5 151.5l50 -37q-66 -111 -178.5 -172.5t-251.5 -61.5q-168 0 -289 86.5t-172 239.5q-35 -154 -153.5 -240t-293.5 -86q-171 0 -267.5 82.5t-96.5 225.5
q0 142 97.5 215t285.5 73h389v125q0 145 -81.5 220t-232.5 75q-234 0 -348 -178l-49 41q129 201 402 201q159 0 252.5 -73t113.5 -212q60 135 173.5 210t260.5 75q201 0 332 -133.5t131 -344.5zM1380 987q-170 0 -286 -113t-133 -305h811q-1 192 -111.5 305t-280.5 113z
M485 35q183 0 293.5 107t110.5 290v78h-387q-314 0 -314 -229q0 -117 78 -181.5t219 -64.5z" />
    <glyph glyph-name="Gcaron" unicode="&#x1e6;" horiz-adv-x="1630" 
d="M897 1608h-70l-282 313h76l241 -268l242 268h76zM952 721h514v-526q-92 -106 -234.5 -164t-320.5 -58q-171 0 -313.5 54.5t-240 151.5t-151.5 234.5t-54 301.5q0 218 92.5 388t258 263.5t376.5 93.5q176 0 316.5 -65.5t225.5 -186.5l-59 -41q-75 107 -201 165.5
t-280 58.5q-186 0 -333.5 -82t-233 -237t-85.5 -359q0 -206 88 -359t241 -232t351 -79q153 0 281 47.5t203 128.5v434h-441v68z" />
    <glyph glyph-name="gcaron" unicode="&#x1e7;" horiz-adv-x="1343" 
d="M702 1202h-69l-283 314h76l242 -269l241 269h76zM1075 1028h70v-930q0 -253 -138 -393.5t-384 -140.5q-148 0 -266.5 51.5t-190.5 142.5l45 49q68 -84 176 -131t236 -47q211 0 331.5 124t120.5 345v207q-48 -142 -166 -223.5t-280 -81.5q-223 0 -363.5 147.5
t-140.5 378.5t140.5 379t363.5 148q162 0 280 -81.5t166 -223.5v280zM639 66q192 0 315 129.5t123 330.5t-123 331t-315 130t-316 -130t-124 -331t124 -330.5t316 -129.5z" />
    <glyph glyph-name="uni01E8" unicode="&#x1e8;" horiz-adv-x="1380" 
d="M756 1610h-68l-285 311h76l242 -266l244 266h73zM1257 0l-608 754l-332 -344v-410h-73v1434h73v-928l904 928h90l-611 -629l646 -805h-89z" />
    <glyph glyph-name="uni01E9" unicode="&#x1e9;" horiz-adv-x="1073" 
d="M268 1675h-67l-283 312h74l244 -267l241 267h76zM967 0l-451 535l-248 -236v-299h-69v1497h69v-1114l678 643h92l-471 -444l486 -582h-86z" />
    <glyph glyph-name="AEacute" unicode="&#x1fc;" horiz-adv-x="2211" 
d="M1700 1921l-262 -313h-76l252 313h86zM1174 68h872v-68h-946v410h-684l-293 -410h-84l1026 1434h960v-68h-851v-608h817v-68h-817v-622zM463 477h637v891z" />
    <glyph glyph-name="aeacute" unicode="&#x1fd;" horiz-adv-x="1961" 
d="M1233 1516l-262 -314h-76l252 314h86zM1843 575q0 -29 -4 -65h-881q0 -217 121 -344t310 -127q120 0 219.5 53.5t160.5 151.5l50 -37q-66 -111 -178.5 -172.5t-251.5 -61.5q-168 0 -289 86.5t-172 239.5q-35 -154 -153.5 -240t-293.5 -86q-171 0 -267.5 82.5t-96.5 225.5
q0 142 97.5 215t285.5 73h389v125q0 145 -81.5 220t-232.5 75q-234 0 -348 -178l-49 41q129 201 402 201q159 0 252.5 -73t113.5 -212q60 135 173.5 210t260.5 75q201 0 332 -133.5t131 -344.5zM1380 987q-170 0 -286 -113t-133 -305h811q-1 192 -111.5 305t-280.5 113z
M485 35q183 0 293.5 107t110.5 290v78h-387q-314 0 -314 -229q0 -117 78 -181.5t219 -64.5z" />
    <glyph glyph-name="Oslashacute" unicode="&#x1fe;" horiz-adv-x="1746" 
d="M1098 1921l-262 -313h-76l252 313h86zM1417 1217q178 -206 178 -500q0 -209 -93 -379t-258.5 -267.5t-371.5 -97.5q-147 0 -274.5 51.5t-224.5 145.5l-166 -166l-45 47l166 166q-176 208 -176 500q0 156 54.5 293.5t149 236.5t229 156t287.5 57q148 0 276.5 -51
t225.5 -145l166 166l47 -46zM872 1391q-182 0 -329 -87t-230.5 -241t-83.5 -346q0 -260 152 -449l942 944q-87 86 -203 132.5t-248 46.5zM872 43q183 0 331 87t231.5 241t83.5 346q0 263 -152 448l-942 -942q86 -86 201 -133t247 -47z" />
    <glyph glyph-name="oslashacute" unicode="&#x1ff;" horiz-adv-x="1296" 
d="M877 1516l-263 -314h-77l251 314h89zM1184 1006l-133 -136q116 -140 116 -356q0 -236 -143 -388.5t-375 -152.5q-218 0 -362 138l-131 -134l-43 46l133 133q-117 145 -117 358q0 235 143.5 387t376.5 152q216 0 361 -135l131 131zM649 987q-199 0 -322.5 -130.5
t-123.5 -342.5q0 -185 96 -311l662 661q-123 123 -312 123zM649 39q197 0 321 131t124 344q0 180 -95 309l-663 -663q121 -121 313 -121z" />
    <glyph glyph-name="uni0218" unicode="&#x218;" horiz-adv-x="1267" 
d="M659 -27q-207 0 -347.5 87t-202.5 247l61 31q127 -297 489 -297q197 0 308.5 88.5t111.5 239.5q0 115 -76 186t-255 113l-201 47q-207 51 -301 137t-94 225q0 173 128 278t353 105q185 0 314.5 -71t182.5 -197l-59 -33q-52 116 -164.5 175t-273.5 59q-194 0 -301 -82.5
t-107 -233.5q0 -113 75.5 -182t264.5 -113l205 -49q207 -50 296 -137.5t89 -224.5q0 -183 -133 -290.5t-363 -107.5zM541 -537l82 336h73l-98 -336h-57z" />
    <glyph glyph-name="uni0219" unicode="&#x219;" horiz-adv-x="1017" 
d="M530 -27q-151 0 -265 58.5t-167 158.5l54 35q53 -90 150.5 -138t227.5 -48q147 0 226.5 62t79.5 163q0 77 -52.5 124.5t-175.5 76.5l-207 49q-136 32 -200 95.5t-64 162.5q0 130 100 205.5t279 75.5q135 0 232.5 -45t146.5 -131l-53 -37q-93 149 -328 149
q-149 0 -227 -57t-78 -162q0 -76 51 -121.5t176 -75.5l211 -49q137 -33 198.5 -96t61.5 -160q0 -134 -99 -214.5t-278 -80.5zM399 -537l82 336h74l-98 -336h-58z" />
    <glyph glyph-name="uni021A" unicode="&#x21a;" horiz-adv-x="1243" 
d="M584 0v1366h-525v68h1125v-68h-527v-1366h-73zM492 -537l81 336h74l-98 -336h-57z" />
    <glyph glyph-name="uni021B" unicode="&#x21b;" horiz-adv-x="794" 
d="M555 -16q-270 0 -270 249v732h-232v63h232v309h69v-309h359v-63h-359v-729q0 -97 51.5 -143t155.5 -46q69 0 156 19v-58q-76 -24 -162 -24zM365 -537l81 336h74l-98 -336h-57z" />
    <glyph glyph-name="uni0237" unicode="&#x237;" horiz-adv-x="473" 
d="M35 -438q-49 0 -98 14v64q50 -13 92 -13q84 0 128 52.5t44 148.5v1200h69v-1204q0 -126 -60 -194t-175 -68z" />
    <glyph glyph-name="circumflex" unicode="&#x2c6;" horiz-adv-x="1269" 
d="M952 1202h-75l-242 268l-242 -268h-76l283 314h70z" />
    <glyph glyph-name="caron" unicode="&#x2c7;" horiz-adv-x="1269" 
d="M877 1516h75l-282 -314h-70l-283 314h76l242 -269z" />
    <glyph glyph-name="breve" unicode="&#x2d8;" horiz-adv-x="1269" 
d="M635 1212q-270 0 -270 248v4h65q0 -100 50 -148t155 -48t155 48t50 148h65v-4q0 -248 -270 -248z" />
    <glyph glyph-name="dotaccent" unicode="&#x2d9;" horiz-adv-x="1269" 
d="M635 1305q-27 0 -44.5 17.5t-17.5 43.5t17.5 43.5t44.5 17.5t44 -17t17 -44t-17 -44t-44 -17z" />
    <glyph glyph-name="ring" unicode="&#x2da;" horiz-adv-x="1269" 
d="M635 1202q-95 0 -157 61t-62 152q0 90 62 150.5t157 60.5t157 -60.5t62 -150.5q0 -91 -62 -152t-157 -61zM635 1257q71 0 115.5 44.5t44.5 113.5t-44.5 113.5t-115.5 44.5t-115.5 -44.5t-44.5 -113.5t44.5 -113.5t115.5 -44.5z" />
    <glyph glyph-name="ogonek" unicode="&#x2db;" horiz-adv-x="1269" 
d="M678 -436q-122 0 -183 47t-61 131q0 162 228 278l43 -20q-106 -65 -154.5 -126t-48.5 -126q0 -62 43.5 -92.5t136.5 -30.5h23v-61h-27z" />
    <glyph glyph-name="tilde" unicode="&#x2dc;" horiz-adv-x="1269" 
d="M782 1249q-40 0 -78 19t-92 69q-38 38 -65 53t-58 15q-44 0 -71 -38t-27 -105h-55q0 92 42 145t109 53q40 0 78 -19.5t90 -68.5q41 -39 67.5 -53t57.5 -14q44 0 71.5 38.5t27.5 106.5h55q0 -93 -42.5 -147t-109.5 -54z" />
    <glyph glyph-name="hungarumlaut" unicode="&#x2dd;" horiz-adv-x="1269" 
d="M416 1202l254 314h75l-256 -314h-73zM762 1202l254 314h78l-256 -314h-76z" />
    <glyph glyph-name="gravecomb" unicode="&#x300;" horiz-adv-x="0" 
d="M-575 1202h-76l-264 314h88z" />
    <glyph glyph-name="acutecomb" unicode="&#x301;" horiz-adv-x="0" 
d="M-690 1202l252 314h86l-262 -314h-76z" />
    <glyph glyph-name="uni0302" unicode="&#x302;" horiz-adv-x="0" 
d="M-317 1202h-76l-242 268l-242 -268h-75l282 314h70z" />
    <glyph glyph-name="tildecomb" unicode="&#x303;" horiz-adv-x="0" 
d="M-487 1249q-40 0 -78 19t-92 69q-38 38 -65 53t-58 15q-44 0 -71.5 -38t-27.5 -105h-55q0 92 42.5 145t109.5 53q40 0 78 -19.5t90 -68.5q41 -39 67.5 -53t57.5 -14q44 0 71 38.5t27 106.5h55q0 -94 -42 -147.5t-109 -53.5z" />
    <glyph glyph-name="uni0304" unicode="&#x304;" horiz-adv-x="0" 
d="M-932 1292v62h594v-62h-594z" />
    <glyph glyph-name="uni0306" unicode="&#x306;" horiz-adv-x="0" 
d="M-635 1212q-270 0 -270 248v4h65q0 -100 50 -148t155 -48t155 48t50 148h65v-4q0 -248 -270 -248z" />
    <glyph glyph-name="uni0307" unicode="&#x307;" horiz-adv-x="0" 
d="M-635 1305q-27 0 -44 17t-17 44t17 44t44 17t44.5 -17.5t17.5 -43.5t-17.5 -43.5t-44.5 -17.5z" />
    <glyph glyph-name="uni0308" unicode="&#x308;" horiz-adv-x="0" 
d="M-846 1305q-28 0 -45.5 17.5t-17.5 43.5t17.5 43.5t45.5 17.5q26 0 44 -17.5t18 -43.5t-18 -43.5t-44 -17.5zM-424 1305q-26 0 -43.5 17.5t-17.5 43.5t17.5 43.5t43.5 17.5q28 0 46 -17.5t18 -43.5t-18 -43.5t-46 -17.5z" />
    <glyph glyph-name="uni030A" unicode="&#x30a;" horiz-adv-x="0" 
d="M-635 1202q-95 0 -157 61t-62 152q0 90 62 150.5t157 60.5t157 -60.5t62 -150.5q0 -91 -62 -152t-157 -61zM-635 1257q71 0 115.5 44.5t44.5 113.5t-44.5 113.5t-115.5 44.5t-115.5 -44.5t-44.5 -113.5t44.5 -113.5t115.5 -44.5z" />
    <glyph glyph-name="uni030B" unicode="&#x30b;" horiz-adv-x="0" 
d="M-854 1202l254 314h76l-256 -314h-74zM-508 1202l254 314h78l-256 -314h-76z" />
    <glyph glyph-name="uni030C" unicode="&#x30c;" horiz-adv-x="0" 
d="M-393 1516h76l-283 -314h-70l-282 314h75l242 -269z" />
    <glyph glyph-name="uni0315" unicode="&#x315;" horiz-adv-x="0" 
d="M-672 1149v389h74l-16 -389h-58z" />
    <glyph glyph-name="uni0326" unicode="&#x326;" horiz-adv-x="0" 
d="M-754 -537l82 336h74l-98 -336h-58z" />
    <glyph glyph-name="uni0327" unicode="&#x327;" horiz-adv-x="0" 
d="M-788 -397l141 413h63l-131 -413h-73z" />
    <glyph glyph-name="uni0328" unicode="&#x328;" horiz-adv-x="0" 
d="M-592 -436q-122 0 -183 47t-61 131q0 162 228 278l43 -20q-106 -65 -154.5 -126t-48.5 -126q0 -62 43.5 -92.5t136.5 -30.5h23v-61h-27z" />
    <glyph glyph-name="uni03BC" unicode="&#x3bc;" horiz-adv-x="1249" 
d="M979 1028h70v-1028h-70v233q-39 -120 -144.5 -190t-252.5 -70q-233 0 -314 185v-609h-69v1479h69v-622q0 -367 318 -367q175 0 284 105t109 290v594z" />
    <glyph glyph-name="pi" unicode="&#x3c0;" horiz-adv-x="1193" 
d="M1100 66h33v-66h-39q-224 0 -224 233v730h-602v-963h-69v1028h741v-790q0 -172 160 -172z" />
    <glyph glyph-name="uni1E20" unicode="&#x1e20;" horiz-adv-x="1630" 
d="M1159 1759v-61h-594v61h594zM952 721h514v-526q-92 -106 -234.5 -164t-320.5 -58q-171 0 -313.5 54.5t-240 151.5t-151.5 234.5t-54 301.5q0 218 92.5 388t258 263.5t376.5 93.5q176 0 316.5 -65.5t225.5 -186.5l-59 -41q-75 107 -201 165.5t-280 58.5q-186 0 -333.5 -82
t-233 -237t-85.5 -359q0 -206 88 -359t241 -232t351 -79q153 0 281 47.5t203 128.5v434h-441v68z" />
    <glyph glyph-name="uni1E21" unicode="&#x1e21;" horiz-adv-x="1343" 
d="M965 1354v-62h-594v62h594zM1075 1028h70v-930q0 -253 -138 -393.5t-384 -140.5q-148 0 -266.5 51.5t-190.5 142.5l45 49q68 -84 176 -131t236 -47q211 0 331.5 124t120.5 345v207q-48 -142 -166 -223.5t-280 -81.5q-223 0 -363.5 147.5t-140.5 378.5t140.5 379
t363.5 148q162 0 280 -81.5t166 -223.5v280zM639 66q192 0 315 129.5t123 330.5t-123 331t-315 130t-316 -130t-124 -331t124 -330.5t316 -129.5z" />
    <glyph glyph-name="uni1E30" unicode="&#x1e30;" horiz-adv-x="1380" 
d="M954 1921l-262 -311h-76l252 311h86zM1257 0l-608 754l-332 -344v-410h-73v1434h73v-928l904 928h90l-611 -629l646 -805h-89z" />
    <glyph glyph-name="uni1E31" unicode="&#x1e31;" horiz-adv-x="1073" 
d="M469 1987l-262 -312h-78l252 312h88zM967 0l-451 535l-248 -236v-299h-69v1497h69v-1114l678 643h92l-471 -444l486 -582h-86z" />
    <glyph glyph-name="uni1E3E" unicode="&#x1e3e;" horiz-adv-x="1921" 
d="M1194 1921l-262 -313h-76l252 313h86zM1597 1434h80v-1434h-71v1321l-613 -930h-65l-613 930v-1321h-71v1434h78l639 -967z" />
    <glyph glyph-name="uni1E3F" unicode="&#x1e3f;" horiz-adv-x="1884" 
d="M1188 1516l-262 -314h-76l252 314h86zM1341 1053q173 0 263 -106t90 -308v-639h-70v629q0 358 -291 358q-163 0 -257.5 -103t-94.5 -280v-604h-70v629q0 358 -290 358q-163 0 -258 -103t-95 -280v-604h-69v1028h69v-233q37 123 131 190.5t232 67.5t223 -70t113 -205
q32 126 129.5 200.5t244.5 74.5z" />
    <glyph glyph-name="uni1E40" unicode="&#x1e40;" horiz-adv-x="1921" 
d="M961 1710q-27 0 -44.5 17.5t-17.5 44.5q0 26 17.5 43.5t44.5 17.5t44 -17t17 -44t-17 -44.5t-44 -17.5zM1597 1434h80v-1434h-71v1321l-613 -930h-65l-613 930v-1321h-71v1434h78l639 -967z" />
    <glyph glyph-name="uni1E41" unicode="&#x1e41;" horiz-adv-x="1884" 
d="M954 1305q-27 0 -44 17t-17 44t17 44t44 17q28 0 45 -17.5t17 -43.5t-17 -43.5t-45 -17.5zM1341 1053q173 0 263 -106t90 -308v-639h-70v629q0 358 -291 358q-163 0 -257.5 -103t-94.5 -280v-604h-70v629q0 358 -290 358q-163 0 -258 -103t-95 -280v-604h-69v1028h69
v-233q37 123 131 190.5t232 67.5t223 -70t113 -205q32 126 129.5 200.5t244.5 74.5z" />
    <glyph glyph-name="uni1E44" unicode="&#x1e44;" horiz-adv-x="1619" 
d="M811 1710q-27 0 -44 17.5t-17 44.5t17 44t44 17t44 -17t17 -44t-17 -44.5t-44 -17.5zM1305 1434h71v-1434h-73l-988 1321v-1321h-71v1434h73l988 -1321v1321z" />
    <glyph glyph-name="uni1E45" unicode="&#x1e45;" horiz-adv-x="1241" 
d="M625 1305q-27 0 -44.5 17.5t-17.5 43.5t17.5 43.5t44.5 17.5t44 -17t17 -44t-17 -44t-44 -17zM674 1053q184 0 279.5 -107t95.5 -315v-631h-70v621q0 366 -315 366q-174 0 -285 -102.5t-111 -280.5v-604h-69v1028h69v-235q40 121 147 190.5t259 69.5z" />
    <glyph glyph-name="Wgrave" unicode="&#x1e80;" horiz-adv-x="2088" 
d="M1153 1608h-76l-264 313h88zM1948 1434h73l-458 -1434h-78l-441 1335l-440 -1335h-78l-458 1434h73l426 -1332l439 1332h77l439 -1332z" />
    <glyph glyph-name="wgrave" unicode="&#x1e81;" horiz-adv-x="1665" 
d="M942 1202h-76l-264 314h88zM1540 1028h72l-363 -1028h-78l-337 944l-340 -944h-76l-365 1028h72l332 -940l338 940h75l338 -942z" />
    <glyph glyph-name="Wacute" unicode="&#x1e82;" horiz-adv-x="2088" 
d="M1278 1921l-262 -313h-76l252 313h86zM1948 1434h73l-458 -1434h-78l-441 1335l-440 -1335h-78l-458 1434h73l426 -1332l439 1332h77l439 -1332z" />
    <glyph glyph-name="wacute" unicode="&#x1e83;" horiz-adv-x="1665" 
d="M1067 1516l-262 -314h-76l252 314h86zM1540 1028h72l-363 -1028h-78l-337 944l-340 -944h-76l-365 1028h72l332 -940l338 940h75l338 -942z" />
    <glyph glyph-name="Wdieresis" unicode="&#x1e84;" horiz-adv-x="2088" 
d="M834 1710q-28 0 -46 18t-18 44t18 43.5t46 17.5q26 0 43.5 -17.5t17.5 -43.5t-17.5 -44t-43.5 -18zM1255 1710q-26 0 -43.5 18t-17.5 44t17.5 43.5t43.5 17.5q28 0 46 -17.5t18 -43.5t-18 -44t-46 -18zM1948 1434h73l-458 -1434h-78l-441 1335l-440 -1335h-78l-458 1434
h73l426 -1332l439 1332h77l439 -1332z" />
    <glyph glyph-name="wdieresis" unicode="&#x1e85;" horiz-adv-x="1665" 
d="M623 1305q-28 0 -46 17.5t-18 43.5t18 43.5t46 17.5q26 0 43.5 -17.5t17.5 -43.5t-17.5 -43.5t-43.5 -17.5zM1044 1305q-26 0 -43.5 17.5t-17.5 43.5t17.5 43.5t43.5 17.5q28 0 46 -17.5t18 -43.5t-18 -43.5t-46 -17.5zM1540 1028h72l-363 -1028h-78l-337 944l-340 -944
h-76l-365 1028h72l332 -940l338 940h75l338 -942z" />
    <glyph glyph-name="uni1E90" unicode="&#x1e90;" horiz-adv-x="1232" 
d="M623 1876l-242 -268h-76l283 313h69l283 -313h-76zM193 68h940v-68h-1033v57l928 1309h-905v68h997v-58z" />
    <glyph glyph-name="uni1E91" unicode="&#x1e91;" horiz-adv-x="999" 
d="M504 1470l-242 -268h-76l283 314h70l282 -314h-76zM197 63h690v-63h-778v53l684 912h-666v63h752v-53z" />
    <glyph glyph-name="uni1E9E" unicode="&#x1e9e;" horiz-adv-x="1486" 
d="M895 756q235 0 355 -95t120 -282t-117.5 -283t-339.5 -96h-219v68h211q387 0 387 313q0 158 -96.5 234.5t-290.5 76.5h-108v64l409 469q-137 168 -434 168q-240 0 -357.5 -116.5t-117.5 -375.5v-901h-74v903q0 285 135.5 421t409.5 136q368 0 526 -237l-409 -467h10z" />
    <glyph glyph-name="Ygrave" unicode="&#x1ef2;" horiz-adv-x="1261" 
d="M739 1608h-75l-265 313h88zM1155 1434h84l-571 -816v-618h-74v618l-571 816h83l525 -750z" />
    <glyph glyph-name="ygrave" unicode="&#x1ef3;" horiz-adv-x="1060" 
d="M637 1202h-76l-262 314h86zM944 1028h74l-610 -1436h-74l168 398l-453 1038h76l416 -958z" />
    <glyph glyph-name="uni2000" unicode="&#x2000;" horiz-adv-x="1024" 
 />
    <glyph glyph-name="uni2001" unicode="&#x2001;" horiz-adv-x="2048" 
 />
    <glyph glyph-name="uni2002" unicode="&#x2002;" horiz-adv-x="1024" 
 />
    <glyph glyph-name="uni2003" unicode="&#x2003;" horiz-adv-x="2048" 
 />
    <glyph glyph-name="uni2009" unicode="&#x2009;" horiz-adv-x="460" 
 />
    <glyph glyph-name="uni200A" unicode="&#x200a;" horiz-adv-x="122" 
 />
    <glyph glyph-name="uni200B" unicode="&#x200b;" horiz-adv-x="0" 
 />
    <glyph glyph-name="endash" unicode="&#x2013;" horiz-adv-x="1280" 
d="M127 559v62h1024v-62h-1024z" />
    <glyph glyph-name="emdash" unicode="&#x2014;" horiz-adv-x="2304" 
d="M127 559v62h2048v-62h-2048z" />
    <glyph glyph-name="quoteleft" unicode="&#x2018;" horiz-adv-x="413" 
d="M111 981l133 479h59l-121 -479h-71z" />
    <glyph glyph-name="quoteright" unicode="&#x2019;" horiz-adv-x="413" 
d="M303 1460l-135 -479h-57l120 479h72z" />
    <glyph glyph-name="quotesinglbase" unicode="&#x201a;" horiz-adv-x="403" 
d="M283 193l-136 -478h-57l121 478h72z" />
    <glyph glyph-name="quotedblleft" unicode="&#x201c;" horiz-adv-x="718" 
d="M111 981l133 479h59l-121 -479h-71zM416 981l133 479h59l-121 -479h-71z" />
    <glyph glyph-name="quotedblright" unicode="&#x201d;" horiz-adv-x="718" 
d="M303 1460l-135 -479h-57l120 479h72zM608 1460l-135 -479h-57l121 479h71z" />
    <glyph glyph-name="quotedblbase" unicode="&#x201e;" horiz-adv-x="708" 
d="M283 193l-136 -478h-57l121 478h72zM588 193l-135 -478h-58l121 478h72z" />
    <glyph glyph-name="dagger" unicode="&#x2020;" horiz-adv-x="1075" 
d="M977 981v-66h-404v-1181h-69v1181h-404v66h404v535h69v-535h404z" />
    <glyph glyph-name="daggerdbl" unicode="&#x2021;" horiz-adv-x="1116" 
d="M997 915h-403v-546h362v-66h-362v-569h-70v569h-362v66h362v546h-403v66h403v535h70v-535h403v-66z" />
    <glyph glyph-name="bullet" unicode="&#x2022;" horiz-adv-x="968" 
d="M485 524q-92 0 -153.5 61t-61.5 152t61.5 152t153.5 61q91 0 152 -61t61 -152t-61 -152t-152 -61z" />
    <glyph glyph-name="ellipsis" unicode="&#x2026;" horiz-adv-x="1341" 
d="M225 -4q-28 0 -45.5 17.5t-17.5 45.5t17.5 46t45.5 18t46 -18t18 -46t-18 -45.5t-46 -17.5zM672 -4q-29 0 -46.5 17.5t-17.5 45.5t17.5 46t46.5 18q28 0 45.5 -18t17.5 -46t-17.5 -45.5t-45.5 -17.5zM1116 -4q-28 0 -45.5 17.5t-17.5 45.5t17.5 46t45.5 18q29 0 46.5 -18
t17.5 -46t-17.5 -45.5t-46.5 -17.5z" />
    <glyph glyph-name="perthousand" unicode="&#x2030;" horiz-adv-x="2449" 
d="M420 791q-145 0 -239.5 93.5t-94.5 239.5q0 147 94.5 241.5t239.5 94.5q143 0 237.5 -94.5t94.5 -241.5q0 -145 -94.5 -239t-237.5 -94zM258 0l1053 1434h75l-1052 -1434h-76zM420 850q120 0 194 75.5t74 198.5q0 124 -74 200.5t-194 76.5q-121 0 -195.5 -76t-74.5 -201
q0 -123 74.5 -198.5t195.5 -75.5zM1225 -27q-143 0 -237.5 94.5t-94.5 241.5q0 146 94.5 240t237.5 94t237 -94t94 -240q0 -147 -94 -241.5t-237 -94.5zM2030 -27q-143 0 -237.5 94.5t-94.5 241.5q0 146 94.5 240t237.5 94t237 -94t94 -240q0 -147 -94 -241.5t-237 -94.5z
M1225 33q120 0 195 76t75 200q0 123 -75 199t-195 76t-194.5 -76t-74.5 -199q0 -124 74.5 -200t194.5 -76zM2030 33q120 0 194 76t74 200q0 123 -74 199t-194 76t-194.5 -76t-74.5 -199q0 -124 74.5 -200t194.5 -76z" />
    <glyph glyph-name="guilsinglleft" unicode="&#x2039;" horiz-adv-x="573" 
d="M467 938l-297 -424l297 -424h-80l-297 424l297 424h80z" />
    <glyph glyph-name="guilsinglright" unicode="&#x203a;" horiz-adv-x="573" 
d="M188 938l297 -424l-297 -424h-82l297 424l-297 424h82z" />
    <glyph glyph-name="fraction" unicode="&#x2044;" horiz-adv-x="258" 
d="M-410 0l1004 1434h74l-1004 -1434h-74z" />
    <glyph glyph-name="uni2070" unicode="&#x2070;" horiz-adv-x="776" 
d="M389 713q-141 0 -222 103.5t-81 297.5t81 298t222 104q139 0 220 -104t81 -298t-80.5 -297.5t-220.5 -103.5zM389 772q111 0 172.5 86t61.5 256t-61.5 256t-172.5 86q-112 0 -173.5 -86t-61.5 -256t61.5 -256t173.5 -86z" />
    <glyph glyph-name="uni2074" unicode="&#x2074;" horiz-adv-x="704" 
d="M666 965v-56h-119v-182h-62v182h-426v56l410 536h78v-536h119zM129 965h356v467z" />
    <glyph glyph-name="uni2075" unicode="&#x2075;" horiz-adv-x="673" 
d="M356 1206q114 0 183 -64t69 -173q0 -116 -75 -186t-203 -70q-163 0 -262 114l38 41q83 -96 222 -96q99 0 158 52t59 145q0 86 -53 134t-144 48q-102 0 -184 -68l-49 27v391h456v-57h-395v-295q83 57 180 57z" />
    <glyph glyph-name="uni2076" unicode="&#x2076;" horiz-adv-x="690" 
d="M360 1245q117 0 194 -71.5t77 -192.5q0 -124 -78.5 -196t-202.5 -72q-123 0 -200.5 72.5t-77.5 197.5q0 122 100 258l193 260h77l-221 -293q61 37 139 37zM350 770q98 0 156.5 56t58.5 155q0 97 -58.5 153t-156.5 56t-156.5 -56t-58.5 -153q0 -99 58.5 -155t156.5 -56z
" />
    <glyph glyph-name="uni2077" unicode="&#x2077;" horiz-adv-x="600" 
d="M41 1501h518v-53l-350 -721h-72l352 715h-448v59z" />
    <glyph glyph-name="uni2078" unicode="&#x2078;" horiz-adv-x="716" 
d="M469 1124q81 -22 124.5 -73t43.5 -123q0 -96 -74.5 -155.5t-204.5 -59.5q-131 0 -205.5 59.5t-74.5 155.5q0 72 43.5 123t124.5 73q-70 23 -108 71.5t-38 113.5q0 92 69 149.5t189 57.5t189 -57.5t69 -149.5q0 -65 -38.5 -114t-108.5 -71zM162 1307q0 -72 51 -114
t145 -42q92 0 143.5 42t51.5 114q0 70 -51.5 111.5t-143.5 41.5q-94 0 -145 -41.5t-51 -111.5zM358 770q102 0 158.5 44t56.5 118q0 75 -57 119.5t-158 44.5t-158 -44.5t-57 -119.5q0 -74 56.5 -118t158.5 -44z" />
    <glyph glyph-name="uni2079" unicode="&#x2079;" horiz-adv-x="690" 
d="M342 1516q124 0 202.5 -73t78.5 -198q0 -122 -103 -258l-192 -260h-76l219 293q-61 -37 -139 -37q-117 0 -193 71t-76 193q0 124 78 196.5t201 72.5zM342 1038q98 0 156.5 56t58.5 153q0 99 -58.5 155t-156.5 56t-156.5 -56t-58.5 -155q0 -97 58.5 -153t156.5 -56z" />
    <glyph glyph-name="Euro" unicode="&#x20ac;" horiz-adv-x="1312" 
d="M786 41q127 0 226.5 84t144.5 233l62 -22q-53 -169 -168.5 -266t-266.5 -97q-192 0 -329.5 154.5t-175.5 409.5h-197v57h190q-6 58 -6 123t6 123h-190v57h197q38 255 175.5 409t329.5 154q151 0 266.5 -96.5t168.5 -265.5l-62 -23q-45 150 -144.5 234t-226.5 84
q-163 0 -281 -134t-153 -362h572v-57h-580q-6 -58 -6 -123t6 -123h580v-57h-572q35 -228 153 -362t281 -134z" />
    <glyph glyph-name="uni2116" unicode="&#x2116;" horiz-adv-x="2615" 
d="M2042 594q-187 0 -301.5 122t-114.5 310q0 190 114.5 312t301.5 122q186 0 301 -122.5t115 -311.5q0 -188 -115 -310t-301 -122zM1305 113v1321h71v-1434h-73l-988 1321v-1321h-71v1434h73zM2042 1397q-153 0 -248.5 -102t-95.5 -269q0 -164 96 -266.5t248 -102.5
q151 0 247.5 102.5t96.5 266.5q0 166 -96 268.5t-248 102.5zM1651 301v64h782v-64h-782z" />
    <glyph glyph-name="trademark" unicode="&#x2122;" horiz-adv-x="1900" 
d="M115 1376v58h618v-58h-276v-778h-64v778h-278zM1663 1434h63v-836h-61v735l-319 -456h-50l-319 452v-731h-64v836h64l344 -488z" />
    <glyph glyph-name="uni2126" unicode="&#x2126;" horiz-adv-x="1646" 
d="M1475 756q0 -411 -379 -690h379v-66h-490v66q205 137 310.5 305t105.5 385q0 284 -163 460.5t-415 176.5t-414.5 -176.5t-162.5 -460.5q0 -217 105.5 -385t310.5 -305v-66h-490v66h379q-379 279 -379 690q0 204 85.5 365.5t234 250t331.5 88.5t331.5 -88.5t234.5 -250
t86 -365.5z" />
    <glyph glyph-name="estimated" unicode="&#x212e;" horiz-adv-x="1726" 
d="M862 0q-145 0 -275.5 52t-228.5 147q-97 94 -151.5 228t-54.5 290q0 155 55 292t151 230q98 92 229 143.5t275 51.5t274.5 -51.5t227.5 -143.5q98 -93 153.5 -230t55.5 -292v-25h-1196v-309q0 -72 20.5 -119t71.5 -84q171 -127 393 -127q172 0 315.5 75t231.5 210l43 -33
q-97 -145 -252 -225t-338 -80zM377 741h981v299q0 71 -20 120.5t-68 86.5q-177 133 -408 133q-222 0 -393 -127q-51 -37 -71.5 -84t-20.5 -120v-308z" />
    <glyph glyph-name="arrowleft" unicode="&#x2190;" 
d="M1348 752v-68h-1158l437 -438l-45 -47l-508 518l508 518l45 -47l-434 -436h1155z" />
    <glyph glyph-name="arrowup" unicode="&#x2191;" 
d="M1245 856l-47 -45l-436 434v-1155h-68v1157l-438 -436l-47 45l518 510z" />
    <glyph glyph-name="arrowright" unicode="&#x2192;" 
d="M872 1235l508 -518l-508 -518l-45 47l435 436h-1156v68h1158l-437 438z" />
    <glyph glyph-name="arrowdown" unicode="&#x2193;" 
d="M1198 633l47 -43l-518 -510l-518 510l47 43l436 -432v1153h68v-1155z" />
    <glyph glyph-name="uni2196" unicode="&#x2196;" 
d="M1227 279l-47 -50l-818 820l-2 -619h-63l6 725l725 6l-2 -63l-614 -2z" />
    <glyph glyph-name="uni2197" unicode="&#x2197;" 
d="M1155 432h-63l-2 615l-818 -816l-47 50l819 817h-618v65l723 -6z" />
    <glyph glyph-name="uni2198" unicode="&#x2198;" 
d="M1094 1004h63l-6 -725l-725 -7l2 64l614 2l-815 817l47 49l818 -819z" />
    <glyph glyph-name="uni2199" unicode="&#x2199;" 
d="M1229 1153l-819 -817h618v-66l-723 6l-6 725h63v-616l820 817z" />
    <glyph glyph-name="partialdiff" unicode="&#x2202;" horiz-adv-x="1308" 
d="M608 1462q275 0 425.5 -198.5t150.5 -571.5q0 -375 -154 -555q-139 -166 -385 -166q-233 0 -376.5 137t-143.5 359q0 218 139.5 357t356.5 139q178 0 315 -98.5t168 -270.5h4q2 37 2 92q0 354 -130 532.5t-372 178.5q-151 0 -286 -74l-25 59q143 80 311 80zM639 37
q197 0 317.5 121t120.5 311q0 192 -125.5 310t-320.5 118q-193 0 -312.5 -118.5t-119.5 -311.5q0 -199 124 -314.5t316 -115.5z" />
    <glyph glyph-name="uni2206" unicode="&#x2206;" horiz-adv-x="1380" 
d="M715 1434l598 -1389l-29 -45h-1188l-30 45l598 1389h51zM690 1319l-540 -1253h1079z" />
    <glyph glyph-name="product" unicode="&#x220f;" horiz-adv-x="1427" 
d="M1184 1516v-1782h-74v1714h-793v-1714h-73v1782h940z" />
    <glyph glyph-name="summation" unicode="&#x2211;" horiz-adv-x="1105" 
d="M1036 1516v-68h-825l592 -823l-592 -824h825v-67h-909v67l594 824l-594 823v68h909z" />
    <glyph glyph-name="minus" unicode="&#x2212;" 
d="M291 618v62h872v-62h-872z" />
    <glyph glyph-name="radical" unicode="&#x221a;" horiz-adv-x="1273" 
d="M1180 1516h73l-573 -1782h-78l-317 829h-240v68h293l301 -797z" />
    <glyph glyph-name="infinity" unicode="&#x221e;" horiz-adv-x="1515" 
d="M1112 1034q139 0 228.5 -96t89.5 -256t-89.5 -257t-228.5 -97q-53 0 -99.5 16t-80.5 40.5t-67.5 64.5t-56 76t-50.5 87q-36 -65 -66 -108t-73.5 -87.5t-98 -66.5t-119.5 -22q-138 0 -226.5 96.5t-88.5 257.5q0 160 88 256t227 96q65 0 119.5 -22t98 -66.5t73.5 -87.5
t66 -108q28 51 50.5 87t56 76t67.5 64.5t80.5 40.5t99.5 16zM401 391q46 0 87 17t70 40.5t61 67t51 76.5t49 90q-30 57 -49 89t-51 76t-60.5 67t-70 40t-87.5 17q-109 0 -178 -79.5t-69 -209.5q0 -131 69.5 -211t177.5 -80zM1114 391q109 0 178.5 80t69.5 211
q0 130 -69.5 209.5t-178.5 79.5q-39 0 -73 -10t-63.5 -32.5t-52.5 -45t-48 -61t-41 -66.5t-41 -74q30 -56 49.5 -90t51 -77t60.5 -66.5t70.5 -40.5t87.5 -17z" />
    <glyph glyph-name="integral" unicode="&#x222b;" horiz-adv-x="753" 
d="M49 -266v65h117q99 0 137.5 41t38.5 154v1266q0 142 54 199t186 57h125v-66h-119q-98 0 -136 -40.5t-38 -154.5v-1265q0 -142 -54.5 -199t-187.5 -57h-123z" />
    <glyph glyph-name="approxequal" unicode="&#x2248;" 
d="M928 784q-68 0 -200 53.5t-198 53.5q-115 0 -239 -94v63q114 92 239 92q65 0 200 -53t196 -53q114 0 237 94v-63q-119 -93 -235 -93zM928 344q-68 0 -200 54.5t-198 54.5q-111 0 -239 -97v64q114 92 239 92q65 0 200 -53t196 -53q114 0 237 94v-64q-118 -92 -235 -92z
" />
    <glyph glyph-name="notequal" unicode="&#x2260;" 
d="M1163 838h-313l-182 -377h495v-64h-524l-143 -297h-64l143 297h-284v64h313l182 377h-495v63h524l143 297h64l-143 -297h284v-63z" />
    <glyph glyph-name="lessequal" unicode="&#x2264;" 
d="M1163 1079v-67l-803 -330l803 -332v-67l-872 362v72zM291 0v63h872v-63h-872z" />
    <glyph glyph-name="greaterequal" unicode="&#x2265;" 
d="M291 1079l872 -362v-72l-872 -362v67l803 332l-803 330v67zM291 0v63h872v-63h-872z" />
    <glyph glyph-name="filledbox" unicode="&#x25a0;" horiz-adv-x="1843" 
d="M205 0v1434h1433v-1434h-1433z" />
    <glyph glyph-name="triagup" unicode="&#x25b2;" horiz-adv-x="1843" 
d="M205 0l717 1434l716 -1434h-1433z" />
    <glyph glyph-name="triagdn" unicode="&#x25bc;" horiz-adv-x="1843" 
d="M922 0l-717 1434h1433z" />
    <glyph glyph-name="uni25C6" unicode="&#x25c6;" horiz-adv-x="1843" 
d="M920 0l-715 715l715 719l718 -719z" />
    <glyph glyph-name="lozenge" unicode="&#x25ca;" horiz-adv-x="1253" 
d="M653 1434l533 -717l-533 -717h-53l-532 717l532 717h53zM627 78l473 639l-473 639l-475 -639z" />
    <glyph glyph-name="uni25CF" unicode="&#x25cf;" horiz-adv-x="1843" 
d="M922 0q-145 0 -278 57t-229 153t-153 229t-57 278t57 278t153 229t229 153t278 57t278 -57t228.5 -153t152.5 -228.5t57 -278.5t-57 -278.5t-152.5 -228.5t-228.5 -153t-278 -57z" />
    <glyph glyph-name="uni2610" unicode="&#x2610;" horiz-adv-x="1843" 
d="M205 0v1434h1433v-1434h-1433zM264 55h1315v1323h-1315v-1323z" />
    <glyph glyph-name="uni2611" unicode="&#x2611;" horiz-adv-x="1843" 
d="M205 1434h1433v-1434h-1433v1434zM1579 55v1323h-1315v-1323h1315zM1266 1077l-435 -753l-253 145l32 57l199 -112l401 694z" />
    <glyph glyph-name="uni2612" unicode="&#x2612;" horiz-adv-x="1843" 
d="M205 1434h1433v-1434h-1433v1434zM1579 55v1323h-1315v-1323h1315zM590 340l-45 45l332 332l-332 332l45 45l332 -332l331 332l45 -45l-331 -332l331 -332l-45 -45l-331 332z" />
    <glyph glyph-name="heart" unicode="&#x2665;" horiz-adv-x="1843" 
d="M922 98q-65 63 -150.5 127t-153.5 107t-139 98.5t-118 108.5t-77 130t-30 169q0 97 32 176t84 127.5t115.5 74t130.5 25.5q119 0 206.5 -73t97.5 -205h4q10 132 97 205t206 73q67 0 130.5 -25.5t115.5 -74t84 -127.5t32 -176q0 -92 -30 -169t-77 -130t-117.5 -108.5
t-138.5 -98.5t-153.5 -107t-150.5 -127z" />
    <glyph glyph-name="uni2B51" unicode="&#x2b51;" horiz-adv-x="1843" 
d="M446 -6l183 557l-469 340h581l179 553l178 -555h585l-473 -342l181 -553l-471 344z" />
    <glyph glyph-name="uni00A40301" horiz-adv-x="1204" 
d="M838 1608l252 313h86l-263 -313h-75zM502 -27q-131 0 -244.5 51.5t-194.5 149.5l50 49q68 -88 169.5 -134t217.5 -46q188 0 297.5 121.5t109.5 353.5v916h74v-920q0 -256 -127.5 -398.5t-351.5 -142.5z" />
    <glyph glyph-name="i.loclTRK" horiz-adv-x="473" 
d="M238 1305q-28 0 -45 17.5t-17 43.5t17 43.5t45 17.5q27 0 44 -17t17 -44t-17 -44t-44 -17zM201 0v1028h69v-1028h-69z" />
    <glyph glyph-name="uni006A0301" horiz-adv-x="473" 
d="M133 1202l219 314h86l-229 -314h-76zM35 -438q-49 0 -98 14v64q50 -13 92 -13q84 0 128 52.5t44 148.5v1200h69v-1204q0 -126 -60 -194t-175 -68z" />
    <glyph glyph-name="a.ss01" horiz-adv-x="1343" 
d="M1075 1028h70v-1028h-70v281q-48 -142 -166.5 -225t-279.5 -83q-224 0 -364 151.5t-140 389.5t140 388.5t364 150.5q162 0 280 -81.5t166 -223.5v280zM639 39q193 0 315.5 132.5t122.5 342.5t-122.5 341.5t-315.5 131.5t-316.5 -131.5t-123.5 -341.5t123.5 -342.5
t316.5 -132.5z" />
    <glyph glyph-name="aacute.ss01" horiz-adv-x="1343" 
d="M922 1516l-263 -314h-75l252 314h86zM1075 1028h70v-1028h-70v281q-48 -142 -166.5 -225t-279.5 -83q-224 0 -364 151.5t-140 389.5t140 388.5t364 150.5q162 0 280 -81.5t166 -223.5v280zM639 39q193 0 315.5 132.5t122.5 342.5t-122.5 341.5t-315.5 131.5
t-316.5 -131.5t-123.5 -341.5t123.5 -342.5t316.5 -132.5z" />
    <glyph glyph-name="abreve.ss01" horiz-adv-x="1343" 
d="M688 1212q-270 0 -270 248v4h65q0 -100 50 -148t155 -48t155 48t50 148h65v-4q0 -248 -270 -248zM1075 1028h70v-1028h-70v281q-48 -142 -166.5 -225t-279.5 -83q-224 0 -364 151.5t-140 389.5t140 388.5t364 150.5q162 0 280 -81.5t166 -223.5v280zM639 39
q193 0 315.5 132.5t122.5 342.5t-122.5 341.5t-315.5 131.5t-316.5 -131.5t-123.5 -341.5t123.5 -342.5t316.5 -132.5z" />
    <glyph glyph-name="uni01CE.ss01" horiz-adv-x="1343" 
d="M723 1202h-70l-282 314h75l242 -269l242 269h76zM1075 1028h70v-1028h-70v281q-48 -142 -166.5 -225t-279.5 -83q-224 0 -364 151.5t-140 389.5t140 388.5t364 150.5q162 0 280 -81.5t166 -223.5v280zM639 39q193 0 315.5 132.5t122.5 342.5t-122.5 341.5t-315.5 131.5
t-316.5 -131.5t-123.5 -341.5t123.5 -342.5t316.5 -132.5z" />
    <glyph glyph-name="acircumflex.ss01" horiz-adv-x="1343" 
d="M688 1470l-242 -268h-75l282 314h70l283 -314h-76zM1075 1028h70v-1028h-70v281q-48 -142 -166.5 -225t-279.5 -83q-224 0 -364 151.5t-140 389.5t140 388.5t364 150.5q162 0 280 -81.5t166 -223.5v280zM639 39q193 0 315.5 132.5t122.5 342.5t-122.5 341.5t-315.5 131.5
t-316.5 -131.5t-123.5 -341.5t123.5 -342.5t316.5 -132.5z" />
    <glyph glyph-name="adieresis.ss01" horiz-adv-x="1343" 
d="M477 1305q-28 0 -45.5 17.5t-17.5 43.5t17.5 43.5t45.5 17.5q26 0 44 -17.5t18 -43.5t-18 -43.5t-44 -17.5zM899 1305q-26 0 -43.5 17.5t-17.5 43.5t17.5 43.5t43.5 17.5q28 0 46 -17.5t18 -43.5t-18 -43.5t-46 -17.5zM1075 1028h70v-1028h-70v281q-48 -142 -166.5 -225
t-279.5 -83q-224 0 -364 151.5t-140 389.5t140 388.5t364 150.5q162 0 280 -81.5t166 -223.5v280zM639 39q193 0 315.5 132.5t122.5 342.5t-122.5 341.5t-315.5 131.5t-316.5 -131.5t-123.5 -341.5t123.5 -342.5t316.5 -132.5z" />
    <glyph glyph-name="agrave.ss01" horiz-adv-x="1343" 
d="M797 1202h-76l-264 314h88zM1075 1028h70v-1028h-70v281q-48 -142 -166.5 -225t-279.5 -83q-224 0 -364 151.5t-140 389.5t140 388.5t364 150.5q162 0 280 -81.5t166 -223.5v280zM639 39q193 0 315.5 132.5t122.5 342.5t-122.5 341.5t-315.5 131.5t-316.5 -131.5
t-123.5 -341.5t123.5 -342.5t316.5 -132.5z" />
    <glyph glyph-name="amacron.ss01" horiz-adv-x="1343" 
d="M985 1354v-62h-594v62h594zM1075 1028h70v-1028h-70v281q-48 -142 -166.5 -225t-279.5 -83q-224 0 -364 151.5t-140 389.5t140 388.5t364 150.5q162 0 280 -81.5t166 -223.5v280zM639 39q193 0 315.5 132.5t122.5 342.5t-122.5 341.5t-315.5 131.5t-316.5 -131.5
t-123.5 -341.5t123.5 -342.5t316.5 -132.5z" />
    <glyph glyph-name="aogonek.ss01" horiz-adv-x="1343" 
d="M1075 1028h70v-1028h-2q-106 -65 -154.5 -126t-48.5 -126q0 -62 43.5 -92.5t136.5 -30.5h23v-61h-27q-122 0 -183 47t-61 131q0 153 203 266v273q-48 -142 -166.5 -225t-279.5 -83q-224 0 -364 151.5t-140 389.5t140 388.5t364 150.5q162 0 280 -81.5t166 -223.5v280z
M639 39q193 0 315.5 132.5t122.5 342.5t-122.5 341.5t-315.5 131.5t-316.5 -131.5t-123.5 -341.5t123.5 -342.5t316.5 -132.5z" />
    <glyph glyph-name="aring.ss01" horiz-adv-x="1343" 
d="M688 1202q-95 0 -157 61t-62 152q0 90 62 150.5t157 60.5t157 -60.5t62 -150.5q0 -91 -62 -152t-157 -61zM688 1573q-72 0 -116 -44.5t-44 -113.5t44 -113.5t116 -44.5t116 44.5t44 113.5t-44 113.5t-116 44.5zM1075 1028h70v-1028h-70v281q-48 -142 -166.5 -225
t-279.5 -83q-224 0 -364 151.5t-140 389.5t140 388.5t364 150.5q162 0 280 -81.5t166 -223.5v280zM639 39q193 0 315.5 132.5t122.5 342.5t-122.5 341.5t-315.5 131.5t-316.5 -131.5t-123.5 -341.5t123.5 -342.5t316.5 -132.5z" />
    <glyph glyph-name="atilde.ss01" horiz-adv-x="1343" 
d="M543 1405q-44 0 -71.5 -38t-27.5 -105h-55q0 92 42.5 145t109.5 53q40 0 78 -19.5t90 -68.5q41 -39 67.5 -53t57.5 -14q44 0 71 38.5t27 106.5h55q0 -94 -42 -147.5t-109 -53.5q-40 0 -78 19t-92 69q-38 38 -65 53t-58 15zM1075 1028h70v-1028h-70v281
q-48 -142 -166.5 -225t-279.5 -83q-224 0 -364 151.5t-140 389.5t140 388.5t364 150.5q162 0 280 -81.5t166 -223.5v280zM639 39q193 0 315.5 132.5t122.5 342.5t-122.5 341.5t-315.5 131.5t-316.5 -131.5t-123.5 -341.5t123.5 -342.5t316.5 -132.5z" />
    <glyph glyph-name="j.ss02" horiz-adv-x="473" 
d="M236 1305q-26 0 -44 17.5t-18 43.5t18 43.5t44 17.5q27 0 44 -17t17 -44t-17 -44t-44 -17zM201 -410v1438h69v-1438h-69z" />
    <glyph glyph-name="uni0237.ss02" horiz-adv-x="473" 
d="M201 -410v1438h69v-1438h-69z" />
    <glyph glyph-name="uni006A0301.ss02" horiz-adv-x="473" 
d="M133 1202l219 314h86l-229 -314h-76zM201 -410v1438h69v-1438h-69z" />
    <glyph glyph-name="jcircumflex.ss02" horiz-adv-x="473" 
d="M272 1516l254 -314h-73l-215 268l-215 -268h-74l254 314h69zM201 -410v1438h69v-1438h-69z" />
    <glyph glyph-name="t.ss03" horiz-adv-x="751" 
d="M342 0v965h-301v63h301v309h70v-309h299v-63h-299v-965h-70z" />
    <glyph glyph-name="tbar.ss03" horiz-adv-x="751" 
d="M711 965h-299v-387h260v-58h-260v-520h-70v520h-260v58h260v387h-301v63h301v309h70v-309h299v-63z" />
    <glyph glyph-name="tcaron.ss03" horiz-adv-x="782" 
d="M621 1208v389h73l-16 -389h-57zM342 0v965h-301v63h301v309h70v-309h299v-63h-299v-965h-70z" />
    <glyph glyph-name="uni0163.ss03" horiz-adv-x="751" 
d="M342 0v965h-301v63h301v309h70v-309h299v-63h-299v-965h-70zM246 -537l82 336h73l-98 -336h-57z" />
    <glyph glyph-name="uni021B.ss03" horiz-adv-x="751" 
d="M342 0v965h-301v63h301v309h70v-309h299v-63h-299v-965h-70zM246 -537l82 336h73l-98 -336h-57z" />
    <glyph glyph-name="y.ss04" horiz-adv-x="1232" 
d="M965 1028h69v-987q0 -225 -122 -351t-341 -126q-129 0 -237.5 45.5t-177.5 128.5l45 47q61 -73 159.5 -114.5t208.5 -41.5q185 0 290.5 109t105.5 303v219q-40 -121 -148.5 -190.5t-261.5 -69.5q-183 0 -279 106.5t-96 315.5v606h70v-596q0 -366 315 -366
q176 0 288 103.5t112 279.5v579z" />
    <glyph glyph-name="yacute.ss04" horiz-adv-x="1232" 
d="M840 1516l-262 -314h-76l252 314h86zM965 1028h69v-987q0 -225 -122 -351t-341 -126q-129 0 -237.5 45.5t-177.5 128.5l45 47q61 -73 159.5 -114.5t208.5 -41.5q185 0 290.5 109t105.5 303v219q-40 -121 -148.5 -190.5t-261.5 -69.5q-183 0 -279 106.5t-96 315.5v606h70
v-596q0 -366 315 -366q176 0 288 103.5t112 279.5v579z" />
    <glyph glyph-name="ycircumflex.ss04" horiz-adv-x="1232" 
d="M608 1470l-241 -268h-76l282 314h70l283 -314h-76zM965 1028h69v-987q0 -225 -122 -351t-341 -126q-129 0 -237.5 45.5t-177.5 128.5l45 47q61 -73 159.5 -114.5t208.5 -41.5q185 0 290.5 109t105.5 303v219q-40 -121 -148.5 -190.5t-261.5 -69.5q-183 0 -279 106.5
t-96 315.5v606h70v-596q0 -366 315 -366q176 0 288 103.5t112 279.5v579z" />
    <glyph glyph-name="ydieresis.ss04" horiz-adv-x="1232" 
d="M397 1305q-28 0 -45.5 17.5t-17.5 43.5t17.5 43.5t45.5 17.5q26 0 44 -17.5t18 -43.5t-18 -43.5t-44 -17.5zM819 1305q-26 0 -43.5 17.5t-17.5 43.5t17.5 43.5t43.5 17.5q28 0 46 -17.5t18 -43.5t-18 -43.5t-46 -17.5zM965 1028h69v-987q0 -225 -122 -351t-341 -126
q-129 0 -237.5 45.5t-177.5 128.5l45 47q61 -73 159.5 -114.5t208.5 -41.5q185 0 290.5 109t105.5 303v219q-40 -121 -148.5 -190.5t-261.5 -69.5q-183 0 -279 106.5t-96 315.5v606h70v-596q0 -366 315 -366q176 0 288 103.5t112 279.5v579z" />
    <glyph glyph-name="ygrave.ss04" horiz-adv-x="1232" 
d="M717 1202h-76l-264 314h88zM965 1028h69v-987q0 -225 -122 -351t-341 -126q-129 0 -237.5 45.5t-177.5 128.5l45 47q61 -73 159.5 -114.5t208.5 -41.5q185 0 290.5 109t105.5 303v219q-40 -121 -148.5 -190.5t-261.5 -69.5q-183 0 -279 106.5t-96 315.5v606h70v-596
q0 -366 315 -366q176 0 288 103.5t112 279.5v579z" />
    <glyph glyph-name="zero.zero" horiz-adv-x="1429" 
d="M715 1460q253 0 400 -193t147 -550t-147.5 -550.5t-399.5 -193.5q-254 0 -401.5 193.5t-147.5 550.5t147.5 550t401.5 193zM242 717q0 -394 182 -567l532 1173q-101 70 -241 70q-221 0 -347 -172.5t-126 -503.5zM715 41q220 0 345.5 172.5t125.5 503.5q0 396 -180 567
l-531 -1175q103 -68 240 -68z" />
    <glyph glyph-name="zero.lf" horiz-adv-x="1429" 
d="M715 -27q-254 0 -401.5 193.5t-147.5 550.5t147.5 550t401.5 193q253 0 400 -193t147 -550t-147.5 -550.5t-399.5 -193.5zM715 41q220 0 345.5 172.5t125.5 503.5t-125.5 503.5t-345.5 172.5q-221 0 -347 -172.5t-126 -503.5t126 -503.5t347 -172.5z" />
    <glyph glyph-name="one.lf" horiz-adv-x="858" 
d="M543 1434h59v-1434h-72v1356l-421 -219v71z" />
    <glyph glyph-name="two.lf" horiz-adv-x="1193" 
d="M213 68h858v-68h-965v59l588 549q150 139 211.5 245.5t61.5 213.5q0 152 -97 239t-254 87q-146 0 -260 -80.5t-186 -243.5l-57 33q73 176 204.5 267t296.5 91q189 0 307.5 -109t118.5 -282q0 -119 -65 -235t-215 -256z" />
    <glyph glyph-name="three.lf" horiz-adv-x="1148" 
d="M719 729q154 -33 232.5 -121t78.5 -223q0 -184 -133.5 -298t-347.5 -114q-145 0 -269 55.5t-202 161.5l49 46q74 -97 183 -146t239 -49q187 0 297 94.5t110 251.5q0 154 -117.5 234.5t-353.5 80.5h-100v64h180q180 0 277.5 82t97.5 223q0 147 -99.5 234.5t-267.5 87.5
q-136 0 -245.5 -60t-177.5 -170l-54 41q81 125 204 190.5t275 65.5q200 0 318.5 -108.5t118.5 -278.5q0 -133 -76.5 -225t-216.5 -119z" />
    <glyph glyph-name="four.lf" horiz-adv-x="1245" 
d="M1200 414v-64h-233v-350h-70v350h-807v64l780 1020h97v-1020h233zM174 414h723v944z" />
    <glyph glyph-name="five.lf" horiz-adv-x="1185" 
d="M614 879q207 0 336 -119t129 -320q0 -207 -138.5 -337t-365.5 -130q-284 0 -458 207l47 45q153 -184 409 -184q196 0 314.5 107t118.5 292q0 174 -105.5 273.5t-288.5 99.5q-198 0 -366 -133l-60 35v719h822v-66h-752v-612q165 123 358 123z" />
    <glyph glyph-name="six.lf" horiz-adv-x="1224" 
d="M639 954q213 0 354.5 -132.5t141.5 -356.5q0 -150 -67 -263t-181.5 -171t-259.5 -58q-222 0 -365 133t-143 361q0 113 43.5 225t142.5 246l367 496h90l-440 -586q132 106 317 106zM627 41q196 0 314 113.5t118 310.5t-118 310.5t-314 113.5t-314 -113.5t-118 -310.5
t118 -310.5t314 -113.5z" />
    <glyph glyph-name="seven.lf" horiz-adv-x="1058" 
d="M59 1434h940v-62l-669 -1372h-78l666 1366h-859v68z" />
    <glyph glyph-name="eight.lf" horiz-adv-x="1284" 
d="M821 737q155 -37 240.5 -134t85.5 -234q0 -174 -135.5 -285t-368.5 -111q-234 0 -370 111t-136 285q0 137 85.5 234t240.5 134q-136 37 -211.5 127.5t-75.5 216.5q0 168 125.5 273.5t341.5 105.5q214 0 339.5 -105.5t125.5 -273.5q0 -126 -75.5 -216.5t-211.5 -127.5z
M250 1079q0 -141 103.5 -226t289.5 -85q184 0 287.5 85t103.5 226q0 143 -103 228.5t-288 85.5q-186 0 -289.5 -85.5t-103.5 -228.5zM643 41q202 0 316 91t114 241q0 149 -114 239t-316 90q-203 0 -317.5 -90t-114.5 -239q0 -151 114 -241.5t318 -90.5z" />
    <glyph glyph-name="nine.lf" horiz-adv-x="1224" 
d="M600 1460q144 0 258 -57.5t181 -170.5t67 -265q0 -114 -43 -226t-143 -245l-367 -496h-90l440 586q-134 -107 -317 -107q-213 0 -354.5 133t-141.5 357q0 226 143.5 358.5t366.5 132.5zM166 969q0 -197 118 -310.5t314 -113.5t314 113.5t118 310.5t-118 310.5t-314 113.5
t-314 -113.5t-118 -310.5z" />
    <glyph glyph-name="zero.tf" 
d="M727 -27q-248 0 -384 191.5t-136 552.5t136 552t384 191t384 -191t136 -552t-136 -552.5t-384 -191.5zM727 41q215 0 331 171t116 505t-116 505t-331 171t-330.5 -171t-115.5 -505t115.5 -505t330.5 -171z" />
    <glyph glyph-name="one.tf" 
d="M827 68h422v-68h-950v68h457v1288l-422 -219v71l434 226h59v-1366z" />
    <glyph glyph-name="two.tf" 
d="M348 68h858v-68h-966v59l589 549q149 140 211 246t62 213q0 153 -97 239.5t-255 86.5q-145 0 -260 -81t-185 -243l-57 33q73 176 205 267t297 91q188 0 307 -109t119 -282q0 -118 -65.5 -234t-215.5 -257z" />
    <glyph glyph-name="three.tf" 
d="M879 729q153 -34 231 -122t78 -222q0 -184 -133 -298t-346 -114q-146 0 -269.5 55.5t-201.5 161.5l47 46q75 -97 184.5 -146t239.5 -49q187 0 297 94.5t110 251.5q0 154 -117.5 234.5t-353.5 80.5h-100v64h180q180 0 276.5 82t96.5 223q0 147 -98.5 234.5t-266.5 87.5
q-136 0 -246 -60.5t-178 -169.5l-55 41q81 125 205 190.5t276 65.5q200 0 318 -108t118 -279q0 -134 -76.5 -225.5t-215.5 -118.5z" />
    <glyph glyph-name="four.tf" 
d="M1309 414v-64h-234v-350h-69v350h-807v64l780 1020h96v-1020h234zM283 414h723v944z" />
    <glyph glyph-name="five.tf" 
d="M756 879q207 0 335 -118.5t128 -320.5q0 -207 -137.5 -337t-364.5 -130q-284 0 -461 207l49 45q153 -184 410 -184q195 0 313.5 107t118.5 292q0 174 -105 273.5t-288 99.5q-199 0 -367 -133l-59 35v719h821v-66h-752v-612q165 123 359 123z" />
    <glyph glyph-name="six.tf" 
d="M752 954q213 0 354 -132.5t141 -356.5q0 -150 -67 -263t-181.5 -171t-259.5 -58q-221 0 -363.5 133t-142.5 361q0 113 43.5 225.5t143.5 245.5l366 496h88l-440 -586q132 106 318 106zM741 41q195 0 314 113.5t119 310.5t-119 310.5t-314 113.5q-196 0 -315 -113.5
t-119 -310.5t119 -310.5t315 -113.5z" />
    <glyph glyph-name="seven.tf" 
d="M262 1434h967v-62l-668 -1372h-78l666 1366h-887v68z" />
    <glyph glyph-name="eight.tf" 
d="M907 737q156 -37 242 -134t86 -234q0 -174 -136 -285t-370 -111t-370 111t-136 285q0 137 86 234t242 134q-137 37 -212 127t-75 217q0 168 125 273.5t340 105.5t340 -105.5t125 -273.5q0 -127 -75 -217t-212 -127zM336 1079q0 -141 104.5 -226t288.5 -85t288.5 85
t104.5 226q0 143 -104 228.5t-289 85.5t-289 -85.5t-104 -228.5zM729 41q202 0 317 91t115 241q0 149 -115 239t-317 90t-317 -90t-115 -239q0 -150 115 -241t317 -91z" />
    <glyph glyph-name="nine.tf" 
d="M723 1460q144 0 258 -57.5t181 -170.5t67 -265q0 -113 -43.5 -225.5t-143.5 -245.5l-366 -496h-88l440 586q-134 -107 -317 -107q-213 0 -354.5 133t-141.5 357q0 225 143 358t365 133zM289 969q0 -197 118.5 -310.5t313.5 -113.5q196 0 315 113.5t119 310.5t-119 310.5
t-315 113.5q-195 0 -313.5 -113.5t-118.5 -310.5z" />
    <glyph glyph-name="zero.tf.zero" 
d="M727 1460q248 0 384 -191t136 -552t-136 -552.5t-384 -191.5t-384 191.5t-136 552.5t136 552t384 191zM281 717q0 -392 159 -559l527 1161q-100 74 -240 74q-215 0 -330.5 -171t-115.5 -505zM727 41q215 0 331 171t116 505q0 388 -158 557l-527 -1161q101 -72 238 -72z
" />
    <glyph glyph-name="zero.subs" horiz-adv-x="776" 
d="M389 -150q-141 0 -222 104t-81 298t81 297.5t222 103.5q140 0 220.5 -103.5t80.5 -297.5t-81 -298t-220 -104zM389 -90q111 0 172.5 86t61.5 256t-61.5 256t-172.5 86q-112 0 -173.5 -86t-61.5 -256t61.5 -256t173.5 -86z" />
    <glyph glyph-name="one.subs" horiz-adv-x="493" 
d="M297 639h53v-774h-63v704l-219 -112v63z" />
    <glyph glyph-name="two.subs" horiz-adv-x="675" 
d="M168 -76h436v-59h-530v49l311 291q77 72 108 125t31 106q0 72 -48 115t-124 43q-157 0 -225 -166l-53 29q39 95 112.5 145.5t165.5 50.5q104 0 170 -60.5t66 -154.5q0 -123 -146 -258z" />
    <glyph glyph-name="three.subs" horiz-adv-x="665" 
d="M426 260q80 -19 122 -66.5t42 -119.5q0 -100 -73 -162t-191 -62q-80 0 -149 30t-114 87l39 41q40 -49 98.5 -73.5t123.5 -24.5q95 0 148.5 46t53.5 120q0 155 -231 155h-59v58h94q91 0 139.5 40t48.5 109q0 70 -49 113t-131 43q-70 0 -128 -30.5t-93 -86.5l-43 39
q44 67 112.5 102t151.5 35q112 0 178 -58.5t66 -152.5q0 -71 -41 -120t-115 -62z" />
    <glyph glyph-name="four.subs" horiz-adv-x="704" 
d="M666 102v-55h-119v-182h-62v182h-426v55l410 537h78v-537h119zM129 102h356v467z" />
    <glyph glyph-name="five.subs" horiz-adv-x="673" 
d="M356 344q114 0 183 -64.5t69 -173.5q0 -116 -75 -186t-203 -70q-162 0 -262 115l38 41q83 -96 222 -96q100 0 158.5 51.5t58.5 144.5q0 86 -53 134.5t-144 48.5q-102 0 -184 -68l-49 27v391h456v-57h-395v-295q83 57 180 57z" />
    <glyph glyph-name="six.subs" horiz-adv-x="690" 
d="M360 383q117 0 194 -71.5t77 -192.5q0 -124 -78.5 -196.5t-202.5 -72.5q-123 0 -200.5 73t-77.5 198q0 122 100 258l193 260h77l-221 -293q61 37 139 37zM350 -92q98 0 156.5 56t58.5 155q0 97 -58.5 153t-156.5 56t-156.5 -56t-58.5 -153q0 -99 58.5 -155t156.5 -56z
" />
    <glyph glyph-name="seven.subs" horiz-adv-x="600" 
d="M41 639h518v-53l-350 -721h-72l352 715h-448v59z" />
    <glyph glyph-name="eight.subs" horiz-adv-x="716" 
d="M469 262q81 -22 124.5 -73t43.5 -123q0 -96 -75 -156t-204 -60q-131 0 -205.5 60t-74.5 156q0 72 43.5 123t124.5 73q-70 23 -108 71t-38 113q0 92 69 149.5t189 57.5t189 -57.5t69 -149.5q0 -65 -38.5 -113.5t-108.5 -70.5zM162 444q0 -72 51 -113.5t145 -41.5
q93 0 144 42t51 113q0 70 -51.5 112t-143.5 42q-93 0 -144.5 -42t-51.5 -112zM358 -92q102 0 158.5 44t56.5 118q0 75 -57 119t-158 44t-158 -44t-57 -119q0 -74 56.5 -118t158.5 -44z" />
    <glyph glyph-name="nine.subs" horiz-adv-x="690" 
d="M342 653q124 0 202.5 -72.5t78.5 -197.5q0 -122 -103 -258l-192 -260h-76l219 293q-61 -37 -139 -37q-117 0 -193 71t-76 193q0 123 78 195.5t201 72.5zM342 176q98 0 156.5 56t58.5 153q0 99 -58.5 155t-156.5 56t-156.5 -56t-58.5 -155q0 -97 58.5 -153t156.5 -56z" />
    <glyph glyph-name="zero.dnom" horiz-adv-x="776" 
d="M389 -27q-141 0 -222 104t-81 298t81 297.5t222 103.5q140 0 220.5 -103.5t80.5 -297.5t-81 -298t-220 -104zM389 33q111 0 172.5 86t61.5 256t-61.5 256t-172.5 86q-112 0 -173.5 -86t-61.5 -256t61.5 -256t173.5 -86z" />
    <glyph glyph-name="one.dnom" horiz-adv-x="493" 
d="M297 762h53v-774h-63v704l-219 -112v63z" />
    <glyph glyph-name="two.dnom" horiz-adv-x="675" 
d="M168 47h436v-59h-530v49l311 291q77 72 108 125t31 106q0 72 -48 115t-124 43q-157 0 -225 -166l-53 29q39 95 112.5 145.5t165.5 50.5q104 0 170 -60.5t66 -154.5q0 -123 -146 -258z" />
    <glyph glyph-name="three.dnom" horiz-adv-x="665" 
d="M426 383q80 -19 122 -66.5t42 -119.5q0 -100 -73 -162t-191 -62q-80 0 -149 30t-114 87l39 41q40 -49 98.5 -73.5t123.5 -24.5q95 0 148.5 46t53.5 120q0 155 -231 155h-59v58h94q91 0 139.5 40t48.5 109q0 70 -49 113t-131 43q-70 0 -128 -30.5t-93 -86.5l-43 39
q44 67 112.5 102t151.5 35q112 0 178 -58.5t66 -152.5q0 -71 -41 -120t-115 -62z" />
    <glyph glyph-name="four.dnom" horiz-adv-x="704" 
d="M666 225v-55h-119v-182h-62v182h-426v55l410 537h78v-537h119zM129 225h356v467z" />
    <glyph glyph-name="five.dnom" horiz-adv-x="673" 
d="M356 467q114 0 183 -64.5t69 -173.5q0 -116 -75 -186t-203 -70q-162 0 -262 115l38 41q83 -96 222 -96q100 0 158.5 51.5t58.5 144.5q0 86 -53 134.5t-144 48.5q-102 0 -184 -68l-49 27v391h456v-57h-395v-295q83 57 180 57z" />
    <glyph glyph-name="six.dnom" horiz-adv-x="690" 
d="M360 506q117 0 194 -71.5t77 -192.5q0 -124 -78.5 -196.5t-202.5 -72.5q-123 0 -200.5 73t-77.5 198q0 122 100 258l193 260h77l-221 -293q61 37 139 37zM350 31q98 0 156.5 56t58.5 155q0 97 -58.5 153t-156.5 56t-156.5 -56t-58.5 -153q0 -99 58.5 -155t156.5 -56z" />
    <glyph glyph-name="seven.dnom" horiz-adv-x="600" 
d="M41 762h518v-53l-350 -721h-72l352 714h-448v60z" />
    <glyph glyph-name="eight.dnom" horiz-adv-x="716" 
d="M469 385q81 -22 124.5 -73t43.5 -124q0 -96 -74.5 -155.5t-204.5 -59.5q-131 0 -205.5 59.5t-74.5 155.5q0 73 43.5 124t124.5 73q-70 23 -108 71t-38 113q0 92 69 149.5t189 57.5t189 -57.5t69 -149.5q0 -65 -38.5 -113.5t-108.5 -70.5zM162 567q0 -72 51 -113.5
t145 -41.5q93 0 144 42t51 113q0 70 -51.5 112t-143.5 42q-93 0 -144.5 -42t-51.5 -112zM358 31q102 0 158.5 44t56.5 118q0 75 -57 119t-158 44t-158 -44t-57 -119q0 -74 56.5 -118t158.5 -44z" />
    <glyph glyph-name="nine.dnom" horiz-adv-x="690" 
d="M342 776q124 0 202.5 -72.5t78.5 -197.5q0 -122 -103 -258l-192 -260h-76l219 293q-61 -37 -139 -37q-117 0 -193 71t-76 193q0 123 78 195.5t201 72.5zM342 299q98 0 156.5 56t58.5 153q0 99 -58.5 155t-156.5 56t-156.5 -56t-58.5 -155q0 -97 58.5 -153t156.5 -56z" />
    <glyph glyph-name="zero.numr" horiz-adv-x="776" 
d="M389 657q-141 0 -222 104t-81 298t81 297.5t222 103.5q140 0 220.5 -103.5t80.5 -297.5t-81 -298t-220 -104zM389 717q111 0 172.5 86t61.5 256t-61.5 256t-172.5 86q-112 0 -173.5 -86t-61.5 -256t61.5 -256t173.5 -86z" />
    <glyph glyph-name="one.numr" horiz-adv-x="493" 
d="M297 1446h53v-774h-63v704l-219 -112v63z" />
    <glyph glyph-name="two.numr" horiz-adv-x="675" 
d="M168 731h436v-59h-530v49l311 291q77 72 108 125t31 106q0 72 -48 115t-124 43q-157 0 -225 -166l-53 29q39 95 112.5 145.5t165.5 50.5q104 0 170 -60.5t66 -154.5q0 -123 -146 -258z" />
    <glyph glyph-name="three.numr" horiz-adv-x="665" 
d="M426 1067q80 -19 122 -66.5t42 -119.5q0 -100 -73 -162t-191 -62q-80 0 -149 30t-114 87l39 41q40 -49 98.5 -73.5t123.5 -24.5q95 0 148.5 46t53.5 120q0 155 -231 155h-59v58h94q91 0 139.5 40t48.5 109q0 70 -49 113t-131 43q-70 0 -128 -30.5t-93 -86.5l-43 39
q44 67 112.5 102t151.5 35q112 0 178 -58.5t66 -152.5q0 -71 -41 -120t-115 -62z" />
    <glyph glyph-name="four.numr" horiz-adv-x="704" 
d="M666 909v-55h-119v-182h-62v182h-426v55l410 537h78v-537h119zM129 909h356v467z" />
    <glyph glyph-name="five.numr" horiz-adv-x="673" 
d="M356 1151q114 0 183 -64.5t69 -173.5q0 -116 -75 -186t-203 -70q-162 0 -262 115l38 41q83 -96 222 -96q100 0 158.5 51.5t58.5 144.5q0 86 -53 134.5t-144 48.5q-102 0 -184 -68l-49 27v391h456v-57h-395v-295q83 57 180 57z" />
    <glyph glyph-name="six.numr" horiz-adv-x="690" 
d="M360 1190q117 0 194 -71.5t77 -192.5q0 -124 -78.5 -196.5t-202.5 -72.5q-123 0 -200.5 73t-77.5 198q0 122 100 258l193 260h77l-221 -293q61 37 139 37zM350 715q98 0 156.5 56t58.5 155q0 97 -58.5 153t-156.5 56t-156.5 -56t-58.5 -153q0 -99 58.5 -155t156.5 -56z
" />
    <glyph glyph-name="seven.numr" horiz-adv-x="600" 
d="M41 1446h518v-53l-350 -721h-72l352 714h-448v60z" />
    <glyph glyph-name="eight.numr" horiz-adv-x="716" 
d="M469 1069q81 -22 124.5 -73t43.5 -124q0 -96 -74.5 -155.5t-204.5 -59.5q-131 0 -205.5 59.5t-74.5 155.5q0 73 43.5 124t124.5 73q-70 23 -108 71t-38 113q0 92 69 149.5t189 57.5t189 -57.5t69 -149.5q0 -65 -38.5 -113.5t-108.5 -70.5zM162 1251q0 -72 51 -113.5
t145 -41.5q93 0 144 42t51 113q0 70 -51.5 112t-143.5 42q-93 0 -144.5 -42t-51.5 -112zM358 715q102 0 158.5 44t56.5 118q0 75 -57 119t-158 44t-158 -44t-57 -119q0 -74 56.5 -118t158.5 -44z" />
    <glyph glyph-name="nine.numr" horiz-adv-x="690" 
d="M342 1460q124 0 202.5 -72.5t78.5 -197.5q0 -122 -103 -258l-192 -260h-76l219 293q-61 -37 -139 -37q-117 0 -193 71t-76 193q0 123 78 195.5t201 72.5zM342 983q98 0 156.5 56t58.5 153q0 99 -58.5 155t-156.5 56t-156.5 -56t-58.5 -155q0 -97 58.5 -153t156.5 -56z
" />
    <glyph glyph-name="zero.sups" horiz-adv-x="776" 
d="M389 713q-141 0 -222 103.5t-81 297.5t81 298t222 104q139 0 220 -104t81 -298t-80.5 -297.5t-220.5 -103.5zM389 772q111 0 172.5 86t61.5 256t-61.5 256t-172.5 86q-112 0 -173.5 -86t-61.5 -256t61.5 -256t173.5 -86z" />
    <glyph glyph-name="one.sups" horiz-adv-x="493" 
d="M297 1501h53v-774h-63v705l-219 -113v63z" />
    <glyph glyph-name="two.sups" horiz-adv-x="675" 
d="M168 786h436v-59h-530v49l311 291q77 72 108 125t31 106q0 72 -48 115t-124 43q-157 0 -225 -166l-53 29q39 95 112.5 146t165.5 51q104 0 170 -61t66 -155q0 -123 -146 -258z" />
    <glyph glyph-name="three.sups" horiz-adv-x="665" 
d="M426 1122q80 -19 122 -66.5t42 -119.5q0 -100 -73 -161.5t-191 -61.5q-80 0 -149 29.5t-114 86.5l39 41q40 -49 98.5 -73.5t123.5 -24.5q95 0 148.5 46t53.5 120q0 76 -58.5 116t-172.5 40h-59v57h94q91 0 139.5 40t48.5 109q0 70 -49 113t-131 43q-70 0 -128 -30.5
t-93 -86.5l-43 39q44 67 112.5 102.5t151.5 35.5q112 0 178 -58.5t66 -152.5q0 -71 -41 -120.5t-115 -62.5z" />
    <glyph glyph-name="four.sups" horiz-adv-x="704" 
d="M666 965v-56h-119v-182h-62v182h-426v56l410 536h78v-536h119zM129 965h356v467z" />
    <glyph glyph-name="five.sups" horiz-adv-x="673" 
d="M356 1206q114 0 183 -64t69 -173q0 -116 -75 -186t-203 -70q-163 0 -262 114l38 41q83 -96 222 -96q99 0 158 52t59 145q0 86 -53 134t-144 48q-102 0 -184 -68l-49 27v391h456v-57h-395v-295q83 57 180 57z" />
    <glyph glyph-name="six.sups" horiz-adv-x="690" 
d="M360 1245q117 0 194 -71.5t77 -192.5q0 -124 -78.5 -196t-202.5 -72q-123 0 -200.5 72.5t-77.5 197.5q0 122 100 258l193 260h77l-221 -293q61 37 139 37zM350 770q98 0 156.5 56t58.5 155q0 97 -58.5 153t-156.5 56t-156.5 -56t-58.5 -153q0 -99 58.5 -155t156.5 -56z
" />
    <glyph glyph-name="seven.sups" horiz-adv-x="600" 
d="M41 1501h518v-53l-350 -721h-72l352 715h-448v59z" />
    <glyph glyph-name="eight.sups" horiz-adv-x="716" 
d="M469 1124q81 -22 124.5 -73t43.5 -123q0 -96 -74.5 -155.5t-204.5 -59.5q-131 0 -205.5 59.5t-74.5 155.5q0 72 43.5 123t124.5 73q-70 23 -108 71.5t-38 113.5q0 92 69 149.5t189 57.5t189 -57.5t69 -149.5q0 -65 -38.5 -114t-108.5 -71zM162 1307q0 -72 51 -114
t145 -42q92 0 143.5 42t51.5 114q0 70 -51.5 111.5t-143.5 41.5q-94 0 -145 -41.5t-51 -111.5zM358 770q102 0 158.5 44t56.5 118q0 75 -57 119.5t-158 44.5t-158 -44.5t-57 -119.5q0 -74 56.5 -118t158.5 -44z" />
    <glyph glyph-name="nine.sups" horiz-adv-x="690" 
d="M342 1516q124 0 202.5 -73t78.5 -198q0 -122 -103 -258l-192 -260h-76l219 293q-61 -37 -139 -37q-117 0 -193 71t-76 193q0 124 78 196.5t201 72.5zM342 1038q98 0 156.5 56t58.5 153q0 99 -58.5 155t-156.5 56t-156.5 -56t-58.5 -155q0 -97 58.5 -153t156.5 -56z" />
    <glyph glyph-name="colon.case" horiz-adv-x="460" 
d="M236 1051q-28 0 -46 17.5t-18 45.5t18 46t46 18t45.5 -18t17.5 -46t-17.5 -45.5t-45.5 -17.5zM236 229q-28 0 -46 18t-18 46t18 45.5t46 17.5t45.5 -17.5t17.5 -45.5t-17.5 -46t-45.5 -18z" />
    <glyph glyph-name="exclamdown.case" horiz-adv-x="550" 
d="M276 1438q28 0 45 -18t17 -46t-17 -45.5t-45 -17.5q-29 0 -46 17.5t-17 45.5t17 46t46 18zM246 1047h59l8 -1047h-75z" />
    <glyph glyph-name="questiondown.case" horiz-adv-x="927" 
d="M504 1438q27 0 44 -18t17 -46t-16.5 -45.5t-44.5 -17.5q-29 0 -46.5 17.5t-17.5 45.5t17.5 46t46.5 18zM539 1047v-136q0 -100 -28 -152.5t-124 -131.5l-100 -84q-135 -115 -135 -250q0 -119 79 -184.5t207 -65.5q122 0 222 62.5t155 177.5l57 -35q-58 -129 -173.5 -202
t-260.5 -73q-161 0 -259.5 87t-98.5 231q0 86 40.5 161.5t133.5 151.5l100 84q73 61 93 101t20 122v136h72z" />
    <glyph glyph-name="periodcentered.case" horiz-adv-x="450" 
d="M225 674q-28 0 -45.5 17.5t-17.5 45.5q0 27 18 44.5t45 17.5q28 0 46 -18t18 -44q0 -28 -18 -45.5t-46 -17.5z" />
    <glyph glyph-name="bullet.case" horiz-adv-x="968" 
d="M485 524q-92 0 -153.5 61t-61.5 152t61.5 152t153.5 61q91 0 152 -61t61 -152t-61 -152t-152 -61z" />
    <glyph glyph-name="parenleft.case" horiz-adv-x="618" 
d="M485 -182q-153 182 -236 417t-83 482t83 482t236 417l56 -41q-139 -166 -220 -396t-81 -462t81 -462t220 -396z" />
    <glyph glyph-name="parenright.case" horiz-adv-x="618" 
d="M133 -182l-57 41q141 165 222 395.5t81 462.5t-81 462.5t-222 395.5l57 41q153 -182 236.5 -417t83.5 -482t-83.5 -482t-236.5 -417z" />
    <glyph glyph-name="braceleft.case" horiz-adv-x="720" 
d="M348 915q0 -85 -30.5 -133t-96.5 -65q66 -17 96.5 -65.5t30.5 -133.5v-422q0 -113 38.5 -153.5t137.5 -40.5h117v-62h-121q-132 0 -185.5 57t-53.5 199v428q0 88 -36 125t-122 37h-19v62h19q86 0 122 36.5t36 124.5v428q0 142 53.5 199t185.5 57h121v-61h-117
q-99 0 -137.5 -41t-38.5 -154v-422z" />
    <glyph glyph-name="braceright.case" horiz-adv-x="720" 
d="M598 748h18v-62h-18q-86 0 -122 -37t-36 -125v-428q0 -142 -53.5 -199t-185.5 -57h-121v62h117q99 0 137.5 40.5t38.5 153.5v422q0 85 30.5 133.5t96.5 65.5q-66 17 -96.5 65t-30.5 133v422q0 113 -38.5 154t-137.5 41h-117v61h121q132 0 185.5 -57t53.5 -199v-428
q0 -88 36 -124.5t122 -36.5z" />
    <glyph glyph-name="bracketleft.case" horiz-adv-x="741" 
d="M664 1532h-353v-1630h353v-62h-420v1753h420v-61z" />
    <glyph glyph-name="bracketright.case" horiz-adv-x="741" 
d="M80 1593h418v-1753h-418v62h350v1630h-350v61z" />
    <glyph glyph-name="hyphen.case" horiz-adv-x="833" 
d="M127 705v65h580v-65h-580z" />
    <glyph glyph-name="endash.case" horiz-adv-x="1280" 
d="M127 707v61h1024v-61h-1024z" />
    <glyph glyph-name="emdash.case" horiz-adv-x="2304" 
d="M127 705v63h2048v-63h-2048z" />
    <glyph glyph-name="guillemotleft.case" horiz-adv-x="956" 
d="M387 1161h80l-295 -422l295 -424h-80l-297 422zM850 1161l-297 -422l297 -424h-82l-297 422l297 424h82z" />
    <glyph glyph-name="guillemotright.case" horiz-adv-x="956" 
d="M106 1161h82l297 -424l-297 -422h-82l297 424zM571 1161l295 -424l-295 -422h-82l295 424l-295 422h82z" />
    <glyph glyph-name="guilsinglleft.case" horiz-adv-x="573" 
d="M467 1161l-295 -422l295 -424h-80l-297 422l297 424h80z" />
    <glyph glyph-name="guilsinglright.case" horiz-adv-x="573" 
d="M188 1161l297 -424l-297 -422h-82l297 424l-297 422h82z" />
    <glyph glyph-name="cent.tf" 
d="M795 242q120 5 213.5 59.5t142.5 151.5l55 -37q-56 -111 -163 -172t-248 -66v-178h-58v180q-215 12 -345 160t-130 377t129.5 376.5t345.5 159.5v181h58v-179q141 -5 248 -65.5t163 -171.5l-55 -37q-49 97 -142.5 151.5t-213.5 59.5v-950zM336 717q0 -204 110 -331.5
t291 -141.5v946q-181 -14 -291 -141.5t-110 -331.5z" />
    <glyph glyph-name="currency.tf" 
d="M1018 707q0 -154 -86 -263l139 -137l-45 -43l-135 135q-108 -100 -273 -100q-164 0 -272 100l-133 -135l-47 43l139 137q-84 111 -84 263q0 149 84 260l-137 139l45 43l135 -135q109 98 270 98q165 0 273 -100l135 137l45 -43l-137 -139q84 -111 84 -260zM618 365
q148 0 240 95t92 247q0 151 -92.5 246.5t-239.5 95.5t-239 -95.5t-92 -246.5q0 -152 91.5 -247t239.5 -95z" />
    <glyph glyph-name="dollar.tf" 
d="M1208 397q0 -162 -116.5 -260t-319.5 -104v-135h-57v135q-177 7 -296.5 86.5t-172.5 220.5l57 31q106 -258 412 -273v602l-66 17q-191 44 -278.5 123.5t-87.5 208.5q0 156 115 252t317 100v135h57v-135q155 -7 262.5 -72.5t153.5 -175.5l-58 -33q-92 201 -358 213v-579
l86 -21q187 -44 268.5 -126.5t81.5 -209.5zM668 778l47 -10v567q-171 -3 -266 -78t-95 -208q0 -104 70 -167.5t244 -103.5zM772 98q171 6 268 86t97 213q0 105 -71 171.5t-235 105.5l-59 14v-590z" />
    <glyph glyph-name="Euro.tf" 
d="M866 41q127 0 226.5 84t144.5 233l61 -22q-53 -169 -168.5 -266t-265.5 -97q-192 0 -330 154.5t-176 409.5h-196v57h190q-6 58 -6 123t6 123h-190v57h196q38 255 175.5 409t330.5 154q151 0 266 -96.5t168 -265.5l-61 -23q-45 150 -144.5 234t-226.5 84q-163 0 -281 -134
t-153 -362h572v-57h-580q-6 -58 -6 -123t6 -123h580v-57h-572q35 -228 153 -362t281 -134z" />
    <glyph glyph-name="florin.tf" 
d="M1079 1368q-101 0 -157 -51t-76 -160l-62 -323h338v-62h-350l-151 -801q-26 -136 -98 -197t-204 -61h-65v66h65q102 0 158 51t76 160l149 782h-327v62h338l65 342q26 136 98 197t203 61h68v-66h-68z" />
    <glyph glyph-name="sterling.tf" 
d="M500 676v-608h704v-68h-950v68h174v608h-184v63h184v328q0 183 101 288t278 105q133 0 236 -62t161 -179l-55 -33q-53 103 -141.5 155t-200.5 52q-147 0 -227 -84.5t-80 -243.5v-326h542v-63h-542z" />
    <glyph glyph-name="yen.tf" 
d="M1262 1434l-467 -779h358v-57h-391v-242h391v-57h-391v-299h-72v299h-387v57h387v242h-387v57h354l-464 779h79l455 -760l455 760h80z" />
    <glyph glyph-name="plus.tf" 
d="M1163 748v-62h-401v-426h-68v426h-403v62h403v426h68v-426h401z" />
    <glyph glyph-name="minus.tf" 
d="M291 686v62h872v-62h-872z" />
    <glyph glyph-name="multiply.tf" 
d="M1104 1049l-332 -332l332 -332l-45 -45l-332 332l-332 -332l-45 45l332 332l-332 332l45 45l332 -332l332 332z" />
    <glyph glyph-name="divide.tf" 
d="M727 1012q-27 0 -44 17t-17 44q0 28 17 46t44 18t44 -18t17 -46q0 -27 -17 -44t-44 -17zM291 686v62h872v-62h-872zM727 297q-27 0 -44 17t-17 44t17 44.5t44 17.5t44 -17.5t17 -44.5t-17 -44t-44 -17z" />
    <glyph glyph-name="equal.tf" 
d="M291 905v64h872v-64h-872zM291 465v63h872v-63h-872z" />
    <glyph glyph-name="notequal.tf" 
d="M1163 905h-313l-182 -377h495v-63h-524l-143 -297h-64l143 297h-284v63h313l182 377h-495v64h524l143 297h64l-143 -297h284v-64z" />
    <glyph glyph-name="greater.tf" 
d="M291 1116l872 -362v-74l-872 -363v70l796 330l-796 330v69z" />
    <glyph glyph-name="less.tf" 
d="M1163 1116v-69l-796 -330l796 -330v-70l-872 363v74z" />
    <glyph glyph-name="greaterequal.tf" 
d="M291 1257l872 -362v-72l-872 -362v67l803 332l-803 330v67zM291 178v64h872v-64h-872z" />
    <glyph glyph-name="lessequal.tf" 
d="M1163 1255v-67l-803 -330l803 -332v-67l-872 362v72zM291 176v64h872v-64h-872z" />
    <glyph glyph-name="plusminus.tf" 
d="M762 870h401v-63h-401v-397h-68v397h-403v63h403v398h68v-398zM291 168v63h872v-63h-872z" />
    <glyph glyph-name="approxequal.tf" 
d="M928 854q-68 0 -200 53.5t-198 53.5q-113 0 -239 -95v64q114 92 239 92q65 0 200 -53.5t196 -53.5q112 0 237 95v-64q-118 -92 -235 -92zM928 414q-68 0 -200 54t-198 54q-112 0 -239 -96v63q115 93 239 93q65 0 200 -53.5t196 -53.5q114 0 237 94v-63q-118 -92 -235 -92
z" />
    <glyph glyph-name="logicalnot.tf" 
d="M291 862h872v-291h-67v230h-805v61z" />
    <glyph glyph-name="asciitilde.tf" 
d="M928 633q-68 0 -200 53t-198 53q-115 0 -239 -94v64q114 92 239 92q65 0 200 -53.5t196 -53.5q114 0 237 94v-63q-118 -92 -235 -92z" />
    <glyph glyph-name="at.case" horiz-adv-x="1767" 
d="M907 1462q148 0 278.5 -49.5t226 -139t151 -221.5t55.5 -288q0 -190 -78.5 -304t-198.5 -114q-78 0 -132 50.5t-64 146.5q-31 -92 -105 -144.5t-172 -52.5q-139 0 -229 101t-90 262q0 160 90 260t229 100q96 0 167 -49.5t102 -138.5v166h61v-451q0 -94 38.5 -144.5
t104.5 -50.5q94 0 152.5 96.5t58.5 262.5q0 151 -50.5 273.5t-138.5 202t-205 122.5t-251 43q-196 0 -352 -89t-243 -246.5t-87 -354.5q0 -201 88.5 -355.5t245.5 -238.5t359 -84q101 0 196.5 21.5t161.5 58.5l27 -52q-73 -41 -175.5 -65.5t-212.5 -24.5q-218 0 -390 93.5
t-268.5 262t-96.5 382.5q0 162 57 302t156 239t237.5 155.5t296.5 56.5zM877 406q113 0 187.5 82.5t74.5 220.5q0 137 -73.5 219t-188.5 82q-113 0 -187 -82t-74 -219q0 -138 74 -220.5t187 -82.5z" />
    </font>
</defs>
</svg>
