<?xml version="1.0" standalone="no"?>
<!DOCTYPE svg PUBLIC "-//W3C//DTD SVG 1.1//EN" "http://www.w3.org/Graphics/SVG/1.1/DTD/svg11.dtd" >
<svg xmlns="http://www.w3.org/2000/svg" xmlns:xlink="http://www.w3.org/1999/xlink" version="1.1">
<metadata>
Created by FontForge 20170731 at Wed Feb 17 23:23:51 2021
 By Aleksey,,,
Copyright (c) by Christoph York . All rights reserved. Modification of this file requires prior written permission from Brink Type.
</metadata>
<defs>
<font id="Segma-SemiBoldItalic" horiz-adv-x="1454" >
  <font-face 
    font-family="Segma SemiBold Italic"
    font-weight="600"
    font-style="italic"
    font-stretch="normal"
    units-per-em="2048"
    panose-1="0 0 7 0 0 0 0 0 0 0"
    ascent="1556"
    descent="-492"
    x-height="1042"
    cap-height="1434"
    bbox="-1024 -530 2623 2089"
    underline-thickness="102"
    underline-position="-450"
    slope="-8"
    unicode-range="U+000D-2B51"
  />
<missing-glyph horiz-adv-x="1540" 
d="M106 0l201 1434h1180l-201 -1434h-1180zM672 543h155l9 57q6 41 19.5 61t53.5 50l66 49q75 56 114 114.5t39 129.5q0 93 -65.5 148.5t-177.5 55.5q-110 0 -200.5 -51.5t-141.5 -138.5l106 -80q91 123 213 123q48 0 76.5 -20.5t28.5 -57.5q0 -39 -20.5 -67t-57.5 -56
l-74 -53q-72 -53 -97 -92t-36 -109zM705 215q54 0 87 37.5t33 85.5q0 41 -25.5 65.5t-66.5 24.5q-54 0 -87.5 -37.5t-33.5 -85.5q0 -41 25.5 -65.5t67.5 -24.5z" />
    <glyph glyph-name=".notdef" horiz-adv-x="1540" 
d="M106 0l201 1434h1180l-201 -1434h-1180zM672 543h155l9 57q6 41 19.5 61t53.5 50l66 49q75 56 114 114.5t39 129.5q0 93 -65.5 148.5t-177.5 55.5q-110 0 -200.5 -51.5t-141.5 -138.5l106 -80q91 123 213 123q48 0 76.5 -20.5t28.5 -57.5q0 -39 -20.5 -67t-57.5 -56
l-74 -53q-72 -53 -97 -92t-36 -109zM705 215q54 0 87 37.5t33 85.5q0 41 -25.5 65.5t-66.5 24.5q-54 0 -87.5 -37.5t-33.5 -85.5q0 -41 25.5 -65.5t67.5 -24.5z" />
    <glyph glyph-name=".null" horiz-adv-x="0" 
 />
    <glyph glyph-name="nonmarkingreturn" horiz-adv-x="682" 
 />
    <glyph glyph-name="CR" unicode="&#xd;" horiz-adv-x="460" 
 />
    <glyph glyph-name="space" unicode=" " horiz-adv-x="460" 
 />
    <glyph glyph-name="exclam" unicode="!" horiz-adv-x="624" 
d="M199 473l106 961h270l-159 -961h-217zM250 -23q-76 0 -118.5 44.5t-37.5 117.5q3 76 50 124t124 48q76 0 119.5 -44t38.5 -115q-3 -76 -51 -125.5t-125 -49.5z" />
    <glyph glyph-name="quotedbl" unicode="&#x22;" horiz-adv-x="856" 
d="M190 891l41 571h265l-121 -571h-185zM584 891l41 571h264l-119 -571h-186z" />
    <glyph glyph-name="numbersign" unicode="#" horiz-adv-x="1452" 
d="M1411 858h-242l-94 -283h209l-24 -184h-248l-121 -360h-215l123 360h-312l-120 -360h-215l122 360h-204l26 184h240l96 283h-211l27 184h246l122 361h213l-120 -361h309l123 361h213l-121 -361h203zM860 575l96 283h-311l-94 -283h309z" />
    <glyph glyph-name="dollar" unicode="$" horiz-adv-x="1234" 
d="M834 803q311 -77 311 -320q0 -104 -49 -197t-135 -153q-133 -93 -338 -102l-19 -133h-125l19 137q-163 17 -276.5 93t-166.5 200l195 129q76 -171 280 -199l54 373l-74 18q-161 39 -243.5 123.5t-82.5 202.5q0 101 48.5 190t134.5 146q124 83 325 92l19 133h125l-21 -137
q144 -17 245 -80t148 -158l-190 -131q-74 123 -234 148l-49 -351zM436 1001q0 -50 40.5 -83.5t137.5 -59.5l48 324q-99 -6 -156 -49q-70 -53 -70 -132zM821 313q68 52 68 138q0 54 -40.5 89.5t-135.5 59.5l-8 2l-50 -348q104 9 166 59z" />
    <glyph glyph-name="percent" unicode="%" horiz-adv-x="1800" 
d="M475 715q-148 0 -245 90.5t-97 230.5q0 174 122.5 300t297.5 126q150 0 247 -90t97 -231q0 -173 -123.5 -299.5t-298.5 -126.5zM209 0l1208 1434h230l-1209 -1434h-229zM487 895q93 0 152 66.5t59 160.5q0 74 -41.5 117t-113.5 43q-94 0 -152.5 -67.5t-58.5 -161.5
q0 -72 41.5 -115t113.5 -43zM1300 -29q-148 0 -243.5 90.5t-95.5 231.5q0 174 122 300t297 126q148 0 245 -90.5t97 -231.5q0 -173 -123.5 -299.5t-298.5 -126.5zM1315 152q91 0 150 67t59 160q0 74 -41.5 117t-114.5 43q-94 0 -152.5 -68t-58.5 -162q0 -72 42.5 -114.5
t115.5 -42.5z" />
    <glyph glyph-name="ampersand" unicode="&#x26;" horiz-adv-x="1411" 
d="M1303 0h-273l-86 117q-183 -146 -422 -146q-200 0 -321 99t-121 254q0 100 48.5 187t123 148.5t182.5 120.5l6 4q-118 163 -118 295q0 167 123.5 275t306.5 108q159 0 260.5 -82t101.5 -211q0 -128 -85.5 -232.5t-227.5 -180.5l-39 -21l203 -274q60 104 94 244h227
q-64 -258 -188 -426zM741 1253q-79 0 -132.5 -47t-53.5 -114q0 -75 76 -177l20 -28l56 28q172 91 172 215q0 56 -38 89.5t-100 33.5zM340 358q0 -76 54.5 -120.5t154.5 -44.5q144 0 262 90l-256 344l-8 -4q-207 -111 -207 -265z" />
    <glyph glyph-name="quotesingle" unicode="'" horiz-adv-x="462" 
d="M190 891l41 571h265l-121 -571h-185z" />
    <glyph glyph-name="parenleft" unicode="(" horiz-adv-x="696" 
d="M342 -260q-102 145 -155.5 329t-53.5 380q0 294 120.5 585t330.5 504l188 -127q-176 -184 -281.5 -445.5t-105.5 -516.5q0 -169 40 -324.5t116 -269.5z" />
    <glyph glyph-name="parenright" unicode=")" horiz-adv-x="698" 
d="M389 1538q101 -146 155 -330.5t54 -378.5q0 -293 -120.5 -584t-330.5 -505l-188 127q176 184 281.5 445.5t105.5 516.5q0 168 -40.5 323.5t-115.5 270.5z" />
    <glyph glyph-name="asterisk" unicode="*" horiz-adv-x="929" 
d="M326 670l-142 110l215 234l-270 78l80 180l268 -105l29 297h188l-53 -295l289 101l33 -178l-295 -80l149 -234l-162 -108l-133 245z" />
    <glyph glyph-name="plus" unicode="+" 
d="M1221 760l-31 -221h-342l-51 -369h-234l51 369h-344l31 221h344l51 368h234l-51 -368h342z" />
    <glyph glyph-name="comma" unicode="," horiz-adv-x="532" 
d="M-47 -315l186 589h258l-241 -589h-203z" />
    <glyph glyph-name="hyphen" unicode="-" horiz-adv-x="782" 
d="M84 481l31 221h604l-31 -221h-604z" />
    <glyph glyph-name="period" unicode="." horiz-adv-x="552" 
d="M213 -23q-76 0 -118.5 44.5t-37.5 117.5q3 76 50.5 124t125.5 48q76 0 118.5 -44t37.5 -115q-3 -77 -50.5 -126t-125.5 -49z" />
    <glyph glyph-name="slash" unicode="/" horiz-adv-x="1024" 
d="M-90 -193l999 1709h244l-997 -1709h-246z" />
    <glyph glyph-name="zero" unicode="0" horiz-adv-x="1433" 
d="M647 -29q-238 0 -372 148.5t-134 421.5q0 202 63 401t181 324q181 196 457 196q238 0 372 -149t134 -422q0 -225 -75.5 -436.5t-217.5 -335.5q-174 -148 -408 -148zM666 205q148 0 247 108q84 90 128 256.5t44 323.5q0 172 -65.5 254t-194.5 82q-169 0 -274 -137
q-71 -94 -108 -249t-37 -302q0 -336 260 -336z" />
    <glyph glyph-name="one" unicode="1" horiz-adv-x="878" 
d="M606 1434h213l-201 -1434h-253l163 1165l-378 -176l32 244z" />
    <glyph glyph-name="two" unicode="2" horiz-adv-x="1196" 
d="M848 594l-436 -361h657l-33 -233h-1030l29 201l583 481q143 117 215 206t72 183q0 76 -49 117t-137 41q-216 0 -383 -244l-184 127q97 169 247 259.5t336 90.5q195 0 313.5 -100.5t118.5 -261.5q0 -140 -82.5 -259.5t-236.5 -246.5z" />
    <glyph glyph-name="three" unicode="3" horiz-adv-x="1167" 
d="M846 727q108 -37 164.5 -109t56.5 -174q0 -104 -48.5 -200t-131.5 -158q-149 -115 -391 -115q-156 0 -283 54t-209 159l164 168q134 -149 332 -149q144 0 233 73q78 68 78 168q0 168 -301 168h-121l33 226h156q158 0 237 73q32 31 49 74t17 84q0 77 -52 119.5t-157 42.5
q-191 0 -361 -170l-151 160q207 241 538 241q200 0 321.5 -94.5t121.5 -251.5q0 -92 -38 -175t-106 -138q-60 -51 -151 -76z" />
    <glyph glyph-name="four" unicode="4" horiz-adv-x="1269" 
d="M1235 510l-31 -213h-190l-43 -297h-244l41 297h-731l29 211l804 926h304l-132 -924h193zM326 510h473l92 649z" />
    <glyph glyph-name="five" unicode="5" horiz-adv-x="1204" 
d="M1141 1204h-654l-49 -362q114 63 264 63q190 0 308 -105t118 -282q0 -126 -54.5 -242t-153.5 -188q-154 -117 -400 -117q-308 0 -487 211l160 172q136 -151 333 -151q155 0 248 80q94 82 94 211q0 92 -59 144t-168 52q-148 0 -281 -88l-180 103l103 729h888z" />
    <glyph glyph-name="six" unicode="6" horiz-adv-x="1243" 
d="M737 977q193 0 319 -120.5t126 -311.5q0 -131 -60.5 -251t-165.5 -198q-166 -125 -397 -125q-215 0 -349 121t-134 326q0 177 106 364q73 130 193 262l350 390h303l-453 -488q79 31 162 31zM817 283q50 45 77.5 110.5t27.5 136.5q0 108 -65 169t-185 61q-170 0 -266 -113
q-72 -90 -72 -223q0 -107 64.5 -166t183.5 -59q145 0 235 84z" />
    <glyph glyph-name="seven" unicode="7" horiz-adv-x="1083" 
d="M170 1434h999l-28 -213l-758 -1221h-281l756 1200h-721z" />
    <glyph glyph-name="eight" unicode="8" horiz-adv-x="1280" 
d="M950 735q109 -40 166.5 -116t57.5 -179q0 -114 -58.5 -211.5t-159.5 -158.5q-156 -99 -385 -99q-237 0 -369 100.5t-132 262.5q0 101 46 188t130 146q70 48 147 69q-186 83 -186 273q0 94 45 183t121 148q150 121 391 121q218 0 340.5 -98t122.5 -252q0 -98 -46 -182.5
t-130 -141.5q-55 -36 -101 -53zM526 1174q-69 -66 -69 -170q0 -81 55.5 -125.5t167.5 -44.5q142 0 217 69q74 65 74 174q0 80 -56 125t-167 45q-146 0 -222 -73zM821 260q92 69 92 184q0 85 -62.5 134t-188.5 49q-161 0 -250 -80q-74 -65 -74 -174q0 -83 61 -131.5
t187 -48.5q146 0 235 67z" />
    <glyph glyph-name="nine" unicode="9" horiz-adv-x="1243" 
d="M735 1462q217 0 352.5 -118.5t135.5 -319.5q0 -164 -97 -354q-77 -142 -202 -281l-351 -389h-305l457 487q-77 -30 -164 -30q-192 0 -317 120t-125 310q0 124 53.5 240t146.5 194q171 141 416 141zM872 770q95 92 95 240q0 106 -65 165.5t-185 59.5q-151 0 -244 -90
q-96 -93 -96 -246q0 -107 63 -166t183 -59q156 0 249 96z" />
    <glyph glyph-name="colon" unicode=":" horiz-adv-x="563" 
d="M326 694q-76 0 -119.5 45t-38.5 117q5 75 52.5 123.5t123.5 48.5t119.5 -44.5t38.5 -115.5q-3 -77 -51 -125.5t-125 -48.5zM223 -23q-76 0 -118 44.5t-37 117.5q3 76 50.5 124t125.5 48q76 0 118 -44t37 -115q-3 -77 -50.5 -126t-125.5 -49z" />
    <glyph glyph-name="semicolon" unicode=";" horiz-adv-x="555" 
d="M326 694q-75 0 -118 45t-38 117q3 75 51 123.5t125 48.5q76 0 118.5 -44.5t39.5 -115.5q-5 -78 -52.5 -126t-125.5 -48zM-47 -315l186 589h258l-241 -589h-203z" />
    <glyph glyph-name="less" unicode="&#x3c;" 
d="M1270 1114l-33 -242l-639 -225l573 -225l-30 -238l-871 355l29 221z" />
    <glyph glyph-name="equal" unicode="=" 
d="M301 752l31 223h919l-30 -223h-920zM240 324l30 223h920l-31 -223h-919z" />
    <glyph glyph-name="greater" unicode="&#x3e;" 
d="M350 1114l869 -354l-29 -221l-969 -355l31 242l641 225l-576 226z" />
    <glyph glyph-name="question" unicode="?" horiz-adv-x="966" 
d="M315 473l15 96q14 103 52 160.5t148 140.5l107 78q113 85 113 176q0 53 -39.5 83t-108.5 30q-171 0 -311 -184l-164 127q72 127 204.5 204.5t291.5 77.5q168 0 273 -84.5t105 -220.5q0 -110 -58 -194t-171 -168l-100 -76q-58 -42 -77 -71.5t-28 -88.5l-10 -86h-242z
M379 -23q-76 0 -118.5 44.5t-37.5 117.5q3 76 51 124t125 48q76 0 118.5 -44t39.5 -115q-5 -77 -52.5 -126t-125.5 -49z" />
    <glyph glyph-name="at" unicode="@" horiz-adv-x="1990" 
d="M1128 1360q221 0 399 -87.5t281 -248.5t103 -365q0 -119 -33 -232t-91 -202t-146 -143.5t-191 -54.5q-100 0 -173.5 53t-86.5 143q-44 -92 -124.5 -142t-180.5 -50q-142 0 -231 97t-89 255q0 134 53.5 249t153 185t223.5 70q85 0 146.5 -38t87.5 -110l16 119h199
l-70 -491q-10 -78 13 -117t75 -39q73 0 127.5 69t79.5 164t25 193q0 243 -155 379.5t-411 136.5q-308 0 -528 -186q-137 -113 -212 -277t-75 -346q0 -258 163.5 -411.5t447.5 -153.5q112 0 220 24t187 66l80 -178q-97 -54 -227.5 -84.5t-270.5 -30.5q-243 0 -430.5 95
t-290 266.5t-102.5 392.5q0 226 99.5 438t275.5 356q135 113 305.5 174.5t357.5 61.5zM952 225q107 0 173.5 83t66.5 202q0 88 -44 135t-120 47q-110 0 -175 -83.5t-65 -202.5q0 -87 44 -134t120 -47z" />
    <glyph glyph-name="A" unicode="A" horiz-adv-x="1486" 
d="M1116 0l-80 340h-624l-176 -340h-279l766 1434h297l362 -1434h-266zM526 563h459l-143 615z" />
    <glyph glyph-name="B" unicode="B" horiz-adv-x="1423" 
d="M1055 735q123 -26 188.5 -100t65.5 -189q0 -106 -44 -197.5t-126 -150.5q-137 -98 -338 -98h-695l201 1434h625q198 0 309 -86t111 -232q0 -101 -45.5 -186t-128.5 -139q-54 -35 -123 -56zM862 1208h-327l-52 -366h326q133 0 201 53q34 30 51.5 76.5t17.5 91.5
q0 74 -51 109.5t-166 35.5zM969 281q73 62 73 182q0 155 -215 155h-376l-56 -393h377q132 0 197 56z" />
    <glyph glyph-name="C" unicode="C" horiz-adv-x="1527" 
d="M762 -29q-144 0 -264 46.5t-201.5 129t-126.5 197.5t-45 250q0 208 93.5 397.5t258.5 311.5q221 159 498 159q210 0 363 -98t216 -285l-235 -118q-89 258 -369 258q-185 0 -332 -115q-106 -85 -163.5 -214.5t-57.5 -271.5q0 -183 103.5 -293t287.5 -110q135 0 254.5 65
t204.5 193l213 -119q-114 -186 -299 -284.5t-399 -98.5z" />
    <glyph glyph-name="D" unicode="D" horiz-adv-x="1538" 
d="M848 1434q280 0 449 -157t169 -431q0 -183 -67 -356.5t-191 -288.5q-213 -201 -549 -201h-553l201 1434h541zM1044 389q74 79 112 199.5t38 242.5q0 361 -373 361h-286l-134 -950h277q231 0 366 147z" />
    <glyph glyph-name="E" unicode="E" horiz-adv-x="1341" 
d="M1288 1198h-756l-49 -358h711l-35 -234h-708l-52 -370h777l-35 -236h-1035l201 1434h1016z" />
    <glyph glyph-name="F" unicode="F" horiz-adv-x="1286" 
d="M1282 1198h-750l-51 -377h707l-33 -239h-706l-82 -582h-261l201 1434h1008z" />
    <glyph glyph-name="G" unicode="G" horiz-adv-x="1581" 
d="M893 578l31 223h577l-84 -594q-98 -110 -259.5 -173t-350.5 -63q-317 0 -498.5 173t-181.5 456q0 181 71.5 353.5t198.5 291.5q110 104 255.5 160.5t310.5 56.5q192 0 335.5 -73t217.5 -205l-220 -146q-103 181 -344 181q-234 0 -385 -160q-84 -86 -127 -206t-43 -243
q0 -190 111.5 -294.5t320.5 -104.5q104 0 198 27t161 73l37 267h-332z" />
    <glyph glyph-name="H" unicode="H" horiz-adv-x="1576" 
d="M1266 1434h260l-201 -1434h-260l86 612h-698l-86 -612h-261l201 1434h260l-82 -580h699z" />
    <glyph glyph-name="I" unicode="I" horiz-adv-x="626" 
d="M111 0l200 1434h260l-200 -1434h-260z" />
    <glyph glyph-name="J" unicode="J" horiz-adv-x="1189" 
d="M440 -29q-148 0 -263.5 54t-184.5 151l170 176q107 -133 274 -133q134 0 225.5 85t112.5 239l125 891h260l-129 -926q-37 -256 -191 -396.5t-399 -140.5z" />
    <glyph glyph-name="K" unicode="K" horiz-adv-x="1431" 
d="M1530 1434l-664 -621l486 -813h-314l-372 627l-244 -230l-55 -397h-261l201 1434h260l-94 -676l723 676h334z" />
    <glyph glyph-name="L" unicode="L" horiz-adv-x="1210" 
d="M401 242h713l-35 -242h-973l201 1434h260z" />
    <glyph glyph-name="M" unicode="M" horiz-adv-x="1914" 
d="M1559 1434h305l-203 -1434h-254l149 1051l-520 -697h-200l-326 703l-150 -1057h-254l201 1434h293l367 -797z" />
    <glyph glyph-name="N" unicode="N" horiz-adv-x="1613" 
d="M1307 1434h256l-203 -1434h-240l-616 1018l-142 -1018h-256l201 1434h242l614 -1022z" />
    <glyph glyph-name="O" unicode="O" horiz-adv-x="1705" 
d="M786 -29q-294 0 -476.5 178t-182.5 455q0 188 81.5 365t223.5 299q229 194 543 194q145 0 269 -49t209 -134t133 -202.5t48 -251.5q0 -177 -76 -349.5t-208 -293.5q-112 -101 -257 -156t-307 -55zM803 215q217 0 379 152q87 84 133.5 201t46.5 241q0 184 -108 297
t-296 113q-208 0 -366 -142q-92 -86 -142.5 -205.5t-50.5 -246.5q0 -184 108.5 -297t295.5 -113z" />
    <glyph glyph-name="P" unicode="P" horiz-adv-x="1372" 
d="M899 1434q222 0 341.5 -100.5t119.5 -282.5q0 -125 -44 -238.5t-126 -183.5q-149 -127 -416 -127h-336l-71 -502h-261l201 1434h592zM1020 815q34 37 50.5 95t16.5 116q0 89 -54.5 128.5t-178.5 39.5h-319l-64 -455h320q162 0 229 76z" />
    <glyph glyph-name="Q" unicode="Q" horiz-adv-x="1705" 
d="M1350 182q-12 -12 -33 -26l143 -215l-194 -142l-156 234q-159 -62 -324 -62q-294 0 -476.5 178t-182.5 455q0 188 81.5 365t223.5 299q229 194 543 194q145 0 269 -49t209 -134t133 -202.5t48 -251.5q0 -177 -76 -349.5t-208 -293.5zM803 215q89 0 168 27l-170 252
l196 141l181 -273l4 5q87 84 133.5 201t46.5 241q0 184 -108 297t-296 113q-208 0 -366 -142q-92 -86 -142.5 -205.5t-50.5 -246.5q0 -184 108.5 -297t295.5 -113z" />
    <glyph glyph-name="R" unicode="R" horiz-adv-x="1415" 
d="M1202 655q-118 -98 -301 -118l361 -537h-306l-342 530h-174l-75 -530h-259l201 1434h602q222 0 341.5 -99t119.5 -278q0 -115 -44 -225t-124 -177zM532 1196l-61 -436h334q157 0 223 69q68 71 68 201q0 86 -55 126t-177 40h-332z" />
    <glyph glyph-name="S" unicode="S" horiz-adv-x="1306" 
d="M616 -29q-218 0 -369.5 86t-205.5 238l199 131q107 -221 387 -221q141 0 227 55q44 29 70 74t26 92q0 59 -45.5 98.5t-148.5 65.5l-224 55q-171 42 -261.5 136t-90.5 220q0 103 49.5 197t135.5 154q154 110 401 110q191 0 328.5 -70t195.5 -192l-207 -137
q-93 166 -329 166q-144 0 -230 -60q-75 -56 -75 -141q0 -56 46 -94.5t156 -65.5l226 -57q172 -42 257 -130.5t85 -215.5q0 -124 -59 -229t-165 -170q-158 -95 -379 -95z" />
    <glyph glyph-name="T" unicode="T" horiz-adv-x="1243" 
d="M418 0l168 1192h-447l35 242h1151l-33 -242h-446l-168 -1192h-260z" />
    <glyph glyph-name="U" unicode="U" horiz-adv-x="1519" 
d="M686 -29q-246 0 -389 118.5t-143 334.5q0 48 6 100l127 910h262l-125 -889q-6 -40 -6 -76q0 -129 69.5 -190.5t219.5 -61.5q167 0 269.5 83.5t127.5 244.5l123 889h262l-129 -910q-36 -263 -216 -408t-458 -145z" />
    <glyph glyph-name="V" unicode="V" horiz-adv-x="1437" 
d="M1253 1434h283l-748 -1434h-286l-344 1434h270l254 -1137z" />
    <glyph glyph-name="W" unicode="W" horiz-adv-x="2164" 
d="M1970 1434h277l-635 -1434h-277l-176 1067l-477 -1067h-279l-229 1434h264l162 -1080l477 1080h254l176 -1076z" />
    <glyph glyph-name="X" unicode="X" horiz-adv-x="1351" 
d="M1430 1434l-566 -703l381 -731h-284l-273 539l-424 -539h-305l586 733l-365 701h275l266 -516l409 516h300z" />
    <glyph glyph-name="Y" unicode="Y" horiz-adv-x="1339" 
d="M1159 1434h307l-657 -859l-86 -575h-260l84 575l-418 859h285l284 -623z" />
    <glyph glyph-name="Z" unicode="Z" horiz-adv-x="1247" 
d="M1278 1434l-27 -197l-872 -1004h741l-33 -233h-1075l27 197l872 1003h-708l33 234h1042z" />
    <glyph glyph-name="bracketleft" unicode="[" horiz-adv-x="776" 
d="M817 1300h-287l-182 -1323h285l-31 -215h-528l245 1754h529z" />
    <glyph glyph-name="backslash" unicode="\" horiz-adv-x="1019" 
d="M668 -193l-518 1709h241l518 -1709h-241z" />
    <glyph glyph-name="bracketright" unicode="]" horiz-adv-x="776" 
d="M207 1516h528l-246 -1754h-528l31 215h287l182 1323h-285z" />
    <glyph glyph-name="asciicircum" unicode="^" horiz-adv-x="1206" 
d="M1182 715h-267l-213 446l-342 -446h-282l534 669h224z" />
    <glyph glyph-name="underscore" unicode="_" horiz-adv-x="894" 
d="M-113 -287l25 189h897l-27 -189h-895z" />
    <glyph glyph-name="grave" unicode="`" horiz-adv-x="1269" 
d="M600 1202l-238 324h295l189 -324h-246z" />
    <glyph glyph-name="a" unicode="a" horiz-adv-x="1329" 
d="M1001 1042h246l-147 -1042h-246l20 158q-56 -88 -154.5 -137.5t-213.5 -49.5q-189 0 -304.5 128t-115.5 339q0 141 53.5 273t147.5 219q147 141 350 141q124 0 216 -55.5t124 -151.5zM825 297q54 52 83.5 131t29.5 160q0 118 -66 187t-182 69q-136 0 -229 -90
q-58 -57 -87.5 -138t-29.5 -161q0 -118 64 -187t180 -69q139 0 237 98z" />
    <glyph glyph-name="b" unicode="b" horiz-adv-x="1327" 
d="M823 1071q187 0 303.5 -127.5t116.5 -335.5q0 -136 -51 -267t-143 -222q-72 -70 -164 -109t-193 -39q-123 0 -215.5 55.5t-124.5 149.5l-24 -176h-246l211 1499h250l-84 -612q58 88 155 136t209 48zM879 301q51 54 79.5 133t28.5 156q0 119 -64 186.5t-180 67.5
q-151 0 -245 -105q-109 -115 -109 -288q0 -116 64.5 -184t179.5 -68q149 0 246 102z" />
    <glyph glyph-name="c" unicode="c" horiz-adv-x="1138" 
d="M547 -29q-210 0 -335.5 128.5t-125.5 336.5q0 143 57.5 274.5t161.5 219.5q166 141 397 141q160 0 274 -76.5t154 -212.5l-221 -114q-60 174 -225 174q-133 0 -227 -88q-54 -54 -84.5 -135.5t-30.5 -161.5q0 -119 67.5 -188.5t182.5 -69.5q169 0 276 176l191 -115
q-77 -137 -214 -213t-298 -76z" />
    <glyph glyph-name="d" unicode="d" horiz-adv-x="1327" 
d="M1059 1499h250l-211 -1499h-246l25 166q-59 -91 -160 -143t-219 -52q-185 0 -299.5 126.5t-114.5 330.5q0 145 56 285t159 231q146 127 338 127q119 0 209 -54t127 -147zM825 297q53 54 83 131t30 156q0 119 -67 189.5t-185 70.5q-136 0 -229 -90q-57 -55 -86 -136.5
t-29 -162.5q0 -119 62 -187.5t178 -68.5q142 0 243 98z" />
    <glyph glyph-name="e" unicode="e" horiz-adv-x="1210" 
d="M1135 633q0 -89 -27 -187h-776q0 -127 67 -192.5t195 -65.5q183 0 317 131l129 -147q-179 -201 -465 -201q-225 0 -358 124.5t-133 334.5q0 143 55.5 278t157.5 224q161 139 389 139q202 0 325.5 -119t123.5 -319zM674 854q-140 0 -232 -92q-55 -58 -84 -146h531
q2 12 2 29q0 102 -55 155.5t-162 53.5z" />
    <glyph glyph-name="f" unicode="f" horiz-adv-x="815" 
d="M768 1300q-86 0 -127.5 -33.5t-52.5 -109.5l-17 -115h281l-31 -219h-280l-117 -823h-250l117 823h-201l31 219h201l18 136q24 169 124.5 254.5t287.5 85.5q86 0 166 -19l-29 -211q-70 12 -121 12z" />
    <glyph glyph-name="g" unicode="g" horiz-adv-x="1329" 
d="M1001 1042h246l-131 -925q-37 -268 -196 -412.5t-431 -144.5q-148 0 -273 46t-198 124l136 178q135 -123 329 -123q164 0 264 85t125 247l13 90q-56 -92 -154.5 -144.5t-220.5 -52.5q-187 0 -304.5 123t-117.5 320q0 139 55 271.5t152 217.5q151 129 342 129
q121 0 213 -53.5t127 -147.5zM827 326q115 112 115 272q0 113 -65 180.5t-183 67.5q-139 0 -235 -90q-56 -53 -84.5 -128t-28.5 -151q0 -112 62 -179t178 -67q136 0 241 95z" />
    <glyph glyph-name="h" unicode="h" horiz-adv-x="1251" 
d="M817 1071q150 0 234 -81.5t84 -229.5q0 -33 -7 -84l-96 -676h-250l86 612q6 37 6 68q0 83 -40.5 122.5t-128.5 39.5q-116 0 -195 -64.5t-94 -179.5l-84 -598h-250l211 1499h250l-86 -608q58 86 151 133t209 47z" />
    <glyph glyph-name="i" unicode="i" horiz-adv-x="563" 
d="M381 1217q-64 0 -102.5 37t-38.5 96q0 75 52 126.5t128 51.5q65 0 104 -37t39 -96q0 -76 -51.5 -127t-130.5 -51zM84 0l147 1042h250l-147 -1042h-250z" />
    <glyph glyph-name="j" unicode="j" horiz-adv-x="563" 
d="M381 1217q-64 0 -102.5 37t-38.5 96q0 75 52 126.5t128 51.5q65 0 104 -37t39 -96q0 -76 -51.5 -127t-130.5 -51zM-76 -440q-71 0 -137 14l31 217q58 -10 92 -10q78 0 115.5 35t48.5 110l157 1116h250l-164 -1157q-22 -161 -117.5 -243t-275.5 -82z" />
    <glyph glyph-name="k" unicode="k" horiz-adv-x="1173" 
d="M1235 1040l-520 -452l383 -588h-287l-276 430l-162 -139l-41 -291h-250l211 1499h250l-127 -907l506 450z" />
    <glyph glyph-name="l" unicode="l" horiz-adv-x="559" 
d="M82 0l211 1499h250l-211 -1499h-250z" />
    <glyph glyph-name="m" unicode="m" horiz-adv-x="1898" 
d="M1475 1071q145 0 225 -80t80 -229q0 -38 -6 -84l-97 -678h-250l89 616q6 37 6 70q0 80 -38.5 118t-119.5 38q-109 0 -184 -64.5t-90 -177.5l-86 -600h-250l88 616q6 37 6 70q0 80 -38.5 118t-119.5 38q-109 0 -184 -64.5t-90 -177.5l-84 -600h-250l147 1042h246l-22 -159
q54 88 147 138t205 50q113 0 189.5 -53.5t99.5 -151.5q53 94 155 149.5t226 55.5z" />
    <glyph glyph-name="n" unicode="n" horiz-adv-x="1251" 
d="M815 1071q152 0 236 -81.5t84 -231.5q0 -31 -7 -82l-96 -676h-250l86 612q6 37 6 68q0 83 -40.5 122.5t-128.5 39.5q-116 0 -195 -64.5t-94 -179.5l-84 -598h-250l147 1042h246l-22 -159q54 88 149 138t213 50z" />
    <glyph glyph-name="o" unicode="o" horiz-adv-x="1280" 
d="M575 -29q-223 0 -356 133.5t-133 337.5q0 131 55.5 258.5t153.5 217.5q80 72 186 112.5t226 40.5q149 0 261 -62.5t170 -168.5t58 -240q0 -137 -63 -273t-168 -223q-165 -133 -390 -133zM590 199q128 0 223 82q63 57 95 138.5t32 164.5q0 121 -64 190.5t-182 69.5
q-140 0 -239 -99q-54 -54 -82.5 -130.5t-28.5 -157.5q0 -119 64.5 -188.5t181.5 -69.5z" />
    <glyph glyph-name="p" unicode="p" horiz-adv-x="1327" 
d="M825 1071q185 0 301.5 -127t116.5 -332q0 -145 -57 -284.5t-160 -229.5q-146 -127 -336 -127q-121 0 -211 53t-125 146l-80 -580h-249l204 1452h246l-24 -170q58 94 158 146.5t216 52.5zM870 295q57 57 87 137t30 162q0 116 -60.5 183t-174.5 67q-72 0 -137 -27.5
t-109 -73.5q-57 -55 -87 -133t-30 -159q0 -117 63.5 -184.5t180.5 -67.5q138 0 237 96z" />
    <glyph glyph-name="q" unicode="q" horiz-adv-x="1329" 
d="M1001 1042h246l-205 -1452h-249l79 568q-58 -89 -155.5 -138t-212.5 -49q-186 0 -302 128t-116 337q0 142 56 279t157 225q140 131 336 131q125 0 215.5 -56.5t126.5 -152.5zM825 295q54 56 84.5 134.5t30.5 156.5q0 117 -67 187.5t-185 70.5q-140 0 -233 -96
q-51 -53 -81 -134.5t-30 -160.5q0 -118 63 -186t179 -68q136 0 239 96z" />
    <glyph glyph-name="r" unicode="r" horiz-adv-x="849" 
d="M784 1061q50 0 88 -14l-32 -234q-65 10 -119 10q-274 0 -318 -309l-71 -514h-250l147 1042h246l-26 -176q51 91 139.5 143t195.5 52z" />
    <glyph glyph-name="s" unicode="s" horiz-adv-x="1056" 
d="M483 -29q-153 0 -276 54t-182 145l151 158q51 -68 135.5 -106t184.5 -38q99 0 151 37q51 35 51 88q0 36 -30.5 60.5t-106.5 42.5l-158 37q-137 31 -203.5 99t-66.5 163q0 75 33.5 146t91.5 116q121 98 334 98q133 0 245 -44.5t171 -121.5l-150 -162q-115 115 -283 115
q-105 0 -151 -43q-37 -27 -37 -78q0 -30 29.5 -51.5t99.5 -38.5l168 -41q270 -62 270 -258q0 -83 -38.5 -160.5t-106.5 -126.5q-119 -90 -326 -90z" />
    <glyph glyph-name="t" unicode="t" horiz-adv-x="864" 
d="M535 823l-70 -489q-9 -70 21 -98.5t112 -28.5q77 0 150 16l-29 -211q-98 -28 -207 -28q-177 0 -251.5 77.5t-51.5 239.5l74 522h-195l31 219h196l43 308h250l-43 -308h295l-33 -219h-292z" />
    <glyph glyph-name="u" unicode="u" horiz-adv-x="1241" 
d="M909 1042h250l-147 -1042h-246l22 160q-57 -88 -154.5 -138.5t-215.5 -50.5q-146 0 -222.5 78t-76.5 225q0 44 6 91l96 677h250l-88 -614q-6 -43 -6 -80q0 -78 35 -113.5t116 -35.5q113 0 196.5 67.5t100.5 175.5z" />
    <glyph glyph-name="v" unicode="v" horiz-adv-x="1130" 
d="M905 1042h273l-551 -1042h-271l-256 1042h262l164 -766z" />
    <glyph glyph-name="w" unicode="w" horiz-adv-x="1738" 
d="M1520 1042h260l-475 -1042h-277l-129 735l-336 -735h-276l-178 1042h249l115 -751l344 751h246l131 -751z" />
    <glyph glyph-name="x" unicode="x" horiz-adv-x="1107" 
d="M1133 1042l-414 -507l287 -535h-273l-190 371l-297 -371h-289l438 532l-270 510h268l176 -350l277 350h287z" />
    <glyph glyph-name="y" unicode="y" horiz-adv-x="1132" 
d="M911 1042h271l-766 -1450h-248l205 410l-271 1040h260l175 -766z" />
    <glyph glyph-name="z" unicode="z" horiz-adv-x="1030" 
d="M1010 1042l-23 -174l-627 -653h539l-31 -215h-856l25 174l625 653h-517l31 215h834z" />
    <glyph glyph-name="braceleft" unicode="{" horiz-adv-x="765" 
d="M653 1516h185l-29 -216h-113q-126 0 -141 -124l-43 -302q-15 -102 -66 -159.5t-145 -77.5q171 -47 141 -248l-41 -301q-9 -62 13 -86.5t84 -24.5h125l-31 -215h-172q-140 0 -206.5 54t-66.5 168q0 9 5 71l51 361q9 64 -16 89t-93 25h-24l28 218h15q137 0 155 129l51 360
q22 152 98 215.5t236 63.5z" />
    <glyph glyph-name="bar" unicode="|" horiz-adv-x="657" 
d="M119 -205l250 1772h217l-250 -1772h-217z" />
    <glyph glyph-name="braceright" unicode="}" horiz-adv-x="768" 
d="M705 748h26l-31 -218h-14q-138 0 -156 -129l-49 -360q-22 -152 -98.5 -215.5t-237.5 -63.5h-184l31 215h110q126 0 144 125l41 301q15 103 66 160.5t145 77.5q-171 50 -142 248l41 301q9 62 -12.5 86t-83.5 24h-125l31 216h172q141 0 206.5 -54t65.5 -168q0 -21 -4 -71
l-51 -361q-9 -64 16 -89t93 -25z" />
    <glyph glyph-name="asciitilde" unicode="~" 
d="M938 492q-75 0 -208 47t-208 47q-65 0 -124 -20.5t-134 -67.5l31 221q130 86 262 86q72 0 207 -47t203 -47q69 0 138.5 24.5t121.5 63.5l-31 -221q-134 -86 -258 -86z" />
    <glyph glyph-name="uni00A0" unicode="&#xa0;" horiz-adv-x="460" 
 />
    <glyph glyph-name="exclamdown" unicode="&#xa1;" horiz-adv-x="624" 
d="M375 1055q76 0 118 -44t37 -118q-3 -75 -50.5 -122.5t-125.5 -47.5q-75 0 -117.5 44t-37.5 116q3 76 51 124t125 48zM426 559l-107 -960h-270l160 960h217z" />
    <glyph glyph-name="cent" unicode="&#xa2;" horiz-adv-x="1153" 
d="M674 399q139 23 229 138l168 -134q-70 -104 -182 -164.5t-246 -68.5l-25 -170h-124l24 172q-186 25 -294.5 150t-108.5 311q0 144 62 281.5t169 224.5q138 110 324 125l24 170h125l-24 -172q126 -12 220 -72t144 -160l-205 -133q-64 121 -190 139zM367 651
q0 -100 47.5 -165.5t134.5 -84.5l88 627q-80 -17 -145 -76q-60 -54 -92.5 -134.5t-32.5 -166.5z" />
    <glyph glyph-name="sterling" unicode="&#xa3;" horiz-adv-x="1118" 
d="M471 610l-53 -381h604l-33 -229h-1003l32 229h146l53 381h-145l26 191h146l32 225q28 206 149 321t327 115q291 0 415 -241l-209 -129q-59 133 -206 133q-96 0 -153.5 -54t-72.5 -161l-28 -209h467l-27 -191h-467z" />
    <glyph glyph-name="currency" unicode="&#xa4;" horiz-adv-x="1138" 
d="M1016 774q0 -162 -98 -287l118 -139l-125 -108l-118 137q-113 -66 -242 -66q-127 0 -221 62l-170 -148l-105 123l164 146q-39 76 -39 168q0 161 96 284l-118 139l125 109l118 -137q111 65 242 65t223 -61l168 147l105 -123l-164 -145q41 -74 41 -166zM408 680
q0 -72 40.5 -114t114.5 -42q99 0 162 66t63 164q0 71 -41.5 113t-115.5 42q-98 0 -160.5 -65t-62.5 -164z" />
    <glyph glyph-name="yen" unicode="&#xa5;" horiz-adv-x="1228" 
d="M1339 1434l-497 -695h288l-22 -159h-356l-23 -160h356l-22 -162h-356l-37 -258h-256l37 258h-355l23 162h354l23 160h-355l21 159h289l-304 695h265l241 -586l404 586h282z" />
    <glyph glyph-name="brokenbar" unicode="&#xa6;" horiz-adv-x="657" 
d="M264 827l105 740h217l-105 -740h-217zM119 -205l102 723h217l-102 -723h-217z" />
    <glyph glyph-name="section" unicode="&#xa7;" horiz-adv-x="1130" 
d="M1055 674q0 -117 -64.5 -200t-171.5 -116q154 -74 154 -229q0 -187 -133.5 -291t-358.5 -104q-157 0 -279.5 53t-187.5 147l154 154q50 -69 136 -104t192 -35q103 0 163 39t60 110q0 40 -32 67.5t-105 45.5l-164 41q-145 33 -218 106.5t-73 180.5q0 112 65 191.5
t173 111.5q-152 77 -152 235q0 177 130.5 281t348.5 104q140 0 251 -45t175 -123l-149 -159q-109 112 -291 112q-102 0 -156.5 -40t-54.5 -113q0 -40 30 -65t103 -42l176 -43q279 -66 279 -270zM373 569q0 -47 34 -76t117 -49l43 -10q95 -23 167.5 38t72.5 157
q0 47 -34.5 77t-113.5 50l-45 10q-96 23 -168.5 -38t-72.5 -159z" />
    <glyph glyph-name="dieresis" unicode="&#xa8;" horiz-adv-x="1269" 
d="M500 1217q-64 0 -102 36t-38 95q0 75 51.5 127.5t127.5 52.5q64 0 101.5 -36t37.5 -95q0 -74 -52 -127t-126 -53zM971 1217q-64 0 -102 36t-38 95q0 75 52.5 127.5t128.5 52.5q63 0 100 -36t37 -95q0 -74 -51 -127t-127 -53z" />
    <glyph glyph-name="copyright" unicode="&#xa9;" horiz-adv-x="1710" 
d="M788 -29q-141 0 -264.5 49.5t-210 135.5t-136.5 205.5t-50 254.5q0 189 91.5 367t246.5 299q109 86 241 133t271 47q188 0 340 -85t236.5 -232t84.5 -326q0 -187 -87 -362.5t-238 -296.5q-237 -189 -525 -189zM797 121q233 0 422 155q119 99 187.5 239t68.5 290
q0 218 -141 363t-367 145q-222 0 -406 -144q-124 -97 -196 -241.5t-72 -300.5q0 -217 140 -361.5t364 -144.5zM848 305q-166 0 -266.5 96t-100.5 252q0 206 132 341.5t337 135.5q239 0 328 -182l-182 -117q-51 97 -160 97q-100 0 -162.5 -74t-62.5 -180q0 -77 41.5 -121.5
t115.5 -44.5q118 0 195 96l149 -117q-56 -87 -151 -134.5t-213 -47.5z" />
    <glyph glyph-name="ordfeminine" unicode="&#xaa;" horiz-adv-x="1009" 
d="M643 1516q173 0 263 -90t67 -252l-80 -570h-203l25 137q-42 -72 -125 -114.5t-191 -42.5q-130 0 -205 67t-75 176q0 74 31.5 135.5t91.5 98.5q100 69 293 69h208l5 33q21 152 -132 152q-141 0 -258 -105l-129 150q75 72 182 114t232 42zM477 760q95 0 162.5 52.5
t79.5 137.5l4 33h-186q-105 0 -146 -41q-35 -30 -35 -92q0 -90 121 -90z" />
    <glyph glyph-name="guillemotleft" unicode="&#xab;" horiz-adv-x="1206" 
d="M705 969l-377 -449l247 -446h-264l-252 448l373 447h273zM1200 969l-377 -449l246 -446h-262l-254 448l375 447h272z" />
    <glyph glyph-name="logicalnot" unicode="&#xac;" 
d="M301 760h920l-62 -430h-231l28 209h-686z" />
    <glyph glyph-name="registered" unicode="&#xae;" horiz-adv-x="1122" 
d="M688 1464q171 0 285 -110t114 -275q0 -115 -50.5 -221t-143.5 -180q-140 -117 -322 -117q-172 0 -285.5 112t-113.5 279q0 117 56 226t155 186q138 100 305 100zM831 760q69 59 106.5 138t37.5 167q0 128 -81 212.5t-210 84.5q-134 0 -238 -78q-76 -57 -118.5 -143
t-42.5 -180q0 -128 81 -212.5t212 -84.5q143 0 253 96zM692 1255q158 0 158 -129q0 -144 -133 -176l98 -168h-139l-86 162h-33l-22 -162h-123l65 473h215zM655 1044q66 0 66 62q0 41 -51 41h-82l-17 -103h84z" />
    <glyph glyph-name="macron" unicode="&#xaf;" horiz-adv-x="1269" 
d="M406 1235l26 197h660l-27 -197h-659z" />
    <glyph glyph-name="degree" unicode="&#xb0;" horiz-adv-x="782" 
d="M442 821q-129 0 -210.5 78.5t-81.5 198.5q0 152 106 258t260 106q130 0 212.5 -77.5t82.5 -196.5q0 -152 -106.5 -259.5t-262.5 -107.5zM459 995q74 0 120 50t46 124q0 53 -33.5 86t-91.5 33q-71 0 -117.5 -51t-46.5 -119q0 -55 33 -89t90 -34z" />
    <glyph glyph-name="plusminus" unicode="&#xb1;" 
d="M897 911h344l-31 -221h-344l-45 -328h-233l45 328h-342l31 221h342l47 330h233zM195 0l30 221h920l-31 -221h-919z" />
    <glyph glyph-name="uni00B2" unicode="&#xb2;" horiz-adv-x="677" 
d="M571 1051l-184 -154h295l-23 -172h-575l20 143l295 246q71 57 105.5 95.5t34.5 74.5q0 25 -19.5 41t-52.5 16q-92 0 -176 -112l-135 94q48 89 135 141t192 52q110 0 180 -57.5t70 -147.5q0 -73 -43 -135t-119 -125z" />
    <glyph glyph-name="uni00B3" unicode="&#xb3;" horiz-adv-x="661" 
d="M561 1118q111 -40 111 -162q0 -108 -83.5 -176.5t-219.5 -68.5q-187 0 -285 116l111 129q71 -71 172 -71q55 0 85.5 21.5t30.5 60.5q0 65 -108 65h-84l24 166h76q129 0 129 84q0 59 -84 59q-88 0 -172 -75l-117 118q123 132 306 132q116 0 188 -54.5t72 -148.5
q0 -71 -41.5 -122.5t-110.5 -72.5z" />
    <glyph glyph-name="acute" unicode="&#xb4;" horiz-adv-x="1269" 
d="M621 1202l274 324h301l-326 -324h-249z" />
    <glyph glyph-name="uni00B5" unicode="&#xb5;" horiz-adv-x="1259" 
d="M930 1042h250l-148 -1042h-231l20 154q-49 -86 -130.5 -134.5t-174.5 -48.5q-115 0 -178 78l-70 -500h-250l211 1493h250l-92 -651q-6 -98 36 -145t136 -47q117 0 194 71t97 213z" />
    <glyph glyph-name="paragraph" unicode="&#xb6;" horiz-adv-x="1349" 
d="M373 -266l151 1067h-26q-152 0 -238 73t-86 193q0 168 124.5 267.5t317.5 99.5h222l-240 -1700h-225zM793 -266l237 1700h225l-237 -1700h-225z" />
    <glyph glyph-name="periodcentered" unicode="&#xb7;" horiz-adv-x="550" 
d="M297 571q-76 0 -118.5 44.5t-37.5 117.5q3 76 50 124t124 48q76 0 119.5 -44.5t38.5 -115.5q-3 -76 -51 -125t-125 -49z" />
    <glyph glyph-name="cedilla" unicode="&#xb8;" horiz-adv-x="1269" 
d="M246 -401l227 438h213l-182 -438h-258z" />
    <glyph glyph-name="uni00B9" unicode="&#xb9;" horiz-adv-x="505" 
d="M389 1499h158l-109 -774h-186l82 575l-184 -83l24 180z" />
    <glyph glyph-name="ordmasculine" unicode="&#xba;" horiz-adv-x="1103" 
d="M571 580q-193 0 -307 111t-114 284q0 119 50.5 231.5t139.5 186.5q142 123 342 123q192 0 307 -112t115 -286q0 -125 -55.5 -240t-153.5 -190q-137 -108 -324 -108zM584 793q107 0 178 65q48 42 74 106t26 134q0 96 -50.5 151.5t-143.5 55.5q-112 0 -189 -80
q-88 -88 -88 -232q0 -92 50.5 -146t142.5 -54z" />
    <glyph glyph-name="guillemotright" unicode="&#xbb;" horiz-adv-x="1206" 
d="M399 967l254 -447l-374 -448h-273l379 452l-248 443h262zM895 967l254 -447l-375 -448h-272l377 450l-246 445h262z" />
    <glyph glyph-name="onequarter" unicode="&#xbc;" horiz-adv-x="1583" 
d="M324 672l82 575l-185 -84l25 180l215 103h157l-108 -774h-186zM1274 1434h215l-1204 -1434h-217zM1372 762l-65 -473h90l-23 -156h-90l-20 -145h-174l20 145h-387l22 156l408 473h219zM936 289h197l36 270z" />
    <glyph glyph-name="onehalf" unicode="&#xbd;" horiz-adv-x="1583" 
d="M305 672l82 575l-184 -84l24 180l215 103h158l-108 -774h-187zM1260 1434h215l-1205 -1434h-217zM1464 573q0 -73 -42 -135.5t-117 -124.5l-185 -153h295l-24 -172h-574l21 143l295 246q70 57 104.5 95.5t34.5 74.5q0 25 -19.5 41t-52.5 16q-95 0 -176 -112l-137 94
q50 89 136.5 140.5t190.5 51.5q110 0 180 -57.5t70 -147.5z" />
    <glyph glyph-name="threequarters" unicode="&#xbe;" horiz-adv-x="1583" 
d="M690 903q0 -108 -84.5 -177t-220.5 -69q-183 0 -285 117l111 129q72 -72 172 -72q55 0 87 21.5t32 60.5q0 66 -109 66h-84l23 166h78q63 0 96 22t33 62q0 59 -86 59q-85 0 -170 -76l-119 119q122 131 305 131q116 0 189 -54t73 -148q0 -72 -41.5 -123t-111.5 -72
q112 -40 112 -162zM1360 1434h215l-1204 -1434h-215zM1458 762l-65 -473h90l-23 -156h-90l-20 -145h-174l20 145h-387l22 156l408 473h219zM1022 289h197l36 270z" />
    <glyph glyph-name="questiondown" unicode="&#xbf;" horiz-adv-x="966" 
d="M586 1055q76 0 119 -44t38 -118q-5 -75 -52 -122.5t-124 -47.5q-76 0 -118 43.5t-39 116.5q5 76 52 124t124 48zM651 559l-14 -96q-13 -101 -52.5 -159t-148.5 -140l-106 -80q-113 -85 -113 -174q0 -54 38 -83.5t107 -29.5q175 0 314 183l164 -125q-72 -129 -205 -207
t-291 -78q-168 0 -273.5 84.5t-105.5 220.5q0 111 58 194.5t172 168.5l100 75q57 45 76 73.5t28 86.5l11 86h241z" />
    <glyph glyph-name="Agrave" unicode="&#xc0;" horiz-adv-x="1486" 
d="M1077 1593h-246l-237 324h295zM1116 0l-80 340h-624l-176 -340h-279l766 1434h297l362 -1434h-266zM526 563h459l-143 615z" />
    <glyph glyph-name="Aacute" unicode="&#xc1;" horiz-adv-x="1486" 
d="M1290 1917l-325 -324h-250l274 324h301zM1116 0l-80 340h-624l-176 -340h-279l766 1434h297l362 -1434h-266zM526 563h459l-143 615z" />
    <glyph glyph-name="Acircumflex" unicode="&#xc2;" horiz-adv-x="1486" 
d="M926 1776l-183 -183h-260l334 324h242l244 -324h-242zM1116 0l-80 340h-624l-176 -340h-279l766 1434h297l362 -1434h-266zM526 563h459l-143 615z" />
    <glyph glyph-name="Atilde" unicode="&#xc3;" horiz-adv-x="1486" 
d="M788 1718q-62 0 -73 -108h-180q15 146 77.5 221.5t165.5 75.5q45 0 83.5 -18t84.5 -56q58 -45 96 -45q63 0 74 108h180q-15 -146 -77.5 -221.5t-165.5 -75.5q-79 0 -168 74q-59 45 -97 45zM1116 0l-80 340h-624l-176 -340h-279l766 1434h297l362 -1434h-266zM526 563h459
l-143 615z" />
    <glyph glyph-name="Adieresis" unicode="&#xc4;" horiz-adv-x="1486" 
d="M662 1608q-64 0 -102 36t-38 95q0 76 51 128t127 52q64 0 102 -36t38 -95q0 -74 -52 -127t-126 -53zM1133 1608q-64 0 -102 36t-38 95q0 75 52.5 127.5t128.5 52.5q63 0 100 -36t37 -95q0 -74 -51 -127t-127 -53zM1116 0l-80 340h-624l-176 -340h-279l766 1434h297
l362 -1434h-266zM526 563h459l-143 615z" />
    <glyph glyph-name="Aring" unicode="&#xc5;" horiz-adv-x="1486" 
d="M895 1567q-108 0 -180 65t-72 162q0 121 93 208t220 87q108 0 179 -65t71 -162q0 -122 -92.5 -208.5t-218.5 -86.5zM946 1939q-59 0 -97 -38.5t-38 -96.5q0 -41 24.5 -64.5t69.5 -23.5q59 0 97 39t38 94q0 42 -24.5 66t-69.5 24zM1116 0l-80 340h-624l-176 -340h-279
l766 1434h297l362 -1434h-266zM526 563h459l-143 615z" />
    <glyph glyph-name="AE" unicode="&#xc6;" horiz-adv-x="2252" 
d="M2202 1194h-758l-47 -350h712l-32 -240h-715l-49 -364h776l-35 -240h-1036l45 319h-553l-250 -319h-315l1138 1434h1151zM684 543h410l92 643z" />
    <glyph glyph-name="Ccedilla" unicode="&#xc7;" horiz-adv-x="1527" 
d="M788 215q135 0 254.5 65t204.5 193l213 -119q-102 -166 -262.5 -263t-349.5 -116l-158 -376h-258l199 383q-233 38 -369.5 204.5t-136.5 407.5q0 208 93.5 397.5t258.5 311.5q221 159 498 159q210 0 363 -98t216 -285l-235 -118q-89 258 -369 258q-185 0 -332 -115
q-106 -85 -163.5 -214.5t-57.5 -271.5q0 -183 103.5 -293t287.5 -110z" />
    <glyph glyph-name="Egrave" unicode="&#xc8;" horiz-adv-x="1341" 
d="M1010 1593h-246l-238 324h295zM1288 1198h-756l-49 -358h711l-35 -234h-708l-52 -370h777l-35 -236h-1035l201 1434h1016z" />
    <glyph glyph-name="Eacute" unicode="&#xc9;" horiz-adv-x="1341" 
d="M1223 1917l-326 -324h-250l275 324h301zM1288 1198h-756l-49 -358h711l-35 -234h-708l-52 -370h777l-35 -236h-1035l201 1434h1016z" />
    <glyph glyph-name="Ecircumflex" unicode="&#xca;" horiz-adv-x="1341" 
d="M860 1776l-182 -183h-260l334 324h241l244 -324h-242zM1288 1198h-756l-49 -358h711l-35 -234h-708l-52 -370h777l-35 -236h-1035l201 1434h1016z" />
    <glyph glyph-name="Edieresis" unicode="&#xcb;" horiz-adv-x="1341" 
d="M596 1608q-64 0 -101.5 36t-37.5 95q0 76 51 128t127 52q64 0 101.5 -36t37.5 -95q0 -74 -52 -127t-126 -53zM1067 1608q-64 0 -101.5 36t-37.5 95q0 75 52 127.5t128 52.5q63 0 100 -36t37 -95q0 -74 -51 -127t-127 -53zM1288 1198h-756l-49 -358h711l-35 -234h-708
l-52 -370h777l-35 -236h-1035l201 1434h1016z" />
    <glyph glyph-name="Igrave" unicode="&#xcc;" horiz-adv-x="626" 
d="M401 1593l-237 324h295l188 -324h-246zM111 0l200 1434h260l-200 -1434h-260z" />
    <glyph glyph-name="Iacute" unicode="&#xcd;" horiz-adv-x="626" 
d="M285 1593l274 324h301l-325 -324h-250zM111 0l200 1434h260l-200 -1434h-260z" />
    <glyph glyph-name="Icircumflex" unicode="&#xce;" horiz-adv-x="626" 
d="M631 1917l243 -324h-241l-135 183l-183 -183h-260l334 324h242zM111 0l200 1434h260l-200 -1434h-260z" />
    <glyph glyph-name="Idieresis" unicode="&#xcf;" horiz-adv-x="626" 
d="M233 1608q-64 0 -101.5 36t-37.5 95q0 76 51 128t127 52q64 0 102 -36t38 -95q0 -74 -52 -127t-127 -53zM705 1608q-64 0 -102 36t-38 95q0 75 52 127.5t128 52.5q63 0 100.5 -36t37.5 -95q0 -74 -51 -127t-127 -53zM111 0l200 1434h260l-200 -1434h-260z" />
    <glyph glyph-name="Eth" unicode="&#xd0;" horiz-adv-x="1587" 
d="M897 1434q280 0 449.5 -157.5t169.5 -430.5q0 -182 -67.5 -356t-191.5 -289q-213 -201 -548 -201h-553l86 612h-183l29 209h182l86 613h541zM1094 389q74 79 111.5 199t37.5 243q0 361 -373 361h-286l-52 -371h347l-31 -209h-346l-51 -370h276q232 0 367 147z" />
    <glyph glyph-name="Ntilde" unicode="&#xd1;" horiz-adv-x="1613" 
d="M854 1718q-63 0 -74 -108h-180q15 145 78 221t166 76q45 0 83.5 -18t84.5 -56q58 -45 96 -45q63 0 74 108h180q-15 -145 -78 -221t-166 -76q-79 0 -168 74q-59 45 -96 45zM1307 1434h256l-203 -1434h-240l-616 1018l-142 -1018h-256l201 1434h242l614 -1022z" />
    <glyph glyph-name="Ograve" unicode="&#xd2;" horiz-adv-x="1705" 
d="M940 1593l-238 324h295l189 -324h-246zM786 -29q-294 0 -476.5 178t-182.5 455q0 188 81.5 365t223.5 299q229 194 543 194q145 0 269 -49t209 -134t133 -202.5t48 -251.5q0 -177 -76 -349.5t-208 -293.5q-112 -101 -257 -156t-307 -55zM803 215q217 0 379 152
q87 84 133.5 201t46.5 241q0 184 -108 297t-296 113q-208 0 -366 -142q-92 -86 -142.5 -205.5t-50.5 -246.5q0 -184 108.5 -297t295.5 -113z" />
    <glyph glyph-name="Oacute" unicode="&#xd3;" horiz-adv-x="1705" 
d="M823 1593l275 324h301l-326 -324h-250zM786 -29q-294 0 -476.5 178t-182.5 455q0 188 81.5 365t223.5 299q229 194 543 194q145 0 269 -49t209 -134t133 -202.5t48 -251.5q0 -177 -76 -349.5t-208 -293.5q-112 -101 -257 -156t-307 -55zM803 215q217 0 379 152
q87 84 133.5 201t46.5 241q0 184 -108 297t-296 113q-208 0 -366 -142q-92 -86 -142.5 -205.5t-50.5 -246.5q0 -184 108.5 -297t295.5 -113z" />
    <glyph glyph-name="Ocircumflex" unicode="&#xd4;" horiz-adv-x="1705" 
d="M1036 1776l-182 -183h-260l334 324h241l244 -324h-242zM975 1462q145 0 269 -49t209 -134t133 -202.5t48 -251.5q0 -177 -76 -349.5t-208 -293.5q-112 -101 -257 -156t-307 -55q-294 0 -476.5 178t-182.5 455q0 188 81.5 365t223.5 299q229 194 543 194zM1182 367
q87 84 133.5 201t46.5 241q0 184 -108 297t-296 113q-208 0 -366 -142q-92 -86 -142.5 -205.5t-50.5 -246.5q0 -184 108.5 -297t295.5 -113q217 0 379 152z" />
    <glyph glyph-name="Otilde" unicode="&#xd5;" horiz-adv-x="1705" 
d="M1163 1599q-79 0 -168 74q-59 45 -96 45q-63 0 -74 -108h-180q15 145 78 221t166 76q45 0 83.5 -18t84.5 -56q58 -45 96 -45q63 0 74 108h180q-15 -145 -78 -221t-166 -76zM786 -29q-294 0 -476.5 178t-182.5 455q0 188 81.5 365t223.5 299q229 194 543 194
q145 0 269 -49t209 -134t133 -202.5t48 -251.5q0 -177 -76 -349.5t-208 -293.5q-112 -101 -257 -156t-307 -55zM803 215q217 0 379 152q87 84 133.5 201t46.5 241q0 184 -108 297t-296 113q-208 0 -366 -142q-92 -86 -142.5 -205.5t-50.5 -246.5q0 -184 108.5 -297
t295.5 -113z" />
    <glyph glyph-name="Odieresis" unicode="&#xd6;" horiz-adv-x="1705" 
d="M772 1608q-64 0 -101.5 36t-37.5 95q0 76 51 128t127 52q64 0 101.5 -36t37.5 -95q0 -74 -52 -127t-126 -53zM1243 1608q-64 0 -101.5 36t-37.5 95q0 75 52 127.5t128 52.5q63 0 100 -36t37 -95q0 -74 -51 -127t-127 -53zM786 -29q-294 0 -476.5 178t-182.5 455
q0 188 81.5 365t223.5 299q229 194 543 194q145 0 269 -49t209 -134t133 -202.5t48 -251.5q0 -177 -76 -349.5t-208 -293.5q-112 -101 -257 -156t-307 -55zM803 215q217 0 379 152q87 84 133.5 201t46.5 241q0 184 -108 297t-296 113q-208 0 -366 -142
q-92 -86 -142.5 -205.5t-50.5 -246.5q0 -184 108.5 -297t295.5 -113z" />
    <glyph glyph-name="multiply" unicode="&#xd7;" 
d="M1229 942l-334 -293l250 -293l-176 -149l-246 291l-332 -291l-131 149l334 293l-248 293l174 150l246 -291l332 291z" />
    <glyph glyph-name="Oslash" unicode="&#xd8;" horiz-adv-x="1705" 
d="M1704 1317l-166 -146q96 -154 96 -346q0 -177 -76 -349.5t-208 -293.5q-112 -101 -257 -156t-307 -55q-262 0 -446 150l-162 -144l-121 140l164 143q-94 148 -94 344q0 188 81.5 365t223.5 299q229 194 543 194q262 0 444 -151l166 145zM592 1077q-92 -86 -142.5 -205.5
t-50.5 -246.5q0 -92 33 -183l789 693q-105 84 -263 84q-208 0 -366 -142zM1182 367q87 84 133.5 201t46.5 241q0 101 -35 182l-788 -692q108 -84 264 -84q217 0 379 152z" />
    <glyph glyph-name="Ugrave" unicode="&#xd9;" horiz-adv-x="1519" 
d="M848 1593l-238 324h295l189 -324h-246zM686 -29q-246 0 -389 118.5t-143 334.5q0 48 6 100l127 910h262l-125 -889q-6 -40 -6 -76q0 -129 69.5 -190.5t219.5 -61.5q167 0 269.5 83.5t127.5 244.5l123 889h262l-129 -910q-36 -263 -216 -408t-458 -145z" />
    <glyph glyph-name="Uacute" unicode="&#xda;" horiz-adv-x="1519" 
d="M731 1593l275 324h301l-326 -324h-250zM686 -29q-246 0 -389 118.5t-143 334.5q0 48 6 100l127 910h262l-125 -889q-6 -40 -6 -76q0 -129 69.5 -190.5t219.5 -61.5q167 0 269.5 83.5t127.5 244.5l123 889h262l-129 -910q-36 -263 -216 -408t-458 -145z" />
    <glyph glyph-name="Ucircumflex" unicode="&#xdb;" horiz-adv-x="1519" 
d="M942 1776l-182 -183h-260l334 324h241l244 -324h-242zM1227 1434h262l-129 -910q-36 -263 -216 -408t-458 -145q-246 0 -389 118.5t-143 334.5q0 48 6 100l127 910h262l-125 -889q-6 -40 -6 -76q0 -129 69.5 -190.5t219.5 -61.5q167 0 269.5 83.5t127.5 244.5z" />
    <glyph glyph-name="Udieresis" unicode="&#xdc;" horiz-adv-x="1519" 
d="M678 1608q-64 0 -101.5 36t-37.5 95q0 76 51 128t127 52q64 0 101.5 -36t37.5 -95q0 -74 -52 -127t-126 -53zM1149 1608q-64 0 -101.5 36t-37.5 95q0 75 52 127.5t128 52.5q63 0 100 -36t37 -95q0 -74 -51 -127t-127 -53zM686 -29q-246 0 -389 118.5t-143 334.5
q0 48 6 100l127 910h262l-125 -889q-6 -40 -6 -76q0 -129 69.5 -190.5t219.5 -61.5q167 0 269.5 83.5t127.5 244.5l123 889h262l-129 -910q-36 -263 -216 -408t-458 -145z" />
    <glyph glyph-name="Yacute" unicode="&#xdd;" horiz-adv-x="1339" 
d="M1212 1917l-325 -324h-250l274 324h301zM1159 1434h307l-657 -859l-86 -575h-260l84 575l-418 859h285l284 -623z" />
    <glyph glyph-name="Thorn" unicode="&#xde;" horiz-adv-x="1374" 
d="M870 1196q219 0 338 -100.5t119 -284.5q0 -123 -46 -238t-130 -182q-145 -127 -412 -127h-336l-36 -264h-261l201 1434h260l-32 -238h335zM983 573q36 37 54 96t18 117q0 90 -55 130t-179 40h-321l-64 -456h320q157 0 227 73z" />
    <glyph glyph-name="germandbls" unicode="&#xdf;" horiz-adv-x="1294" 
d="M891 764q154 -17 236.5 -102t82.5 -216q0 -215 -155 -338.5t-400 -123.5q-80 0 -161 16l30 217q63 -14 123 -14q147 0 228 70t81 192q0 83 -60.5 126.5t-180.5 43.5h-131l30 223h50q145 0 225 74q78 73 78 201q0 159 -199 159q-128 0 -200 -64.5t-91 -197.5l-145 -1030
h-250l145 1042q33 229 169.5 351.5t369.5 122.5q209 0 332 -96.5t123 -256.5q0 -101 -47.5 -192t-131.5 -146q-64 -43 -151 -61z" />
    <glyph glyph-name="agrave" unicode="&#xe0;" horiz-adv-x="1329" 
d="M971 1202h-246l-238 324h295zM1001 1042h246l-147 -1042h-246l20 158q-56 -88 -154.5 -137.5t-213.5 -49.5q-189 0 -304.5 128t-115.5 339q0 141 53.5 273t147.5 219q147 141 350 141q124 0 216 -55.5t124 -151.5zM825 297q54 52 83.5 131t29.5 160q0 118 -66 187
t-182 69q-136 0 -229 -90q-58 -57 -87.5 -138t-29.5 -161q0 -118 64 -187t180 -69q139 0 237 98z" />
    <glyph glyph-name="aacute" unicode="&#xe1;" horiz-adv-x="1329" 
d="M1184 1526l-326 -324h-250l275 324h301zM1001 1042h246l-147 -1042h-246l20 158q-56 -88 -154.5 -137.5t-213.5 -49.5q-189 0 -304.5 128t-115.5 339q0 141 53.5 273t147.5 219q147 141 350 141q124 0 216 -55.5t124 -151.5zM825 297q54 52 83.5 131t29.5 160
q0 118 -66 187t-182 69q-136 0 -229 -90q-58 -57 -87.5 -138t-29.5 -161q0 -118 64 -187t180 -69q139 0 237 98z" />
    <glyph glyph-name="acircumflex" unicode="&#xe2;" horiz-adv-x="1329" 
d="M821 1384l-182 -182h-260l334 324h241l244 -324h-242zM1001 1042h246l-147 -1042h-246l20 158q-56 -88 -154.5 -137.5t-213.5 -49.5q-189 0 -304.5 128t-115.5 339q0 141 53.5 273t147.5 219q147 141 350 141q124 0 216 -55.5t124 -151.5zM825 297q54 52 83.5 131
t29.5 160q0 118 -66 187t-182 69q-136 0 -229 -90q-58 -57 -87.5 -138t-29.5 -161q0 -118 64 -187t180 -69q139 0 237 98z" />
    <glyph glyph-name="atilde" unicode="&#xe3;" horiz-adv-x="1329" 
d="M684 1327q-63 0 -74 -108h-180q15 145 78 221t166 76q45 0 83.5 -18t84.5 -56q58 -45 96 -45q63 0 74 108h180q-15 -145 -78 -221t-166 -76q-79 0 -168 74q-59 45 -96 45zM1001 1042h246l-147 -1042h-246l20 158q-56 -88 -154.5 -137.5t-213.5 -49.5q-189 0 -304.5 128
t-115.5 339q0 141 53.5 273t147.5 219q147 141 350 141q124 0 216 -55.5t124 -151.5zM825 297q54 52 83.5 131t29.5 160q0 118 -66 187t-182 69q-136 0 -229 -90q-58 -57 -87.5 -138t-29.5 -161q0 -118 64 -187t180 -69q139 0 237 98z" />
    <glyph glyph-name="adieresis" unicode="&#xe4;" horiz-adv-x="1329" 
d="M557 1217q-64 0 -101.5 36t-37.5 95q0 76 51 128t127 52q64 0 101.5 -36t37.5 -95q0 -74 -52 -127t-126 -53zM1028 1217q-64 0 -101.5 36t-37.5 95q0 75 52 127.5t128 52.5q63 0 100 -36t37 -95q0 -74 -51 -127t-127 -53zM1001 1042h246l-147 -1042h-246l20 158
q-56 -88 -154.5 -137.5t-213.5 -49.5q-189 0 -304.5 128t-115.5 339q0 141 53.5 273t147.5 219q147 141 350 141q124 0 216 -55.5t124 -151.5zM825 297q54 52 83.5 131t29.5 160q0 118 -66 187t-182 69q-136 0 -229 -90q-58 -57 -87.5 -138t-29.5 -161q0 -118 64 -187
t180 -69q139 0 237 98z" />
    <glyph glyph-name="aring" unicode="&#xe5;" horiz-adv-x="1329" 
d="M791 1176q-108 0 -180 65t-72 162q0 121 93 208t220 87q108 0 179 -65.5t71 -162.5q0 -122 -92.5 -208t-218.5 -86zM842 1548q-59 0 -97 -38.5t-38 -96.5q0 -41 24.5 -64.5t69.5 -23.5q59 0 97 39t38 94q0 42 -24.5 66t-69.5 24zM1001 1042h246l-147 -1042h-246l20 158
q-56 -88 -154.5 -137.5t-213.5 -49.5q-189 0 -304.5 128t-115.5 339q0 141 53.5 273t147.5 219q147 141 350 141q124 0 216 -55.5t124 -151.5zM825 297q54 52 83.5 131t29.5 160q0 118 -66 187t-182 69q-136 0 -229 -90q-58 -57 -87.5 -138t-29.5 -161q0 -118 64 -187
t180 -69q139 0 237 98z" />
    <glyph glyph-name="ae" unicode="&#xe6;" horiz-adv-x="1894" 
d="M1382 1071q198 0 317.5 -119t119.5 -317q0 -20 -9 -90q-7 -54 -20 -96h-768q0 -126 68 -193.5t194 -67.5q170 0 313 131l129 -147q-79 -97 -200 -149t-266 -52q-146 0 -249 54.5t-155 154.5q-62 -99 -179 -154t-267 -55q-171 0 -269 76.5t-98 204.5q0 83 34 155.5
t99 118.5q124 88 352 88h267l6 50q2 14 2 41q0 147 -178 147q-176 0 -306 -127l-129 152q83 92 206 143t268 51q250 0 329 -172q152 172 389 172zM1128 758q-53 -56 -79 -142h528v19q0 107 -55.5 162t-161.5 55q-141 0 -232 -94zM453 164q121 0 209.5 70.5t103.5 177.5l4 37
h-242q-136 0 -192 -56q-41 -38 -41 -112q0 -56 40 -86.5t118 -30.5z" />
    <glyph glyph-name="ccedilla" unicode="&#xe7;" horiz-adv-x="1138" 
d="M592 199q169 0 276 176l191 -115q-63 -112 -166.5 -183t-230.5 -95l-160 -383h-258l198 383q-166 31 -261 152.5t-95 301.5q0 143 57.5 274.5t161.5 219.5q166 141 397 141q160 0 274 -76.5t154 -212.5l-221 -114q-60 174 -225 174q-133 0 -227 -88q-54 -54 -84.5 -135.5
t-30.5 -161.5q0 -119 67.5 -188.5t182.5 -69.5z" />
    <glyph glyph-name="egrave" unicode="&#xe8;" horiz-adv-x="1210" 
d="M901 1202h-246l-237 324h295zM1135 633q0 -89 -27 -187h-776q0 -127 67 -192.5t195 -65.5q183 0 317 131l129 -147q-179 -201 -465 -201q-225 0 -358 124.5t-133 334.5q0 143 55.5 278t157.5 224q161 139 389 139q202 0 325.5 -119t123.5 -319zM674 854q-140 0 -232 -92
q-55 -58 -84 -146h531q2 12 2 29q0 102 -55 155.5t-162 53.5z" />
    <glyph glyph-name="eacute" unicode="&#xe9;" horiz-adv-x="1210" 
d="M1114 1526l-326 -324h-249l274 324h301zM1135 633q0 -89 -27 -187h-776q0 -127 67 -192.5t195 -65.5q183 0 317 131l129 -147q-179 -201 -465 -201q-225 0 -358 124.5t-133 334.5q0 143 55.5 278t157.5 224q161 139 389 139q202 0 325.5 -119t123.5 -319zM674 854
q-140 0 -232 -92q-55 -58 -84 -146h531q2 12 2 29q0 102 -55 155.5t-162 53.5z" />
    <glyph glyph-name="ecircumflex" unicode="&#xea;" horiz-adv-x="1210" 
d="M752 1384l-183 -182h-260l334 324h242l243 -324h-241zM1135 633q0 -89 -27 -187h-776q0 -127 67 -192.5t195 -65.5q183 0 317 131l129 -147q-179 -201 -465 -201q-225 0 -358 124.5t-133 334.5q0 143 55.5 278t157.5 224q161 139 389 139q202 0 325.5 -119t123.5 -319z
M674 854q-140 0 -232 -92q-55 -58 -84 -146h531q2 12 2 29q0 102 -55 155.5t-162 53.5z" />
    <glyph glyph-name="edieresis" unicode="&#xeb;" horiz-adv-x="1210" 
d="M487 1217q-64 0 -101.5 36t-37.5 95q0 76 51 128t127 52q64 0 102 -36t38 -95q0 -74 -52 -127t-127 -53zM958 1217q-64 0 -101.5 36t-37.5 95q0 75 52 127.5t128 52.5q63 0 100.5 -36t37.5 -95q0 -74 -51.5 -127t-127.5 -53zM686 1071q202 0 325.5 -119t123.5 -319
q0 -89 -27 -187h-776q0 -127 67 -192.5t195 -65.5q183 0 317 131l129 -147q-179 -201 -465 -201q-225 0 -358 124.5t-133 334.5q0 143 55.5 278t157.5 224q161 139 389 139zM674 854q-140 0 -232 -92q-55 -58 -84 -146h531q2 12 2 29q0 102 -55 155.5t-162 53.5z" />
    <glyph glyph-name="igrave" unicode="&#xec;" horiz-adv-x="563" 
d="M322 1202l-175 324h287l127 -324h-239zM84 0l147 1042h250l-147 -1042h-250z" />
    <glyph glyph-name="iacute" unicode="&#xed;" horiz-adv-x="563" 
d="M201 1202l215 324h291l-265 -324h-241zM84 0l147 1042h250l-147 -1042h-250z" />
    <glyph glyph-name="icircumflex" unicode="&#xee;" horiz-adv-x="563" 
d="M541 1526l194 -324h-227l-100 189l-150 -189h-233l282 324h234zM84 0l147 1042h250l-147 -1042h-250z" />
    <glyph glyph-name="idieresis" unicode="&#xef;" horiz-adv-x="563" 
d="M188 1227q-56 0 -88 32t-32 87q0 73 46 122.5t117 49.5q56 0 89.5 -33t33.5 -88q0 -70 -47.5 -120t-118.5 -50zM573 1227q-56 0 -88 32t-32 87q0 73 45 122.5t116 49.5q57 0 90 -32.5t33 -88.5q0 -70 -46.5 -120t-117.5 -50zM84 0l147 1042h250l-147 -1042h-250z" />
    <glyph glyph-name="eth" unicode="&#xf0;" horiz-adv-x="1265" 
d="M977 1315q116 -122 170 -290.5t39 -369.5q-16 -329 -178 -499q-182 -185 -441 -185q-223 0 -354 128t-131 323q0 118 49 233t137 197q76 71 179.5 110t220.5 39q192 0 288 -110q-29 185 -163 307l-240 -154l-68 111l193 123q-86 51 -211 90l94 182q178 -49 313 -145
l228 145l67 -110zM821 289q49 45 77 113.5t28 140.5q0 111 -65.5 176t-184.5 65q-75 0 -139.5 -26.5t-108.5 -73.5q-88 -98 -88 -248q0 -111 62 -176t178 -65q140 0 241 94z" />
    <glyph glyph-name="ntilde" unicode="&#xf1;" horiz-adv-x="1251" 
d="M623 1327q-63 0 -74 -108h-180q15 146 77.5 221.5t165.5 75.5q45 0 83.5 -18t84.5 -56q58 -45 97 -45q62 0 73 108h180q-15 -146 -77.5 -221.5t-165.5 -75.5q-79 0 -168 74q-59 45 -96 45zM815 1071q152 0 236 -81.5t84 -231.5q0 -31 -7 -82l-96 -676h-250l86 612
q6 37 6 68q0 83 -40.5 122.5t-128.5 39.5q-116 0 -195 -64.5t-94 -179.5l-84 -598h-250l147 1042h246l-22 -159q54 88 149 138t213 50z" />
    <glyph glyph-name="ograve" unicode="&#xf2;" horiz-adv-x="1280" 
d="M674 1202l-238 324h295l189 -324h-246zM575 -29q-223 0 -356 133.5t-133 337.5q0 131 55.5 258.5t153.5 217.5q80 72 186 112.5t226 40.5q149 0 261 -62.5t170 -168.5t58 -240q0 -137 -63 -273t-168 -223q-165 -133 -390 -133zM590 199q128 0 223 82q63 57 95 138.5
t32 164.5q0 121 -64 190.5t-182 69.5q-140 0 -239 -99q-54 -54 -82.5 -130.5t-28.5 -157.5q0 -119 64.5 -188.5t181.5 -69.5z" />
    <glyph glyph-name="oacute" unicode="&#xf3;" horiz-adv-x="1280" 
d="M557 1202l274 324h302l-326 -324h-250zM575 -29q-223 0 -356 133.5t-133 337.5q0 131 55.5 258.5t153.5 217.5q80 72 186 112.5t226 40.5q149 0 261 -62.5t170 -168.5t58 -240q0 -137 -63 -273t-168 -223q-165 -133 -390 -133zM590 199q128 0 223 82q63 57 95 138.5
t32 164.5q0 121 -64 190.5t-182 69.5q-140 0 -239 -99q-54 -54 -82.5 -130.5t-28.5 -157.5q0 -119 64.5 -188.5t181.5 -69.5z" />
    <glyph glyph-name="ocircumflex" unicode="&#xf4;" horiz-adv-x="1280" 
d="M770 1384l-182 -182h-260l334 324h241l244 -324h-242zM707 1071q149 0 261 -62.5t170 -168.5t58 -240q0 -137 -63 -273t-168 -223q-165 -133 -390 -133q-223 0 -356 133.5t-133 337.5q0 131 55.5 258.5t153.5 217.5q80 72 186 112.5t226 40.5zM813 281q63 57 95 138.5
t32 164.5q0 121 -64 190.5t-182 69.5q-140 0 -239 -99q-54 -54 -82.5 -130.5t-28.5 -157.5q0 -119 64.5 -188.5t181.5 -69.5q128 0 223 82z" />
    <glyph glyph-name="otilde" unicode="&#xf5;" horiz-adv-x="1280" 
d="M897 1208q-79 0 -168 74q-59 45 -96 45q-63 0 -74 -108h-180q15 145 78 221t166 76q45 0 83.5 -18t84.5 -56q58 -45 96 -45q63 0 74 108h180q-15 -145 -78 -221t-166 -76zM575 -29q-223 0 -356 133.5t-133 337.5q0 131 55.5 258.5t153.5 217.5q80 72 186 112.5t226 40.5
q149 0 261 -62.5t170 -168.5t58 -240q0 -137 -63 -273t-168 -223q-165 -133 -390 -133zM590 199q128 0 223 82q63 57 95 138.5t32 164.5q0 121 -64 190.5t-182 69.5q-140 0 -239 -99q-54 -54 -82.5 -130.5t-28.5 -157.5q0 -119 64.5 -188.5t181.5 -69.5z" />
    <glyph glyph-name="odieresis" unicode="&#xf6;" horiz-adv-x="1280" 
d="M506 1217q-64 0 -101.5 36t-37.5 95q0 76 51 128t127 52q64 0 101.5 -36t37.5 -95q0 -74 -52 -127t-126 -53zM977 1217q-64 0 -101.5 36t-37.5 95q0 75 52 127.5t128 52.5q63 0 100 -36t37 -95q0 -74 -51 -127t-127 -53zM575 -29q-223 0 -356 133.5t-133 337.5
q0 131 55.5 258.5t153.5 217.5q80 72 186 112.5t226 40.5q149 0 261 -62.5t170 -168.5t58 -240q0 -137 -63 -273t-168 -223q-165 -133 -390 -133zM590 199q128 0 223 82q63 57 95 138.5t32 164.5q0 121 -64 190.5t-182 69.5q-140 0 -239 -99q-54 -54 -82.5 -130.5
t-28.5 -157.5q0 -119 64.5 -188.5t181.5 -69.5z" />
    <glyph glyph-name="divide" unicode="&#xf7;" 
d="M782 885q-65 0 -103 34.5t-38 92.5q0 72 50 120t124 48q64 0 102.5 -35t38.5 -92q0 -72 -50 -120t-124 -48zM270 539l31 221h920l-31 -221h-920zM676 119q-66 0 -103.5 35t-37.5 94q0 70 50 118t124 48q64 0 101.5 -35t37.5 -92q0 -73 -49 -120.5t-123 -47.5z" />
    <glyph glyph-name="oslash" unicode="&#xf8;" horiz-adv-x="1286" 
d="M1284 975l-147 -131q61 -104 61 -244q0 -137 -63 -273t-168 -223q-165 -133 -389 -133q-194 0 -322 103l-143 -129l-109 123l146 131q-62 111 -62 243q0 131 55.5 258.5t153.5 217.5q80 72 186 112.5t226 40.5q194 0 321 -102l144 129zM453 752q-55 -55 -85 -134.5
t-30 -160.5q0 -58 14 -101l506 449q-61 49 -160 49q-146 0 -245 -102zM819 274q65 58 98 142.5t33 169.5q0 54 -12 100l-508 -448q59 -50 160 -50q134 0 229 86z" />
    <glyph glyph-name="ugrave" unicode="&#xf9;" horiz-adv-x="1241" 
d="M895 1202h-246l-237 324h295zM909 1042h250l-147 -1042h-246l22 160q-57 -88 -154.5 -138.5t-215.5 -50.5q-146 0 -222.5 78t-76.5 225q0 44 6 91l96 677h250l-88 -614q-6 -43 -6 -80q0 -78 35 -113.5t116 -35.5q113 0 196.5 67.5t100.5 175.5z" />
    <glyph glyph-name="uacute" unicode="&#xfa;" horiz-adv-x="1241" 
d="M1110 1526l-326 -324h-249l274 324h301zM909 1042h250l-147 -1042h-246l22 160q-57 -88 -154.5 -138.5t-215.5 -50.5q-146 0 -222.5 78t-76.5 225q0 44 6 91l96 677h250l-88 -614q-6 -43 -6 -80q0 -78 35 -113.5t116 -35.5q113 0 196.5 67.5t100.5 175.5z" />
    <glyph glyph-name="ucircumflex" unicode="&#xfb;" horiz-adv-x="1241" 
d="M745 1384l-182 -182h-260l334 324h242l243 -324h-241zM909 1042h250l-147 -1042h-246l22 160q-57 -88 -154.5 -138.5t-215.5 -50.5q-146 0 -222.5 78t-76.5 225q0 44 6 91l96 677h250l-88 -614q-6 -43 -6 -80q0 -78 35 -113.5t116 -35.5q113 0 196.5 67.5t100.5 175.5z
" />
    <glyph glyph-name="udieresis" unicode="&#xfc;" horiz-adv-x="1241" 
d="M481 1217q-64 0 -101.5 36t-37.5 95q0 76 51 128t127 52q64 0 101.5 -36t37.5 -95q0 -74 -52 -127t-126 -53zM952 1217q-64 0 -101.5 36t-37.5 95q0 75 52 127.5t128 52.5q63 0 100 -36t37 -95q0 -74 -51 -127t-127 -53zM909 1042h250l-147 -1042h-246l22 160
q-57 -88 -154.5 -138.5t-215.5 -50.5q-146 0 -222.5 78t-76.5 225q0 44 6 91l96 677h250l-88 -614q-6 -43 -6 -80q0 -78 35 -113.5t116 -35.5q113 0 196.5 67.5t100.5 175.5z" />
    <glyph glyph-name="yacute" unicode="&#xfd;" horiz-adv-x="1132" 
d="M1061 1526l-326 -324h-250l275 324h301zM911 1042h271l-766 -1450h-248l205 410l-271 1040h260l175 -766z" />
    <glyph glyph-name="thorn" unicode="&#xfe;" horiz-adv-x="1327" 
d="M825 1071q185 0 301.5 -127.5t116.5 -333.5q0 -143 -56.5 -279.5t-158.5 -228.5q-143 -131 -338 -131q-121 0 -211 53t-125 146l-80 -580h-249l268 1909h250l-86 -614q56 88 154.5 137t213.5 49zM868 293q57 57 88 137t31 164q0 117 -60.5 183.5t-176.5 66.5
q-156 0 -256 -111q-51 -55 -78 -129.5t-27 -150.5q0 -118 64 -186t180 -68q138 0 235 94z" />
    <glyph glyph-name="ydieresis" unicode="&#xff;" horiz-adv-x="1132" 
d="M434 1217q-64 0 -101.5 36t-37.5 95q0 76 51 128t127 52q64 0 101.5 -36t37.5 -95q0 -74 -52 -127t-126 -53zM905 1217q-64 0 -101.5 36t-37.5 95q0 75 52 127.5t128 52.5q63 0 100 -36t37 -95q0 -74 -51 -127t-127 -53zM911 1042h271l-766 -1450h-248l205 410l-271 1040
h260l175 -766z" />
    <glyph glyph-name="Amacron" unicode="&#x100;" horiz-adv-x="1486" 
d="M1253 1823l-26 -197h-660l27 197h659zM1116 0l-80 340h-624l-176 -340h-279l766 1434h297l362 -1434h-266zM526 563h459l-143 615z" />
    <glyph glyph-name="amacron" unicode="&#x101;" horiz-adv-x="1329" 
d="M1149 1432l-27 -197h-659l26 197h660zM1001 1042h246l-147 -1042h-246l20 158q-56 -88 -154.5 -137.5t-213.5 -49.5q-189 0 -304.5 128t-115.5 339q0 141 53.5 273t147.5 219q147 141 350 141q124 0 216 -55.5t124 -151.5zM825 297q54 52 83.5 131t29.5 160
q0 118 -66 187t-182 69q-136 0 -229 -90q-58 -57 -87.5 -138t-29.5 -161q0 -118 64 -187t180 -69q139 0 237 98z" />
    <glyph glyph-name="Abreve" unicode="&#x102;" horiz-adv-x="1486" 
d="M899 1579q-145 0 -227 66t-82 182q0 26 6 63h203q-2 -12 -2 -37q0 -110 110 -110q65 0 108.5 38.5t53.5 108.5h205l-2 -16q-21 -137 -119 -216t-254 -79zM1116 0l-80 340h-624l-176 -340h-279l766 1434h297l362 -1434h-266zM526 563h459l-143 615z" />
    <glyph glyph-name="abreve" unicode="&#x103;" horiz-adv-x="1329" 
d="M795 1188q-145 0 -227.5 66t-82.5 182q0 19 7 63h202q-2 -12 -2 -37q0 -110 111 -110q65 0 108.5 38.5t53.5 108.5h204l-2 -16q-21 -137 -118.5 -216t-253.5 -79zM1001 1042h246l-147 -1042h-246l20 158q-56 -88 -154.5 -137.5t-213.5 -49.5q-189 0 -304.5 128
t-115.5 339q0 141 53.5 273t147.5 219q147 141 350 141q124 0 216 -55.5t124 -151.5zM825 297q54 52 83.5 131t29.5 160q0 118 -66 187t-182 69q-136 0 -229 -90q-58 -57 -87.5 -138t-29.5 -161q0 -118 64 -187t180 -69q139 0 237 98z" />
    <glyph glyph-name="Aogonek" unicode="&#x104;" horiz-adv-x="1486" 
d="M1178 -197q0 -55 100 -55h70l-27 -186h-111q-123 0 -191.5 46t-68.5 124t55.5 146.5t149.5 121.5h-39l-80 340h-624l-176 -340h-279l766 1434h297l362 -1434q-10 -7 -30.5 -21t-32 -22t-30 -21.5t-30 -23t-26 -22t-23 -22.5t-17 -21.5t-12 -22.5t-3.5 -21zM526 563h459
l-143 615z" />
    <glyph glyph-name="aogonek" unicode="&#x105;" horiz-adv-x="1329" 
d="M1102 0q-9 -6 -39 -27t-42 -29.5t-36.5 -27t-36 -30t-26 -27.5t-20 -29.5t-5.5 -26.5q0 -55 100 -55h70l-27 -186h-110q-123 0 -191.5 46t-68.5 124t55.5 146.5t148.5 121.5h-20l20 158q-56 -88 -154.5 -137.5t-213.5 -49.5q-189 0 -304.5 128t-115.5 339q0 141 53.5 273
t147.5 219q147 141 350 141q124 0 216 -55.5t124 -151.5l24 178h246l-147 -1040zM825 297q54 52 83.5 131t29.5 160q0 118 -66 187t-182 69q-136 0 -229 -90q-58 -57 -87.5 -138t-29.5 -161q0 -118 64 -187t180 -69q139 0 237 98z" />
    <glyph glyph-name="Cacute" unicode="&#x106;" horiz-adv-x="1527" 
d="M807 1593l274 324h301l-325 -324h-250zM762 -29q-144 0 -264 46.5t-201.5 129t-126.5 197.5t-45 250q0 208 93.5 397.5t258.5 311.5q221 159 498 159q210 0 363 -98t216 -285l-235 -118q-89 258 -369 258q-185 0 -332 -115q-106 -85 -163.5 -214.5t-57.5 -271.5
q0 -183 103.5 -293t287.5 -110q135 0 254.5 65t204.5 193l213 -119q-114 -186 -299 -284.5t-399 -98.5z" />
    <glyph glyph-name="cacute" unicode="&#x107;" horiz-adv-x="1138" 
d="M547 1202l274 324h301l-325 -324h-250zM547 -29q-210 0 -335.5 128.5t-125.5 336.5q0 143 57.5 274.5t161.5 219.5q166 141 397 141q160 0 274 -76.5t154 -212.5l-221 -114q-60 174 -225 174q-133 0 -227 -88q-54 -54 -84.5 -135.5t-30.5 -161.5q0 -119 67.5 -188.5
t182.5 -69.5q169 0 276 176l191 -115q-77 -137 -214 -213t-298 -76z" />
    <glyph glyph-name="Ccircumflex" unicode="&#x108;" horiz-adv-x="1527" 
d="M1020 1776l-182 -183h-260l333 324h242l244 -324h-242zM788 215q135 0 254.5 65t204.5 193l213 -119q-114 -186 -299 -284.5t-399 -98.5q-144 0 -264 46.5t-201.5 129t-126.5 197.5t-45 250q0 208 93.5 397.5t258.5 311.5q221 159 498 159q210 0 363 -98t216 -285
l-235 -118q-89 258 -369 258q-185 0 -332 -115q-106 -85 -163.5 -214.5t-57.5 -271.5q0 -183 103.5 -293t287.5 -110z" />
    <glyph glyph-name="ccircumflex" unicode="&#x109;" horiz-adv-x="1138" 
d="M760 1384l-182 -182h-261l334 324h242l244 -324h-242zM684 842q-133 0 -227 -88q-54 -54 -84.5 -135.5t-30.5 -161.5q0 -119 67.5 -188.5t182.5 -69.5q169 0 276 176l191 -115q-77 -137 -214 -213t-298 -76q-210 0 -335.5 128.5t-125.5 336.5q0 143 57.5 274.5
t161.5 219.5q166 141 397 141q160 0 274 -76.5t154 -212.5l-221 -114q-60 174 -225 174z" />
    <glyph glyph-name="Cdotaccent" unicode="&#x10a;" horiz-adv-x="1527" 
d="M991 1608q-65 0 -103 35.5t-38 93.5q0 77 51.5 129.5t128.5 52.5q65 0 103 -36t38 -95q0 -76 -51.5 -128t-128.5 -52zM762 -29q-144 0 -264 46.5t-201.5 129t-126.5 197.5t-45 250q0 208 93.5 397.5t258.5 311.5q221 159 498 159q210 0 363 -98t216 -285l-235 -118
q-89 258 -369 258q-185 0 -332 -115q-106 -85 -163.5 -214.5t-57.5 -271.5q0 -183 103.5 -293t287.5 -110q135 0 254.5 65t204.5 193l213 -119q-114 -186 -299 -284.5t-399 -98.5z" />
    <glyph glyph-name="cdotaccent" unicode="&#x10b;" horiz-adv-x="1138" 
d="M731 1217q-65 0 -103 35.5t-38 93.5q0 77 51.5 129.5t128.5 52.5q65 0 103 -36t38 -95q0 -76 -51.5 -128t-128.5 -52zM547 -29q-210 0 -335.5 128.5t-125.5 336.5q0 143 57.5 274.5t161.5 219.5q166 141 397 141q160 0 274 -76.5t154 -212.5l-221 -114q-60 174 -225 174
q-133 0 -227 -88q-54 -54 -84.5 -135.5t-30.5 -161.5q0 -119 67.5 -188.5t182.5 -69.5q169 0 276 176l191 -115q-77 -137 -214 -213t-298 -76z" />
    <glyph glyph-name="Ccaron" unicode="&#x10c;" horiz-adv-x="1527" 
d="M1108 1593h-242l-243 324h243l133 -182l183 182h260zM788 215q135 0 254.5 65t204.5 193l213 -119q-114 -186 -299 -284.5t-399 -98.5q-144 0 -264 46.5t-201.5 129t-126.5 197.5t-45 250q0 208 93.5 397.5t258.5 311.5q221 159 498 159q210 0 363 -98t216 -285
l-235 -118q-89 258 -369 258q-185 0 -332 -115q-106 -85 -163.5 -214.5t-57.5 -271.5q0 -183 103.5 -293t287.5 -110z" />
    <glyph glyph-name="ccaron" unicode="&#x10d;" horiz-adv-x="1138" 
d="M848 1202h-242l-244 324h244l133 -183l183 183h260zM684 842q-133 0 -227 -88q-54 -54 -84.5 -135.5t-30.5 -161.5q0 -119 67.5 -188.5t182.5 -69.5q169 0 276 176l191 -115q-77 -137 -214 -213t-298 -76q-210 0 -335.5 128.5t-125.5 336.5q0 143 57.5 274.5t161.5 219.5
q166 141 397 141q160 0 274 -76.5t154 -212.5l-221 -114q-60 174 -225 174z" />
    <glyph glyph-name="Dcaron" unicode="&#x10e;" horiz-adv-x="1538" 
d="M956 1593h-241l-244 324h244l133 -182l182 182h260zM848 1434q280 0 449 -157t169 -431q0 -183 -67 -356.5t-191 -288.5q-213 -201 -549 -201h-553l201 1434h541zM1044 389q74 79 112 199.5t38 242.5q0 361 -373 361h-286l-134 -950h277q231 0 366 147z" />
    <glyph glyph-name="dcaron" unicode="&#x10f;" horiz-adv-x="1476" 
d="M973 870l86 629h250l-211 -1499h-246l25 166q-59 -91 -160 -143t-219 -52q-185 0 -299.5 126.5t-114.5 330.5q0 145 56 285t159 231q146 127 338 127q119 0 209 -54t127 -147zM1456 1499h250l-115 -420h-192zM825 297q53 54 83 131t30 156q0 119 -67 189.5t-185 70.5
q-136 0 -229 -90q-57 -55 -86 -136.5t-29 -162.5q0 -119 62 -187.5t178 -68.5q142 0 243 98z" />
    <glyph glyph-name="Dcroat" unicode="&#x110;" horiz-adv-x="1587" 
d="M897 1434q280 0 449.5 -157.5t169.5 -430.5q0 -182 -67.5 -356t-191.5 -289q-213 -201 -548 -201h-553l86 612h-183l29 209h182l86 613h541zM1094 389q74 79 111.5 199t37.5 243q0 361 -373 361h-286l-52 -371h347l-31 -209h-346l-51 -370h276q232 0 367 147z" />
    <glyph glyph-name="dcroat" unicode="&#x111;" horiz-adv-x="1327" 
d="M1450 1350l-27 -174h-157l-166 -1176h-246l23 164q-58 -91 -158 -142t-219 -51q-185 0 -300.5 126.5t-115.5 326.5q0 143 59 278t162 222q143 118 334 118q121 0 208.5 -50.5t121.5 -137.5l47 322h-340l26 174h338l21 149h250l-21 -149h160zM823 295q113 110 113 264
q0 116 -67 186t-187 70q-128 0 -219 -82q-59 -50 -90 -124t-31 -158q0 -116 60.5 -184t177.5 -68q140 0 243 96z" />
    <glyph glyph-name="Emacron" unicode="&#x112;" horiz-adv-x="1341" 
d="M1188 1823l-27 -197h-659l26 197h660zM1288 1198h-756l-49 -358h711l-35 -234h-708l-52 -370h777l-35 -236h-1035l201 1434h1016z" />
    <glyph glyph-name="emacron" unicode="&#x113;" horiz-adv-x="1210" 
d="M1079 1432l-26 -197h-660l27 197h659zM1135 633q0 -89 -27 -187h-776q0 -127 67 -192.5t195 -65.5q183 0 317 131l129 -147q-179 -201 -465 -201q-225 0 -358 124.5t-133 334.5q0 143 55.5 278t157.5 224q161 139 389 139q202 0 325.5 -119t123.5 -319zM674 854
q-140 0 -232 -92q-55 -58 -84 -146h531q2 12 2 29q0 102 -55 155.5t-162 53.5z" />
    <glyph glyph-name="Ebreve" unicode="&#x114;" horiz-adv-x="1341" 
d="M834 1579q-145 0 -227.5 66t-82.5 182q0 26 6 63h203q-2 -12 -2 -37q0 -110 111 -110q65 0 108.5 38.5t53.5 108.5h204l-2 -16q-21 -137 -118.5 -216t-253.5 -79zM1288 1198h-756l-49 -358h711l-35 -234h-708l-52 -370h777l-35 -236h-1035l201 1434h1016z" />
    <glyph glyph-name="ebreve" unicode="&#x115;" horiz-adv-x="1210" 
d="M725 1188q-145 0 -227 66t-82 182q0 26 6 63h203q-2 -12 -2 -37q0 -110 110 -110q65 0 108.5 38.5t53.5 108.5h205l-2 -16q-21 -137 -119 -216t-254 -79zM1135 633q0 -89 -27 -187h-776q0 -127 67 -192.5t195 -65.5q183 0 317 131l129 -147q-179 -201 -465 -201
q-225 0 -358 124.5t-133 334.5q0 143 55.5 278t157.5 224q161 139 389 139q202 0 325.5 -119t123.5 -319zM674 854q-140 0 -232 -92q-55 -58 -84 -146h531q2 12 2 29q0 102 -55 155.5t-162 53.5z" />
    <glyph glyph-name="Edotaccent" unicode="&#x116;" horiz-adv-x="1341" 
d="M831 1608q-65 0 -103 35.5t-38 93.5q0 77 51.5 129.5t128.5 52.5q65 0 103.5 -36t38.5 -95q0 -76 -52 -128t-129 -52zM1288 1198h-756l-49 -358h711l-35 -234h-708l-52 -370h777l-35 -236h-1035l201 1434h1016z" />
    <glyph glyph-name="edotaccent" unicode="&#x117;" horiz-adv-x="1210" 
d="M723 1217q-65 0 -103 35.5t-38 93.5q0 77 51.5 129.5t128.5 52.5q65 0 103 -36t38 -95q0 -76 -51.5 -128t-128.5 -52zM1135 633q0 -89 -27 -187h-776q0 -127 67 -192.5t195 -65.5q183 0 317 131l129 -147q-179 -201 -465 -201q-225 0 -358 124.5t-133 334.5
q0 143 55.5 278t157.5 224q161 139 389 139q202 0 325.5 -119t123.5 -319zM674 854q-140 0 -232 -92q-55 -58 -84 -146h531q2 12 2 29q0 102 -55 155.5t-162 53.5z" />
    <glyph glyph-name="Eogonek" unicode="&#x118;" horiz-adv-x="1341" 
d="M1288 1198h-756l-49 -358h711l-35 -234h-708l-52 -370h777l-35 -234l2 -2q-9 -6 -39 -27t-42 -29.5t-36.5 -27t-36 -30t-26 -27.5t-20 -29.5t-5.5 -26.5q0 -55 100 -55h70l-27 -186h-110q-123 0 -191.5 46t-68.5 124t55.5 146.5t148.5 121.5h-809l201 1434h1016z" />
    <glyph glyph-name="eogonek" unicode="&#x119;" horiz-adv-x="1210" 
d="M1135 633q0 -89 -27 -187h-776q0 -127 67 -192.5t195 -65.5q183 0 317 131l129 -147q-78 -87 -182 -139q-9 -6 -39 -27t-42 -29.5t-36.5 -27t-36 -30t-26 -27.5t-20 -29.5t-5.5 -26.5q0 -55 101 -55h69l-26 -187h-111q-123 0 -191.5 46t-68.5 124q0 114 117 207
q-211 11 -335 134t-124 325q0 143 55.5 278t157.5 224q161 139 389 139q202 0 325.5 -119t123.5 -319zM674 854q-140 0 -232 -92q-55 -58 -84 -146h531q2 12 2 29q0 102 -55 155.5t-162 53.5z" />
    <glyph glyph-name="Ecaron" unicode="&#x11a;" horiz-adv-x="1341" 
d="M948 1593h-241l-244 324h244l133 -182l182 182h260zM1288 1198h-756l-49 -358h711l-35 -234h-708l-52 -370h777l-35 -236h-1035l201 1434h1016z" />
    <glyph glyph-name="ecaron" unicode="&#x11b;" horiz-adv-x="1210" 
d="M840 1202h-242l-244 324h244l133 -183l182 183h261zM686 1071q202 0 325.5 -119t123.5 -319q0 -89 -27 -187h-776q0 -127 67 -192.5t195 -65.5q183 0 317 131l129 -147q-179 -201 -465 -201q-225 0 -358 124.5t-133 334.5q0 143 55.5 278t157.5 224q161 139 389 139z
M674 854q-140 0 -232 -92q-55 -58 -84 -146h531q2 12 2 29q0 102 -55 155.5t-162 53.5z" />
    <glyph glyph-name="Gcircumflex" unicode="&#x11c;" horiz-adv-x="1581" 
d="M1016 1776l-182 -183h-261l334 324h242l244 -324h-242zM893 578l31 223h577l-84 -594q-98 -110 -259.5 -173t-350.5 -63q-317 0 -498.5 173t-181.5 456q0 181 71.5 353.5t198.5 291.5q110 104 255.5 160.5t310.5 56.5q192 0 335.5 -73t217.5 -205l-220 -146
q-103 181 -344 181q-234 0 -385 -160q-84 -86 -127 -206t-43 -243q0 -190 111.5 -294.5t320.5 -104.5q104 0 198 27t161 73l37 267h-332z" />
    <glyph glyph-name="gcircumflex" unicode="&#x11d;" horiz-adv-x="1329" 
d="M799 1384l-183 -182h-260l334 324h242l244 -324h-242zM1001 1042h246l-131 -925q-37 -268 -196 -412.5t-431 -144.5q-148 0 -273 46t-198 124l136 178q135 -123 329 -123q164 0 264 85t125 247l13 90q-56 -92 -154.5 -144.5t-220.5 -52.5q-187 0 -304.5 123t-117.5 320
q0 139 55 271.5t152 217.5q151 129 342 129q121 0 213 -53.5t127 -147.5zM827 326q115 112 115 272q0 113 -65 180.5t-183 67.5q-139 0 -235 -90q-56 -53 -84.5 -128t-28.5 -151q0 -112 62 -179t178 -67q136 0 241 95z" />
    <glyph glyph-name="Gbreve" unicode="&#x11e;" horiz-adv-x="1581" 
d="M989 1579q-145 0 -227 66t-82 182q0 26 6 63h203q-2 -12 -2 -37q0 -110 110 -110q65 0 108.5 38.5t53.5 108.5h205l-2 -16q-21 -137 -119 -216t-254 -79zM893 578l31 223h577l-84 -594q-98 -110 -259.5 -173t-350.5 -63q-317 0 -498.5 173t-181.5 456q0 181 71.5 353.5
t198.5 291.5q110 104 255.5 160.5t310.5 56.5q192 0 335.5 -73t217.5 -205l-220 -146q-103 181 -344 181q-234 0 -385 -160q-84 -86 -127 -206t-43 -243q0 -190 111.5 -294.5t320.5 -104.5q104 0 198 27t161 73l37 267h-332z" />
    <glyph glyph-name="gbreve" unicode="&#x11f;" horiz-adv-x="1329" 
d="M772 1188q-145 0 -227 66t-82 182q0 26 6 63h203q-2 -12 -2 -37q0 -110 110 -110q65 0 108.5 38.5t53.5 108.5h205l-2 -16q-21 -137 -119 -216t-254 -79zM1001 1042h246l-131 -925q-37 -268 -196 -412.5t-431 -144.5q-148 0 -273 46t-198 124l136 178q135 -123 329 -123
q164 0 264 85t125 247l13 90q-56 -92 -154.5 -144.5t-220.5 -52.5q-187 0 -304.5 123t-117.5 320q0 139 55 271.5t152 217.5q151 129 342 129q121 0 213 -53.5t127 -147.5zM827 326q115 112 115 272q0 113 -65 180.5t-183 67.5q-139 0 -235 -90q-56 -53 -84.5 -128
t-28.5 -151q0 -112 62 -179t178 -67q136 0 241 95z" />
    <glyph glyph-name="Gdotaccent" unicode="&#x120;" horiz-adv-x="1581" 
d="M987 1608q-65 0 -103 35.5t-38 93.5q0 77 51.5 129.5t128.5 52.5q65 0 103 -36t38 -95q0 -76 -51.5 -128t-128.5 -52zM893 578l31 223h577l-84 -594q-98 -110 -259.5 -173t-350.5 -63q-317 0 -498.5 173t-181.5 456q0 181 71.5 353.5t198.5 291.5q110 104 255.5 160.5
t310.5 56.5q192 0 335.5 -73t217.5 -205l-220 -146q-103 181 -344 181q-234 0 -385 -160q-84 -86 -127 -206t-43 -243q0 -190 111.5 -294.5t320.5 -104.5q104 0 198 27t161 73l37 267h-332z" />
    <glyph glyph-name="gdotaccent" unicode="&#x121;" horiz-adv-x="1329" 
d="M770 1217q-65 0 -103 35.5t-38 93.5q0 77 51.5 129.5t128.5 52.5q65 0 103 -36t38 -95q0 -76 -51.5 -128t-128.5 -52zM1001 1042h246l-131 -925q-37 -268 -196 -412.5t-431 -144.5q-148 0 -273 46t-198 124l136 178q135 -123 329 -123q164 0 264 85t125 247l13 90
q-56 -92 -154.5 -144.5t-220.5 -52.5q-187 0 -304.5 123t-117.5 320q0 139 55 271.5t152 217.5q151 129 342 129q121 0 213 -53.5t127 -147.5zM827 326q115 112 115 272q0 113 -65 180.5t-183 67.5q-139 0 -235 -90q-56 -53 -84.5 -128t-28.5 -151q0 -112 62 -179t178 -67
q136 0 241 95z" />
    <glyph glyph-name="uni0122" unicode="&#x122;" horiz-adv-x="1581" 
d="M893 578l31 223h577l-84 -594q-98 -110 -259.5 -173t-350.5 -63q-317 0 -498.5 173t-181.5 456q0 181 71.5 353.5t198.5 291.5q110 104 255.5 160.5t310.5 56.5q192 0 335.5 -73t217.5 -205l-220 -146q-103 181 -344 181q-234 0 -385 -160q-84 -86 -127 -206t-43 -243
q0 -190 111.5 -294.5t320.5 -104.5q104 0 198 27t161 73l37 267h-332zM516 -530l121 356h252l-180 -356h-193z" />
    <glyph glyph-name="uni0123" unicode="&#x123;" horiz-adv-x="1329" 
d="M1014 1573l-121 -356h-252l180 356h193zM1001 1042h246l-131 -925q-37 -268 -196 -412.5t-431 -144.5q-148 0 -273 46t-198 124l136 178q135 -123 329 -123q164 0 264 85t125 247l13 90q-56 -92 -154.5 -144.5t-220.5 -52.5q-187 0 -304.5 123t-117.5 320q0 139 55 271.5
t152 217.5q151 129 342 129q121 0 213 -53.5t127 -147.5zM827 326q115 112 115 272q0 113 -65 180.5t-183 67.5q-139 0 -235 -90q-56 -53 -84.5 -128t-28.5 -151q0 -112 62 -179t178 -67q136 0 241 95z" />
    <glyph glyph-name="Hcircumflex" unicode="&#x124;" horiz-adv-x="1576" 
d="M973 1776l-182 -183h-261l334 324h242l244 -324h-242zM1266 1434h260l-201 -1434h-260l86 612h-698l-86 -612h-261l201 1434h260l-82 -580h699z" />
    <glyph glyph-name="hcircumflex" unicode="&#x125;" horiz-adv-x="1251" 
d="M473 1841l-182 -182h-260l334 323h241l244 -323h-242zM817 1071q150 0 234 -81.5t84 -229.5q0 -33 -7 -84l-96 -676h-250l86 612q6 37 6 68q0 83 -40.5 122.5t-128.5 39.5q-116 0 -195 -64.5t-94 -179.5l-84 -598h-250l211 1499h250l-86 -608q58 86 151 133t209 47z" />
    <glyph glyph-name="Hbar" unicode="&#x126;" horiz-adv-x="1611" 
d="M1663 1239l-27 -190h-147l-148 -1049h-260l86 612h-698l-86 -612h-260l147 1049h-145l27 190h145l27 195h260l-27 -195h700l27 195h258l-26 -195h147zM1202 854l27 195h-699l-28 -195h700z" />
    <glyph glyph-name="hbar" unicode="&#x127;" horiz-adv-x="1251" 
d="M811 1042q150 0 234.5 -81.5t84.5 -229.5q0 -41 -6 -84l-92 -647h-250l82 584q6 38 6 67q0 83 -42 122.5t-130 39.5q-116 0 -193.5 -64.5t-92.5 -179.5l-80 -569h-250l166 1176h-162l25 174h161l21 149h250l-21 -149h338l-26 -174h-336l-45 -314q56 85 149 132.5
t209 47.5z" />
    <glyph glyph-name="Itilde" unicode="&#x128;" horiz-adv-x="626" 
d="M625 1599q-79 0 -168 74q-59 45 -97 45q-62 0 -73 -108h-181q15 145 78 221t166 76q45 0 83.5 -18t84.5 -56q58 -45 96 -45q63 0 74 108h180q-15 -146 -77.5 -221.5t-165.5 -75.5zM111 0l200 1434h260l-200 -1434h-260z" />
    <glyph glyph-name="itilde" unicode="&#x129;" horiz-adv-x="563" 
d="M539 1208q-75 0 -164 74q-56 45 -96 45q-22 0 -37 -23t-23 -85h-164q36 297 209 297q70 0 160 -74q55 -45 96 -45q24 0 39 23t25 85h159q-39 -297 -204 -297zM84 0l147 1042h250l-147 -1042h-250z" />
    <glyph glyph-name="Imacron" unicode="&#x12a;" horiz-adv-x="626" 
d="M139 1626l27 197h659l-26 -197h-660zM111 0l200 1434h260l-200 -1434h-260z" />
    <glyph glyph-name="imacron" unicode="&#x12b;" horiz-adv-x="563" 
d="M106 1235l27 197h555l-26 -197h-556zM84 0l147 1042h250l-147 -1042h-250z" />
    <glyph glyph-name="Ibreve" unicode="&#x12c;" horiz-adv-x="626" 
d="M471 1579q-145 0 -227 66t-82 182q0 26 6 63h203q-2 -12 -2 -37q0 -110 110 -110q65 0 108.5 38.5t53.5 108.5h205l-2 -16q-21 -137 -119 -216t-254 -79zM111 0l200 1434h260l-200 -1434h-260z" />
    <glyph glyph-name="ibreve" unicode="&#x12d;" horiz-adv-x="563" 
d="M383 1188q-131 0 -208 66t-77 180q0 24 8 65h191q-4 -28 -4 -43q0 -104 102 -104q63 0 101 37.5t49 109.5h190q-17 -151 -110 -231t-242 -80zM84 0l147 1042h250l-147 -1042h-250z" />
    <glyph glyph-name="Iogonek" unicode="&#x12e;" horiz-adv-x="626" 
d="M371 0q-9 -6 -39 -27t-42 -29.5t-36.5 -27t-36 -30t-26 -27.5t-20 -29.5t-5.5 -26.5q0 -55 100 -55h70l-27 -186h-110q-123 0 -191.5 46t-68.5 124t55.5 146.5t148.5 121.5h-32l200 1434h260z" />
    <glyph glyph-name="iogonek" unicode="&#x12f;" horiz-adv-x="563" 
d="M422 1528q65 0 103 -36t38 -95q0 -76 -51.5 -128t-128.5 -52q-65 0 -103 35.5t-38 93.5q0 77 51.5 129.5t128.5 52.5zM84 0l147 1042h250l-147 -1042q-9 -6 -39 -27t-42 -29.5t-36.5 -27t-36 -30t-26 -27.5t-20 -29.5t-5.5 -26.5q0 -55 100 -55h70l-27 -186h-110
q-123 0 -191.5 46t-68.5 124t55.5 146.5t148.5 121.5h-22z" />
    <glyph glyph-name="Idotaccent" unicode="&#x130;" horiz-adv-x="626" 
d="M469 1608q-65 0 -103 35.5t-38 93.5q0 77 51.5 129.5t128.5 52.5q65 0 103 -36t38 -95q0 -76 -51.5 -128t-128.5 -52zM111 0l200 1434h260l-200 -1434h-260z" />
    <glyph glyph-name="dotlessi" unicode="&#x131;" horiz-adv-x="563" 
d="M84 0l147 1042h250l-147 -1042h-250z" />
    <glyph glyph-name="Jcircumflex" unicode="&#x134;" horiz-adv-x="1189" 
d="M1217 1917l243 -324h-241l-136 183l-182 -183h-260l334 324h242zM774 543l125 891h260l-129 -926q-37 -256 -191 -396.5t-399 -140.5q-148 0 -263.5 54t-184.5 151l170 176q107 -133 274 -133q134 0 225.5 85t112.5 239z" />
    <glyph glyph-name="jcircumflex" unicode="&#x135;" horiz-adv-x="563" 
d="M541 1526l194 -324h-227l-100 189l-150 -189h-233l282 324h234zM74 -74l157 1116h250l-164 -1157q-22 -161 -117.5 -243t-275.5 -82q-71 0 -137 14l31 217q58 -10 92 -10q78 0 115.5 35t48.5 110z" />
    <glyph glyph-name="uni0136" unicode="&#x136;" horiz-adv-x="1439" 
d="M1530 1434l-664 -621l486 -813h-314l-372 627l-244 -230l-55 -397h-261l201 1434h260l-94 -676l723 676h334zM397 -530l121 356h252l-180 -356h-193z" />
    <glyph glyph-name="uni0137" unicode="&#x137;" horiz-adv-x="1171" 
d="M1235 1040l-520 -452l383 -588h-287l-276 430l-162 -139l-41 -291h-250l211 1499h250l-127 -907l506 450zM262 -530l121 356h252l-180 -356h-193z" />
    <glyph glyph-name="Lacute" unicode="&#x139;" horiz-adv-x="1210" 
d="M856 1917l-326 -324h-249l274 324h301zM401 242h713l-35 -242h-973l201 1434h260z" />
    <glyph glyph-name="lacute" unicode="&#x13a;" horiz-adv-x="559" 
d="M260 1659l275 323h301l-326 -323h-250zM82 0l211 1499h250l-211 -1499h-250z" />
    <glyph glyph-name="uni013B" unicode="&#x13b;" horiz-adv-x="1210" 
d="M401 242h713l-35 -242h-973l201 1434h260zM301 -530l121 356h252l-180 -356h-193z" />
    <glyph glyph-name="uni013C" unicode="&#x13c;" horiz-adv-x="559" 
d="M82 0l211 1499h250l-211 -1499h-250zM-63 -530l120 356h252l-180 -356h-192z" />
    <glyph glyph-name="Lcaron" unicode="&#x13d;" horiz-adv-x="1210" 
d="M1077 1462l-116 -420h-191l57 420h250zM401 242h713l-35 -242h-973l201 1434h260z" />
    <glyph glyph-name="lcaron" unicode="&#x13e;" horiz-adv-x="729" 
d="M82 0l211 1499h250l-211 -1499h-250zM631 1079l57 420h250l-117 -420h-190z" />
    <glyph glyph-name="Ldot" unicode="&#x13f;" horiz-adv-x="1222" 
d="M401 242h713l-35 -242h-973l201 1434h260zM852 571q-76 0 -118.5 44.5t-37.5 117.5q3 76 50 124t124 48q76 0 119.5 -44.5t38.5 -115.5q-3 -76 -51 -125t-125 -49z" />
    <glyph glyph-name="ldot" unicode="&#x140;" horiz-adv-x="894" 
d="M82 0l211 1499h250l-211 -1499h-250zM731 573q-76 0 -118.5 44.5t-37.5 117.5q3 76 51 124t126 48q76 0 118 -44t37 -115q-3 -78 -50.5 -126.5t-125.5 -48.5z" />
    <glyph glyph-name="Lslash" unicode="&#x141;" horiz-adv-x="1255" 
d="M446 242h713l-35 -242h-972l69 502l-223 -109l33 228l223 106l98 707h260l-80 -572l490 236l-35 -228l-485 -233z" />
    <glyph glyph-name="lslash" unicode="&#x142;" horiz-adv-x="710" 
d="M766 1085l-31 -215l-221 -112l-106 -758h-250l88 621l-223 -113l28 215l223 115l95 661h249l-73 -526z" />
    <glyph glyph-name="Nacute" unicode="&#x143;" horiz-adv-x="1613" 
d="M1354 1917l-326 -324h-250l275 324h301zM1307 1434h256l-203 -1434h-240l-616 1018l-142 -1018h-256l201 1434h242l614 -1022z" />
    <glyph glyph-name="nacute" unicode="&#x144;" horiz-adv-x="1251" 
d="M1122 1526l-325 -324h-250l274 324h301zM815 1071q152 0 236 -81.5t84 -231.5q0 -31 -7 -82l-96 -676h-250l86 612q6 37 6 68q0 83 -40.5 122.5t-128.5 39.5q-116 0 -195 -64.5t-94 -179.5l-84 -598h-250l147 1042h246l-22 -159q54 88 149 138t213 50z" />
    <glyph glyph-name="uni0145" unicode="&#x145;" horiz-adv-x="1613" 
d="M1307 1434h256l-203 -1434h-240l-616 1018l-142 -1018h-256l201 1434h242l614 -1022zM463 -530l121 356h252l-181 -356h-192z" />
    <glyph glyph-name="uni0146" unicode="&#x146;" horiz-adv-x="1251" 
d="M815 1071q152 0 236 -81.5t84 -231.5q0 -31 -7 -82l-96 -676h-250l86 612q6 37 6 68q0 83 -40.5 122.5t-128.5 39.5q-116 0 -195 -64.5t-94 -179.5l-84 -598h-250l147 1042h246l-22 -159q54 88 149 138t213 50zM283 -530l120 356h252l-180 -356h-192z" />
    <glyph glyph-name="Ncaron" unicode="&#x147;" horiz-adv-x="1613" 
d="M1079 1593h-241l-244 324h244l133 -182l182 182h260zM1307 1434h256l-203 -1434h-240l-616 1018l-142 -1018h-256l201 1434h242l614 -1022z" />
    <glyph glyph-name="ncaron" unicode="&#x148;" horiz-adv-x="1251" 
d="M848 1202h-242l-244 324h244l133 -183l183 183h260zM815 1071q152 0 236 -81.5t84 -231.5q0 -31 -7 -82l-96 -676h-250l86 612q6 37 6 68q0 83 -40.5 122.5t-128.5 39.5q-116 0 -195 -64.5t-94 -179.5l-84 -598h-250l147 1042h246l-22 -159q54 88 149 138t213 50z" />
    <glyph glyph-name="Eng" unicode="&#x14a;" horiz-adv-x="1613" 
d="M1307 1434h256l-215 -1518q-39 -287 -355 -287h-170l31 221h113q122 0 141 121l4 37l-606 1012l-144 -1020h-256l201 1434h242l614 -1020z" />
    <glyph glyph-name="eng" unicode="&#x14b;" horiz-adv-x="1251" 
d="M805 1071q154 0 241 -84.5t87 -236.5q0 -42 -9 -103l-98 -696q-22 -162 -117 -244t-276 -82q-69 0 -137 15l30 217q51 -11 92 -11q77 0 114.5 31.5t45.5 93.5l92 650q4 50 4 67q0 81 -37.5 117.5t-121.5 36.5q-119 0 -201.5 -67.5t-99.5 -182.5l-82 -592h-250l147 1042
h246l-20 -149q56 85 147 131.5t203 46.5z" />
    <glyph glyph-name="Omacron" unicode="&#x14c;" horiz-adv-x="1705" 
d="M678 1626l27 197h659l-27 -197h-659zM786 -29q-294 0 -476.5 178t-182.5 455q0 188 81.5 365t223.5 299q229 194 543 194q145 0 269 -49t209 -134t133 -202.5t48 -251.5q0 -177 -76 -349.5t-208 -293.5q-112 -101 -257 -156t-307 -55zM803 215q217 0 379 152
q87 84 133.5 201t46.5 241q0 184 -108 297t-296 113q-208 0 -366 -142q-92 -86 -142.5 -205.5t-50.5 -246.5q0 -184 108.5 -297t295.5 -113z" />
    <glyph glyph-name="omacron" unicode="&#x14d;" horiz-adv-x="1280" 
d="M412 1235l26 197h660l-27 -197h-659zM575 -29q-223 0 -356 133.5t-133 337.5q0 131 55.5 258.5t153.5 217.5q80 72 186 112.5t226 40.5q149 0 261 -62.5t170 -168.5t58 -240q0 -137 -63 -273t-168 -223q-165 -133 -390 -133zM590 199q128 0 223 82q63 57 95 138.5
t32 164.5q0 121 -64 190.5t-182 69.5q-140 0 -239 -99q-54 -54 -82.5 -130.5t-28.5 -157.5q0 -119 64.5 -188.5t181.5 -69.5z" />
    <glyph glyph-name="Obreve" unicode="&#x14e;" horiz-adv-x="1705" 
d="M1010 1579q-145 0 -227.5 66t-82.5 182q0 19 7 63h202q-2 -12 -2 -37q0 -110 111 -110q65 0 108.5 38.5t53.5 108.5h204l-2 -16q-21 -137 -118.5 -216t-253.5 -79zM786 -29q-294 0 -476.5 178t-182.5 455q0 188 81.5 365t223.5 299q229 194 543 194q145 0 269 -49
t209 -134t133 -202.5t48 -251.5q0 -177 -76 -349.5t-208 -293.5q-112 -101 -257 -156t-307 -55zM803 215q217 0 379 152q87 84 133.5 201t46.5 241q0 184 -108 297t-296 113q-208 0 -366 -142q-92 -86 -142.5 -205.5t-50.5 -246.5q0 -184 108.5 -297t295.5 -113z" />
    <glyph glyph-name="obreve" unicode="&#x14f;" horiz-adv-x="1280" 
d="M743 1188q-145 0 -227 66t-82 182q0 26 6 63h203q-2 -12 -2 -37q0 -110 111 -110q65 0 108 38.5t53 108.5h205l-2 -16q-21 -137 -119 -216t-254 -79zM575 -29q-223 0 -356 133.5t-133 337.5q0 131 55.5 258.5t153.5 217.5q80 72 186 112.5t226 40.5q149 0 261 -62.5
t170 -168.5t58 -240q0 -137 -63 -273t-168 -223q-165 -133 -390 -133zM590 199q128 0 223 82q63 57 95 138.5t32 164.5q0 121 -64 190.5t-182 69.5q-140 0 -239 -99q-54 -54 -82.5 -130.5t-28.5 -157.5q0 -119 64.5 -188.5t181.5 -69.5z" />
    <glyph glyph-name="Ohungarumlaut" unicode="&#x150;" horiz-adv-x="1705" 
d="M618 1593l277 324h256l-287 -324h-246zM1030 1593l277 324h258l-287 -324h-248zM786 -29q-294 0 -476.5 178t-182.5 455q0 188 81.5 365t223.5 299q229 194 543 194q145 0 269 -49t209 -134t133 -202.5t48 -251.5q0 -177 -76 -349.5t-208 -293.5q-112 -101 -257 -156
t-307 -55zM803 215q217 0 379 152q87 84 133.5 201t46.5 241q0 184 -108 297t-296 113q-208 0 -366 -142q-92 -86 -142.5 -205.5t-50.5 -246.5q0 -184 108.5 -297t295.5 -113z" />
    <glyph glyph-name="ohungarumlaut" unicode="&#x151;" horiz-adv-x="1280" 
d="M352 1202l277 324h256l-287 -324h-246zM764 1202l276 324h258l-286 -324h-248zM575 -29q-223 0 -356 133.5t-133 337.5q0 131 55.5 258.5t153.5 217.5q80 72 186 112.5t226 40.5q149 0 261 -62.5t170 -168.5t58 -240q0 -137 -63 -273t-168 -223q-165 -133 -390 -133z
M590 199q128 0 223 82q63 57 95 138.5t32 164.5q0 121 -64 190.5t-182 69.5q-140 0 -239 -99q-54 -54 -82.5 -130.5t-28.5 -157.5q0 -119 64.5 -188.5t181.5 -69.5z" />
    <glyph glyph-name="OE" unicode="&#x152;" horiz-adv-x="2250" 
d="M2200 1198h-758l-47 -358h710l-34 -234h-711l-49 -370h776l-35 -236h-1249q-316 0 -496 167.5t-180 442.5q0 175 68.5 336.5t193.5 274.5q240 213 600 213h1245zM827 240h224l133 954h-217q-254 0 -406 -158q-79 -77 -121.5 -191.5t-42.5 -228.5q0 -176 111 -276
t319 -100z" />
    <glyph glyph-name="oe" unicode="&#x153;" horiz-adv-x="2054" 
d="M1978 639q0 -91 -26 -193h-778q1 -125 71.5 -191.5t198.5 -66.5q179 0 313 131l131 -147q-75 -92 -196.5 -146.5t-272.5 -54.5q-149 0 -253.5 55t-157.5 156q-34 -46 -78 -84q-146 -127 -363 -127q-221 0 -351 132.5t-130 334.5q0 145 64 279.5t174 222.5
q160 131 381 131q142 0 241 -56.5t152 -156.5q33 45 65 74q149 139 367 139q204 0 326 -116t122 -316zM1516 854q-147 0 -236 -98q-52 -58 -80 -140h531q2 10 2 25q0 105 -55.5 159t-161.5 54zM819 287q58 55 88.5 133.5t30.5 163.5q0 119 -66 189.5t-184 70.5
q-127 0 -219 -82q-60 -54 -93.5 -136t-33.5 -167q0 -120 65.5 -190t184.5 -70q133 0 227 88z" />
    <glyph glyph-name="Racute" unicode="&#x154;" horiz-adv-x="1415" 
d="M1235 1917l-326 -324h-250l275 324h301zM1202 655q-118 -98 -301 -118l361 -537h-306l-342 530h-174l-75 -530h-259l201 1434h602q222 0 341.5 -99t119.5 -278q0 -115 -44 -225t-124 -177zM532 1196l-61 -436h334q157 0 223 69q68 71 68 201q0 86 -55 126t-177 40h-332z
" />
    <glyph glyph-name="racute" unicode="&#x155;" horiz-adv-x="849" 
d="M942 1526l-326 -324h-249l274 324h301zM449 866q51 91 139.5 143t195.5 52q50 0 88 -14l-32 -234q-65 10 -119 10q-274 0 -318 -309l-71 -514h-250l147 1042h246z" />
    <glyph glyph-name="uni0156" unicode="&#x156;" horiz-adv-x="1415" 
d="M1202 655q-118 -98 -301 -118l361 -537h-306l-342 530h-174l-75 -530h-259l201 1434h602q222 0 341.5 -99t119.5 -278q0 -115 -44 -225t-124 -177zM532 1196l-61 -436h334q157 0 223 69q68 71 68 201q0 86 -55 126t-177 40h-332zM369 -530l120 356h252l-180 -356h-192z
" />
    <glyph glyph-name="uni0157" unicode="&#x157;" horiz-adv-x="849" 
d="M784 1061q50 0 88 -14l-32 -234q-65 10 -119 10q-274 0 -318 -309l-71 -514h-250l147 1042h246l-26 -176q51 91 139.5 143t195.5 52zM-63 -530l120 356h252l-180 -356h-192z" />
    <glyph glyph-name="Rcaron" unicode="&#x158;" horiz-adv-x="1415" 
d="M961 1593h-242l-244 324h244l133 -182l182 182h260zM1202 655q-118 -98 -301 -118l361 -537h-306l-342 530h-174l-75 -530h-259l201 1434h602q222 0 341.5 -99t119.5 -278q0 -115 -44 -225t-124 -177zM532 1196l-61 -436h334q157 0 223 69q68 71 68 201q0 86 -55 126
t-177 40h-332z" />
    <glyph glyph-name="rcaron" unicode="&#x159;" horiz-adv-x="849" 
d="M668 1202h-242l-244 324h244l133 -183l182 183h260zM449 866q51 91 139.5 143t195.5 52q50 0 88 -14l-32 -234q-65 10 -119 10q-274 0 -318 -309l-71 -514h-250l147 1042h246z" />
    <glyph glyph-name="Sacute" unicode="&#x15a;" horiz-adv-x="1306" 
d="M625 1593l274 324h301l-326 -324h-249zM616 -29q-218 0 -369.5 86t-205.5 238l199 131q107 -221 387 -221q141 0 227 55q44 29 70 74t26 92q0 59 -45.5 98.5t-148.5 65.5l-224 55q-171 42 -261.5 136t-90.5 220q0 103 49.5 197t135.5 154q154 110 401 110
q191 0 328.5 -70t195.5 -192l-207 -137q-93 166 -329 166q-144 0 -230 -60q-75 -56 -75 -141q0 -56 46 -94.5t156 -65.5l226 -57q172 -42 257 -130.5t85 -215.5q0 -124 -59 -229t-165 -170q-158 -95 -379 -95z" />
    <glyph glyph-name="sacute" unicode="&#x15b;" horiz-adv-x="1056" 
d="M449 1202l274 324h301l-326 -324h-249zM483 -29q-153 0 -276 54t-182 145l151 158q51 -68 135.5 -106t184.5 -38q99 0 151 37q51 35 51 88q0 36 -30.5 60.5t-106.5 42.5l-158 37q-137 31 -203.5 99t-66.5 163q0 75 33.5 146t91.5 116q121 98 334 98q133 0 245 -44.5
t171 -121.5l-150 -162q-115 115 -283 115q-105 0 -151 -43q-37 -27 -37 -78q0 -30 29.5 -51.5t99.5 -38.5l168 -41q270 -62 270 -258q0 -83 -38.5 -160.5t-106.5 -126.5q-119 -90 -326 -90z" />
    <glyph glyph-name="Scircumflex" unicode="&#x15c;" horiz-adv-x="1306" 
d="M838 1776l-183 -183h-260l334 324h242l243 -324h-241zM877 811q172 -42 257 -130.5t85 -215.5q0 -124 -59 -229t-165 -170q-158 -95 -379 -95q-218 0 -369.5 86t-205.5 238l199 131q107 -221 387 -221q141 0 227 55q44 29 70 74t26 92q0 59 -45.5 98.5t-148.5 65.5
l-224 55q-171 42 -261.5 136t-90.5 220q0 103 49.5 197t135.5 154q154 110 401 110q191 0 328.5 -70t195.5 -192l-207 -137q-93 166 -329 166q-144 0 -230 -60q-75 -56 -75 -141q0 -56 46 -94.5t156 -65.5z" />
    <glyph glyph-name="scircumflex" unicode="&#x15d;" horiz-adv-x="1056" 
d="M659 1384l-182 -182h-260l334 324h242l243 -324h-241zM424 815q-37 -27 -37 -78q0 -30 29.5 -51.5t99.5 -38.5l168 -41q270 -62 270 -258q0 -83 -38.5 -160.5t-106.5 -126.5q-119 -90 -326 -90q-153 0 -276 54t-182 145l151 158q51 -68 135.5 -106t184.5 -38q99 0 151 37
q51 35 51 88q0 36 -30.5 60.5t-106.5 42.5l-158 37q-137 31 -203.5 99t-66.5 163q0 75 33.5 146t91.5 116q121 98 334 98q133 0 245 -44.5t171 -121.5l-150 -162q-115 115 -283 115q-105 0 -151 -43z" />
    <glyph glyph-name="Scedilla" unicode="&#x15e;" horiz-adv-x="1306" 
d="M877 811q172 -42 257 -130.5t85 -215.5q0 -124 -59 -229t-165 -170q-128 -77 -288 -91l-158 -376h-258l198 381q-170 23 -286 105t-162 210l199 131q107 -221 387 -221q141 0 227 55q44 29 70 74t26 92q0 59 -45.5 98.5t-148.5 65.5l-224 55q-171 42 -261.5 136
t-90.5 220q0 103 49.5 197t135.5 154q154 110 401 110q191 0 328.5 -70t195.5 -192l-207 -137q-93 166 -329 166q-144 0 -230 -60q-75 -56 -75 -141q0 -56 46 -94.5t156 -65.5z" />
    <glyph glyph-name="scedilla" unicode="&#x15f;" horiz-adv-x="1056" 
d="M684 606q270 -62 270 -258q0 -83 -38.5 -160.5t-106.5 -126.5q-92 -71 -244 -86l-155 -376h-258l198 385q-110 19 -195.5 67.5t-129.5 118.5l151 158q51 -68 135.5 -106t184.5 -38q99 0 151 37q51 35 51 88q0 36 -30.5 60.5t-106.5 42.5l-158 37q-137 31 -203.5 99
t-66.5 163q0 75 33.5 146t91.5 116q121 98 334 98q133 0 245 -44.5t171 -121.5l-150 -162q-115 115 -283 115q-105 0 -151 -43q-37 -27 -37 -78q0 -30 29.5 -51.5t99.5 -38.5z" />
    <glyph glyph-name="Scaron" unicode="&#x160;" horiz-adv-x="1306" 
d="M926 1593h-242l-244 324h244l133 -182l182 182h261zM877 811q172 -42 257 -130.5t85 -215.5q0 -124 -59 -229t-165 -170q-158 -95 -379 -95q-218 0 -369.5 86t-205.5 238l199 131q107 -221 387 -221q141 0 227 55q44 29 70 74t26 92q0 59 -45.5 98.5t-148.5 65.5l-224 55
q-171 42 -261.5 136t-90.5 220q0 103 49.5 197t135.5 154q154 110 401 110q191 0 328.5 -70t195.5 -192l-207 -137q-93 166 -329 166q-144 0 -230 -60q-75 -56 -75 -141q0 -56 46 -94.5t156 -65.5z" />
    <glyph glyph-name="scaron" unicode="&#x161;" horiz-adv-x="1056" 
d="M748 1202h-242l-244 324h244l133 -183l182 183h260zM424 815q-37 -27 -37 -78q0 -30 29.5 -51.5t99.5 -38.5l168 -41q270 -62 270 -258q0 -83 -38.5 -160.5t-106.5 -126.5q-119 -90 -326 -90q-153 0 -276 54t-182 145l151 158q51 -68 135.5 -106t184.5 -38q99 0 151 37
q51 35 51 88q0 36 -30.5 60.5t-106.5 42.5l-158 37q-137 31 -203.5 99t-66.5 163q0 75 33.5 146t91.5 116q121 98 334 98q133 0 245 -44.5t171 -121.5l-150 -162q-115 115 -283 115q-105 0 -151 -43z" />
    <glyph glyph-name="uni0162" unicode="&#x162;" horiz-adv-x="1243" 
d="M418 0l168 1192h-447l35 242h1151l-33 -242h-446l-168 -1192h-260zM272 -530l121 356h252l-180 -356h-193z" />
    <glyph glyph-name="uni0163" unicode="&#x163;" horiz-adv-x="864" 
d="M535 823l-70 -489q-9 -70 21 -98.5t112 -28.5q77 0 150 16l-29 -211q-98 -28 -207 -28q-177 0 -251.5 77.5t-51.5 239.5l74 522h-195l31 219h196l43 308h250l-43 -308h295l-33 -219h-292zM162 -530l121 356h252l-181 -356h-192z" />
    <glyph glyph-name="Tcaron" unicode="&#x164;" horiz-adv-x="1243" 
d="M893 1593h-242l-243 324h243l133 -182l183 182h260zM174 1434h1151l-33 -242h-446l-168 -1192h-260l168 1192h-447z" />
    <glyph glyph-name="tcaron" unicode="&#x165;" horiz-adv-x="870" 
d="M772 1591h250l-117 -422h-190zM608 1350l-43 -308h295l-33 -219h-292l-70 -489q-9 -70 21 -98.5t112 -28.5q77 0 150 16l-29 -211q-98 -28 -207 -28q-177 0 -251.5 77.5t-51.5 239.5l74 522h-195l31 219h196l43 308h250z" />
    <glyph glyph-name="Tbar" unicode="&#x166;" horiz-adv-x="1243" 
d="M1292 1192h-446l-51 -356h266l-31 -207h-264l-88 -629h-260l88 629h-264l30 207h263l51 356h-447l35 242h1151z" />
    <glyph glyph-name="tbar" unicode="&#x167;" horiz-adv-x="864" 
d="M827 823h-292l-29 -196h254l-25 -166h-252l-18 -127q-9 -70 21 -98.5t112 -28.5q77 0 150 16l-29 -211q-98 -28 -207 -28q-177 0 -251.5 77.5t-51.5 239.5l22 160h-174l25 166h174l27 196h-195l31 219h196l43 308h250l-43 -308h295z" />
    <glyph glyph-name="Utilde" unicode="&#x168;" horiz-adv-x="1519" 
d="M1069 1599q-79 0 -168 74q-59 45 -96 45q-63 0 -74 -108h-180q15 145 78 221t166 76q45 0 83.5 -18t84.5 -56q58 -45 96 -45q63 0 74 108h180q-15 -145 -78 -221t-166 -76zM686 -29q-246 0 -389 118.5t-143 334.5q0 48 6 100l127 910h262l-125 -889q-6 -40 -6 -76
q0 -129 69.5 -190.5t219.5 -61.5q167 0 269.5 83.5t127.5 244.5l123 889h262l-129 -910q-36 -263 -216 -408t-458 -145z" />
    <glyph glyph-name="utilde" unicode="&#x169;" horiz-adv-x="1241" 
d="M608 1327q-62 0 -73 -108h-181q15 145 78 221t166 76q45 0 83.5 -18t84.5 -56q58 -45 96 -45q63 0 74 108h180q-15 -145 -78 -221t-166 -76q-78 0 -167 74q-59 45 -97 45zM909 1042h250l-147 -1042h-246l22 160q-57 -88 -154.5 -138.5t-215.5 -50.5q-146 0 -222.5 78
t-76.5 225q0 44 6 91l96 677h250l-88 -614q-6 -43 -6 -80q0 -78 35 -113.5t116 -35.5q113 0 196.5 67.5t100.5 175.5z" />
    <glyph glyph-name="Umacron" unicode="&#x16a;" horiz-adv-x="1519" 
d="M584 1626l26 197h660l-27 -197h-659zM686 -29q-246 0 -389 118.5t-143 334.5q0 48 6 100l127 910h262l-125 -889q-6 -40 -6 -76q0 -129 69.5 -190.5t219.5 -61.5q167 0 269.5 83.5t127.5 244.5l123 889h262l-129 -910q-36 -263 -216 -408t-458 -145z" />
    <glyph glyph-name="umacron" unicode="&#x16b;" horiz-adv-x="1241" 
d="M1073 1432l-26 -197h-660l27 197h659zM909 1042h250l-147 -1042h-246l22 160q-57 -88 -154.5 -138.5t-215.5 -50.5q-146 0 -222.5 78t-76.5 225q0 44 6 91l96 677h250l-88 -614q-6 -43 -6 -80q0 -78 35 -113.5t116 -35.5q113 0 196.5 67.5t100.5 175.5z" />
    <glyph glyph-name="Ubreve" unicode="&#x16c;" horiz-adv-x="1519" 
d="M915 1579q-145 0 -227 66t-82 182q0 26 6 63h203q-2 -12 -2 -37q0 -110 111 -110q65 0 108 38.5t53 108.5h205l-2 -16q-21 -137 -119 -216t-254 -79zM686 -29q-246 0 -389 118.5t-143 334.5q0 48 6 100l127 910h262l-125 -889q-6 -40 -6 -76q0 -129 69.5 -190.5
t219.5 -61.5q167 0 269.5 83.5t127.5 244.5l123 889h262l-129 -910q-36 -263 -216 -408t-458 -145z" />
    <glyph glyph-name="ubreve" unicode="&#x16d;" horiz-adv-x="1241" 
d="M719 1188q-145 0 -227 66t-82 182q0 26 6 63h202q-2 -12 -2 -37q0 -110 111 -110q65 0 108.5 38.5t53.5 108.5h205l-2 -16q-21 -137 -119 -216t-254 -79zM909 1042h250l-147 -1042h-246l22 160q-57 -88 -154.5 -138.5t-215.5 -50.5q-146 0 -222.5 78t-76.5 225q0 44 6 91
l96 677h250l-88 -614q-6 -43 -6 -80q0 -78 35 -113.5t116 -35.5q113 0 196.5 67.5t100.5 175.5z" />
    <glyph glyph-name="Uring" unicode="&#x16e;" horiz-adv-x="1519" 
d="M911 1567q-108 0 -180 65t-72 162q0 121 93.5 208t220.5 87q108 0 179 -65t71 -162q0 -122 -93 -208.5t-219 -86.5zM922 1716q59 0 97 39t38 94q0 42 -24.5 66t-69.5 24q-59 0 -97.5 -38.5t-38.5 -96.5q0 -40 25 -64t70 -24zM686 -29q-246 0 -389 118.5t-143 334.5
q0 48 6 100l127 910h262l-125 -889q-6 -40 -6 -76q0 -129 69.5 -190.5t219.5 -61.5q167 0 269.5 83.5t127.5 244.5l123 889h262l-129 -910q-36 -263 -216 -408t-458 -145z" />
    <glyph glyph-name="uring" unicode="&#x16f;" horiz-adv-x="1241" 
d="M715 1176q-108 0 -180 65t-72 162q0 121 93 208t220 87q108 0 179 -65.5t71 -162.5q0 -122 -92.5 -208t-218.5 -86zM766 1548q-59 0 -97 -38.5t-38 -96.5q0 -41 24.5 -64.5t69.5 -23.5q59 0 97 39t38 94q0 42 -24.5 66t-69.5 24zM909 1042h250l-147 -1042h-246l22 160
q-57 -88 -154.5 -138.5t-215.5 -50.5q-146 0 -222.5 78t-76.5 225q0 44 6 91l96 677h250l-88 -614q-6 -43 -6 -80q0 -78 35 -113.5t116 -35.5q113 0 196.5 67.5t100.5 175.5z" />
    <glyph glyph-name="Uhungarumlaut" unicode="&#x170;" horiz-adv-x="1519" 
d="M524 1593l277 324h256l-287 -324h-246zM936 1593l276 324h258l-286 -324h-248zM686 -29q-246 0 -389 118.5t-143 334.5q0 48 6 100l127 910h262l-125 -889q-6 -40 -6 -76q0 -129 69.5 -190.5t219.5 -61.5q167 0 269.5 83.5t127.5 244.5l123 889h262l-129 -910
q-36 -263 -216 -408t-458 -145z" />
    <glyph glyph-name="uhungarumlaut" unicode="&#x171;" horiz-adv-x="1241" 
d="M860 1526l-287 -324h-245l276 324h256zM987 1202h-248l277 324h258zM825 442l84 600h250l-147 -1042h-246l22 160q-57 -88 -154.5 -138.5t-215.5 -50.5q-146 0 -222.5 78t-76.5 225q0 44 6 91l96 677h250l-88 -614q-6 -43 -6 -80q0 -78 35 -113.5t116 -35.5
q113 0 196.5 67.5t100.5 175.5z" />
    <glyph glyph-name="Uogonek" unicode="&#x172;" horiz-adv-x="1519" 
d="M1227 1434h262l-129 -910q-27 -195 -136 -327.5t-282 -188.5q-116 -78 -147 -106q-55 -51 -56 -88q0 -56 101 -56h69l-26 -186h-111q-123 0 -191.5 46t-68.5 124q0 126 145 229q-234 8 -368.5 126t-134.5 327q0 48 6 100l127 910h262l-125 -889q-6 -40 -6 -76
q0 -129 69.5 -190.5t219.5 -61.5q167 0 269.5 83.5t127.5 244.5z" />
    <glyph glyph-name="uogonek" unicode="&#x173;" horiz-adv-x="1241" 
d="M1014 0q-9 -6 -39 -27t-42 -29.5t-36.5 -27t-36 -30t-26 -27.5t-20 -29.5t-5.5 -26.5q0 -55 100 -55h70l-27 -186h-110q-123 0 -191.5 46t-68.5 124t55.5 146.5t148.5 121.5h-20l22 160q-57 -88 -154.5 -138.5t-215.5 -50.5q-146 0 -222.5 78t-76.5 225q0 44 6 91l96 677
h250l-88 -614q-6 -43 -6 -80q0 -78 35 -113.5t116 -35.5q113 0 196.5 67.5t100.5 175.5l84 600h250l-147 -1040z" />
    <glyph glyph-name="Wcircumflex" unicode="&#x174;" horiz-adv-x="2164" 
d="M1266 1776l-183 -183h-260l334 324h242l243 -324h-241zM1970 1434h277l-635 -1434h-277l-176 1067l-477 -1067h-279l-229 1434h264l162 -1080l477 1080h254l176 -1076z" />
    <glyph glyph-name="wcircumflex" unicode="&#x175;" horiz-adv-x="1738" 
d="M999 1384l-182 -182h-260l334 324h242l243 -324h-241zM1520 1042h260l-475 -1042h-277l-129 735l-336 -735h-276l-178 1042h249l115 -751l344 751h246l131 -751z" />
    <glyph glyph-name="Ycircumflex" unicode="&#x176;" horiz-adv-x="1339" 
d="M850 1776l-182 -183h-260l333 324h242l244 -324h-242zM1159 1434h307l-657 -859l-86 -575h-260l84 575l-418 859h285l284 -623z" />
    <glyph glyph-name="ycircumflex" unicode="&#x177;" horiz-adv-x="1132" 
d="M698 1384l-182 -182h-260l334 324h241l244 -324h-241zM911 1042h271l-766 -1450h-248l205 410l-271 1040h260l175 -766z" />
    <glyph glyph-name="Ydieresis" unicode="&#x178;" horiz-adv-x="1339" 
d="M586 1608q-64 0 -102 36t-38 95q0 75 51.5 127.5t127.5 52.5q64 0 101.5 -36t37.5 -95q0 -74 -52 -127t-126 -53zM1057 1608q-64 0 -101.5 36t-37.5 95q0 75 52 127.5t128 52.5q63 0 100 -36t37 -95q0 -74 -51 -127t-127 -53zM1159 1434h307l-657 -859l-86 -575h-260
l84 575l-418 859h285l284 -623z" />
    <glyph glyph-name="Zacute" unicode="&#x179;" horiz-adv-x="1247" 
d="M1171 1917l-325 -324h-250l274 324h301zM1278 1434l-27 -197l-872 -1004h741l-33 -233h-1075l27 197l872 1003h-708l33 234h1042z" />
    <glyph glyph-name="zacute" unicode="&#x17a;" horiz-adv-x="1030" 
d="M1008 1526l-326 -324h-250l275 324h301zM1010 1042l-23 -174l-627 -653h539l-31 -215h-856l25 174l625 653h-517l31 215h834z" />
    <glyph glyph-name="Zdotaccent" unicode="&#x17b;" horiz-adv-x="1247" 
d="M780 1608q-65 0 -103 35.5t-38 93.5q0 77 51.5 129.5t128.5 52.5q65 0 103.5 -36t38.5 -95q0 -76 -52 -128t-129 -52zM1278 1434l-27 -197l-872 -1004h741l-33 -233h-1075l27 197l872 1003h-708l33 234h1042z" />
    <glyph glyph-name="zdotaccent" unicode="&#x17c;" horiz-adv-x="1030" 
d="M616 1217q-65 0 -103 35.5t-38 93.5q0 77 51.5 129.5t128.5 52.5q65 0 103.5 -36t38.5 -95q0 -76 -52 -128t-129 -52zM1010 1042l-23 -174l-627 -653h539l-31 -215h-856l25 174l625 653h-517l31 215h834z" />
    <glyph glyph-name="Zcaron" unicode="&#x17d;" horiz-adv-x="1247" 
d="M897 1593h-242l-243 324h243l133 -182l183 182h260zM1278 1434l-27 -197l-872 -1004h741l-33 -233h-1075l27 197l872 1003h-708l33 234h1042z" />
    <glyph glyph-name="zcaron" unicode="&#x17e;" horiz-adv-x="1030" 
d="M733 1202h-241l-244 324h244l133 -183l182 183h260zM145 827l31 215h834l-23 -174l-627 -653h539l-31 -215h-856l25 174l625 653h-517z" />
    <glyph glyph-name="florin" unicode="&#x192;" horiz-adv-x="1005" 
d="M958 1206q-80 0 -120 -30t-66 -111l-59 -182h250l-23 -164h-283l-239 -727q-50 -146 -142.5 -212.5t-252.5 -66.5h-119l33 230h71q80 0 120.5 30t66.5 109l211 637h-234l23 164h266l90 274q48 144 140 210.5t253 66.5h117l-31 -228h-72z" />
    <glyph glyph-name="uni01CD" unicode="&#x1cd;" horiz-adv-x="1486" 
d="M1014 1593h-242l-244 324h244l133 -182l182 182h261zM1116 0l-80 340h-624l-176 -340h-279l766 1434h297l362 -1434h-266zM526 563h459l-143 615z" />
    <glyph glyph-name="uni01CE" unicode="&#x1ce;" horiz-adv-x="1329" 
d="M909 1202h-241l-244 324h244l133 -183l182 183h260zM1001 1042h246l-147 -1042h-246l20 158q-56 -88 -154.5 -137.5t-213.5 -49.5q-189 0 -304.5 128t-115.5 339q0 141 53.5 273t147.5 219q147 141 350 141q124 0 216 -55.5t124 -151.5zM825 297q54 52 83.5 131t29.5 160
q0 118 -66 187t-182 69q-136 0 -229 -90q-58 -57 -87.5 -138t-29.5 -161q0 -118 64 -187t180 -69q139 0 237 98z" />
    <glyph glyph-name="uni01E2" unicode="&#x1e2;" horiz-adv-x="2252" 
d="M1991 1823l-27 -197h-659l26 197h660zM2202 1194h-758l-47 -350h712l-32 -240h-715l-49 -364h776l-35 -240h-1036l45 319h-553l-250 -319h-315l1138 1434h1151zM684 543h410l92 643z" />
    <glyph glyph-name="uni01E3" unicode="&#x1e3;" horiz-adv-x="1894" 
d="M1419 1432l-26 -197h-660l27 197h659zM1382 1071q198 0 317.5 -119t119.5 -317q0 -20 -9 -90q-7 -54 -20 -96h-768q0 -126 68 -193.5t194 -67.5q170 0 313 131l129 -147q-79 -97 -200 -149t-266 -52q-146 0 -249 54.5t-155 154.5q-62 -99 -179 -154t-267 -55
q-171 0 -269 76.5t-98 204.5q0 83 34 155.5t99 118.5q124 88 352 88h267l6 50q2 14 2 41q0 147 -178 147q-176 0 -306 -127l-129 152q83 92 206 143t268 51q250 0 329 -172q152 172 389 172zM1128 758q-53 -56 -79 -142h528v19q0 107 -55.5 162t-161.5 55q-141 0 -232 -94z
M453 164q121 0 209.5 70.5t103.5 177.5l4 37h-242q-136 0 -192 -56q-41 -38 -41 -112q0 -56 40 -86.5t118 -30.5z" />
    <glyph glyph-name="Gcaron" unicode="&#x1e6;" horiz-adv-x="1581" 
d="M1104 1593h-242l-244 324h244l133 -182l183 182h260zM893 578l31 223h577l-84 -594q-98 -110 -259.5 -173t-350.5 -63q-317 0 -498.5 173t-181.5 456q0 181 71.5 353.5t198.5 291.5q110 104 255.5 160.5t310.5 56.5q192 0 335.5 -73t217.5 -205l-220 -146
q-103 181 -344 181q-234 0 -385 -160q-84 -86 -127 -206t-43 -243q0 -190 111.5 -294.5t320.5 -104.5q104 0 198 27t161 73l37 267h-332z" />
    <glyph glyph-name="gcaron" unicode="&#x1e7;" horiz-adv-x="1329" 
d="M887 1202h-242l-244 324h244l133 -183l183 183h260zM1001 1042h246l-131 -925q-37 -268 -196 -412.5t-431 -144.5q-148 0 -273 46t-198 124l136 178q135 -123 329 -123q164 0 264 85t125 247l13 90q-56 -92 -154.5 -144.5t-220.5 -52.5q-187 0 -304.5 123t-117.5 320
q0 139 55 271.5t152 217.5q151 129 342 129q121 0 213 -53.5t127 -147.5zM827 326q115 112 115 272q0 113 -65 180.5t-183 67.5q-139 0 -235 -90q-56 -53 -84.5 -128t-28.5 -151q0 -112 62 -179t178 -67q136 0 241 95z" />
    <glyph glyph-name="uni01E8" unicode="&#x1e8;" horiz-adv-x="1439" 
d="M1008 1593h-242l-244 324h242l133 -182l184 182h260zM1530 1434l-664 -621l486 -813h-314l-372 627l-244 -230l-55 -397h-261l201 1434h260l-94 -676l723 676h334z" />
    <glyph glyph-name="uni01E9" unicode="&#x1e9;" horiz-adv-x="1171" 
d="M561 1659h-242l-245 323h243l134 -182l184 182h258zM1235 1040l-520 -452l383 -588h-287l-276 430l-162 -139l-41 -291h-250l211 1499h250l-127 -907l506 450z" />
    <glyph glyph-name="AEacute" unicode="&#x1fc;" horiz-adv-x="2252" 
d="M2028 1917l-326 -324h-250l274 324h302zM2202 1194h-758l-47 -350h712l-32 -240h-715l-49 -364h776l-35 -240h-1036l45 319h-553l-250 -319h-315l1138 1434h1151zM684 543h410l92 643z" />
    <glyph glyph-name="aeacute" unicode="&#x1fd;" horiz-adv-x="1894" 
d="M1454 1526l-326 -324h-249l274 324h301zM1382 1071q198 0 317.5 -119t119.5 -317q0 -20 -9 -90q-7 -54 -20 -96h-768q0 -126 68 -193.5t194 -67.5q170 0 313 131l129 -147q-79 -97 -200 -149t-266 -52q-146 0 -249 54.5t-155 154.5q-62 -99 -179 -154t-267 -55
q-171 0 -269 76.5t-98 204.5q0 83 34 155.5t99 118.5q124 88 352 88h267l6 50q2 14 2 41q0 147 -178 147q-176 0 -306 -127l-129 152q83 92 206 143t268 51q250 0 329 -172q152 172 389 172zM1128 758q-53 -56 -79 -142h528v19q0 107 -55.5 162t-161.5 55q-141 0 -232 -94z
M453 164q121 0 209.5 70.5t103.5 177.5l4 37h-242q-136 0 -192 -56q-41 -38 -41 -112q0 -56 40 -86.5t118 -30.5z" />
    <glyph glyph-name="Oslashacute" unicode="&#x1fe;" horiz-adv-x="1705" 
d="M1264 1917l-326 -324h-250l275 324h301zM1704 1317l-166 -146q96 -154 96 -346q0 -177 -76 -349.5t-208 -293.5q-112 -101 -257 -156t-307 -55q-262 0 -446 150l-162 -144l-121 140l164 143q-94 148 -94 344q0 188 81.5 365t223.5 299q229 194 543 194q262 0 444 -151
l166 145zM592 1077q-92 -86 -142.5 -205.5t-50.5 -246.5q0 -92 33 -183l789 693q-105 84 -263 84q-208 0 -366 -142zM1182 367q87 84 133.5 201t46.5 241q0 101 -35 182l-788 -692q108 -84 264 -84q217 0 379 152z" />
    <glyph glyph-name="oslashacute" unicode="&#x1ff;" horiz-adv-x="1286" 
d="M1053 1526l-326 -324h-250l275 324h301zM1284 975l-147 -131q61 -104 61 -244q0 -137 -63 -273t-168 -223q-165 -133 -389 -133q-194 0 -322 103l-143 -129l-109 123l146 131q-62 111 -62 243q0 131 55.5 258.5t153.5 217.5q80 72 186 112.5t226 40.5q194 0 321 -102
l144 129zM453 752q-55 -55 -85 -134.5t-30 -160.5q0 -58 14 -101l506 449q-61 49 -160 49q-146 0 -245 -102zM819 274q65 58 98 142.5t33 169.5q0 54 -12 100l-508 -448q59 -50 160 -50q134 0 229 86z" />
    <glyph glyph-name="uni0218" unicode="&#x218;" horiz-adv-x="1306" 
d="M616 -29q-218 0 -369.5 86t-205.5 238l199 131q107 -221 387 -221q141 0 227 55q44 29 70 74t26 92q0 59 -45.5 98.5t-148.5 65.5l-224 55q-171 42 -261.5 136t-90.5 220q0 103 49.5 197t135.5 154q154 110 401 110q191 0 328.5 -70t195.5 -192l-207 -137
q-93 166 -329 166q-144 0 -230 -60q-75 -56 -75 -141q0 -56 46 -94.5t156 -65.5l226 -57q172 -42 257 -130.5t85 -215.5q0 -124 -59 -229t-165 -170q-158 -95 -379 -95zM330 -530l121 356h251l-180 -356h-192z" />
    <glyph glyph-name="uni0219" unicode="&#x219;" horiz-adv-x="1056" 
d="M483 -29q-153 0 -276 54t-182 145l151 158q51 -68 135.5 -106t184.5 -38q99 0 151 37q51 35 51 88q0 36 -30.5 60.5t-106.5 42.5l-158 37q-137 31 -203.5 99t-66.5 163q0 75 33.5 146t91.5 116q121 98 334 98q133 0 245 -44.5t171 -121.5l-150 -162q-115 115 -283 115
q-105 0 -151 -43q-37 -27 -37 -78q0 -30 29.5 -51.5t99.5 -38.5l168 -41q270 -62 270 -258q0 -83 -38.5 -160.5t-106.5 -126.5q-119 -90 -326 -90zM190 -530l121 356h252l-180 -356h-193z" />
    <glyph glyph-name="uni021A" unicode="&#x21a;" horiz-adv-x="1243" 
d="M418 0l168 1192h-447l35 242h1151l-33 -242h-446l-168 -1192h-260zM272 -530l121 356h252l-180 -356h-193z" />
    <glyph glyph-name="uni021B" unicode="&#x21b;" horiz-adv-x="864" 
d="M535 823l-70 -489q-9 -70 21 -98.5t112 -28.5q77 0 150 16l-29 -211q-98 -28 -207 -28q-177 0 -251.5 77.5t-51.5 239.5l74 522h-195l31 219h196l43 308h250l-43 -308h295l-33 -219h-292zM162 -530l121 356h252l-181 -356h-192z" />
    <glyph glyph-name="uni0237" unicode="&#x237;" horiz-adv-x="563" 
d="M-76 -440q-71 0 -137 14l31 217q58 -10 92 -10q78 0 115.5 35t48.5 110l157 1116h250l-164 -1157q-22 -161 -117.5 -243t-275.5 -82z" />
    <glyph glyph-name="circumflex" unicode="&#x2c6;" horiz-adv-x="1269" 
d="M1141 1202h-242l-135 182l-182 -182h-260l333 324h242z" />
    <glyph glyph-name="caron" unicode="&#x2c7;" horiz-adv-x="1269" 
d="M926 1526h260l-334 -324h-242l-243 324h243l133 -183z" />
    <glyph glyph-name="breve" unicode="&#x2d8;" horiz-adv-x="1269" 
d="M737 1188q-145 0 -227 66t-82 182q0 26 6 63h203q-2 -12 -2 -37q0 -110 110 -110q65 0 108.5 38.5t53.5 108.5h205l-2 -16q-21 -137 -119 -216t-254 -79z" />
    <glyph glyph-name="dotaccent" unicode="&#x2d9;" horiz-adv-x="1269" 
d="M735 1217q-65 0 -103 35.5t-38 93.5q0 77 51.5 129.5t128.5 52.5q65 0 103 -36t38 -95q0 -76 -51.5 -128t-128.5 -52z" />
    <glyph glyph-name="ring" unicode="&#x2da;" horiz-adv-x="1269" 
d="M733 1176q-108 0 -180 65t-72 162q0 121 93.5 208t220.5 87q108 0 178.5 -65.5t70.5 -162.5q0 -122 -92.5 -208t-218.5 -86zM743 1325q59 0 97.5 39t38.5 94q0 42 -25 66t-70 24q-59 0 -97 -38.5t-38 -96.5q0 -41 24.5 -64.5t69.5 -23.5z" />
    <glyph glyph-name="ogonek" unicode="&#x2db;" horiz-adv-x="1269" 
d="M512 -438q-123 0 -191.5 46t-68.5 124q0 103 94.5 188.5t237.5 136.5l100 -57q-9 -6 -39 -27t-42 -29.5t-36.5 -27t-36 -30t-26 -27.5t-20 -29.5t-5.5 -26.5q0 -55 101 -55h69l-26 -186h-111z" />
    <glyph glyph-name="tilde" unicode="&#x2dc;" horiz-adv-x="1269" 
d="M891 1208q-79 0 -168 74q-59 45 -96 45q-63 0 -74 -108h-180q15 146 77.5 221.5t165.5 75.5q45 0 83.5 -18t84.5 -56q58 -45 97 -45q62 0 73 108h181q-15 -145 -78 -221t-166 -76z" />
    <glyph glyph-name="hungarumlaut" unicode="&#x2dd;" horiz-adv-x="1269" 
d="M399 1202l277 324h256l-287 -324h-246zM811 1202l276 324h259l-287 -324h-248z" />
    <glyph glyph-name="gravecomb" unicode="&#x300;" horiz-adv-x="0" 
d="M-670 1202l-237 324h295l188 -324h-246z" />
    <glyph glyph-name="acutecomb" unicode="&#x301;" horiz-adv-x="0" 
d="M-649 1202l274 324h301l-325 -324h-250z" />
    <glyph glyph-name="uni0302" unicode="&#x302;" horiz-adv-x="0" 
d="M-129 1202h-242l-135 182l-182 -182h-260l334 324h241z" />
    <glyph glyph-name="tildecomb" unicode="&#x303;" horiz-adv-x="0" 
d="M-379 1208q-79 0 -168 74q-59 45 -96 45q-63 0 -74 -108h-180q15 145 78 221t166 76q45 0 83.5 -18t84.5 -56q58 -45 96 -45q63 0 74 108h180q-15 -145 -78 -221t-166 -76z" />
    <glyph glyph-name="uni0304" unicode="&#x304;" horiz-adv-x="0" 
d="M-864 1235l26 197h660l-27 -197h-659z" />
    <glyph glyph-name="uni0306" unicode="&#x306;" horiz-adv-x="0" 
d="M-532 1188q-145 0 -227.5 66t-82.5 182q0 26 6 63h203q-2 -12 -2 -37q0 -110 111 -110q65 0 108.5 38.5t53.5 108.5h204l-2 -16q-21 -137 -118.5 -216t-253.5 -79z" />
    <glyph glyph-name="uni0307" unicode="&#x307;" horiz-adv-x="0" 
d="M-535 1217q-65 0 -103 35.5t-38 93.5q0 77 51.5 129.5t128.5 52.5q65 0 103.5 -36t38.5 -95q0 -76 -52 -128t-129 -52z" />
    <glyph glyph-name="uni0308" unicode="&#x308;" horiz-adv-x="0" 
d="M-770 1217q-64 0 -101.5 36t-37.5 95q0 76 51 128t127 52q64 0 101.5 -36t37.5 -95q0 -74 -52 -127t-126 -53zM-299 1217q-64 0 -101.5 36t-37.5 95q0 75 52 127.5t128 52.5q63 0 100 -36t37 -95q0 -74 -51 -127t-127 -53z" />
    <glyph glyph-name="uni030A" unicode="&#x30a;" horiz-adv-x="0" 
d="M-537 1176q-108 0 -179.5 65t-71.5 162q0 121 93 208t220 87q108 0 179 -65.5t71 -162.5q0 -122 -93 -208t-219 -86zM-526 1325q59 0 97 39t38 94q0 42 -24.5 66t-69.5 24q-59 0 -97.5 -38.5t-38.5 -96.5q0 -40 25 -64t70 -24z" />
    <glyph glyph-name="uni030B" unicode="&#x30b;" horiz-adv-x="0" 
d="M-870 1202l276 324h256l-287 -324h-245zM-459 1202l277 324h258l-287 -324h-248z" />
    <glyph glyph-name="uni030C" unicode="&#x30c;" horiz-adv-x="0" 
d="M-344 1526h260l-334 -324h-241l-244 324h244l133 -183z" />
    <glyph glyph-name="uni0315" unicode="&#x315;" horiz-adv-x="0" 
d="M-674 1141l60 420h249l-116 -420h-193z" />
    <glyph glyph-name="uni0326" unicode="&#x326;" horiz-adv-x="0" 
d="M-979 -530l121 356h252l-180 -356h-193z" />
    <glyph glyph-name="uni0327" unicode="&#x327;" horiz-adv-x="0" 
d="M-1024 -401l227 438h213l-182 -438h-258z" />
    <glyph glyph-name="uni0328" unicode="&#x328;" horiz-adv-x="0" 
d="M-758 -438q-123 0 -191.5 46t-68.5 124q0 103 94.5 188.5t237.5 136.5l100 -57q-9 -6 -39 -27t-42 -29.5t-36.5 -27t-36 -30t-26 -27.5t-20 -29.5t-5.5 -26.5q0 -55 101 -55h69l-26 -186h-111z" />
    <glyph glyph-name="uni03BC" unicode="&#x3bc;" horiz-adv-x="1259" 
d="M930 1042h250l-148 -1042h-231l20 154q-49 -86 -130.5 -134.5t-174.5 -48.5q-115 0 -178 78l-70 -500h-250l211 1493h250l-92 -651q-6 -98 36 -145t136 -47q117 0 194 71t97 213z" />
    <glyph glyph-name="pi" unicode="&#x3c0;" horiz-adv-x="1243" 
d="M1094 227h45l-31 -227h-113q-149 0 -209.5 72t-37.5 225l71 518h-373l-114 -815h-250l147 1042h873l-101 -704q-7 -60 14.5 -85.5t78.5 -25.5z" />
    <glyph glyph-name="uni1E20" unicode="&#x1e20;" horiz-adv-x="1581" 
d="M1343 1823l-26 -197h-660l27 197h659zM893 578l31 223h577l-84 -594q-98 -110 -259.5 -173t-350.5 -63q-317 0 -498.5 173t-181.5 456q0 181 71.5 353.5t198.5 291.5q110 104 255.5 160.5t310.5 56.5q192 0 335.5 -73t217.5 -205l-220 -146q-103 181 -344 181
q-234 0 -385 -160q-84 -86 -127 -206t-43 -243q0 -190 111.5 -294.5t320.5 -104.5q104 0 198 27t161 73l37 267h-332z" />
    <glyph glyph-name="uni1E21" unicode="&#x1e21;" horiz-adv-x="1329" 
d="M1126 1432l-26 -197h-660l27 197h659zM1001 1042h246l-131 -925q-37 -268 -196 -412.5t-431 -144.5q-148 0 -273 46t-198 124l136 178q135 -123 329 -123q164 0 264 85t125 247l13 90q-56 -92 -154.5 -144.5t-220.5 -52.5q-187 0 -304.5 123t-117.5 320q0 139 55 271.5
t152 217.5q151 129 342 129q121 0 213 -53.5t127 -147.5zM827 326q115 112 115 272q0 113 -65 180.5t-183 67.5q-139 0 -235 -90q-56 -53 -84.5 -128t-28.5 -151q0 -112 62 -179t178 -67q136 0 241 95z" />
    <glyph glyph-name="uni1E30" unicode="&#x1e30;" horiz-adv-x="1439" 
d="M1282 1917l-326 -324h-249l274 324h301zM1530 1434l-664 -621l486 -813h-314l-372 627l-244 -230l-55 -397h-261l201 1434h260l-94 -676l723 676h334z" />
    <glyph glyph-name="uni1E31" unicode="&#x1e31;" horiz-adv-x="1171" 
d="M836 1982l-326 -323h-252l277 323h301zM1235 1040l-520 -452l383 -588h-287l-276 430l-162 -139l-41 -291h-250l211 1499h250l-127 -907l506 450z" />
    <glyph glyph-name="uni1E3E" unicode="&#x1e3e;" horiz-adv-x="1914" 
d="M1505 1917l-325 -324h-250l274 324h301zM1559 1434h305l-203 -1434h-254l149 1051l-520 -697h-200l-326 703l-150 -1057h-254l201 1434h293l367 -797z" />
    <glyph glyph-name="uni1E3F" unicode="&#x1e3f;" horiz-adv-x="1898" 
d="M1462 1526l-325 -324h-250l274 324h301zM1475 1071q145 0 225 -80t80 -229q0 -38 -6 -84l-97 -678h-250l89 616q6 37 6 70q0 80 -38.5 118t-119.5 38q-109 0 -184 -64.5t-90 -177.5l-86 -600h-250l88 616q6 37 6 70q0 80 -38.5 118t-119.5 38q-109 0 -184 -64.5
t-90 -177.5l-84 -600h-250l147 1042h246l-22 -159q54 88 147 138t205 50q113 0 189.5 -53.5t99.5 -151.5q53 94 155 149.5t226 55.5z" />
    <glyph glyph-name="uni1E40" unicode="&#x1e40;" horiz-adv-x="1914" 
d="M1114 1608q-65 0 -103 35.5t-38 93.5q0 77 51.5 129.5t128.5 52.5q65 0 103 -36t38 -95q0 -76 -51.5 -128t-128.5 -52zM1559 1434h305l-203 -1434h-254l149 1051l-520 -697h-200l-326 703l-150 -1057h-254l201 1434h293l367 -797z" />
    <glyph glyph-name="uni1E41" unicode="&#x1e41;" horiz-adv-x="1898" 
d="M1069 1217q-65 0 -103 35.5t-38 93.5q0 77 51.5 129.5t128.5 52.5q65 0 103 -36t38 -95q0 -76 -51.5 -128t-128.5 -52zM1475 1071q145 0 225 -80t80 -229q0 -38 -6 -84l-97 -678h-250l89 616q6 37 6 70q0 80 -38.5 118t-119.5 38q-109 0 -184 -64.5t-90 -177.5l-86 -600
h-250l88 616q6 37 6 70q0 80 -38.5 118t-119.5 38q-109 0 -184 -64.5t-90 -177.5l-84 -600h-250l147 1042h246l-22 -159q54 88 147 138t205 50q113 0 189.5 -53.5t99.5 -151.5q53 94 155 149.5t226 55.5z" />
    <glyph glyph-name="uni1E44" unicode="&#x1e44;" horiz-adv-x="1613" 
d="M963 1608q-65 0 -103.5 35.5t-38.5 93.5q0 77 51.5 129.5t128.5 52.5q65 0 103.5 -36t38.5 -95q0 -76 -51.5 -128t-128.5 -52zM1307 1434h256l-203 -1434h-240l-616 1018l-142 -1018h-256l201 1434h242l614 -1022z" />
    <glyph glyph-name="uni1E45" unicode="&#x1e45;" horiz-adv-x="1251" 
d="M731 1217q-65 0 -103 35.5t-38 93.5q0 77 51.5 129.5t128.5 52.5q65 0 103 -36t38 -95q0 -76 -51.5 -128t-128.5 -52zM815 1071q152 0 236 -81.5t84 -231.5q0 -31 -7 -82l-96 -676h-250l86 612q6 37 6 68q0 83 -40.5 122.5t-128.5 39.5q-116 0 -195 -64.5t-94 -179.5
l-84 -598h-250l147 1042h246l-22 -159q54 88 149 138t213 50z" />
    <glyph glyph-name="Wgrave" unicode="&#x1e80;" horiz-adv-x="2164" 
d="M1415 1593h-246l-237 324h295zM1970 1434h277l-635 -1434h-277l-176 1067l-477 -1067h-279l-229 1434h264l162 -1080l477 1080h254l176 -1076z" />
    <glyph glyph-name="wgrave" unicode="&#x1e81;" horiz-adv-x="1738" 
d="M1149 1202h-246l-237 324h295zM1520 1042h260l-475 -1042h-277l-129 735l-336 -735h-276l-178 1042h249l115 -751l344 751h246l131 -751z" />
    <glyph glyph-name="Wacute" unicode="&#x1e82;" horiz-adv-x="2164" 
d="M1628 1917l-325 -324h-250l274 324h301zM1970 1434h277l-635 -1434h-277l-176 1067l-477 -1067h-279l-229 1434h264l162 -1080l477 1080h254l176 -1076z" />
    <glyph glyph-name="wacute" unicode="&#x1e83;" horiz-adv-x="1738" 
d="M1362 1526l-326 -324h-250l275 324h301zM1520 1042h260l-475 -1042h-277l-129 735l-336 -735h-276l-178 1042h249l115 -751l344 751h246l131 -751z" />
    <glyph glyph-name="Wdieresis" unicode="&#x1e84;" horiz-adv-x="2164" 
d="M1001 1608q-64 0 -101.5 36t-37.5 95q0 76 51 128t127 52q64 0 102 -36t38 -95q0 -74 -52 -127t-127 -53zM1473 1608q-64 0 -102 36t-38 95q0 75 52 127.5t128 52.5q63 0 100.5 -36t37.5 -95q0 -74 -51 -127t-127 -53zM1970 1434h277l-635 -1434h-277l-176 1067
l-477 -1067h-279l-229 1434h264l162 -1080l477 1080h254l176 -1076z" />
    <glyph glyph-name="wdieresis" unicode="&#x1e85;" horiz-adv-x="1738" 
d="M735 1217q-64 0 -101.5 36t-37.5 95q0 76 51 128t127 52q64 0 101.5 -36t37.5 -95q0 -74 -52 -127t-126 -53zM1206 1217q-64 0 -101.5 36t-37.5 95q0 75 52 127.5t128 52.5q63 0 100 -36t37 -95q0 -74 -51 -127t-127 -53zM1520 1042h260l-475 -1042h-277l-129 735
l-336 -735h-276l-178 1042h249l115 -751l344 751h246l131 -751z" />
    <glyph glyph-name="uni1E90" unicode="&#x1e90;" horiz-adv-x="1247" 
d="M809 1776l-182 -183h-260l333 324h242l244 -324h-242zM1278 1434l-27 -197l-872 -1004h741l-33 -233h-1075l27 197l872 1003h-708l33 234h1042z" />
    <glyph glyph-name="uni1E91" unicode="&#x1e91;" horiz-adv-x="1030" 
d="M645 1384l-182 -182h-260l334 324h241l244 -324h-242zM145 827l31 215h834l-23 -174l-627 -653h539l-31 -215h-856l25 174l625 653h-517z" />
    <glyph glyph-name="uni1E9E" unicode="&#x1e9e;" horiz-adv-x="1499" 
d="M1063 784q352 -47 352 -317q0 -119 -48 -217t-140 -158q-136 -92 -365 -92h-248l33 227h219q144 0 213 54q35 28 53.5 72.5t18.5 90.5q0 73 -55 108.5t-174 35.5h-174l30 209l350 374q-89 60 -243 60q-185 0 -287 -82t-125 -250l-127 -899h-260l127 909
q38 274 206.5 413.5t461.5 139.5q207 0 350.5 -70t218.5 -194z" />
    <glyph glyph-name="Ygrave" unicode="&#x1ef2;" horiz-adv-x="1339" 
d="M999 1593h-245l-238 324h295zM1159 1434h307l-657 -859l-86 -575h-260l84 575l-418 859h285l284 -623z" />
    <glyph glyph-name="ygrave" unicode="&#x1ef3;" horiz-adv-x="1132" 
d="M848 1202h-246l-237 324h294zM911 1042h271l-766 -1450h-248l205 410l-271 1040h260l175 -766z" />
    <glyph glyph-name="uni2000" unicode="&#x2000;" horiz-adv-x="1024" 
 />
    <glyph glyph-name="uni2001" unicode="&#x2001;" horiz-adv-x="2048" 
 />
    <glyph glyph-name="uni2002" unicode="&#x2002;" horiz-adv-x="1024" 
 />
    <glyph glyph-name="uni2003" unicode="&#x2003;" horiz-adv-x="2048" 
 />
    <glyph glyph-name="uni2009" unicode="&#x2009;" horiz-adv-x="419" 
 />
    <glyph glyph-name="uni200A" unicode="&#x200a;" horiz-adv-x="122" 
 />
    <glyph glyph-name="uni200B" unicode="&#x200b;" horiz-adv-x="0" 
 />
    <glyph glyph-name="endash" unicode="&#x2013;" horiz-adv-x="1202" 
d="M84 481l31 211h1024l-31 -211h-1024z" />
    <glyph glyph-name="emdash" unicode="&#x2014;" horiz-adv-x="2228" 
d="M84 481l31 211h2048l-31 -211h-2048z" />
    <glyph glyph-name="quoteleft" unicode="&#x2018;" horiz-adv-x="512" 
d="M131 926l229 536h209l-180 -536h-258z" />
    <glyph glyph-name="quoteright" unicode="&#x2019;" horiz-adv-x="512" 
d="M569 1462l-227 -536h-211l182 536h256z" />
    <glyph glyph-name="quotesinglbase" unicode="&#x201a;" horiz-adv-x="501" 
d="M379 242l-229 -537h-209l180 537h258z" />
    <glyph glyph-name="quotedblleft" unicode="&#x201c;" horiz-adv-x="915" 
d="M131 926l229 536h209l-180 -536h-258zM535 926l227 536h211l-180 -536h-258z" />
    <glyph glyph-name="quotedblright" unicode="&#x201d;" horiz-adv-x="915" 
d="M569 1462l-227 -536h-211l182 536h256zM973 1462l-228 -536h-210l182 536h256z" />
    <glyph glyph-name="quotedblbase" unicode="&#x201e;" horiz-adv-x="905" 
d="M379 242l-229 -537h-209l180 537h258zM780 242l-227 -537h-211l182 537h256z" />
    <glyph glyph-name="dagger" unicode="&#x2020;" horiz-adv-x="1060" 
d="M1053 1055l-31 -226h-328l-153 -1095h-242l154 1095h-326l31 226h325l66 461h242l-66 -461h328z" />
    <glyph glyph-name="daggerdbl" unicode="&#x2021;" horiz-adv-x="1101" 
d="M1042 829h-327l-56 -393h287l-33 -223h-284l-68 -479h-242l68 479h-287l33 223h285l55 393h-326l31 226h326l65 461h242l-66 -461h328z" />
    <glyph glyph-name="bullet" unicode="&#x2022;" horiz-adv-x="1060" 
d="M561 403q-140 0 -235 95.5t-95 234.5q0 140 94.5 235t235.5 95t235.5 -95t94.5 -235q0 -139 -95 -234.5t-235 -95.5z" />
    <glyph glyph-name="ellipsis" unicode="&#x2026;" horiz-adv-x="1611" 
d="M213 -23q-76 0 -118.5 44.5t-37.5 117.5q3 76 50.5 124t125.5 48q76 0 118.5 -44t37.5 -115q-3 -77 -50.5 -126t-125.5 -49zM743 -23q-76 0 -118.5 45t-36.5 117q3 76 50 124t124 48q76 0 119.5 -44t38.5 -115q-3 -76 -51.5 -125.5t-125.5 -49.5zM1272 -23q-76 0 -119 45
t-37 117q3 76 50 124t124 48q76 0 119.5 -44t38.5 -115q-3 -76 -51 -125.5t-125 -49.5z" />
    <glyph glyph-name="perthousand" unicode="&#x2030;" horiz-adv-x="2656" 
d="M475 715q-148 0 -245 90.5t-97 230.5q0 174 122.5 300t297.5 126q150 0 247 -90t97 -231q0 -173 -123.5 -299.5t-298.5 -126.5zM209 0l1208 1434h230l-1209 -1434h-229zM487 895q93 0 152 66.5t59 160.5q0 74 -41.5 117t-113.5 43q-94 0 -152.5 -67.5t-58.5 -161.5
q0 -72 41.5 -115t113.5 -43zM1300 -29q-148 0 -243.5 90.5t-95.5 231.5q0 174 122 300t297 126q148 0 245 -90.5t97 -231.5q0 -173 -123.5 -299.5t-298.5 -126.5zM2159 -29q-149 0 -245.5 90.5t-96.5 231.5q0 174 122 300t297 126q148 0 245 -90.5t97 -231.5
q0 -174 -122 -300t-297 -126zM1315 152q91 0 150 67t59 160q0 74 -41.5 117t-114.5 43q-94 0 -152.5 -68t-58.5 -162q0 -72 42.5 -114.5t115.5 -42.5zM2171 152q93 0 151 66.5t58 160.5q0 74 -41.5 117t-114.5 43q-94 0 -152.5 -68t-58.5 -162q0 -72 42.5 -114.5
t115.5 -42.5z" />
    <glyph glyph-name="guilsinglleft" unicode="&#x2039;" horiz-adv-x="712" 
d="M705 969l-377 -449l247 -446h-264l-252 448l373 447h273z" />
    <glyph glyph-name="guilsinglright" unicode="&#x203a;" horiz-adv-x="712" 
d="M399 969l254 -447l-374 -448h-273l379 452l-248 443h262z" />
    <glyph glyph-name="fraction" unicode="&#x2044;" horiz-adv-x="403" 
d="M-481 0l1206 1434h215l-1206 -1434h-215z" />
    <glyph glyph-name="uni2070" unicode="&#x2070;" horiz-adv-x="784" 
d="M420 709q-133 0 -208 81.5t-75 229.5q0 106 34.5 211.5t98.5 173.5q102 111 260 111q133 0 208 -82t75 -230q0 -112 -39 -222.5t-110 -178.5q-100 -94 -244 -94zM436 881q68 0 109 49q36 42 56 125t20 153q0 71 -26 103t-81 32q-77 0 -121 -61q-30 -42 -46.5 -122
t-16.5 -144q0 -71 25.5 -103t80.5 -32z" />
    <glyph glyph-name="uni2074" unicode="&#x2074;" horiz-adv-x="720" 
d="M766 1026l-23 -156h-92l-20 -145h-172l20 145h-387l23 156l407 473h217l-65 -473h92zM303 1026h199l37 272z" />
    <glyph glyph-name="uni2075" unicode="&#x2075;" horiz-adv-x="686" 
d="M477 1221q106 0 171 -57.5t65 -155.5q0 -138 -92.5 -218.5t-247.5 -80.5q-173 0 -283 116l111 129q72 -75 170 -75q68 0 108.5 30.5t40.5 83.5q0 36 -23.5 57t-68.5 21q-67 0 -123 -41l-129 72l57 397h496l-24 -168h-322l-18 -131q49 21 112 21z" />
    <glyph glyph-name="uni2076" unicode="&#x2076;" horiz-adv-x="706" 
d="M492 1249q105 0 174 -64t69 -165q0 -135 -100 -223t-244 -88q-123 0 -201.5 67t-78.5 178q0 168 176 359l170 186h217l-238 -256q24 6 56 6zM403 874q63 0 103.5 37t40.5 97q0 45 -27 69.5t-78 24.5q-65 0 -104 -37t-39 -98q0 -43 27.5 -68t76.5 -25z" />
    <glyph glyph-name="uni2077" unicode="&#x2077;" horiz-adv-x="620" 
d="M168 1499h559l-20 -156l-381 -618h-213l379 600h-349z" />
    <glyph glyph-name="uni2078" unicode="&#x2078;" horiz-adv-x="720" 
d="M616 1120q117 -48 117 -155q0 -119 -96 -187.5t-240 -68.5q-138 0 -214.5 56t-76.5 146q0 154 168 213q-94 45 -94 144q0 113 90 180.5t224 67.5q126 0 196 -54t70 -139q0 -73 -38.5 -124.5t-105.5 -78.5zM483 1360q-57 0 -90 -26.5t-33 -73.5q0 -32 24.5 -50t70.5 -18
q56 0 88 27t32 73q0 68 -92 68zM408 868q62 0 98.5 26.5t36.5 74.5q0 35 -27.5 55t-81.5 20q-61 0 -96 -27t-35 -77q0 -72 105 -72z" />
    <glyph glyph-name="uni2079" unicode="&#x2079;" horiz-adv-x="708" 
d="M483 1516q124 0 202.5 -67.5t78.5 -180.5q0 -166 -176 -357l-170 -186h-219l237 256q-24 -6 -53 -6q-105 0 -174.5 65t-69.5 166q0 135 99 222.5t245 87.5zM436 1124q64 0 101.5 37t37.5 96q0 43 -28 68t-78 25q-64 0 -102.5 -39.5t-38.5 -96.5q0 -43 28 -66.5t80 -23.5z
" />
    <glyph glyph-name="Euro" unicode="&#x20ac;" horiz-adv-x="1290" 
d="M721 203q84 0 160 56t123 155l196 -101q-74 -161 -207 -251.5t-291 -90.5q-197 0 -325.5 138.5t-147.5 375.5h-166l21 158h147q2 42 19 148h-144l23 157h164q66 192 172 312q177 202 420 202q158 0 272 -90t158 -252l-223 -98q-23 101 -79 155t-139 54q-128 0 -229 -123
q-49 -59 -90 -160h406l-23 -157h-428q-19 -91 -21 -148h426l-20 -158h-406q13 -136 74.5 -209t157.5 -73z" />
    <glyph glyph-name="uni2116" unicode="&#x2116;" horiz-adv-x="2672" 
d="M2118 580q-183 0 -291.5 105t-108.5 269q0 213 145 360.5t359 147.5q184 0 292.5 -106t108.5 -271q0 -212 -145.5 -358.5t-359.5 -146.5zM1163 412l144 1022h256l-203 -1434h-240l-616 1018l-142 -1018h-256l201 1434h242zM2206 1247q-112 0 -179 -77.5t-67 -196.5
q0 -83 44.5 -130.5t129.5 -47.5q110 0 179 78.5t69 191.5q0 84 -46 133t-130 49zM1636 209l31 217h838l-31 -217h-838z" />
    <glyph glyph-name="trademark" unicode="&#x2122;" horiz-adv-x="1918" 
d="M180 1243l27 191h643l-25 -191h-221l-92 -645h-203l92 645h-221zM1696 1434h227l-119 -836h-198l75 541l-243 -330h-146l-151 330l-76 -541h-199l117 836h217l191 -410z" />
    <glyph glyph-name="uni2126" unicode="&#x2126;" horiz-adv-x="1638" 
d="M1403 414q-85 -117 -213 -185h278l-32 -229h-592l37 248q197 87 307 254q102 151 102 342q0 172 -97.5 274.5t-266.5 102.5q-192 0 -338 -136q-84 -76 -129 -187t-45 -232q0 -141 69.5 -247t198.5 -171l-35 -248h-592l33 229h279q-103 65 -157 179.5t-54 257.5
q0 170 71.5 330t198.5 270q218 196 516 196q174 0 313 -75.5t217 -212t78 -308.5q0 -257 -147 -452z" />
    <glyph glyph-name="estimated" unicode="&#x212e;" horiz-adv-x="1646" 
d="M854 0q-145 0 -275.5 52t-228.5 147q-97 94 -152 228.5t-55 289.5t55 291.5t152 230.5q98 92 229 143.5t275 51.5t274.5 -51.5t227.5 -143.5q98 -93 153.5 -230t55.5 -292v-25h-1196v-309q0 -72 20.5 -119t71.5 -84q171 -127 393 -127q172 0 315.5 75t231.5 210l43 -33
q-97 -145 -252 -225t-338 -80zM369 741h981v299q0 71 -20 120.5t-68 86.5q-177 133 -408 133q-222 0 -393 -127q-51 -37 -71.5 -84t-20.5 -120v-308z" />
    <glyph glyph-name="arrowleft" unicode="&#x2190;" 
d="M1401 831v-229h-914l283 -278l-152 -154l-526 547l526 547l152 -154l-283 -279h914z" />
    <glyph glyph-name="arrowup" unicode="&#x2191;" 
d="M1321 856l-154 -151l-278 282v-913h-230v913l-278 -282l-154 151l547 526z" />
    <glyph glyph-name="arrowright" unicode="&#x2192;" 
d="M891 1264l526 -547l-526 -547l-152 154l283 278h-913v229h913l-283 279z" />
    <glyph glyph-name="arrowdown" unicode="&#x2193;" 
d="M1128 735l154 -151l-547 -527l-547 527l154 151l279 -282v913h229v-913z" />
    <glyph glyph-name="uni2196" unicode="&#x2196;" 
d="M1262 338l-162 -162l-645 645l4 -395l-217 -2l14 760l760 12l-2 -215l-400 4z" />
    <glyph glyph-name="uni2197" unicode="&#x2197;" 
d="M1212 424l-215 2l2 395l-645 -645l-161 162l647 647l-400 -4l-2 215l760 -12z" />
    <glyph glyph-name="uni2198" unicode="&#x2198;" 
d="M995 1008l217 2l-14 -760l-760 -14l2 215l400 -2l-647 647l161 161l645 -645z" />
    <glyph glyph-name="uni2199" unicode="&#x2199;" 
d="M616 449l398 4l2 -217l-760 14l-14 760l215 -2l-2 -398l645 645l162 -159z" />
    <glyph glyph-name="partialdiff" unicode="&#x2202;" horiz-adv-x="1296" 
d="M717 1464q258 0 392 -143.5t134 -421.5q0 -236 -67.5 -454t-202.5 -332q-174 -144 -408 -144q-221 0 -353 121t-132 313q0 154 72.5 280t201 197.5t285.5 71.5q107 0 194.5 -38t141.5 -113h8q4 70 4 94q0 180 -74 259t-235 79q-139 0 -285 -66l-39 217q173 80 363 80z
M586 197q142 0 234.5 90.5t92.5 224.5q0 102 -67 161.5t-182 59.5q-141 0 -229.5 -88.5t-88.5 -226.5q0 -102 63.5 -161.5t176.5 -59.5z" />
    <glyph glyph-name="uni2206" unicode="&#x2206;" horiz-adv-x="1423" 
d="M926 1434l401 -1305l-98 -129h-1180l-63 129l770 1305h170zM1036 231l-245 818l-476 -818h721z" />
    <glyph glyph-name="product" unicode="&#x220f;" horiz-adv-x="1388" 
d="M1348 1516l-250 -1782h-260l217 1542h-508l-217 -1542h-260l249 1782h1029z" />
    <glyph glyph-name="summation" unicode="&#x2211;" horiz-adv-x="1101" 
d="M1188 1516l-33 -238h-655l379 -653l-564 -654h656l-33 -237h-954l32 237l562 654l-377 653l32 238h955z" />
    <glyph glyph-name="minus" unicode="&#x2212;" 
d="M270 539l31 221h920l-31 -221h-920z" />
    <glyph glyph-name="radical" unicode="&#x221a;" horiz-adv-x="1277" 
d="M1147 1516h264l-762 -1782h-266l-158 727h-207l33 237h391l117 -569z" />
    <glyph glyph-name="infinity" unicode="&#x221e;" horiz-adv-x="1529" 
d="M1167 1071q152 0 240 -88t88 -231q0 -125 -52 -228t-149 -164t-221 -61q-114 0 -186.5 49.5t-120.5 136.5q-74 -87 -158 -136.5t-198 -49.5q-151 0 -239.5 88.5t-88.5 230.5q0 125 52 228t149 164t221 61q114 0 185.5 -49.5t121.5 -138.5q73 89 157.5 138.5t198.5 49.5z
M432 498q70 0 125 48.5t119 143.5q-38 89 -80.5 135.5t-110.5 46.5q-84 0 -137 -67t-53 -158q0 -69 37 -109t100 -40zM1092 498q84 0 137 67t53 156q0 70 -37.5 110.5t-99.5 40.5q-70 0 -125 -48.5t-119 -143.5q38 -89 80.5 -135.5t110.5 -46.5z" />
    <glyph glyph-name="integral" unicode="&#x222b;" horiz-adv-x="815" 
d="M-70 -266l33 227h117q62 0 94 27.5t41 89.5l162 1151q22 153 101.5 220t240.5 67h194l-32 -228h-117q-62 0 -94 -27.5t-41 -89.5l-162 -1151q-22 -152 -102 -219t-240 -67h-195z" />
    <glyph glyph-name="approxequal" unicode="&#x2248;" 
d="M967 707q-75 0 -208 47t-208 47q-117 0 -258 -88l31 221q130 86 262 86q72 0 206.5 -47t202.5 -47q69 0 138.5 24.5t121.5 63.5l-30 -221q-134 -86 -258 -86zM907 279q-75 0 -207.5 47t-207.5 47q-65 0 -124.5 -20.5t-134.5 -67.5l31 223q127 84 262 84q72 0 207 -46
t203 -46t137 24.5t123 63.5l-31 -223q-134 -86 -258 -86z" />
    <glyph glyph-name="notequal" unicode="&#x2260;" 
d="M1221 752h-320l-121 -205h410l-31 -223h-508l-137 -236h-190l137 236h-221l30 223h320l121 205h-410l31 223h508l137 235h190l-137 -235h221z" />
    <glyph glyph-name="lessequal" unicode="&#x2264;" 
d="M1280 1198l-33 -235l-667 -211l608 -211l-31 -230l-874 332l30 223zM195 0l30 221h920l-31 -221h-919z" />
    <glyph glyph-name="greaterequal" unicode="&#x2265;" 
d="M362 1198l873 -332l-31 -223l-964 -332l30 234l672 211l-612 211zM195 0l30 221h920l-31 -221h-919z" />
    <glyph glyph-name="filledbox" unicode="&#x25a0;" horiz-adv-x="1845" 
d="M133 0l201 1434h1433l-200 -1434h-1434z" />
    <glyph glyph-name="triagup" unicode="&#x25b2;" horiz-adv-x="1843" 
d="M131 0l918 1434l516 -1434h-1434z" />
    <glyph glyph-name="triagdn" unicode="&#x25bc;" horiz-adv-x="1843" 
d="M850 0l-516 1434h1433z" />
    <glyph glyph-name="uni25C6" unicode="&#x25c6;" horiz-adv-x="1843" 
d="M846 0l-615 715l816 719l618 -719z" />
    <glyph glyph-name="lozenge" unicode="&#x25ca;" horiz-adv-x="1320" 
d="M891 1434l414 -717l-617 -717h-203l-413 717l614 717h205zM616 246l410 479l-266 463l-410 -477z" />
    <glyph glyph-name="uni25CF" unicode="&#x25cf;" horiz-adv-x="1841" 
d="M848 0q-177 0 -320 81t-223 222t-80 313q0 161 69 312.5t182 262t264 177t309 66.5q177 0 320 -81.5t222.5 -222.5t79.5 -313q0 -161 -69 -312.5t-181.5 -261.5t-263.5 -176.5t-309 -66.5z" />
    <glyph glyph-name="uni2610" unicode="&#x2610;" horiz-adv-x="1843" 
d="M133 0l201 1434h1431l-200 -1434h-1432zM317 154h1106l158 1126h-1106z" />
    <glyph glyph-name="uni2611" unicode="&#x2611;" horiz-adv-x="1843" 
d="M334 1434h1431l-200 -1434h-1432zM1423 154l158 1126h-1106l-158 -1126h1106zM827 588l344 596l179 -137l-461 -797l-342 268l117 201z" />
    <glyph glyph-name="uni2612" unicode="&#x2612;" horiz-adv-x="1843" 
d="M334 1434h1431l-200 -1434h-1432zM1423 154l158 1126h-1106l-158 -1126h1106zM1303 1159l131 -149l-334 -293l250 -293l-176 -150l-246 291l-332 -291l-131 150l334 293l-248 293l174 149l246 -291z" />
    <glyph glyph-name="heart" unicode="&#x2665;" horiz-adv-x="1843" 
d="M862 98q-53 59 -123.5 119t-129.5 101t-119.5 92t-102 98t-68 112.5t-26.5 141.5q0 197 123 338t301 141q119 0 196 -73t68 -205h4q29 132 126 205t216 73q128 0 219.5 -87t91.5 -245q0 -104 -36.5 -192.5t-93 -149.5t-140 -123.5t-162.5 -109t-177 -111.5t-167 -125z
" />
    <glyph glyph-name="uni2B51" unicode="&#x2b51;" horiz-adv-x="1843" 
d="M373 -6l260 557l-420 340h582l256 553l100 -555h584l-521 -342l103 -553l-422 344z" />
    <glyph glyph-name="uni00A40301" horiz-adv-x="1189" 
d="M870 1593l275 324h301l-326 -324h-250zM440 -29q-148 0 -263.5 54t-184.5 151l170 176q107 -133 274 -133q134 0 225.5 85t112.5 239l125 891h260l-129 -926q-37 -256 -191 -396.5t-399 -140.5z" />
    <glyph glyph-name="i.loclTRK" horiz-adv-x="563" 
d="M383 1217q-65 0 -103 35.5t-38 93.5q0 77 51.5 129.5t128.5 52.5q65 0 103 -36t38 -95q0 -76 -51.5 -128t-128.5 -52zM84 0l147 1042h250l-147 -1042h-250z" />
    <glyph glyph-name="uni006A0301" horiz-adv-x="563" 
d="M201 1202l215 324h291l-265 -324h-241zM-76 -440q-71 0 -137 14l31 217q58 -10 92 -10q78 0 115.5 35t48.5 110l157 1116h250l-164 -1157q-22 -161 -117.5 -243t-275.5 -82z" />
    <glyph glyph-name="a.ss01" horiz-adv-x="1165" 
d="M649 1071q204 0 310.5 -106t80.5 -293l-96 -672h-219l23 162q-48 -85 -144.5 -135t-222.5 -50q-151 0 -244.5 76.5t-93.5 204.5q0 78 33 148.5t94 117.5q122 92 348 92h270l7 48q13 96 -28.5 142t-141.5 46q-175 0 -308 -127l-131 158q82 89 203 138.5t260 49.5zM453 168
q119 0 206.5 68.5t100.5 175.5l6 39h-240q-133 0 -188 -58q-43 -40 -43 -108q0 -56 40 -86.5t118 -30.5z" />
    <glyph glyph-name="aacute.ss01" horiz-adv-x="1165" 
d="M1077 1526l-325 -324h-250l274 324h301zM649 1071q204 0 310.5 -106t80.5 -293l-96 -672h-219l23 162q-48 -85 -144.5 -135t-222.5 -50q-151 0 -244.5 76.5t-93.5 204.5q0 78 33 148.5t94 117.5q122 92 348 92h270l7 48q13 96 -28.5 142t-141.5 46q-175 0 -308 -127
l-131 158q82 89 203 138.5t260 49.5zM453 168q119 0 206.5 68.5t100.5 175.5l6 39h-240q-133 0 -188 -58q-43 -40 -43 -108q0 -56 40 -86.5t118 -30.5z" />
    <glyph glyph-name="abreve.ss01" horiz-adv-x="1165" 
d="M858 1499h205l-2 -16q-21 -137 -119 -216t-254 -79q-145 0 -227 66t-82 182q0 26 6 63h203q-2 -12 -2 -37q0 -110 110 -110q65 0 108.5 38.5t53.5 108.5zM649 1071q204 0 310.5 -106t80.5 -293l-96 -672h-219l23 162q-48 -85 -144.5 -135t-222.5 -50q-151 0 -244.5 76.5
t-93.5 204.5q0 78 33 148.5t94 117.5q122 92 348 92h270l7 48q13 96 -28.5 142t-141.5 46q-175 0 -308 -127l-131 158q82 89 203 138.5t260 49.5zM453 168q119 0 206.5 68.5t100.5 175.5l6 39h-240q-133 0 -188 -58q-43 -40 -43 -108q0 -56 40 -86.5t118 -30.5z" />
    <glyph glyph-name="uni01CE.ss01" horiz-adv-x="1165" 
d="M803 1202h-242l-244 324h244l133 -183l183 183h260zM649 1071q204 0 310.5 -106t80.5 -293l-96 -672h-219l23 162q-48 -85 -144.5 -135t-222.5 -50q-151 0 -244.5 76.5t-93.5 204.5q0 78 33 148.5t94 117.5q122 92 348 92h270l7 48q13 96 -28.5 142t-141.5 46
q-175 0 -308 -127l-131 158q82 89 203 138.5t260 49.5zM453 168q119 0 206.5 68.5t100.5 175.5l6 39h-240q-133 0 -188 -58q-43 -40 -43 -108q0 -56 40 -86.5t118 -30.5z" />
    <glyph glyph-name="acircumflex.ss01" horiz-adv-x="1165" 
d="M715 1384l-183 -182h-260l334 324h242l244 -324h-242zM649 1071q204 0 310.5 -106t80.5 -293l-96 -672h-219l23 162q-48 -85 -144.5 -135t-222.5 -50q-151 0 -244.5 76.5t-93.5 204.5q0 78 33 148.5t94 117.5q122 92 348 92h270l7 48q13 96 -28.5 142t-141.5 46
q-175 0 -308 -127l-131 158q82 89 203 138.5t260 49.5zM453 168q119 0 206.5 68.5t100.5 175.5l6 39h-240q-133 0 -188 -58q-43 -40 -43 -108q0 -56 40 -86.5t118 -30.5z" />
    <glyph glyph-name="adieresis.ss01" horiz-adv-x="1165" 
d="M451 1217q-64 0 -102 36t-38 95q0 76 51 128t127 52q64 0 102 -36t38 -95q0 -74 -52 -127t-126 -53zM963 1528q63 0 100 -36t37 -95q0 -74 -51 -127t-127 -53q-64 0 -102 36t-38 95q0 75 52.5 127.5t128.5 52.5zM649 1071q204 0 310.5 -106t80.5 -293l-96 -672h-219
l23 162q-48 -85 -144.5 -135t-222.5 -50q-151 0 -244.5 76.5t-93.5 204.5q0 78 33 148.5t94 117.5q122 92 348 92h270l7 48q13 96 -28.5 142t-141.5 46q-175 0 -308 -127l-131 158q82 89 203 138.5t260 49.5zM453 168q119 0 206.5 68.5t100.5 175.5l6 39h-240
q-133 0 -188 -58q-43 -40 -43 -108q0 -56 40 -86.5t118 -30.5z" />
    <glyph glyph-name="agrave.ss01" horiz-adv-x="1165" 
d="M864 1202h-246l-237 324h295zM649 1071q204 0 310.5 -106t80.5 -293l-96 -672h-219l23 162q-48 -85 -144.5 -135t-222.5 -50q-151 0 -244.5 76.5t-93.5 204.5q0 78 33 148.5t94 117.5q122 92 348 92h270l7 48q13 96 -28.5 142t-141.5 46q-175 0 -308 -127l-131 158
q82 89 203 138.5t260 49.5zM453 168q119 0 206.5 68.5t100.5 175.5l6 39h-240q-133 0 -188 -58q-43 -40 -43 -108q0 -56 40 -86.5t118 -30.5z" />
    <glyph glyph-name="amacron.ss01" horiz-adv-x="1165" 
d="M1042 1432l-26 -197h-660l27 197h659zM649 1071q204 0 310.5 -106t80.5 -293l-96 -672h-219l23 162q-48 -85 -144.5 -135t-222.5 -50q-151 0 -244.5 76.5t-93.5 204.5q0 78 33 148.5t94 117.5q122 92 348 92h270l7 48q13 96 -28.5 142t-141.5 46q-175 0 -308 -127
l-131 158q82 89 203 138.5t260 49.5zM453 168q119 0 206.5 68.5t100.5 175.5l6 39h-240q-133 0 -188 -58q-43 -40 -43 -108q0 -56 40 -86.5t118 -30.5z" />
    <glyph glyph-name="aogonek.ss01" horiz-adv-x="1165" 
d="M649 1071q204 0 310.5 -106t80.5 -293l-96 -670l2 -2q-9 -6 -39 -27t-42 -29.5t-36.5 -27t-36 -30t-26 -27.5t-20 -29.5t-5.5 -26.5q0 -55 101 -55h69l-26 -186h-111q-123 0 -191.5 46t-68.5 124q0 153 211 272l23 158q-48 -85 -144.5 -135t-222.5 -50
q-151 0 -244.5 76.5t-93.5 204.5q0 78 33 148.5t94 117.5q122 92 348 92h270l7 48q13 96 -28.5 142t-141.5 46q-175 0 -308 -127l-131 158q82 89 203 138.5t260 49.5zM453 168q119 0 206.5 68.5t100.5 175.5l6 39h-240q-133 0 -188 -58q-43 -40 -43 -108q0 -56 40 -86.5
t118 -30.5z" />
    <glyph glyph-name="aring.ss01" horiz-adv-x="1165" 
d="M684 1176q-108 0 -180 65t-72 162q0 121 93 208t220 87q108 0 179 -65.5t71 -162.5q0 -122 -92.5 -208t-218.5 -86zM735 1548q-59 0 -97 -38.5t-38 -96.5q0 -41 24.5 -64.5t69.5 -23.5q59 0 97 39t38 94q0 42 -24.5 66t-69.5 24zM649 1071q204 0 310.5 -106t80.5 -293
l-96 -672h-219l23 162q-48 -85 -144.5 -135t-222.5 -50q-151 0 -244.5 76.5t-93.5 204.5q0 78 33 148.5t94 117.5q122 92 348 92h270l7 48q13 96 -28.5 142t-141.5 46q-175 0 -308 -127l-131 158q82 89 203 138.5t260 49.5zM453 168q119 0 206.5 68.5t100.5 175.5l6 39h-240
q-133 0 -188 -58q-43 -40 -43 -108q0 -56 40 -86.5t118 -30.5z" />
    <glyph glyph-name="atilde.ss01" horiz-adv-x="1165" 
d="M578 1327q-63 0 -74 -108h-180q15 146 77.5 221.5t165.5 75.5q45 0 83.5 -18t84.5 -56q58 -45 96 -45q63 0 74 108h180q-15 -146 -77.5 -221.5t-165.5 -75.5q-79 0 -168 74q-59 45 -96 45zM649 1071q204 0 310.5 -106t80.5 -293l-96 -672h-219l23 162
q-48 -85 -144.5 -135t-222.5 -50q-151 0 -244.5 76.5t-93.5 204.5q0 78 33 148.5t94 117.5q122 92 348 92h270l7 48q13 96 -28.5 142t-141.5 46q-175 0 -308 -127l-131 158q82 89 203 138.5t260 49.5zM453 168q119 0 206.5 68.5t100.5 175.5l6 39h-240q-133 0 -188 -58
q-43 -40 -43 -108q0 -56 40 -86.5t118 -30.5z" />
    <glyph glyph-name="j.ss02" horiz-adv-x="561" 
d="M385 1217q-70 0 -109.5 42.5t-33.5 110.5q5 68 52.5 113t117.5 45q73 0 113 -44t34 -112q-5 -67 -53 -111t-121 -44zM25 -410l204 1452h250l-205 -1452h-249z" />
    <glyph glyph-name="uni0237.ss02" horiz-adv-x="563" 
d="M27 -410l204 1452h250l-205 -1452h-249z" />
    <glyph glyph-name="uni006A0301.ss02" horiz-adv-x="563" 
d="M201 1202l215 324h291l-265 -324h-241zM27 -410l204 1452h250l-205 -1452h-249z" />
    <glyph glyph-name="jcircumflex.ss02" horiz-adv-x="563" 
d="M541 1526l194 -324h-227l-100 189l-150 -189h-233l282 324h234zM27 -410l204 1452h250l-205 -1452h-249z" />
    <glyph glyph-name="t.ss03" horiz-adv-x="819" 
d="M211 0l117 823h-248l31 219h247l43 308h250l-43 -308h248l-31 -219h-247l-117 -823h-250z" />
    <glyph glyph-name="tbar.ss03" horiz-adv-x="819" 
d="M825 823h-247l-31 -215h213l-25 -166h-211l-63 -442h-250l63 442h-211l23 166h211l31 215h-248l31 219h247l43 308h250l-43 -308h248z" />
    <glyph glyph-name="tcaron.ss03" horiz-adv-x="890" 
d="M762 1169l57 422h250l-117 -422h-190zM211 0l117 823h-248l31 219h247l43 308h250l-43 -308h248l-31 -219h-247l-117 -823h-250z" />
    <glyph glyph-name="uni0163.ss03" horiz-adv-x="819" 
d="M211 0l117 823h-248l31 219h247l43 308h250l-43 -308h248l-31 -219h-247l-117 -823h-250zM57 -530l121 356h252l-180 -356h-193z" />
    <glyph glyph-name="uni021B.ss03" horiz-adv-x="819" 
d="M211 0l117 823h-248l31 219h247l43 308h250l-43 -308h248l-31 -219h-247l-117 -823h-250zM57 -530l121 356h252l-180 -356h-193z" />
    <glyph glyph-name="y.ss04" horiz-adv-x="1241" 
d="M913 1042h248l-135 -952q-36 -257 -185 -392.5t-407 -135.5q-134 0 -248 38.5t-178 106.5l123 182q119 -104 297 -104q150 0 240 78t112 227l15 105q-56 -87 -150.5 -136t-210.5 -49q-147 0 -231 80t-84 229q0 37 6 84l90 639h250l-82 -575q-1 -8 -3.5 -34t-2.5 -38
q0 -83 38 -120t122 -37q116 0 198 65.5t99 177.5z" />
    <glyph glyph-name="yacute.ss04" horiz-adv-x="1241" 
d="M1108 1526l-326 -324h-250l275 324h301zM913 1042h248l-135 -952q-36 -257 -185 -392.5t-407 -135.5q-134 0 -248 38.5t-178 106.5l123 182q119 -104 297 -104q150 0 240 78t112 227l15 105q-56 -87 -150.5 -136t-210.5 -49q-147 0 -231 80t-84 229q0 37 6 84l90 639h250
l-82 -575q-1 -8 -3.5 -34t-2.5 -38q0 -83 38 -120t122 -37q116 0 198 65.5t99 177.5z" />
    <glyph glyph-name="ycircumflex.ss04" horiz-adv-x="1241" 
d="M743 1384l-182 -182h-260l334 324h242l243 -324h-241zM913 1042h248l-135 -952q-36 -257 -185 -392.5t-407 -135.5q-134 0 -248 38.5t-178 106.5l123 182q119 -104 297 -104q150 0 240 78t112 227l15 105q-56 -87 -150.5 -136t-210.5 -49q-147 0 -231 80t-84 229
q0 37 6 84l90 639h250l-82 -575q-1 -8 -3.5 -34t-2.5 -38q0 -83 38 -120t122 -37q116 0 198 65.5t99 177.5z" />
    <glyph glyph-name="ydieresis.ss04" horiz-adv-x="1241" 
d="M479 1217q-64 0 -101.5 36t-37.5 95q0 76 51 128t127 52q64 0 101.5 -36t37.5 -95q0 -74 -52 -127t-126 -53zM950 1217q-64 0 -101.5 36t-37.5 95q0 75 52 127.5t128 52.5q63 0 100 -36t37 -95q0 -74 -51 -127t-127 -53zM913 1042h248l-135 -952q-36 -257 -185 -392.5
t-407 -135.5q-134 0 -248 38.5t-178 106.5l123 182q119 -104 297 -104q150 0 240 78t112 227l15 105q-56 -87 -150.5 -136t-210.5 -49q-147 0 -231 80t-84 229q0 37 6 84l90 639h250l-82 -575q-1 -8 -3.5 -34t-2.5 -38q0 -83 38 -120t122 -37q116 0 198 65.5t99 177.5z" />
    <glyph glyph-name="ygrave.ss04" horiz-adv-x="1241" 
d="M893 1202h-246l-237 324h295zM913 1042h248l-135 -952q-36 -257 -185 -392.5t-407 -135.5q-134 0 -248 38.5t-178 106.5l123 182q119 -104 297 -104q150 0 240 78t112 227l15 105q-56 -87 -150.5 -136t-210.5 -49q-147 0 -231 80t-84 229q0 37 6 84l90 639h250l-82 -575
q-1 -8 -3.5 -34t-2.5 -38q0 -83 38 -120t122 -37q116 0 198 65.5t99 177.5z" />
    <glyph glyph-name="zero.zero" horiz-adv-x="1433" 
d="M842 1462q238 0 372 -149t134 -422q0 -225 -75.5 -436.5t-217.5 -335.5q-174 -148 -408 -148q-238 0 -372 148.5t-134 421.5q0 202 63 401t181 324q181 196 457 196zM551 1092q-71 -94 -108 -249t-37 -302q0 -126 34 -201l512 862q-55 27 -127 27q-169 0 -274 -137z
M913 313q84 90 128 256.5t44 323.5q0 128 -32 199l-512 -863q53 -24 125 -24q148 0 247 108z" />
    <glyph glyph-name="zero.lf" horiz-adv-x="1433" 
d="M647 -29q-238 0 -372 148.5t-134 421.5q0 202 63 401t181 324q181 196 457 196q238 0 372 -149t134 -422q0 -225 -75.5 -436.5t-217.5 -335.5q-174 -148 -408 -148zM666 205q148 0 247 108q84 90 128 256.5t44 323.5q0 172 -65.5 254t-194.5 82q-169 0 -274 -137
q-71 -94 -108 -249t-37 -302q0 -336 260 -336z" />
    <glyph glyph-name="one.lf" horiz-adv-x="878" 
d="M606 1434h213l-201 -1434h-253l163 1165l-378 -176l32 244z" />
    <glyph glyph-name="two.lf" horiz-adv-x="1196" 
d="M848 594l-436 -361h657l-33 -233h-1030l29 201l583 481q143 117 215 206t72 183q0 76 -49 117t-137 41q-216 0 -383 -244l-184 127q97 169 247 259.5t336 90.5q195 0 313.5 -100.5t118.5 -261.5q0 -140 -82.5 -259.5t-236.5 -246.5z" />
    <glyph glyph-name="three.lf" horiz-adv-x="1167" 
d="M846 727q108 -37 164.5 -109t56.5 -174q0 -104 -48.5 -200t-131.5 -158q-149 -115 -391 -115q-156 0 -283 54t-209 159l164 168q134 -149 332 -149q144 0 233 73q78 68 78 168q0 168 -301 168h-121l33 226h156q158 0 237 73q32 31 49 74t17 84q0 77 -52 119.5t-157 42.5
q-191 0 -361 -170l-151 160q207 241 538 241q200 0 321.5 -94.5t121.5 -251.5q0 -92 -38 -175t-106 -138q-60 -51 -151 -76z" />
    <glyph glyph-name="four.lf" horiz-adv-x="1269" 
d="M1235 510l-31 -213h-190l-43 -297h-244l41 297h-731l29 211l804 926h304l-132 -924h193zM326 510h473l92 649z" />
    <glyph glyph-name="five.lf" horiz-adv-x="1204" 
d="M1141 1204h-654l-49 -362q114 63 264 63q190 0 308 -105t118 -282q0 -126 -54.5 -242t-153.5 -188q-154 -117 -400 -117q-308 0 -487 211l160 172q136 -151 333 -151q155 0 248 80q94 82 94 211q0 92 -59 144t-168 52q-148 0 -281 -88l-180 103l103 729h888z" />
    <glyph glyph-name="six.lf" horiz-adv-x="1243" 
d="M737 977q193 0 319 -120.5t126 -311.5q0 -131 -60.5 -251t-165.5 -198q-166 -125 -397 -125q-215 0 -349 121t-134 326q0 177 106 364q73 130 193 262l350 390h303l-453 -488q79 31 162 31zM817 283q50 45 77.5 110.5t27.5 136.5q0 108 -65 169t-185 61q-170 0 -266 -113
q-72 -90 -72 -223q0 -107 64.5 -166t183.5 -59q145 0 235 84z" />
    <glyph glyph-name="seven.lf" horiz-adv-x="1083" 
d="M170 1434h999l-28 -213l-758 -1221h-281l756 1200h-721z" />
    <glyph glyph-name="eight.lf" horiz-adv-x="1280" 
d="M950 735q109 -40 166.5 -116t57.5 -179q0 -114 -58.5 -211.5t-159.5 -158.5q-156 -99 -385 -99q-237 0 -369 100.5t-132 262.5q0 101 46 188t130 146q70 48 147 69q-186 83 -186 273q0 94 45 183t121 148q150 121 391 121q218 0 340.5 -98t122.5 -252q0 -98 -46 -182.5
t-130 -141.5q-55 -36 -101 -53zM526 1174q-69 -66 -69 -170q0 -81 55.5 -125.5t167.5 -44.5q142 0 217 69q74 65 74 174q0 80 -56 125t-167 45q-146 0 -222 -73zM821 260q92 69 92 184q0 85 -62.5 134t-188.5 49q-161 0 -250 -80q-74 -65 -74 -174q0 -83 61 -131.5
t187 -48.5q146 0 235 67z" />
    <glyph glyph-name="nine.lf" horiz-adv-x="1243" 
d="M735 1462q217 0 352.5 -118.5t135.5 -319.5q0 -164 -97 -354q-77 -142 -202 -281l-351 -389h-305l457 487q-77 -30 -164 -30q-192 0 -317 120t-125 310q0 124 53.5 240t146.5 194q171 141 416 141zM872 770q95 92 95 240q0 106 -65 165.5t-185 59.5q-151 0 -244 -90
q-96 -93 -96 -246q0 -107 63 -166t183 -59q156 0 249 96z" />
    <glyph glyph-name="zero.tf" 
d="M657 -29q-230 0 -353.5 143t-123.5 410q0 208 61 414.5t177 333.5q169 190 434 190q230 0 354.5 -144t124.5 -411q0 -227 -72 -445.5t-208 -344.5q-161 -146 -394 -146zM672 205q142 0 233 104q81 92 122.5 266.5t41.5 339.5q0 163 -56.5 238.5t-178.5 75.5
q-158 0 -254 -131q-67 -96 -103.5 -264t-36.5 -320q0 -159 56.5 -234t175.5 -75z" />
    <glyph glyph-name="one.tf" 
d="M885 229h338l-35 -229h-975l33 229h385l131 936l-379 -176l33 244l424 201h213z" />
    <glyph glyph-name="two.tf" 
d="M979 594l-434 -361h655l-33 -233h-1030l29 201l584 481q69 56 114.5 99t88 93t63 98.5t20.5 98.5q0 76 -49 117t-137 41q-213 0 -383 -244l-184 127q99 169 248.5 259.5t334.5 90.5q195 0 313.5 -100.5t118.5 -261.5q0 -140 -82.5 -259.5t-236.5 -246.5z" />
    <glyph glyph-name="three.tf" 
d="M987 727q108 -37 164.5 -109t56.5 -174q0 -104 -48.5 -200t-131.5 -158q-149 -115 -391 -115q-156 0 -283 54t-209 159l164 168q134 -149 332 -149q144 0 233 73q78 68 78 168q0 168 -301 168h-121l33 226h156q158 0 237 73q32 31 49 74t17 84q0 77 -52 119.5t-157 42.5
q-190 0 -360 -170l-152 160q207 241 539 241q200 0 321 -94.5t121 -251.5q0 -92 -37.5 -175t-105.5 -138q-60 -51 -152 -76z" />
    <glyph glyph-name="four.tf" 
d="M1337 510l-30 -213h-193l-41 -297h-246l43 297h-731l29 211l805 926h301l-129 -924h192zM428 510h471l92 649z" />
    <glyph glyph-name="five.tf" 
d="M1272 1204h-651l-50 -362q114 63 265 63q190 0 308 -105t118 -282q0 -126 -55 -242t-154 -188q-157 -117 -402 -117q-306 0 -485 211l158 172q139 -151 335 -151q155 0 248 80q94 82 94 211q0 92 -60 144t-169 52q-144 0 -280 -88l-179 103l103 729h889z" />
    <glyph glyph-name="six.tf" 
d="M848 977q192 0 318 -121t126 -311q0 -130 -60.5 -250.5t-164.5 -198.5q-166 -125 -397 -125q-216 0 -350 121t-134 326q0 175 107 364q74 133 192 262l351 390h303l-455 -488q82 31 164 31zM928 283q50 45 77 110t27 137q0 108 -65 169t-187 61q-168 0 -264 -113
q-74 -92 -74 -223q0 -106 65.5 -165.5t184.5 -59.5q146 0 236 84z" />
    <glyph glyph-name="seven.tf" 
d="M358 1434h1033l-31 -213l-756 -1221h-282l755 1200h-751z" />
    <glyph glyph-name="eight.tf" 
d="M1040 735q110 -40 168 -116t58 -179q0 -114 -58.5 -211.5t-158.5 -158.5q-159 -99 -387 -99q-237 0 -368.5 100.5t-131.5 262.5q0 101 45.5 188.5t128.5 145.5q68 46 147 69q-186 83 -186 273q0 95 45.5 183.5t122.5 147.5q146 121 389 121q218 0 340.5 -98t122.5 -252
q0 -98 -46 -182.5t-130 -141.5q-47 -33 -101 -53zM618 1174q-69 -63 -69 -170q0 -80 55 -125t166 -45q142 0 217 69q76 67 76 174q0 80 -56 125t-169 45q-147 0 -220 -73zM911 260q93 68 93 184q0 85 -63 134t-189 49q-161 0 -250 -80q-72 -66 -72 -174q0 -84 60.5 -132
t187.5 -48q147 0 233 67z" />
    <glyph glyph-name="nine.tf" 
d="M842 1462q217 0 352 -118.5t135 -319.5q0 -166 -96 -354q-76 -139 -203 -281l-350 -389h-303l457 487q-80 -30 -164 -30q-194 0 -319.5 120t-125.5 310q0 123 54 239.5t147 194.5q171 141 416 141zM979 770q94 91 94 240q0 106 -65 165.5t-185 59.5q-150 0 -243 -90
q-97 -94 -97 -246q0 -107 63.5 -166t182.5 -59q157 0 250 96z" />
    <glyph glyph-name="zero.tf.zero" 
d="M852 1462q230 0 354.5 -144t124.5 -411q0 -227 -72 -445.5t-208 -344.5q-161 -146 -394 -146q-230 0 -353.5 143t-123.5 410q0 208 61 414.5t177 333.5q169 190 434 190zM580 1098q-67 -96 -103.5 -264t-36.5 -320q0 -88 19 -156l499 842q-48 29 -124 29
q-158 0 -254 -131zM905 309q81 92 122.5 266.5t41.5 339.5q0 94 -18 158l-500 -842q48 -26 121 -26q142 0 233 104z" />
    <glyph glyph-name="zero.subs" horiz-adv-x="784" 
d="M299 -152q-133 0 -208 82t-75 230q0 106 35 211.5t99 173.5q101 110 260 110q133 0 207.5 -81.5t74.5 -229.5q0 -112 -39 -222.5t-110 -178.5q-101 -95 -244 -95zM315 20q68 0 109 50q36 42 56 125t20 153q0 71 -26 103t-81 32q-77 0 -121 -61q-30 -42 -46.5 -122
t-16.5 -144q0 -71 25.5 -103.5t80.5 -32.5z" />
    <glyph glyph-name="one.subs" horiz-adv-x="505" 
d="M268 639h158l-109 -774h-186l82 575l-184 -84l24 181z" />
    <glyph glyph-name="two.subs" horiz-adv-x="677" 
d="M451 190l-185 -153h295l-22 -172h-576l21 143l295 246q70 57 104.5 95.5t34.5 74.5q0 25 -19.5 41t-52.5 16q-92 0 -176 -112l-135 94q48 88 135 140t192 52q110 0 180 -57.5t70 -146.5q0 -73 -43 -135.5t-118 -125.5z" />
    <glyph glyph-name="three.subs" horiz-adv-x="661" 
d="M440 258q111 -40 111 -162q0 -108 -84 -177t-219 -69q-186 0 -285 117l111 129q71 -71 172 -71q55 0 85.5 21t30.5 60q0 66 -108 66h-84l25 166h75q129 0 129 84q0 59 -84 59q-88 0 -172 -75l-116 118q122 131 305 131q116 0 188 -54t72 -148q0 -71 -41.5 -122.5
t-110.5 -72.5z" />
    <glyph glyph-name="four.subs" horiz-adv-x="720" 
d="M645 166l-22 -156h-93l-20 -145h-172l20 145h-387l23 156l407 473h217l-65 -473h92zM182 166h199l37 272z" />
    <glyph glyph-name="five.subs" horiz-adv-x="686" 
d="M356 360q106 0 171 -57.5t65 -155.5q0 -138 -92.5 -218.5t-247.5 -80.5q-172 0 -283 117l111 129q73 -76 170 -76q68 0 108.5 30.5t40.5 84.5q0 36 -23.5 57t-68.5 21q-67 0 -123 -41l-129 72l58 397h495l-24 -168h-322l-18 -131q47 20 112 20z" />
    <glyph glyph-name="six.subs" horiz-adv-x="706" 
d="M371 389q105 0 174 -64t69 -165q0 -135 -100 -223.5t-244 -88.5q-123 0 -201.5 67.5t-78.5 178.5q0 168 176 359l170 186h217l-238 -256q24 6 56 6zM283 14q63 0 103 36.5t40 96.5q0 45 -27 70t-77 25q-65 0 -104.5 -37.5t-39.5 -98.5q0 -43 28 -67.5t77 -24.5z" />
    <glyph glyph-name="seven.subs" horiz-adv-x="620" 
d="M47 639h559l-20 -156l-381 -618h-213l379 600h-348z" />
    <glyph glyph-name="eight.subs" horiz-adv-x="720" 
d="M496 260q116 -47 116 -156q0 -119 -96 -187.5t-240 -68.5q-137 0 -213.5 56.5t-76.5 146.5q0 154 168 213q-95 45 -95 144q0 113 90 180t224 67q126 0 196 -53.5t70 -138.5q0 -73 -38 -124.5t-105 -78.5zM362 500q-57 0 -89.5 -27t-32.5 -74q0 -67 94 -67q57 0 89 27
t32 73q0 68 -93 68zM287 8q62 0 98.5 26.5t36.5 74.5q0 35 -27.5 55t-81.5 20q-61 0 -96 -27t-35 -77q0 -72 105 -72z" />
    <glyph glyph-name="nine.subs" horiz-adv-x="708" 
d="M362 655q125 0 203 -67t78 -180q0 -166 -176 -357l-170 -186h-219l237 256q-24 -6 -53 -6q-105 0 -174.5 65t-69.5 166q0 135 99 222t245 87zM315 264q64 0 102 37t38 96q0 43 -28 67.5t-79 24.5q-64 0 -102.5 -39t-38.5 -96q0 -43 28 -66.5t80 -23.5z" />
    <glyph glyph-name="zero.dnom" horiz-adv-x="784" 
d="M315 -29q-133 0 -207.5 82t-74.5 230q0 106 34.5 211.5t98.5 173.5q101 110 260 110q133 0 208 -81.5t75 -229.5q0 -112 -39.5 -222.5t-110.5 -178.5q-101 -95 -244 -95zM332 143q67 0 108 50q36 42 56 125t20 153q0 71 -25.5 103t-80.5 32q-77 0 -121 -61
q-30 -42 -47 -122t-17 -144q0 -71 26 -103.5t81 -32.5z" />
    <glyph glyph-name="one.dnom" horiz-adv-x="505" 
d="M285 762h157l-108 -774h-187l82 575l-184 -84l25 180z" />
    <glyph glyph-name="two.dnom" horiz-adv-x="677" 
d="M467 313l-184 -153h295l-23 -172h-575l20 143l295 246q70 57 104.5 95.5t34.5 74.5q0 25 -19.5 41t-52.5 16q-92 0 -176 -112l-135 94q48 88 135.5 140t192.5 52q110 0 180 -57.5t70 -147.5q0 -73 -43 -135t-119 -125z" />
    <glyph glyph-name="three.dnom" horiz-adv-x="661" 
d="M457 381q110 -40 110 -162q0 -108 -84 -177t-219 -69q-185 0 -284 117l110 129q72 -72 172 -72q55 0 86 21.5t31 60.5q0 66 -109 66h-84l25 166h76q129 0 129 84q0 59 -84 59q-87 0 -172 -76l-117 119q122 131 305 131q116 0 188 -54.5t72 -148.5q0 -71 -41 -122
t-110 -72z" />
    <glyph glyph-name="four.dnom" horiz-adv-x="720" 
d="M662 289l-23 -156h-92l-21 -145h-172l21 145h-387l22 156l408 473h217l-66 -473h93zM199 289h198l37 272z" />
    <glyph glyph-name="five.dnom" horiz-adv-x="686" 
d="M373 483q106 0 170.5 -57.5t64.5 -155.5q0 -138 -92.5 -218.5t-247.5 -80.5q-171 0 -282 117l110 129q73 -76 170 -76q68 0 109 31t41 84q0 36 -23.5 57t-68.5 21q-67 0 -123 -41l-129 72l57 397h496l-25 -168h-321l-19 -131q47 20 113 20z" />
    <glyph glyph-name="six.dnom" horiz-adv-x="706" 
d="M387 512q105 0 174.5 -64.5t69.5 -164.5q0 -135 -100 -223.5t-244 -88.5q-123 0 -202 67.5t-79 178.5q0 167 176 358l170 187h217l-237 -256q24 6 55 6zM299 137q63 0 103 36.5t40 96.5q0 45 -27 70t-77 25q-65 0 -104 -37.5t-39 -98.5q0 -43 27.5 -67.5t76.5 -24.5z" />
    <glyph glyph-name="seven.dnom" horiz-adv-x="620" 
d="M63 762h560l-21 -156l-381 -618h-213l379 600h-348z" />
    <glyph glyph-name="eight.dnom" horiz-adv-x="720" 
d="M512 383q117 -48 117 -156q0 -119 -96 -187.5t-240 -68.5q-137 0 -214 56.5t-77 146.5q0 154 168 213q-94 45 -94 143q0 113 89.5 180.5t223.5 67.5q126 0 196 -53.5t70 -138.5q0 -73 -38 -124.5t-105 -78.5zM379 623q-57 0 -90 -27t-33 -74q0 -67 94 -67q57 0 89 27
t32 73q0 68 -92 68zM303 131q62 0 98.5 26t36.5 74q0 35 -27 55.5t-81 20.5q-61 0 -96 -27t-35 -77q0 -72 104 -72z" />
    <glyph glyph-name="nine.dnom" horiz-adv-x="708" 
d="M379 778q124 0 202 -67.5t78 -180.5q0 -165 -176 -356l-170 -186h-219l238 256q-24 -6 -53 -6q-105 0 -174.5 65t-69.5 166q0 135 99 222t245 87zM332 387q64 0 101.5 37t37.5 96q0 43 -27.5 67.5t-78.5 24.5q-64 0 -103 -39t-39 -96q0 -43 28.5 -66.5t80.5 -23.5z" />
    <glyph glyph-name="zero.numr" horiz-adv-x="784" 
d="M412 655q-133 0 -208 82t-75 230q0 106 34.5 211.5t98.5 173.5q101 110 260 110q133 0 208 -81.5t75 -229.5q0 -112 -39.5 -222.5t-110.5 -178.5q-101 -95 -243 -95zM428 827q68 0 109 50q36 42 55.5 124.5t19.5 153.5t-25.5 103t-80.5 32q-77 0 -121 -61
q-30 -42 -46.5 -122t-16.5 -144q0 -71 25.5 -103.5t80.5 -32.5z" />
    <glyph glyph-name="one.numr" horiz-adv-x="505" 
d="M381 1446h158l-109 -774h-186l82 575l-185 -84l25 180z" />
    <glyph glyph-name="two.numr" horiz-adv-x="677" 
d="M563 997l-184 -153h295l-23 -172h-575l20 143l295 246q70 57 104.5 95.5t34.5 74.5q0 25 -19 41t-52 16q-92 0 -176 -112l-136 94q48 88 135.5 140t192.5 52q110 0 180 -57.5t70 -147.5q0 -73 -43 -135t-119 -125z" />
    <glyph glyph-name="three.numr" horiz-adv-x="661" 
d="M553 1065q111 -41 111 -162q0 -108 -84 -177t-220 -69q-185 0 -284 117l110 129q72 -72 172 -72q55 0 86 21.5t31 60.5q0 66 -108 66h-84l24 166h76q129 0 129 84q0 59 -84 59q-87 0 -172 -76l-117 119q122 131 305 131q116 0 188.5 -54t72.5 -148q0 -71 -41.5 -122.5
t-110.5 -72.5z" />
    <glyph glyph-name="four.numr" horiz-adv-x="720" 
d="M758 973l-23 -156h-92l-20 -145h-172l20 145h-387l22 156l408 473h217l-65 -473h92zM295 973h199l36 272z" />
    <glyph glyph-name="five.numr" horiz-adv-x="686" 
d="M469 1167q106 0 171 -57.5t65 -155.5q0 -138 -92.5 -218.5t-247.5 -80.5q-172 0 -283 117l111 129q73 -76 169 -76q68 0 109 31t41 84q0 36 -23.5 57t-68.5 21q-67 0 -123 -41l-129 72l57 397h496l-25 -168h-321l-19 -131q47 20 113 20z" />
    <glyph glyph-name="six.numr" horiz-adv-x="706" 
d="M483 1196q105 0 174.5 -64.5t69.5 -164.5q0 -135 -100 -223.5t-244 -88.5q-123 0 -202 67.5t-79 178.5q0 167 177 359l170 186h217l-238 -256q24 6 55 6zM395 821q63 0 103.5 36.5t40.5 96.5q0 45 -27.5 70t-77.5 25q-65 0 -104 -37.5t-39 -98.5q0 -43 27.5 -67.5
t76.5 -24.5z" />
    <glyph glyph-name="seven.numr" horiz-adv-x="620" 
d="M160 1446h559l-21 -156l-381 -618h-213l379 600h-348z" />
    <glyph glyph-name="eight.numr" horiz-adv-x="720" 
d="M608 1067q117 -48 117 -156q0 -119 -96 -187.5t-240 -68.5q-137 0 -214 56.5t-77 146.5q0 154 168 213q-94 45 -94 143q0 113 89.5 180.5t223.5 67.5q127 0 197 -53.5t70 -138.5q0 -73 -38.5 -124.5t-105.5 -78.5zM475 1307q-57 0 -90 -27t-33 -74q0 -67 94 -67
q57 0 89 27t32 73q0 68 -92 68zM399 815q62 0 99 26t37 74q0 35 -27.5 55.5t-81.5 20.5q-61 0 -96 -27t-35 -77q0 -72 104 -72z" />
    <glyph glyph-name="nine.numr" horiz-adv-x="708" 
d="M475 1462q124 0 202.5 -67.5t78.5 -180.5q0 -165 -176 -356l-170 -186h-220l238 256q-24 -6 -53 -6q-105 0 -174.5 65t-69.5 166q0 135 99 222t245 87zM428 1071q64 0 101.5 37t37.5 96q0 43 -27.5 67.5t-78.5 24.5q-64 0 -103 -39t-39 -96q0 -43 28.5 -66.5t80.5 -23.5z
" />
    <glyph glyph-name="zero.sups" horiz-adv-x="784" 
d="M420 709q-133 0 -208 81.5t-75 229.5q0 106 34.5 211.5t98.5 173.5q102 111 260 111q133 0 208 -82t75 -230q0 -112 -39 -222.5t-110 -178.5q-100 -94 -244 -94zM436 881q68 0 109 49q36 42 56 125t20 153q0 71 -26 103t-81 32q-77 0 -121 -61q-30 -42 -46.5 -122
t-16.5 -144q0 -71 25.5 -103t80.5 -32z" />
    <glyph glyph-name="one.sups" horiz-adv-x="505" 
d="M389 1499h158l-109 -774h-186l82 575l-184 -83l24 180z" />
    <glyph glyph-name="two.sups" horiz-adv-x="677" 
d="M571 1051l-184 -154h295l-23 -172h-575l20 143l295 246q71 57 105.5 95.5t34.5 74.5q0 25 -19.5 41t-52.5 16q-92 0 -176 -112l-135 94q48 89 135 141t192 52q110 0 180 -57.5t70 -147.5q0 -73 -43 -135t-119 -125z" />
    <glyph glyph-name="three.sups" horiz-adv-x="661" 
d="M561 1118q111 -40 111 -162q0 -108 -83.5 -176.5t-219.5 -68.5q-187 0 -285 116l111 129q71 -71 172 -71q55 0 85.5 21.5t30.5 60.5q0 65 -108 65h-84l24 166h76q129 0 129 84q0 59 -84 59q-88 0 -172 -75l-117 118q123 132 306 132q116 0 188 -54.5t72 -148.5
q0 -71 -41.5 -122.5t-110.5 -72.5z" />
    <glyph glyph-name="four.sups" horiz-adv-x="720" 
d="M766 1026l-23 -156h-92l-20 -145h-172l20 145h-387l23 156l407 473h217l-65 -473h92zM303 1026h199l37 272z" />
    <glyph glyph-name="five.sups" horiz-adv-x="686" 
d="M477 1221q106 0 171 -57.5t65 -155.5q0 -138 -92.5 -218.5t-247.5 -80.5q-173 0 -283 116l111 129q72 -75 170 -75q68 0 108.5 30.5t40.5 83.5q0 36 -23.5 57t-68.5 21q-67 0 -123 -41l-129 72l57 397h496l-24 -168h-322l-18 -131q49 21 112 21z" />
    <glyph glyph-name="six.sups" horiz-adv-x="706" 
d="M492 1249q105 0 174 -64t69 -165q0 -135 -100 -223t-244 -88q-123 0 -201.5 67t-78.5 178q0 168 176 359l170 186h217l-238 -256q24 6 56 6zM403 874q63 0 103.5 37t40.5 97q0 45 -27 69.5t-78 24.5q-65 0 -104 -37t-39 -98q0 -43 27.5 -68t76.5 -25z" />
    <glyph glyph-name="seven.sups" horiz-adv-x="620" 
d="M168 1499h559l-20 -156l-381 -618h-213l379 600h-349z" />
    <glyph glyph-name="eight.sups" horiz-adv-x="720" 
d="M616 1120q117 -48 117 -155q0 -119 -96 -187.5t-240 -68.5q-138 0 -214.5 56t-76.5 146q0 154 168 213q-94 45 -94 144q0 113 90 180.5t224 67.5q126 0 196 -54t70 -139q0 -73 -38.5 -124.5t-105.5 -78.5zM483 1360q-57 0 -90 -26.5t-33 -73.5q0 -32 24.5 -50t70.5 -18
q56 0 88 27t32 73q0 68 -92 68zM408 868q62 0 98.5 26.5t36.5 74.5q0 35 -27.5 55t-81.5 20q-61 0 -96 -27t-35 -77q0 -72 105 -72z" />
    <glyph glyph-name="nine.sups" horiz-adv-x="708" 
d="M483 1516q124 0 202.5 -67.5t78.5 -180.5q0 -166 -176 -357l-170 -186h-219l237 256q-24 -6 -53 -6q-105 0 -174.5 65t-69.5 166q0 135 99 222.5t245 87.5zM436 1124q64 0 101.5 37t37.5 96q0 43 -28 68t-78 25q-64 0 -102.5 -39.5t-38.5 -96.5q0 -43 28 -66.5t80 -23.5z
" />
    <glyph glyph-name="colon.case" horiz-adv-x="563" 
d="M354 903q-76 0 -119 44t-38 118q5 75 52 122.5t124 47.5q76 0 119 -44t38 -116q-3 -76 -51 -124t-125 -48zM252 186q-76 0 -118.5 44t-37.5 118q3 75 50.5 122.5t125.5 47.5q76 0 118.5 -44t37.5 -116q-3 -76 -50.5 -124t-125.5 -48z" />
    <glyph glyph-name="exclamdown.case" horiz-adv-x="624" 
d="M430 1456q76 0 118.5 -44.5t37.5 -117.5q-3 -76 -50 -124t-124 -48q-76 0 -119.5 44.5t-38.5 115.5q3 77 51 125.5t125 48.5zM481 961l-106 -961h-271l160 961h217z" />
    <glyph glyph-name="questiondown.case" horiz-adv-x="966" 
d="M643 1456q76 0 118.5 -44.5t37.5 -117.5q-3 -76 -50 -124t-124 -48q-76 0 -119.5 44.5t-38.5 115.5q3 77 51 125.5t125 48.5zM707 961l-13 -97q-15 -103 -53.5 -160.5t-148.5 -140.5l-105 -78q-113 -85 -113 -176q0 -53 38.5 -82.5t107.5 -29.5q171 0 311 184l166 -127
q-74 -128 -206 -205.5t-290 -77.5q-168 0 -273 84.5t-105 220.5q0 110 57.5 194.5t169.5 168.5l100 76q59 43 78.5 72t26.5 87l12 87h240z" />
    <glyph glyph-name="periodcentered.case" horiz-adv-x="550" 
d="M297 571q-76 0 -118.5 44.5t-37.5 117.5q3 76 50 124t124 48q76 0 119.5 -44.5t38.5 -115.5q-3 -76 -51 -125t-125 -49z" />
    <glyph glyph-name="bullet.case" horiz-adv-x="1060" 
d="M561 403q-140 0 -235 95.5t-95 234.5q0 140 94.5 235t235.5 95t235.5 -95t94.5 -235q0 -139 -95 -234.5t-235 -95.5z" />
    <glyph glyph-name="parenleft.case" horiz-adv-x="698" 
d="M354 -182q-102 145 -156.5 329t-54.5 379q0 293 121 584.5t332 505.5l186 -127q-174 -184 -279.5 -446t-105.5 -517q0 -169 40 -324.5t114 -269.5z" />
    <glyph glyph-name="parenright.case" horiz-adv-x="698" 
d="M399 1616q101 -146 155 -330.5t54 -378.5q0 -293 -120.5 -584t-329.5 -505l-189 127q176 184 281.5 445.5t105.5 516.5q0 168 -40 323.5t-115 270.5z" />
    <glyph glyph-name="braceleft.case" horiz-adv-x="768" 
d="M666 1593h184l-29 -215h-112q-127 0 -142 -125l-43 -301q-15 -102 -66 -159.5t-145 -77.5q172 -47 142 -248l-41 -301q-9 -62 12.5 -86.5t83.5 -24.5h125l-31 -215h-172q-140 0 -206 54t-66 169q0 20 4 70l51 361q9 64 -16 89t-93 25h-24l29 217h14q138 0 156 129l51 361
q22 152 98 215t236 63z" />
    <glyph glyph-name="braceright.case" horiz-adv-x="765" 
d="M717 825h24l-30 -217h-13q-136 0 -157 -129l-49 -360q-22 -152 -98 -215.5t-236 -63.5h-185l29 215h113q126 0 141 125l43 301q15 103 66 160.5t145 77.5q-169 49 -143 248l43 301q9 62 -13.5 86t-85.5 24h-123l31 215h172q140 0 206.5 -53.5t66.5 -167.5q0 -28 -7 -72
l-51 -360q-9 -64 16.5 -89.5t94.5 -25.5z" />
    <glyph glyph-name="bracketleft.case" horiz-adv-x="776" 
d="M829 1378h-286l-185 -1323h285l-31 -215h-528l246 1753h528z" />
    <glyph glyph-name="bracketright.case" horiz-adv-x="778" 
d="M219 1593h529l-246 -1753h-529l29 215h287l184 1323h-285z" />
    <glyph glyph-name="hyphen.case" horiz-adv-x="782" 
d="M102 623l33 219h602l-30 -219h-605z" />
    <glyph glyph-name="endash.case" horiz-adv-x="1202" 
d="M104 627l31 211h1024l-31 -211h-1024z" />
    <glyph glyph-name="emdash.case" horiz-adv-x="2228" 
d="M104 627l31 211h2048l-31 -211h-2048z" />
    <glyph glyph-name="guillemotleft.case" horiz-adv-x="1206" 
d="M735 1180l-379 -453l248 -442h-262l-254 446l375 449h272zM1231 1180l-379 -453l248 -442h-262l-254 446l374 449h273z" />
    <glyph glyph-name="guillemotright.case" horiz-adv-x="1206" 
d="M428 1178l254 -449l-375 -448h-272l379 452l-248 445h262zM924 1178l254 -449l-375 -448h-273l377 450l-245 447h262z" />
    <glyph glyph-name="guilsinglleft.case" horiz-adv-x="710" 
d="M735 1180l-379 -453l248 -442h-262l-254 446l375 449h272z" />
    <glyph glyph-name="guilsinglright.case" horiz-adv-x="712" 
d="M430 1180l252 -449l-373 -446h-272l377 448l-246 447h262z" />
    <glyph glyph-name="cent.tf" 
d="M827 399q140 23 230 138l168 -134q-70 -104 -182 -164.5t-246 -68.5l-25 -170h-125l25 172q-185 25 -293.5 149.5t-108.5 311.5q0 145 61.5 282t168.5 224q134 107 323 125l25 170h125l-25 -172q126 -12 221 -72t144 -160l-205 -133q-64 121 -190 139zM520 651
q0 -100 47.5 -165.5t134.5 -84.5l89 627q-78 -18 -146 -76q-60 -54 -92.5 -134.5t-32.5 -166.5z" />
    <glyph glyph-name="currency.tf" 
d="M1171 774q0 -164 -96 -287l117 -139l-123 -108l-119 137q-116 -66 -243 -66q-128 0 -222 62l-168 -148l-106 123l166 146q-41 74 -41 168q0 161 96 284l-119 139l127 109l119 -137q111 65 242 65q129 0 221 -61l170 147l104 -123l-166 -145q41 -74 41 -166zM563 680
q0 -72 41 -114t115 -42q99 0 162 66t63 164q0 71 -41.5 113t-114.5 42q-99 0 -162 -65t-63 -164z" />
    <glyph glyph-name="dollar.tf" 
d="M942 803q311 -77 311 -320q0 -104 -49 -197t-135 -153q-133 -93 -338 -102l-18 -133h-123l18 137q-163 17 -277 93t-167 200l194 129q79 -171 283 -199l51 373l-74 18q-161 39 -243 123t-82 203q0 101 48.5 190t133.5 146q124 83 326 92l18 133h125l-20 -137
q144 -17 245 -80t148 -158l-191 -131q-71 127 -233 148l-49 -351zM545 1001q0 -50 41.5 -83.5t138.5 -59.5l45 324q-99 -6 -156 -49q-69 -52 -69 -132zM930 313q67 51 67 138q0 54 -40.5 89.5t-135.5 59.5l-8 2l-49 -348q104 9 166 59z" />
    <glyph glyph-name="Euro.tf" 
d="M813 203q84 0 159 56t124 155l196 -101q-74 -161 -207 -251.5t-290 -90.5q-197 0 -325.5 138.5t-147.5 375.5h-168l22 158h148q2 50 18 148h-145l22 157h166q66 192 172 312q177 202 420 202q157 0 271.5 -90.5t156.5 -251.5l-221 -98q-23 101 -78.5 155t-138.5 54
q-129 0 -230 -123q-49 -59 -90 -160h404l-21 -157h-428q-17 -85 -20 -148h426l-21 -158h-405q13 -137 74 -209.5t157 -72.5z" />
    <glyph glyph-name="florin.tf" 
d="M1182 1206q-80 0 -120.5 -30t-66.5 -111l-59 -182h250l-23 -164h-282l-240 -727q-50 -147 -142 -213t-253 -66h-117l31 230h71q80 0 120.5 30t66.5 109l211 637h-234l23 164h266l90 274q48 144 140.5 210.5t252.5 66.5h119l-33 -228h-71z" />
    <glyph glyph-name="sterling.tf" 
d="M649 610l-53 -381h604l-33 -229h-1003l33 229h145l53 381h-145l26 191h146l33 225q28 206 148.5 321t326.5 115q292 0 413 -241l-206 -129q-59 133 -207 133q-195 0 -225 -215l-29 -209h467l-29 -191h-465z" />
    <glyph glyph-name="yen.tf" 
d="M1452 1434l-500 -695h289l-20 -159h-359l-22 -160h356l-20 -162h-359l-37 -258h-254l35 258h-352l20 162h355l22 160h-354l22 159h287l-303 695h266l240 -586l405 586h283z" />
    <glyph glyph-name="plus.tf" 
d="M1231 827l-31 -221h-342l-51 -368h-234l52 368h-344l30 221h344l52 369h233l-51 -369h342z" />
    <glyph glyph-name="minus.tf" 
d="M281 606l30 221h920l-31 -221h-919z" />
    <glyph glyph-name="multiply.tf" 
d="M1239 1010l-334 -293l248 -293l-174 -150l-248 291l-332 -291l-129 150l334 293l-250 293l174 149l248 -291l332 291z" />
    <glyph glyph-name="divide.tf" 
d="M793 952q-65 0 -103.5 35t-38.5 92q0 72 50 120t124 48q64 0 103 -35t39 -92q0 -72 -50 -120t-124 -48zM281 606l30 221h920l-31 -221h-919zM686 186q-66 0 -103.5 35t-37.5 94q0 70 50 118t124 48q64 0 101.5 -35t37.5 -92q0 -73 -49 -120.5t-123 -47.5z" />
    <glyph glyph-name="equal.tf" 
d="M309 819l31 223h920l-31 -223h-920zM250 391l31 223h919l-31 -223h-919z" />
    <glyph glyph-name="notequal.tf" 
d="M1229 819h-320l-121 -205h412l-31 -223h-510l-137 -235h-190l137 235h-219l31 223h317l121 205h-410l31 223h508l137 236h191l-138 -236h222z" />
    <glyph glyph-name="greater.tf" 
d="M360 1182l869 -355l-29 -221l-969 -354l31 242l641 225l-575 225z" />
    <glyph glyph-name="less.tf" 
d="M1278 1182l-31 -242l-641 -225l576 -226l-33 -237l-868 354l28 221z" />
    <glyph glyph-name="greaterequal.tf" 
d="M379 1317l872 -332l-30 -223l-965 -332l31 234l671 213l-612 210zM211 119l31 221h919l-31 -221h-919z" />
    <glyph glyph-name="lessequal.tf" 
d="M1296 1315l-32 -236l-668 -211l608 -211l-30 -229l-875 332l33 223zM211 117l31 221h919l-31 -221h-919z" />
    <glyph glyph-name="plusminus.tf" 
d="M913 1010h342l-30 -222h-342l-47 -329h-234l47 329h-344l31 222h344l45 327h233zM209 98l31 221h919l-31 -221h-919z" />
    <glyph glyph-name="approxequal.tf" 
d="M977 776q-75 0 -208 46t-208 46q-117 0 -258 -88l31 224q130 86 262 86q72 0 207 -47.5t203 -47.5q69 0 138.5 24.5t121.5 63.5l-31 -223q-131 -84 -258 -84zM918 348q-75 0 -208 47t-208 47q-65 0 -124 -20.5t-134 -67.5l30 221q131 87 263 87q72 0 206.5 -47.5
t202.5 -47.5t137 24.5t123 63.5l-30 -221q-134 -86 -258 -86z" />
    <glyph glyph-name="logicalnot.tf" 
d="M324 932h919l-59 -428h-234l31 207h-688z" />
    <glyph glyph-name="asciitilde.tf" 
d="M948 563q-75 0 -209 46t-209 46q-63 0 -122 -20.5t-134 -67.5l31 224q130 86 260 86q72 0 208 -47.5t204 -47.5t137 24.5t121 63.5l-31 -223q-131 -84 -256 -84z" />
    <glyph glyph-name="at.case" horiz-adv-x="1708" 
d="M995 1464q184 0 333 -73t236 -208t87 -306q0 -133 -46.5 -252t-137.5 -196t-205 -77q-82 0 -146.5 42.5t-79.5 111.5q-37 -72 -101 -111t-144 -39q-115 0 -188 82t-73 213q0 111 43.5 204.5t125 150.5t184.5 57q140 0 184 -115l12 92h181l-54 -399q-7 -58 9.5 -89.5
t54.5 -31.5q57 0 99 55.5t60.5 129t18.5 149.5q0 199 -121.5 308.5t-331.5 109.5q-243 0 -422 -146q-110 -87 -172.5 -220.5t-62.5 -289.5q0 -213 127.5 -335.5t355.5 -122.5q91 0 181 19.5t153 53.5l76 -165q-174 -97 -414 -97q-306 0 -495 175.5t-189 459.5q0 192 85 371
t233 299q232 190 544 190zM856 532q80 0 130 63t50 153q0 65 -33.5 102t-91.5 37q-83 0 -130.5 -64t-47.5 -155q0 -64 33 -100t90 -36z" />
    </font>
</defs>
</svg>
