<?xml version="1.0" standalone="no"?>
<!DOCTYPE svg PUBLIC "-//W3C//DTD SVG 1.1//EN" "http://www.w3.org/Graphics/SVG/1.1/DTD/svg11.dtd" >
<svg xmlns="http://www.w3.org/2000/svg" xmlns:xlink="http://www.w3.org/1999/xlink" version="1.1">
<metadata>
Created by FontForge 20170731 at Wed Feb 17 23:23:51 2021
 By Aleksey,,,
Copyright (c) by Christoph York . All rights reserved. Modification of this file requires prior written permission from Brink Type.
</metadata>
<defs>
<font id="Segma-MediumItalic" horiz-adv-x="1454" >
  <font-face 
    font-family="Segma Medium Italic"
    font-weight="500"
    font-style="italic"
    font-stretch="normal"
    units-per-em="2048"
    panose-1="0 0 6 0 0 0 0 0 0 0"
    ascent="1556"
    descent="-492"
    x-height="1038"
    cap-height="1434"
    bbox="-1012 -518 2609 2068"
    underline-thickness="102"
    underline-position="-450"
    slope="-8"
    unicode-range="U+000D-2B51"
  />
<missing-glyph horiz-adv-x="1589" 
d="M133 0l201 1434h1179l-200 -1434h-1180zM698 543h156l8 57q6 41 20 61t54 50l65 49q76 56 115 114.5t39 129.5q0 93 -66 148.5t-178 55.5q-110 0 -200.5 -51.5t-141.5 -138.5l107 -80q92 123 213 123q48 0 76 -20t28 -58q0 -39 -20.5 -67t-57.5 -56l-73 -53
q-72 -53 -97 -92t-36 -109zM731 215q54 0 87.5 37.5t33.5 85.5q0 41 -25.5 65.5t-66.5 24.5q-54 0 -87.5 -37.5t-33.5 -85.5q0 -41 25.5 -65.5t66.5 -24.5z" />
    <glyph glyph-name=".notdef" horiz-adv-x="1589" 
d="M133 0l201 1434h1179l-200 -1434h-1180zM698 543h156l8 57q6 41 20 61t54 50l65 49q76 56 115 114.5t39 129.5q0 93 -66 148.5t-178 55.5q-110 0 -200.5 -51.5t-141.5 -138.5l107 -80q92 123 213 123q48 0 76 -20t28 -58q0 -39 -20.5 -67t-57.5 -56l-73 -53
q-72 -53 -97 -92t-36 -109zM731 215q54 0 87.5 37.5t33.5 85.5q0 41 -25.5 65.5t-66.5 24.5q-54 0 -87.5 -37.5t-33.5 -85.5q0 -41 25.5 -65.5t66.5 -24.5z" />
    <glyph glyph-name=".null" horiz-adv-x="0" 
 />
    <glyph glyph-name="nonmarkingreturn" horiz-adv-x="682" 
 />
    <glyph glyph-name="CR" unicode="&#xd;" horiz-adv-x="468" 
 />
    <glyph glyph-name="space" unicode=" " horiz-adv-x="468" 
 />
    <glyph glyph-name="exclam" unicode="!" horiz-adv-x="602" 
d="M213 451l113 983h209l-162 -983h-160zM236 -18q-64 0 -97.5 39t-25.5 104q5 55 43 90t98 35q64 0 97.5 -38t25.5 -99q-5 -58 -43.5 -94.5t-97.5 -36.5z" />
    <glyph glyph-name="quotedbl" unicode="&#x22;" horiz-adv-x="780" 
d="M199 903l43 559h209l-113 -559h-139zM551 903l45 559h209l-113 -559h-141z" />
    <glyph glyph-name="numbersign" unicode="#" horiz-adv-x="1443" 
d="M1397 877h-246l-107 -320h220l-19 -147h-252l-127 -379h-172l127 379h-352l-127 -379h-172l127 379h-213l20 147h244l107 320h-219l20 147h250l127 379h172l-127 -379h352l127 379h172l-127 -379h213zM872 557l107 320h-352l-107 -320h352z" />
    <glyph glyph-name="dollar" unicode="$" horiz-adv-x="1232" 
d="M815 782q311 -76 311 -313q0 -94 -40.5 -179.5t-112.5 -142.5q-136 -107 -352 -116l-19 -133h-123l19 137q-162 17 -272 95t-156 204l159 94q33 -93 109 -149.5t184 -71.5l64 448l-60 15q-160 40 -241.5 120.5t-81.5 198.5q0 101 49 187.5t137 142.5q128 75 303 84
l19 133h123l-19 -137q139 -15 238 -78.5t141 -159.5l-156 -98q-68 140 -247 164l-62 -424zM604 834l6 -3l58 398q-118 -10 -185 -62q-84 -64 -84 -163q0 -63 47.5 -102.5t157.5 -67.5zM848 281q78 65 78 168q0 63 -47 105.5t-150 66.5l-24 6l-60 -422q127 12 203 76z" />
    <glyph glyph-name="percent" unicode="%" horiz-adv-x="1755" 
d="M477 729q-143 0 -237.5 89.5t-94.5 225.5q0 110 54 206.5t148.5 154t205.5 57.5q143 0 238.5 -89.5t95.5 -225.5q0 -110 -54.5 -206.5t-149.5 -154t-206 -57.5zM190 0l1242 1434h188l-1241 -1434h-189zM485 874q106 0 173 76.5t67 184.5q0 84 -47 133t-131 49
q-109 0 -175.5 -77.5t-66.5 -186.5q0 -82 48 -130.5t132 -48.5zM1257 -29q-143 0 -237 90t-94 226q0 110 54 206.5t148 154t205 57.5q143 0 238.5 -90t95.5 -226q0 -110 -54.5 -206.5t-149.5 -154t-206 -57.5zM1266 117q106 0 172.5 76t66.5 184q0 85 -47 133.5t-131 48.5
q-109 0 -175.5 -77.5t-66.5 -186.5q0 -80 48.5 -129t132.5 -49z" />
    <glyph glyph-name="ampersand" unicode="&#x26;" horiz-adv-x="1382" 
d="M1264 0h-220l-102 141q-188 -170 -432 -170q-187 0 -303.5 98.5t-116.5 252.5q0 74 27 140.5t77.5 121.5t111 99.5t140.5 88.5l17 8q-69 96 -101 170.5t-32 143.5q0 159 119.5 263.5t293.5 104.5q150 0 250.5 -82t100.5 -209q0 -236 -301 -397l-70 -37l233 -319
q73 118 115 272h178q-72 -256 -188 -414zM741 1292q-93 0 -158 -55t-65 -133q0 -89 84 -203l29 -41l96 51q178 96 178 234q0 69 -44.5 108t-119.5 39zM295 338q0 -88 60 -139.5t167 -51.5q174 0 314 125l-281 381l-16 -8q-119 -66 -181.5 -138t-62.5 -169z" />
    <glyph glyph-name="quotesingle" unicode="'" horiz-adv-x="425" 
d="M199 903l43 559h209l-113 -559h-139z" />
    <glyph glyph-name="parenleft" unicode="(" horiz-adv-x="669" 
d="M350 -260q-101 146 -155 327t-54 375q0 297 122 588.5t335 507.5l141 -108q-178 -184 -287.5 -452t-109.5 -527q0 -174 42.5 -336t119.5 -279z" />
    <glyph glyph-name="parenright" unicode=")" horiz-adv-x="671" 
d="M352 1538q101 -146 155 -327t54 -375q0 -297 -121 -588.5t-334 -507.5l-141 108q178 184 287.5 452t109.5 527q0 175 -42.5 336.5t-120.5 278.5z" />
    <glyph glyph-name="asterisk" unicode="*" horiz-adv-x="909" 
d="M315 707l-114 90l219 239l-277 82l66 146l272 -103l33 301h152l-52 -299l295 101l27 -146l-301 -84l151 -237l-131 -90l-137 251z" />
    <glyph glyph-name="plus" unicode="+" 
d="M1210 735l-24 -172h-361l-55 -385h-178l53 385h-364l22 172h367l53 385h180l-55 -385h362z" />
    <glyph glyph-name="comma" unicode="," horiz-adv-x="505" 
d="M-29 -307l179 561h202l-227 -561h-154z" />
    <glyph glyph-name="hyphen" unicode="-" horiz-adv-x="808" 
d="M104 508l25 174h598l-25 -174h-598z" />
    <glyph glyph-name="period" unicode="." horiz-adv-x="522" 
d="M195 -18q-64 0 -97.5 39t-25.5 104q6 55 44 90t97 35q64 0 97.5 -38t27.5 -99q-5 -58 -43.5 -94.5t-99.5 -36.5z" />
    <glyph glyph-name="slash" unicode="/" horiz-adv-x="983" 
d="M-82 -193l997 1709h189l-998 -1709h-188z" />
    <glyph glyph-name="zero" unicode="0" horiz-adv-x="1437" 
d="M647 -29q-232 0 -362.5 149t-130.5 419q0 194 59.5 390.5t169.5 321.5q183 211 463 211q232 0 362.5 -149.5t130.5 -421.5q0 -229 -79 -443.5t-226 -336.5q-161 -140 -387 -140zM659 154q162 0 273 108q101 98 152 278t51 361q0 379 -301 379q-201 0 -318 -162
q-78 -103 -118 -266t-40 -320q0 -378 301 -378z" />
    <glyph glyph-name="one" unicode="1" horiz-adv-x="882" 
d="M633 1434h164l-203 -1434h-197l174 1223l-401 -191l27 193z" />
    <glyph glyph-name="two" unicode="2" horiz-adv-x="1196" 
d="M811 580l-483 -398h721l-27 -182h-1008l25 164l590 487q77 63 129 111.5t98.5 105t69 112.5t22.5 114q0 92 -57 140t-162 48q-236 0 -420 -258l-143 102q101 164 247.5 250t321.5 86q188 0 301 -98t113 -258q0 -143 -86.5 -266t-251.5 -260z" />
    <glyph glyph-name="three" unicode="3" horiz-adv-x="1165" 
d="M827 725q108 -35 165 -108t57 -173q0 -103 -49 -200t-132 -160q-148 -113 -383 -113q-151 0 -273 54t-198 157l131 125q137 -155 349 -155q166 0 264 88q90 78 90 202q0 199 -332 199h-123l25 170h162q179 0 266 90q78 78 78 189q0 91 -61 141.5t-181 50.5
q-209 0 -385 -182l-123 123q211 239 522 239q194 0 311 -94t117 -248q0 -87 -35.5 -169.5t-97.5 -137.5q-71 -61 -164 -88z" />
    <glyph glyph-name="four" unicode="4" horiz-adv-x="1271" 
d="M1229 479l-25 -168h-211l-43 -311h-186l43 311h-758l23 164l833 959h248l-135 -955h211zM283 479h548l105 750z" />
    <glyph glyph-name="five" unicode="5" horiz-adv-x="1202" 
d="M1133 1253h-676l-62 -434q126 72 285 72q192 0 310 -102.5t118 -278.5q0 -122 -53.5 -234.5t-149.5 -185.5q-157 -119 -393 -119q-303 0 -467 209l127 127q137 -155 346 -155q169 0 277 88q54 47 83 114.5t29 141.5q0 105 -66.5 164t-191.5 59q-166 0 -309 -96l-145 90
l100 721h862z" />
    <glyph glyph-name="six" unicode="6" horiz-adv-x="1247" 
d="M735 969q187 0 311.5 -119.5t124.5 -308.5q0 -126 -56 -242.5t-154 -194.5q-168 -133 -398 -133q-211 0 -341 119t-130 320q0 177 105 362q71 128 192 260l363 402h239l-487 -525q105 60 231 60zM850 246q57 53 88 129.5t31 159.5q0 124 -75 193t-212 69
q-197 0 -307 -135q-82 -107 -82 -252q0 -123 75.5 -191.5t211.5 -68.5q163 0 270 96z" />
    <glyph glyph-name="seven" unicode="7" horiz-adv-x="1075" 
d="M178 1434h977l-25 -170l-786 -1264h-215l786 1253h-761z" />
    <glyph glyph-name="eight" unicode="8" horiz-adv-x="1288" 
d="M934 733q112 -41 169.5 -118.5t57.5 -182.5q0 -103 -52 -196.5t-142 -155.5q-154 -109 -394 -109q-227 0 -355 101t-128 260q0 96 42 181t118 144q69 51 166 82q-91 40 -140 111t-49 164q0 91 39.5 175.5t108.5 143.5q145 129 393 129q210 0 329.5 -96.5t119.5 -249.5
q0 -90 -40.5 -171.5t-111.5 -139.5q-57 -45 -131 -72zM502 1202q-78 -72 -78 -190q0 -92 64 -143.5t192 -51.5q166 0 258 86q78 72 78 191q0 92 -63.5 143t-192.5 51q-166 0 -258 -86zM858 231q100 81 100 207q0 96 -72 152.5t-216 56.5q-179 0 -291 -94q-84 -78 -84 -195
q0 -98 70.5 -153t216.5 -55q175 0 276 81z" />
    <glyph glyph-name="nine" unicode="9" horiz-adv-x="1247" 
d="M739 1462q209 0 340 -116t131 -314q0 -174 -102 -364q-72 -132 -195 -267l-360 -401h-242l494 528q-105 -63 -236 -63q-187 0 -311.5 118.5t-124.5 307.5q0 124 56 242t151 196q164 133 399 133zM907 752q105 108 105 272q0 122 -75 191t-212 69q-171 0 -276 -102
q-115 -106 -115 -285q0 -124 72.5 -192t209.5 -68q182 0 291 115z" />
    <glyph glyph-name="colon" unicode=":" horiz-adv-x="532" 
d="M311 737q-64 0 -97.5 40t-25.5 104q6 55 44.5 91t97.5 36q64 0 98.5 -39.5t26.5 -100.5q-5 -58 -44 -94.5t-100 -36.5zM205 -18q-64 0 -97.5 39t-25.5 104q6 55 44 90t97 35q64 0 97.5 -38t27.5 -99q-5 -58 -43.5 -94.5t-99.5 -36.5z" />
    <glyph glyph-name="semicolon" unicode=";" horiz-adv-x="522" 
d="M311 737q-64 0 -97.5 40t-25.5 104q5 55 44 91t98 36q63 0 97 -39.5t28 -100.5q-6 -58 -45.5 -94.5t-98.5 -36.5zM-29 -307l179 561h202l-227 -561h-154z" />
    <glyph glyph-name="less" unicode="&#x3c;" 
d="M1262 1096l-27 -191l-717 -260l643 -260l-24 -182l-856 356l22 180z" />
    <glyph glyph-name="equal" unicode="=" 
d="M309 772l25 170h905l-22 -170h-908zM252 356l22 170h908l-25 -170h-905z" />
    <glyph glyph-name="greater" unicode="&#x3e;" 
d="M354 1096l856 -357l-22 -180l-959 -356l27 190l717 260l-643 260z" />
    <glyph glyph-name="question" unicode="?" horiz-adv-x="964" 
d="M332 451l12 96q15 102 55.5 163t145.5 140l110 82q131 97 131 207q0 66 -47 103.5t-131 37.5q-94 0 -182 -49.5t-160 -143.5l-131 101q71 125 201 199.5t282 74.5q165 0 267 -83t102 -214q0 -109 -59 -194t-172 -170l-109 -82q-61 -46 -82 -78.5t-30 -95.5l-13 -94h-190z
M371 -18q-64 0 -97.5 39t-25.5 104q5 55 43.5 90t97.5 35q64 0 97.5 -38t27.5 -99q-6 -58 -45 -94.5t-98 -36.5z" />
    <glyph glyph-name="at" unicode="@" horiz-adv-x="1974" 
d="M1122 1343q160 0 299.5 -50t241 -139t159.5 -217.5t58 -279.5q0 -117 -31.5 -228.5t-87.5 -199t-140 -141t-181 -53.5q-94 0 -161.5 54.5t-76.5 150.5q-43 -99 -127 -152t-188 -53q-141 0 -229.5 97t-88.5 253q0 132 54 245.5t153.5 183t222.5 69.5q88 0 153 -43t89 -121
l21 135h161l-71 -504q-23 -174 96 -174q62 0 113 43.5t82 113t48 150t17 160.5q0 253 -162 396t-424 143q-162 0 -307 -54.5t-258 -156.5q-132 -118 -204 -283t-72 -346q0 -270 172.5 -431t466.5 -161q233 0 419 92l62 -135q-98 -56 -227 -86.5t-265 -30.5q-177 0 -327 54.5
t-255 151t-164 234.5t-59 300q0 212 92 415t253 345q137 122 309.5 187.5t363.5 65.5zM932 193q124 0 200 94.5t76 230.5q0 98 -49.5 152.5t-134.5 54.5q-123 0 -197.5 -95.5t-74.5 -232.5q0 -98 47.5 -151t132.5 -53z" />
    <glyph glyph-name="A" unicode="A" horiz-adv-x="1466" 
d="M1147 0l-94 377h-670l-201 -377h-215l781 1434h227l375 -1434h-203zM477 555h531l-170 680z" />
    <glyph glyph-name="B" unicode="B" horiz-adv-x="1437" 
d="M1051 739q122 -29 187 -103.5t65 -189.5q0 -104 -42.5 -193.5t-123.5 -150.5q-136 -102 -344 -102h-662l203 1434h590q198 0 308.5 -85t110.5 -231q0 -204 -167 -321q-64 -40 -125 -58zM903 1253h-393l-61 -432h393q131 0 211 64q40 35 61 89t21 109q0 170 -232 170z
M1008 244q44 38 66 95.5t22 119.5q0 89 -59 136.5t-173 47.5h-442l-66 -463h445q134 0 207 64z" />
    <glyph glyph-name="C" unicode="C" horiz-adv-x="1548" 
d="M770 -29q-142 0 -260 47t-198.5 129.5t-124.5 198t-44 250.5q0 207 94.5 396.5t260.5 312.5q223 157 487 157q204 0 354 -95t215 -277l-174 -95q-109 279 -409 279q-208 0 -373 -127q-118 -93 -181 -235.5t-63 -301.5q0 -205 115 -327.5t322 -122.5q150 0 281 69.5
t224 208.5l162 -94q-116 -181 -298.5 -277t-389.5 -96z" />
    <glyph glyph-name="D" unicode="D" horiz-adv-x="1562" 
d="M856 1434q283 0 451 -155t168 -429q0 -173 -63 -342.5t-177 -286.5q-107 -107 -253 -164t-316 -57h-535l203 1434h522zM1106 367q78 88 118 215t40 258q0 407 -424 407h-332l-150 -1061h318q131 0 242 46t188 135z" />
    <glyph glyph-name="E" unicode="E" horiz-adv-x="1359" 
d="M1296 1249h-790l-60 -434h748l-27 -182h-747l-60 -449h807l-26 -184h-1010l203 1434h989z" />
    <glyph glyph-name="F" unicode="F" horiz-adv-x="1302" 
d="M1290 1249h-784l-62 -444h744l-25 -187h-743l-88 -618h-201l203 1434h985z" />
    <glyph glyph-name="G" unicode="G" horiz-adv-x="1595" 
d="M909 594l25 180h561l-80 -573q-96 -108 -254.5 -169t-345.5 -61q-313 0 -492.5 170.5t-179.5 450.5q0 181 70.5 353.5t196.5 291.5q110 108 254.5 166.5t310.5 58.5q188 0 331 -74t214 -206l-168 -111q-107 203 -379 203q-263 0 -434 -180q-91 -92 -139 -224.5
t-48 -267.5q0 -211 124.5 -327.5t348.5 -116.5q123 0 231.5 34t174.5 89l45 313h-367z" />
    <glyph glyph-name="H" unicode="H" horiz-adv-x="1597" 
d="M1321 1434h203l-203 -1434h-203l90 641h-786l-90 -641h-201l203 1434h201l-86 -605h786z" />
    <glyph glyph-name="I" unicode="I" horiz-adv-x="618" 
d="M135 0l203 1434h201l-203 -1434h-201z" />
    <glyph glyph-name="J" unicode="J" horiz-adv-x="1202" 
d="M434 -29q-141 0 -253.5 53.5t-180.5 151.5l141 129q104 -145 295 -145q155 0 256 96t127 276l127 902h201l-131 -926q-35 -252 -189.5 -394.5t-392.5 -142.5z" />
    <glyph glyph-name="K" unicode="K" horiz-adv-x="1423" 
d="M1505 1434l-680 -621l506 -813h-239l-420 674l-281 -256l-59 -418h-201l203 1434h201l-105 -742l817 742h258z" />
    <glyph glyph-name="L" unicode="L" horiz-adv-x="1218" 
d="M360 186h748l-27 -186h-950l203 1434h201z" />
    <glyph glyph-name="M" unicode="M" horiz-adv-x="1918" 
d="M1618 1434h225l-203 -1434h-196l160 1128l-582 -759h-164l-373 766l-159 -1135h-195l203 1434h211l418 -856z" />
    <glyph glyph-name="N" unicode="N" horiz-adv-x="1622" 
d="M1350 1434h198l-202 -1434h-187l-674 1116l-157 -1116h-197l203 1434h184l674 -1115z" />
    <glyph glyph-name="O" unicode="O" horiz-adv-x="1722" 
d="M795 -29q-293 0 -471.5 176.5t-178.5 454.5q0 191 82 367.5t226 300.5q224 192 532 192q192 0 341 -84t228.5 -227.5t79.5 -321.5q0 -173 -73 -342.5t-199 -291.5q-112 -106 -258 -165t-309 -59zM801 160q246 0 426 174q96 94 146 221.5t50 263.5q0 205 -118 330
t-328 125q-229 0 -406 -156q-104 -95 -159.5 -226.5t-55.5 -277.5q0 -204 119.5 -329t325.5 -125z" />
    <glyph glyph-name="P" unicode="P" horiz-adv-x="1378" 
d="M913 1434q211 0 327 -99t116 -270q0 -113 -40.5 -219.5t-113.5 -173.5q-146 -137 -407 -137h-387l-76 -535h-201l203 1434h579zM1071 811q36 43 55 111t19 131q0 104 -61.5 150t-202.5 46h-373l-74 -530h371q186 0 266 92z" />
    <glyph glyph-name="Q" unicode="Q" horiz-adv-x="1722" 
d="M1362 195q-44 -40 -62 -54l146 -217l-154 -110l-153 231q-164 -74 -344 -74q-293 0 -471.5 176.5t-178.5 454.5q0 191 82 367.5t226 300.5q224 192 532 192q192 0 341 -84t228.5 -227.5t79.5 -321.5q0 -173 -73 -342.5t-199 -291.5zM801 160q120 0 229 45l-186 278
l153 109l195 -289l35 31q96 94 146 221.5t50 263.5q0 205 -118 330t-328 125q-229 0 -406 -156q-104 -95 -159.5 -226.5t-55.5 -277.5q0 -204 119.5 -329t325.5 -125z" />
    <glyph glyph-name="R" unicode="R" horiz-adv-x="1423" 
d="M1208 688q-127 -115 -346 -127l387 -561h-235l-381 559h-221l-80 -559h-201l203 1434h590q209 0 323.5 -97t114.5 -270q0 -105 -41 -209t-113 -170zM508 1249l-72 -510h381q180 0 258 84q74 82 74 234q0 99 -61 145.5t-199 46.5h-381z" />
    <glyph glyph-name="S" unicode="S" horiz-adv-x="1306" 
d="M612 -29q-215 0 -362 88.5t-193 243.5l162 92q102 -241 395 -241q159 0 260 63q54 34 85.5 89t31.5 116q0 71 -51 117t-164 75l-223 56q-171 42 -261.5 133t-90.5 213q0 95 45 183t123 147q154 116 403 116q188 0 322 -72t182 -190l-168 -100q-91 180 -344 180
q-169 0 -262 -72q-43 -31 -67.5 -78.5t-24.5 -99.5q0 -67 51 -111.5t170 -74.5l225 -56q344 -85 344 -337q0 -122 -59 -225.5t-164 -166.5q-150 -88 -365 -88z" />
    <glyph glyph-name="T" unicode="T" horiz-adv-x="1245" 
d="M449 0l174 1247h-469l26 187h1143l-29 -187h-469l-176 -1247h-200z" />
    <glyph glyph-name="U" unicode="U" horiz-adv-x="1544" 
d="M696 -29q-246 0 -383 116t-137 329q0 30 8 100l129 918h201l-127 -899q-6 -47 -6 -86q0 -148 79 -218.5t249 -70.5q194 0 310 94.5t142 280.5l127 899h201l-129 -918q-37 -258 -213 -401.5t-451 -143.5z" />
    <glyph glyph-name="V" unicode="V" horiz-adv-x="1425" 
d="M1296 1434h217l-768 -1434h-213l-362 1434h207l291 -1198z" />
    <glyph glyph-name="W" unicode="W" horiz-adv-x="2148" 
d="M2013 1434h207l-645 -1434h-207l-203 1163l-532 -1163h-209l-238 1434h199l186 -1155l527 1155h200l201 -1155z" />
    <glyph glyph-name="X" unicode="X" horiz-adv-x="1335" 
d="M1397 1434l-576 -703l396 -731h-216l-315 594l-483 -594h-232l600 737l-372 697h207l303 -566l460 566h228z" />
    <glyph glyph-name="Y" unicode="Y" horiz-adv-x="1325" 
d="M1204 1434h236l-668 -844l-86 -590h-201l86 590l-430 844h219l328 -666z" />
    <glyph glyph-name="Z" unicode="Z" horiz-adv-x="1245" 
d="M1270 1434l-21 -154l-952 -1098h809l-27 -182h-1061l21 154l950 1097h-766l25 183h1022z" />
    <glyph glyph-name="bracketleft" unicode="[" horiz-adv-x="761" 
d="M809 1354h-303l-197 -1430h297l-22 -162h-486l246 1754h485z" />
    <glyph glyph-name="backslash" unicode="\" horiz-adv-x="980" 
d="M676 -193l-518 1709h186l518 -1709h-186z" />
    <glyph glyph-name="bracketright" unicode="]" horiz-adv-x="761" 
d="M211 1516h487l-245 -1754h-488l23 162h301l196 1430h-297z" />
    <glyph glyph-name="asciicircum" unicode="^" horiz-adv-x="1179" 
d="M1147 715h-211l-244 493l-383 -493h-223l539 669h172z" />
    <glyph glyph-name="underscore" unicode="_" horiz-adv-x="892" 
d="M-111 -260l23 151h893l-23 -151h-893z" />
    <glyph glyph-name="grave" unicode="`" horiz-adv-x="1269" 
d="M631 1210l-228 308h232l190 -308h-194z" />
    <glyph glyph-name="a" unicode="a" horiz-adv-x="1341" 
d="M1047 1038h192l-147 -1038h-193l25 178q-59 -96 -165 -151.5t-231 -55.5q-191 0 -309.5 128t-118.5 339q0 136 51.5 262.5t141.5 214.5q72 72 169 112t202 40q130 0 228 -59.5t128 -159.5zM846 254q66 60 102.5 150.5t36.5 185.5q0 136 -76.5 217.5t-210.5 81.5
q-157 0 -264 -107q-66 -66 -99.5 -156t-33.5 -180q0 -135 74.5 -215.5t206.5 -80.5q157 0 264 104z" />
    <glyph glyph-name="b" unicode="b" horiz-adv-x="1339" 
d="M811 1067q190 0 309 -127t119 -332q0 -136 -49.5 -266t-140.5 -219q-73 -72 -169 -112t-202 -40q-131 0 -228 59t-128 158l-27 -188h-193l211 1499h193l-88 -641q60 97 165 153t228 56zM915 264q59 59 92 148t33 180q0 138 -74 217.5t-208 79.5q-77 0 -148.5 -30
t-124.5 -83q-129 -129 -129 -327q0 -136 74.5 -217.5t208.5 -81.5q162 0 276 114z" />
    <glyph glyph-name="c" unicode="c" horiz-adv-x="1146" 
d="M555 -29q-205 0 -330 128.5t-125 332.5q0 141 57 271.5t160 218.5q167 145 394 145q161 0 273 -79t146 -218l-182 -78q-59 197 -250 197q-155 0 -266 -105q-62 -62 -97.5 -152.5t-35.5 -182.5q0 -138 79 -218.5t214 -80.5q195 0 307 196l162 -78q-73 -139 -209 -218
t-297 -79z" />
    <glyph glyph-name="d" unicode="d" horiz-adv-x="1337" 
d="M1106 1499h192l-211 -1499h-192l27 178q-58 -95 -164 -151t-234 -56q-190 0 -308 126.5t-118 332.5q0 139 55.5 274.5t155.5 225.5q73 66 166.5 101.5t190.5 35.5q129 0 223.5 -60t126.5 -161zM856 268q59 60 93 146t34 178q0 134 -76.5 215.5t-212.5 81.5
q-153 0 -262 -103q-66 -66 -99.5 -158.5t-33.5 -185.5q0 -136 70.5 -214t201.5 -78q170 0 285 118z" />
    <glyph glyph-name="e" unicode="e" horiz-adv-x="1224" 
d="M1108 461h-815v-19q0 -144 76 -220.5t217 -76.5q198 0 346 154l115 -111q-188 -217 -474 -217q-216 0 -345.5 125.5t-129.5 333.5q0 137 54.5 270t152.5 222q161 145 389 145q195 0 318 -118t123 -312q0 -78 -27 -176zM422 786q-68 -68 -105 -178h625v29
q0 123 -65.5 188.5t-188.5 65.5q-158 0 -266 -105z" />
    <glyph glyph-name="f" unicode="f" horiz-adv-x="790" 
d="M739 1350q-88 0 -133.5 -39.5t-58.5 -128.5l-21 -144h299l-24 -166h-297l-123 -872h-193l121 872h-209l25 166h209l20 152q23 167 117.5 247.5t263.5 80.5q78 0 158 -19l-25 -162q-80 13 -129 13z" />
    <glyph glyph-name="g" unicode="g" horiz-adv-x="1339" 
d="M1044 1038h193l-131 -923q-39 -270 -192.5 -412.5t-415.5 -142.5q-145 0 -266 47.5t-193 128.5l117 135q130 -133 342 -133q173 0 280.5 95.5t136.5 281.5l15 98q-57 -97 -163.5 -154t-234.5 -57q-191 0 -310.5 122.5t-119.5 321.5q0 142 56.5 274.5t156.5 219.5
q152 127 351 127q129 0 224.5 -57.5t127.5 -155.5zM862 293q123 126 123 309q0 130 -74.5 208.5t-208.5 78.5q-162 0 -266 -101q-66 -62 -99.5 -148.5t-33.5 -178.5q0 -128 71.5 -205.5t203.5 -77.5q162 0 284 115z" />
    <glyph glyph-name="h" unicode="h" horiz-adv-x="1259" 
d="M795 1067q153 0 238 -82t85 -233q0 -40 -6 -84l-94 -668h-193l86 621q7 51 7 79q0 97 -47.5 143t-145.5 46q-133 0 -229 -75t-113 -202l-88 -612h-193l211 1499h193l-88 -629q57 94 156 145.5t221 51.5z" />
    <glyph glyph-name="i" unicode="i" horiz-adv-x="548" 
d="M377 1243q-51 0 -82 30.5t-31 80.5q0 60 42.5 103.5t105.5 43.5q52 0 83 -31t31 -79q0 -60 -43 -104t-106 -44zM104 0l148 1038h192l-147 -1038h-193z" />
    <glyph glyph-name="j" unicode="j" horiz-adv-x="548" 
d="M377 1243q-51 0 -82 30.5t-31 80.5q0 60 42.5 103.5t105.5 43.5q52 0 83 -31t31 -79q0 -60 -43 -104t-106 -44zM-84 -440q-56 0 -121 12l27 172q46 -12 92 -12q83 0 124 39.5t52 119.5l162 1147h192l-163 -1173q-46 -305 -365 -305z" />
    <glyph glyph-name="k" unicode="k" horiz-adv-x="1148" 
d="M1190 1036l-526 -448l395 -588h-215l-320 469l-186 -158l-43 -311h-193l211 1499h193l-135 -954l573 493z" />
    <glyph glyph-name="l" unicode="l" horiz-adv-x="544" 
d="M102 0l211 1499h193l-211 -1499h-193z" />
    <glyph glyph-name="m" unicode="m" horiz-adv-x="1912" 
d="M1460 1067q150 0 231 -80t81 -229q0 -34 -7 -88l-96 -670h-192l88 625q8 62 8 84q0 92 -43.5 136t-134.5 44q-127 0 -217.5 -75t-108.5 -202l-86 -612h-192l88 625q6 47 6 84q0 93 -43 136.5t-135 43.5q-127 0 -217 -75t-107 -202l-88 -612h-193l148 1038h192l-24 -168
q57 94 151 145.5t209 51.5q116 0 194 -55.5t101 -157.5q55 98 158 155.5t229 57.5z" />
    <glyph glyph-name="n" unicode="n" horiz-adv-x="1259" 
d="M795 1067q154 0 238.5 -82t84.5 -233q0 -40 -6 -84l-94 -668h-193l86 621q7 51 7 79q0 97 -47.5 143t-145.5 46q-133 0 -229 -75t-113 -202l-88 -612h-193l148 1038h192l-24 -168q57 94 156 145.5t221 51.5z" />
    <glyph glyph-name="o" unicode="o" horiz-adv-x="1286" 
d="M580 -29q-145 0 -255.5 63t-167.5 169t-57 237q0 133 58 261.5t157 218.5q163 147 394 147q217 0 348 -134t131 -335q0 -135 -63 -268t-167 -221q-164 -138 -378 -138zM586 150q146 0 258 98q72 66 107.5 156.5t35.5 185.5q0 137 -73.5 218t-206.5 81q-162 0 -273 -111
q-65 -62 -99 -150t-34 -179q0 -135 76 -217t209 -82z" />
    <glyph glyph-name="p" unicode="p" horiz-adv-x="1339" 
d="M815 1067q187 0 305.5 -127t118.5 -332q0 -139 -54 -273t-153 -224q-153 -140 -356 -140q-131 0 -226.5 60t-127.5 162l-84 -603h-193l205 1448h192l-24 -182q63 98 170 154.5t227 56.5zM913 266q62 64 94.5 153t32.5 181q0 132 -70 210.5t-198 78.5q-80 0 -152.5 -30
t-125.5 -79q-66 -63 -103 -154t-37 -184q0 -133 75.5 -212.5t207.5 -79.5q166 0 276 116z" />
    <glyph glyph-name="q" unicode="q" horiz-adv-x="1341" 
d="M1047 1038h192l-205 -1448h-192l82 586q-60 -95 -165.5 -150t-228.5 -55q-192 0 -311 127.5t-119 337.5q0 134 52.5 264.5t146.5 219.5q150 147 360 147q134 0 230 -62t131 -163zM856 264q62 63 96.5 150.5t34.5 175.5q0 135 -78.5 217t-212.5 82q-160 0 -270 -113
q-58 -59 -91.5 -151.5t-33.5 -186.5q0 -132 71.5 -210t202.5 -78q164 0 281 114z" />
    <glyph glyph-name="r" unicode="r" horiz-adv-x="833" 
d="M758 1055q52 0 90 -17l-23 -170q-49 6 -100 6q-146 0 -238 -86t-116 -262l-76 -526h-193l148 1038h192l-26 -188q50 97 140 151t202 54z" />
    <glyph glyph-name="s" unicode="s" horiz-adv-x="1052" 
d="M487 -29q-156 0 -276.5 59.5t-171.5 159.5l139 109q47 -77 128.5 -117.5t185.5 -40.5q116 0 184 49q28 21 45.5 52.5t17.5 64.5q0 44 -36.5 73t-129.5 50l-149 33q-138 32 -207.5 100t-69.5 162q0 71 32 137t87 109q116 96 324 96q129 0 235.5 -46t163.5 -128l-133 -117
q-93 119 -281 119q-125 0 -184 -53q-47 -36 -47 -101q0 -40 35.5 -66t122.5 -46l164 -37q270 -63 270 -256q0 -81 -38 -158t-105 -123q-116 -84 -306 -84z" />
    <glyph glyph-name="t" unicode="t" horiz-adv-x="845" 
d="M498 872l-82 -579q-9 -75 24.5 -107t120.5 -32q71 0 160 18l-23 -162q-91 -26 -194 -26q-326 0 -283 290l84 598h-205l25 166h205l43 308h192l-43 -308h318l-27 -166h-315z" />
    <glyph glyph-name="u" unicode="u" horiz-adv-x="1249" 
d="M954 1038h193l-148 -1038h-190l25 174q-57 -96 -159 -149.5t-226 -53.5q-150 0 -229 78.5t-79 226.5q0 46 6 95l95 667h192l-88 -620q-6 -52 -6 -94q0 -93 40.5 -133.5t133.5 -40.5q131 0 234 79t120 197z" />
    <glyph glyph-name="v" unicode="v" horiz-adv-x="1110" 
d="M936 1038h213l-565 -1038h-207l-268 1038h198l199 -827z" />
    <glyph glyph-name="w" unicode="w" horiz-adv-x="1714" 
d="M1546 1038h199l-483 -1038h-213l-150 813l-383 -813h-211l-188 1038h190l139 -809l379 809h203l152 -807z" />
    <glyph glyph-name="x" unicode="x" horiz-adv-x="1071" 
d="M1087 1038l-423 -506l297 -532h-211l-224 406l-338 -406h-223l447 532l-279 506h207l209 -385l317 385h221z" />
    <glyph glyph-name="y" unicode="y" horiz-adv-x="1116" 
d="M948 1038h207l-780 -1446h-195l211 398l-280 1048h198l207 -835z" />
    <glyph glyph-name="z" unicode="z" horiz-adv-x="1032" 
d="M999 1038l-20 -143l-692 -727h598l-25 -168h-835l20 141l692 729h-573l24 168h811z" />
    <glyph glyph-name="braceleft" unicode="{" horiz-adv-x="745" 
d="M649 1516h166l-20 -162h-133q-124 0 -142 -123l-51 -377q-27 -175 -188 -217q147 -49 125 -223l-54 -377q-9 -60 15 -86.5t84 -26.5h141l-23 -162h-157q-128 0 -190 50t-62 157q0 16 4 66l59 407q7 63 -18.5 89t-93.5 26h-27l22 164h19q136 0 154 123l57 409
q20 141 92.5 202t220.5 61z" />
    <glyph glyph-name="bar" unicode="|" horiz-adv-x="665" 
d="M143 -205l250 1772h174l-250 -1772h-174z" />
    <glyph glyph-name="braceright" unicode="}" horiz-adv-x="747" 
d="M670 721h28l-24 -164h-19q-135 0 -153 -123l-58 -409q-20 -141 -92.5 -202t-220.5 -61h-166l23 162h131q123 0 141 123l53 377q24 174 187 217q-148 50 -123 223l51 377q9 61 -14.5 87t-83.5 26h-142l23 162h158q129 0 190.5 -50t61.5 -157q0 -3 -5 -66l-57 -407
q-9 -62 17 -88.5t94 -26.5z" />
    <glyph glyph-name="asciitilde" unicode="~" 
d="M942 520q-75 0 -209 44t-209 44q-112 0 -250 -86l25 172q124 82 254 82q72 0 208 -44t204 -44q64 0 132.5 24t119.5 62l-25 -172q-128 -82 -250 -82z" />
    <glyph glyph-name="uni00A0" unicode="&#xa0;" horiz-adv-x="468" 
 />
    <glyph glyph-name="exclamdown" unicode="&#xa1;" horiz-adv-x="602" 
d="M367 1040q63 0 96 -39t24 -102q-5 -57 -43 -92t-98 -35q-63 0 -97 38.5t-26 100.5q5 58 44 93.5t100 35.5zM389 573l-113 -983h-210l163 983h160z" />
    <glyph glyph-name="cent" unicode="&#xa2;" horiz-adv-x="1153" 
d="M659 350q164 22 265 154l133 -107q-74 -101 -183 -159.5t-239 -65.5l-25 -172h-123l25 176q-179 25 -284 148t-105 307q0 143 59.5 279.5t165.5 224.5q134 109 318 127l24 172h123l-25 -172q123 -12 217.5 -71t141.5 -155l-162 -106q-73 144 -221 155zM317 641
q0 -119 57.5 -194.5t162.5 -94.5l102 725q-97 -21 -174 -88q-71 -64 -109.5 -156t-38.5 -192z" />
    <glyph glyph-name="sterling" unicode="&#xa3;" horiz-adv-x="1116" 
d="M426 629l-64 -449h652l-27 -180h-995l26 180h148l63 449h-155l22 155h156l35 250q27 200 148.5 314t320.5 114q286 0 403 -239l-162 -101q-62 158 -243 158q-114 0 -185 -66t-88 -190l-32 -240h489l-20 -155h-492z" />
    <glyph glyph-name="currency" unicode="&#xa4;" horiz-adv-x="1142" 
d="M1001 776q0 -160 -98 -289l125 -147l-106 -94l-125 143q-112 -72 -244 -72t-225 68l-172 -152l-93 107l175 152q-39 76 -39 165q0 160 98 289l-127 148l109 94l124 -144q112 72 244 72q133 0 225 -67l172 151l91 -106l-172 -152q38 -74 38 -166zM555 487q117 0 193.5 78
t76.5 197q0 86 -47.5 135t-134.5 49q-116 0 -192 -77t-76 -197q0 -86 47 -135.5t133 -49.5z" />
    <glyph glyph-name="yen" unicode="&#xa5;" horiz-adv-x="1208" 
d="M1317 1434l-522 -719h301l-21 -135h-366l-23 -174h367l-21 -138h-366l-37 -268h-197l37 268h-363l21 138h362l23 174h-362l20 135h297l-317 719h206l277 -654l461 654h223z" />
    <glyph glyph-name="brokenbar" unicode="&#xa6;" horiz-adv-x="665" 
d="M289 831l104 736h174l-102 -736h-176zM143 -205l103 719h174l-103 -719h-174z" />
    <glyph glyph-name="section" unicode="&#xa7;" horiz-adv-x="1122" 
d="M1030 659q0 -119 -66 -202t-176 -113q160 -71 160 -225q0 -179 -131 -282t-338 -103q-160 0 -278.5 59t-171.5 162l141 102q44 -76 126 -113.5t187 -37.5q120 0 196.5 50.5t76.5 139.5q0 95 -160 131l-160 39q-144 34 -217.5 106.5t-73.5 180.5q0 114 68 195t178 108
q-160 76 -160 238q0 171 127 269.5t328 98.5q137 0 244 -47.5t164 -128.5l-131 -115q-89 119 -287 119q-118 0 -185 -51t-67 -143q0 -47 35.5 -77t120.5 -50l178 -41q272 -64 272 -269zM575 408q100 -23 181.5 49.5t81.5 179.5q0 53 -37 85.5t-127 53.5l-72 17v-2
q-67 16 -129 -12t-99.5 -87.5t-37.5 -130.5q0 -52 37.5 -84t130.5 -53z" />
    <glyph glyph-name="dieresis" unicode="&#xa8;" horiz-adv-x="1269" 
d="M514 1243q-52 0 -82.5 30t-30.5 77q0 63 42.5 107t105.5 44q52 0 83.5 -31t31.5 -79q0 -59 -44 -103.5t-106 -44.5zM961 1243q-52 0 -82.5 30t-30.5 77q0 63 42 107t105 44q52 0 83.5 -31t31.5 -79q0 -59 -43.5 -103.5t-105.5 -44.5z" />
    <glyph glyph-name="copyright" unicode="&#xa9;" horiz-adv-x="1744" 
d="M807 -29q-187 0 -339 84.5t-237.5 232.5t-85.5 328q0 190 90 367.5t244 296.5q108 87 240.5 134.5t273.5 47.5t264.5 -50t210.5 -136.5t137 -206t50 -254.5q0 -186 -88 -361t-240 -298q-233 -185 -520 -185zM817 113q233 0 422 155q121 99 190.5 241.5t69.5 295.5
q0 145 -64 262.5t-183 185.5t-271 68q-228 0 -412 -147q-124 -99 -196 -245t-72 -302q0 -220 144 -367t372 -147zM866 307q-163 0 -261.5 95.5t-98.5 250.5q0 205 129.5 340t329.5 135q114 0 196 -46t125 -132l-147 -94q-53 111 -181 111q-121 0 -196.5 -87t-75.5 -214
q0 -93 48.5 -146t137.5 -53q66 0 126 28.5t102 82.5l121 -93q-55 -86 -147.5 -132t-207.5 -46z" />
    <glyph glyph-name="ordfeminine" unicode="&#xaa;" horiz-adv-x="1001" 
d="M643 1516q166 0 250.5 -89t62.5 -247l-79 -572h-166l22 148q-44 -76 -129.5 -121t-195.5 -45q-128 0 -201.5 65.5t-73.5 173.5q0 149 109 224q104 75 293 75h239l6 50q12 87 -26.5 133.5t-126.5 46.5q-149 0 -277 -119l-106 121q77 74 180 115t219 41zM457 733
q110 0 195 64.5t100 163.5l6 40h-228q-121 0 -172 -51q-41 -39 -41 -108q0 -109 140 -109z" />
    <glyph glyph-name="guillemotleft" unicode="&#xab;" horiz-adv-x="1140" 
d="M662 961l-371 -443l241 -438h-206l-250 440l368 441h218zM1116 961l-371 -443l242 -438h-207l-250 440l369 441h217z" />
    <glyph glyph-name="logicalnot" unicode="&#xac;" 
d="M303 735h907l-53 -385h-180l31 213h-727z" />
    <glyph glyph-name="registered" unicode="&#xae;" horiz-adv-x="1148" 
d="M702 1464q170 0 283 -110t113 -273q0 -112 -51.5 -218t-145.5 -183q-140 -111 -315 -111q-171 0 -283.5 110.5t-112.5 274.5q0 117 56 224t151 182q132 104 305 104zM846 754q73 60 113 142.5t40 172.5q0 131 -84 218t-217 87q-135 0 -249 -88q-73 -56 -116.5 -143
t-43.5 -178q0 -133 83.5 -219.5t219.5 -86.5q138 0 254 95zM707 1260q157 0 157 -130q0 -144 -133 -176l98 -168h-141l-84 162h-33l-22 -162h-123l63 474h218zM670 1049q65 0 65 61q0 41 -51 41h-82l-16 -102h84z" />
    <glyph glyph-name="macron" unicode="&#xaf;" horiz-adv-x="1269" 
d="M424 1253l20 154h629l-20 -154h-629z" />
    <glyph glyph-name="degree" unicode="&#xb0;" horiz-adv-x="774" 
d="M442 854q-123 0 -200.5 75t-77.5 189q0 143 101.5 243.5t246.5 100.5q122 0 200.5 -75.5t78.5 -186.5q0 -142 -101.5 -244t-247.5 -102zM455 999q78 0 128 54t50 135q0 58 -35 93.5t-98 35.5q-77 0 -129 -55.5t-52 -128.5q0 -60 36.5 -97t99.5 -37z" />
    <glyph glyph-name="plusminus" unicode="&#xb1;" 
d="M864 860h363l-23 -170h-362l-51 -360h-181l52 360h-363l23 170h364l51 361h178zM203 0l22 170h905l-22 -170h-905z" />
    <glyph glyph-name="uni00B2" unicode="&#xb2;" horiz-adv-x="675" 
d="M563 1053l-215 -179h326l-21 -147h-565l18 119l314 262q68 53 105.5 98t37.5 88q0 33 -24 53.5t-66 20.5q-108 0 -192 -129l-121 76q48 93 134 147t191 54q103 0 172.5 -57.5t69.5 -143.5q0 -125 -164 -262z" />
    <glyph glyph-name="uni00B3" unicode="&#xb3;" horiz-adv-x="659" 
d="M549 1118q117 -38 117 -160q0 -109 -86.5 -177t-219.5 -68q-182 0 -276 116l98 109q69 -80 180 -80q63 0 102.5 28t39.5 81q0 80 -127 80h-82l20 143h80q70 0 109 26.5t39 73.5q0 78 -101 78q-104 0 -190 -86l-100 100q56 64 134.5 99t166.5 35q114 0 185 -54.5
t71 -146.5q0 -73 -44 -124.5t-116 -72.5z" />
    <glyph glyph-name="acute" unicode="&#xb4;" horiz-adv-x="1269" 
d="M641 1210l274 308h240l-309 -308h-205z" />
    <glyph glyph-name="uni00B5" unicode="&#xb5;" horiz-adv-x="1267" 
d="M973 1038h192l-147 -1038h-189l25 170q-53 -92 -147.5 -145.5t-198.5 -53.5q-139 0 -201 101l-74 -523h-192l209 1489h192l-92 -657q-9 -119 39 -175t156 -56q135 0 229.5 81.5t116.5 235.5z" />
    <glyph glyph-name="paragraph" unicode="&#xb6;" horiz-adv-x="1335" 
d="M393 -266l154 1081h-29q-155 0 -242.5 72t-87.5 190q0 162 125 259.5t314 97.5h190l-239 -1700h-185zM795 -266l239 1700h185l-240 -1700h-184z" />
    <glyph glyph-name="periodcentered" unicode="&#xb7;" horiz-adv-x="520" 
d="M283 604q-64 0 -97.5 39.5t-25.5 104.5q5 55 43 89.5t98 34.5q64 0 97.5 -38t25.5 -99q-5 -58 -43.5 -94.5t-97.5 -36.5z" />
    <glyph glyph-name="cedilla" unicode="&#xb8;" horiz-adv-x="1269" 
d="M276 -393l224 434h166l-185 -434h-205z" />
    <glyph glyph-name="uni00B9" unicode="&#xb9;" horiz-adv-x="497" 
d="M397 1501h135l-108 -774h-158l86 606l-198 -92l22 154z" />
    <glyph glyph-name="ordmasculine" unicode="&#xba;" horiz-adv-x="1112" 
d="M573 584q-186 0 -297.5 112t-111.5 283q0 110 47 219.5t129 183.5q144 134 346 134q186 0 298 -112.5t112 -283.5q0 -122 -53.5 -235.5t-147.5 -188.5q-138 -112 -322 -112zM582 750q113 0 204 75q58 50 89.5 125t31.5 156q0 112 -59.5 178t-167.5 66q-131 0 -221 -93
q-105 -105 -105 -268q0 -108 60 -173.5t168 -65.5z" />
    <glyph glyph-name="guillemotright" unicode="&#xbb;" horiz-adv-x="1140" 
d="M360 958l250 -442l-368 -440h-217l370 442l-243 440h208zM815 958l250 -442l-369 -440h-217l371 442l-244 440h209z" />
    <glyph glyph-name="onequarter" unicode="&#xbc;" horiz-adv-x="1548" 
d="M332 674l88 606l-199 -92l21 153l223 107h133l-109 -774h-157zM1272 1434h184l-1206 -1434h-182zM1329 760l-67 -488h94l-19 -133h-94l-22 -153h-152l23 153h-394l21 133l426 488h184zM883 272h227l43 308z" />
    <glyph glyph-name="onehalf" unicode="&#xbd;" horiz-adv-x="1548" 
d="M317 674l86 606l-198 -92l22 153l222 107h135l-109 -774h-158zM1257 1434h185l-1206 -1434h-183zM1434 573q0 -125 -164 -262l-215 -178h325l-20 -147h-565l16 118l315 263q68 54 105 98.5t37 87.5q0 33 -23 53.5t-65 20.5q-112 0 -193 -129l-121 75q48 93 134 147
t190 54t174 -57.5t70 -143.5z" />
    <glyph glyph-name="threequarters" unicode="&#xbe;" horiz-adv-x="1548" 
d="M682 905q0 -109 -86 -177.5t-219 -68.5q-183 0 -277 117l99 109q69 -80 180 -80q63 0 103 27.5t40 80.5q0 80 -129 80h-82l21 144h80q70 0 108.5 26.5t38.5 73.5q0 78 -100 78q-102 0 -191 -86l-100 100q56 63 134 98t167 35q114 0 185 -54t71 -146q0 -73 -44 -124.5
t-116 -72.5q117 -39 117 -160zM1362 1434h182l-1206 -1434h-180zM1417 760l-67 -488h96l-21 -133h-94l-22 -153h-150l23 153h-394l19 133l428 488h182zM973 272h227l43 310z" />
    <glyph glyph-name="questiondown" unicode="&#xbf;" horiz-adv-x="964" 
d="M594 1040q64 0 97.5 -39t25.5 -102q-6 -56 -44.5 -91.5t-97.5 -35.5q-64 0 -97 38.5t-27 100.5q6 58 45 93.5t98 35.5zM631 573l-13 -96q-15 -103 -54.5 -164t-143.5 -139l-111 -82q-65 -49 -98 -98t-33 -111q0 -65 46 -103t130 -38q96 0 184 50t158 145l131 -103
q-70 -123 -200 -197.5t-283 -74.5q-164 0 -265.5 83t-101.5 214q0 109 59 194t173 170l108 82q61 45 82.5 77.5t30.5 96.5l12 94h189z" />
    <glyph glyph-name="Agrave" unicode="&#xc0;" horiz-adv-x="1466" 
d="M1042 1606h-194l-227 307h231zM1147 0l-94 377h-670l-201 -377h-215l781 1434h227l375 -1434h-203zM477 555h531l-170 680z" />
    <glyph glyph-name="Aacute" unicode="&#xc1;" horiz-adv-x="1466" 
d="M1243 1913l-309 -307h-205l275 307h239zM1147 0l-94 377h-670l-201 -377h-215l781 1434h227l375 -1434h-203zM477 555h531l-170 680z" />
    <glyph glyph-name="Acircumflex" unicode="&#xc2;" horiz-adv-x="1466" 
d="M922 1800l-205 -194h-205l326 307h180l242 -307h-187zM1147 0l-94 377h-670l-201 -377h-215l781 1434h227l375 -1434h-203zM477 555h531l-170 680z" />
    <glyph glyph-name="Atilde" unicode="&#xc3;" horiz-adv-x="1466" 
d="M772 1755q-32 0 -54 -32t-28 -93h-137q10 128 70 198t155 70q41 0 78.5 -19t87.5 -64q38 -33 57 -43.5t41 -10.5q32 0 54 31.5t28 93.5h138q-10 -128 -70.5 -198t-155.5 -70q-38 0 -75.5 18t-90.5 66q-35 31 -55.5 42t-42.5 11zM1147 0l-94 377h-670l-201 -377h-215
l781 1434h227l375 -1434h-203zM477 555h531l-170 680z" />
    <glyph glyph-name="Adieresis" unicode="&#xc4;" horiz-adv-x="1466" 
d="M668 1638q-52 0 -82.5 30t-30.5 77q0 63 42 107t105 44q52 0 83.5 -31t31.5 -79q0 -59 -43.5 -103.5t-105.5 -44.5zM1114 1638q-52 0 -82.5 30t-30.5 77q0 63 43 107t107 44q50 0 81.5 -31t31.5 -79q0 -59 -44 -103.5t-106 -44.5zM1147 0l-94 377h-670l-201 -377h-215
l781 1434h227l375 -1434h-203zM477 555h531l-170 680z" />
    <glyph glyph-name="Aring" unicode="&#xc5;" horiz-adv-x="1466" 
d="M889 1579q-101 0 -167.5 61t-66.5 152q0 113 86.5 194.5t204.5 81.5q99 0 164.5 -60t65.5 -150q0 -114 -85.5 -196.5t-201.5 -82.5zM940 1942q-60 0 -102.5 -41t-42.5 -101q0 -43 26 -68.5t74 -25.5q60 0 100.5 40.5t40.5 100.5q0 44 -25 69.5t-71 25.5zM1147 0l-94 377
h-670l-201 -377h-215l781 1434h227l375 -1434h-203zM477 555h531l-170 680z" />
    <glyph glyph-name="AE" unicode="&#xc6;" horiz-adv-x="2256" 
d="M2193 1249h-790l-60 -432h752l-27 -186h-751l-62 -447h809l-26 -184h-1012l49 352h-592l-288 -352h-240l1184 1434h1081zM631 532h471l98 693z" />
    <glyph glyph-name="Ccedilla" unicode="&#xc7;" horiz-adv-x="1548" 
d="M791 160q150 0 281 69.5t224 208.5l162 -94q-106 -168 -272 -263.5t-357 -107.5l-155 -366h-205l190 373q-238 34 -377 201.5t-139 414.5q0 207 94.5 396.5t260.5 312.5q223 157 487 157q204 0 354 -95t215 -277l-174 -95q-109 279 -409 279q-208 0 -373 -127
q-118 -93 -181 -235.5t-63 -301.5q0 -205 115 -327.5t322 -122.5z" />
    <glyph glyph-name="Egrave" unicode="&#xc8;" horiz-adv-x="1359" 
d="M997 1606h-194l-228 307h232zM1296 1249h-790l-60 -434h748l-27 -182h-747l-60 -449h807l-26 -184h-1010l203 1434h989z" />
    <glyph glyph-name="Eacute" unicode="&#xc9;" horiz-adv-x="1359" 
d="M1198 1913l-309 -307h-205l274 307h240zM1296 1249h-790l-60 -434h748l-27 -182h-747l-60 -449h807l-26 -184h-1010l203 1434h989z" />
    <glyph glyph-name="Ecircumflex" unicode="&#xca;" horiz-adv-x="1359" 
d="M877 1800l-205 -194h-205l326 307h180l241 -307h-186zM1296 1249h-790l-60 -434h748l-27 -182h-747l-60 -449h807l-26 -184h-1010l203 1434h989z" />
    <glyph glyph-name="Edieresis" unicode="&#xcb;" horiz-adv-x="1359" 
d="M623 1638q-52 0 -82.5 30t-30.5 77q0 63 42 107t105 44q52 0 83.5 -31t31.5 -79q0 -59 -43.5 -103.5t-105.5 -44.5zM1069 1638q-52 0 -82.5 30t-30.5 77q0 63 43 107t107 44q50 0 81.5 -31t31.5 -79q0 -59 -44 -103.5t-106 -44.5zM1296 1249h-790l-60 -434h748l-27 -182
h-747l-60 -449h807l-26 -184h-1010l203 1434h989z" />
    <glyph glyph-name="Igrave" unicode="&#xcc;" horiz-adv-x="618" 
d="M424 1606l-227 307h231l190 -307h-194zM135 0l203 1434h201l-203 -1434h-201z" />
    <glyph glyph-name="Iacute" unicode="&#xcd;" horiz-adv-x="618" 
d="M305 1606l275 307h239l-309 -307h-205zM135 0l203 1434h201l-203 -1434h-201z" />
    <glyph glyph-name="Icircumflex" unicode="&#xce;" horiz-adv-x="618" 
d="M594 1913l242 -307h-187l-151 194l-205 -194h-205l326 307h180zM135 0l203 1434h201l-203 -1434h-201z" />
    <glyph glyph-name="Idieresis" unicode="&#xcf;" horiz-adv-x="618" 
d="M244 1638q-52 0 -82.5 30t-30.5 77q0 63 42.5 107t105.5 44q52 0 83 -31t31 -79q0 -59 -43.5 -103.5t-105.5 -44.5zM690 1638q-51 0 -81.5 30t-30.5 77q0 63 42 107t105 44q52 0 83.5 -31t31.5 -79q0 -59 -44 -103.5t-106 -44.5zM135 0l203 1434h201l-203 -1434h-201z
" />
    <glyph glyph-name="Eth" unicode="&#xd0;" horiz-adv-x="1603" 
d="M897 1434q283 0 451 -155t168 -429q0 -173 -63 -342.5t-177 -286.5q-107 -107 -253 -164t-316 -57h-535l90 635h-188l22 164h189l90 635h522zM1147 367q78 88 118 215t40 258q0 407 -424 407h-330l-64 -448h392l-23 -164h-391l-64 -449h316q131 0 242 46t188 135z" />
    <glyph glyph-name="Ntilde" unicode="&#xd1;" horiz-adv-x="1622" 
d="M850 1755q-32 0 -54 -32t-28 -93h-137q10 128 70 198t155 70q41 0 78.5 -19t87.5 -64q38 -33 57 -43.5t41 -10.5q32 0 54 31.5t28 93.5h137q-10 -128 -70 -198t-155 -70q-38 0 -75.5 18t-90.5 66q-35 31 -55.5 42t-42.5 11zM1350 1434h198l-202 -1434h-187l-674 1116
l-157 -1116h-197l203 1434h184l674 -1115z" />
    <glyph glyph-name="Ograve" unicode="&#xd2;" horiz-adv-x="1722" 
d="M975 1606l-227 307h231l190 -307h-194zM795 -29q-293 0 -471.5 176.5t-178.5 454.5q0 191 82 367.5t226 300.5q224 192 532 192q192 0 341 -84t228.5 -227.5t79.5 -321.5q0 -173 -73 -342.5t-199 -291.5q-112 -106 -258 -165t-309 -59zM801 160q246 0 426 174
q96 94 146 221.5t50 263.5q0 205 -118 330t-328 125q-229 0 -406 -156q-104 -95 -159.5 -226.5t-55.5 -277.5q0 -204 119.5 -329t325.5 -125z" />
    <glyph glyph-name="Oacute" unicode="&#xd3;" horiz-adv-x="1722" 
d="M858 1606l275 307h239l-309 -307h-205zM795 -29q-293 0 -471.5 176.5t-178.5 454.5q0 191 82 367.5t226 300.5q224 192 532 192q192 0 341 -84t228.5 -227.5t79.5 -321.5q0 -173 -73 -342.5t-199 -291.5q-112 -106 -258 -165t-309 -59zM801 160q246 0 426 174
q96 94 146 221.5t50 263.5q0 205 -118 330t-328 125q-229 0 -406 -156q-104 -95 -159.5 -226.5t-55.5 -277.5q0 -204 119.5 -329t325.5 -125z" />
    <glyph glyph-name="Ocircumflex" unicode="&#xd4;" horiz-adv-x="1722" 
d="M1049 1800l-205 -194h-205l326 307h180l241 -307h-186zM985 1462q192 0 341 -84t228.5 -227.5t79.5 -321.5q0 -173 -73 -342.5t-199 -291.5q-112 -106 -258 -165t-309 -59q-293 0 -471.5 176.5t-178.5 454.5q0 191 82 367.5t226 300.5q224 192 532 192zM1227 334
q96 94 146 221.5t50 263.5q0 205 -118 330t-328 125q-229 0 -406 -156q-104 -95 -159.5 -226.5t-55.5 -277.5q0 -204 119.5 -329t325.5 -125q246 0 426 174z" />
    <glyph glyph-name="Otilde" unicode="&#xd5;" horiz-adv-x="1722" 
d="M1163 1618q-38 0 -75.5 18t-90.5 66q-35 31 -55.5 42t-42.5 11q-32 0 -54 -32t-28 -93h-137q10 128 70 198t155 70q41 0 78.5 -19t87.5 -64q38 -33 57 -43.5t41 -10.5q32 0 54 31.5t28 93.5h138q-10 -128 -70.5 -198t-155.5 -70zM795 -29q-293 0 -471.5 176.5
t-178.5 454.5q0 191 82 367.5t226 300.5q224 192 532 192q192 0 341 -84t228.5 -227.5t79.5 -321.5q0 -173 -73 -342.5t-199 -291.5q-112 -106 -258 -165t-309 -59zM801 160q246 0 426 174q96 94 146 221.5t50 263.5q0 205 -118 330t-328 125q-229 0 -406 -156
q-104 -95 -159.5 -226.5t-55.5 -277.5q0 -204 119.5 -329t325.5 -125z" />
    <glyph glyph-name="Odieresis" unicode="&#xd6;" horiz-adv-x="1722" 
d="M795 1638q-52 0 -82.5 30t-30.5 77q0 63 42 107t105 44q52 0 83.5 -31t31.5 -79q0 -59 -43.5 -103.5t-105.5 -44.5zM1241 1638q-52 0 -82.5 30t-30.5 77q0 63 43 107t107 44q50 0 81.5 -31t31.5 -79q0 -59 -44 -103.5t-106 -44.5zM795 -29q-293 0 -471.5 176.5
t-178.5 454.5q0 191 82 367.5t226 300.5q224 192 532 192q192 0 341 -84t228.5 -227.5t79.5 -321.5q0 -173 -73 -342.5t-199 -291.5q-112 -106 -258 -165t-309 -59zM801 160q246 0 426 174q96 94 146 221.5t50 263.5q0 205 -118 330t-328 125q-229 0 -406 -156
q-104 -95 -159.5 -226.5t-55.5 -277.5q0 -204 119.5 -329t325.5 -125z" />
    <glyph glyph-name="multiply" unicode="&#xd7;" 
d="M1212 956l-352 -309l262 -307l-133 -113l-258 305l-348 -305l-104 115l350 309l-260 307l131 113l260 -305l346 305z" />
    <glyph glyph-name="Oslash" unicode="&#xd8;" horiz-adv-x="1722" 
d="M1706 1333l-172 -149q100 -152 100 -355q0 -173 -73 -342.5t-199 -291.5q-112 -106 -258 -165t-309 -59q-278 0 -457 162l-168 -147l-98 114l170 148q-97 159 -97 354q0 191 82 367.5t226 300.5q224 192 532 192q275 0 453 -164l172 150zM571 1118
q-104 -95 -159.5 -226.5t-55.5 -277.5q0 -125 47 -225l885 776q-118 109 -311 109q-229 0 -406 -156zM1227 334q96 94 146 221.5t50 263.5q0 128 -47 228l-884 -777q116 -110 309 -110q246 0 426 174z" />
    <glyph glyph-name="Ugrave" unicode="&#xd9;" horiz-adv-x="1544" 
d="M887 1606l-228 307h232l190 -307h-194zM696 -29q-246 0 -383 116t-137 329q0 30 8 100l129 918h201l-127 -899q-6 -47 -6 -86q0 -148 79 -218.5t249 -70.5q194 0 310 94.5t142 280.5l127 899h201l-129 -918q-37 -258 -213 -401.5t-451 -143.5z" />
    <glyph glyph-name="Uacute" unicode="&#xda;" horiz-adv-x="1544" 
d="M768 1606l274 307h240l-309 -307h-205zM696 -29q-246 0 -383 116t-137 329q0 30 8 100l129 918h201l-127 -899q-6 -47 -6 -86q0 -148 79 -218.5t249 -70.5q194 0 310 94.5t142 280.5l127 899h201l-129 -918q-37 -258 -213 -401.5t-451 -143.5z" />
    <glyph glyph-name="Ucircumflex" unicode="&#xdb;" horiz-adv-x="1544" 
d="M961 1800l-205 -194h-205l326 307h180l241 -307h-186zM1288 1434h201l-129 -918q-37 -258 -213 -401.5t-451 -143.5q-246 0 -383 116t-137 329q0 30 8 100l129 918h201l-127 -899q-6 -47 -6 -86q0 -148 79 -218.5t249 -70.5q194 0 310 94.5t142 280.5z" />
    <glyph glyph-name="Udieresis" unicode="&#xdc;" horiz-adv-x="1544" 
d="M707 1638q-52 0 -82.5 30t-30.5 77q0 63 42 107t105 44q52 0 83.5 -31t31.5 -79q0 -59 -43.5 -103.5t-105.5 -44.5zM1153 1638q-52 0 -82.5 30t-30.5 77q0 63 43 107t107 44q50 0 81.5 -31t31.5 -79q0 -59 -44 -103.5t-106 -44.5zM696 -29q-246 0 -383 116t-137 329
q0 30 8 100l129 918h201l-127 -899q-6 -47 -6 -86q0 -148 79 -218.5t249 -70.5q194 0 310 94.5t142 280.5l127 899h201l-129 -918q-37 -258 -213 -401.5t-451 -143.5z" />
    <glyph glyph-name="Yacute" unicode="&#xdd;" horiz-adv-x="1325" 
d="M1169 1913l-309 -307h-205l275 307h239zM1204 1434h236l-668 -844l-86 -590h-201l86 590l-430 844h219l328 -666z" />
    <glyph glyph-name="Thorn" unicode="&#xde;" horiz-adv-x="1380" 
d="M885 1182q206 0 321 -99.5t115 -273.5q0 -108 -41.5 -215t-112.5 -172q-141 -141 -407 -141h-389l-39 -281h-201l203 1434h201l-35 -252h385zM1032 555q39 43 58.5 111t19.5 133q0 103 -62 149.5t-202 46.5h-373l-76 -530h373q184 0 262 90z" />
    <glyph glyph-name="germandbls" unicode="&#xdf;" horiz-adv-x="1267" 
d="M848 762q157 -18 239 -104.5t82 -219.5q0 -210 -151 -332t-389 -122q-76 0 -152 16l25 168q63 -14 119 -14q169 0 259.5 81t90.5 224q0 98 -70.5 149t-206.5 51h-125l25 175h41q172 0 268 96q42 45 63 107.5t21 125.5q0 92 -52.5 136t-166.5 44q-144 0 -223 -71.5
t-101 -224.5l-149 -1047h-193l150 1057q31 222 162.5 340.5t347.5 118.5q195 0 308.5 -92.5t113.5 -249.5q0 -95 -43 -184.5t-119 -147.5q-72 -57 -174 -80z" />
    <glyph glyph-name="agrave" unicode="&#xe0;" horiz-adv-x="1341" 
d="M946 1210h-194l-228 308h232zM1047 1038h192l-147 -1038h-193l25 178q-59 -96 -165 -151.5t-231 -55.5q-191 0 -309.5 128t-118.5 339q0 136 51.5 262.5t141.5 214.5q72 72 169 112t202 40q130 0 228 -59.5t128 -159.5zM846 254q66 60 102.5 150.5t36.5 185.5
q0 136 -76.5 217.5t-210.5 81.5q-157 0 -264 -107q-66 -66 -99.5 -156t-33.5 -180q0 -135 74.5 -215.5t206.5 -80.5q157 0 264 104z" />
    <glyph glyph-name="aacute" unicode="&#xe1;" horiz-adv-x="1341" 
d="M1147 1518l-309 -308h-205l274 308h240zM1047 1038h192l-147 -1038h-193l25 178q-59 -96 -165 -151.5t-231 -55.5q-191 0 -309.5 128t-118.5 339q0 136 51.5 262.5t141.5 214.5q72 72 169 112t202 40q130 0 228 -59.5t128 -159.5zM846 254q66 60 102.5 150.5t36.5 185.5
q0 136 -76.5 217.5t-210.5 81.5q-157 0 -264 -107q-66 -66 -99.5 -156t-33.5 -180q0 -135 74.5 -215.5t206.5 -80.5q157 0 264 104z" />
    <glyph glyph-name="acircumflex" unicode="&#xe2;" horiz-adv-x="1341" 
d="M825 1405l-204 -195h-205l325 308h181l241 -308h-186zM1047 1038h192l-147 -1038h-193l25 178q-59 -96 -165 -151.5t-231 -55.5q-191 0 -309.5 128t-118.5 339q0 136 51.5 262.5t141.5 214.5q72 72 169 112t202 40q130 0 228 -59.5t128 -159.5zM846 254
q66 60 102.5 150.5t36.5 185.5q0 136 -76.5 217.5t-210.5 81.5q-157 0 -264 -107q-66 -66 -99.5 -156t-33.5 -180q0 -135 74.5 -215.5t206.5 -80.5q157 0 264 104z" />
    <glyph glyph-name="atilde" unicode="&#xe3;" horiz-adv-x="1341" 
d="M676 1360q-32 0 -54 -32t-28 -93h-137q10 128 70 198t155 70q40 0 77.5 -19.5t88.5 -64.5q37 -33 56.5 -43t41.5 -10q32 0 54 31.5t28 93.5h137q-10 -128 -70 -198t-155 -70q-38 0 -75.5 18t-90.5 66q-35 31 -55.5 42t-42.5 11zM1047 1038h192l-147 -1038h-193l25 178
q-59 -96 -165 -151.5t-231 -55.5q-191 0 -309.5 128t-118.5 339q0 136 51.5 262.5t141.5 214.5q72 72 169 112t202 40q130 0 228 -59.5t128 -159.5zM846 254q66 60 102.5 150.5t36.5 185.5q0 136 -76.5 217.5t-210.5 81.5q-157 0 -264 -107q-66 -66 -99.5 -156t-33.5 -180
q0 -135 74.5 -215.5t206.5 -80.5q157 0 264 104z" />
    <glyph glyph-name="adieresis" unicode="&#xe4;" horiz-adv-x="1341" 
d="M571 1243q-51 0 -81.5 30t-30.5 77q0 63 42 107t105 44q52 0 83.5 -31t31.5 -79q0 -59 -44 -103.5t-106 -44.5zM1018 1243q-52 0 -82.5 30t-30.5 77q0 63 42.5 107t105.5 44q52 0 83 -31t31 -79q0 -59 -43.5 -103.5t-105.5 -44.5zM1047 1038h192l-147 -1038h-193l25 178
q-59 -96 -165 -151.5t-231 -55.5q-191 0 -309.5 128t-118.5 339q0 136 51.5 262.5t141.5 214.5q72 72 169 112t202 40q130 0 228 -59.5t128 -159.5zM846 254q66 60 102.5 150.5t36.5 185.5q0 136 -76.5 217.5t-210.5 81.5q-157 0 -264 -107q-66 -66 -99.5 -156t-33.5 -180
q0 -135 74.5 -215.5t206.5 -80.5q157 0 264 104z" />
    <glyph glyph-name="aring" unicode="&#xe5;" horiz-adv-x="1341" 
d="M793 1184q-101 0 -167.5 61t-66.5 152q0 113 86.5 194.5t204.5 81.5q99 0 164 -60.5t65 -150.5q0 -114 -85 -196t-201 -82zM844 1546q-60 0 -103 -40.5t-43 -100.5q0 -42 26.5 -68t74.5 -26q60 0 100.5 40.5t40.5 100.5q0 44 -25 69t-71 25zM1047 1038h192l-147 -1038
h-193l25 178q-59 -96 -165 -151.5t-231 -55.5q-191 0 -309.5 128t-118.5 339q0 136 51.5 262.5t141.5 214.5q72 72 169 112t202 40q130 0 228 -59.5t128 -159.5zM846 254q66 60 102.5 150.5t36.5 185.5q0 136 -76.5 217.5t-210.5 81.5q-157 0 -264 -107q-66 -66 -99.5 -156
t-33.5 -180q0 -135 74.5 -215.5t206.5 -80.5q157 0 264 104z" />
    <glyph glyph-name="ae" unicode="&#xe6;" horiz-adv-x="1927" 
d="M1407 1067q195 0 313.5 -117.5t118.5 -310.5q0 -24 -8 -86q-6 -47 -21 -90h-806v-25q0 -139 75.5 -216t212.5 -77q181 0 348 154l111 -113q-83 -103 -206 -159t-265 -56q-150 0 -257.5 63.5t-150.5 176.5q-59 -110 -182 -175t-278 -65q-163 0 -259 75t-96 200
q0 79 33 149t94 117q123 94 355 94h290l11 70q4 32 4 43q0 84 -53 129t-152 45q-93 0 -178.5 -36.5t-149.5 -106.5l-106 118q76 94 197.5 146.5t261.5 52.5q131 0 216 -49.5t119 -143.5q75 93 180.5 143t227.5 50zM1124 776q-63 -66 -96 -170h619q2 10 2 31
q0 123 -65.5 188.5t-186.5 65.5q-164 0 -273 -115zM434 127q141 0 247.5 84t121.5 207l6 45h-281q-153 0 -223 -64q-49 -46 -49 -133q0 -67 45 -103t133 -36z" />
    <glyph glyph-name="ccedilla" unicode="&#xe7;" horiz-adv-x="1146" 
d="M592 150q195 0 307 196l162 -78q-62 -119 -172.5 -195t-245.5 -96l-158 -370h-204l190 370q-170 26 -270.5 149.5t-100.5 305.5q0 141 57 271.5t160 218.5q167 145 394 145q161 0 273 -79t146 -218l-182 -78q-59 197 -250 197q-155 0 -266 -105q-62 -62 -97.5 -152.5
t-35.5 -182.5q0 -138 79 -218.5t214 -80.5z" />
    <glyph glyph-name="egrave" unicode="&#xe8;" horiz-adv-x="1224" 
d="M883 1210h-195l-227 308h231zM1108 461h-815v-19q0 -144 76 -220.5t217 -76.5q198 0 346 154l115 -111q-188 -217 -474 -217q-216 0 -345.5 125.5t-129.5 333.5q0 137 54.5 270t152.5 222q161 145 389 145q195 0 318 -118t123 -312q0 -78 -27 -176zM422 786
q-68 -68 -105 -178h625v29q0 123 -65.5 188.5t-188.5 65.5q-158 0 -266 -105z" />
    <glyph glyph-name="eacute" unicode="&#xe9;" horiz-adv-x="1224" 
d="M1083 1518l-309 -308h-205l275 308h239zM1108 461h-815v-19q0 -144 76 -220.5t217 -76.5q198 0 346 154l115 -111q-188 -217 -474 -217q-216 0 -345.5 125.5t-129.5 333.5q0 137 54.5 270t152.5 222q161 145 389 145q195 0 318 -118t123 -312q0 -78 -27 -176zM422 786
q-68 -68 -105 -178h625v29q0 123 -65.5 188.5t-188.5 65.5q-158 0 -266 -105z" />
    <glyph glyph-name="ecircumflex" unicode="&#xea;" horiz-adv-x="1224" 
d="M762 1405l-205 -195h-205l326 308h180l242 -308h-187zM1108 461h-815v-19q0 -144 76 -220.5t217 -76.5q198 0 346 154l115 -111q-188 -217 -474 -217q-216 0 -345.5 125.5t-129.5 333.5q0 137 54.5 270t152.5 222q161 145 389 145q195 0 318 -118t123 -312
q0 -78 -27 -176zM422 786q-68 -68 -105 -178h625v29q0 123 -65.5 188.5t-188.5 65.5q-158 0 -266 -105z" />
    <glyph glyph-name="edieresis" unicode="&#xeb;" horiz-adv-x="1224" 
d="M508 1243q-52 0 -82.5 30t-30.5 77q0 63 42.5 107t105.5 44q52 0 83 -31t31 -79q0 -59 -43.5 -103.5t-105.5 -44.5zM954 1243q-51 0 -81.5 30t-30.5 77q0 63 42 107t105 44q52 0 83.5 -31t31.5 -79q0 -59 -44 -103.5t-106 -44.5zM1108 461h-815v-19q0 -144 76 -220.5
t217 -76.5q198 0 346 154l115 -111q-188 -217 -474 -217q-216 0 -345.5 125.5t-129.5 333.5q0 137 54.5 270t152.5 222q161 145 389 145q195 0 318 -118t123 -312q0 -78 -27 -176zM422 786q-68 -68 -105 -178h625v29q0 123 -65.5 188.5t-188.5 65.5q-158 0 -266 -105z" />
    <glyph glyph-name="igrave" unicode="&#xec;" horiz-adv-x="548" 
d="M340 1210l-182 308h227l143 -308h-188zM104 0l148 1038h192l-147 -1038h-193z" />
    <glyph glyph-name="iacute" unicode="&#xed;" horiz-adv-x="548" 
d="M221 1210l228 308h229l-266 -308h-191zM104 0l148 1038h192l-147 -1038h-193z" />
    <glyph glyph-name="icircumflex" unicode="&#xee;" horiz-adv-x="548" 
d="M504 1518l203 -308h-181l-120 195l-177 -195h-192l289 308h178zM104 0l148 1038h192l-147 -1038h-193z" />
    <glyph glyph-name="idieresis" unicode="&#xef;" horiz-adv-x="548" 
d="M186 1247q-49 0 -77.5 28.5t-28.5 74.5q0 62 41 104.5t102 42.5q49 0 79 -29.5t30 -76.5q0 -58 -42.5 -101t-103.5 -43zM565 1247q-49 0 -78.5 28.5t-29.5 74.5q0 62 41.5 104.5t103.5 42.5q49 0 79 -29.5t30 -76.5q0 -58 -42.5 -101t-103.5 -43zM104 0l148 1038h192
l-147 -1038h-193z" />
    <glyph glyph-name="eth" unicode="&#xf0;" horiz-adv-x="1275" 
d="M958 1319q234 -237 228 -614q-3 -359 -185 -549q-179 -185 -432 -185q-218 0 -345.5 127.5t-127.5 321.5q0 118 49.5 237.5t137.5 202.5q77 74 178.5 115t214.5 41q103 0 190.5 -36t137.5 -110q-34 219 -187 357l-244 -156l-55 94l205 131q-103 65 -236 105l72 141
q180 -49 313 -149l232 149l57 -94zM858 262q119 119 119 293q0 130 -76.5 208.5t-214.5 78.5q-174 0 -283 -115q-52 -57 -79 -134.5t-27 -158.5q0 -132 72 -210.5t206 -78.5q166 0 283 117z" />
    <glyph glyph-name="ntilde" unicode="&#xf1;" horiz-adv-x="1259" 
d="M616 1360q-32 0 -53.5 -32t-27.5 -93h-138q10 128 70.5 198t155.5 70q40 0 77 -19.5t88 -64.5q37 -33 56.5 -43t42.5 -10q32 0 54 31.5t28 93.5h137q-10 -128 -70 -198t-155 -70q-38 0 -75.5 18t-90.5 66q-35 31 -56 42t-43 11zM795 1067q154 0 238.5 -82t84.5 -233
q0 -40 -6 -84l-94 -668h-193l86 621q7 51 7 79q0 97 -47.5 143t-145.5 46q-133 0 -229 -75t-113 -202l-88 -612h-193l148 1038h192l-24 -168q57 94 156 145.5t221 51.5z" />
    <glyph glyph-name="ograve" unicode="&#xf2;" horiz-adv-x="1286" 
d="M702 1210l-227 308h232l190 -308h-195zM580 -29q-145 0 -255.5 63t-167.5 169t-57 237q0 133 58 261.5t157 218.5q163 147 394 147q217 0 348 -134t131 -335q0 -135 -63 -268t-167 -221q-164 -138 -378 -138zM586 150q146 0 258 98q72 66 107.5 156.5t35.5 185.5
q0 137 -73.5 218t-206.5 81q-162 0 -273 -111q-65 -62 -99 -150t-34 -179q0 -135 76 -217t209 -82z" />
    <glyph glyph-name="oacute" unicode="&#xf3;" horiz-adv-x="1286" 
d="M586 1210l274 308h240l-309 -308h-205zM580 -29q-145 0 -255.5 63t-167.5 169t-57 237q0 133 58 261.5t157 218.5q163 147 394 147q217 0 348 -134t131 -335q0 -135 -63 -268t-167 -221q-164 -138 -378 -138zM586 150q146 0 258 98q72 66 107.5 156.5t35.5 185.5
q0 137 -73.5 218t-206.5 81q-162 0 -273 -111q-65 -62 -99 -150t-34 -179q0 -135 76 -217t209 -82z" />
    <glyph glyph-name="ocircumflex" unicode="&#xf4;" horiz-adv-x="1286" 
d="M778 1405l-205 -195h-204l325 308h180l242 -308h-186zM709 1067q217 0 348 -134t131 -335q0 -135 -63 -268t-167 -221q-164 -138 -378 -138q-145 0 -255.5 63t-167.5 169t-57 237q0 133 58 261.5t157 218.5q163 147 394 147zM844 248q72 66 107.5 156.5t35.5 185.5
q0 137 -73.5 218t-206.5 81q-162 0 -273 -111q-65 -62 -99 -150t-34 -179q0 -135 76 -217t209 -82q146 0 258 98z" />
    <glyph glyph-name="otilde" unicode="&#xf5;" horiz-adv-x="1286" 
d="M893 1223q-38 0 -75.5 18t-90.5 66q-35 31 -55.5 42t-42.5 11q-32 0 -54 -32t-28 -93h-137q10 128 70 198t155 70q40 0 77.5 -19.5t88.5 -64.5q37 -33 56.5 -43t41.5 -10q32 0 54 31.5t28 93.5h137q-10 -128 -70 -198t-155 -70zM580 -29q-145 0 -255.5 63t-167.5 169
t-57 237q0 133 58 261.5t157 218.5q163 147 394 147q217 0 348 -134t131 -335q0 -135 -63 -268t-167 -221q-164 -138 -378 -138zM586 150q146 0 258 98q72 66 107.5 156.5t35.5 185.5q0 137 -73.5 218t-206.5 81q-162 0 -273 -111q-65 -62 -99 -150t-34 -179q0 -135 76 -217
t209 -82z" />
    <glyph glyph-name="odieresis" unicode="&#xf6;" horiz-adv-x="1286" 
d="M524 1243q-51 0 -81.5 30t-30.5 77q0 63 42 107t105 44q52 0 83.5 -31t31.5 -79q0 -59 -44 -103.5t-106 -44.5zM971 1243q-52 0 -82.5 30t-30.5 77q0 63 42.5 107t105.5 44q52 0 83 -31t31 -79q0 -59 -43.5 -103.5t-105.5 -44.5zM580 -29q-145 0 -255.5 63t-167.5 169
t-57 237q0 133 58 261.5t157 218.5q163 147 394 147q217 0 348 -134t131 -335q0 -135 -63 -268t-167 -221q-164 -138 -378 -138zM586 150q146 0 258 98q72 66 107.5 156.5t35.5 185.5q0 137 -73.5 218t-206.5 81q-162 0 -273 -111q-65 -62 -99 -150t-34 -179q0 -135 76 -217
t209 -82z" />
    <glyph glyph-name="divide" unicode="&#xf7;" 
d="M784 889q-54 0 -85 30.5t-31 81.5q0 57 40.5 98.5t98.5 41.5q55 0 87 -31.5t32 -83.5q0 -58 -41 -97.5t-101 -39.5zM281 563l22 172h907l-24 -172h-905zM684 158q-55 0 -87 31t-32 83q0 57 41 97.5t99 40.5q55 0 86.5 -30.5t31.5 -82.5q0 -59 -40.5 -99t-98.5 -40z" />
    <glyph glyph-name="oslash" unicode="&#xf8;" horiz-adv-x="1292" 
d="M1278 983l-154 -135q66 -114 66 -250q0 -135 -62.5 -268t-166.5 -221q-164 -138 -379 -138q-197 0 -326 113l-150 -131l-92 102l154 135q-66 111 -66 250q0 133 58 261.5t157 218.5q163 147 394 147q193 0 325 -113l150 131zM434 780q-65 -64 -99 -152t-34 -179
q0 -68 23 -132l577 508q-72 66 -192 66q-161 0 -275 -111zM846 246q73 66 109 157.5t36 186.5q0 66 -20 131l-578 -508q74 -68 195 -68q149 0 258 101z" />
    <glyph glyph-name="ugrave" unicode="&#xf9;" horiz-adv-x="1249" 
d="M874 1210h-194l-227 308h231zM954 1038h193l-148 -1038h-190l25 174q-57 -96 -159 -149.5t-226 -53.5q-150 0 -229 78.5t-79 226.5q0 46 6 95l95 667h192l-88 -620q-6 -52 -6 -94q0 -93 40.5 -133.5t133.5 -40.5q131 0 234 79t120 197z" />
    <glyph glyph-name="uacute" unicode="&#xfa;" horiz-adv-x="1249" 
d="M1077 1518l-309 -308h-205l275 308h239zM954 1038h193l-148 -1038h-190l25 174q-57 -96 -159 -149.5t-226 -53.5q-150 0 -229 78.5t-79 226.5q0 46 6 95l95 667h192l-88 -620q-6 -52 -6 -94q0 -93 40.5 -133.5t133.5 -40.5q131 0 234 79t120 197z" />
    <glyph glyph-name="ucircumflex" unicode="&#xfb;" horiz-adv-x="1249" 
d="M754 1405l-205 -195h-205l326 308h180l242 -308h-187zM954 1038h193l-148 -1038h-190l25 174q-57 -96 -159 -149.5t-226 -53.5q-150 0 -229 78.5t-79 226.5q0 46 6 95l95 667h192l-88 -620q-6 -52 -6 -94q0 -93 40.5 -133.5t133.5 -40.5q131 0 234 79t120 197z" />
    <glyph glyph-name="udieresis" unicode="&#xfc;" horiz-adv-x="1249" 
d="M500 1243q-52 0 -82.5 30t-30.5 77q0 63 42.5 107t105.5 44q52 0 83 -31t31 -79q0 -59 -43.5 -103.5t-105.5 -44.5zM946 1243q-51 0 -81.5 30t-30.5 77q0 63 42 107t105 44q52 0 83.5 -31t31.5 -79q0 -59 -44 -103.5t-106 -44.5zM954 1038h193l-148 -1038h-190l25 174
q-57 -96 -159 -149.5t-226 -53.5q-150 0 -229 78.5t-79 226.5q0 46 6 95l95 667h192l-88 -620q-6 -52 -6 -94q0 -93 40.5 -133.5t133.5 -40.5q131 0 234 79t120 197z" />
    <glyph glyph-name="yacute" unicode="&#xfd;" horiz-adv-x="1116" 
d="M1018 1518l-309 -308h-205l274 308h240zM948 1038h207l-780 -1446h-195l211 398l-280 1048h198l207 -835z" />
    <glyph glyph-name="thorn" unicode="&#xfe;" horiz-adv-x="1339" 
d="M815 1067q187 0 305.5 -127.5t118.5 -333.5q0 -137 -52.5 -267t-150.5 -222q-156 -146 -360 -146q-131 0 -226.5 60t-127.5 162l-84 -603h-193l268 1909h193l-88 -637q60 95 167.5 150t229.5 55zM911 262q62 65 95.5 155t33.5 183q0 133 -70 211t-202 78
q-176 0 -293 -127q-58 -62 -89.5 -146.5t-31.5 -171.5q0 -135 76 -214.5t209 -79.5q160 0 272 112z" />
    <glyph glyph-name="ydieresis" unicode="&#xff;" horiz-adv-x="1116" 
d="M440 1243q-51 0 -81.5 30t-30.5 77q0 63 42 107t105 44q52 0 83.5 -31t31.5 -79q0 -59 -44 -103.5t-106 -44.5zM887 1243q-52 0 -82.5 30t-30.5 77q0 63 42.5 107t105.5 44q52 0 83 -31t31 -79q0 -59 -43.5 -103.5t-105.5 -44.5zM948 1038h207l-780 -1446h-195l211 398
l-280 1048h198l207 -835z" />
    <glyph glyph-name="Amacron" unicode="&#x100;" horiz-adv-x="1466" 
d="M1227 1802l-21 -153h-628l20 153h629zM1147 0l-94 377h-670l-201 -377h-215l781 1434h227l375 -1434h-203zM477 555h531l-170 680z" />
    <glyph glyph-name="amacron" unicode="&#x101;" horiz-adv-x="1341" 
d="M1130 1407l-20 -154h-629l21 154h628zM1047 1038h192l-147 -1038h-193l25 178q-59 -96 -165 -151.5t-231 -55.5q-191 0 -309.5 128t-118.5 339q0 136 51.5 262.5t141.5 214.5q72 72 169 112t202 40q130 0 228 -59.5t128 -159.5zM846 254q66 60 102.5 150.5t36.5 185.5
q0 136 -76.5 217.5t-210.5 81.5q-157 0 -264 -107q-66 -66 -99.5 -156t-33.5 -180q0 -135 74.5 -215.5t206.5 -80.5q157 0 264 104z" />
    <glyph glyph-name="Abreve" unicode="&#x102;" horiz-adv-x="1466" 
d="M893 1593q-132 0 -209.5 62.5t-77.5 169.5q0 31 6 55h164q-2 -14 -2 -37q0 -56 31 -86.5t90 -30.5q71 0 118.5 41t57.5 113h166l-2 -12q-18 -126 -108 -200.5t-234 -74.5zM1147 0l-94 377h-670l-201 -377h-215l781 1434h227l375 -1434h-203zM477 555h531l-170 680z" />
    <glyph glyph-name="abreve" unicode="&#x103;" horiz-adv-x="1341" 
d="M797 1198q-132 0 -209.5 62.5t-77.5 169.5q0 31 6 55h164q-2 -14 -2 -37q0 -56 31 -86.5t90 -30.5q71 0 118.5 41t57.5 113h166l-2 -12q-18 -126 -108 -200.5t-234 -74.5zM1047 1038h192l-147 -1038h-193l25 178q-59 -96 -165 -151.5t-231 -55.5q-191 0 -309.5 128
t-118.5 339q0 136 51.5 262.5t141.5 214.5q72 72 169 112t202 40q130 0 228 -59.5t128 -159.5zM846 254q66 60 102.5 150.5t36.5 185.5q0 136 -76.5 217.5t-210.5 81.5q-157 0 -264 -107q-66 -66 -99.5 -156t-33.5 -180q0 -135 74.5 -215.5t206.5 -80.5q157 0 264 104z" />
    <glyph glyph-name="Aogonek" unicode="&#x104;" horiz-adv-x="1466" 
d="M1133 -221q0 -66 108 -66h70l-21 -151h-94q-119 0 -184.5 46t-65.5 122q0 155 221 270h-20l-94 377h-670l-201 -377h-215l781 1434h227l375 -1432l2 -2q-17 -13 -57.5 -42t-62 -46t-48 -42t-39 -47t-12.5 -44zM477 555h531l-170 680z" />
    <glyph glyph-name="aogonek" unicode="&#x105;" horiz-adv-x="1341" 
d="M1092 0q-18 -14 -57.5 -42.5t-61.5 -45.5t-49 -41.5t-39.5 -47t-12.5 -44.5q0 -66 109 -66h70l-21 -151h-94q-119 0 -184.5 46t-65.5 122q0 155 221 270h-8l25 178q-59 -96 -165 -151.5t-231 -55.5q-191 0 -309.5 128t-118.5 339q0 136 51.5 262.5t141.5 214.5
q72 72 169 112t202 40q130 0 228 -59.5t128 -159.5l27 190h192zM846 254q66 60 102.5 150.5t36.5 185.5q0 136 -76.5 217.5t-210.5 81.5q-157 0 -264 -107q-66 -66 -99.5 -156t-33.5 -180q0 -135 74.5 -215.5t206.5 -80.5q157 0 264 104z" />
    <glyph glyph-name="Cacute" unicode="&#x106;" horiz-adv-x="1548" 
d="M842 1606l274 307h240l-309 -307h-205zM770 -29q-142 0 -260 47t-198.5 129.5t-124.5 198t-44 250.5q0 207 94.5 396.5t260.5 312.5q223 157 487 157q204 0 354 -95t215 -277l-174 -95q-109 279 -409 279q-208 0 -373 -127q-118 -93 -181 -235.5t-63 -301.5
q0 -205 115 -327.5t322 -122.5q150 0 281 69.5t224 208.5l162 -94q-116 -181 -298.5 -277t-389.5 -96z" />
    <glyph glyph-name="cacute" unicode="&#x107;" horiz-adv-x="1146" 
d="M575 1210l275 308h240l-310 -308h-205zM555 -29q-205 0 -330 128.5t-125 332.5q0 141 57 271.5t160 218.5q167 145 394 145q161 0 273 -79t146 -218l-182 -78q-59 197 -250 197q-155 0 -266 -105q-62 -62 -97.5 -152.5t-35.5 -182.5q0 -138 79 -218.5t214 -80.5
q195 0 307 196l162 -78q-73 -139 -209 -218t-297 -79z" />
    <glyph glyph-name="Ccircumflex" unicode="&#x108;" horiz-adv-x="1548" 
d="M1032 1800l-205 -194h-204l325 307h180l242 -307h-186zM791 160q150 0 281 69.5t224 208.5l162 -94q-116 -181 -298.5 -277t-389.5 -96q-142 0 -260 47t-198.5 129.5t-124.5 198t-44 250.5q0 207 94.5 396.5t260.5 312.5q223 157 487 157q204 0 354 -95t215 -277
l-174 -95q-109 279 -409 279q-208 0 -373 -127q-118 -93 -181 -235.5t-63 -301.5q0 -205 115 -327.5t322 -122.5z" />
    <glyph glyph-name="ccircumflex" unicode="&#x109;" horiz-adv-x="1146" 
d="M766 1405l-205 -195h-205l326 308h180l242 -308h-186zM592 150q195 0 307 196l162 -78q-73 -139 -209 -218t-297 -79q-205 0 -330 128.5t-125 332.5q0 141 57 271.5t160 218.5q167 145 394 145q161 0 273 -79t146 -218l-182 -78q-59 197 -250 197q-155 0 -266 -105
q-62 -62 -97.5 -152.5t-35.5 -182.5q0 -138 79 -218.5t214 -80.5z" />
    <glyph glyph-name="Cdotaccent" unicode="&#x10a;" horiz-adv-x="1548" 
d="M1001 1638q-51 0 -81.5 30t-30.5 77q0 63 42 107t105 44q52 0 83.5 -31t31.5 -79q0 -59 -44 -103.5t-106 -44.5zM770 -29q-142 0 -260 47t-198.5 129.5t-124.5 198t-44 250.5q0 207 94.5 396.5t260.5 312.5q223 157 487 157q204 0 354 -95t215 -277l-174 -95
q-109 279 -409 279q-208 0 -373 -127q-118 -93 -181 -235.5t-63 -301.5q0 -205 115 -327.5t322 -122.5q150 0 281 69.5t224 208.5l162 -94q-116 -181 -298.5 -277t-389.5 -96z" />
    <glyph glyph-name="cdotaccent" unicode="&#x10b;" horiz-adv-x="1146" 
d="M735 1243q-51 0 -81.5 30t-30.5 77q0 63 42 107t105 44q52 0 83.5 -31t31.5 -79q0 -59 -44 -103.5t-106 -44.5zM555 -29q-205 0 -330 128.5t-125 332.5q0 141 57 271.5t160 218.5q167 145 394 145q161 0 273 -79t146 -218l-182 -78q-59 197 -250 197q-155 0 -266 -105
q-62 -62 -97.5 -152.5t-35.5 -182.5q0 -138 79 -218.5t214 -80.5q195 0 307 196l162 -78q-73 -139 -209 -218t-297 -79z" />
    <glyph glyph-name="Ccaron" unicode="&#x10c;" horiz-adv-x="1548" 
d="M1087 1606h-180l-241 307h188l150 -193l204 193h205zM791 160q150 0 281 69.5t224 208.5l162 -94q-116 -181 -298.5 -277t-389.5 -96q-142 0 -260 47t-198.5 129.5t-124.5 198t-44 250.5q0 207 94.5 396.5t260.5 312.5q223 157 487 157q204 0 354 -95t215 -277l-174 -95
q-109 279 -409 279q-208 0 -373 -127q-118 -93 -181 -235.5t-63 -301.5q0 -205 115 -327.5t322 -122.5z" />
    <glyph glyph-name="ccaron" unicode="&#x10d;" horiz-adv-x="1146" 
d="M821 1210h-180l-242 308h189l149 -193l205 193h205zM698 889q-155 0 -266 -105q-62 -62 -97.5 -152.5t-35.5 -182.5q0 -138 79 -218.5t214 -80.5q195 0 307 196l162 -78q-73 -139 -209 -218t-297 -79q-205 0 -330 128.5t-125 332.5q0 141 57 271.5t160 218.5
q167 145 394 145q161 0 273 -79t146 -218l-182 -78q-59 197 -250 197z" />
    <glyph glyph-name="Dcaron" unicode="&#x10e;" horiz-adv-x="1562" 
d="M948 1606h-180l-242 307h189l149 -193l205 193h205zM856 1434q283 0 451 -155t168 -429q0 -173 -63 -342.5t-177 -286.5q-107 -107 -253 -164t-316 -57h-535l203 1434h522zM1106 367q78 88 118 215t40 258q0 407 -424 407h-332l-150 -1061h318q131 0 242 46t188 135z" />
    <glyph glyph-name="dcaron" unicode="&#x10f;" 
d="M1016 846l90 653h192l-211 -1499h-192l27 178q-58 -95 -164 -151t-234 -56q-190 0 -308 126.5t-118 332.5q0 139 55.5 274.5t155.5 225.5q73 66 166.5 101.5t190.5 35.5q129 0 223.5 -60t126.5 -161zM1462 1499h197l-105 -407h-147zM856 268q59 60 93 146t34 178
q0 134 -76.5 215.5t-212.5 81.5q-153 0 -262 -103q-66 -66 -99.5 -158.5t-33.5 -185.5q0 -136 70.5 -214t201.5 -78q170 0 285 118z" />
    <glyph glyph-name="Dcroat" unicode="&#x110;" horiz-adv-x="1603" 
d="M897 1434q283 0 451 -155t168 -429q0 -173 -63 -342.5t-177 -286.5q-107 -107 -253 -164t-316 -57h-535l90 635h-188l22 164h189l90 635h522zM1147 367q78 88 118 215t40 258q0 407 -424 407h-330l-64 -448h392l-23 -164h-391l-64 -449h316q131 0 242 46t188 135z" />
    <glyph glyph-name="dcroat" unicode="&#x111;" horiz-adv-x="1339" 
d="M1452 1335l-20 -145h-175l-167 -1190h-193l25 180q-59 -97 -165 -153t-233 -56q-191 0 -309.5 125t-118.5 326q0 141 60.5 276t165.5 220q148 120 342 120q134 0 227 -59.5t123 -157.5l51 369h-356l22 145h354l23 164h192l-22 -164h174zM854 264q127 124 127 299
q0 134 -79.5 215.5t-215.5 81.5q-146 0 -250 -94q-137 -125 -137 -324q0 -135 69.5 -213.5t202.5 -78.5q166 0 283 114z" />
    <glyph glyph-name="Emacron" unicode="&#x112;" horiz-adv-x="1359" 
d="M1182 1802l-21 -153h-629l21 153h629zM1296 1249h-790l-60 -434h748l-27 -182h-747l-60 -449h807l-26 -184h-1010l203 1434h989z" />
    <glyph glyph-name="emacron" unicode="&#x113;" horiz-adv-x="1224" 
d="M1067 1407l-20 -154h-629l20 154h629zM1108 461h-815v-19q0 -144 76 -220.5t217 -76.5q198 0 346 154l115 -111q-188 -217 -474 -217q-216 0 -345.5 125.5t-129.5 333.5q0 137 54.5 270t152.5 222q161 145 389 145q195 0 318 -118t123 -312q0 -78 -27 -176zM422 786
q-68 -68 -105 -178h625v29q0 123 -65.5 188.5t-188.5 65.5q-158 0 -266 -105z" />
    <glyph glyph-name="Ebreve" unicode="&#x114;" horiz-adv-x="1359" 
d="M848 1593q-132 0 -209.5 62.5t-77.5 169.5q0 31 6 55h164q-2 -14 -2 -37q0 -56 31 -86.5t90 -30.5q71 0 118.5 41t57.5 113h166l-2 -12q-18 -126 -108 -200.5t-234 -74.5zM1296 1249h-790l-60 -434h748l-27 -182h-747l-60 -449h807l-26 -184h-1010l203 1434h989z" />
    <glyph glyph-name="ebreve" unicode="&#x115;" horiz-adv-x="1224" 
d="M733 1198q-132 0 -209.5 62.5t-77.5 169.5q0 27 7 55h163q-2 -14 -2 -37q0 -56 31 -86.5t90 -30.5q71 0 118.5 41t57.5 113h166l-2 -12q-18 -126 -108 -200.5t-234 -74.5zM1108 461h-815v-19q0 -144 76 -220.5t217 -76.5q198 0 346 154l115 -111q-188 -217 -474 -217
q-216 0 -345.5 125.5t-129.5 333.5q0 137 54.5 270t152.5 222q161 145 389 145q195 0 318 -118t123 -312q0 -78 -27 -176zM422 786q-68 -68 -105 -178h625v29q0 123 -65.5 188.5t-188.5 65.5q-158 0 -266 -105z" />
    <glyph glyph-name="Edotaccent" unicode="&#x116;" horiz-adv-x="1359" 
d="M846 1638q-52 0 -82.5 30t-30.5 77q0 63 42.5 107t105.5 44q52 0 83 -31t31 -79q0 -59 -43.5 -103.5t-105.5 -44.5zM1296 1249h-790l-60 -434h748l-27 -182h-747l-60 -449h807l-26 -184h-1010l203 1434h989z" />
    <glyph glyph-name="edotaccent" unicode="&#x117;" horiz-adv-x="1224" 
d="M731 1243q-52 0 -82.5 30t-30.5 77q0 63 42.5 107t105.5 44q52 0 83.5 -31t31.5 -79q0 -59 -44 -103.5t-106 -44.5zM1108 461h-815v-19q0 -144 76 -220.5t217 -76.5q198 0 346 154l115 -111q-188 -217 -474 -217q-216 0 -345.5 125.5t-129.5 333.5q0 137 54.5 270
t152.5 222q161 145 389 145q195 0 318 -118t123 -312q0 -78 -27 -176zM422 786q-68 -68 -105 -178h625v29q0 123 -65.5 188.5t-188.5 65.5q-158 0 -266 -105z" />
    <glyph glyph-name="Eogonek" unicode="&#x118;" horiz-adv-x="1359" 
d="M1296 1249h-790l-60 -434h748l-27 -182h-747l-60 -449h807l-26 -182l2 -2q-17 -13 -57.5 -42t-62 -46t-48 -42t-39 -47t-12.5 -44q0 -66 108 -66h70l-21 -151h-94q-119 0 -184.5 46t-65.5 122q0 155 221 270h-827l203 1434h989z" />
    <glyph glyph-name="eogonek" unicode="&#x119;" horiz-adv-x="1224" 
d="M1108 461h-815v-19q0 -144 76 -220.5t217 -76.5q198 0 346 154l115 -111q-90 -106 -216 -163q-17 -13 -48.5 -36t-51 -37.5t-44.5 -35.5t-39.5 -38t-25 -37t-10.5 -38q0 -65 109 -65h70l-21 -152h-94q-119 0 -184.5 46t-65.5 122q0 118 135 217q-212 4 -337.5 129.5
t-125.5 329.5q0 137 54.5 270t152.5 222q161 145 389 145q195 0 318 -118t123 -312q0 -78 -27 -176zM422 786q-68 -68 -105 -178h625v29q0 123 -65.5 188.5t-188.5 65.5q-158 0 -266 -105z" />
    <glyph glyph-name="Ecaron" unicode="&#x11a;" horiz-adv-x="1359" 
d="M932 1606h-180l-242 307h188l150 -193l205 193h204zM1296 1249h-790l-60 -434h748l-27 -182h-747l-60 -449h807l-26 -184h-1010l203 1434h989z" />
    <glyph glyph-name="ecaron" unicode="&#x11b;" horiz-adv-x="1224" 
d="M817 1210h-180l-242 308h189l149 -193l205 193h205zM694 1067q195 0 318 -118t123 -312q0 -78 -27 -176h-815v-19q0 -144 76 -220.5t217 -76.5q198 0 346 154l115 -111q-188 -217 -474 -217q-216 0 -345.5 125.5t-129.5 333.5q0 137 54.5 270t152.5 222q161 145 389 145z
M422 786q-68 -68 -105 -178h625v29q0 123 -65.5 188.5t-188.5 65.5q-158 0 -266 -105z" />
    <glyph glyph-name="Gcircumflex" unicode="&#x11c;" horiz-adv-x="1595" 
d="M1030 1800l-205 -194h-204l325 307h180l242 -307h-186zM909 594l25 180h561l-80 -573q-96 -108 -254.5 -169t-345.5 -61q-313 0 -492.5 170.5t-179.5 450.5q0 181 70.5 353.5t196.5 291.5q110 108 254.5 166.5t310.5 58.5q188 0 331 -74t214 -206l-168 -111
q-107 203 -379 203q-263 0 -434 -180q-91 -92 -139 -224.5t-48 -267.5q0 -211 124.5 -327.5t348.5 -116.5q123 0 231.5 34t174.5 89l45 313h-367z" />
    <glyph glyph-name="gcircumflex" unicode="&#x11d;" horiz-adv-x="1339" 
d="M805 1405l-205 -195h-205l326 308h180l242 -308h-187zM1044 1038h193l-131 -923q-39 -270 -192.5 -412.5t-415.5 -142.5q-145 0 -266 47.5t-193 128.5l117 135q130 -133 342 -133q173 0 280.5 95.5t136.5 281.5l15 98q-57 -97 -163.5 -154t-234.5 -57
q-191 0 -310.5 122.5t-119.5 321.5q0 142 56.5 274.5t156.5 219.5q152 127 351 127q129 0 224.5 -57.5t127.5 -155.5zM862 293q123 126 123 309q0 130 -74.5 208.5t-208.5 78.5q-162 0 -266 -101q-66 -62 -99.5 -148.5t-33.5 -178.5q0 -128 71.5 -205.5t203.5 -77.5
q162 0 284 115z" />
    <glyph glyph-name="Gbreve" unicode="&#x11e;" horiz-adv-x="1595" 
d="M1001 1593q-132 0 -209 62.5t-77 169.5q0 31 6 55h164q-2 -14 -2 -37q0 -56 31 -86.5t90 -30.5q71 0 118.5 41t57.5 113h166l-3 -12q-18 -126 -108 -200.5t-234 -74.5zM909 594l25 180h561l-80 -573q-96 -108 -254.5 -169t-345.5 -61q-313 0 -492.5 170.5t-179.5 450.5
q0 181 70.5 353.5t196.5 291.5q110 108 254.5 166.5t310.5 58.5q188 0 331 -74t214 -206l-168 -111q-107 203 -379 203q-263 0 -434 -180q-91 -92 -139 -224.5t-48 -267.5q0 -211 124.5 -327.5t348.5 -116.5q123 0 231.5 34t174.5 89l45 313h-367z" />
    <glyph glyph-name="gbreve" unicode="&#x11f;" horiz-adv-x="1339" 
d="M776 1198q-132 0 -209.5 62.5t-77.5 169.5q0 27 7 55h163q-2 -14 -2 -37q0 -56 31 -86.5t90 -30.5q71 0 118.5 41t57.5 113h166l-2 -12q-18 -126 -108 -200.5t-234 -74.5zM1044 1038h193l-131 -923q-39 -270 -192.5 -412.5t-415.5 -142.5q-145 0 -266 47.5t-193 128.5
l117 135q130 -133 342 -133q173 0 280.5 95.5t136.5 281.5l15 98q-57 -97 -163.5 -154t-234.5 -57q-191 0 -310.5 122.5t-119.5 321.5q0 142 56.5 274.5t156.5 219.5q152 127 351 127q129 0 224.5 -57.5t127.5 -155.5zM862 293q123 126 123 309q0 130 -74.5 208.5
t-208.5 78.5q-162 0 -266 -101q-66 -62 -99.5 -148.5t-33.5 -178.5q0 -128 71.5 -205.5t203.5 -77.5q162 0 284 115z" />
    <glyph glyph-name="Gdotaccent" unicode="&#x120;" horiz-adv-x="1595" 
d="M999 1638q-51 0 -81.5 30t-30.5 77q0 63 42 107t105 44q52 0 83.5 -31t31.5 -79q0 -59 -44 -103.5t-106 -44.5zM909 594l25 180h561l-80 -573q-96 -108 -254.5 -169t-345.5 -61q-313 0 -492.5 170.5t-179.5 450.5q0 181 70.5 353.5t196.5 291.5q110 108 254.5 166.5
t310.5 58.5q188 0 331 -74t214 -206l-168 -111q-107 203 -379 203q-263 0 -434 -180q-91 -92 -139 -224.5t-48 -267.5q0 -211 124.5 -327.5t348.5 -116.5q123 0 231.5 34t174.5 89l45 313h-367z" />
    <glyph glyph-name="gdotaccent" unicode="&#x121;" horiz-adv-x="1339" 
d="M774 1243q-51 0 -81.5 30t-30.5 77q0 63 42 107t105 44q52 0 83.5 -31t31.5 -79q0 -59 -44 -103.5t-106 -44.5zM1044 1038h193l-131 -923q-39 -270 -192.5 -412.5t-415.5 -142.5q-145 0 -266 47.5t-193 128.5l117 135q130 -133 342 -133q173 0 280.5 95.5t136.5 281.5
l15 98q-57 -97 -163.5 -154t-234.5 -57q-191 0 -310.5 122.5t-119.5 321.5q0 142 56.5 274.5t156.5 219.5q152 127 351 127q129 0 224.5 -57.5t127.5 -155.5zM862 293q123 126 123 309q0 130 -74.5 208.5t-208.5 78.5q-162 0 -266 -101q-66 -62 -99.5 -148.5t-33.5 -178.5
q0 -128 71.5 -205.5t203.5 -77.5q162 0 284 115z" />
    <glyph glyph-name="uni0122" unicode="&#x122;" horiz-adv-x="1595" 
d="M909 594l25 180h561l-80 -573q-96 -108 -254.5 -169t-345.5 -61q-313 0 -492.5 170.5t-179.5 450.5q0 181 70.5 353.5t196.5 291.5q110 108 254.5 166.5t310.5 58.5q188 0 331 -74t214 -206l-168 -111q-107 203 -379 203q-263 0 -434 -180q-91 -92 -139 -224.5
t-48 -267.5q0 -211 124.5 -327.5t348.5 -116.5q123 0 231.5 34t174.5 89l45 313h-367zM561 -518l111 336h198l-161 -336h-148z" />
    <glyph glyph-name="uni0123" unicode="&#x123;" horiz-adv-x="1339" 
d="M979 1556l-111 -335h-198l161 335h148zM1044 1038h193l-131 -923q-39 -270 -192.5 -412.5t-415.5 -142.5q-145 0 -266 47.5t-193 128.5l117 135q130 -133 342 -133q173 0 280.5 95.5t136.5 281.5l15 98q-57 -97 -163.5 -154t-234.5 -57q-191 0 -310.5 122.5t-119.5 321.5
q0 142 56.5 274.5t156.5 219.5q152 127 351 127q129 0 224.5 -57.5t127.5 -155.5zM862 293q123 126 123 309q0 130 -74.5 208.5t-208.5 78.5q-162 0 -266 -101q-66 -62 -99.5 -148.5t-33.5 -178.5q0 -128 71.5 -205.5t203.5 -77.5q162 0 284 115z" />
    <glyph glyph-name="Hcircumflex" unicode="&#x124;" horiz-adv-x="1597" 
d="M987 1800l-205 -194h-204l325 307h180l242 -307h-186zM1321 1434h203l-203 -1434h-203l90 641h-786l-90 -641h-201l203 1434h201l-86 -605h786z" />
    <glyph glyph-name="hcircumflex" unicode="&#x125;" horiz-adv-x="1259" 
d="M469 1866l-205 -195h-205l326 307h180l242 -307h-186zM795 1067q153 0 238 -82t85 -233q0 -40 -6 -84l-94 -668h-193l86 621q7 51 7 79q0 97 -47.5 143t-145.5 46q-133 0 -229 -75t-113 -202l-88 -612h-193l211 1499h193l-88 -629q57 94 156 145.5t221 51.5z" />
    <glyph glyph-name="Hbar" unicode="&#x126;" horiz-adv-x="1607" 
d="M1642 1208l-20 -155h-147l-150 -1053h-201l90 641h-788l-90 -641h-201l150 1053h-148l23 155h145l33 226h201l-33 -226h788l33 226h201l-33 -226h147zM1241 829l33 224h-789l-32 -224h788z" />
    <glyph glyph-name="hbar" unicode="&#x127;" horiz-adv-x="1259" 
d="M788 1038q154 0 240 -82t86 -233q0 -41 -6 -84l-90 -639h-193l82 592q6 44 6 80q0 97 -47 142.5t-147 45.5q-133 0 -228 -74.5t-112 -201.5l-84 -584h-193l168 1190h-176l23 145h174l22 164h193l-23 -164h357l-23 -145h-354l-49 -348q57 94 154.5 145t219.5 51z" />
    <glyph glyph-name="Itilde" unicode="&#x128;" horiz-adv-x="618" 
d="M612 1618q-38 0 -75.5 18t-90.5 66q-35 31 -55.5 42t-42.5 11q-32 0 -54 -32t-28 -93h-137q10 128 70 198t155 70q41 0 78.5 -19t87.5 -64q38 -33 57 -43.5t41 -10.5q32 0 54 31.5t28 93.5h138q-10 -128 -70.5 -198t-155.5 -70zM135 0l203 1434h201l-203 -1434h-201z" />
    <glyph glyph-name="itilde" unicode="&#x129;" horiz-adv-x="548" 
d="M522 1223q-36 0 -72.5 18t-89.5 66q-36 31 -55.5 42t-42.5 11q-47 0 -65 -125h-129q15 135 65.5 201.5t130.5 66.5q36 0 71.5 -19.5t86.5 -64.5q37 -32 57 -42.5t41 -10.5q52 0 70 125h129q-18 -135 -69 -201.5t-128 -66.5zM104 0l148 1038h192l-147 -1038h-193z" />
    <glyph glyph-name="Imacron" unicode="&#x12a;" horiz-adv-x="618" 
d="M154 1649l20 153h629l-21 -153h-628zM135 0l203 1434h201l-203 -1434h-201z" />
    <glyph glyph-name="imacron" unicode="&#x12b;" horiz-adv-x="548" 
d="M109 1253l20 154h539l-21 -154h-538zM104 0l148 1038h192l-147 -1038h-193z" />
    <glyph glyph-name="Ibreve" unicode="&#x12c;" horiz-adv-x="618" 
d="M469 1593q-132 0 -209.5 62.5t-77.5 169.5q0 31 6 55h164q-2 -14 -2 -37q0 -56 31 -86.5t90 -30.5q71 0 118.5 41t57.5 113h166l-2 -12q-18 -126 -108 -200.5t-234 -74.5zM135 0l203 1434h201l-203 -1434h-201z" />
    <glyph glyph-name="ibreve" unicode="&#x12d;" horiz-adv-x="548" 
d="M377 1198q-126 0 -198.5 61.5t-72.5 167.5q0 14 7 58h155q-4 -28 -4 -43q0 -111 119 -111q71 0 114 40.5t54 113.5h156q-17 -138 -104 -212.5t-226 -74.5zM104 0l148 1038h192l-147 -1038h-193z" />
    <glyph glyph-name="Iogonek" unicode="&#x12e;" horiz-adv-x="618" 
d="M336 0q-17 -13 -57.5 -42t-62 -46t-48 -42t-39 -47t-12.5 -44q0 -66 108 -66h70l-21 -151h-94q-119 0 -184.5 46t-65.5 122q0 154 222 270h-17l203 1434h201z" />
    <glyph glyph-name="iogonek" unicode="&#x12f;" horiz-adv-x="548" 
d="M412 1501q52 0 83 -31t31 -79q0 -59 -43.5 -103.5t-105.5 -44.5q-52 0 -82.5 30t-30.5 77q0 63 42.5 107t105.5 44zM252 1038h192l-147 -1036l2 -2q-17 -13 -57.5 -42t-62 -46t-48 -42t-39 -47t-12.5 -44q0 -66 108 -66h70l-20 -151h-95q-119 0 -184 46t-65 122
q0 155 221 270h-11z" />
    <glyph glyph-name="Idotaccent" unicode="&#x130;" horiz-adv-x="618" 
d="M467 1638q-52 0 -82.5 30t-30.5 77q0 63 42.5 107t105.5 44q52 0 83 -31t31 -79q0 -59 -43.5 -103.5t-105.5 -44.5zM135 0l203 1434h201l-203 -1434h-201z" />
    <glyph glyph-name="dotlessi" unicode="&#x131;" horiz-adv-x="548" 
d="M104 0l148 1038h192l-147 -1038h-193z" />
    <glyph glyph-name="Jcircumflex" unicode="&#x134;" horiz-adv-x="1202" 
d="M1200 1913l242 -307h-187l-151 194l-205 -194h-205l326 307h180zM819 532l127 902h201l-131 -926q-35 -252 -189.5 -394.5t-392.5 -142.5q-141 0 -253.5 53.5t-180.5 151.5l141 129q104 -145 295 -145q155 0 256 96t127 276z" />
    <glyph glyph-name="jcircumflex" unicode="&#x135;" horiz-adv-x="548" 
d="M504 1518l203 -308h-181l-120 195l-177 -195h-192l289 308h178zM90 -109l162 1147h192l-163 -1173q-46 -305 -365 -305q-56 0 -121 12l27 172q46 -12 92 -12q83 0 124 39.5t52 119.5z" />
    <glyph glyph-name="uni0136" unicode="&#x136;" horiz-adv-x="1425" 
d="M1505 1434l-680 -621l506 -813h-239l-420 674l-281 -256l-59 -418h-201l203 1434h201l-105 -742l817 742h258zM430 -518l113 336h196l-159 -336h-150z" />
    <glyph glyph-name="uni0137" unicode="&#x137;" horiz-adv-x="1146" 
d="M1190 1036l-526 -448l395 -588h-215l-320 469l-186 -158l-43 -311h-193l211 1499h193l-135 -954l573 493zM287 -518l110 336h199l-162 -336h-147z" />
    <glyph glyph-name="Lacute" unicode="&#x139;" horiz-adv-x="1218" 
d="M815 1913l-309 -307h-205l274 307h240zM360 186h748l-27 -186h-950l203 1434h201z" />
    <glyph glyph-name="lacute" unicode="&#x13a;" horiz-adv-x="544" 
d="M276 1671l275 307h240l-310 -307h-205zM102 0l211 1499h193l-211 -1499h-193z" />
    <glyph glyph-name="uni013B" unicode="&#x13b;" horiz-adv-x="1218" 
d="M360 186h748l-27 -186h-950l203 1434h201zM350 -518l111 336h198l-161 -336h-148z" />
    <glyph glyph-name="uni013C" unicode="&#x13c;" horiz-adv-x="544" 
d="M102 0l211 1499h193l-211 -1499h-193zM-35 -518l111 336h198l-161 -336h-148z" />
    <glyph glyph-name="Lcaron" unicode="&#x13d;" horiz-adv-x="1218" 
d="M1028 1462l-104 -407h-150l57 407h197zM360 186h748l-27 -186h-950l203 1434h201z" />
    <glyph glyph-name="lcaron" unicode="&#x13e;" horiz-adv-x="679" 
d="M102 0l211 1499h193l-211 -1499h-193zM612 1092l56 407h198l-104 -407h-150z" />
    <glyph glyph-name="Ldot" unicode="&#x13f;" horiz-adv-x="1230" 
d="M360 186h748l-27 -186h-950l203 1434h201zM838 604q-64 0 -97.5 39.5t-25.5 104.5q5 55 43 89.5t98 34.5q64 0 97.5 -38t25.5 -99q-5 -58 -43.5 -94.5t-97.5 -36.5z" />
    <glyph glyph-name="ldot" unicode="&#x140;" horiz-adv-x="821" 
d="M102 0l211 1499h193l-211 -1499h-193zM684 606q-64 0 -97.5 39t-25.5 103q6 56 44 91t97 35q64 0 97.5 -38.5t27.5 -100.5q-5 -58 -43.5 -93.5t-99.5 -35.5z" />
    <glyph glyph-name="Lslash" unicode="&#x141;" horiz-adv-x="1247" 
d="M389 186h750l-29 -186h-950l73 520l-229 -110l25 180l229 110l104 734h201l-88 -629l514 248l-26 -181l-512 -247z" />
    <glyph glyph-name="lslash" unicode="&#x142;" horiz-adv-x="686" 
d="M729 1053l-24 -168l-232 -119l-108 -766h-193l92 662l-229 -117l22 168l232 116l94 670h192l-79 -565z" />
    <glyph glyph-name="Nacute" unicode="&#x143;" horiz-adv-x="1622" 
d="M1321 1913l-309 -307h-205l274 307h240zM1350 1434h198l-202 -1434h-187l-674 1116l-157 -1116h-197l203 1434h184l674 -1115z" />
    <glyph glyph-name="nacute" unicode="&#x144;" horiz-adv-x="1259" 
d="M1090 1518l-310 -308h-205l275 308h240zM795 1067q154 0 238.5 -82t84.5 -233q0 -40 -6 -84l-94 -668h-193l86 621q7 51 7 79q0 97 -47.5 143t-145.5 46q-133 0 -229 -75t-113 -202l-88 -612h-193l148 1038h192l-24 -168q57 94 156 145.5t221 51.5z" />
    <glyph glyph-name="uni0145" unicode="&#x145;" horiz-adv-x="1622" 
d="M1350 1434h198l-202 -1434h-187l-674 1116l-157 -1116h-197l203 1434h184l674 -1115zM504 -518l110 336h199l-162 -336h-147z" />
    <glyph glyph-name="uni0146" unicode="&#x146;" horiz-adv-x="1259" 
d="M795 1067q154 0 238.5 -82t84.5 -233q0 -40 -6 -84l-94 -668h-193l86 621q7 51 7 79q0 97 -47.5 143t-145.5 46q-133 0 -229 -75t-113 -202l-88 -612h-193l148 1038h192l-24 -168q57 94 156 145.5t221 51.5zM322 -518l110 336h199l-162 -336h-147z" />
    <glyph glyph-name="Ncaron" unicode="&#x147;" horiz-adv-x="1622" 
d="M1055 1606h-181l-241 307h188l150 -193l205 193h204zM1350 1434h198l-202 -1434h-187l-674 1116l-157 -1116h-197l203 1434h184l674 -1115z" />
    <glyph glyph-name="ncaron" unicode="&#x148;" horiz-adv-x="1259" 
d="M821 1210h-180l-242 308h189l149 -193l205 193h205zM795 1067q154 0 238.5 -82t84.5 -233q0 -40 -6 -84l-94 -668h-193l86 621q7 51 7 79q0 97 -47.5 143t-145.5 46q-133 0 -229 -75t-113 -202l-88 -612h-193l148 1038h192l-24 -168q57 94 156 145.5t221 51.5z" />
    <glyph glyph-name="Eng" unicode="&#x14a;" horiz-adv-x="1622" 
d="M1350 1434h198l-215 -1524q-39 -270 -334 -270h-145l25 174h108q140 0 158 133l8 61l-670 1110l-155 -1118h-197l203 1434h184l676 -1119z" />
    <glyph glyph-name="eng" unicode="&#x14b;" horiz-adv-x="1259" 
d="M784 1067q158 0 246 -85t88 -241q0 -42 -8 -86l-100 -712q-43 -308 -363 -308q-56 0 -119 13l23 172q41 -10 92 -10q83 0 124 37t52 114l94 664q5 73 5 82q0 95 -44.5 138.5t-140.5 43.5q-135 0 -234.5 -78t-117.5 -205l-86 -606h-193l148 1038h192l-22 -159
q58 91 153 139.5t211 48.5z" />
    <glyph glyph-name="Omacron" unicode="&#x14c;" horiz-adv-x="1722" 
d="M705 1649l20 153h629l-21 -153h-628zM795 -29q-293 0 -471.5 176.5t-178.5 454.5q0 191 82 367.5t226 300.5q224 192 532 192q192 0 341 -84t228.5 -227.5t79.5 -321.5q0 -173 -73 -342.5t-199 -291.5q-112 -106 -258 -165t-309 -59zM801 160q246 0 426 174
q96 94 146 221.5t50 263.5q0 205 -118 330t-328 125q-229 0 -406 -156q-104 -95 -159.5 -226.5t-55.5 -277.5q0 -204 119.5 -329t325.5 -125z" />
    <glyph glyph-name="omacron" unicode="&#x14d;" horiz-adv-x="1286" 
d="M434 1253l21 154h628l-20 -154h-629zM580 -29q-145 0 -255.5 63t-167.5 169t-57 237q0 133 58 261.5t157 218.5q163 147 394 147q217 0 348 -134t131 -335q0 -135 -63 -268t-167 -221q-164 -138 -378 -138zM586 150q146 0 258 98q72 66 107.5 156.5t35.5 185.5
q0 137 -73.5 218t-206.5 81q-162 0 -273 -111q-65 -62 -99 -150t-34 -179q0 -135 76 -217t209 -82z" />
    <glyph glyph-name="Obreve" unicode="&#x14e;" horiz-adv-x="1722" 
d="M1020 1593q-132 0 -209.5 62.5t-77.5 169.5q0 31 6 55h164q-2 -14 -2 -37q0 -56 31 -86.5t90 -30.5q71 0 118.5 41t57.5 113h166l-2 -12q-18 -126 -108 -200.5t-234 -74.5zM795 -29q-293 0 -471.5 176.5t-178.5 454.5q0 191 82 367.5t226 300.5q224 192 532 192
q192 0 341 -84t228.5 -227.5t79.5 -321.5q0 -173 -73 -342.5t-199 -291.5q-112 -106 -258 -165t-309 -59zM801 160q246 0 426 174q96 94 146 221.5t50 263.5q0 205 -118 330t-328 125q-229 0 -406 -156q-104 -95 -159.5 -226.5t-55.5 -277.5q0 -204 119.5 -329t325.5 -125z
" />
    <glyph glyph-name="obreve" unicode="&#x14f;" horiz-adv-x="1286" 
d="M750 1198q-132 0 -209.5 62.5t-77.5 169.5q0 31 6 55h164q-2 -14 -2 -37q0 -56 31 -86.5t90 -30.5q71 0 118.5 41t57.5 113h166l-2 -12q-18 -126 -108 -200.5t-234 -74.5zM580 -29q-145 0 -255.5 63t-167.5 169t-57 237q0 133 58 261.5t157 218.5q163 147 394 147
q217 0 348 -134t131 -335q0 -135 -63 -268t-167 -221q-164 -138 -378 -138zM586 150q146 0 258 98q72 66 107.5 156.5t35.5 185.5q0 137 -73.5 218t-206.5 81q-162 0 -273 -111q-65 -62 -99 -150t-34 -179q0 -135 76 -217t209 -82z" />
    <glyph glyph-name="Ohungarumlaut" unicode="&#x150;" horiz-adv-x="1722" 
d="M668 1606l274 307h207l-287 -307h-194zM1047 1606l276 307h207l-287 -307h-196zM795 -29q-293 0 -471.5 176.5t-178.5 454.5q0 191 82 367.5t226 300.5q224 192 532 192q192 0 341 -84t228.5 -227.5t79.5 -321.5q0 -173 -73 -342.5t-199 -291.5q-112 -106 -258 -165
t-309 -59zM801 160q246 0 426 174q96 94 146 221.5t50 263.5q0 205 -118 330t-328 125q-229 0 -406 -156q-104 -95 -159.5 -226.5t-55.5 -277.5q0 -204 119.5 -329t325.5 -125z" />
    <glyph glyph-name="ohungarumlaut" unicode="&#x151;" horiz-adv-x="1286" 
d="M397 1210l275 308h207l-287 -308h-195zM776 1210l277 308h207l-289 -308h-195zM580 -29q-145 0 -255.5 63t-167.5 169t-57 237q0 133 58 261.5t157 218.5q163 147 394 147q217 0 348 -134t131 -335q0 -135 -63 -268t-167 -221q-164 -138 -378 -138zM586 150q146 0 258 98
q72 66 107.5 156.5t35.5 185.5q0 137 -73.5 218t-206.5 81q-162 0 -273 -111q-65 -62 -99 -150t-34 -179q0 -135 76 -217t209 -82z" />
    <glyph glyph-name="OE" unicode="&#x152;" horiz-adv-x="2277" 
d="M2214 1249h-791l-57 -434h748l-29 -182h-746l-61 -449h809l-27 -184h-1241q-160 0 -288.5 45t-212.5 126t-128.5 192.5t-44.5 244.5q0 174 70 337t195 276q240 213 604 213h1229zM842 186h233l150 1061h-230q-289 0 -460 -174q-86 -86 -133.5 -212t-47.5 -251
q0 -197 125 -310.5t363 -113.5z" />
    <glyph glyph-name="oe" unicode="&#x153;" horiz-adv-x="2097" 
d="M1980 461h-815v-19q0 -140 78.5 -218.5t220.5 -78.5q198 0 346 154l115 -111q-86 -103 -208 -160t-267 -57q-157 0 -264.5 63.5t-155.5 180.5q-44 -63 -88 -102q-155 -142 -375 -142q-215 0 -341 132t-126 333q0 143 64 280t174 224q160 127 367 127q149 0 253.5 -65.5
t153.5 -178.5q40 59 90 105q149 139 363 139q199 0 320.5 -116t121.5 -310q0 -74 -27 -180zM1288 778q-66 -69 -98 -170h625v25q0 128 -65.5 193t-188.5 65q-166 0 -273 -113zM850 256q133 127 133 330q0 137 -76.5 220t-210.5 83q-144 0 -254 -96q-67 -61 -105 -153.5
t-38 -190.5q0 -135 76 -217t209 -82q157 0 266 106z" />
    <glyph glyph-name="Racute" unicode="&#x154;" horiz-adv-x="1423" 
d="M1206 1913l-309 -307h-205l275 307h239zM1208 688q-127 -115 -346 -127l387 -561h-235l-381 559h-221l-80 -559h-201l203 1434h590q209 0 323.5 -97t114.5 -270q0 -105 -41 -209t-113 -170zM508 1249l-72 -510h381q180 0 258 84q74 82 74 234q0 99 -61 145.5t-199 46.5
h-381z" />
    <glyph glyph-name="racute" unicode="&#x155;" horiz-adv-x="833" 
d="M901 1518l-309 -308h-205l275 308h239zM416 850q50 97 140 151t202 54q52 0 90 -17l-23 -170q-49 6 -100 6q-146 0 -238 -86t-116 -262l-76 -526h-193l148 1038h192z" />
    <glyph glyph-name="uni0156" unicode="&#x156;" horiz-adv-x="1423" 
d="M1208 688q-127 -115 -346 -127l387 -561h-235l-381 559h-221l-80 -559h-201l203 1434h590q209 0 323.5 -97t114.5 -270q0 -105 -41 -209t-113 -170zM508 1249l-72 -510h381q180 0 258 84q74 82 74 234q0 99 -61 145.5t-199 46.5h-381zM410 -518l110 336h199l-162 -336
h-147z" />
    <glyph glyph-name="uni0157" unicode="&#x157;" horiz-adv-x="833" 
d="M758 1055q52 0 90 -17l-23 -170q-49 6 -100 6q-146 0 -238 -86t-116 -262l-76 -526h-193l148 1038h192l-26 -188q50 97 140 151t202 54zM-35 -518l111 336h198l-161 -336h-148z" />
    <glyph glyph-name="Rcaron" unicode="&#x158;" horiz-adv-x="1423" 
d="M940 1606h-180l-242 307h189l149 -193l205 193h205zM1208 688q-127 -115 -346 -127l387 -561h-235l-381 559h-221l-80 -559h-201l203 1434h590q209 0 323.5 -97t114.5 -270q0 -105 -41 -209t-113 -170zM508 1249l-72 -510h381q180 0 258 84q74 82 74 234q0 99 -61 145.5
t-199 46.5h-381z" />
    <glyph glyph-name="rcaron" unicode="&#x159;" horiz-adv-x="833" 
d="M635 1210h-180l-242 308h188l150 -193l205 193h205zM416 850q50 97 140 151t202 54q52 0 90 -17l-23 -170q-49 6 -100 6q-146 0 -238 -86t-116 -262l-76 -526h-193l148 1038h192z" />
    <glyph glyph-name="Sacute" unicode="&#x15a;" horiz-adv-x="1306" 
d="M651 1606l275 307h239l-309 -307h-205zM612 -29q-215 0 -362 88.5t-193 243.5l162 92q102 -241 395 -241q159 0 260 63q54 34 85.5 89t31.5 116q0 71 -51 117t-164 75l-223 56q-171 42 -261.5 133t-90.5 213q0 95 45 183t123 147q154 116 403 116q188 0 322 -72t182 -190
l-168 -100q-91 180 -344 180q-169 0 -262 -72q-43 -31 -67.5 -78.5t-24.5 -99.5q0 -67 51 -111.5t170 -74.5l225 -56q344 -85 344 -337q0 -122 -59 -225.5t-164 -166.5q-150 -88 -365 -88z" />
    <glyph glyph-name="sacute" unicode="&#x15b;" horiz-adv-x="1052" 
d="M471 1210l274 308h240l-309 -308h-205zM487 -29q-156 0 -276.5 59.5t-171.5 159.5l139 109q47 -77 128.5 -117.5t185.5 -40.5q116 0 184 49q28 21 45.5 52.5t17.5 64.5q0 44 -36.5 73t-129.5 50l-149 33q-138 32 -207.5 100t-69.5 162q0 71 32 137t87 109q116 96 324 96
q129 0 235.5 -46t163.5 -128l-133 -117q-93 119 -281 119q-125 0 -184 -53q-47 -36 -47 -101q0 -40 35.5 -66t122.5 -46l164 -37q270 -63 270 -256q0 -81 -38 -158t-105 -123q-116 -84 -306 -84z" />
    <glyph glyph-name="Scircumflex" unicode="&#x15c;" horiz-adv-x="1306" 
d="M844 1800l-205 -194h-205l326 307h180l242 -307h-187zM856 788q344 -85 344 -337q0 -122 -59 -225.5t-164 -166.5q-150 -88 -365 -88t-362 88.5t-193 243.5l162 92q102 -241 395 -241q159 0 260 63q54 34 85.5 89t31.5 116q0 71 -51 117t-164 75l-223 56
q-171 42 -261.5 133t-90.5 213q0 95 45 183t123 147q154 116 403 116q188 0 322 -72t182 -190l-168 -100q-91 180 -344 180q-169 0 -262 -72q-43 -31 -67.5 -78.5t-24.5 -99.5q0 -67 51 -111.5t170 -74.5z" />
    <glyph glyph-name="scircumflex" unicode="&#x15d;" horiz-adv-x="1052" 
d="M662 1405l-205 -195h-205l326 308h180l241 -308h-186zM391 842q-47 -36 -47 -101q0 -40 35.5 -66t122.5 -46l164 -37q270 -63 270 -256q0 -81 -38 -158t-105 -123q-116 -84 -306 -84q-156 0 -276.5 59.5t-171.5 159.5l139 109q47 -77 128.5 -117.5t185.5 -40.5
q116 0 184 49q28 21 45.5 52.5t17.5 64.5q0 44 -36.5 73t-129.5 50l-149 33q-138 32 -207.5 100t-69.5 162q0 71 32 137t87 109q116 96 324 96q129 0 235.5 -46t163.5 -128l-133 -117q-93 119 -281 119q-125 0 -184 -53z" />
    <glyph glyph-name="Scedilla" unicode="&#x15e;" horiz-adv-x="1306" 
d="M856 788q344 -85 344 -337q0 -122 -59 -225.5t-164 -166.5q-127 -74 -299 -86l-156 -366h-205l191 370q-174 20 -292.5 106t-158.5 220l162 92q102 -241 395 -241q159 0 260 63q54 34 85.5 89t31.5 116q0 71 -51 117t-164 75l-223 56q-171 42 -261.5 133t-90.5 213
q0 95 45 183t123 147q154 116 403 116q188 0 322 -72t182 -190l-168 -100q-91 180 -344 180q-169 0 -262 -72q-43 -31 -67.5 -78.5t-24.5 -99.5q0 -67 51 -111.5t170 -74.5z" />
    <glyph glyph-name="scedilla" unicode="&#x15f;" horiz-adv-x="1052" 
d="M666 592q270 -63 270 -256q0 -81 -38 -158t-105 -123q-103 -73 -252 -82l-156 -366h-205l193 373q-118 20 -205.5 74.5t-128.5 135.5l139 109q47 -77 128.5 -117.5t185.5 -40.5q116 0 184 49q28 21 45.5 52.5t17.5 64.5q0 44 -36.5 73t-129.5 50l-149 33
q-138 32 -207.5 100t-69.5 162q0 71 32 137t87 109q116 96 324 96q129 0 235.5 -46t163.5 -128l-133 -117q-93 119 -281 119q-125 0 -184 -53q-47 -36 -47 -101q0 -40 35.5 -66t122.5 -46z" />
    <glyph glyph-name="Scaron" unicode="&#x160;" horiz-adv-x="1306" 
d="M899 1606h-180l-242 307h189l149 -193l205 193h205zM856 788q344 -85 344 -337q0 -122 -59 -225.5t-164 -166.5q-150 -88 -365 -88t-362 88.5t-193 243.5l162 92q102 -241 395 -241q159 0 260 63q54 34 85.5 89t31.5 116q0 71 -51 117t-164 75l-223 56
q-171 42 -261.5 133t-90.5 213q0 95 45 183t123 147q154 116 403 116q188 0 322 -72t182 -190l-168 -100q-91 180 -344 180q-169 0 -262 -72q-43 -31 -67.5 -78.5t-24.5 -99.5q0 -67 51 -111.5t170 -74.5z" />
    <glyph glyph-name="scaron" unicode="&#x161;" horiz-adv-x="1052" 
d="M717 1210h-180l-242 308h188l150 -193l205 193h204zM391 842q-47 -36 -47 -101q0 -40 35.5 -66t122.5 -46l164 -37q270 -63 270 -256q0 -81 -38 -158t-105 -123q-116 -84 -306 -84q-156 0 -276.5 59.5t-171.5 159.5l139 109q47 -77 128.5 -117.5t185.5 -40.5
q116 0 184 49q28 21 45.5 52.5t17.5 64.5q0 44 -36.5 73t-129.5 50l-149 33q-138 32 -207.5 100t-69.5 162q0 71 32 137t87 109q116 96 324 96q129 0 235.5 -46t163.5 -128l-133 -117q-93 119 -281 119q-125 0 -184 -53z" />
    <glyph glyph-name="uni0162" unicode="&#x162;" horiz-adv-x="1245" 
d="M449 0l174 1247h-469l26 187h1143l-29 -187h-469l-176 -1247h-200zM311 -518l111 336h199l-162 -336h-148z" />
    <glyph glyph-name="uni0163" unicode="&#x163;" horiz-adv-x="845" 
d="M498 872l-82 -579q-9 -75 24.5 -107t120.5 -32q71 0 160 18l-23 -162q-91 -26 -194 -26q-326 0 -283 290l84 598h-205l25 166h205l43 308h192l-43 -308h318l-27 -166h-315zM184 -518l111 336h199l-162 -336h-148z" />
    <glyph glyph-name="Tcaron" unicode="&#x164;" horiz-adv-x="1245" 
d="M866 1606h-180l-242 307h189l149 -193l205 193h205zM180 1434h1143l-29 -187h-469l-176 -1247h-200l174 1247h-469z" />
    <glyph glyph-name="tcaron" unicode="&#x165;" horiz-adv-x="849" 
d="M748 1591h196l-104 -407h-150zM565 1346l-43 -308h318l-27 -166h-315l-82 -579q-9 -75 24.5 -107t120.5 -32q71 0 160 18l-23 -162q-91 -26 -194 -26q-326 0 -283 290l84 598h-205l25 166h205l43 308h192z" />
    <glyph glyph-name="Tbar" unicode="&#x166;" horiz-adv-x="1245" 
d="M1294 1247h-469l-61 -432h291l-23 -164h-291l-92 -651h-200l90 651h-287l22 164h289l60 432h-469l26 187h1143z" />
    <glyph glyph-name="tbar" unicode="&#x167;" horiz-adv-x="845" 
d="M813 872h-315l-35 -254h272l-20 -143h-273l-26 -182q-9 -75 24.5 -107t120.5 -32q71 0 160 18l-23 -162q-91 -26 -194 -26q-326 0 -283 290l29 201h-184l20 143h184l35 254h-205l25 166h205l43 308h192l-43 -308h318z" />
    <glyph glyph-name="Utilde" unicode="&#x168;" horiz-adv-x="1544" 
d="M1075 1618q-38 0 -75.5 18t-90.5 66q-35 31 -55.5 42t-42.5 11q-32 0 -54 -32t-28 -93h-137q10 128 70 198t155 70q41 0 78.5 -19t87.5 -64q38 -33 57 -43.5t41 -10.5q32 0 54 31.5t28 93.5h137q-10 -128 -70 -198t-155 -70zM696 -29q-246 0 -383 116t-137 329
q0 30 8 100l129 918h201l-127 -899q-6 -47 -6 -86q0 -148 79 -218.5t249 -70.5q194 0 310 94.5t142 280.5l127 899h201l-129 -918q-37 -258 -213 -401.5t-451 -143.5z" />
    <glyph glyph-name="utilde" unicode="&#x169;" horiz-adv-x="1249" 
d="M604 1360q-32 0 -54 -32t-28 -93h-137q10 128 70 198t155 70q40 0 77.5 -19.5t88.5 -64.5q37 -33 56.5 -43t41.5 -10q32 0 54 31.5t28 93.5h138q-10 -128 -70.5 -198t-155.5 -70q-38 0 -75.5 18t-90.5 66q-35 31 -55.5 42t-42.5 11zM954 1038h193l-148 -1038h-190l25 174
q-57 -96 -159 -149.5t-226 -53.5q-150 0 -229 78.5t-79 226.5q0 46 6 95l95 667h192l-88 -620q-6 -52 -6 -94q0 -93 40.5 -133.5t133.5 -40.5q131 0 234 79t120 197z" />
    <glyph glyph-name="Umacron" unicode="&#x16a;" horiz-adv-x="1544" 
d="M616 1649l21 153h629l-21 -153h-629zM696 -29q-246 0 -383 116t-137 329q0 30 8 100l129 918h201l-127 -899q-6 -47 -6 -86q0 -148 79 -218.5t249 -70.5q194 0 310 94.5t142 280.5l127 899h201l-129 -918q-37 -258 -213 -401.5t-451 -143.5z" />
    <glyph glyph-name="umacron" unicode="&#x16b;" horiz-adv-x="1249" 
d="M1059 1407l-21 -154h-628l20 154h629zM954 1038h193l-148 -1038h-190l25 174q-57 -96 -159 -149.5t-226 -53.5q-150 0 -229 78.5t-79 226.5q0 46 6 95l95 667h192l-88 -620q-6 -52 -6 -94q0 -93 40.5 -133.5t133.5 -40.5q131 0 234 79t120 197z" />
    <glyph glyph-name="Ubreve" unicode="&#x16c;" horiz-adv-x="1544" 
d="M932 1593q-132 0 -209.5 62.5t-77.5 169.5q0 31 6 55h164q-2 -14 -2 -37q0 -56 31 -86.5t90 -30.5q71 0 118.5 41t57.5 113h166l-2 -12q-18 -126 -108 -200.5t-234 -74.5zM696 -29q-246 0 -383 116t-137 329q0 30 8 100l129 918h201l-127 -899q-6 -47 -6 -86
q0 -148 79 -218.5t249 -70.5q194 0 310 94.5t142 280.5l127 899h201l-129 -918q-37 -258 -213 -401.5t-451 -143.5z" />
    <glyph glyph-name="ubreve" unicode="&#x16d;" horiz-adv-x="1249" 
d="M725 1198q-132 0 -209.5 62.5t-77.5 169.5q0 31 6 55h164q-2 -14 -2 -37q0 -56 31 -86.5t90 -30.5q71 0 118.5 41t57.5 113h166l-2 -12q-18 -126 -108 -200.5t-234 -74.5zM954 1038h193l-148 -1038h-190l25 174q-57 -96 -159 -149.5t-226 -53.5q-150 0 -229 78.5
t-79 226.5q0 46 6 95l95 667h192l-88 -620q-6 -52 -6 -94q0 -93 40.5 -133.5t133.5 -40.5q131 0 234 79t120 197z" />
    <glyph glyph-name="Uring" unicode="&#x16e;" horiz-adv-x="1544" 
d="M928 1579q-101 0 -167.5 61t-66.5 152q0 113 86.5 194.5t204.5 81.5q99 0 164 -60t65 -150q0 -114 -85 -196.5t-201 -82.5zM934 1706q60 0 100.5 40.5t40.5 100.5q0 44 -25 69.5t-71 25.5q-60 0 -102.5 -41t-42.5 -101q0 -43 26 -68.5t74 -25.5zM696 -29q-246 0 -383 116
t-137 329q0 30 8 100l129 918h201l-127 -899q-6 -47 -6 -86q0 -148 79 -218.5t249 -70.5q194 0 310 94.5t142 280.5l127 899h201l-129 -918q-37 -258 -213 -401.5t-451 -143.5z" />
    <glyph glyph-name="uring" unicode="&#x16f;" horiz-adv-x="1249" 
d="M721 1184q-101 0 -167.5 61t-66.5 152q0 113 86.5 194.5t204.5 81.5q99 0 164.5 -60.5t65.5 -150.5q0 -114 -85.5 -196t-201.5 -82zM772 1546q-60 0 -102.5 -40.5t-42.5 -100.5q0 -43 26 -68.5t74 -25.5q60 0 100.5 40.5t40.5 100.5q0 44 -25 69t-71 25zM954 1038h193
l-148 -1038h-190l25 174q-57 -96 -159 -149.5t-226 -53.5q-150 0 -229 78.5t-79 226.5q0 46 6 95l95 667h192l-88 -620q-6 -52 -6 -94q0 -93 40.5 -133.5t133.5 -40.5q131 0 234 79t120 197z" />
    <glyph glyph-name="Uhungarumlaut" unicode="&#x170;" horiz-adv-x="1544" 
d="M580 1606l274 307h207l-287 -307h-194zM958 1606l277 307h207l-287 -307h-197zM696 -29q-246 0 -383 116t-137 329q0 30 8 100l129 918h201l-127 -899q-6 -47 -6 -86q0 -148 79 -218.5t249 -70.5q194 0 310 94.5t142 280.5l127 899h201l-129 -918q-37 -258 -213 -401.5
t-451 -143.5z" />
    <glyph glyph-name="uhungarumlaut" unicode="&#x171;" horiz-adv-x="1249" 
d="M854 1518l-287 -308h-194l274 308h207zM946 1210h-194l276 308h207zM868 426l86 612h193l-148 -1038h-190l25 174q-57 -96 -159 -149.5t-226 -53.5q-150 0 -229 78.5t-79 226.5q0 46 6 95l95 667h192l-88 -620q-6 -52 -6 -94q0 -93 40.5 -133.5t133.5 -40.5q131 0 234 79
t120 197z" />
    <glyph glyph-name="Uogonek" unicode="&#x172;" horiz-adv-x="1544" 
d="M1288 1434h201l-129 -918q-27 -190 -131.5 -319t-272.5 -187q-15 -11 -47.5 -34.5t-51 -37t-44.5 -35t-39.5 -38t-24 -36.5t-10.5 -38q0 -65 109 -65h70l-21 -152h-94q-119 0 -184.5 46t-65.5 122q0 126 154 229h-11q-246 0 -383 116t-137 329q0 30 8 100l129 918h201
l-127 -899q-6 -47 -6 -86q0 -148 79 -218.5t249 -70.5q194 0 310 94.5t142 280.5z" />
    <glyph glyph-name="uogonek" unicode="&#x173;" horiz-adv-x="1249" 
d="M1001 0q-17 -13 -57.5 -42t-62 -46t-48 -42t-39 -47t-12.5 -44q0 -66 109 -66h70l-21 -151h-94q-119 0 -184.5 46t-65.5 122q0 155 221 270h-8l25 174q-57 -96 -159 -149.5t-226 -53.5q-150 0 -229 78.5t-79 226.5q0 46 6 95l95 667h192l-88 -620q-6 -52 -6 -94
q0 -93 40.5 -133.5t133.5 -40.5q131 0 234 79t120 197l86 612h193l-148 -1036z" />
    <glyph glyph-name="Wcircumflex" unicode="&#x174;" horiz-adv-x="2148" 
d="M1262 1800l-205 -194h-205l326 307h180l241 -307h-186zM2013 1434h207l-645 -1434h-207l-203 1163l-532 -1163h-209l-238 1434h199l186 -1155l527 1155h200l201 -1155z" />
    <glyph glyph-name="wcircumflex" unicode="&#x175;" horiz-adv-x="1714" 
d="M989 1405l-205 -195h-204l325 308h180l242 -308h-186zM1546 1038h199l-483 -1038h-213l-150 813l-383 -813h-211l-188 1038h190l139 -809l379 809h203l152 -807z" />
    <glyph glyph-name="Ycircumflex" unicode="&#x176;" horiz-adv-x="1325" 
d="M848 1800l-205 -194h-205l326 307h180l242 -307h-187zM1204 1434h236l-668 -844l-86 -590h-201l86 590l-430 844h219l328 -666z" />
    <glyph glyph-name="ycircumflex" unicode="&#x177;" horiz-adv-x="1116" 
d="M694 1405l-205 -195h-204l325 308h181l241 -308h-186zM948 1038h207l-780 -1446h-195l211 398l-280 1048h198l207 -835z" />
    <glyph glyph-name="Ydieresis" unicode="&#x178;" horiz-adv-x="1325" 
d="M594 1638q-52 0 -82.5 30t-30.5 77q0 63 42.5 107t105.5 44q52 0 83 -31t31 -79q0 -59 -43.5 -103.5t-105.5 -44.5zM1040 1638q-51 0 -81.5 30t-30.5 77q0 64 42.5 107.5t106.5 43.5q50 0 81.5 -31t31.5 -79q0 -59 -44 -103.5t-106 -44.5zM1204 1434h236l-668 -844
l-86 -590h-201l86 590l-430 844h219l328 -666z" />
    <glyph glyph-name="Zacute" unicode="&#x179;" horiz-adv-x="1245" 
d="M1135 1913l-310 -307h-204l274 307h240zM1270 1434l-21 -154l-952 -1098h809l-27 -182h-1061l21 154l950 1097h-766l25 183h1022z" />
    <glyph glyph-name="zacute" unicode="&#x17a;" horiz-adv-x="1032" 
d="M973 1518l-309 -308h-205l274 308h240zM999 1038l-20 -143l-692 -727h598l-25 -168h-835l20 141l692 729h-573l24 168h811z" />
    <glyph glyph-name="Zdotaccent" unicode="&#x17b;" horiz-adv-x="1245" 
d="M782 1638q-51 0 -81.5 30t-30.5 77q0 63 42 107t105 44q52 0 83.5 -31t31.5 -79q0 -59 -44 -103.5t-106 -44.5zM1270 1434l-21 -154l-952 -1098h809l-27 -182h-1061l21 154l950 1097h-766l25 183h1022z" />
    <glyph glyph-name="zdotaccent" unicode="&#x17c;" horiz-adv-x="1032" 
d="M621 1243q-52 0 -82.5 30t-30.5 77q0 63 42 107t105 44q52 0 83.5 -31t31.5 -79q0 -59 -43.5 -103.5t-105.5 -44.5zM999 1038l-20 -143l-692 -727h598l-25 -168h-835l20 141l692 729h-573l24 168h811z" />
    <glyph glyph-name="Zcaron" unicode="&#x17d;" horiz-adv-x="1245" 
d="M868 1606h-180l-242 307h189l149 -193l205 193h205zM1270 1434l-21 -154l-952 -1098h809l-27 -182h-1061l21 154l950 1097h-766l25 183h1022z" />
    <glyph glyph-name="zcaron" unicode="&#x17e;" horiz-adv-x="1032" 
d="M707 1210h-181l-241 308h188l150 -193l204 193h205zM164 870l24 168h811l-20 -143l-692 -727h598l-25 -168h-835l20 141l692 729h-573z" />
    <glyph glyph-name="florin" unicode="&#x192;" horiz-adv-x="1003" 
d="M971 1434h82l-25 -179h-70q-88 0 -131.5 -34.5t-74.5 -128.5l-72 -215h262l-20 -150h-291l-248 -750q-46 -138 -137.5 -201t-251.5 -63h-82l25 178h69q88 0 133 36t76 130l221 670h-248l21 150h276l97 294q46 137 138 200t251 63z" />
    <glyph glyph-name="uni01CD" unicode="&#x1cd;" horiz-adv-x="1466" 
d="M977 1606h-180l-242 307h188l150 -193l205 193h205zM1147 0l-94 377h-670l-201 -377h-215l781 1434h227l375 -1434h-203zM477 555h531l-170 680z" />
    <glyph glyph-name="uni01CE" unicode="&#x1ce;" horiz-adv-x="1341" 
d="M881 1210h-181l-241 308h188l150 -193l204 193h205zM1047 1038h192l-147 -1038h-193l25 178q-59 -96 -165 -151.5t-231 -55.5q-191 0 -309.5 128t-118.5 339q0 136 51.5 262.5t141.5 214.5q72 72 169 112t202 40q130 0 228 -59.5t128 -159.5zM846 254q66 60 102.5 150.5
t36.5 185.5q0 136 -76.5 217.5t-210.5 81.5q-157 0 -264 -107q-66 -66 -99.5 -156t-33.5 -180q0 -135 74.5 -215.5t206.5 -80.5q157 0 264 104z" />
    <glyph glyph-name="uni01E2" unicode="&#x1e2;" horiz-adv-x="2256" 
d="M1985 1802l-21 -153h-629l21 153h629zM2193 1249h-790l-60 -432h752l-27 -186h-751l-62 -447h809l-26 -184h-1012l49 352h-592l-288 -352h-240l1184 1434h1081zM631 532h471l98 693z" />
    <glyph glyph-name="uni01E3" unicode="&#x1e3;" horiz-adv-x="1927" 
d="M1415 1407l-20 -154h-629l20 154h629zM1407 1067q195 0 313.5 -117.5t118.5 -310.5q0 -24 -8 -86q-6 -47 -21 -90h-806v-25q0 -139 75.5 -216t212.5 -77q181 0 348 154l111 -113q-83 -103 -206 -159t-265 -56q-150 0 -257.5 63.5t-150.5 176.5q-59 -110 -182 -175
t-278 -65q-163 0 -259 75t-96 200q0 79 33 149t94 117q123 94 355 94h290l11 70q4 32 4 43q0 84 -53 129t-152 45q-93 0 -178.5 -36.5t-149.5 -106.5l-106 118q76 94 197.5 146.5t261.5 52.5q131 0 216 -49.5t119 -143.5q75 93 180.5 143t227.5 50zM1124 776
q-63 -66 -96 -170h619q2 10 2 31q0 123 -65.5 188.5t-186.5 65.5q-164 0 -273 -115zM434 127q141 0 247.5 84t121.5 207l6 45h-281q-153 0 -223 -64q-49 -46 -49 -133q0 -67 45 -103t133 -36z" />
    <glyph glyph-name="Gcaron" unicode="&#x1e6;" horiz-adv-x="1595" 
d="M1085 1606h-180l-241 307h188l149 -193l205 193h205zM909 594l25 180h561l-80 -573q-96 -108 -254.5 -169t-345.5 -61q-313 0 -492.5 170.5t-179.5 450.5q0 181 70.5 353.5t196.5 291.5q110 108 254.5 166.5t310.5 58.5q188 0 331 -74t214 -206l-168 -111
q-107 203 -379 203q-263 0 -434 -180q-91 -92 -139 -224.5t-48 -267.5q0 -211 124.5 -327.5t348.5 -116.5q123 0 231.5 34t174.5 89l45 313h-367z" />
    <glyph glyph-name="gcaron" unicode="&#x1e7;" horiz-adv-x="1339" 
d="M860 1210h-180l-242 308h189l149 -193l205 193h205zM1044 1038h193l-131 -923q-39 -270 -192.5 -412.5t-415.5 -142.5q-145 0 -266 47.5t-193 128.5l117 135q130 -133 342 -133q173 0 280.5 95.5t136.5 281.5l15 98q-57 -97 -163.5 -154t-234.5 -57q-191 0 -310.5 122.5
t-119.5 321.5q0 142 56.5 274.5t156.5 219.5q152 127 351 127q129 0 224.5 -57.5t127.5 -155.5zM862 293q123 126 123 309q0 130 -74.5 208.5t-208.5 78.5q-162 0 -266 -101q-66 -62 -99.5 -148.5t-33.5 -178.5q0 -128 71.5 -205.5t203.5 -77.5q162 0 284 115z" />
    <glyph glyph-name="uni01E8" unicode="&#x1e8;" horiz-adv-x="1425" 
d="M969 1608h-183l-239 307h186l152 -195l205 195h202zM1505 1434l-680 -621l506 -813h-239l-420 674l-281 -256l-59 -418h-201l203 1434h201l-105 -742l817 742h258z" />
    <glyph glyph-name="uni01E9" unicode="&#x1e9;" horiz-adv-x="1146" 
d="M524 1673h-180l-242 307h189l149 -192l205 192h205zM1190 1036l-526 -448l395 -588h-215l-320 469l-186 -158l-43 -311h-193l211 1499h193l-135 -954l573 493z" />
    <glyph glyph-name="AEacute" unicode="&#x1fc;" horiz-adv-x="2256" 
d="M2001 1913l-309 -307h-205l274 307h240zM2193 1249h-790l-60 -432h752l-27 -186h-751l-62 -447h809l-26 -184h-1012l49 352h-592l-288 -352h-240l1184 1434h1081zM631 532h471l98 693z" />
    <glyph glyph-name="aeacute" unicode="&#x1fd;" horiz-adv-x="1927" 
d="M1432 1518l-310 -308h-204l274 308h240zM1407 1067q195 0 313.5 -117.5t118.5 -310.5q0 -24 -8 -86q-6 -47 -21 -90h-806v-25q0 -139 75.5 -216t212.5 -77q181 0 348 154l111 -113q-83 -103 -206 -159t-265 -56q-150 0 -257.5 63.5t-150.5 176.5q-59 -110 -182 -175
t-278 -65q-163 0 -259 75t-96 200q0 79 33 149t94 117q123 94 355 94h290l11 70q4 32 4 43q0 84 -53 129t-152 45q-93 0 -178.5 -36.5t-149.5 -106.5l-106 118q76 94 197.5 146.5t261.5 52.5q131 0 216 -49.5t119 -143.5q75 93 180.5 143t227.5 50zM1124 776
q-63 -66 -96 -170h619q2 10 2 31q0 123 -65.5 188.5t-186.5 65.5q-164 0 -273 -115zM434 127q141 0 247.5 84t121.5 207l6 45h-281q-153 0 -223 -64q-49 -46 -49 -133q0 -67 45 -103t133 -36z" />
    <glyph glyph-name="Oslashacute" unicode="&#x1fe;" horiz-adv-x="1722" 
d="M1235 1913l-309 -307h-205l274 307h240zM1706 1333l-172 -149q100 -152 100 -355q0 -173 -73 -342.5t-199 -291.5q-112 -106 -258 -165t-309 -59q-278 0 -457 162l-168 -147l-98 114l170 148q-97 159 -97 354q0 191 82 367.5t226 300.5q224 192 532 192q275 0 453 -164
l172 150zM571 1118q-104 -95 -159.5 -226.5t-55.5 -277.5q0 -125 47 -225l885 776q-118 109 -311 109q-229 0 -406 -156zM1227 334q96 94 146 221.5t50 263.5q0 128 -47 228l-884 -777q116 -110 309 -110q246 0 426 174z" />
    <glyph glyph-name="oslashacute" unicode="&#x1ff;" horiz-adv-x="1292" 
d="M1018 1518l-309 -308h-205l274 308h240zM1278 983l-154 -135q66 -114 66 -250q0 -135 -62.5 -268t-166.5 -221q-164 -138 -379 -138q-197 0 -326 113l-150 -131l-92 102l154 135q-66 111 -66 250q0 133 58 261.5t157 218.5q163 147 394 147q193 0 325 -113l150 131z
M434 780q-65 -64 -99 -152t-34 -179q0 -68 23 -132l577 508q-72 66 -192 66q-161 0 -275 -111zM846 246q73 66 109 157.5t36 186.5q0 66 -20 131l-578 -508q74 -68 195 -68q149 0 258 101z" />
    <glyph glyph-name="uni0218" unicode="&#x218;" horiz-adv-x="1306" 
d="M612 -29q-215 0 -362 88.5t-193 243.5l162 92q102 -241 395 -241q159 0 260 63q54 34 85.5 89t31.5 116q0 71 -51 117t-164 75l-223 56q-171 42 -261.5 133t-90.5 213q0 95 45 183t123 147q154 116 403 116q188 0 322 -72t182 -190l-168 -100q-91 180 -344 180
q-169 0 -262 -72q-43 -31 -67.5 -78.5t-24.5 -99.5q0 -67 51 -111.5t170 -74.5l225 -56q344 -85 344 -337q0 -122 -59 -225.5t-164 -166.5q-150 -88 -365 -88zM367 -518l110 336h199l-162 -336h-147z" />
    <glyph glyph-name="uni0219" unicode="&#x219;" horiz-adv-x="1052" 
d="M487 -29q-156 0 -276.5 59.5t-171.5 159.5l139 109q47 -77 128.5 -117.5t185.5 -40.5q116 0 184 49q28 21 45.5 52.5t17.5 64.5q0 44 -36.5 73t-129.5 50l-149 33q-138 32 -207.5 100t-69.5 162q0 71 32 137t87 109q116 96 324 96q129 0 235.5 -46t163.5 -128l-133 -117
q-93 119 -281 119q-125 0 -184 -53q-47 -36 -47 -101q0 -40 35.5 -66t122.5 -46l164 -37q270 -63 270 -256q0 -81 -38 -158t-105 -123q-116 -84 -306 -84zM229 -518l111 336h199l-162 -336h-148z" />
    <glyph glyph-name="uni021A" unicode="&#x21a;" horiz-adv-x="1245" 
d="M449 0l174 1247h-469l26 187h1143l-29 -187h-469l-176 -1247h-200zM311 -518l111 336h199l-162 -336h-148z" />
    <glyph glyph-name="uni021B" unicode="&#x21b;" horiz-adv-x="845" 
d="M498 872l-82 -579q-9 -75 24.5 -107t120.5 -32q71 0 160 18l-23 -162q-91 -26 -194 -26q-326 0 -283 290l84 598h-205l25 166h205l43 308h192l-43 -308h318l-27 -166h-315zM184 -518l111 336h199l-162 -336h-148z" />
    <glyph glyph-name="uni0237" unicode="&#x237;" horiz-adv-x="548" 
d="M-84 -440q-56 0 -121 12l27 172q46 -12 92 -12q83 0 124 39.5t52 119.5l162 1147h192l-163 -1173q-46 -305 -365 -305z" />
    <glyph glyph-name="circumflex" unicode="&#x2c6;" horiz-adv-x="1269" 
d="M1106 1210h-186l-152 195l-205 -195h-205l326 308h180z" />
    <glyph glyph-name="caron" unicode="&#x2c7;" horiz-adv-x="1269" 
d="M944 1518h205l-326 -308h-180l-242 308h189l149 -193z" />
    <glyph glyph-name="breve" unicode="&#x2d8;" horiz-adv-x="1269" 
d="M739 1198q-132 0 -209 62.5t-77 169.5q0 31 6 55h164q-2 -14 -2 -37q0 -56 30.5 -86.5t89.5 -30.5q71 0 119 41t58 113h165l-2 -12q-18 -126 -108 -200.5t-234 -74.5z" />
    <glyph glyph-name="dotaccent" unicode="&#x2d9;" horiz-adv-x="1269" 
d="M737 1243q-51 0 -81.5 30t-30.5 77q0 63 42 107t105 44q52 0 83.5 -31t31.5 -79q0 -59 -44 -103.5t-106 -44.5z" />
    <glyph glyph-name="ring" unicode="&#x2da;" horiz-adv-x="1269" 
d="M735 1184q-101 0 -167 61t-66 152q0 113 86.5 194.5t204.5 81.5q99 0 164 -60.5t65 -150.5q0 -114 -85.5 -196t-201.5 -82zM741 1311q60 0 101 40.5t41 100.5q0 44 -25.5 69t-71.5 25q-60 0 -102.5 -40.5t-42.5 -100.5q0 -43 26 -68.5t74 -25.5z" />
    <glyph glyph-name="ogonek" unicode="&#x2db;" horiz-adv-x="1269" 
d="M508 -438q-119 0 -184.5 46t-65.5 122q0 182 320 317l86 -47q-18 -14 -57.5 -42.5t-61.5 -45.5t-49 -41.5t-39.5 -47t-12.5 -44.5q0 -66 109 -66h70l-21 -151h-94z" />
    <glyph glyph-name="tilde" unicode="&#x2dc;" horiz-adv-x="1269" 
d="M883 1223q-38 0 -75.5 18t-90.5 66q-35 31 -56 42t-43 11q-32 0 -53.5 -32t-27.5 -93h-138q10 128 70.5 198t155.5 70q40 0 77.5 -19.5t88.5 -64.5q37 -33 56.5 -43t41.5 -10q32 0 54 31.5t28 93.5h137q-10 -128 -70 -198t-155 -70z" />
    <glyph glyph-name="hungarumlaut" unicode="&#x2dd;" horiz-adv-x="1269" 
d="M440 1210l275 308h207l-287 -308h-195zM819 1210l277 308h207l-289 -308h-195z" />
    <glyph glyph-name="gravecomb" unicode="&#x300;" horiz-adv-x="0" 
d="M-639 1210l-227 308h231l191 -308h-195z" />
    <glyph glyph-name="acutecomb" unicode="&#x301;" horiz-adv-x="0" 
d="M-629 1210l275 308h239l-309 -308h-205z" />
    <glyph glyph-name="uni0302" unicode="&#x302;" horiz-adv-x="0" 
d="M-164 1210h-186l-152 195l-205 -195h-204l325 308h180z" />
    <glyph glyph-name="tildecomb" unicode="&#x303;" horiz-adv-x="0" 
d="M-387 1223q-38 0 -75.5 18t-90.5 66q-35 31 -55.5 42t-42.5 11q-32 0 -54 -32t-28 -93h-137q10 128 70 198t155 70q40 0 77.5 -19.5t88.5 -64.5q37 -33 56.5 -43t41.5 -10q32 0 54 31.5t28 93.5h137q-10 -128 -70 -198t-155 -70z" />
    <glyph glyph-name="uni0304" unicode="&#x304;" horiz-adv-x="0" 
d="M-846 1253l21 154h628l-20 -154h-629z" />
    <glyph glyph-name="uni0306" unicode="&#x306;" horiz-adv-x="0" 
d="M-530 1198q-132 0 -209.5 62.5t-77.5 169.5q0 31 6 55h164q-2 -14 -2 -37q0 -56 31 -86.5t90 -30.5q71 0 118.5 41t57.5 113h166l-2 -12q-18 -126 -108 -200.5t-234 -74.5z" />
    <glyph glyph-name="uni0307" unicode="&#x307;" horiz-adv-x="0" 
d="M-532 1243q-52 0 -82.5 30t-30.5 77q0 63 42 107t105 44q52 0 83.5 -31t31.5 -79q0 -59 -43.5 -103.5t-105.5 -44.5z" />
    <glyph glyph-name="uni0308" unicode="&#x308;" horiz-adv-x="0" 
d="M-756 1243q-51 0 -81.5 30t-30.5 77q0 63 42 107t105 44q52 0 83.5 -31t31.5 -79q0 -59 -44 -103.5t-106 -44.5zM-309 1243q-52 0 -82.5 30t-30.5 77q0 63 42.5 107t105.5 44q52 0 83 -31t31 -79q0 -59 -43.5 -103.5t-105.5 -44.5z" />
    <glyph glyph-name="uni030A" unicode="&#x30a;" horiz-adv-x="0" 
d="M-535 1184q-101 0 -167 61t-66 152q0 113 86.5 194.5t204.5 81.5q99 0 164 -60.5t65 -150.5q0 -114 -85.5 -196t-201.5 -82zM-528 1311q60 0 100.5 40.5t40.5 100.5q0 44 -25 69t-71 25q-60 0 -103 -40.5t-43 -100.5q0 -42 26.5 -68t74.5 -26z" />
    <glyph glyph-name="uni030B" unicode="&#x30b;" horiz-adv-x="0" 
d="M-829 1210l274 308h207l-287 -308h-194zM-451 1210l277 308h207l-289 -308h-195z" />
    <glyph glyph-name="uni030C" unicode="&#x30c;" horiz-adv-x="0" 
d="M-326 1518h205l-325 -308h-181l-241 308h188l150 -193z" />
    <glyph glyph-name="uni0315" unicode="&#x315;" horiz-adv-x="0" 
d="M-647 1141l57 407h197l-105 -407h-149z" />
    <glyph glyph-name="uni0326" unicode="&#x326;" horiz-adv-x="0" 
d="M-942 -518l111 336h198l-162 -336h-147z" />
    <glyph glyph-name="uni0327" unicode="&#x327;" horiz-adv-x="0" 
d="M-993 -393l223 434h166l-184 -434h-205z" />
    <glyph glyph-name="uni0328" unicode="&#x328;" horiz-adv-x="0" 
d="M-762 -438q-119 0 -184.5 46t-65.5 122q0 182 320 317l86 -47q-17 -13 -57.5 -42t-62 -46t-48 -42t-39 -47t-12.5 -44q0 -66 108 -66h70l-21 -151h-94z" />
    <glyph glyph-name="uni03BC" unicode="&#x3bc;" horiz-adv-x="1267" 
d="M973 1038h192l-147 -1038h-189l25 170q-53 -92 -147.5 -145.5t-198.5 -53.5q-139 0 -201 101l-74 -523h-192l209 1489h192l-92 -657q-9 -119 39 -175t156 -56q135 0 229.5 81.5t116.5 235.5z" />
    <glyph glyph-name="pi" unicode="&#x3c0;" horiz-adv-x="1226" 
d="M1067 178h49l-24 -178h-86q-271 0 -230 274l82 586h-440l-123 -860h-193l148 1038h825l-104 -737q-9 -64 14 -93.5t82 -29.5z" />
    <glyph glyph-name="uni1E20" unicode="&#x1e20;" horiz-adv-x="1595" 
d="M1335 1802l-20 -153h-629l21 153h628zM909 594l25 180h561l-80 -573q-96 -108 -254.5 -169t-345.5 -61q-313 0 -492.5 170.5t-179.5 450.5q0 181 70.5 353.5t196.5 291.5q110 108 254.5 166.5t310.5 58.5q188 0 331 -74t214 -206l-168 -111q-107 203 -379 203
q-263 0 -434 -180q-91 -92 -139 -224.5t-48 -267.5q0 -211 124.5 -327.5t348.5 -116.5q123 0 231.5 34t174.5 89l45 313h-367z" />
    <glyph glyph-name="uni1E21" unicode="&#x1e21;" horiz-adv-x="1339" 
d="M1110 1407l-20 -154h-629l20 154h629zM1044 1038h193l-131 -923q-39 -270 -192.5 -412.5t-415.5 -142.5q-145 0 -266 47.5t-193 128.5l117 135q130 -133 342 -133q173 0 280.5 95.5t136.5 281.5l15 98q-57 -97 -163.5 -154t-234.5 -57q-191 0 -310.5 122.5t-119.5 321.5
q0 142 56.5 274.5t156.5 219.5q152 127 351 127q129 0 224.5 -57.5t127.5 -155.5zM862 293q123 126 123 309q0 130 -74.5 208.5t-208.5 78.5q-162 0 -266 -101q-66 -62 -99.5 -148.5t-33.5 -178.5q0 -128 71.5 -205.5t203.5 -77.5q162 0 284 115z" />
    <glyph glyph-name="uni1E30" unicode="&#x1e30;" horiz-adv-x="1425" 
d="M1235 1915l-309 -307h-205l274 307h240zM1505 1434l-680 -621l506 -813h-239l-420 674l-281 -256l-59 -418h-201l203 1434h201l-105 -742l817 742h258z" />
    <glyph glyph-name="uni1E31" unicode="&#x1e31;" horiz-adv-x="1146" 
d="M793 1980l-312 -307h-202l272 307h242zM1190 1036l-526 -448l395 -588h-215l-320 469l-186 -158l-43 -311h-193l211 1499h193l-135 -954l573 493z" />
    <glyph glyph-name="uni1E3E" unicode="&#x1e3e;" horiz-adv-x="1918" 
d="M1470 1913l-309 -307h-205l275 307h239zM1618 1434h225l-203 -1434h-196l160 1128l-582 -759h-164l-373 766l-159 -1135h-195l203 1434h211l418 -856z" />
    <glyph glyph-name="uni1E3F" unicode="&#x1e3f;" horiz-adv-x="1912" 
d="M1432 1518l-310 -308h-204l274 308h240zM1460 1067q150 0 231 -80t81 -229q0 -34 -7 -88l-96 -670h-192l88 625q8 62 8 84q0 92 -43.5 136t-134.5 44q-127 0 -217.5 -75t-108.5 -202l-86 -612h-192l88 625q6 47 6 84q0 93 -43 136.5t-135 43.5q-127 0 -217 -75t-107 -202
l-88 -612h-193l148 1038h192l-24 -168q57 94 151 145.5t209 51.5q116 0 194 -55.5t101 -157.5q55 98 158 155.5t229 57.5z" />
    <glyph glyph-name="uni1E40" unicode="&#x1e40;" horiz-adv-x="1918" 
d="M1118 1638q-51 0 -81.5 30t-30.5 77q0 63 42 107t105 44q52 0 83.5 -31t31.5 -79q0 -59 -44 -103.5t-106 -44.5zM1618 1434h225l-203 -1434h-196l160 1128l-582 -759h-164l-373 766l-159 -1135h-195l203 1434h211l418 -856z" />
    <glyph glyph-name="uni1E41" unicode="&#x1e41;" horiz-adv-x="1912" 
d="M1079 1243q-51 0 -81.5 30t-30.5 77q0 63 42 107t105 44q52 0 83.5 -31t31.5 -79q0 -59 -44 -103.5t-106 -44.5zM1460 1067q150 0 231 -80t81 -229q0 -34 -7 -88l-96 -670h-192l88 625q8 62 8 84q0 92 -43.5 136t-134.5 44q-127 0 -217.5 -75t-108.5 -202l-86 -612h-192
l88 625q6 47 6 84q0 93 -43 136.5t-135 43.5q-127 0 -217 -75t-107 -202l-88 -612h-193l148 1038h192l-24 -168q57 94 151 145.5t209 51.5q116 0 194 -55.5t101 -157.5q55 98 158 155.5t229 57.5z" />
    <glyph glyph-name="uni1E44" unicode="&#x1e44;" horiz-adv-x="1622" 
d="M969 1638q-52 0 -82.5 30t-30.5 77q0 63 42.5 107t105.5 44q52 0 83 -31t31 -79q0 -59 -43.5 -103.5t-105.5 -44.5zM1350 1434h198l-202 -1434h-187l-674 1116l-157 -1116h-197l203 1434h184l674 -1115z" />
    <glyph glyph-name="uni1E45" unicode="&#x1e45;" horiz-adv-x="1259" 
d="M735 1243q-51 0 -81.5 30t-30.5 77q0 63 42 107t105 44q52 0 83.5 -31t31.5 -79q0 -59 -44 -103.5t-106 -44.5zM795 1067q154 0 238.5 -82t84.5 -233q0 -40 -6 -84l-94 -668h-193l86 621q7 51 7 79q0 97 -47.5 143t-145.5 46q-133 0 -229 -75t-113 -202l-88 -612h-193
l148 1038h192l-24 -168q57 94 156 145.5t221 51.5z" />
    <glyph glyph-name="Wgrave" unicode="&#x1e80;" horiz-adv-x="2148" 
d="M1382 1606h-194l-227 307h231zM2013 1434h207l-645 -1434h-207l-203 1163l-532 -1163h-209l-238 1434h199l186 -1155l527 1155h200l201 -1155z" />
    <glyph glyph-name="wgrave" unicode="&#x1e81;" horiz-adv-x="1714" 
d="M1110 1210h-195l-227 308h232zM1546 1038h199l-483 -1038h-213l-150 813l-383 -813h-211l-188 1038h190l139 -809l379 809h203l152 -807z" />
    <glyph glyph-name="Wacute" unicode="&#x1e82;" horiz-adv-x="2148" 
d="M1585 1913l-309 -307h-205l275 307h239zM2013 1434h207l-645 -1434h-207l-203 1163l-532 -1163h-209l-238 1434h199l186 -1155l527 1155h200l201 -1155z" />
    <glyph glyph-name="wacute" unicode="&#x1e83;" horiz-adv-x="1714" 
d="M1313 1518l-309 -308h-205l274 308h240zM1546 1038h199l-483 -1038h-213l-150 813l-383 -813h-211l-188 1038h190l139 -809l379 809h203l152 -807z" />
    <glyph glyph-name="Wdieresis" unicode="&#x1e84;" horiz-adv-x="2148" 
d="M1008 1638q-52 0 -82.5 30t-30.5 77q0 63 42 107t105 44q52 0 83.5 -31t31.5 -79q0 -59 -43.5 -103.5t-105.5 -44.5zM1454 1638q-52 0 -82.5 30t-30.5 77q0 63 43 107t107 44q50 0 81.5 -31t31.5 -79q0 -59 -44 -103.5t-106 -44.5zM2013 1434h207l-645 -1434h-207
l-203 1163l-532 -1163h-209l-238 1434h199l186 -1155l527 1155h200l201 -1155z" />
    <glyph glyph-name="wdieresis" unicode="&#x1e85;" horiz-adv-x="1714" 
d="M735 1243q-51 0 -81.5 30t-30.5 77q0 63 42 107t105 44q52 0 83.5 -31t31.5 -79q0 -59 -44 -103.5t-106 -44.5zM1182 1243q-52 0 -82.5 30t-30.5 77q0 63 43 107t107 44q50 0 81 -31t31 -79q0 -59 -43.5 -103.5t-105.5 -44.5zM1546 1038h199l-483 -1038h-213l-150 813
l-383 -813h-211l-188 1038h190l139 -809l379 809h203l152 -807z" />
    <glyph glyph-name="uni1E90" unicode="&#x1e90;" horiz-adv-x="1245" 
d="M813 1800l-205 -194h-205l326 307h180l242 -307h-186zM1270 1434l-21 -154l-952 -1098h809l-27 -182h-1061l21 154l950 1097h-766l25 183h1022z" />
    <glyph glyph-name="uni1E91" unicode="&#x1e91;" horiz-adv-x="1032" 
d="M651 1405l-205 -195h-204l325 308h181l241 -308h-186zM999 1038l-20 -143l-692 -727h598l-25 -168h-835l20 141l692 729h-573l24 168h811z" />
    <glyph glyph-name="uni1E9E" unicode="&#x1e9e;" horiz-adv-x="1505" 
d="M1022 782q187 -19 283 -100.5t96 -222.5q0 -111 -45.5 -204.5t-130.5 -154.5q-139 -100 -371 -100h-236l27 180h201q176 0 262 68q41 33 63.5 87.5t22.5 113.5q0 90 -66 133t-210 43h-150l25 168l389 409q-94 78 -283 78q-207 0 -320 -93t-141 -288l-127 -899h-200
l129 911q76 551 651 551q384 0 539 -256z" />
    <glyph glyph-name="Ygrave" unicode="&#x1ef2;" horiz-adv-x="1325" 
d="M969 1606h-195l-227 307h231zM1204 1434h236l-668 -844l-86 -590h-201l86 590l-430 844h219l328 -666z" />
    <glyph glyph-name="ygrave" unicode="&#x1ef3;" horiz-adv-x="1116" 
d="M815 1210h-194l-228 308h232zM948 1038h207l-780 -1446h-195l211 398l-280 1048h198l207 -835z" />
    <glyph glyph-name="uni2000" unicode="&#x2000;" horiz-adv-x="1024" 
 />
    <glyph glyph-name="uni2001" unicode="&#x2001;" horiz-adv-x="2048" 
 />
    <glyph glyph-name="uni2002" unicode="&#x2002;" horiz-adv-x="1024" 
 />
    <glyph glyph-name="uni2003" unicode="&#x2003;" horiz-adv-x="2048" 
 />
    <glyph glyph-name="uni2009" unicode="&#x2009;" horiz-adv-x="428" 
 />
    <glyph glyph-name="uni200A" unicode="&#x200a;" horiz-adv-x="122" 
 />
    <glyph glyph-name="uni200B" unicode="&#x200b;" horiz-adv-x="0" 
 />
    <glyph glyph-name="endash" unicode="&#x2013;" horiz-adv-x="1236" 
d="M104 508l25 164h1024l-25 -164h-1024z" />
    <glyph glyph-name="emdash" unicode="&#x2014;" horiz-adv-x="2260" 
d="M104 508l25 164h2048l-25 -164h-2048z" />
    <glyph glyph-name="quoteleft" unicode="&#x2018;" horiz-adv-x="491" 
d="M156 946l219 516h155l-176 -516h-198z" />
    <glyph glyph-name="quoteright" unicode="&#x2019;" horiz-adv-x="491" 
d="M530 1462l-219 -516h-155l176 516h198z" />
    <glyph glyph-name="quotesinglbase" unicode="&#x201a;" horiz-adv-x="481" 
d="M336 227l-217 -514h-158l176 514h199z" />
    <glyph glyph-name="quotedblleft" unicode="&#x201c;" horiz-adv-x="858" 
d="M156 946l219 516h155l-176 -516h-198zM520 946l219 516h156l-174 -516h-201z" />
    <glyph glyph-name="quotedblright" unicode="&#x201d;" horiz-adv-x="858" 
d="M530 1462l-219 -516h-155l176 516h198zM895 1462l-217 -516h-158l176 516h199z" />
    <glyph glyph-name="quotedblbase" unicode="&#x201e;" horiz-adv-x="847" 
d="M336 227l-217 -514h-158l176 514h199zM702 227l-219 -514h-155l176 514h198z" />
    <glyph glyph-name="dagger" unicode="&#x2020;" horiz-adv-x="1060" 
d="M1044 1040l-24 -176h-346l-158 -1130h-192l157 1130h-342l25 176h342l67 476h193l-68 -476h346z" />
    <glyph glyph-name="daggerdbl" unicode="&#x2021;" horiz-adv-x="1101" 
d="M1040 864h-346l-61 -442h305l-27 -178h-303l-71 -510h-193l72 510h-303l24 178h303l62 442h-342l24 176h342l68 476h192l-67 -476h346z" />
    <glyph glyph-name="bullet" unicode="&#x2022;" horiz-adv-x="1067" 
d="M563 424q-132 0 -221.5 90.5t-89.5 222.5q0 131 89.5 221.5t221.5 90.5q133 0 222 -90.5t89 -221.5q0 -133 -89 -223t-222 -90z" />
    <glyph glyph-name="ellipsis" unicode="&#x2026;" horiz-adv-x="1525" 
d="M195 -18q-64 0 -97.5 39t-25.5 104q6 55 44 90t97 35q64 0 97.5 -38t27.5 -99q-5 -58 -43.5 -94.5t-99.5 -36.5zM696 -18q-64 0 -97.5 39t-25.5 104q6 55 44.5 90t97.5 35q64 0 97.5 -38t27.5 -99q-6 -58 -45.5 -94.5t-98.5 -36.5zM1198 -18q-64 0 -97.5 39t-25.5 104
q6 55 44.5 90t97.5 35q64 0 97 -38t27 -99q-6 -58 -45 -94.5t-98 -36.5z" />
    <glyph glyph-name="perthousand" unicode="&#x2030;" horiz-adv-x="2598" 
d="M477 729q-143 0 -237.5 89.5t-94.5 225.5q0 110 54 206.5t148.5 154t205.5 57.5q143 0 238.5 -89.5t95.5 -225.5q0 -110 -54.5 -206.5t-149.5 -154t-206 -57.5zM190 0l1242 1434h188l-1241 -1434h-189zM485 874q106 0 173 76.5t67 184.5q0 84 -47 133t-131 49
q-109 0 -175.5 -77.5t-66.5 -186.5q0 -82 48 -130.5t132 -48.5zM1257 -29q-143 0 -237 90t-94 226q0 110 54 206.5t148 154t205 57.5q143 0 238.5 -90t95.5 -226q0 -110 -54.5 -206.5t-149.5 -154t-206 -57.5zM2101 -29q-143 0 -237.5 90t-94.5 226q0 110 54 206.5
t148.5 154t205.5 57.5q143 0 238.5 -90t95.5 -226q0 -110 -54.5 -206.5t-149.5 -154t-206 -57.5zM1266 117q106 0 172.5 76t66.5 184q0 85 -47 133.5t-131 48.5q-109 0 -175.5 -77.5t-66.5 -186.5q0 -80 48.5 -129t132.5 -49zM2109 117q106 0 173 76.5t67 183.5
q0 85 -47 133.5t-131 48.5q-109 0 -175.5 -77.5t-66.5 -186.5q0 -81 48 -129.5t132 -48.5z" />
    <glyph glyph-name="guilsinglleft" unicode="&#x2039;" horiz-adv-x="686" 
d="M662 961l-371 -443l241 -438h-206l-250 440l368 441h218z" />
    <glyph glyph-name="guilsinglright" unicode="&#x203a;" horiz-adv-x="686" 
d="M360 961l250 -441l-368 -440h-217l370 442l-243 439h208z" />
    <glyph glyph-name="fraction" unicode="&#x2044;" horiz-adv-x="372" 
d="M-479 0l1204 1434h182l-1204 -1434h-182z" />
    <glyph glyph-name="uni2070" unicode="&#x2070;" horiz-adv-x="782" 
d="M418 713q-129 0 -201 78.5t-72 226.5q0 102 32 207t91 174q102 117 262 117q129 0 202 -80t73 -228q0 -113 -39 -225.5t-111 -179.5q-96 -90 -237 -90zM428 858q75 0 123 51q46 46 68 134t22 174q0 80 -29 115.5t-90 35.5q-90 0 -143 -70q-34 -49 -52 -131t-18 -155
q0 -81 29 -117.5t90 -36.5z" />
    <glyph glyph-name="uni2074" unicode="&#x2074;" horiz-adv-x="710" 
d="M752 1014l-19 -133h-94l-23 -154h-149l20 154h-391l19 133l428 487h182l-68 -487h95zM281 1014h225l43 307z" />
    <glyph glyph-name="uni2075" unicode="&#x2075;" horiz-adv-x="684" 
d="M705 1358h-340l-23 -166q54 29 127 29q106 0 171 -57t65 -154q0 -137 -91.5 -217t-242.5 -80q-173 0 -275 114l97 111q65 -82 176 -82q77 0 124.5 37.5t47.5 103.5q0 44 -28 69.5t-81 25.5q-80 0 -145 -48l-107 58l56 399h489z" />
    <glyph glyph-name="uni2076" unicode="&#x2076;" horiz-adv-x="698" 
d="M475 1251q108 0 178 -62t70 -165q0 -135 -96.5 -223t-237.5 -88q-121 0 -197.5 65.5t-76.5 173.5q0 163 159 336l191 213h188l-237 -256q27 6 59 6zM395 854q74 0 121 45t47 115q0 51 -31.5 79.5t-89.5 28.5q-75 0 -121.5 -43t-46.5 -116q0 -51 31.5 -80t89.5 -29z" />
    <glyph glyph-name="uni2077" unicode="&#x2077;" horiz-adv-x="616" 
d="M170 1501h551l-19 -133l-397 -641h-180l395 625h-370z" />
    <glyph glyph-name="uni2078" unicode="&#x2078;" horiz-adv-x="718" 
d="M602 1122q123 -48 123 -161q0 -116 -93.5 -182t-232.5 -66q-134 0 -210 54.5t-76 143.5q0 83 47 137t129 78q-103 47 -103 146q0 112 86.5 178t216.5 66q124 0 194.5 -54t70.5 -137q0 -73 -40.5 -125.5t-111.5 -77.5zM489 1386q-67 0 -108 -32t-41 -90q0 -37 29 -58.5
t84 -21.5q68 0 105.5 32t37.5 87q0 83 -107 83zM401 848q73 0 117.5 30t44.5 89q0 43 -32 67.5t-95 24.5q-73 0 -115 -33.5t-42 -93.5q0 -84 122 -84z" />
    <glyph glyph-name="uni2079" unicode="&#x2079;" horiz-adv-x="696" 
d="M479 1516q121 0 197 -68t76 -178q0 -153 -160 -332l-193 -211h-186l238 254q-27 -6 -60 -6q-107 0 -177.5 64t-70.5 167q0 134 96.5 222t239.5 88zM428 1104q75 0 119.5 45.5t44.5 116.5q0 51 -32.5 79.5t-90.5 28.5q-75 0 -121.5 -46t-46.5 -114q0 -52 33.5 -81
t93.5 -29z" />
    <glyph glyph-name="Euro" unicode="&#x20ac;" horiz-adv-x="1306" 
d="M729 147q97 0 184.5 63.5t139.5 172.5l155 -74q-82 -163 -211.5 -250.5t-279.5 -87.5q-197 0 -324.5 143t-142.5 382h-174l16 135h158q6 87 24 172h-155l18 135h174q64 190 176 319q88 98 195.5 151.5t224.5 53.5q152 0 264.5 -88t151.5 -250l-176 -73
q-24 112 -86.5 173.5t-157.5 61.5q-152 0 -272 -145q-68 -79 -115 -203h469l-18 -135h-490q-19 -78 -26 -172h491l-18 -135h-473q12 -165 86 -257t192 -92z" />
    <glyph glyph-name="uni2116" unicode="&#x2116;" horiz-adv-x="2672" 
d="M2114 584q-176 0 -282 105.5t-106 266.5q0 212 143 359t351 147q178 0 283.5 -106.5t105.5 -268.5q0 -136 -64.5 -251.5t-178.5 -183.5t-252 -68zM1192 319l158 1115h198l-202 -1434h-187l-674 1116l-157 -1116h-197l203 1434h184zM2212 1294q-131 0 -213 -94t-82 -235
q0 -98 53.5 -155.5t151.5 -57.5q130 0 213.5 94t83.5 231q0 100 -54 158.5t-153 58.5zM1642 236l25 172h830l-25 -172h-830z" />
    <glyph glyph-name="trademark" unicode="&#x2122;" horiz-adv-x="1896" 
d="M197 1286l20 148h625l-21 -148h-231l-98 -688h-160l98 688h-233zM1720 1434h166l-119 -836h-157l84 592l-289 -361h-105l-188 359l-84 -590h-158l119 836h160l225 -430z" />
    <glyph glyph-name="uni2126" unicode="&#x2126;" horiz-adv-x="1665" 
d="M1409 393q-92 -129 -235 -213h299l-29 -180h-574l29 186q232 97 354 289q107 167 107 377q0 196 -110.5 311t-301.5 115q-219 0 -387 -158q-92 -87 -141 -213.5t-49 -261.5q0 -315 303 -459l-27 -186h-573l26 180h295q-109 77 -167 197t-58 270q0 169 70.5 331.5
t193.5 276.5q107 99 241.5 153t280.5 54q261 0 432 -169.5t171 -434.5q0 -260 -150 -465z" />
    <glyph glyph-name="estimated" unicode="&#x212e;" horiz-adv-x="1683" 
d="M872 0q-145 0 -275 52t-228 147q-97 94 -152 228.5t-55 289.5t55 291.5t152 230.5q98 92 228.5 143.5t274.5 51.5t274.5 -51.5t227.5 -143.5q98 -93 153.5 -230t55.5 -292v-25h-1196v-309q0 -72 20.5 -119t71.5 -84q171 -127 393 -127q172 0 315.5 75t231.5 210l43 -33
q-97 -145 -252 -225t-338 -80zM387 741h981v299q0 71 -20 120.5t-68 86.5q-177 133 -408 133q-222 0 -393 -127q-51 -37 -71.5 -84t-20.5 -120v-308z" />
    <glyph glyph-name="arrowleft" unicode="&#x2190;" 
d="M1401 807v-180h-995l333 -324l-118 -123l-527 537l527 536l118 -123l-333 -323h995z" />
    <glyph glyph-name="arrowup" unicode="&#x2191;" 
d="M1313 860l-123 -119l-324 334v-995h-180v995l-326 -334l-120 119l536 526z" />
    <glyph glyph-name="arrowright" unicode="&#x2192;" 
d="M889 1253l526 -536l-526 -537l-119 123l334 324h-995v180h995l-334 323z" />
    <glyph glyph-name="arrowdown" unicode="&#x2193;" 
d="M1149 702l123 -120l-537 -525l-536 525l123 120l323 -333v993h180v-993z" />
    <glyph glyph-name="uni2196" unicode="&#x2196;" 
d="M1245 324l-127 -127l-704 704l8 -467l-172 -2l8 752l752 8l-2 -172l-465 8z" />
    <glyph glyph-name="uni2197" unicode="&#x2197;" 
d="M1204 432l-172 2l8 469l-704 -706l-129 127l704 704l-465 -8l-2 172l752 -8z" />
    <glyph glyph-name="uni2198" unicode="&#x2198;" 
d="M1030 999l172 2l-8 -751l-752 -8l2 172l467 -8l-704 704l127 127l704 -705z" />
    <glyph glyph-name="uni2199" unicode="&#x2199;" 
d="M545 406l463 8l2 -172l-752 8l-8 751l172 -2l-8 -469l704 705l129 -125z" />
    <glyph glyph-name="partialdiff" unicode="&#x2202;" horiz-adv-x="1308" 
d="M729 1464q250 0 381 -146t131 -423q0 -232 -67 -448.5t-199 -329.5q-178 -148 -404 -148q-216 0 -346.5 121.5t-130.5 312.5q0 154 73.5 281.5t203.5 200.5t288 73q125 0 224 -49.5t149 -142.5h6q6 70 6 131q0 206 -83 297.5t-256 91.5q-148 0 -304 -76l-41 166
q176 88 369 88zM582 147q169 0 280 107t111 268q0 121 -79.5 190.5t-215.5 69.5q-170 0 -274.5 -104t-104.5 -268q0 -121 75.5 -192t207.5 -71z" />
    <glyph glyph-name="uni2206" unicode="&#x2206;" horiz-adv-x="1402" 
d="M889 1434l405 -1325l-80 -109h-1173l-51 109l782 1325h117zM1077 178l-286 942l-553 -942h839z" />
    <glyph glyph-name="product" unicode="&#x220f;" horiz-adv-x="1415" 
d="M1352 1516l-250 -1782h-203l223 1595h-604l-223 -1595h-201l250 1782h1008z" />
    <glyph glyph-name="summation" unicode="&#x2211;" horiz-adv-x="1103" 
d="M1186 1516l-27 -185h-710l405 -706l-604 -707h711l-25 -184h-938l25 184l606 707l-408 706l27 185h938z" />
    <glyph glyph-name="minus" unicode="&#x2212;" 
d="M281 563l22 172h907l-24 -172h-905z" />
    <glyph glyph-name="radical" unicode="&#x221a;" horiz-adv-x="1257" 
d="M1180 1516h200l-762 -1782h-210l-166 753h-215l24 185h359l133 -652z" />
    <glyph glyph-name="infinity" unicode="&#x221e;" horiz-adv-x="1525" 
d="M1165 1067q146 0 233 -86t87 -227q0 -185 -112.5 -313t-289.5 -128q-116 0 -188 56t-123 155q-76 -100 -161.5 -155.5t-202.5 -55.5q-145 0 -231.5 86.5t-86.5 227.5q0 186 111.5 313t287.5 127q118 0 190.5 -56t123.5 -155q74 99 160 155t202 56zM420 477q35 0 68 12.5
t58 30.5t53.5 50t48 58.5t48.5 69.5q-21 49 -39 81t-44 63t-59 46t-75 15q-96 0 -154.5 -77t-58.5 -179q0 -78 41.5 -124t112.5 -46zM1094 477q96 0 154.5 77t58.5 179q0 78 -41.5 124t-112.5 46q-43 0 -80.5 -16t-72.5 -51.5t-60 -67.5t-61 -86q44 -102 90.5 -153.5
t124.5 -51.5z" />
    <glyph glyph-name="integral" unicode="&#x222b;" horiz-adv-x="794" 
d="M-70 -266l25 178h137q121 0 135 117l172 1220q20 141 95.5 204t222.5 63h176l-27 -179h-135q-61 0 -93.5 -27t-41.5 -89l-172 -1221q-20 -141 -96 -203.5t-224 -62.5h-174z" />
    <glyph glyph-name="approxequal" unicode="&#x2248;" 
d="M971 727q-75 0 -208 44t-208 44q-117 0 -252 -84l25 170q124 82 254 82q72 0 207.5 -44t203.5 -44q64 0 132.5 24t119.5 62l-22 -170q-131 -84 -252 -84zM913 315q-75 0 -208.5 44t-208.5 44q-112 0 -250 -86l22 170q127 84 254 84q72 0 208 -44t204 -44q65 0 133.5 23
t120.5 61l-25 -170q-128 -82 -250 -82z" />
    <glyph glyph-name="notequal" unicode="&#x2260;" 
d="M1217 772h-318l-151 -246h434l-25 -170h-514l-160 -260h-155l159 260h-235l22 170h318l151 246h-434l25 170h514l160 260h155l-159 -260h235z" />
    <glyph glyph-name="lessequal" unicode="&#x2264;" 
d="M1266 1153l-25 -186l-733 -256l661 -256l-24 -179l-858 349l24 180zM203 0l22 170h905l-22 -170h-905z" />
    <glyph glyph-name="greaterequal" unicode="&#x2265;" 
d="M362 1153l859 -348l-25 -180l-954 -349l24 187l733 256l-661 256zM203 0l22 170h905l-22 -170h-905z" />
    <glyph glyph-name="filledbox" unicode="&#x25a0;" horiz-adv-x="1845" 
d="M133 0l201 1434h1433l-200 -1434h-1434z" />
    <glyph glyph-name="triagup" unicode="&#x25b2;" horiz-adv-x="1843" 
d="M131 0l918 1434l516 -1434h-1434z" />
    <glyph glyph-name="triagdn" unicode="&#x25bc;" horiz-adv-x="1843" 
d="M850 0l-516 1434h1433z" />
    <glyph glyph-name="uni25C6" unicode="&#x25c6;" horiz-adv-x="1843" 
d="M846 0l-615 715l816 719l618 -719z" />
    <glyph glyph-name="lozenge" unicode="&#x25ca;" horiz-adv-x="1292" 
d="M854 1434l414 -717l-617 -717h-157l-412 717l614 717h158zM594 193l455 530l-297 518l-455 -530z" />
    <glyph glyph-name="uni25CF" unicode="&#x25cf;" horiz-adv-x="1841" 
d="M848 0q-177 0 -320 81t-223 222t-80 313q0 161 69 312.5t182 262t264 177t309 66.5q177 0 320 -81.5t222.5 -222.5t79.5 -313q0 -161 -69 -312.5t-181.5 -261.5t-263.5 -176.5t-309 -66.5z" />
    <glyph glyph-name="uni2610" unicode="&#x2610;" horiz-adv-x="1843" 
d="M133 0l201 1434h1431l-200 -1434h-1432zM309 145h1121l159 1143h-1120z" />
    <glyph glyph-name="uni2611" unicode="&#x2611;" horiz-adv-x="1843" 
d="M334 1434h1431l-200 -1434h-1432zM1430 145l159 1143h-1120l-160 -1143h1121zM827 532l365 629l135 -104l-453 -785l-305 238l90 156z" />
    <glyph glyph-name="uni2612" unicode="&#x2612;" horiz-adv-x="1843" 
d="M334 1434h1431l-200 -1434h-1432zM1430 145l159 1143h-1120l-160 -1143h1121zM1311 1139l106 -115l-352 -309l262 -307l-133 -113l-258 305l-348 -305l-105 115l351 309l-261 307l132 113l260 -305z" />
    <glyph glyph-name="heart" unicode="&#x2665;" horiz-adv-x="1843" 
d="M862 98q-53 59 -123.5 119t-129.5 101t-119.5 92t-102 98t-68 112.5t-26.5 141.5q0 197 123 338t301 141q119 0 196 -73t68 -205h4q29 132 126 205t216 73q128 0 219.5 -87t91.5 -245q0 -104 -36.5 -192.5t-93 -149.5t-140 -123.5t-162.5 -109t-177 -111.5t-167 -125z
" />
    <glyph glyph-name="uni2B51" unicode="&#x2b51;" horiz-adv-x="1843" 
d="M373 -6l260 557l-420 340h582l256 553l100 -555h584l-521 -342l103 -553l-422 344z" />
    <glyph glyph-name="uni00A40301" horiz-adv-x="1202" 
d="M911 1606l275 307h239l-309 -307h-205zM434 -29q-141 0 -253.5 53.5t-180.5 151.5l141 129q104 -145 295 -145q155 0 256 96t127 276l127 902h201l-131 -926q-35 -252 -189.5 -394.5t-392.5 -142.5z" />
    <glyph glyph-name="i.loclTRK" horiz-adv-x="548" 
d="M377 1243q-52 0 -82.5 30t-30.5 77q0 63 42.5 107t105.5 44q52 0 83 -31t31 -79q0 -59 -43.5 -103.5t-105.5 -44.5zM104 0l148 1038h192l-147 -1038h-193z" />
    <glyph glyph-name="uni006A0301" horiz-adv-x="548" 
d="M221 1210l228 308h229l-266 -308h-191zM-84 -440q-56 0 -121 12l27 172q46 -12 92 -12q83 0 124 39.5t52 119.5l162 1147h192l-163 -1173q-46 -305 -365 -305z" />
    <glyph glyph-name="a.ss01" horiz-adv-x="1167" 
d="M653 1067q194 0 294.5 -103.5t74.5 -285.5l-96 -678h-178l24 172q-50 -88 -151.5 -140t-229.5 -52q-148 0 -241 74.5t-93 199.5q0 75 33.5 145.5t93.5 116.5q119 92 342 92h297l11 68q15 112 -32.5 164.5t-162.5 52.5q-188 0 -330 -139l-108 120q81 93 199 143t253 50z
M438 135q136 0 240 80.5t119 202.5l6 47h-281q-143 0 -215 -66q-51 -48 -51 -129q0 -135 182 -135z" />
    <glyph glyph-name="aacute.ss01" horiz-adv-x="1167" 
d="M1040 1518l-309 -308h-205l275 308h239zM653 1067q194 0 294.5 -103.5t74.5 -285.5l-96 -678h-178l24 172q-50 -88 -151.5 -140t-229.5 -52q-148 0 -241 74.5t-93 199.5q0 75 33.5 145.5t93.5 116.5q119 92 342 92h297l11 68q15 112 -32.5 164.5t-162.5 52.5
q-188 0 -330 -139l-108 120q81 93 199 143t253 50zM438 135q136 0 240 80.5t119 202.5l6 47h-281q-143 0 -215 -66q-51 -48 -51 -129q0 -135 182 -135z" />
    <glyph glyph-name="abreve.ss01" horiz-adv-x="1167" 
d="M866 1485h166l-2 -12q-18 -126 -108 -200.5t-234 -74.5q-132 0 -209.5 62.5t-77.5 169.5q0 27 7 55h163q-2 -14 -2 -37q0 -56 31 -86.5t90 -30.5q71 0 118.5 41t57.5 113zM653 1067q194 0 294.5 -103.5t74.5 -285.5l-96 -678h-178l24 172q-50 -88 -151.5 -140t-229.5 -52
q-148 0 -241 74.5t-93 199.5q0 75 33.5 145.5t93.5 116.5q119 92 342 92h297l11 68q15 112 -32.5 164.5t-162.5 52.5q-188 0 -330 -139l-108 120q81 93 199 143t253 50zM438 135q136 0 240 80.5t119 202.5l6 47h-281q-143 0 -215 -66q-51 -48 -51 -129q0 -135 182 -135z" />
    <glyph glyph-name="uni01CE.ss01" horiz-adv-x="1167" 
d="M772 1210h-180l-242 308h189l149 -193l205 193h205zM653 1067q194 0 294.5 -103.5t74.5 -285.5l-96 -678h-178l24 172q-50 -88 -151.5 -140t-229.5 -52q-148 0 -241 74.5t-93 199.5q0 75 33.5 145.5t93.5 116.5q119 92 342 92h297l11 68q15 112 -32.5 164.5t-162.5 52.5
q-188 0 -330 -139l-108 120q81 93 199 143t253 50zM438 135q136 0 240 80.5t119 202.5l6 47h-281q-143 0 -215 -66q-51 -48 -51 -129q0 -135 182 -135z" />
    <glyph glyph-name="acircumflex.ss01" horiz-adv-x="1167" 
d="M717 1405l-205 -195h-205l326 308h180l242 -308h-187zM653 1067q194 0 294.5 -103.5t74.5 -285.5l-96 -678h-178l24 172q-50 -88 -151.5 -140t-229.5 -52q-148 0 -241 74.5t-93 199.5q0 75 33.5 145.5t93.5 116.5q119 92 342 92h297l11 68q15 112 -32.5 164.5
t-162.5 52.5q-188 0 -330 -139l-108 120q81 93 199 143t253 50zM438 135q136 0 240 80.5t119 202.5l6 47h-281q-143 0 -215 -66q-51 -48 -51 -129q0 -135 182 -135z" />
    <glyph glyph-name="adieresis.ss01" horiz-adv-x="1167" 
d="M463 1243q-52 0 -82.5 30t-30.5 77q0 63 42.5 107t105.5 44q52 0 83 -31t31 -79q0 -59 -43.5 -103.5t-105.5 -44.5zM909 1243q-51 0 -81.5 30t-30.5 77q0 63 42 107t105 44q52 0 83.5 -31t31.5 -79q0 -59 -44 -103.5t-106 -44.5zM653 1067q194 0 294.5 -103.5
t74.5 -285.5l-96 -678h-178l24 172q-50 -88 -151.5 -140t-229.5 -52q-148 0 -241 74.5t-93 199.5q0 75 33.5 145.5t93.5 116.5q119 92 342 92h297l11 68q15 112 -32.5 164.5t-162.5 52.5q-188 0 -330 -139l-108 120q81 93 199 143t253 50zM438 135q136 0 240 80.5t119 202.5
l6 47h-281q-143 0 -215 -66q-51 -48 -51 -129q0 -135 182 -135z" />
    <glyph glyph-name="agrave.ss01" horiz-adv-x="1167" 
d="M838 1210h-195l-227 308h231zM653 1067q194 0 294.5 -103.5t74.5 -285.5l-96 -678h-178l24 172q-50 -88 -151.5 -140t-229.5 -52q-148 0 -241 74.5t-93 199.5q0 75 33.5 145.5t93.5 116.5q119 92 342 92h297l11 68q15 112 -32.5 164.5t-162.5 52.5q-188 0 -330 -139
l-108 120q81 93 199 143t253 50zM438 135q136 0 240 80.5t119 202.5l6 47h-281q-143 0 -215 -66q-51 -48 -51 -129q0 -135 182 -135z" />
    <glyph glyph-name="amacron.ss01" horiz-adv-x="1167" 
d="M1022 1407l-21 -154h-628l20 154h629zM653 1067q194 0 294.5 -103.5t74.5 -285.5l-96 -678h-178l24 172q-50 -88 -151.5 -140t-229.5 -52q-148 0 -241 74.5t-93 199.5q0 75 33.5 145.5t93.5 116.5q119 92 342 92h297l11 68q15 112 -32.5 164.5t-162.5 52.5
q-188 0 -330 -139l-108 120q81 93 199 143t253 50zM438 135q136 0 240 80.5t119 202.5l6 47h-281q-143 0 -215 -66q-51 -48 -51 -129q0 -135 182 -135z" />
    <glyph glyph-name="aogonek.ss01" horiz-adv-x="1167" 
d="M653 1067q194 0 294.5 -103.5t74.5 -285.5l-96 -676l2 -2q-17 -13 -57.5 -42t-62 -46t-48 -42t-39 -47t-12.5 -44q0 -66 108 -66h70l-21 -151h-94q-119 0 -184.5 46t-65.5 122q0 154 226 272l24 170q-50 -88 -151.5 -140t-229.5 -52q-148 0 -241 74.5t-93 199.5
q0 75 33.5 145.5t93.5 116.5q119 92 342 92h297l11 68q15 112 -32.5 164.5t-162.5 52.5q-188 0 -330 -139l-108 120q81 93 199 143t253 50zM438 135q136 0 240 80.5t119 202.5l6 47h-281q-143 0 -215 -66q-51 -48 -51 -129q0 -135 182 -135z" />
    <glyph glyph-name="aring.ss01" horiz-adv-x="1167" 
d="M684 1184q-101 0 -167 61t-66 152q0 113 86 194.5t204 81.5q99 0 164.5 -60.5t65.5 -150.5q0 -114 -85.5 -196t-201.5 -82zM735 1546q-60 0 -102.5 -40.5t-42.5 -100.5q0 -43 26 -68.5t74 -25.5q60 0 100.5 40.5t40.5 100.5q0 44 -25 69t-71 25zM653 1067
q194 0 294.5 -103.5t74.5 -285.5l-96 -678h-178l24 172q-50 -88 -151.5 -140t-229.5 -52q-148 0 -241 74.5t-93 199.5q0 75 33.5 145.5t93.5 116.5q119 92 342 92h297l11 68q15 112 -32.5 164.5t-162.5 52.5q-188 0 -330 -139l-108 120q81 93 199 143t253 50zM438 135
q136 0 240 80.5t119 202.5l6 47h-281q-143 0 -215 -66q-51 -48 -51 -129q0 -135 182 -135z" />
    <glyph glyph-name="atilde.ss01" horiz-adv-x="1167" 
d="M567 1360q-32 0 -54 -32t-28 -93h-137q10 128 70 198t155 70q40 0 77.5 -19.5t88.5 -64.5q37 -33 56.5 -43t42.5 -10q32 0 54 31.5t28 93.5h137q-10 -128 -70.5 -198t-155.5 -70q-38 0 -75 18t-90 66q-35 31 -56 42t-43 11zM653 1067q194 0 294.5 -103.5t74.5 -285.5
l-96 -678h-178l24 172q-50 -88 -151.5 -140t-229.5 -52q-148 0 -241 74.5t-93 199.5q0 75 33.5 145.5t93.5 116.5q119 92 342 92h297l11 68q15 112 -32.5 164.5t-162.5 52.5q-188 0 -330 -139l-108 120q81 93 199 143t253 50zM438 135q136 0 240 80.5t119 202.5l6 47h-281
q-143 0 -215 -66q-51 -48 -51 -129q0 -135 182 -135z" />
    <glyph glyph-name="j.ss02" horiz-adv-x="548" 
d="M377 1243q-52 0 -83.5 32t-29.5 83q2 58 43 100.5t103 42.5q54 0 86 -33t30 -84q-2 -57 -44 -99t-105 -42zM47 -410l205 1448h192l-204 -1448h-193z" />
    <glyph glyph-name="uni0237.ss02" horiz-adv-x="548" 
d="M47 -410l205 1448h192l-204 -1448h-193z" />
    <glyph glyph-name="uni006A0301.ss02" horiz-adv-x="548" 
d="M221 1210l228 308h229l-266 -308h-191zM47 -410l205 1448h192l-204 -1448h-193z" />
    <glyph glyph-name="jcircumflex.ss02" horiz-adv-x="548" 
d="M504 1518l203 -308h-181l-120 195l-177 -195h-192l289 308h178zM47 -410l205 1448h192l-204 -1448h-193z" />
    <glyph glyph-name="t.ss03" horiz-adv-x="798" 
d="M229 0l123 872h-264l27 166h262l43 308h192l-43 -308h262l-24 -166h-262l-123 -872h-193z" />
    <glyph glyph-name="tbar.ss03" horiz-adv-x="798" 
d="M807 872h-262l-37 -266h225l-20 -143h-226l-65 -463h-193l66 463h-223l18 143h225l37 266h-264l27 166h262l43 308h192l-43 -308h262z" />
    <glyph glyph-name="tcaron.ss03" horiz-adv-x="874" 
d="M741 1184l56 407h196l-104 -407h-148zM229 0l123 872h-264l27 166h262l43 308h192l-43 -308h262l-24 -166h-262l-123 -872h-193z" />
    <glyph glyph-name="uni0163.ss03" horiz-adv-x="798" 
d="M229 0l123 872h-264l27 166h262l43 308h192l-43 -308h262l-24 -166h-262l-123 -872h-193zM82 -518l111 336h198l-162 -336h-147z" />
    <glyph glyph-name="uni021B.ss03" horiz-adv-x="798" 
d="M229 0l123 872h-264l27 166h262l43 308h192l-43 -308h262l-24 -166h-262l-123 -872h-193zM82 -518l111 336h198l-162 -336h-147z" />
    <glyph glyph-name="y.ss04" horiz-adv-x="1253" 
d="M958 1038h193l-135 -950q-35 -255 -179.5 -390.5t-387.5 -135.5q-132 0 -244 40t-174 113l108 138q115 -115 303 -115q159 0 258 88.5t123 261.5l17 113q-57 -95 -156 -147t-221 -52q-151 0 -237.5 81.5t-86.5 233.5q0 37 6 84l91 637h192l-84 -589q-8 -66 -8 -87
q0 -96 43.5 -139t138.5 -43q136 0 238.5 76.5t120.5 200.5z" />
    <glyph glyph-name="yacute.ss04" horiz-adv-x="1253" 
d="M1075 1518l-309 -308h-205l275 308h239zM958 1038h193l-135 -950q-35 -255 -179.5 -390.5t-387.5 -135.5q-132 0 -244 40t-174 113l108 138q115 -115 303 -115q159 0 258 88.5t123 261.5l17 113q-57 -95 -156 -147t-221 -52q-151 0 -237.5 81.5t-86.5 233.5q0 37 6 84
l91 637h192l-84 -589q-8 -66 -8 -87q0 -96 43.5 -139t138.5 -43q136 0 238.5 76.5t120.5 200.5z" />
    <glyph glyph-name="ycircumflex.ss04" horiz-adv-x="1253" 
d="M752 1405l-205 -195h-205l326 308h180l242 -308h-187zM958 1038h193l-135 -950q-35 -255 -179.5 -390.5t-387.5 -135.5q-132 0 -244 40t-174 113l108 138q115 -115 303 -115q159 0 258 88.5t123 261.5l17 113q-57 -95 -156 -147t-221 -52q-151 0 -237.5 81.5t-86.5 233.5
q0 37 6 84l91 637h192l-84 -589q-8 -66 -8 -87q0 -96 43.5 -139t138.5 -43q136 0 238.5 76.5t120.5 200.5z" />
    <glyph glyph-name="ydieresis.ss04" horiz-adv-x="1253" 
d="M498 1243q-52 0 -82.5 30t-30.5 77q0 63 42 107t105 44q52 0 83.5 -31t31.5 -79q0 -59 -43.5 -103.5t-105.5 -44.5zM944 1243q-52 0 -82.5 30t-30.5 77q0 63 42.5 107t105.5 44q52 0 83.5 -31t31.5 -79q0 -59 -44 -103.5t-106 -44.5zM958 1038h193l-135 -950
q-35 -255 -179.5 -390.5t-387.5 -135.5q-132 0 -244 40t-174 113l108 138q115 -115 303 -115q159 0 258 88.5t123 261.5l17 113q-57 -95 -156 -147t-221 -52q-151 0 -237.5 81.5t-86.5 233.5q0 37 6 84l91 637h192l-84 -589q-8 -66 -8 -87q0 -96 43.5 -139t138.5 -43
q136 0 238.5 76.5t120.5 200.5z" />
    <glyph glyph-name="ygrave.ss04" horiz-adv-x="1253" 
d="M872 1210h-194l-227 308h231zM958 1038h193l-135 -950q-35 -255 -179.5 -390.5t-387.5 -135.5q-132 0 -244 40t-174 113l108 138q115 -115 303 -115q159 0 258 88.5t123 261.5l17 113q-57 -95 -156 -147t-221 -52q-151 0 -237.5 81.5t-86.5 233.5q0 37 6 84l91 637h192
l-84 -589q-8 -66 -8 -87q0 -96 43.5 -139t138.5 -43q136 0 238.5 76.5t120.5 200.5z" />
    <glyph glyph-name="zero.zero" horiz-adv-x="1437" 
d="M846 1462q232 0 362.5 -149.5t130.5 -421.5q0 -229 -79 -443.5t-226 -336.5q-161 -140 -387 -140q-232 0 -362.5 149t-130.5 419q0 194 59.5 390.5t169.5 321.5q183 211 463 211zM516 1118q-78 -103 -118 -266t-40 -320q0 -158 54 -249l573 964q-62 33 -151 33
q-201 0 -318 -162zM932 262q101 98 152 278t51 361q0 154 -52 250l-573 -965q57 -32 149 -32q162 0 273 108z" />
    <glyph glyph-name="zero.lf" horiz-adv-x="1437" 
d="M647 -29q-232 0 -362.5 149t-130.5 419q0 194 59.5 390.5t169.5 321.5q183 211 463 211q232 0 362.5 -149.5t130.5 -421.5q0 -229 -79 -443.5t-226 -336.5q-161 -140 -387 -140zM659 154q162 0 273 108q101 98 152 278t51 361q0 379 -301 379q-201 0 -318 -162
q-78 -103 -118 -266t-40 -320q0 -378 301 -378z" />
    <glyph glyph-name="one.lf" horiz-adv-x="882" 
d="M633 1434h164l-203 -1434h-197l174 1223l-401 -191l27 193z" />
    <glyph glyph-name="two.lf" horiz-adv-x="1196" 
d="M811 580l-483 -398h721l-27 -182h-1008l25 164l590 487q77 63 129 111.5t98.5 105t69 112.5t22.5 114q0 92 -57 140t-162 48q-236 0 -420 -258l-143 102q101 164 247.5 250t321.5 86q188 0 301 -98t113 -258q0 -143 -86.5 -266t-251.5 -260z" />
    <glyph glyph-name="three.lf" horiz-adv-x="1165" 
d="M827 725q108 -35 165 -108t57 -173q0 -103 -49 -200t-132 -160q-148 -113 -383 -113q-151 0 -273 54t-198 157l131 125q137 -155 349 -155q166 0 264 88q90 78 90 202q0 199 -332 199h-123l25 170h162q179 0 266 90q78 78 78 189q0 91 -61 141.5t-181 50.5
q-209 0 -385 -182l-123 123q211 239 522 239q194 0 311 -94t117 -248q0 -87 -35.5 -169.5t-97.5 -137.5q-71 -61 -164 -88z" />
    <glyph glyph-name="four.lf" horiz-adv-x="1271" 
d="M1229 479l-25 -168h-211l-43 -311h-186l43 311h-758l23 164l833 959h248l-135 -955h211zM283 479h548l105 750z" />
    <glyph glyph-name="five.lf" horiz-adv-x="1202" 
d="M1133 1253h-676l-62 -434q126 72 285 72q192 0 310 -102.5t118 -278.5q0 -122 -53.5 -234.5t-149.5 -185.5q-157 -119 -393 -119q-303 0 -467 209l127 127q137 -155 346 -155q169 0 277 88q54 47 83 114.5t29 141.5q0 105 -66.5 164t-191.5 59q-166 0 -309 -96l-145 90
l100 721h862z" />
    <glyph glyph-name="six.lf" horiz-adv-x="1247" 
d="M735 969q187 0 311.5 -119.5t124.5 -308.5q0 -126 -56 -242.5t-154 -194.5q-168 -133 -398 -133q-211 0 -341 119t-130 320q0 177 105 362q71 128 192 260l363 402h239l-487 -525q105 60 231 60zM850 246q57 53 88 129.5t31 159.5q0 124 -75 193t-212 69
q-197 0 -307 -135q-82 -107 -82 -252q0 -123 75.5 -191.5t211.5 -68.5q163 0 270 96z" />
    <glyph glyph-name="seven.lf" horiz-adv-x="1075" 
d="M178 1434h977l-25 -170l-786 -1264h-215l786 1253h-761z" />
    <glyph glyph-name="eight.lf" horiz-adv-x="1288" 
d="M934 733q112 -41 169.5 -118.5t57.5 -182.5q0 -103 -52 -196.5t-142 -155.5q-154 -109 -394 -109q-227 0 -355 101t-128 260q0 96 42 181t118 144q69 51 166 82q-91 40 -140 111t-49 164q0 91 39.5 175.5t108.5 143.5q145 129 393 129q210 0 329.5 -96.5t119.5 -249.5
q0 -90 -40.5 -171.5t-111.5 -139.5q-57 -45 -131 -72zM502 1202q-78 -72 -78 -190q0 -92 64 -143.5t192 -51.5q166 0 258 86q78 72 78 191q0 92 -63.5 143t-192.5 51q-166 0 -258 -86zM858 231q100 81 100 207q0 96 -72 152.5t-216 56.5q-179 0 -291 -94q-84 -78 -84 -195
q0 -98 70.5 -153t216.5 -55q175 0 276 81z" />
    <glyph glyph-name="nine.lf" horiz-adv-x="1247" 
d="M739 1462q209 0 340 -116t131 -314q0 -174 -102 -364q-72 -132 -195 -267l-360 -401h-242l494 528q-105 -63 -236 -63q-187 0 -311.5 118.5t-124.5 307.5q0 124 56 242t151 196q164 133 399 133zM907 752q105 108 105 272q0 122 -75 191t-212 69q-171 0 -276 -102
q-115 -106 -115 -285q0 -124 72.5 -192t209.5 -68q182 0 291 115z" />
    <glyph glyph-name="zero.tf" 
d="M657 -29q-224 0 -343 143t-119 408q0 210 60.5 415.5t174.5 334.5q161 190 424 190q223 0 343 -143.5t120 -407.5q0 -229 -72.5 -449.5t-208.5 -346.5q-156 -144 -379 -144zM664 154q157 0 262 108q94 99 142 289.5t48 374.5q0 181 -66 267.5t-206 86.5q-182 0 -293 -150
q-76 -105 -116 -281.5t-40 -342.5q0 -180 65.5 -266t203.5 -86z" />
    <glyph glyph-name="one.tf" 
d="M844 180h364l-28 -180h-957l27 180h397l150 1043l-402 -191l27 193l438 209h162z" />
    <glyph glyph-name="two.tf" 
d="M942 580l-481 -398h719l-27 -182h-1006l25 164l590 487q77 63 128 111.5t97.5 105t69 112.5t22.5 114q0 91 -56.5 139.5t-160.5 48.5q-235 0 -422 -258l-141 102q101 164 247.5 250t321.5 86q188 0 301 -98t113 -258q0 -74 -24.5 -144.5t-73.5 -136t-105.5 -122.5
t-136.5 -123z" />
    <glyph glyph-name="three.tf" 
d="M977 727q108 -37 164.5 -110t56.5 -173q0 -103 -48.5 -200t-131.5 -160q-148 -113 -385 -113q-150 0 -271.5 54t-197.5 157l131 125q134 -155 348 -155q166 0 264 88q90 78 90 202q0 199 -331 199h-125l24 170h162q178 0 268 90q76 76 76 189q0 91 -60.5 141.5
t-179.5 50.5q-209 0 -385 -182l-122 123q211 239 522 239q193 0 310.5 -94t117.5 -248q0 -87 -35.5 -169.5t-97.5 -137.5q-68 -62 -164 -86z" />
    <glyph glyph-name="four.tf" 
d="M1329 479l-24 -168h-211l-43 -311h-187l43 311h-757l22 164l834 959h247l-135 -955h211zM383 479h549l106 752z" />
    <glyph glyph-name="five.tf" 
d="M1270 1253h-674l-64 -434q126 72 285 72q192 0 311 -102.5t119 -278.5q0 -121 -54.5 -234t-150.5 -186q-157 -119 -393 -119q-303 0 -467 209l127 127q140 -155 346 -155q169 0 277 88q54 46 83 113.5t29 142.5q0 105 -66.5 164t-191.5 59q-166 0 -309 -96l-145 90
l100 721h864z" />
    <glyph glyph-name="six.tf" 
d="M842 969q187 0 310.5 -119t123.5 -309q0 -126 -55.5 -242.5t-153.5 -194.5q-168 -133 -399 -133q-209 0 -339 119.5t-130 319.5q0 179 104 362q70 125 193 260l360 402h242l-490 -527q109 62 234 62zM956 246q57 54 88 130.5t31 158.5q0 124 -75 193t-212 69
q-196 0 -309 -135q-80 -105 -80 -252q0 -123 74.5 -191.5t210.5 -68.5q165 0 272 96z" />
    <glyph glyph-name="seven.tf" 
d="M373 1434h1003l-24 -170l-785 -1264h-217l787 1253h-791z" />
    <glyph glyph-name="eight.tf" 
d="M1024 733q112 -41 169.5 -118.5t57.5 -182.5q0 -103 -52 -196.5t-142 -155.5q-154 -109 -391 -109q-228 0 -357 101t-129 260q0 96 42 181t118 144q69 51 166 82q-91 40 -140 111t-49 164q0 91 39.5 175.5t108.5 143.5q145 129 393 129q210 0 329.5 -96.5t119.5 -249.5
q0 -90 -40.5 -171.5t-111.5 -139.5q-57 -45 -131 -72zM592 1202q-78 -72 -78 -190q0 -92 64 -143.5t192 -51.5q169 0 258 86q78 72 78 191q0 92 -63.5 143t-192.5 51q-166 0 -258 -86zM948 231q101 78 101 207q0 96 -72.5 152.5t-216.5 56.5q-181 0 -289 -94
q-84 -78 -84 -195q0 -98 70 -153t215 -55q175 0 276 81z" />
    <glyph glyph-name="nine.tf" 
d="M846 1462q210 0 341.5 -116t131.5 -314q0 -174 -102 -364q-68 -124 -195 -267l-363 -401h-241l493 528q-108 -63 -233 -63q-188 0 -313 118.5t-125 307.5q0 124 56.5 242t152.5 196q164 133 397 133zM1016 752q104 107 104 272q0 122 -75 191t-211 69q-172 0 -277 -102
q-115 -106 -115 -285q0 -124 73 -192t210 -68q179 0 291 115z" />
    <glyph glyph-name="zero.tf.zero" 
d="M854 1462q223 0 343 -143.5t120 -407.5q0 -229 -72.5 -449.5t-208.5 -346.5q-156 -144 -379 -144q-224 0 -343 143t-119 408q0 210 60.5 415.5t174.5 334.5q161 190 424 190zM551 1130q-76 -105 -116 -281.5t-40 -342.5q0 -133 33 -209l563 948q-59 35 -147 35
q-182 0 -293 -150zM926 262q94 99 142 289.5t48 374.5q0 132 -33 211l-563 -951q51 -32 144 -32q157 0 262 108z" />
    <glyph glyph-name="zero.subs" horiz-adv-x="782" 
d="M297 -152q-129 0 -200.5 79t-71.5 227q0 103 31.5 207.5t90.5 173.5q101 116 263 116q129 0 201.5 -79.5t72.5 -227.5q0 -114 -38.5 -226t-110.5 -179q-97 -91 -238 -91zM307 -6q75 0 123 51q46 46 68 133.5t22 173.5q0 80 -29 116t-90 36q-90 0 -143 -70
q-34 -49 -52 -131.5t-18 -155.5q0 -81 29 -117t90 -36z" />
    <glyph glyph-name="one.subs" horiz-adv-x="497" 
d="M276 637h136l-109 -774h-158l86 606l-198 -92l22 153z" />
    <glyph glyph-name="two.subs" horiz-adv-x="675" 
d="M442 188l-215 -178h326l-21 -147h-565l19 119l313 262q68 53 105.5 98t37.5 88q0 33 -24 53.5t-66 20.5q-108 0 -192 -129l-121 76q48 93 134.5 146.5t191.5 53.5q103 0 172 -57t69 -143q0 -126 -164 -263z" />
    <glyph glyph-name="three.subs" horiz-adv-x="659" 
d="M428 254q117 -38 117 -160q0 -109 -86 -177.5t-219 -68.5q-182 0 -277 117l98 109q69 -80 181 -80q63 0 102 27.5t39 80.5q0 80 -127 80h-82l21 144h79q70 0 109 26.5t39 73.5q0 78 -100 78q-105 0 -191 -86l-100 100q56 63 134 98t167 35q114 0 185 -54t71 -146
q0 -73 -44 -124.5t-116 -72.5z" />
    <glyph glyph-name="four.subs" horiz-adv-x="710" 
d="M631 150l-19 -134h-94l-22 -153h-150l21 153h-392l19 134l428 487h182l-67 -487h94zM160 150h225l43 307z" />
    <glyph glyph-name="five.subs" horiz-adv-x="684" 
d="M584 494h-340l-23 -166q52 28 127 28q106 0 171 -57t65 -154q0 -137 -91.5 -217t-242.5 -80q-172 0 -275 115l97 111q65 -82 176 -82q77 0 124.5 37.5t47.5 103.5q0 44 -28 69t-81 25q-81 0 -145 -47l-107 58l56 399h489z" />
    <glyph glyph-name="six.subs" horiz-adv-x="698" 
d="M354 387q108 0 178 -62t70 -165q0 -135 -96.5 -223.5t-237.5 -88.5q-121 0 -197.5 66t-76.5 174q0 161 160 336l190 213h188l-237 -256q27 6 59 6zM274 -10q74 0 121 45t47 115q0 51 -31 79.5t-89 28.5q-74 0 -121 -43.5t-47 -116.5q0 -51 31 -79.5t89 -28.5z" />
    <glyph glyph-name="seven.subs" horiz-adv-x="616" 
d="M49 637h551l-18 -133l-398 -641h-180l395 624h-370z" />
    <glyph glyph-name="eight.subs" horiz-adv-x="718" 
d="M481 258q123 -48 123 -162q0 -116 -93 -182t-232 -66q-134 0 -210.5 55t-76.5 144q0 83 47 137t129 78q-102 46 -102 146q0 112 86.5 177.5t216.5 65.5q124 0 194 -53.5t70 -136.5q0 -73 -40.5 -125.5t-111.5 -77.5zM369 522q-67 0 -108.5 -32.5t-41.5 -90.5
q0 -37 29 -58.5t84 -21.5q68 0 105.5 32t37.5 87q0 84 -106 84zM281 -16q73 0 117 29.5t44 88.5q0 43 -32 68t-95 25q-73 0 -115 -33.5t-42 -93.5q0 -84 123 -84z" />
    <glyph glyph-name="nine.subs" horiz-adv-x="696" 
d="M358 651q121 0 197 -67.5t76 -177.5q0 -153 -160 -332l-192 -211h-187l238 254q-27 -6 -60 -6q-107 0 -177 64t-70 167q0 134 96 221.5t239 87.5zM307 240q75 0 119.5 45.5t44.5 115.5q0 51 -32.5 80t-90.5 29q-75 0 -121.5 -46t-46.5 -114q0 -52 33.5 -81t93.5 -29z" />
    <glyph glyph-name="zero.dnom" horiz-adv-x="782" 
d="M313 -29q-129 0 -200.5 78.5t-71.5 226.5q0 102 32 207t91 174q102 117 262 117q129 0 201.5 -79.5t72.5 -227.5q0 -114 -38.5 -226.5t-110.5 -179.5q-96 -90 -238 -90zM324 117q74 0 122 51q47 47 69 134.5t22 172.5q0 80 -29 116t-90 36q-91 0 -144 -70
q-34 -48 -51.5 -130.5t-17.5 -156.5q0 -81 29 -117t90 -36z" />
    <glyph glyph-name="one.dnom" horiz-adv-x="497" 
d="M293 760h135l-109 -774h-157l86 606l-199 -92l23 153z" />
    <glyph glyph-name="two.dnom" horiz-adv-x="675" 
d="M459 311l-215 -178h325l-20 -147h-565l18 118l313 263q68 54 106 98.5t38 87.5q0 33 -24 53.5t-66 20.5q-109 0 -193 -129l-121 75q48 93 134.5 147t191.5 54q103 0 172.5 -57.5t69.5 -143.5q0 -125 -164 -262z" />
    <glyph glyph-name="three.dnom" horiz-adv-x="659" 
d="M444 377q117 -37 117 -160q0 -109 -86 -177.5t-219 -68.5q-182 0 -276 117l98 109q69 -80 180 -80q63 0 102 27.5t39 80.5q0 80 -127 80h-82l21 144h80q70 0 108.5 26.5t38.5 73.5q0 78 -100 78q-105 0 -191 -86l-100 100q56 63 134 98t167 35q114 0 185 -54.5t71 -146.5
q0 -72 -44 -123.5t-116 -72.5z" />
    <glyph glyph-name="four.dnom" horiz-adv-x="710" 
d="M647 272l-18 -133h-94l-23 -153h-150l21 153h-391l18 133l428 488h183l-68 -488h94zM176 272h225l43 308z" />
    <glyph glyph-name="five.dnom" horiz-adv-x="684" 
d="M600 616h-340l-22 -165q52 28 127 28q106 0 170.5 -57t64.5 -154q0 -137 -91.5 -217t-242.5 -80q-171 0 -274 115l96 111q65 -82 176 -82q77 0 124.5 37.5t47.5 103.5q0 44 -27.5 69t-80.5 25q-82 0 -146 -47l-106 57l55 400h490z" />
    <glyph glyph-name="six.dnom" horiz-adv-x="698" 
d="M371 510q108 0 177.5 -62t69.5 -165q0 -135 -96 -223.5t-237 -88.5q-121 0 -198 66t-77 174q0 161 160 336l190 213h189l-238 -256q27 6 60 6zM291 113q74 0 121 44.5t47 114.5q0 51 -31.5 80t-89.5 29q-74 0 -121 -43.5t-47 -116.5q0 -51 31.5 -79.5t89.5 -28.5z" />
    <glyph glyph-name="seven.dnom" horiz-adv-x="616" 
d="M66 760h550l-18 -133l-397 -641h-181l396 624h-371z" />
    <glyph glyph-name="eight.dnom" horiz-adv-x="718" 
d="M498 381q123 -48 123 -162q0 -116 -93.5 -182t-232.5 -66q-134 0 -210.5 55t-76.5 144q0 83 47 137t129 78q-102 47 -102 145q0 112 86.5 178t216.5 66q124 0 194 -53.5t70 -136.5q0 -73 -40 -125.5t-111 -77.5zM385 645q-67 0 -108 -32.5t-41 -90.5q0 -37 28.5 -58.5
t83.5 -21.5q68 0 106 32t38 87q0 84 -107 84zM297 106q73 0 117.5 30t44.5 89q0 43 -32 67.5t-95 24.5q-73 0 -115.5 -34t-42.5 -93q0 -84 123 -84z" />
    <glyph glyph-name="nine.dnom" horiz-adv-x="696" 
d="M375 774q120 0 196 -68t76 -178q0 -152 -160 -331l-192 -211h-186l237 254q-32 -7 -59 -7q-107 0 -177.5 64.5t-70.5 167.5q0 134 96 221.5t240 87.5zM324 362q75 0 119 45.5t44 116.5q0 51 -32 80t-90 29q-75 0 -121.5 -46t-46.5 -114q0 -52 33.5 -81.5t93.5 -29.5z" />
    <glyph glyph-name="zero.numr" horiz-adv-x="782" 
d="M410 659q-129 0 -201 79t-72 227q0 102 32 207t91 174q101 116 262 116q129 0 202 -79.5t73 -227.5q0 -113 -39 -225.5t-111 -179.5q-97 -91 -237 -91zM420 805q75 0 123 51q46 46 68 133.5t22 173.5q0 80 -29 116t-90 36q-90 0 -143 -70q-34 -49 -52 -131.5t-18 -155.5
q0 -81 29 -117t90 -36z" />
    <glyph glyph-name="one.numr" horiz-adv-x="497" 
d="M389 1448h135l-108 -774h-158l86 606l-199 -92l23 153z" />
    <glyph glyph-name="two.numr" horiz-adv-x="675" 
d="M555 999l-215 -178h326l-21 -147h-565l18 119l314 262q68 53 105.5 98t37.5 88q0 33 -24 53.5t-66 20.5q-109 0 -193 -129l-120 76q48 93 134 146.5t191 53.5q103 0 172.5 -57t69.5 -143q0 -126 -164 -263z" />
    <glyph glyph-name="three.numr" horiz-adv-x="659" 
d="M541 1065q116 -37 116 -160q0 -109 -86 -177.5t-219 -68.5q-182 0 -276 117l98 109q69 -80 180 -80q63 0 102.5 27.5t39.5 80.5q0 80 -127 80h-82l20 144h80q70 0 109 26.5t39 73.5q0 78 -101 78q-104 0 -190 -86l-101 100q56 63 134 98t167 35q114 0 185 -54t71 -146
q0 -73 -43.5 -124.5t-115.5 -72.5z" />
    <glyph glyph-name="four.numr" horiz-adv-x="710" 
d="M743 961l-18 -134h-94l-23 -153h-149l20 153h-391l18 134l429 487h182l-68 -487h94zM272 961h226l43 307z" />
    <glyph glyph-name="five.numr" horiz-adv-x="684" 
d="M696 1305h-340l-22 -166q52 28 127 28q106 0 170.5 -57t64.5 -154q0 -137 -91.5 -217t-242.5 -80q-171 0 -274 115l96 111q65 -82 176 -82q77 0 124.5 37.5t47.5 103.5q0 44 -27.5 69t-80.5 25q-81 0 -145 -47l-107 58l55 399h490z" />
    <glyph glyph-name="six.numr" horiz-adv-x="698" 
d="M467 1198q108 0 178 -62t70 -165q0 -135 -96.5 -223.5t-237.5 -88.5q-121 0 -198 66t-77 174q0 161 160 336l191 213h188l-237 -256q27 6 59 6zM387 801q74 0 121 45t47 115q0 51 -31.5 79.5t-89.5 28.5q-74 0 -121 -43.5t-47 -116.5q0 -51 31.5 -79.5t89.5 -28.5z" />
    <glyph glyph-name="seven.numr" horiz-adv-x="616" 
d="M162 1448h551l-19 -133l-397 -641h-180l395 624h-371z" />
    <glyph glyph-name="eight.numr" horiz-adv-x="718" 
d="M594 1069q123 -48 123 -162q0 -116 -93.5 -182t-232.5 -66q-134 0 -210.5 55t-76.5 144q0 83 47.5 137t129.5 78q-103 47 -103 146q0 112 86.5 177.5t216.5 65.5q124 0 194 -53.5t70 -136.5q0 -73 -40 -125.5t-111 -77.5zM481 1333q-67 0 -108 -32.5t-41 -90.5
q0 -37 28.5 -58.5t83.5 -21.5q68 0 106 32t38 87q0 84 -107 84zM393 795q73 0 117.5 29.5t44.5 88.5q0 43 -32 68t-95 25q-73 0 -115.5 -34t-42.5 -93q0 -84 123 -84z" />
    <glyph glyph-name="nine.numr" horiz-adv-x="696" 
d="M471 1462q121 0 196.5 -67.5t75.5 -177.5q0 -155 -159 -332l-193 -211h-186l237 254q-27 -6 -59 -6q-107 0 -177.5 64t-70.5 167q0 134 96 221.5t240 87.5zM420 1051q75 0 119.5 45.5t44.5 115.5q0 51 -32.5 80t-90.5 29q-75 0 -121.5 -46t-46.5 -114q0 -52 33.5 -81
t93.5 -29z" />
    <glyph glyph-name="zero.sups" horiz-adv-x="782" 
d="M418 713q-129 0 -201 78.5t-72 226.5q0 102 32 207t91 174q102 117 262 117q129 0 202 -80t73 -228q0 -113 -39 -225.5t-111 -179.5q-96 -90 -237 -90zM428 858q75 0 123 51q46 46 68 134t22 174q0 80 -29 115.5t-90 35.5q-90 0 -143 -70q-34 -49 -52 -131t-18 -155
q0 -81 29 -117.5t90 -36.5z" />
    <glyph glyph-name="one.sups" horiz-adv-x="497" 
d="M397 1501h135l-108 -774h-158l86 606l-198 -92l22 154z" />
    <glyph glyph-name="two.sups" horiz-adv-x="675" 
d="M563 1053l-215 -179h326l-21 -147h-565l18 119l314 262q68 53 105.5 98t37.5 88q0 33 -24 53.5t-66 20.5q-108 0 -192 -129l-121 76q48 93 134 147t191 54q103 0 172.5 -57.5t69.5 -143.5q0 -125 -164 -262z" />
    <glyph glyph-name="three.sups" horiz-adv-x="659" 
d="M549 1118q117 -38 117 -160q0 -109 -86.5 -177t-219.5 -68q-182 0 -276 116l98 109q69 -80 180 -80q63 0 102.5 28t39.5 81q0 80 -127 80h-82l20 143h80q70 0 109 26.5t39 73.5q0 78 -101 78q-104 0 -190 -86l-100 100q56 64 134.5 99t166.5 35q114 0 185 -54.5
t71 -146.5q0 -73 -44 -124.5t-116 -72.5z" />
    <glyph glyph-name="four.sups" horiz-adv-x="710" 
d="M752 1014l-19 -133h-94l-23 -154h-149l20 154h-391l19 133l428 487h182l-68 -487h95zM281 1014h225l43 307z" />
    <glyph glyph-name="five.sups" horiz-adv-x="684" 
d="M705 1358h-340l-23 -166q54 29 127 29q106 0 171 -57t65 -154q0 -137 -91.5 -217t-242.5 -80q-173 0 -275 114l97 111q65 -82 176 -82q77 0 124.5 37.5t47.5 103.5q0 44 -28 69.5t-81 25.5q-80 0 -145 -48l-107 58l56 399h489z" />
    <glyph glyph-name="six.sups" horiz-adv-x="698" 
d="M475 1251q108 0 178 -62t70 -165q0 -135 -96.5 -223t-237.5 -88q-121 0 -197.5 65.5t-76.5 173.5q0 163 159 336l191 213h188l-237 -256q27 6 59 6zM395 854q74 0 121 45t47 115q0 51 -31.5 79.5t-89.5 28.5q-75 0 -121.5 -43t-46.5 -116q0 -51 31.5 -80t89.5 -29z" />
    <glyph glyph-name="seven.sups" horiz-adv-x="616" 
d="M170 1501h551l-19 -133l-397 -641h-180l395 625h-370z" />
    <glyph glyph-name="eight.sups" horiz-adv-x="718" 
d="M602 1122q123 -48 123 -161q0 -116 -93.5 -182t-232.5 -66q-134 0 -210 54.5t-76 143.5q0 83 47 137t129 78q-103 47 -103 146q0 112 86.5 178t216.5 66q124 0 194.5 -54t70.5 -137q0 -73 -40.5 -125.5t-111.5 -77.5zM489 1386q-67 0 -108 -32t-41 -90q0 -37 29 -58.5
t84 -21.5q68 0 105.5 32t37.5 87q0 83 -107 83zM401 848q73 0 117.5 30t44.5 89q0 43 -32 67.5t-95 24.5q-73 0 -115 -33.5t-42 -93.5q0 -84 122 -84z" />
    <glyph glyph-name="nine.sups" horiz-adv-x="696" 
d="M479 1516q121 0 197 -68t76 -178q0 -153 -160 -332l-193 -211h-186l238 254q-27 -6 -60 -6q-107 0 -177.5 64t-70.5 167q0 134 96.5 222t239.5 88zM428 1104q75 0 119.5 45.5t44.5 116.5q0 51 -32.5 79.5t-90.5 28.5q-75 0 -121.5 -46t-46.5 -114q0 -52 33.5 -81
t93.5 -29z" />
    <glyph glyph-name="colon.case" horiz-adv-x="532" 
d="M340 948q-64 0 -97.5 39t-25.5 103q6 57 44 92t97 35q64 0 98.5 -38.5t26.5 -99.5q-5 -59 -43.5 -95t-99.5 -36zM233 193q-64 0 -97 38.5t-25 102.5q6 57 44 92t97 35q64 0 97.5 -38.5t27.5 -100.5q-5 -58 -44 -93.5t-100 -35.5z" />
    <glyph glyph-name="exclamdown.case" horiz-adv-x="600" 
d="M422 1452q64 0 97.5 -39t25.5 -104q-5 -55 -44 -90t-98 -35q-64 0 -97 38t-27 99q6 59 45 95t98 36zM444 983l-112 -983h-209l162 983h159z" />
    <glyph glyph-name="questiondown.case" horiz-adv-x="964" 
d="M651 1452q64 0 97.5 -39t25.5 -104q-6 -55 -44 -90t-97 -35q-64 0 -98.5 38t-26.5 99q5 59 43.5 95t99.5 36zM688 983l-12 -96q-15 -102 -54.5 -163t-144.5 -140l-110 -82q-131 -94 -131 -207q0 -66 46 -103.5t130 -37.5q96 0 184 49.5t158 142.5l131 -100
q-70 -125 -200.5 -200t-283.5 -75q-165 0 -265.5 83t-100.5 214q0 109 58.5 194.5t170.5 170.5l111 82q61 46 82 79t30 95l11 94h190z" />
    <glyph glyph-name="periodcentered.case" horiz-adv-x="520" 
d="M283 604q-64 0 -97.5 39.5t-25.5 104.5q5 55 43 89.5t98 34.5q64 0 97.5 -38t25.5 -99q-5 -58 -43.5 -94.5t-97.5 -36.5z" />
    <glyph glyph-name="bullet.case" horiz-adv-x="1067" 
d="M563 424q-132 0 -221.5 90.5t-89.5 222.5q0 131 89.5 221.5t221.5 90.5q133 0 222 -90.5t89 -221.5q0 -133 -89 -223t-222 -90z" />
    <glyph glyph-name="parenleft.case" horiz-adv-x="671" 
d="M362 -182q-101 146 -154.5 327t-53.5 375q0 297 121.5 588.5t334.5 507.5l142 -109q-179 -185 -289.5 -453t-110.5 -526q0 -173 43.5 -334.5t120.5 -279.5z" />
    <glyph glyph-name="parenright.case" horiz-adv-x="671" 
d="M362 1616q101 -146 155 -327.5t54 -375.5q0 -297 -121 -588.5t-333 -506.5l-142 108q178 185 288 452.5t110 526.5q0 175 -43 336.5t-121 278.5z" />
    <glyph glyph-name="braceleft.case" horiz-adv-x="747" 
d="M662 1593h165l-20 -161h-133q-124 0 -142 -123l-51 -377q-27 -175 -188 -217q147 -49 125 -223l-53 -377q-9 -61 14.5 -87t83.5 -26h141l-22 -162h-158q-128 0 -190 50.5t-62 158.5q0 14 4 64l60 407q7 63 -19 89t-94 26h-27l23 164h18q136 0 154 123l57 409
q20 141 93 201.5t221 60.5z" />
    <glyph glyph-name="braceright.case" horiz-adv-x="745" 
d="M680 799h29l-23 -164h-20q-136 0 -154 -123l-57 -410q-20 -141 -92.5 -201.5t-219.5 -60.5h-168l23 162h131q126 0 141 123l54 377q24 175 186 217q-148 50 -123 223l51 377q9 61 -14 87t-84 26h-141l22 161h158q129 0 190.5 -50t61.5 -157q0 -15 -4 -65l-58 -408
q-9 -62 17 -88t94 -26z" />
    <glyph glyph-name="bracketleft.case" horiz-adv-x="761" 
d="M821 1432h-303l-196 -1430h296l-22 -162h-485l245 1753h486z" />
    <glyph glyph-name="bracketright.case" horiz-adv-x="763" 
d="M221 1593h488l-246 -1753h-488l23 162h301l197 1430h-297z" />
    <glyph glyph-name="hyphen.case" horiz-adv-x="808" 
d="M123 645l27 176h595l-24 -176h-598z" />
    <glyph glyph-name="endash.case" horiz-adv-x="1236" 
d="M125 651l25 164h1024l-25 -164h-1024z" />
    <glyph glyph-name="emdash.case" horiz-adv-x="2260" 
d="M125 651l25 164h2048l-25 -164h-2048z" />
    <glyph glyph-name="guillemotleft.case" horiz-adv-x="1140" 
d="M692 1174l-373 -445l244 -436h-207l-250 440l369 441h217zM1147 1174l-373 -445l244 -436h-207l-250 440l369 441h217z" />
    <glyph glyph-name="guillemotright.case" horiz-adv-x="1140" 
d="M389 1169l250 -440l-369 -440h-217l371 442l-244 438h209zM844 1169l250 -440l-369 -440h-217l371 442l-244 438h209z" />
    <glyph glyph-name="guilsinglleft.case" horiz-adv-x="686" 
d="M692 1174l-373 -445l244 -436h-207l-250 440l369 441h217z" />
    <glyph glyph-name="guilsinglright.case" horiz-adv-x="686" 
d="M391 1174l250 -441l-369 -440h-217l371 442l-244 439h209z" />
    <glyph glyph-name="cent.tf" 
d="M817 350q160 22 264 154l133 -107q-73 -101 -182.5 -159t-238.5 -66l-25 -172h-125l25 176q-179 25 -284 148t-105 307q0 143 60 279.5t165 224.5q137 109 317 127l25 172h125l-25 -172q122 -12 216 -71t143 -155l-164 -106q-69 141 -219 155zM475 641
q0 -119 56.5 -194.5t160.5 -94.5l103 725q-95 -21 -174 -88q-70 -64 -108 -156t-38 -192z" />
    <glyph glyph-name="currency.tf" 
d="M1157 776q0 -162 -100 -289l127 -147l-107 -94l-127 143q-112 -72 -243 -72q-135 0 -224 70l-174 -154l-90 107l172 152q-39 76 -39 165q0 162 99 289l-127 148l108 94l125 -144q112 72 244 72q133 0 225 -67l174 151l88 -106l-172 -152q41 -74 41 -166zM711 487
q115 0 191.5 78t76.5 197q0 86 -47.5 135t-134.5 49q-116 0 -191.5 -77t-75.5 -197q0 -86 47 -135.5t134 -49.5z" />
    <glyph glyph-name="dollar.tf" 
d="M926 782q311 -77 311 -313q0 -94 -41 -179.5t-113 -142.5q-132 -107 -352 -116l-18 -133h-123l18 137q-163 17 -272.5 94.5t-155.5 204.5l160 94q33 -93 109 -149.5t184 -71.5l63 448l-59 15q-161 40 -242.5 120.5t-81.5 198.5q0 101 49.5 187.5t137.5 142.5
q119 75 303 84l18 133h123l-18 -137q140 -15 238 -78.5t139 -159.5l-154 -98q-68 139 -248 164l-61 -424zM715 834l6 -3l57 398q-116 -9 -184 -62q-86 -63 -86 -163q0 -63 48.5 -102.5t158.5 -67.5zM958 281q78 65 78 168q0 63 -46.5 105.5t-149.5 66.5l-25 6l-59 -422
q126 12 202 76z" />
    <glyph glyph-name="Euro.tf" 
d="M807 147q97 0 184.5 63.5t141.5 172.5l153 -74q-82 -163 -211.5 -250.5t-279.5 -87.5q-197 0 -323.5 143t-141.5 382h-176l18 135h158q6 87 24 172h-157l20 135h174q66 193 174 319q88 98 195.5 151.5t224.5 53.5q152 0 264.5 -88t151.5 -250l-174 -73q-24 112 -87 173.5
t-159 61.5q-152 0 -272 -145q-68 -79 -115 -203h471l-21 -135h-489q-19 -91 -25 -172h490l-19 -135h-471q12 -165 85.5 -257t191.5 -92z" />
    <glyph glyph-name="florin.tf" 
d="M1196 1434h82l-25 -179h-69q-88 0 -133 -35t-76 -128l-72 -215h262l-18 -150h-293l-246 -750q-46 -138 -137.5 -201t-251.5 -63h-82l25 178h69q87 0 131.5 36t75.5 130l221 670h-245l18 150h277l98 294q46 137 138 200t251 63z" />
    <glyph glyph-name="sterling.tf" 
d="M602 629l-63 -449h651l-27 -180h-995l27 180h147l64 449h-156l22 155h156l35 250q28 200 149.5 314t319.5 114q289 0 403 -239l-161 -101q-59 158 -242 158q-115 0 -185.5 -65.5t-89.5 -190.5l-32 -240h491l-22 -155h-492z" />
    <glyph glyph-name="yen.tf" 
d="M1440 1434l-520 -719h299l-19 -135h-366l-25 -174h367l-21 -138h-364l-39 -268h-197l37 268h-363l21 138h362l23 174h-363l21 135h297l-318 719h207l277 -654l461 654h223z" />
    <glyph glyph-name="plus.tf" 
d="M1221 803l-25 -172h-360l-56 -385h-178l53 385h-364l22 172h367l53 385h180l-55 -385h363z" />
    <glyph glyph-name="minus.tf" 
d="M291 631l22 172h908l-25 -172h-905z" />
    <glyph glyph-name="multiply.tf" 
d="M1221 1024l-353 -309l262 -307l-133 -113l-258 305l-348 -305l-104 115l352 309l-262 307l131 113l260 -305l348 305z" />
    <glyph glyph-name="divide.tf" 
d="M795 956q-54 0 -85.5 31t-31.5 82q0 57 40.5 98t98.5 41q55 0 87 -31t32 -83q0 -59 -40.5 -98.5t-100.5 -39.5zM291 631l22 172h908l-25 -172h-905zM694 225q-55 0 -87 31.5t-32 83.5q0 57 41 97t99 40q55 0 87 -30.5t32 -81.5q0 -59 -41 -99.5t-99 -40.5z" />
    <glyph glyph-name="equal.tf" 
d="M319 840l25 170h905l-22 -170h-908zM262 424l23 170h907l-25 -170h-905z" />
    <glyph glyph-name="notequal.tf" 
d="M1227 840h-318l-151 -246h434l-25 -170h-514l-159 -260h-156l160 260h-236l23 170h317l152 246h-435l25 170h514l160 260h156l-160 -260h235z" />
    <glyph glyph-name="greater.tf" 
d="M365 1163l856 -356l-23 -180l-958 -357l26 191l717 260l-643 260z" />
    <glyph glyph-name="less.tf" 
d="M1270 1163l-27 -190l-717 -260l643 -260l-24 -183l-856 357l22 180z" />
    <glyph glyph-name="greaterequal.tf" 
d="M381 1294l858 -348l-25 -180l-954 -348l25 186l733 256l-662 256zM221 141l25 170h905l-23 -170h-907z" />
    <glyph glyph-name="lessequal.tf" 
d="M1286 1292l-24 -186l-734 -256l662 -256l-25 -178l-858 348l25 180zM221 139l25 170h905l-23 -170h-907z" />
    <glyph glyph-name="plusminus.tf" 
d="M879 967h362l-22 -170h-365l-51 -361h-178l51 361h-363l23 170h362l52 362h180zM217 106l23 170h905l-23 -170h-905z" />
    <glyph glyph-name="approxequal.tf" 
d="M981 797q-75 0 -209 44t-209 44q-117 0 -252 -84l25 170q124 82 254 82q72 0 207.5 -44t203.5 -44q64 0 132.5 24t119.5 62l-22 -170q-131 -84 -250 -84zM922 385q-75 0 -209 44t-209 44q-112 0 -250 -86l22 170q127 84 256 84q72 0 207 -44t203 -44q66 0 134.5 23
t119.5 61l-25 -170q-128 -82 -249 -82z" />
    <glyph glyph-name="logicalnot.tf" 
d="M328 909h907l-55 -383h-181l33 213h-729z" />
    <glyph glyph-name="asciitilde.tf" 
d="M952 592q-75 0 -208.5 44t-208.5 44q-112 0 -250 -86l22 170q127 84 256 84q72 0 207 -44t203 -44q66 0 134.5 23t119.5 61l-25 -170q-128 -82 -250 -82z" />
    <glyph glyph-name="at.case" horiz-adv-x="1724" 
d="M1010 1464q135 0 253 -42.5t204.5 -118t136 -186t49.5 -240.5q0 -132 -45 -251t-133 -196.5t-199 -77.5q-80 0 -140 44.5t-69 121.5q-38 -81 -106 -123.5t-154 -42.5q-116 0 -189 84t-73 215q0 170 101 292t257 122q71 0 123.5 -34t73.5 -97l14 108h152l-58 -415
q-16 -138 76 -138q64 0 112 60t69.5 143t21.5 170q0 212 -128 328.5t-349 116.5q-268 0 -461 -168q-107 -91 -169.5 -229.5t-62.5 -295.5q0 -227 136 -359t376 -132q93 0 186 21.5t161 58.5l67 -135q-177 -99 -414 -99q-200 0 -354 78.5t-239.5 223t-85.5 331.5t79.5 361.5
t219.5 296.5q115 98 259.5 151t301.5 53zM856 502q95 0 154 73.5t59 180.5q0 75 -38.5 117t-104.5 42q-95 0 -153 -74t-58 -179q0 -75 37.5 -117.5t103.5 -42.5z" />
    </font>
</defs>
</svg>
