<?xml version="1.0" standalone="no"?>
<!DOCTYPE svg PUBLIC "-//W3C//DTD SVG 1.1//EN" "http://www.w3.org/Graphics/SVG/1.1/DTD/svg11.dtd" >
<svg xmlns="http://www.w3.org/2000/svg" xmlns:xlink="http://www.w3.org/1999/xlink" version="1.1">
<metadata>
Created by FontForge 20170731 at Wed Feb 17 23:23:58 2021
 By Aleksey,,,
Copyright (c) by Christoph York . All rights reserved. Modification of this file requires prior written permission from Brink Type.
</metadata>
<defs>
<font id="Segma-ExtraLightItalic" horiz-adv-x="1454" >
  <font-face 
    font-family="Segma ExtraLight Italic"
    font-weight="260"
    font-style="italic"
    font-stretch="normal"
    units-per-em="2048"
    panose-1="0 0 3 0 0 0 0 0 0 0"
    ascent="1556"
    descent="-492"
    x-height="1028"
    cap-height="1434"
    bbox="-946 -537 2535 2032"
    underline-thickness="102"
    underline-position="-450"
    slope="-8"
    unicode-range="U+000D-2B51"
  />
<missing-glyph horiz-adv-x="1667" 
d="M172 0l201 1434h1179l-200 -1434h-1180zM737 543h156l8 57q6 41 20 61t54 50l65 49q76 56 115 114.5t39 129.5q0 93 -66 148.5t-178 55.5q-110 0 -200.5 -51.5t-141.5 -138.5l107 -80q92 123 213 123q48 0 76 -20t28 -58q0 -39 -20.5 -67t-57.5 -56l-73 -53
q-73 -54 -98.5 -92.5t-34.5 -108.5zM770 215q54 0 87.5 37.5t33.5 85.5q0 41 -25.5 65.5t-66.5 24.5q-54 0 -87.5 -37.5t-33.5 -85.5q0 -41 25.5 -65.5t66.5 -24.5z" />
    <glyph glyph-name=".notdef" horiz-adv-x="1667" 
d="M172 0l201 1434h1179l-200 -1434h-1180zM737 543h156l8 57q6 41 20 61t54 50l65 49q76 56 115 114.5t39 129.5q0 93 -66 148.5t-178 55.5q-110 0 -200.5 -51.5t-141.5 -138.5l107 -80q92 123 213 123q48 0 76 -20t28 -58q0 -39 -20.5 -67t-57.5 -56l-73 -53
q-73 -54 -98.5 -92.5t-34.5 -108.5zM770 215q54 0 87.5 37.5t33.5 85.5q0 41 -25.5 65.5t-66.5 24.5q-54 0 -87.5 -37.5t-33.5 -85.5q0 -41 25.5 -65.5t66.5 -24.5z" />
    <glyph glyph-name=".null" horiz-adv-x="0" 
 />
    <glyph glyph-name="nonmarkingreturn" horiz-adv-x="682" 
 />
    <glyph glyph-name="CR" unicode="&#xd;" horiz-adv-x="501" 
 />
    <glyph glyph-name="space" unicode=" " horiz-adv-x="501" 
 />
    <glyph glyph-name="exclam" unicode="!" horiz-adv-x="550" 
d="M227 387l140 1047h75l-155 -1047h-60zM207 -4q-29 0 -44.5 16.5t-12.5 44.5q1 30 21 48t46 18q27 0 43 -18t14 -46q-2 -27 -21 -45t-46 -18z" />
    <glyph glyph-name="quotedbl" unicode="&#x22;" horiz-adv-x="655" 
d="M203 924l65 536h76l-84 -536h-57zM514 924l64 536h75l-84 -536h-55z" />
    <glyph glyph-name="numbersign" unicode="#" horiz-adv-x="1490" 
d="M1415 922h-274l-140 -410h271l-8 -57h-281l-143 -424h-68l143 424h-458l-144 -424h-67l143 424h-264l8 57h275l139 410h-271l9 57h280l144 424h67l-143 -424h459l143 424h68l-144 -424h264zM934 512l139 410h-459l-139 -410h459z" />
    <glyph glyph-name="dollar" unicode="$" horiz-adv-x="1200" 
d="M1090 1124q-65 196 -330 211l-82 -581l84 -21q161 -40 234 -111.5t73 -175.5q0 -83 -34 -159.5t-95 -130.5q-133 -117 -365 -123l-18 -135h-57l18 135q-173 9 -281 88t-145 219l62 31q74 -258 374 -273l84 604l-61 15q-168 40 -247 111t-79 180q0 87 41 166.5t113 130.5
q129 93 334 96l18 135h57l-18 -137q150 -7 247.5 -72t131.5 -174zM578 778l45 -10l79 567q-188 -6 -290 -92q-54 -42 -84.5 -105.5t-30.5 -129.5q0 -84 64.5 -138.5t216.5 -91.5zM727 674l-57 14l-84 -590q194 6 309 111q48 43 75 103.5t27 125.5q0 89 -63.5 145t-206.5 91z
" />
    <glyph glyph-name="percent" unicode="%" horiz-adv-x="1644" 
d="M465 791q-132 0 -213.5 78t-81.5 204q0 162 106.5 274.5t268.5 112.5q132 0 214.5 -79t82.5 -205q0 -158 -109.5 -271.5t-267.5 -113.5zM186 0l1254 1434h76l-1254 -1434h-76zM467 850q136 0 223.5 95t87.5 229q0 104 -63 165.5t-170 61.5q-139 0 -226.5 -95.5
t-87.5 -230.5q0 -103 63.5 -164t172.5 -61zM1155 -27q-132 0 -213.5 77.5t-81.5 203.5q0 162 106.5 274.5t268.5 112.5q132 0 214.5 -78.5t82.5 -204.5q0 -159 -109 -272t-268 -113zM1157 31q136 0 223.5 95t87.5 230q0 103 -63 164.5t-170 61.5q-139 0 -225 -94.5
t-86 -229.5q0 -103 63 -165t170 -62z" />
    <glyph glyph-name="ampersand" unicode="&#x26;" horiz-adv-x="1357" 
d="M1212 692q-66 -280 -194 -452l176 -240h-82l-137 186q-187 -213 -459 -213q-177 0 -283 87.5t-106 232.5q0 79 27.5 146.5t82 123t120.5 100.5t157 91l31 16l-31 41q-72 99 -103.5 169t-31.5 136q0 148 110 246t271 98q140 0 224.5 -75t84.5 -191q0 -65 -24.5 -122
t-73 -105.5t-105.5 -88t-135 -81.5l-88 -47l338 -459q112 159 166 401h65zM446 1118q0 -55 28 -116t91 -146l43 -59l94 53q151 84 224 159.5t73 180.5q0 93 -66 149t-173 56q-130 0 -222 -80t-92 -197zM520 39q246 0 416 197l-356 485l-31 -16q-65 -35 -111.5 -64.5
t-93.5 -68.5t-76 -77.5t-47 -89t-18 -106.5q0 -120 86 -190t231 -70z" />
    <glyph glyph-name="quotesingle" unicode="'" horiz-adv-x="346" 
d="M203 924l65 536h76l-84 -536h-57z" />
    <glyph glyph-name="parenleft" unicode="(" horiz-adv-x="618" 
d="M377 -260q-101 146 -154 326t-53 374q0 297 122.5 588.5t336.5 509.5l51 -41q-197 -202 -316.5 -487t-119.5 -566q0 -187 48.5 -360t141.5 -305z" />
    <glyph glyph-name="parenright" unicode=")" horiz-adv-x="616" 
d="M276 1538q101 -146 154 -326t53 -374q0 -298 -122 -589t-336 -509l-52 41q197 202 317 487t120 566q0 187 -49 360t-142 305z" />
    <glyph glyph-name="asterisk" unicode="*" horiz-adv-x="909" 
d="M287 731l-47 37l249 283l-321 102l27 59l317 -112l43 350h63l-53 -350l346 112l13 -59l-351 -104l172 -279l-51 -37l-168 285z" />
    <glyph glyph-name="plus" unicode="+" 
d="M1186 680l-8 -62h-402l-59 -425h-68l60 425h-404l10 62h404l59 426h66l-60 -426h402z" />
    <glyph glyph-name="comma" unicode="," horiz-adv-x="397" 
d="M-14 -305l166 534h73l-182 -534h-57z" />
    <glyph glyph-name="hyphen" unicode="-" horiz-adv-x="833" 
d="M133 559l10 66h578l-8 -66h-580z" />
    <glyph glyph-name="period" unicode="." horiz-adv-x="450" 
d="M156 -4q-29 0 -44.5 16.5t-13.5 44.5q1 30 22 48t48 18t43 -18t14 -46q-2 -26 -21.5 -44.5t-47.5 -18.5z" />
    <glyph glyph-name="slash" unicode="/" horiz-adv-x="899" 
d="M-63 -193l997 1709h72l-998 -1709h-71z" />
    <glyph glyph-name="zero" unicode="0" horiz-adv-x="1429" 
d="M645 -27q-221 0 -343 142t-122 411q0 218 69.5 433t199.5 339q162 162 393 162q219 0 341 -142.5t122 -412.5q0 -228 -73.5 -446t-211.5 -344q-164 -142 -375 -142zM645 41q193 0 332 133q125 115 188.5 319.5t63.5 413.5q0 240 -101.5 363t-287.5 123q-202 0 -342 -146
q-81 -80 -137.5 -207t-80.5 -256.5t-24 -257.5q0 -239 101.5 -362t287.5 -123z" />
    <glyph glyph-name="one" unicode="1" horiz-adv-x="858" 
d="M672 1434h59l-201 -1434h-71l190 1354l-452 -219l8 73z" />
    <glyph glyph-name="two" unicode="2" horiz-adv-x="1193" 
d="M770 575l-616 -507h854l-9 -68h-966l10 61l666 549q81 67 137.5 123t105.5 120t73 130.5t24 136.5q0 130 -83 201.5t-223 71.5q-146 0 -271.5 -81t-217.5 -243l-55 33q93 176 235 267t309 91q170 0 274.5 -92.5t104.5 -247.5q0 -77 -26 -150t-76.5 -141.5t-109.5 -127.5
t-140 -126z" />
    <glyph glyph-name="three" unicode="3" horiz-adv-x="1146" 
d="M748 729q130 -30 198 -105.5t68 -181.5q0 -93 -40 -181t-110 -150q-151 -138 -393 -138q-143 0 -259.5 55.5t-182.5 161.5l51 43q62 -95 164 -143.5t231 -48.5q214 0 346 123q56 52 87.5 125.5t31.5 150.5q0 262 -430 262h-100l10 64h180q209 0 320 111q50 45 75 111
t25 136q0 124 -85 196.5t-237 72.5q-135 0 -254 -60t-204 -170l-50 41q94 125 226.5 190.5t283.5 65.5q182 0 288 -91.5t106 -238.5q0 -173 -125 -292q-89 -85 -221 -109z" />
    <glyph glyph-name="four" unicode="4" horiz-adv-x="1245" 
d="M1188 414l-10 -64h-234l-49 -350h-70l49 350h-806l8 64l923 1020h97l-144 -1020h236zM162 414h721l133 942z" />
    <glyph glyph-name="five" unicode="5" horiz-adv-x="1185" 
d="M1128 1368h-753l-86 -612q177 123 375 123q187 0 298 -99t111 -270q0 -112 -46 -217t-128 -178q-158 -142 -393 -142q-138 0 -250.5 52.5t-183.5 154.5l49 45q130 -184 385 -184q216 0 352 127q70 64 106.5 155.5t36.5 186.5q0 143 -91 223t-255 80q-200 0 -385 -133
l-55 35l100 719h822z" />
    <glyph glyph-name="six" unicode="6" horiz-adv-x="1224" 
d="M698 954q192 0 314.5 -110t122.5 -299q0 -126 -51 -241t-142 -193q-163 -138 -391 -138q-199 0 -322 110t-123 300q0 173 97 338q53 92 162 217l436 496h90l-516 -580q144 100 323 100zM901 166q75 70 116.5 170t41.5 207q0 164 -99.5 255t-275.5 91q-135 0 -243.5 -55
t-176.5 -156q-82 -133 -82 -293q0 -162 100.5 -253t274.5 -91q206 0 344 125z" />
    <glyph glyph-name="seven" unicode="7" horiz-adv-x="1058" 
d="M188 1434h940l-10 -62l-860 -1372h-80l860 1366h-858z" />
    <glyph glyph-name="eight" unicode="8" horiz-adv-x="1284" 
d="M852 735q134 -34 206 -115.5t72 -197.5q0 -93 -42 -178t-115 -146q-158 -125 -406 -125q-215 0 -334.5 93.5t-119.5 246.5q0 96 41 181.5t116 142.5q92 73 226 100q-118 34 -181 110.5t-63 184.5q0 89 39.5 170.5t109.5 140.5q146 117 371 117q197 0 308.5 -89.5
t111.5 -233.5q0 -92 -39.5 -173t-110.5 -137q-83 -67 -190 -92zM324 1032q0 -122 90.5 -193t259.5 -71q208 0 325 102q119 103 119 260q0 121 -89.5 192t-256.5 71q-201 0 -323 -101q-58 -46 -91.5 -115t-33.5 -145zM930 152q60 51 93.5 120.5t33.5 149.5q0 129 -98.5 204.5
t-282.5 75.5q-226 0 -361 -110q-129 -107 -129 -270q0 -129 99 -205t284 -76q225 0 361 111z" />
    <glyph glyph-name="nine" unicode="9" horiz-adv-x="1224" 
d="M727 1460q199 0 323 -109t124 -300q0 -176 -95 -340q-59 -100 -161 -215l-437 -496h-92l518 580q-146 -101 -321 -101q-192 0 -315.5 110.5t-123.5 301.5q0 129 55.5 250t153.5 196q154 123 371 123zM946 670q154 144 154 381q0 161 -100 251.5t-275 90.5
q-193 0 -324 -109q-85 -67 -131.5 -170.5t-46.5 -220.5q0 -164 100.5 -256t276.5 -92q208 0 346 125z" />
    <glyph glyph-name="colon" unicode=":" horiz-adv-x="460" 
d="M281 817q-29 0 -44.5 17t-13.5 45q1 29 21.5 46t48.5 17t43 -17t14 -46q-2 -25 -22 -43.5t-47 -18.5zM166 -4q-29 0 -44 16.5t-13 44.5q1 30 21.5 48t47.5 18t43.5 -18t14.5 -46q-2 -26 -22 -44.5t-48 -18.5z" />
    <glyph glyph-name="semicolon" unicode=";" horiz-adv-x="415" 
d="M266 817q-29 0 -44 17t-13 45q1 29 21.5 46t48.5 17t43 -17t14 -46q-2 -25 -22.5 -43.5t-47.5 -18.5zM-14 -305l166 534h73l-182 -534h-57z" />
    <glyph glyph-name="less" unicode="&#x3c;" 
d="M1237 1049l-8 -72l-846 -330l752 -332l-9 -65l-821 362l10 74z" />
    <glyph glyph-name="equal" unicode="=" 
d="M336 838l10 63h871l-11 -63h-870zM276 397l9 64h872l-10 -64h-871z" />
    <glyph glyph-name="greater" unicode="&#x3e;" 
d="M367 1049l819 -363l-8 -74l-924 -362l10 72l844 329l-750 332z" />
    <glyph glyph-name="question" unicode="?" horiz-adv-x="927" 
d="M371 387l18 135q15 100 50.5 153t142.5 132l112 84q174 128 174 293q0 98 -68.5 152.5t-185.5 54.5q-126 0 -232 -62t-171 -178l-51 35q67 129 189 201.5t269 72.5q145 0 234.5 -73.5t89.5 -194.5q0 -108 -58.5 -195.5t-164.5 -167.5l-111 -84q-83 -61 -109 -101
t-38 -122l-19 -135h-71zM356 -4q-29 0 -44.5 16.5t-12.5 44.5q1 30 21.5 48t46.5 18q27 0 43 -18t14 -46q-2 -26 -21 -44.5t-47 -18.5z" />
    <glyph glyph-name="at" unicode="@" horiz-adv-x="1939" 
d="M1106 1315q155 0 287.5 -47t227.5 -132t148.5 -211t53.5 -278q0 -112 -26.5 -219.5t-75 -194.5t-123.5 -140.5t-164 -53.5q-90 0 -144.5 58.5t-50.5 170.5q-49 -108 -142 -168.5t-208 -60.5q-141 0 -228.5 93t-87.5 247q0 130 53.5 242t153.5 180.5t224 68.5
q109 0 183.5 -59t96.5 -162l29 193h63l-71 -518q-17 -111 19 -170.5t112 -59.5t138.5 50t101 130.5t59 176.5t20.5 194q0 192 -85.5 331t-230.5 208t-333 69q-175 0 -330.5 -59t-277.5 -168q-144 -128 -223.5 -316t-79.5 -382q0 -297 188.5 -474.5t507.5 -177.5
q118 0 232 25t198 68l22 -54q-89 -47 -209 -73.5t-247 -26.5q-344 0 -553 195.5t-209 517.5q0 208 88 407.5t244 337.5q129 116 296 179t353 63zM899 100q160 0 263.5 125.5t103.5 300.5q0 131 -70 207t-186 76q-159 0 -263 -126t-104 -302q0 -131 69.5 -206t186.5 -75z" />
    <glyph glyph-name="A" unicode="A" horiz-adv-x="1396" 
d="M1200 0l-123 438h-774l-246 -438h-77l806 1434h82l406 -1434h-74zM342 506h717l-240 854z" />
    <glyph glyph-name="B" unicode="B" horiz-adv-x="1427" 
d="M991 739q136 -25 206.5 -102.5t70.5 -198.5q0 -98 -40 -185t-112 -147q-134 -106 -356 -106h-588l201 1434h530q197 0 301.5 -82.5t104.5 -223.5q0 -88 -35.5 -166.5t-99.5 -132.5q-72 -63 -183 -90zM436 1366l-84 -598h461q201 0 313 98q53 49 81 115t28 137
q0 119 -85 183.5t-251 64.5h-463zM1069 162q60 49 90.5 125t30.5 157q0 123 -85.5 189.5t-250.5 66.5h-512l-88 -632h510q194 0 305 94z" />
    <glyph glyph-name="C" unicode="C" horiz-adv-x="1593" 
d="M793 -27q-281 0 -451 172t-170 449q0 207 91 395t251 309q211 162 481 162q209 0 359.5 -99t201.5 -271l-63 -33q-49 161 -181.5 247.5t-318.5 86.5q-245 0 -440 -150q-145 -113 -224 -283t-79 -360q0 -251 149.5 -403t397.5 -152q185 0 345.5 87t252.5 247l59 -33
q-98 -172 -275 -271.5t-386 -99.5z" />
    <glyph glyph-name="D" unicode="D" horiz-adv-x="1564" 
d="M819 1434q293 0 462 -152t169 -428q0 -186 -66 -359t-190 -290q-220 -205 -563 -205h-459l201 1434h446zM1145 258q112 106 170.5 265t58.5 327q0 251 -146.5 383.5t-408.5 132.5h-383l-182 -1298h377q318 0 514 190z" />
    <glyph glyph-name="E" unicode="E" horiz-adv-x="1357" 
d="M1290 1366h-854l-84 -608h815l-12 -68h-815l-86 -622h872l-8 -68h-946l201 1434h925z" />
    <glyph glyph-name="F" unicode="F" horiz-adv-x="1306" 
d="M1288 1366h-852l-86 -618h826l-9 -68h-827l-96 -680h-72l201 1434h925z" />
    <glyph glyph-name="G" unicode="G" horiz-adv-x="1630" 
d="M973 653l8 68h514l-74 -526q-104 -106 -253 -164t-328 -58q-312 0 -490 168t-178 449q0 191 75 368t212 299q228 203 542 203q177 0 312.5 -66t204.5 -186l-64 -41q-60 107 -176.5 165.5t-271.5 58.5q-143 0 -272 -48.5t-228 -140.5q-124 -114 -191 -277.5t-67 -332.5
q0 -256 161.5 -402.5t430.5 -146.5q153 0 289 48t223 130l61 432h-440z" />
    <glyph glyph-name="H" unicode="H" horiz-adv-x="1599" 
d="M1411 1434h74l-201 -1434h-74l99 702h-965l-100 -702h-72l201 1434h73l-94 -662h967z" />
    <glyph glyph-name="I" unicode="I" horiz-adv-x="569" 
d="M176 0l201 1434h74l-203 -1434h-72z" />
    <glyph glyph-name="J" unicode="J" horiz-adv-x="1204" 
d="M432 -27q-132 0 -240.5 52t-175.5 151l54 45q58 -87 152.5 -132.5t209.5 -45.5q188 0 315 122.5t160 354.5l129 914h74l-131 -920q-35 -257 -179.5 -399t-367.5 -142z" />
    <glyph glyph-name="K" unicode="K" horiz-adv-x="1386" 
d="M1440 1434l-701 -631l535 -803h-88l-500 754l-385 -344l-57 -410h-72l201 1434h73l-131 -920l1028 920h97z" />
    <glyph glyph-name="L" unicode="L" horiz-adv-x="1220" 
d="M254 68h823l-10 -68h-895l201 1434h73z" />
    <glyph glyph-name="M" unicode="M" horiz-adv-x="1921" 
d="M1720 1434h86l-200 -1434h-72l184 1321l-741 -930h-66l-483 932l-184 -1323h-72l201 1434h78l499 -965z" />
    <glyph glyph-name="N" unicode="N" horiz-adv-x="1619" 
d="M1434 1434h71l-200 -1434h-74l-803 1321l-184 -1321h-72l201 1434h71l805 -1321z" />
    <glyph glyph-name="O" unicode="O" horiz-adv-x="1746" 
d="M805 -27q-188 0 -332.5 80.5t-222.5 223.5t-78 325q0 186 78.5 359.5t216.5 293.5q110 97 246.5 151t285.5 54q185 0 330 -81.5t224 -224.5t79 -323q0 -185 -80.5 -361t-220.5 -298q-231 -199 -526 -199zM803 43q271 0 479 180q129 114 200.5 275t71.5 333
q0 248 -152.5 404t-402.5 156q-137 0 -262.5 -49.5t-224.5 -141.5q-124 -112 -193 -270.5t-69 -327.5q0 -247 152.5 -403t400.5 -156z" />
    <glyph glyph-name="P" unicode="P" horiz-adv-x="1382" 
d="M918 1434q204 0 314.5 -92t110.5 -259q0 -101 -36.5 -198.5t-102.5 -163.5q-139 -139 -403 -139h-475l-82 -582h-72l201 1434h545zM1155 772q55 58 84 139.5t29 167.5q0 141 -91.5 214t-271.5 73h-469l-100 -717h469q233 0 350 123z" />
    <glyph glyph-name="Q" unicode="Q" horiz-adv-x="1746" 
d="M1331 172q-62 -49 -69 -53l155 -232l-57 -41l-158 236q-182 -109 -397 -109q-188 0 -332.5 80.5t-222.5 223.5t-78 325q0 186 78.5 359.5t216.5 293.5q110 97 246.5 151t285.5 54q185 0 330 -81.5t224 -224.5t79 -323q0 -185 -80.5 -361t-220.5 -298zM803 43
q193 0 360 96l-239 361l57 39l242 -361q39 28 59 45q129 114 200.5 275t71.5 333q0 248 -152.5 404t-402.5 156q-137 0 -262.5 -49.5t-224.5 -141.5q-124 -112 -193 -270.5t-69 -327.5q0 -247 152.5 -403t400.5 -156z" />
    <glyph glyph-name="R" unicode="R" horiz-adv-x="1427" 
d="M813 612h-16l426 -612h-86l-424 612h-383l-86 -612h-72l201 1434h547q204 0 316 -92t112 -255q0 -107 -43 -203.5t-121 -158.5q-144 -113 -371 -113zM436 1366l-96 -686h475q204 0 320 94q66 54 101.5 137.5t35.5 175.5q0 135 -92.5 207t-268.5 72h-475z" />
    <glyph glyph-name="S" unicode="S" horiz-adv-x="1267" 
d="M592 -27q-208 0 -340 87.5t-172 246.5l63 31q86 -297 447 -297q201 0 330 92q69 51 106 126.5t37 156.5q0 94 -69 154.5t-226 99.5l-193 47q-180 44 -265 120t-85 193q0 93 42.5 179t117.5 143q139 108 373 108q185 0 308.5 -71.5t158.5 -196.5l-62 -33q-77 234 -403 234
q-209 0 -330 -95q-62 -46 -95.5 -118.5t-33.5 -149.5q0 -90 68.5 -149t232.5 -99l199 -49q179 -44 258.5 -121.5t79.5 -191.5q0 -103 -47.5 -194t-130.5 -150q-150 -103 -369 -103z" />
    <glyph glyph-name="T" unicode="T" horiz-adv-x="1243" 
d="M512 0l193 1366h-527l10 68h1125l-10 -68h-525l-192 -1366h-74z" />
    <glyph glyph-name="U" unicode="U" horiz-adv-x="1564" 
d="M709 -27q-231 0 -361.5 115.5t-130.5 325.5q0 48 6 100l129 920h74l-129 -916q-6 -50 -6 -92q0 -184 110 -283.5t310 -99.5q228 0 377.5 125.5t181.5 349.5l127 916h73l-129 -920q-35 -255 -203.5 -398t-428.5 -143z" />
    <glyph glyph-name="V" unicode="V" horiz-adv-x="1372" 
d="M1370 1434h80l-797 -1434h-78l-395 1434h74l369 -1348z" />
    <glyph glyph-name="W" unicode="W" horiz-adv-x="2088" 
d="M2075 1434h75l-659 -1434h-78l-252 1335l-629 -1335h-79l-256 1434h73l238 -1334l625 1334h77l254 -1334z" />
    <glyph glyph-name="X" unicode="X" horiz-adv-x="1282" 
d="M1323 1434l-602 -697l430 -737h-78l-403 688l-598 -688h-86l637 737l-406 697h76l381 -650l565 650h84z" />
    <glyph glyph-name="Y" unicode="Y" horiz-adv-x="1261" 
d="M1278 1434h90l-686 -816l-88 -618h-74l88 618l-456 816h79l418 -750z" />
    <glyph glyph-name="Z" unicode="Z" horiz-adv-x="1232" 
d="M1249 1434l-8 -58l-1110 -1308h938l-8 -68h-1032l8 57l1110 1309h-903l8 68h997z" />
    <glyph glyph-name="bracketleft" unicode="[" horiz-adv-x="741" 
d="M797 1454h-353l-229 -1630h350l-8 -62h-418l246 1754h418z" />
    <glyph glyph-name="backslash" unicode="\" horiz-adv-x="899" 
d="M696 -193l-520 1709h70l518 -1709h-68z" />
    <glyph glyph-name="bracketright" unicode="]" horiz-adv-x="743" 
d="M221 1516h418l-246 -1754h-418l9 62h350l229 1630h-350z" />
    <glyph glyph-name="asciicircum" unicode="^" horiz-adv-x="1095" 
d="M1049 729h-76l-307 588l-476 -588h-84l531 655h63z" />
    <glyph glyph-name="underscore" unicode="_" horiz-adv-x="882" 
d="M-100 -209l8 62h883l-9 -62h-882z" />
    <glyph glyph-name="grave" unicode="`" horiz-adv-x="1269" 
d="M715 1202l-219 314h86l209 -314h-76z" />
    <glyph glyph-name="a" unicode="a" horiz-adv-x="1343" 
d="M1147 1028h70l-144 -1028h-69l38 285q-66 -146 -194.5 -229t-290.5 -83q-200 0 -318 123.5t-118 327.5q0 143 54 272.5t153 216.5q156 140 370 140q161 0 271 -81t139 -222zM887 156q94 78 145 196.5t51 247.5q0 175 -102.5 281t-273.5 106q-193 0 -330 -125
q-88 -81 -136 -196t-48 -240q0 -174 103 -280.5t273 -106.5q182 0 318 117z" />
    <glyph glyph-name="b" unicode="b" horiz-adv-x="1343" 
d="M786 1053q198 0 318.5 -123t120.5 -324q0 -136 -51.5 -264.5t-145.5 -216.5q-158 -152 -383 -152q-162 0 -271.5 83.5t-137.5 226.5l-39 -283h-70l211 1499h70l-107 -754q66 143 194.5 225.5t290.5 82.5zM979 178q83 81 127.5 191.5t44.5 232.5q0 175 -102.5 280
t-274.5 105q-99 0 -190 -38t-160 -107q-79 -79 -121.5 -188.5t-42.5 -227.5q0 -174 103 -280.5t274 -106.5q200 0 342 139z" />
    <glyph glyph-name="c" unicode="c" horiz-adv-x="1169" 
d="M563 -27q-208 0 -326 122.5t-118 322.5q0 140 52.5 267t147.5 214q160 154 396 154q154 0 257.5 -72.5t137.5 -216.5l-68 -27q-65 250 -331 250q-212 0 -351 -139q-80 -78 -123.5 -191t-43.5 -233q0 -178 101.5 -281.5t280.5 -103.5q272 0 404 252l61 -29
q-75 -143 -199.5 -216t-277.5 -73z" />
    <glyph glyph-name="d" unicode="d" horiz-adv-x="1343" 
d="M1212 1499h70l-211 -1499h-70l39 274q-67 -139 -195 -220t-288 -81q-200 0 -319 123.5t-119 325.5q0 135 51 263.5t145 217.5q163 150 385 150q161 0 269 -81.5t137 -223.5zM905 176q85 79 131.5 191t46.5 233q0 175 -103.5 281t-274.5 106q-200 0 -340 -137
q-83 -80 -127.5 -192t-44.5 -234q0 -174 101 -279.5t271 -105.5q96 0 184 36t156 101z" />
    <glyph glyph-name="e" unicode="e" horiz-adv-x="1218" 
d="M1094 506h-897q-7 -51 -7 -88q0 -178 101.5 -278.5t275.5 -100.5q125 0 234 54t184 155l49 -39q-82 -113 -203 -174.5t-266 -61.5q-205 0 -325.5 120t-120.5 323q0 144 55 277t156 222q157 138 366 138q187 0 302.5 -110.5t115.5 -293.5q0 -53 -20 -143zM373 864
q-121 -109 -166 -299h829q6 52 6 80q0 159 -94.5 250.5t-251.5 91.5q-188 0 -323 -123z" />
    <glyph glyph-name="f" unicode="f" horiz-adv-x="755" 
d="M715 1456q-108 0 -165.5 -49.5t-74.5 -161.5l-31 -217h344l-8 -63h-344l-135 -965h-70l136 965h-250l8 63h250l31 217q21 143 98 208t213 65q67 0 143 -21l-10 -61q-67 20 -135 20z" />
    <glyph glyph-name="g" unicode="g" horiz-adv-x="1343" 
d="M1147 1028h70l-132 -932q-35 -253 -188 -392.5t-399 -139.5q-151 0 -263 51.5t-174 142.5l52 47q56 -84 156.5 -130t228.5 -46q212 0 349 123t169 344l28 207q-68 -141 -195.5 -222t-285.5 -81q-202 0 -322 120.5t-120 319.5q0 136 54.5 261.5t150.5 209.5
q155 142 372 142q164 0 272.5 -80.5t137.5 -222.5zM907 195q86 79 132 186.5t46 226.5q0 170 -102 274.5t-274 104.5q-96 0 -184 -34.5t-156 -98.5q-84 -77 -129 -186t-45 -226q0 -168 101.5 -272t270.5 -104q195 0 340 129z" />
    <glyph glyph-name="h" unicode="h" horiz-adv-x="1241" 
d="M745 1053q160 0 244 -81t84 -239q0 -53 -8 -102l-88 -631h-70l88 621q6 52 6 94q0 141 -68 206.5t-202 65.5q-174 0 -299 -102.5t-149 -280.5l-86 -604h-70l211 1499h70l-99 -702q58 120 172 188t264 68z" />
    <glyph glyph-name="i" unicode="i" horiz-adv-x="473" 
d="M348 1305q-25 0 -40 14t-15 37q0 32 20.5 51.5t48.5 19.5q25 0 40.5 -14.5t15.5 -38.5q0 -31 -21 -50t-49 -19zM129 0l145 1028h70l-145 -1028h-70z" />
    <glyph glyph-name="j" unicode="j" horiz-adv-x="473" 
d="M348 1305q-25 0 -40 14t-15 37q0 32 20.5 51.5t48.5 19.5q25 0 40.5 -14.5t15.5 -38.5q0 -31 -21 -50t-49 -19zM-100 -438q-49 0 -95 14l9 64q50 -13 90 -13q84 0 136 52.5t64 148.5l170 1200h70l-170 -1204q-17 -126 -87.5 -194t-186.5 -68z" />
    <glyph glyph-name="k" unicode="k" horiz-adv-x="1085" 
d="M1110 1026l-535 -444l406 -582h-80l-377 539l-284 -240l-43 -299h-70l211 1497h70l-156 -1110l764 641z" />
    <glyph glyph-name="l" unicode="l" horiz-adv-x="468" 
d="M127 0l211 1499h70l-211 -1499h-70z" />
    <glyph glyph-name="m" unicode="m" horiz-adv-x="1884" 
d="M1413 1053q149 0 227 -80t78 -232q0 -53 -8 -102l-88 -639h-70l88 629q9 79 9 100q0 258 -246 258q-163 0 -274 -103.5t-136 -279.5l-84 -604h-69l88 629q8 47 8 100q0 258 -246 258q-163 0 -273.5 -103.5t-133.5 -279.5l-86 -604h-70l145 1028h70l-33 -227
q55 120 156 186t237 66q140 0 217.5 -71.5t84.5 -207.5q47 128 153 203.5t256 75.5z" />
    <glyph glyph-name="n" unicode="n" horiz-adv-x="1241" 
d="M741 1053q163 0 247.5 -81.5t84.5 -236.5q0 -55 -8 -104l-88 -631h-70l88 621q6 52 6 94q0 140 -68.5 206t-203.5 66q-175 0 -298.5 -102.5t-147.5 -280.5l-86 -604h-70l145 1028h70l-33 -231q58 120 170 188t262 68z" />
    <glyph glyph-name="o" unicode="o" horiz-adv-x="1290" 
d="M575 -27q-210 0 -332 125t-122 326q0 138 54.5 267.5t152.5 217.5q160 144 387 144q209 0 331.5 -124.5t122.5 -324.5q0 -138 -55.5 -268.5t-155.5 -218.5q-160 -144 -383 -144zM575 39q196 0 343 131q86 81 133 194.5t47 235.5q0 177 -103 282t-280 105
q-201 0 -344 -133q-85 -79 -131.5 -192t-46.5 -236q0 -176 103 -281.5t279 -105.5z" />
    <glyph glyph-name="p" unicode="p" horiz-adv-x="1343" 
d="M786 1053q199 0 319 -122.5t120 -324.5q0 -140 -57 -274t-158 -223q-155 -136 -367 -136q-161 0 -270 83.5t-137 226.5l-97 -693h-69l202 1438h70l-41 -283q68 143 197 225.5t288 82.5zM965 164q90 80 138 196.5t48 243.5q0 175 -101.5 279t-271.5 104q-174 0 -311 -108
q-98 -78 -152.5 -200t-54.5 -253q0 -175 103 -281t274 -106q191 0 328 125z" />
    <glyph glyph-name="q" unicode="q" horiz-adv-x="1343" 
d="M1147 1028h70l-201 -1438h-70l96 691q-66 -143 -194.5 -225.5t-290.5 -82.5q-200 0 -318 123.5t-118 327.5q0 135 49 260t139 213q159 156 387 156q163 0 273 -82t139 -223zM911 178q83 78 128.5 190.5t45.5 231.5q0 175 -104 281t-274 106q-98 0 -188.5 -37t-160.5 -104
q-78 -78 -121.5 -190t-43.5 -232q0 -174 102 -279.5t272 -105.5q196 0 344 139z" />
    <glyph glyph-name="r" unicode="r" horiz-adv-x="763" 
d="M702 1038q43 0 70 -6l-8 -63q-36 4 -66 4q-162 0 -278.5 -108t-143.5 -304l-79 -561h-70l145 1028h70l-35 -248q51 119 158.5 188.5t236.5 69.5z" />
    <glyph glyph-name="s" unicode="s" horiz-adv-x="1017" 
d="M461 -27q-150 0 -259 58.5t-149 156.5l58 35q40 -88 131 -136t221 -48q150 0 246 70q96 76 96 188q0 64 -47 103.5t-160 66.5l-195 47q-119 29 -175 84.5t-56 140.5q0 69 29 129t82 101q110 84 301 84q134 0 227 -45t133 -129l-57 -37q-75 147 -305 147q-171 0 -254 -71
q-84 -66 -84 -179q0 -62 46 -100t154 -66l201 -49q232 -55 232 -219q0 -74 -32.5 -140.5t-94.5 -109.5q-108 -82 -289 -82z" />
    <glyph glyph-name="t" unicode="t" horiz-adv-x="794" 
d="M418 965l-103 -729q-13 -97 32 -143t149 -46q67 0 157 19l-8 -58q-79 -24 -164 -24q-271 0 -235 249l102 732h-231l8 63h231l43 309h70l-43 -309h360l-10 -63h-358z" />
    <glyph glyph-name="u" unicode="u" horiz-adv-x="1232" 
d="M1034 1028h70l-143 -1028h-70l33 238q-56 -123 -173.5 -194t-271.5 -71q-313 0 -313 314q0 47 8 104l90 637h70l-88 -622q-8 -57 -8 -107q0 -135 63.5 -197.5t192.5 -62.5q173 0 302.5 105t153.5 278z" />
    <glyph glyph-name="v" unicode="v" horiz-adv-x="1050" 
d="M997 1028h78l-583 -1028h-78l-295 1028h71l271 -948z" />
    <glyph glyph-name="w" unicode="w" horiz-adv-x="1665" 
d="M1612 1028h71l-507 -1028h-76l-207 944l-471 -944h-78l-217 1028h68l200 -940l469 940h78l207 -940z" />
    <glyph glyph-name="x" unicode="x" horiz-adv-x="1005" 
d="M1001 1028l-448 -498l330 -530h-76l-305 485l-439 -485h-86l480 530l-310 498h76l283 -457l412 457h83z" />
    <glyph glyph-name="y" unicode="y" horiz-adv-x="1064" 
d="M1014 1028h76l-811 -1436h-78l227 398l-305 1038h72l278 -960z" />
    <glyph glyph-name="z" unicode="z" horiz-adv-x="999" 
d="M950 1028l-6 -53l-807 -912h686l-8 -63h-778l8 53l807 912h-662l11 63h749z" />
    <glyph glyph-name="braceleft" unicode="{" horiz-adv-x="720" 
d="M659 1516h123l-8 -62h-117q-98 0 -142.5 -41t-61.5 -153l-58 -424q-12 -84 -49.5 -132t-107.5 -67q63 -17 87 -65.5t13 -131.5l-59 -424q-15 -113 16.5 -152.5t130.5 -39.5h119l-8 -62h-119q-114 0 -163.5 40.5t-49.5 136.5q0 35 6 79l61 431q11 87 -19 123t-116 36h-18
l8 62h16q86 0 128.5 37.5t54.5 123.5l61 431q20 143 79.5 198.5t192.5 55.5z" />
    <glyph glyph-name="bar" unicode="|" horiz-adv-x="634" 
d="M184 -205l248 1772h66l-248 -1772h-66z" />
    <glyph glyph-name="braceright" unicode="}" horiz-adv-x="720" 
d="M618 670h21l-8 -62h-17q-86 0 -128 -37.5t-54 -124.5l-61 -430q-20 -143 -80 -198.5t-193 -55.5h-123l9 62h114q100 0 145 41t62 153l57 424q23 163 156 199q-63 17 -86 65t-12 132l57 424q17 112 -14 152t-131 40h-119l8 62h119q114 0 163.5 -40.5t49.5 -136.5
q0 -35 -6 -79l-62 -431q-11 -87 18.5 -123t114.5 -36z" />
    <glyph glyph-name="asciitilde" unicode="~" 
d="M934 565q-45 0 -98 17t-93.5 37.5t-93 37.5t-96.5 17q-113 0 -254 -96l8 63q129 92 254 92q65 0 192 -53t189 -53q111 0 250 94l-8 -64q-133 -92 -250 -92z" />
    <glyph glyph-name="uni00A0" unicode="&#xa0;" horiz-adv-x="501" 
 />
    <glyph glyph-name="exclamdown" unicode="&#xa1;" horiz-adv-x="550" 
d="M344 1028q29 0 44 -17.5t13 -45.5q-1 -28 -21 -46t-46 -18q-28 0 -44.5 18t-13.5 46q2 25 21.5 44t46.5 19zM324 635l-140 -1047h-75l153 1047h62z" />
    <glyph glyph-name="cent" unicode="&#xa2;" horiz-adv-x="1189" 
d="M1085 981q-33 98 -119.5 153t-205.5 58l-131 -950q117 5 217.5 60t161.5 151l55 -37q-73 -112 -188.5 -173.5t-256.5 -64.5l-24 -178h-57l24 180q-190 12 -298.5 132t-108.5 311q0 140 56.5 275t158.5 224q143 121 344 133l24 179h58l-25 -179q137 -5 236.5 -66.5
t140.5 -170.5zM227 627q0 -167 92 -270t252 -113l131 946q-163 -12 -292 -125q-87 -79 -135 -195.5t-48 -242.5z" />
    <glyph glyph-name="sterling" unicode="&#xa3;" horiz-adv-x="1081" 
d="M754 1460q132 0 226.5 -62t137.5 -179l-59 -33q-36 103 -114.5 155t-190.5 52q-148 0 -242.5 -85t-116.5 -243l-45 -326h541l-8 -63h-543l-86 -608h704l-10 -68h-950l10 68h174l86 608h-186l10 63h184l48 328q25 184 138 288.5t292 104.5z" />
    <glyph glyph-name="currency" unicode="&#xa4;" horiz-adv-x="1148" 
d="M952 965q54 -82 54 -193q0 -94 -33 -179t-94 -149l118 -137l-43 -37l-114 136q-126 -107 -293 -107q-162 0 -258 102l-156 -137l-39 43l160 139q-53 80 -53 195q0 193 125 328l-117 137l41 37l117 -137q122 106 288 106t263 -100l155 137l37 -43zM545 365
q167 0 280 115.5t113 287.5q0 128 -74.5 204.5t-204.5 76.5q-167 0 -281 -117t-114 -287q0 -128 75 -204t206 -76z" />
    <glyph glyph-name="yen" unicode="&#xa5;" horiz-adv-x="1124" 
d="M1227 1434l-578 -779h361l-9 -57h-391l-35 -242h392l-9 -57h-391l-41 -299h-71l41 299h-387l8 57h387l35 242h-387l8 57h354l-356 779h75l349 -760l561 760h84z" />
    <glyph glyph-name="brokenbar" unicode="&#xa6;" horiz-adv-x="634" 
d="M332 858l100 709h66l-99 -709h-67zM184 -205l97 692h67l-98 -692h-66z" />
    <glyph glyph-name="section" unicode="&#xa7;" horiz-adv-x="1103" 
d="M690 1395q-168 0 -262 -74t-94 -207q0 -72 50.5 -112.5t154.5 -65.5l204 -51q242 -58 242 -242q0 -135 -80 -226t-207 -112q104 -32 151.5 -86.5t47.5 -138.5q0 -163 -119 -255.5t-309 -92.5q-156 0 -265.5 58t-148.5 159l58 31q40 -88 132.5 -136.5t225.5 -48.5
q159 0 257.5 75.5t98.5 205.5q0 68 -49 111t-157 71l-201 49q-123 30 -183.5 90.5t-60.5 157.5q0 135 79.5 225t205.5 109q-197 62 -197 227q0 164 117 254t309 90q137 0 231 -46t134 -130l-56 -37q-74 148 -309 148zM913 641q0 73 -51 116.5t-164 71.5l-88 23
q-153 25 -258.5 -62t-105.5 -239q0 -71 51 -115.5t162 -70.5l92 -23q151 -25 256.5 62t105.5 237z" />
    <glyph glyph-name="dieresis" unicode="&#xa8;" horiz-adv-x="1269" 
d="M535 1305q-25 0 -40.5 15t-15.5 38q0 28 21.5 48.5t50.5 20.5q25 0 40 -14t15 -39q0 -28 -20.5 -48.5t-50.5 -20.5zM958 1305q-25 0 -40 15t-15 38q0 28 20.5 48.5t49.5 20.5q25 0 40 -14t15 -39q0 -28 -20 -48.5t-50 -20.5z" />
    <glyph glyph-name="copyright" unicode="&#xa9;" horiz-adv-x="1781" 
d="M819 -27q-140 0 -261.5 49t-205.5 134t-132 202.5t-48 251.5q0 181 82 352.5t223 294.5q112 97 251.5 150t291.5 53q187 0 335 -84.5t229 -229.5t81 -323q0 -189 -88 -366.5t-240 -298.5q-230 -185 -518 -185zM823 35q132 0 256.5 45t225.5 127q139 114 218 277t79 335
q0 252 -163.5 416t-424.5 164q-140 0 -268.5 -49.5t-229.5 -139.5q-131 -113 -204.5 -272t-73.5 -324q0 -164 72.5 -295.5t206.5 -207.5t306 -76zM881 311q-157 0 -248.5 92t-91.5 244q0 201 125.5 338t320.5 137q109 0 189.5 -46t113.5 -134l-55 -33q-26 73 -93 112.5
t-159 39.5q-164 0 -269.5 -121.5t-105.5 -290.5q0 -127 73.5 -201.5t197.5 -74.5q91 0 171 39.5t130 111.5l49 -32q-58 -88 -149 -134.5t-199 -46.5z" />
    <glyph glyph-name="ordfeminine" unicode="&#xaa;" horiz-adv-x="989" 
d="M647 1516q153 0 226 -81.5t51 -228.5l-82 -585h-64l29 202q-46 -102 -144.5 -160.5t-226.5 -58.5q-127 0 -198.5 58t-71.5 161q0 65 26 123.5t74 95.5q91 70 262 70h318l12 94q15 119 -38 183.5t-175 64.5q-194 0 -313 -149l-45 41q135 170 360 170zM449 662
q148 0 252 87.5t126 235.5l11 72h-312q-144 0 -219 -60q-69 -63 -69 -172q0 -78 55 -120.5t156 -42.5z" />
    <glyph glyph-name="guillemotleft" unicode="&#xab;" horiz-adv-x="956" 
d="M528 938l-358 -426l238 -422h-80l-238 424l354 424h84zM909 938l-356 -426l235 -422h-77l-240 424l354 424h84z" />
    <glyph glyph-name="logicalnot" unicode="&#xac;" 
d="M315 680h871l-41 -291h-68l33 229h-805z" />
    <glyph glyph-name="registered" unicode="&#xae;" horiz-adv-x="1191" 
d="M727 1462q169 0 279 -109.5t110 -273.5q0 -113 -54 -219.5t-142 -177.5q-137 -111 -314 -111q-170 0 -279.5 109.5t-109.5 273.5q0 109 51 212.5t138 176.5q142 119 321 119zM891 717q85 69 130.5 164t45.5 194q0 149 -95 245.5t-249 96.5q-164 0 -291 -108
q-77 -67 -121.5 -160.5t-44.5 -192.5q0 -147 95.5 -244.5t248.5 -97.5t281 103zM877 1139q0 -75 -45 -119t-123 -49l127 -193h-62l-125 193h-98l-27 -193h-55l66 479h194q71 0 109.5 -31t38.5 -87zM694 1018q59 0 92 30t33 85q0 75 -98 75h-137l-27 -190h137z" />
    <glyph glyph-name="macron" unicode="&#xaf;" horiz-adv-x="1269" 
d="M446 1292l11 62h594l-11 -62h-594z" />
    <glyph glyph-name="degree" unicode="&#xb0;" horiz-adv-x="745" 
d="M432 909q-109 0 -176.5 67.5t-67.5 168.5q0 131 90 223t224 92q109 0 176 -66t67 -169q0 -130 -91.5 -223t-221.5 -93zM436 969q104 0 175 73t71 179q0 82 -49 131t-133 49q-107 0 -177.5 -73t-70.5 -181q0 -81 50 -129.5t134 -48.5z" />
    <glyph glyph-name="plusminus" unicode="&#xb1;" 
d="M788 700h402l-10 -61h-402l-55 -397h-66l56 397h-404l10 61h404l55 398h66zM219 0l8 63h873l-10 -63h-871z" />
    <glyph glyph-name="uni00B2" unicode="&#xb2;" horiz-adv-x="675" 
d="M518 1042l-309 -256h434l-8 -59h-531l7 49l350 291q86 70 131 130.5t45 127.5q0 61 -41 96t-109 35q-164 0 -247 -164l-50 27q43 95 122.5 146t176.5 51q92 0 151.5 -51.5t59.5 -133.5t-47 -148.5t-135 -140.5z" />
    <glyph glyph-name="uni00B3" unicode="&#xb3;" horiz-adv-x="665" 
d="M508 1122q143 -34 143 -166q0 -108 -82.5 -175.5t-208.5 -67.5q-80 0 -146.5 29.5t-102.5 86.5l41 41q68 -98 208 -98q99 0 163.5 51.5t64.5 134.5q0 136 -211 136h-60l7 57h94q96 0 154.5 49t58.5 127q0 61 -42.5 95t-117.5 34q-145 0 -238 -117l-43 39q55 67 129 102.5
t154 35.5q102 0 162.5 -50.5t60.5 -134.5q0 -82 -52.5 -138.5t-135.5 -70.5z" />
    <glyph glyph-name="acute" unicode="&#xb4;" horiz-adv-x="1269" 
d="M676 1202l295 314h90l-307 -314h-78z" />
    <glyph glyph-name="uni00B5" unicode="&#xb5;" horiz-adv-x="1249" 
d="M1051 1028h69l-143 -1028h-70l33 238q-55 -123 -168.5 -194t-265.5 -71q-232 0 -287 183l-86 -607h-70l209 1479h70l-90 -633q-44 -356 266 -356q175 0 299.5 105t151.5 290z" />
    <glyph glyph-name="paragraph" unicode="&#xb6;" horiz-adv-x="1298" 
d="M428 -266l158 1116h-41q-162 0 -247 69.5t-85 180.5q0 104 57.5 180.5t154.5 115t220 38.5h92l-237 -1700h-72zM836 -266l237 1700h70l-238 -1700h-69z" />
    <glyph glyph-name="periodcentered" unicode="&#xb7;" horiz-adv-x="450" 
d="M250 674q-29 0 -44 16.5t-13 44.5q1 30 21 47t48 17t43.5 -17.5t13.5 -46.5q-2 -25 -22 -43t-47 -18z" />
    <glyph glyph-name="cedilla" unicode="&#xb8;" horiz-adv-x="1269" 
d="M352 -397l201 413h61l-188 -413h-74z" />
    <glyph glyph-name="uni00B9" unicode="&#xb9;" horiz-adv-x="493" 
d="M436 1501h53l-108 -774h-64l101 707l-236 -115l8 63z" />
    <glyph glyph-name="ordmasculine" unicode="&#xba;" horiz-adv-x="1112" 
d="M573 598q-179 0 -283 105t-104 274q0 119 47 230.5t132 185.5q132 123 325 123q178 0 282.5 -105.5t104.5 -275.5q0 -121 -49.5 -234.5t-136.5 -187.5q-134 -115 -318 -115zM573 659q158 0 277 103q74 65 116 164t42 202q0 148 -86 237t-230 89q-165 0 -282 -108
q-72 -65 -113 -162.5t-41 -198.5q0 -148 85.5 -237t231.5 -89z" />
    <glyph glyph-name="guillemotright" unicode="&#xbb;" horiz-adv-x="956" 
d="M246 936l239 -422l-354 -424h-84l356 424l-235 422h78zM629 936l239 -422l-354 -424h-84l356 424l-235 422h78z" />
    <glyph glyph-name="onequarter" unicode="&#xbc;" horiz-adv-x="1536" 
d="M393 672l99 704l-236 -112l8 63l246 119h55l-108 -774h-64zM1327 1434h74l-1202 -1434h-74zM1264 762l-76 -537h121l-9 -55h-120l-25 -182h-59l24 182h-426l8 55l484 537h78zM776 225h352l64 463z" />
    <glyph glyph-name="onehalf" unicode="&#xbd;" horiz-adv-x="1536" 
d="M375 672l100 706l-235 -114l8 63l246 119h53l-109 -774h-63zM1309 1434h75l-1204 -1434h-74zM1206 303l-311 -256h434l-8 -59h-530l8 49l350 291q86 70 131 130.5t45 127.5q0 61 -41 96t-110 35q-76 0 -140.5 -41t-105.5 -123l-49 27q42 95 121.5 145.5t177.5 50.5
q93 0 152 -51.5t59 -132.5t-47 -147t-136 -142z" />
    <glyph glyph-name="threequarters" unicode="&#xbe;" horiz-adv-x="1536" 
d="M678 901q0 -108 -82.5 -176t-206.5 -68q-81 0 -148.5 30t-103.5 87l43 41q65 -98 207 -98q99 0 163 51.5t64 134.5q0 135 -211 135h-59l8 58h94q95 0 153 49t58 127q0 61 -42 95t-117 34q-145 0 -238 -117l-43 39q113 137 285 137q101 0 161 -50t60 -134
q0 -82 -51.5 -139t-134.5 -72q141 -35 141 -164zM1411 1434h74l-1202 -1434h-74zM1348 762l-76 -537h121l-9 -55h-120l-25 -182h-59l24 182h-426l8 55l484 537h78zM860 225h352l64 463z" />
    <glyph glyph-name="questiondown" unicode="&#xbf;" horiz-adv-x="927" 
d="M571 1028q29 0 44.5 -17.5t13.5 -45.5q-1 -28 -21.5 -46t-46.5 -18q-28 0 -44 18t-13 46q2 25 21 44t46 19zM555 635l-18 -133q-14 -102 -49 -154.5t-142 -130.5l-113 -84q-174 -131 -174 -293q0 -100 68.5 -154.5t185.5 -54.5q126 0 232.5 63t171.5 179l51 -37
q-67 -128 -189.5 -200t-269.5 -72q-146 0 -234.5 73t-88.5 195q0 199 223 361l110 83q84 63 110 103t38 123l18 133h70z" />
    <glyph glyph-name="Agrave" unicode="&#xc0;" horiz-adv-x="1396" 
d="M961 1608h-76l-219 313h86zM1200 0l-123 438h-774l-246 -438h-77l806 1434h82l406 -1434h-74zM342 506h717l-240 854z" />
    <glyph glyph-name="Aacute" unicode="&#xc1;" horiz-adv-x="1396" 
d="M1133 1921l-308 -313h-77l294 313h91zM1200 0l-123 438h-774l-246 -438h-77l806 1434h82l406 -1434h-74zM342 506h717l-240 854z" />
    <glyph glyph-name="Acircumflex" unicode="&#xc2;" horiz-adv-x="1396" 
d="M895 1874l-281 -266h-79l327 313h68l239 -313h-71zM1200 0l-123 438h-774l-246 -438h-77l806 1434h82l406 -1434h-74zM342 506h717l-240 854z" />
    <glyph glyph-name="Atilde" unicode="&#xc3;" horiz-adv-x="1396" 
d="M735 1810q-43 0 -75.5 -38t-41.5 -105h-57q12 93 61 146t119 53q39 0 74 -20t80 -68q38 -40 63 -54t56 -14q42 0 74.5 39t41.5 106h58q-12 -94 -60.5 -147t-119.5 -53q-40 0 -75 19t-81 69q-36 39 -61 53t-56 14zM1200 0l-123 438h-774l-246 -438h-77l806 1434h82
l406 -1434h-74zM342 506h717l-240 854z" />
    <glyph glyph-name="Adieresis" unicode="&#xc4;" horiz-adv-x="1396" 
d="M655 1710q-25 0 -40 15t-15 38q0 28 21.5 49t50.5 21q25 0 40 -14t15 -39q0 -28 -21 -49t-51 -21zM1079 1710q-25 0 -40 15t-15 38q0 28 20.5 49t49.5 21q25 0 40 -14t15 -39q0 -28 -20 -49t-50 -21zM1200 0l-123 438h-774l-246 -438h-77l806 1434h82l406 -1434h-74z
M342 506h717l-240 854z" />
    <glyph glyph-name="Aring" unicode="&#xc5;" horiz-adv-x="1396" 
d="M854 1608q-86 0 -139 51t-53 131q0 101 73 171.5t176 70.5q85 0 139 -51.5t54 -129.5q0 -101 -74 -172t-176 -71zM909 1978q-80 0 -134 -53t-54 -131q0 -61 36 -96t101 -35q79 0 132.5 52.5t53.5 131.5q0 61 -35.5 96t-99.5 35zM1200 0l-123 438h-774l-246 -438h-77
l806 1434h82l406 -1434h-74zM342 506h717l-240 854z" />
    <glyph glyph-name="AE" unicode="&#xc6;" horiz-adv-x="2211" 
d="M2144 1366h-852l-84 -608h817l-10 -68h-819l-86 -622h872l-8 -68h-946l57 410h-679l-351 -410h-88l1225 1434h962zM1096 477l123 887l-756 -887h633z" />
    <glyph glyph-name="Ccedilla" unicode="&#xc7;" horiz-adv-x="1593" 
d="M553 1241q-145 -113 -224 -283t-79 -360q0 -251 149.5 -403t397.5 -152q185 0 345.5 87t252.5 247l59 -33q-97 -170 -272.5 -270t-382.5 -101l-168 -370h-74l180 372q-257 17 -411 187t-154 432q0 207 91 395t251 309q211 162 481 162q209 0 359.5 -99t201.5 -271
l-63 -33q-49 161 -181.5 247.5t-318.5 86.5q-245 0 -440 -150z" />
    <glyph glyph-name="Egrave" unicode="&#xc8;" horiz-adv-x="1357" 
d="M956 1608h-75l-219 313h86zM1290 1366h-854l-84 -608h815l-12 -68h-815l-86 -622h872l-8 -68h-946l201 1434h925z" />
    <glyph glyph-name="Eacute" unicode="&#xc9;" horiz-adv-x="1357" 
d="M1128 1921l-307 -313h-78l295 313h90zM1290 1366h-854l-84 -608h815l-12 -68h-815l-86 -622h872l-8 -68h-946l201 1434h925z" />
    <glyph glyph-name="Ecircumflex" unicode="&#xca;" horiz-adv-x="1357" 
d="M891 1874l-281 -266h-80l328 313h68l239 -313h-71zM1290 1366h-854l-84 -608h815l-12 -68h-815l-86 -622h872l-8 -68h-946l201 1434h925z" />
    <glyph glyph-name="Edieresis" unicode="&#xcb;" horiz-adv-x="1357" 
d="M651 1710q-25 0 -40 15t-15 38q0 28 21.5 49t50.5 21q25 0 40 -14t15 -39q0 -28 -21 -49t-51 -21zM1075 1710q-25 0 -40 15t-15 38q0 28 20.5 49t49.5 21q25 0 40 -14t15 -39q0 -28 -20 -49t-50 -21zM1290 1366h-854l-84 -608h815l-12 -68h-815l-86 -622h872l-8 -68h-946
l201 1434h925z" />
    <glyph glyph-name="Igrave" unicode="&#xcc;" horiz-adv-x="569" 
d="M471 1608l-219 313h86l209 -313h-76zM176 0l201 1434h74l-203 -1434h-72z" />
    <glyph glyph-name="Iacute" unicode="&#xcd;" horiz-adv-x="569" 
d="M332 1608l295 313h90l-307 -313h-78zM176 0l201 1434h74l-203 -1434h-72z" />
    <glyph glyph-name="Icircumflex" unicode="&#xce;" horiz-adv-x="569" 
d="M756 1608h-72l-203 266l-280 -266h-80l328 313h67zM176 0l201 1434h74l-203 -1434h-72z" />
    <glyph glyph-name="Idieresis" unicode="&#xcf;" horiz-adv-x="569" 
d="M242 1710q-25 0 -40.5 15t-15.5 38q0 28 21.5 49t50.5 21q25 0 40 -14t15 -39q0 -28 -20.5 -49t-50.5 -21zM666 1710q-25 0 -40.5 15t-15.5 38q0 28 20.5 49t49.5 21q25 0 40 -14t15 -39q0 -29 -19.5 -49.5t-49.5 -20.5zM176 0l201 1434h74l-203 -1434h-72z" />
    <glyph glyph-name="Eth" unicode="&#xd0;" horiz-adv-x="1595" 
d="M852 1434q291 0 461 -152t170 -428q0 -185 -67 -358.5t-191 -290.5q-220 -205 -563 -205h-459l96 686h-221l10 62h219l96 686h449zM1176 258q112 106 170.5 265t58.5 327q0 252 -146 384t-409 132h-381l-88 -618h461l-11 -62h-458l-88 -618h377q318 0 514 190z" />
    <glyph glyph-name="Ntilde" unicode="&#xd1;" horiz-adv-x="1619" 
d="M846 1810q-43 0 -75.5 -38t-41.5 -105h-57q12 93 61 146t119 53q39 0 74 -20t80 -68q38 -40 62.5 -54t55.5 -14q43 0 75.5 39t41.5 106h57q-12 -94 -60.5 -147t-119.5 -53q-39 0 -74 19t-81 69q-36 39 -61 53t-56 14zM1434 1434h71l-200 -1434h-74l-803 1321l-184 -1321
h-72l201 1434h71l805 -1321z" />
    <glyph glyph-name="Ograve" unicode="&#xd2;" horiz-adv-x="1746" 
d="M1059 1608l-219 313h86l209 -313h-76zM805 -27q-188 0 -332.5 80.5t-222.5 223.5t-78 325q0 186 78.5 359.5t216.5 293.5q110 97 246.5 151t285.5 54q185 0 330 -81.5t224 -224.5t79 -323q0 -185 -80.5 -361t-220.5 -298q-231 -199 -526 -199zM803 43q271 0 479 180
q129 114 200.5 275t71.5 333q0 248 -152.5 404t-402.5 156q-137 0 -262.5 -49.5t-224.5 -141.5q-124 -112 -193 -270.5t-69 -327.5q0 -247 152.5 -403t400.5 -156z" />
    <glyph glyph-name="Oacute" unicode="&#xd3;" horiz-adv-x="1746" 
d="M922 1608l295 313h90l-308 -313h-77zM805 -27q-188 0 -332.5 80.5t-222.5 223.5t-78 325q0 186 78.5 359.5t216.5 293.5q110 97 246.5 151t285.5 54q185 0 330 -81.5t224 -224.5t79 -323q0 -185 -80.5 -361t-220.5 -298q-231 -199 -526 -199zM803 43q271 0 479 180
q129 114 200.5 275t71.5 333q0 248 -152.5 404t-402.5 156q-137 0 -262.5 -49.5t-224.5 -141.5q-124 -112 -193 -270.5t-69 -327.5q0 -247 152.5 -403t400.5 -156z" />
    <glyph glyph-name="Ocircumflex" unicode="&#xd4;" horiz-adv-x="1746" 
d="M1069 1874l-281 -266h-79l327 313h68l239 -313h-71zM999 1460q185 0 330 -81.5t224 -224.5t79 -323q0 -185 -80.5 -361t-220.5 -298q-231 -199 -526 -199q-188 0 -332.5 80.5t-222.5 223.5t-78 325q0 186 78.5 359.5t216.5 293.5q110 97 246.5 151t285.5 54zM1282 223
q129 114 200.5 275t71.5 333q0 248 -152.5 404t-402.5 156q-137 0 -262.5 -49.5t-224.5 -141.5q-124 -112 -193 -270.5t-69 -327.5q0 -247 152.5 -403t400.5 -156q271 0 479 180z" />
    <glyph glyph-name="Otilde" unicode="&#xd5;" horiz-adv-x="1746" 
d="M1182 1655q-40 0 -75 19t-81 69q-36 39 -61 53t-56 14q-43 0 -75 -38t-41 -105h-58q12 93 61 146t119 53q39 0 74 -20t80 -68q38 -40 63 -54t56 -14q43 0 75.5 39t41.5 106h57q-12 -94 -60.5 -147t-119.5 -53zM805 -27q-188 0 -332.5 80.5t-222.5 223.5t-78 325
q0 186 78.5 359.5t216.5 293.5q110 97 246.5 151t285.5 54q185 0 330 -81.5t224 -224.5t79 -323q0 -185 -80.5 -361t-220.5 -298q-231 -199 -526 -199zM803 43q271 0 479 180q129 114 200.5 275t71.5 333q0 248 -152.5 404t-402.5 156q-137 0 -262.5 -49.5t-224.5 -141.5
q-124 -112 -193 -270.5t-69 -327.5q0 -247 152.5 -403t400.5 -156z" />
    <glyph glyph-name="Odieresis" unicode="&#xd6;" horiz-adv-x="1746" 
d="M829 1710q-25 0 -40 15t-15 38q0 28 21.5 49t50.5 21q25 0 40 -14t15 -39q0 -28 -21 -49t-51 -21zM1253 1710q-25 0 -40 15t-15 38q0 28 20.5 49t49.5 21q25 0 40 -14t15 -39q0 -28 -20 -49t-50 -21zM805 -27q-188 0 -332.5 80.5t-222.5 223.5t-78 325q0 186 78.5 359.5
t216.5 293.5q110 97 246.5 151t285.5 54q185 0 330 -81.5t224 -224.5t79 -323q0 -185 -80.5 -361t-220.5 -298q-231 -199 -526 -199zM803 43q271 0 479 180q129 114 200.5 275t71.5 333q0 248 -152.5 404t-402.5 156q-137 0 -262.5 -49.5t-224.5 -141.5
q-124 -112 -193 -270.5t-69 -327.5q0 -247 152.5 -403t400.5 -156z" />
    <glyph glyph-name="multiply" unicode="&#xd7;" 
d="M1169 981l-378 -334l284 -330l-51 -43l-283 330l-376 -332l-41 45l376 334l-282 330l49 43l285 -330l374 332z" />
    <glyph glyph-name="Oslash" unicode="&#xd8;" horiz-adv-x="1746" 
d="M1708 1384l-192 -170q116 -163 116 -383q0 -185 -80.5 -361t-220.5 -298q-231 -199 -526 -199q-150 0 -272 52t-207 147l-191 -168l-39 47l193 168q-117 157 -117 383q0 186 78.5 359.5t216.5 293.5q110 97 246.5 151t285.5 54q148 0 270.5 -52t207.5 -146l192 168z
M512 1200q-124 -112 -193 -270.5t-69 -327.5q0 -189 96 -334l1077 944q-155 179 -424 179q-137 0 -262.5 -49.5t-224.5 -141.5zM1282 223q129 114 200.5 275t71.5 333q0 191 -96 336l-1077 -944q75 -86 183 -133t239 -47q271 0 479 180z" />
    <glyph glyph-name="Ugrave" unicode="&#xd9;" horiz-adv-x="1564" 
d="M969 1608l-219 313h86l208 -313h-75zM709 -27q-231 0 -361.5 115.5t-130.5 325.5q0 48 6 100l129 920h74l-129 -916q-6 -50 -6 -92q0 -184 110 -283.5t310 -99.5q228 0 377.5 125.5t181.5 349.5l127 916h73l-129 -920q-35 -255 -203.5 -398t-428.5 -143z" />
    <glyph glyph-name="Uacute" unicode="&#xda;" horiz-adv-x="1564" 
d="M829 1608l295 313h90l-307 -313h-78zM709 -27q-231 0 -361.5 115.5t-130.5 325.5q0 48 6 100l129 920h74l-129 -916q-6 -50 -6 -92q0 -184 110 -283.5t310 -99.5q228 0 377.5 125.5t181.5 349.5l127 916h73l-129 -920q-35 -255 -203.5 -398t-428.5 -143z" />
    <glyph glyph-name="Ucircumflex" unicode="&#xdb;" horiz-adv-x="1564" 
d="M979 1874l-281 -266h-80l328 313h68l239 -313h-71zM1397 1434h73l-129 -920q-35 -255 -203.5 -398t-428.5 -143q-231 0 -361.5 115.5t-130.5 325.5q0 48 6 100l129 920h74l-129 -916q-6 -50 -6 -92q0 -184 110 -283.5t310 -99.5q228 0 377.5 125.5t181.5 349.5z" />
    <glyph glyph-name="Udieresis" unicode="&#xdc;" horiz-adv-x="1564" 
d="M739 1710q-25 0 -40 15t-15 38q0 28 21.5 49t50.5 21q25 0 40 -14t15 -39q0 -28 -21 -49t-51 -21zM1163 1710q-25 0 -40 15t-15 38q0 28 20.5 49t49.5 21q25 0 40 -14t15 -39q0 -28 -20 -49t-50 -21zM709 -27q-231 0 -361.5 115.5t-130.5 325.5q0 48 6 100l129 920h74
l-129 -916q-6 -50 -6 -92q0 -184 110 -283.5t310 -99.5q228 0 377.5 125.5t181.5 349.5l127 916h73l-129 -920q-35 -255 -203.5 -398t-428.5 -143z" />
    <glyph glyph-name="Yacute" unicode="&#xdd;" horiz-adv-x="1261" 
d="M1063 1921l-307 -313h-78l295 313h90zM1278 1434h90l-686 -816l-88 -618h-74l88 618l-456 816h79l418 -750z" />
    <glyph glyph-name="Thorn" unicode="&#xde;" horiz-adv-x="1382" 
d="M881 1161q204 0 314 -91t110 -259q0 -107 -41.5 -209.5t-114.5 -167.5q-137 -125 -387 -125h-475l-43 -309h-72l201 1434h73l-38 -273h473zM1106 489q62 59 93.5 145.5t31.5 174.5q0 141 -92 213t-271 72h-469l-102 -717h469q219 0 340 112z" />
    <glyph glyph-name="germandbls" unicode="&#xdf;" horiz-adv-x="1230" 
d="M776 762q159 -9 243.5 -92.5t84.5 -220.5q0 -216 -140 -339.5t-372 -123.5q-76 0 -141 16l8 64q67 -17 133 -17q208 0 323 108.5t115 297.5q0 132 -84.5 199t-247.5 67h-149l10 63h57q202 0 318 113q57 55 86 135t29 166q0 124 -74 189t-215 65q-176 0 -280.5 -92
t-129.5 -266l-153 -1094h-70l154 1096q29 204 153 312t320 108q171 0 268.5 -83.5t97.5 -234.5q0 -97 -37.5 -188.5t-105.5 -153.5q-82 -70 -201 -94z" />
    <glyph glyph-name="agrave" unicode="&#xe0;" horiz-adv-x="1343" 
d="M895 1202h-76l-219 314h86zM1147 1028h70l-144 -1028h-69l38 285q-66 -146 -194.5 -229t-290.5 -83q-200 0 -318 123.5t-118 327.5q0 143 54 272.5t153 216.5q156 140 370 140q161 0 271 -81t139 -222zM887 156q94 78 145 196.5t51 247.5q0 175 -102.5 281t-273.5 106
q-193 0 -330 -125q-88 -81 -136 -196t-48 -240q0 -174 103 -280.5t273 -106.5q182 0 318 117z" />
    <glyph glyph-name="aacute" unicode="&#xe1;" horiz-adv-x="1343" 
d="M1065 1516l-307 -314h-78l295 314h90zM1147 1028h70l-144 -1028h-69l38 285q-66 -146 -194.5 -229t-290.5 -83q-200 0 -318 123.5t-118 327.5q0 143 54 272.5t153 216.5q156 140 370 140q161 0 271 -81t139 -222zM887 156q94 78 145 196.5t51 247.5q0 175 -102.5 281
t-273.5 106q-193 0 -330 -125q-88 -81 -136 -196t-48 -240q0 -174 103 -280.5t273 -106.5q182 0 318 117z" />
    <glyph glyph-name="acircumflex" unicode="&#xe2;" horiz-adv-x="1343" 
d="M829 1468l-280 -266h-80l328 314h67l240 -314h-72zM1147 1028h70l-144 -1028h-69l38 285q-66 -146 -194.5 -229t-290.5 -83q-200 0 -318 123.5t-118 327.5q0 143 54 272.5t153 216.5q156 140 370 140q161 0 271 -81t139 -222zM887 156q94 78 145 196.5t51 247.5
q0 175 -102.5 281t-273.5 106q-193 0 -330 -125q-88 -81 -136 -196t-48 -240q0 -174 103 -280.5t273 -106.5q182 0 318 117z" />
    <glyph glyph-name="atilde" unicode="&#xe3;" horiz-adv-x="1343" 
d="M670 1405q-43 0 -75.5 -38t-41.5 -105h-57q12 92 61 145t119 53q39 0 73.5 -20t79.5 -68q38 -39 63 -53t56 -14q43 0 75.5 39t41.5 106h57q-12 -94 -60.5 -147.5t-119.5 -53.5q-40 0 -75 19t-81 69q-37 40 -61 54t-55 14zM1147 1028h70l-144 -1028h-69l38 285
q-66 -146 -194.5 -229t-290.5 -83q-200 0 -318 123.5t-118 327.5q0 143 54 272.5t153 216.5q156 140 370 140q161 0 271 -81t139 -222zM887 156q94 78 145 196.5t51 247.5q0 175 -102.5 281t-273.5 106q-193 0 -330 -125q-88 -81 -136 -196t-48 -240q0 -174 103 -280.5
t273 -106.5q182 0 318 117z" />
    <glyph glyph-name="adieresis" unicode="&#xe4;" horiz-adv-x="1343" 
d="M590 1305q-25 0 -40 15t-15 38q0 28 21 48.5t50 20.5q25 0 40.5 -14.5t15.5 -38.5q0 -28 -21 -48.5t-51 -20.5zM1014 1305q-25 0 -40.5 15t-15.5 38q0 28 20.5 48.5t49.5 20.5q25 0 40 -14t15 -39q0 -28 -19.5 -48.5t-49.5 -20.5zM1147 1028h70l-144 -1028h-69l38 285
q-66 -146 -194.5 -229t-290.5 -83q-200 0 -318 123.5t-118 327.5q0 143 54 272.5t153 216.5q156 140 370 140q161 0 271 -81t139 -222zM887 156q94 78 145 196.5t51 247.5q0 175 -102.5 281t-273.5 106q-193 0 -330 -125q-88 -81 -136 -196t-48 -240q0 -174 103 -280.5
t273 -106.5q182 0 318 117z" />
    <glyph glyph-name="aring" unicode="&#xe5;" horiz-adv-x="1343" 
d="M788 1202q-86 0 -139 51t-53 131q0 101 73.5 171.5t176.5 70.5q85 0 138.5 -51t53.5 -129q0 -101 -74 -172.5t-176 -71.5zM844 1573q-80 0 -134.5 -53t-54.5 -131q0 -61 36.5 -96.5t101.5 -35.5q78 0 132 53t54 132q0 61 -35.5 96t-99.5 35zM1147 1028h70l-144 -1028h-69
l38 285q-66 -146 -194.5 -229t-290.5 -83q-200 0 -318 123.5t-118 327.5q0 143 54 272.5t153 216.5q156 140 370 140q161 0 271 -81t139 -222zM887 156q94 78 145 196.5t51 247.5q0 175 -102.5 281t-273.5 106q-193 0 -330 -125q-88 -81 -136 -196t-48 -240
q0 -174 103 -280.5t273 -106.5q182 0 318 117z" />
    <glyph glyph-name="ae" unicode="&#xe6;" horiz-adv-x="1961" 
d="M1450 1053q184 0 297 -110t113 -290q0 -33 -7 -80l-14 -63h-881q-6 -47 -6 -94q0 -176 100 -276.5t265 -100.5q121 0 228.5 54t183.5 155l49 -37q-82 -114 -201.5 -176t-261.5 -62q-170 0 -280 88t-136 242q-51 -156 -180.5 -243t-310.5 -87q-156 0 -242 68t-86 190
q0 76 30.5 144t86.5 112q111 82 309 82h391l18 125q5 25 5 60q0 116 -70.5 175.5t-204.5 59.5q-237 0 -375 -178l-47 41q153 201 426 201q161 0 246.5 -74.5t85.5 -212.5q77 136 199 211.5t270 75.5zM1124 854q-111 -105 -153 -285h811q6 44 6 80q0 157 -93 247.5t-245 90.5
q-187 0 -326 -133zM414 35q182 0 310.5 107.5t154.5 289.5l10 78h-387q-174 0 -264 -72q-42 -35 -63 -90t-21 -112q0 -97 67 -149t193 -52z" />
    <glyph glyph-name="ccedilla" unicode="&#xe7;" horiz-adv-x="1169" 
d="M360 848q-80 -78 -123.5 -191t-43.5 -233q0 -178 101.5 -281.5t280.5 -103.5q272 0 404 252l61 -29q-70 -135 -186.5 -208t-259.5 -81l-170 -370h-74l180 370q-193 10 -302 131.5t-109 313.5q0 140 52.5 267t147.5 214q160 154 396 154q154 0 257.5 -72.5t137.5 -216.5
l-68 -27q-65 250 -331 250q-212 0 -351 -139z" />
    <glyph glyph-name="egrave" unicode="&#xe8;" horiz-adv-x="1218" 
d="M834 1202h-76l-219 314h86zM1094 506h-897q-7 -51 -7 -88q0 -178 101.5 -278.5t275.5 -100.5q125 0 234 54t184 155l49 -39q-82 -113 -203 -174.5t-266 -61.5q-205 0 -325.5 120t-120.5 323q0 144 55 277t156 222q157 138 366 138q187 0 302.5 -110.5t115.5 -293.5
q0 -53 -20 -143zM373 864q-121 -109 -166 -299h829q6 52 6 80q0 159 -94.5 250.5t-251.5 91.5q-188 0 -323 -123z" />
    <glyph glyph-name="eacute" unicode="&#xe9;" horiz-adv-x="1218" 
d="M1004 1516l-308 -314h-78l295 314h91zM1094 506h-897q-7 -51 -7 -88q0 -178 101.5 -278.5t275.5 -100.5q125 0 234 54t184 155l49 -39q-82 -113 -203 -174.5t-266 -61.5q-205 0 -325.5 120t-120.5 323q0 144 55 277t156 222q157 138 366 138q187 0 302.5 -110.5
t115.5 -293.5q0 -53 -20 -143zM373 864q-121 -109 -166 -299h829q6 52 6 80q0 159 -94.5 250.5t-251.5 91.5q-188 0 -323 -123z" />
    <glyph glyph-name="ecircumflex" unicode="&#xea;" horiz-adv-x="1218" 
d="M768 1468l-281 -266h-79l327 314h68l239 -314h-71zM1094 506h-897q-7 -51 -7 -88q0 -178 101.5 -278.5t275.5 -100.5q125 0 234 54t184 155l49 -39q-82 -113 -203 -174.5t-266 -61.5q-205 0 -325.5 120t-120.5 323q0 144 55 277t156 222q157 138 366 138
q187 0 302.5 -110.5t115.5 -293.5q0 -53 -20 -143zM373 864q-121 -109 -166 -299h829q6 52 6 80q0 159 -94.5 250.5t-251.5 91.5q-188 0 -323 -123z" />
    <glyph glyph-name="edieresis" unicode="&#xeb;" horiz-adv-x="1218" 
d="M528 1305q-25 0 -40 15t-15 38q0 28 21.5 48.5t50.5 20.5q25 0 40 -14t15 -39q0 -28 -21 -48.5t-51 -20.5zM952 1305q-25 0 -40 15t-15 38q0 28 20.5 48.5t49.5 20.5q25 0 40 -14t15 -39q0 -28 -20 -48.5t-50 -20.5zM1094 506h-897q-7 -51 -7 -88q0 -178 101.5 -278.5
t275.5 -100.5q125 0 234 54t184 155l49 -39q-82 -113 -203 -174.5t-266 -61.5q-205 0 -325.5 120t-120.5 323q0 144 55 277t156 222q157 138 366 138q187 0 302.5 -110.5t115.5 -293.5q0 -53 -20 -143zM373 864q-121 -109 -166 -299h829q6 52 6 80q0 159 -94.5 250.5
t-251.5 91.5q-188 0 -323 -123z" />
    <glyph glyph-name="igrave" unicode="&#xec;" horiz-adv-x="473" 
d="M369 1202l-185 314h84l174 -314h-73zM129 0l145 1028h70l-145 -1028h-70z" />
    <glyph glyph-name="iacute" unicode="&#xed;" horiz-adv-x="473" 
d="M229 1202l263 314h88l-275 -314h-76zM129 0l145 1028h70l-145 -1028h-70z" />
    <glyph glyph-name="icircumflex" unicode="&#xee;" horiz-adv-x="473" 
d="M623 1202h-72l-176 266l-252 -266h-76l297 314h68zM129 0l145 1028h70l-145 -1028h-70z" />
    <glyph glyph-name="idieresis" unicode="&#xef;" horiz-adv-x="473" 
d="M162 1305q-25 0 -40.5 15t-15.5 38q0 28 21 48.5t51 20.5q23 0 39 -14t16 -39q0 -28 -20.5 -48.5t-50.5 -20.5zM537 1305q-25 0 -40.5 15t-15.5 38q0 28 20.5 48.5t49.5 20.5q24 0 39.5 -14t15.5 -39q0 -28 -19.5 -48.5t-49.5 -20.5zM129 0l145 1028h70l-145 -1028h-70z
" />
    <glyph glyph-name="eth" unicode="&#xf0;" horiz-adv-x="1288" 
d="M913 1323q261 -243 261 -635q0 -357 -187 -547q-168 -168 -414 -168q-211 0 -333.5 123t-122.5 320q0 131 53.5 257.5t148.5 209.5q159 143 388 143q139 0 243 -60t154 -178q-34 312 -246 500l-278 -178l-27 43l264 170q-129 96 -291 152l25 53q189 -62 321 -170l263 168
l26 -43zM934 184q75 75 117.5 181t42.5 217q0 173 -101.5 277t-283.5 104q-199 0 -344 -132q-84 -76 -129.5 -186t-45.5 -225q0 -173 103.5 -277t279.5 -104q210 0 361 145z" />
    <glyph glyph-name="ntilde" unicode="&#xf1;" horiz-adv-x="1241" 
d="M604 1405q-43 0 -75.5 -38t-41.5 -105h-57q12 92 61 145t119 53q39 0 74 -20t80 -68q38 -39 63 -53t56 -14q42 0 74.5 39t41.5 106h58q-12 -94 -60.5 -147.5t-119.5 -53.5q-40 0 -75 19t-81 69q-36 39 -61 53.5t-56 14.5zM741 1053q163 0 247.5 -81.5t84.5 -236.5
q0 -55 -8 -104l-88 -631h-70l88 621q6 52 6 94q0 140 -68.5 206t-203.5 66q-175 0 -298.5 -102.5t-147.5 -280.5l-86 -604h-70l145 1028h70l-33 -231q58 120 170 188t262 68z" />
    <glyph glyph-name="ograve" unicode="&#xf2;" horiz-adv-x="1290" 
d="M774 1202l-219 314h86l209 -314h-76zM575 -27q-210 0 -332 125t-122 326q0 138 54.5 267.5t152.5 217.5q160 144 387 144q209 0 331.5 -124.5t122.5 -324.5q0 -138 -55.5 -268.5t-155.5 -218.5q-160 -144 -383 -144zM575 39q196 0 343 131q86 81 133 194.5t47 235.5
q0 177 -103 282t-280 105q-201 0 -344 -133q-85 -79 -131.5 -192t-46.5 -236q0 -176 103 -281.5t279 -105.5z" />
    <glyph glyph-name="oacute" unicode="&#xf3;" horiz-adv-x="1290" 
d="M637 1202l295 314h90l-307 -314h-78zM575 -27q-210 0 -332 125t-122 326q0 138 54.5 267.5t152.5 217.5q160 144 387 144q209 0 331.5 -124.5t122.5 -324.5q0 -138 -55.5 -268.5t-155.5 -218.5q-160 -144 -383 -144zM575 39q196 0 343 131q86 81 133 194.5t47 235.5
q0 177 -103 282t-280 105q-201 0 -344 -133q-85 -79 -131.5 -192t-46.5 -236q0 -176 103 -281.5t279 -105.5z" />
    <glyph glyph-name="ocircumflex" unicode="&#xf4;" horiz-adv-x="1290" 
d="M784 1468l-280 -266h-80l328 314h67l240 -314h-72zM715 1053q209 0 331.5 -124.5t122.5 -324.5q0 -138 -55.5 -268.5t-155.5 -218.5q-160 -144 -383 -144q-210 0 -332 125t-122 326q0 138 54.5 267.5t152.5 217.5q160 144 387 144zM918 170q86 81 133 194.5t47 235.5
q0 177 -103 282t-280 105q-201 0 -344 -133q-85 -79 -131.5 -192t-46.5 -236q0 -176 103 -281.5t279 -105.5q196 0 343 131z" />
    <glyph glyph-name="otilde" unicode="&#xf5;" horiz-adv-x="1290" 
d="M897 1249q-40 0 -75 19t-81 69q-37 40 -61 54t-55 14q-43 0 -75.5 -38t-41.5 -105h-57q12 92 61 145t119 53q39 0 73.5 -20t79.5 -68q38 -39 63 -53t56 -14q43 0 75.5 39t41.5 106h57q-12 -94 -60.5 -147.5t-119.5 -53.5zM575 -27q-210 0 -332 125t-122 326
q0 138 54.5 267.5t152.5 217.5q160 144 387 144q209 0 331.5 -124.5t122.5 -324.5q0 -138 -55.5 -268.5t-155.5 -218.5q-160 -144 -383 -144zM575 39q196 0 343 131q86 81 133 194.5t47 235.5q0 177 -103 282t-280 105q-201 0 -344 -133q-85 -79 -131.5 -192t-46.5 -236
q0 -176 103 -281.5t279 -105.5z" />
    <glyph glyph-name="odieresis" unicode="&#xf6;" horiz-adv-x="1290" 
d="M545 1305q-25 0 -40.5 15t-15.5 38q0 28 21.5 48.5t50.5 20.5q25 0 40 -14t15 -39q0 -28 -20.5 -48.5t-50.5 -20.5zM969 1305q-25 0 -40.5 15t-15.5 38q0 28 20.5 48.5t49.5 20.5q25 0 40 -14t15 -39q0 -28 -19.5 -48.5t-49.5 -20.5zM575 -27q-210 0 -332 125t-122 326
q0 138 54.5 267.5t152.5 217.5q160 144 387 144q209 0 331.5 -124.5t122.5 -324.5q0 -138 -55.5 -268.5t-155.5 -218.5q-160 -144 -383 -144zM575 39q196 0 343 131q86 81 133 194.5t47 235.5q0 177 -103 282t-280 105q-201 0 -344 -133q-85 -79 -131.5 -192t-46.5 -236
q0 -176 103 -281.5t279 -105.5z" />
    <glyph glyph-name="divide" unicode="&#xf7;" 
d="M791 944q-26 0 -42 15t-16 40q0 30 21.5 50t48.5 20q25 0 40 -16.5t15 -42.5t-20.5 -46t-46.5 -20zM305 618l10 62h871l-8 -62h-873zM690 229q-26 0 -41.5 14.5t-15.5 39.5q0 31 20.5 50t48.5 19q25 0 40.5 -15.5t15.5 -41.5t-21 -46t-47 -20z" />
    <glyph glyph-name="oslash" unicode="&#xf8;" horiz-adv-x="1296" 
d="M1253 1006l-153 -138q74 -113 74 -264q0 -138 -55.5 -268.5t-155.5 -218.5q-160 -144 -383 -144t-347 140l-151 -136l-37 46l152 135q-74 113 -74 266q0 138 55 267.5t154 217.5q160 144 387 144q219 0 344 -138l151 134zM375 854q-86 -78 -132 -191t-46 -237
q0 -129 57 -223l758 663q-102 121 -293 121q-201 0 -344 -133zM920 170q87 80 133.5 193.5t46.5 236.5q0 127 -58 223l-755 -665q106 -119 293 -119q196 0 340 131z" />
    <glyph glyph-name="ugrave" unicode="&#xf9;" horiz-adv-x="1232" 
d="M817 1202h-76l-219 314h86zM1034 1028h70l-143 -1028h-70l33 238q-56 -123 -173.5 -194t-271.5 -71q-313 0 -313 314q0 47 8 104l90 637h70l-88 -622q-8 -57 -8 -107q0 -135 63.5 -197.5t192.5 -62.5q173 0 302.5 105t153.5 278z" />
    <glyph glyph-name="uacute" unicode="&#xfa;" horiz-adv-x="1232" 
d="M987 1516l-307 -314h-78l295 314h90zM1034 1028h70l-143 -1028h-70l33 238q-56 -123 -173.5 -194t-271.5 -71q-313 0 -313 314q0 47 8 104l90 637h70l-88 -622q-8 -57 -8 -107q0 -135 63.5 -197.5t192.5 -62.5q173 0 302.5 105t153.5 278z" />
    <glyph glyph-name="ucircumflex" unicode="&#xfb;" horiz-adv-x="1232" 
d="M752 1468l-281 -266h-80l328 314h67l240 -314h-72zM1034 1028h70l-143 -1028h-70l33 238q-56 -123 -173.5 -194t-271.5 -71q-313 0 -313 314q0 47 8 104l90 637h70l-88 -622q-8 -57 -8 -107q0 -135 63.5 -197.5t192.5 -62.5q173 0 302.5 105t153.5 278z" />
    <glyph glyph-name="udieresis" unicode="&#xfc;" horiz-adv-x="1232" 
d="M512 1305q-25 0 -40 15t-15 38q0 28 21 48.5t50 20.5q25 0 40.5 -14.5t15.5 -38.5q0 -28 -21 -48.5t-51 -20.5zM936 1305q-25 0 -40 15t-15 38q0 28 20 48.5t49 20.5q25 0 40.5 -14.5t15.5 -38.5q0 -28 -20 -48.5t-50 -20.5zM1034 1028h70l-143 -1028h-70l33 238
q-56 -123 -173.5 -194t-271.5 -71q-313 0 -313 314q0 47 8 104l90 637h70l-88 -622q-8 -57 -8 -107q0 -135 63.5 -197.5t192.5 -62.5q173 0 302.5 105t153.5 278z" />
    <glyph glyph-name="yacute" unicode="&#xfd;" horiz-adv-x="1060" 
d="M907 1516l-307 -314h-80l295 314h92zM1014 1028h76l-811 -1436h-78l227 398l-305 1038h72l278 -960z" />
    <glyph glyph-name="thorn" unicode="&#xfe;" horiz-adv-x="1343" 
d="M788 1053q198 0 317.5 -123t119.5 -324q0 -140 -54.5 -270.5t-152.5 -220.5q-158 -142 -373 -142q-162 0 -271.5 83.5t-137.5 226.5l-97 -693h-69l268 1907h70l-107 -752q66 144 195 226t292 82zM971 168q88 82 134 196.5t46 239.5q0 173 -102 278t-273 105
q-190 0 -325 -123q-91 -77 -141 -194.5t-50 -243.5q0 -175 103.5 -281t273.5 -106q192 0 334 129z" />
    <glyph glyph-name="ydieresis" unicode="&#xff;" horiz-adv-x="1060" 
d="M430 1305q-25 0 -40 15t-15 38q0 28 20.5 48.5t48.5 20.5q25 0 40.5 -14.5t15.5 -38.5q0 -28 -20 -48.5t-50 -20.5zM854 1305q-26 0 -40.5 14.5t-14.5 38.5q0 28 20 48.5t49 20.5q25 0 40.5 -14.5t15.5 -38.5q0 -28 -20 -48.5t-50 -20.5zM1014 1028h76l-811 -1436h-78
l227 398l-305 1038h72l278 -960z" />
    <glyph glyph-name="Amacron" unicode="&#x100;" horiz-adv-x="1396" 
d="M1171 1759l-10 -61h-594l11 61h593zM1200 0l-123 438h-774l-246 -438h-77l806 1434h82l406 -1434h-74zM342 506h717l-240 854z" />
    <glyph glyph-name="amacron" unicode="&#x101;" horiz-adv-x="1343" 
d="M1106 1354l-10 -62h-594l10 62h594zM1147 1028h70l-144 -1028h-69l38 285q-66 -146 -194.5 -229t-290.5 -83q-200 0 -318 123.5t-118 327.5q0 143 54 272.5t153 216.5q156 140 370 140q161 0 271 -81t139 -222zM887 156q94 78 145 196.5t51 247.5q0 175 -102.5 281
t-273.5 106q-193 0 -330 -125q-88 -81 -136 -196t-48 -240q0 -174 103 -280.5t273 -106.5q182 0 318 117z" />
    <glyph glyph-name="Abreve" unicode="&#x102;" horiz-adv-x="1396" 
d="M856 1618q-240 0 -240 194q0 13 5 58h63q-4 -36 -4 -49q0 -75 44 -111.5t136 -36.5q207 0 234 197h65v-4q-35 -248 -303 -248zM1200 0l-123 438h-774l-246 -438h-77l806 1434h82l406 -1434h-74zM342 506h717l-240 854z" />
    <glyph glyph-name="abreve" unicode="&#x103;" horiz-adv-x="1343" 
d="M791 1212q-240 0 -240 195q0 21 4 57h63q-4 -36 -4 -49q0 -75 44.5 -111t136.5 -36q104 0 162 48t71 148h66v-4q-35 -248 -303 -248zM1147 1028h70l-144 -1028h-69l38 285q-66 -146 -194.5 -229t-290.5 -83q-200 0 -318 123.5t-118 327.5q0 143 54 272.5t153 216.5
q156 140 370 140q161 0 271 -81t139 -222zM887 156q94 78 145 196.5t51 247.5q0 175 -102.5 281t-273.5 106q-193 0 -330 -125q-88 -81 -136 -196t-48 -240q0 -174 103 -280.5t273 -106.5q182 0 318 117z" />
    <glyph glyph-name="Aogonek" unicode="&#x104;" horiz-adv-x="1396" 
d="M1034 -274q0 -101 164 -101h23l-9 -61h-26q-110 0 -165.5 39t-55.5 110q0 164 235 289l-123 436h-774l-246 -438h-77l806 1434h82l406 -1434q-113 -74 -152 -109q-88 -80 -88 -165zM342 506h717l-240 854z" />
    <glyph glyph-name="aogonek" unicode="&#x105;" horiz-adv-x="1343" 
d="M1073 0q-113 -74 -152 -110q-86 -80 -87 -164q0 -51 39.5 -76t123.5 -25h23l-8 -61h-27q-110 0 -165.5 39t-55.5 110q0 162 240 293l38 279q-66 -146 -194.5 -229t-290.5 -83q-200 0 -318 123.5t-118 327.5q0 143 54 272.5t153 216.5q156 140 370 140q161 0 271 -81
t139 -222l39 278h70zM887 156q94 78 145 196.5t51 247.5q0 175 -102.5 281t-273.5 106q-193 0 -330 -125q-88 -81 -136 -196t-48 -240q0 -174 103 -280.5t273 -106.5q182 0 318 117z" />
    <glyph glyph-name="Cacute" unicode="&#x106;" horiz-adv-x="1593" 
d="M911 1608l295 313h90l-307 -313h-78zM793 -27q-281 0 -451 172t-170 449q0 207 91 395t251 309q211 162 481 162q209 0 359.5 -99t201.5 -271l-63 -33q-49 161 -181.5 247.5t-318.5 86.5q-245 0 -440 -150q-145 -113 -224 -283t-79 -360q0 -251 149.5 -403t397.5 -152
q185 0 345.5 87t252.5 247l59 -33q-98 -172 -275 -271.5t-386 -99.5z" />
    <glyph glyph-name="cacute" unicode="&#x107;" horiz-adv-x="1169" 
d="M627 1202l295 314h90l-307 -314h-78zM563 -27q-208 0 -326 122.5t-118 322.5q0 140 52.5 267t147.5 214q160 154 396 154q154 0 257.5 -72.5t137.5 -216.5l-68 -27q-65 250 -331 250q-212 0 -351 -139q-80 -78 -123.5 -191t-43.5 -233q0 -178 101.5 -281.5t280.5 -103.5
q272 0 404 252l61 -29q-75 -143 -199.5 -216t-277.5 -73z" />
    <glyph glyph-name="Ccircumflex" unicode="&#x108;" horiz-adv-x="1593" 
d="M1059 1874l-281 -266h-80l328 313h68l239 -313h-71zM553 1241q-145 -113 -224 -283t-79 -360q0 -251 149.5 -403t397.5 -152q185 0 345.5 87t252.5 247l59 -33q-98 -172 -275 -271.5t-386 -99.5q-281 0 -451 172t-170 449q0 207 91 395t251 309q211 162 481 162
q209 0 359.5 -99t201.5 -271l-63 -33q-49 161 -181.5 247.5t-318.5 86.5q-245 0 -440 -150z" />
    <glyph glyph-name="ccircumflex" unicode="&#x109;" horiz-adv-x="1169" 
d="M776 1468l-280 -266h-80l327 314h68l240 -314h-72zM360 848q-80 -78 -123.5 -191t-43.5 -233q0 -178 101.5 -281.5t280.5 -103.5q272 0 404 252l61 -29q-75 -143 -199.5 -216t-277.5 -73q-208 0 -326 122.5t-118 322.5q0 140 52.5 267t147.5 214q160 154 396 154
q154 0 257.5 -72.5t137.5 -216.5l-68 -27q-65 250 -331 250q-212 0 -351 -139z" />
    <glyph glyph-name="Cdotaccent" unicode="&#x10a;" horiz-adv-x="1593" 
d="M1030 1710q-24 0 -38.5 14.5t-14.5 38.5q0 28 20.5 49t49.5 21q25 0 40 -14t15 -39q0 -29 -20.5 -49.5t-51.5 -20.5zM793 -27q-281 0 -451 172t-170 449q0 207 91 395t251 309q211 162 481 162q209 0 359.5 -99t201.5 -271l-63 -33q-49 161 -181.5 247.5t-318.5 86.5
q-245 0 -440 -150q-145 -113 -224 -283t-79 -360q0 -251 149.5 -403t397.5 -152q185 0 345.5 87t252.5 247l59 -33q-98 -172 -275 -271.5t-386 -99.5z" />
    <glyph glyph-name="cdotaccent" unicode="&#x10b;" horiz-adv-x="1169" 
d="M748 1305q-24 0 -39 14.5t-15 38.5q0 28 20.5 48.5t49.5 20.5q25 0 40 -14t15 -39q0 -29 -20 -49t-51 -20zM563 -27q-208 0 -326 122.5t-118 322.5q0 140 52.5 267t147.5 214q160 154 396 154q154 0 257.5 -72.5t137.5 -216.5l-68 -27q-65 250 -331 250q-212 0 -351 -139
q-80 -78 -123.5 -191t-43.5 -233q0 -178 101.5 -281.5t280.5 -103.5q272 0 404 252l61 -29q-75 -143 -199.5 -216t-277.5 -73z" />
    <glyph glyph-name="Ccaron" unicode="&#x10c;" horiz-adv-x="1593" 
d="M1051 1608h-68l-240 313h72l205 -268l278 268h80zM553 1241q-145 -113 -224 -283t-79 -360q0 -251 149.5 -403t397.5 -152q185 0 345.5 87t252.5 247l59 -33q-98 -172 -275 -271.5t-386 -99.5q-281 0 -451 172t-170 449q0 207 91 395t251 309q211 162 481 162
q209 0 359.5 -99t201.5 -271l-63 -33q-49 161 -181.5 247.5t-318.5 86.5q-245 0 -440 -150z" />
    <glyph glyph-name="ccaron" unicode="&#x10d;" horiz-adv-x="1169" 
d="M768 1202h-68l-239 314h71l205 -269l279 269h80zM360 848q-80 -78 -123.5 -191t-43.5 -233q0 -178 101.5 -281.5t280.5 -103.5q272 0 404 252l61 -29q-75 -143 -199.5 -216t-277.5 -73q-208 0 -326 122.5t-118 322.5q0 140 52.5 267t147.5 214q160 154 396 154
q154 0 257.5 -72.5t137.5 -216.5l-68 -27q-65 250 -331 250q-212 0 -351 -139z" />
    <glyph glyph-name="Dcaron" unicode="&#x10e;" horiz-adv-x="1564" 
d="M899 1608h-68l-239 313h72l204 -268l279 268h80zM819 1434q293 0 462 -152t169 -428q0 -186 -66 -359t-190 -290q-220 -205 -563 -205h-459l201 1434h446zM1145 258q112 106 170.5 265t58.5 327q0 251 -146.5 383.5t-408.5 132.5h-383l-182 -1298h377q318 0 514 190z" />
    <glyph glyph-name="dcaron" unicode="&#x10f;" horiz-adv-x="1425" 
d="M1106 748l106 751h70l-211 -1499h-70l39 274q-67 -139 -195 -220t-288 -81q-200 0 -319 123.5t-119 325.5q0 135 51 263.5t145 217.5q163 150 385 150q161 0 269 -81.5t137 -223.5zM1491 1499h72l-70 -389h-57zM905 176q85 79 131.5 191t46.5 233q0 175 -103.5 281
t-274.5 106q-200 0 -340 -137q-83 -80 -127.5 -192t-44.5 -234q0 -174 101 -279.5t271 -105.5q96 0 184 36t156 101z" />
    <glyph glyph-name="Dcroat" unicode="&#x110;" horiz-adv-x="1595" 
d="M852 1434q291 0 461 -152t170 -428q0 -185 -67 -358.5t-191 -290.5q-220 -205 -563 -205h-459l96 686h-221l10 62h219l96 686h449zM1176 258q112 106 170.5 265t58.5 327q0 252 -146 384t-409 132h-381l-88 -618h461l-11 -62h-458l-88 -618h377q318 0 514 190z" />
    <glyph glyph-name="dcroat" unicode="&#x111;" horiz-adv-x="1343" 
d="M1446 1298l-8 -59h-193l-174 -1239h-70l41 283q-67 -144 -195.5 -227t-289.5 -83q-201 0 -319.5 122t-118.5 321q0 140 54.5 268t152.5 217q153 137 372 137q164 0 272 -82.5t136 -224.5l70 508h-428l8 59h428l28 201h70l-29 -201h193zM924 190q76 76 117.5 181t41.5 215
q0 175 -104.5 282t-276.5 107q-188 0 -333 -129q-84 -77 -130 -189t-46 -233q0 -174 100.5 -279.5t271.5 -105.5q205 0 359 151z" />
    <glyph glyph-name="Emacron" unicode="&#x112;" horiz-adv-x="1357" 
d="M1167 1759l-10 -61h-594l10 61h594zM1290 1366h-854l-84 -608h815l-12 -68h-815l-86 -622h872l-8 -68h-946l201 1434h925z" />
    <glyph glyph-name="emacron" unicode="&#x113;" horiz-adv-x="1218" 
d="M1044 1354l-10 -62h-594l11 62h593zM1094 506h-897q-7 -51 -7 -88q0 -178 101.5 -278.5t275.5 -100.5q125 0 234 54t184 155l49 -39q-82 -113 -203 -174.5t-266 -61.5q-205 0 -325.5 120t-120.5 323q0 144 55 277t156 222q157 138 366 138q187 0 302.5 -110.5
t115.5 -293.5q0 -53 -20 -143zM373 864q-121 -109 -166 -299h829q6 52 6 80q0 159 -94.5 250.5t-251.5 91.5q-188 0 -323 -123z" />
    <glyph glyph-name="Ebreve" unicode="&#x114;" horiz-adv-x="1357" 
d="M852 1618q-240 0 -240 194q0 22 4 58h64q-4 -36 -4 -49q0 -75 44 -111.5t136 -36.5q207 0 234 197h65v-4q-35 -248 -303 -248zM1290 1366h-854l-84 -608h815l-12 -68h-815l-86 -622h872l-8 -68h-946l201 1434h925z" />
    <glyph glyph-name="ebreve" unicode="&#x115;" horiz-adv-x="1218" 
d="M729 1212q-240 0 -240 195q0 12 5 57h63q-4 -36 -4 -49q0 -75 44 -111t136 -36q207 0 234 196h65v-4q-35 -248 -303 -248zM1094 506h-897q-7 -51 -7 -88q0 -178 101.5 -278.5t275.5 -100.5q125 0 234 54t184 155l49 -39q-82 -113 -203 -174.5t-266 -61.5
q-205 0 -325.5 120t-120.5 323q0 144 55 277t156 222q157 138 366 138q187 0 302.5 -110.5t115.5 -293.5q0 -53 -20 -143zM373 864q-121 -109 -166 -299h829q6 52 6 80q0 159 -94.5 250.5t-251.5 91.5q-188 0 -323 -123z" />
    <glyph glyph-name="Edotaccent" unicode="&#x116;" horiz-adv-x="1357" 
d="M862 1710q-24 0 -38.5 14.5t-14.5 38.5q0 28 20.5 49t49.5 21q25 0 40 -14t15 -39q0 -29 -20.5 -49.5t-51.5 -20.5zM1290 1366h-854l-84 -608h815l-12 -68h-815l-86 -622h872l-8 -68h-946l201 1434h925z" />
    <glyph glyph-name="edotaccent" unicode="&#x117;" horiz-adv-x="1218" 
d="M739 1305q-24 0 -38.5 14.5t-14.5 38.5q0 28 20.5 48.5t49.5 20.5q25 0 40 -14t15 -39q0 -28 -20.5 -48.5t-51.5 -20.5zM1094 506h-897q-7 -51 -7 -88q0 -178 101.5 -278.5t275.5 -100.5q125 0 234 54t184 155l49 -39q-82 -113 -203 -174.5t-266 -61.5q-205 0 -325.5 120
t-120.5 323q0 144 55 277t156 222q157 138 366 138q187 0 302.5 -110.5t115.5 -293.5q0 -53 -20 -143zM373 864q-121 -109 -166 -299h829q6 52 6 80q0 159 -94.5 250.5t-251.5 91.5q-188 0 -323 -123z" />
    <glyph glyph-name="Eogonek" unicode="&#x118;" horiz-adv-x="1357" 
d="M1290 1366h-854l-84 -608h815l-12 -68h-815l-86 -622h872l-8 -68q-113 -74 -152 -110q-86 -80 -87 -164q0 -51 39.5 -76t123.5 -25h23l-8 -61h-27q-110 0 -165.5 39t-55.5 110q0 92 63.5 161t165.5 126h-866l201 1434h925z" />
    <glyph glyph-name="eogonek" unicode="&#x119;" horiz-adv-x="1218" 
d="M1094 506h-897q-7 -51 -7 -88q0 -178 101.5 -278.5t275.5 -100.5q125 0 234 54t184 155l49 -39q-83 -114 -211 -178q-115 -75 -157 -116q-76 -75 -76 -155q0 -51 40 -75.5t124 -24.5h22l-8 -61h-27q-110 0 -165.5 39t-55.5 110q0 129 144 234q-46 -9 -99 -9
q-205 0 -325.5 120t-120.5 323q0 144 55 277t156 222q157 138 366 138q187 0 302.5 -110.5t115.5 -293.5q0 -53 -20 -143zM373 864q-121 -109 -166 -299h829q6 52 6 80q0 159 -94.5 250.5t-251.5 91.5q-188 0 -323 -123z" />
    <glyph glyph-name="Ecaron" unicode="&#x11a;" horiz-adv-x="1357" 
d="M883 1608h-68l-240 313h72l205 -268l278 268h80zM1290 1366h-854l-84 -608h815l-12 -68h-815l-86 -622h872l-8 -68h-946l201 1434h925z" />
    <glyph glyph-name="ecaron" unicode="&#x11b;" horiz-adv-x="1218" 
d="M760 1202h-68l-239 314h71l205 -269l279 269h79zM1094 506h-897q-7 -51 -7 -88q0 -178 101.5 -278.5t275.5 -100.5q125 0 234 54t184 155l49 -39q-82 -113 -203 -174.5t-266 -61.5q-205 0 -325.5 120t-120.5 323q0 144 55 277t156 222q157 138 366 138
q187 0 302.5 -110.5t115.5 -293.5q0 -53 -20 -143zM373 864q-121 -109 -166 -299h829q6 52 6 80q0 159 -94.5 250.5t-251.5 91.5q-188 0 -323 -123z" />
    <glyph glyph-name="Gcircumflex" unicode="&#x11c;" horiz-adv-x="1630" 
d="M1059 1874l-281 -266h-80l328 313h68l239 -313h-71zM973 653l8 68h514l-74 -526q-104 -106 -253 -164t-328 -58q-312 0 -490 168t-178 449q0 191 75 368t212 299q228 203 542 203q177 0 312.5 -66t204.5 -186l-64 -41q-60 107 -176.5 165.5t-271.5 58.5
q-143 0 -272 -48.5t-228 -140.5q-124 -114 -191 -277.5t-67 -332.5q0 -256 161.5 -402.5t430.5 -146.5q153 0 289 48t223 130l61 432h-440z" />
    <glyph glyph-name="gcircumflex" unicode="&#x11d;" horiz-adv-x="1343" 
d="M807 1468l-281 -266h-80l328 314h68l239 -314h-71zM1147 1028h70l-132 -932q-35 -253 -188 -392.5t-399 -139.5q-151 0 -263 51.5t-174 142.5l52 47q56 -84 156.5 -130t228.5 -46q212 0 349 123t169 344l28 207q-68 -141 -195.5 -222t-285.5 -81q-202 0 -322 120.5
t-120 319.5q0 136 54.5 261.5t150.5 209.5q155 142 372 142q164 0 272.5 -80.5t137.5 -222.5zM907 195q86 79 132 186.5t46 226.5q0 170 -102 274.5t-274 104.5q-96 0 -184 -34.5t-156 -98.5q-84 -77 -129 -186t-45 -226q0 -168 101.5 -272t270.5 -104q195 0 340 129z" />
    <glyph glyph-name="Gbreve" unicode="&#x11e;" horiz-adv-x="1630" 
d="M1020 1618q-240 0 -240 194q0 22 4 58h64q-4 -36 -4 -49q0 -75 44 -111.5t136 -36.5q206 0 233 197h66v-4q-35 -248 -303 -248zM973 653l8 68h514l-74 -526q-104 -106 -253 -164t-328 -58q-312 0 -490 168t-178 449q0 191 75 368t212 299q228 203 542 203
q177 0 312.5 -66t204.5 -186l-64 -41q-60 107 -176.5 165.5t-271.5 58.5q-143 0 -272 -48.5t-228 -140.5q-124 -114 -191 -277.5t-67 -332.5q0 -256 161.5 -402.5t430.5 -146.5q153 0 289 48t223 130l61 432h-440z" />
    <glyph glyph-name="gbreve" unicode="&#x11f;" horiz-adv-x="1343" 
d="M768 1212q-240 0 -240 195q0 21 4 57h64q-4 -36 -4 -49q0 -75 44 -111t136 -36q207 0 234 196h65v-4q-35 -248 -303 -248zM1147 1028h70l-132 -932q-35 -253 -188 -392.5t-399 -139.5q-151 0 -263 51.5t-174 142.5l52 47q56 -84 156.5 -130t228.5 -46q212 0 349 123
t169 344l28 207q-68 -141 -195.5 -222t-285.5 -81q-202 0 -322 120.5t-120 319.5q0 136 54.5 261.5t150.5 209.5q155 142 372 142q164 0 272.5 -80.5t137.5 -222.5zM907 195q86 79 132 186.5t46 226.5q0 170 -102 274.5t-274 104.5q-96 0 -184 -34.5t-156 -98.5
q-84 -77 -129 -186t-45 -226q0 -168 101.5 -272t270.5 -104q195 0 340 129z" />
    <glyph glyph-name="Gdotaccent" unicode="&#x120;" horiz-adv-x="1630" 
d="M1030 1710q-24 0 -38.5 14.5t-14.5 38.5q0 28 20.5 49t49.5 21q25 0 40 -14t15 -39q0 -29 -20.5 -49.5t-51.5 -20.5zM973 653l8 68h514l-74 -526q-104 -106 -253 -164t-328 -58q-312 0 -490 168t-178 449q0 191 75 368t212 299q228 203 542 203q177 0 312.5 -66
t204.5 -186l-64 -41q-60 107 -176.5 165.5t-271.5 58.5q-143 0 -272 -48.5t-228 -140.5q-124 -114 -191 -277.5t-67 -332.5q0 -256 161.5 -402.5t430.5 -146.5q153 0 289 48t223 130l61 432h-440z" />
    <glyph glyph-name="gdotaccent" unicode="&#x121;" horiz-adv-x="1343" 
d="M778 1305q-24 0 -38.5 14.5t-14.5 38.5q0 28 20.5 48.5t49.5 20.5q25 0 40 -14t15 -39q0 -28 -20 -48.5t-52 -20.5zM1147 1028h70l-132 -932q-35 -253 -188 -392.5t-399 -139.5q-151 0 -263 51.5t-174 142.5l52 47q56 -84 156.5 -130t228.5 -46q212 0 349 123t169 344
l28 207q-68 -141 -195.5 -222t-285.5 -81q-202 0 -322 120.5t-120 319.5q0 136 54.5 261.5t150.5 209.5q155 142 372 142q164 0 272.5 -80.5t137.5 -222.5zM907 195q86 79 132 186.5t46 226.5q0 170 -102 274.5t-274 104.5q-96 0 -184 -34.5t-156 -98.5q-84 -77 -129 -186
t-45 -226q0 -168 101.5 -272t270.5 -104q195 0 340 129z" />
    <glyph glyph-name="uni0122" unicode="&#x122;" horiz-adv-x="1630" 
d="M973 653l8 68h514l-74 -526q-104 -106 -253 -164t-328 -58q-312 0 -490 168t-178 449q0 191 75 368t212 299q228 203 542 203q177 0 312.5 -66t204.5 -186l-64 -41q-60 107 -176.5 165.5t-271.5 58.5q-143 0 -272 -48.5t-228 -140.5q-124 -114 -191 -277.5t-67 -332.5
q0 -256 161.5 -402.5t430.5 -146.5q153 0 289 48t223 130l61 432h-440zM641 -537l111 336h71l-125 -336h-57z" />
    <glyph glyph-name="uni0123" unicode="&#x123;" horiz-adv-x="1343" 
d="M913 1565l-110 -336h-72l125 336h57zM1147 1028h70l-132 -932q-35 -253 -188 -392.5t-399 -139.5q-151 0 -263 51.5t-174 142.5l52 47q56 -84 156.5 -130t228.5 -46q212 0 349 123t169 344l28 207q-68 -141 -195.5 -222t-285.5 -81q-202 0 -322 120.5t-120 319.5
q0 136 54.5 261.5t150.5 209.5q155 142 372 142q164 0 272.5 -80.5t137.5 -222.5zM907 195q86 79 132 186.5t46 226.5q0 170 -102 274.5t-274 104.5q-96 0 -184 -34.5t-156 -98.5q-84 -77 -129 -186t-45 -226q0 -168 101.5 -272t270.5 -104q195 0 340 129z" />
    <glyph glyph-name="Hcircumflex" unicode="&#x124;" horiz-adv-x="1599" 
d="M995 1874l-280 -266h-80l328 313h67l240 -313h-72zM1411 1434h74l-201 -1434h-74l99 702h-965l-100 -702h-72l201 1434h73l-94 -662h967z" />
    <glyph glyph-name="hcircumflex" unicode="&#x125;" horiz-adv-x="1241" 
d="M440 1939l-280 -266h-80l328 314h67l240 -314h-72zM745 1053q160 0 244 -81t84 -239q0 -53 -8 -102l-88 -631h-70l88 621q6 52 6 94q0 141 -68 206.5t-202 65.5q-174 0 -299 -102.5t-149 -280.5l-86 -604h-70l211 1499h70l-99 -702q58 120 172 188t264 68z" />
    <glyph glyph-name="Hbar" unicode="&#x126;" horiz-adv-x="1648" 
d="M1610 1126l-8 -61h-144l-149 -1065h-74l98 702h-964l-101 -702h-71l149 1065h-145l8 61h145l43 308h74l-43 -308h965l43 308h73l-43 -308h144zM1343 772l41 293h-964l-43 -293h966z" />
    <glyph glyph-name="hbar" unicode="&#x127;" horiz-adv-x="1241" 
d="M743 1038q160 0 244 -80.5t84 -238.5q0 -31 -8 -101l-86 -618h-70l86 608q6 52 6 97q0 270 -270 270q-175 0 -299.5 -103.5t-150.5 -281.5l-82 -590h-70l174 1239h-192l8 59h192l29 201h70l-29 -201h430l-8 -59h-430l-64 -457q58 120 172.5 188t263.5 68z" />
    <glyph glyph-name="Itilde" unicode="&#x128;" horiz-adv-x="569" 
d="M594 1655q-40 0 -75 19t-81 69q-36 39 -60.5 53t-55.5 14q-43 0 -75.5 -38t-41.5 -105h-58q12 92 61.5 145.5t119.5 53.5q39 0 73.5 -20t79.5 -68q38 -40 63 -54t56 -14q43 0 75.5 39t41.5 106h57q-12 -94 -60.5 -147t-119.5 -53zM176 0l201 1434h74l-203 -1434h-72z" />
    <glyph glyph-name="itilde" unicode="&#x129;" horiz-adv-x="473" 
d="M483 1249q-67 0 -149 88q-35 39 -59 53.5t-54 14.5q-72 0 -92 -143h-55q13 100 53 149t100 49q34 0 67.5 -19.5t78.5 -68.5q38 -41 60 -54t52 -13q77 0 97 145h55q-15 -101 -55 -151t-99 -50zM129 0l145 1028h70l-145 -1028h-70z" />
    <glyph glyph-name="Imacron" unicode="&#x12a;" horiz-adv-x="569" 
d="M154 1698l10 61h594l-10 -61h-594zM176 0l201 1434h74l-203 -1434h-72z" />
    <glyph glyph-name="imacron" unicode="&#x12b;" horiz-adv-x="473" 
d="M96 1292l8 62h502l-8 -62h-502zM129 0l145 1028h70l-145 -1028h-70z" />
    <glyph glyph-name="Ibreve" unicode="&#x12c;" horiz-adv-x="569" 
d="M442 1618q-239 0 -239 194q0 22 4 58h63q-4 -36 -4 -49q0 -75 44 -111.5t136 -36.5q207 0 234 197h65v-4q-35 -248 -303 -248zM176 0l201 1434h74l-203 -1434h-72z" />
    <glyph glyph-name="ibreve" unicode="&#x12d;" horiz-adv-x="473" 
d="M338 1212q-229 0 -229 193q0 25 6 59h61q-4 -36 -4 -51q0 -74 41.5 -109.5t128.5 -35.5q101 0 155 48t68 148h64q-17 -128 -87.5 -190t-203.5 -62zM129 0l145 1028h70l-145 -1028h-70z" />
    <glyph glyph-name="Iogonek" unicode="&#x12e;" horiz-adv-x="569" 
d="M250 0q-113 -74 -152 -109q-88 -80 -88 -165q0 -101 164 -101h23l-9 -61h-26q-110 0 -165.5 39t-55.5 110q0 50 19.5 94.5t55.5 80.5t73.5 62.5t86.5 53.5l201 1430h74l-203 -1434h2z" />
    <glyph glyph-name="iogonek" unicode="&#x12f;" horiz-adv-x="473" 
d="M365 1427q25 0 40 -14t15 -39q0 -28 -20 -48.5t-52 -20.5q-24 0 -38.5 14.5t-14.5 38.5q0 28 20.5 48.5t49.5 20.5zM129 6l145 1022h70l-145 -1028q-113 -74 -152 -109q-88 -80 -88 -165q0 -101 164 -101h22l-8 -61h-26q-110 0 -166 39t-56 110q0 162 240 293z" />
    <glyph glyph-name="Idotaccent" unicode="&#x130;" horiz-adv-x="569" 
d="M453 1710q-25 0 -39.5 15t-14.5 38q0 28 20.5 49t49.5 21q25 0 40 -14t15 -39q0 -29 -20 -49.5t-51 -20.5zM176 0l201 1434h74l-203 -1434h-72z" />
    <glyph glyph-name="dotlessi" unicode="&#x131;" horiz-adv-x="473" 
d="M129 0l145 1028h70l-145 -1028h-70z" />
    <glyph glyph-name="Jcircumflex" unicode="&#x134;" horiz-adv-x="1204" 
d="M1413 1608h-72l-202 266l-281 -266h-80l328 313h68zM907 520l129 914h74l-131 -920q-35 -257 -179.5 -399t-367.5 -142q-132 0 -240.5 52t-175.5 151l54 45q58 -87 152.5 -132.5t209.5 -45.5q188 0 315 122.5t160 354.5z" />
    <glyph glyph-name="jcircumflex" unicode="&#x135;" horiz-adv-x="473" 
d="M623 1202h-72l-176 266l-252 -266h-76l297 314h68zM104 -172l170 1200h70l-170 -1204q-17 -126 -87.5 -194t-186.5 -68q-49 0 -95 14l9 64q50 -13 90 -13q84 0 136 52.5t64 148.5z" />
    <glyph glyph-name="uni0136" unicode="&#x136;" horiz-adv-x="1382" 
d="M1440 1434l-701 -631l535 -803h-88l-500 754l-385 -344l-57 -410h-72l201 1434h73l-131 -920l1028 920h97zM461 -537l110 336h72l-125 -336h-57z" />
    <glyph glyph-name="uni0137" unicode="&#x137;" horiz-adv-x="1075" 
d="M1110 1026l-535 -444l406 -582h-80l-377 539l-284 -240l-43 -299h-70l211 1497h70l-156 -1110l764 641zM309 -537l109 336h74l-127 -336h-56z" />
    <glyph glyph-name="Lacute" unicode="&#x139;" horiz-adv-x="1220" 
d="M713 1921l-307 -313h-78l295 313h90zM254 68h823l-10 -68h-895l201 1434h73z" />
    <glyph glyph-name="lacute" unicode="&#x13a;" horiz-adv-x="468" 
d="M293 1673l295 314h90l-307 -314h-78zM127 0l211 1499h70l-211 -1499h-70z" />
    <glyph glyph-name="uni013B" unicode="&#x13b;" horiz-adv-x="1220" 
d="M254 68h823l-10 -68h-895l201 1434h73zM424 -537l111 336h71l-125 -336h-57z" />
    <glyph glyph-name="uni013C" unicode="&#x13c;" horiz-adv-x="468" 
d="M127 0l211 1499h70l-211 -1499h-70zM-10 -537l110 336h72l-125 -336h-57z" />
    <glyph glyph-name="Lcaron" unicode="&#x13d;" horiz-adv-x="1220" 
d="M883 1460l-70 -389h-57l55 389h72zM254 68h823l-10 -68h-895l201 1434h73z" />
    <glyph glyph-name="lcaron" unicode="&#x13e;" horiz-adv-x="569" 
d="M127 0l211 1499h70l-211 -1499h-70zM561 1110l55 389h72l-70 -389h-57z" />
    <glyph glyph-name="Ldot" unicode="&#x13f;" horiz-adv-x="1232" 
d="M254 68h823l-10 -68h-895l201 1434h73zM813 674q-29 0 -44 16.5t-13 44.5q1 29 21 46.5t46 17.5q28 0 44.5 -17.5t13.5 -46.5q-2 -25 -21.5 -43t-46.5 -18z" />
    <glyph glyph-name="ldot" unicode="&#x140;" horiz-adv-x="661" 
d="M127 0l211 1499h70l-211 -1499h-70zM567 674q-28 0 -43 16.5t-12 44.5q1 30 21 47t47 17q28 0 43.5 -17.5t13.5 -46.5q-2 -25 -22 -43t-48 -18z" />
    <glyph glyph-name="Lslash" unicode="&#x141;" horiz-adv-x="1245" 
d="M279 68h823l-10 -68h-895l77 557l-272 -131l10 70l273 131l112 807h74l-109 -768l625 301l-10 -70l-625 -301z" />
    <glyph glyph-name="lslash" unicode="&#x142;" horiz-adv-x="624" 
d="M655 977l-8 -68l-264 -133l-109 -776h-69l104 739l-262 -131l8 66l262 133l99 692h69l-92 -655z" />
    <glyph glyph-name="Nacute" unicode="&#x143;" horiz-adv-x="1619" 
d="M1243 1921l-307 -313h-78l295 313h90zM1434 1434h71l-200 -1434h-74l-803 1321l-184 -1321h-72l201 1434h71l805 -1321z" />
    <glyph glyph-name="nacute" unicode="&#x144;" horiz-adv-x="1241" 
d="M999 1516l-307 -314h-78l295 314h90zM741 1053q163 0 247.5 -81.5t84.5 -236.5q0 -55 -8 -104l-88 -631h-70l88 621q6 52 6 94q0 140 -68.5 206t-203.5 66q-175 0 -298.5 -102.5t-147.5 -280.5l-86 -604h-70l145 1028h70l-33 -231q58 120 170 188t262 68z" />
    <glyph glyph-name="uni0145" unicode="&#x145;" horiz-adv-x="1619" 
d="M1434 1434h71l-200 -1434h-74l-803 1321l-184 -1321h-72l201 1434h71l805 -1321zM565 -537l111 336h72l-125 -336h-58z" />
    <glyph glyph-name="uni0146" unicode="&#x146;" horiz-adv-x="1241" 
d="M741 1053q163 0 247.5 -81.5t84.5 -236.5q0 -55 -8 -104l-88 -631h-70l88 621q6 52 6 94q0 140 -68.5 206t-203.5 66q-175 0 -298.5 -102.5t-147.5 -280.5l-86 -604h-70l145 1028h70l-33 -231q58 120 170 188t262 68zM375 -537l110 336h72l-125 -336h-57z" />
    <glyph glyph-name="Ncaron" unicode="&#x147;" horiz-adv-x="1619" 
d="M997 1608h-67l-240 313h72l205 -268l278 268h80zM1434 1434h71l-200 -1434h-74l-803 1321l-184 -1321h-72l201 1434h71l805 -1321z" />
    <glyph glyph-name="ncaron" unicode="&#x148;" horiz-adv-x="1241" 
d="M756 1202h-68l-239 314h71l205 -269l279 269h79zM741 1053q163 0 247.5 -81.5t84.5 -236.5q0 -55 -8 -104l-88 -631h-70l88 621q6 52 6 94q0 140 -68.5 206t-203.5 66q-175 0 -298.5 -102.5t-147.5 -280.5l-86 -604h-70l145 1028h70l-33 -231q58 120 170 188t262 68z" />
    <glyph glyph-name="Eng" unicode="&#x14a;" horiz-adv-x="1619" 
d="M1434 1434h71l-217 -1545q-15 -107 -82 -166t-180 -59h-104l10 66h94q82 0 132.5 45t62.5 129l12 100l-805 1319l-184 -1323h-72l201 1434h71l805 -1317z" />
    <glyph glyph-name="eng" unicode="&#x14b;" horiz-adv-x="1241" 
d="M741 1053q161 0 246.5 -82t85.5 -242q0 -28 -8 -98l-98 -707q-17 -125 -88 -192.5t-187 -67.5q-48 0 -94 14l10 64q41 -14 90 -14q84 0 135.5 52.5t63.5 149.5l98 693q9 52 9 98q0 266 -273 266q-175 0 -299.5 -103t-150.5 -280l-84 -604h-70l145 1028h70l-35 -237
q58 124 170.5 193t263.5 69z" />
    <glyph glyph-name="Omacron" unicode="&#x14c;" horiz-adv-x="1746" 
d="M741 1698l11 61h594l-11 -61h-594zM805 -27q-188 0 -332.5 80.5t-222.5 223.5t-78 325q0 186 78.5 359.5t216.5 293.5q110 97 246.5 151t285.5 54q185 0 330 -81.5t224 -224.5t79 -323q0 -185 -80.5 -361t-220.5 -298q-231 -199 -526 -199zM803 43q271 0 479 180
q129 114 200.5 275t71.5 333q0 248 -152.5 404t-402.5 156q-137 0 -262.5 -49.5t-224.5 -141.5q-124 -112 -193 -270.5t-69 -327.5q0 -247 152.5 -403t400.5 -156z" />
    <glyph glyph-name="omacron" unicode="&#x14d;" horiz-adv-x="1290" 
d="M457 1292l10 62h594l-10 -62h-594zM575 -27q-210 0 -332 125t-122 326q0 138 54.5 267.5t152.5 217.5q160 144 387 144q209 0 331.5 -124.5t122.5 -324.5q0 -138 -55.5 -268.5t-155.5 -218.5q-160 -144 -383 -144zM575 39q196 0 343 131q86 81 133 194.5t47 235.5
q0 177 -103 282t-280 105q-201 0 -344 -133q-85 -79 -131.5 -192t-46.5 -236q0 -176 103 -281.5t279 -105.5z" />
    <glyph glyph-name="Obreve" unicode="&#x14e;" horiz-adv-x="1746" 
d="M1030 1618q-239 0 -239 194q0 22 4 58h63q-4 -36 -4 -49q0 -75 44 -111.5t136 -36.5q207 0 234 197h65v-4q-35 -248 -303 -248zM805 -27q-188 0 -332.5 80.5t-222.5 223.5t-78 325q0 186 78.5 359.5t216.5 293.5q110 97 246.5 151t285.5 54q185 0 330 -81.5t224 -224.5
t79 -323q0 -185 -80.5 -361t-220.5 -298q-231 -199 -526 -199zM803 43q271 0 479 180q129 114 200.5 275t71.5 333q0 248 -152.5 404t-402.5 156q-137 0 -262.5 -49.5t-224.5 -141.5q-124 -112 -193 -270.5t-69 -327.5q0 -247 152.5 -403t400.5 -156z" />
    <glyph glyph-name="obreve" unicode="&#x14f;" horiz-adv-x="1290" 
d="M745 1212q-239 0 -239 195q0 21 4 57h63q-4 -36 -4 -49q0 -75 44.5 -111t136.5 -36q104 0 162 48t71 148h66v-4q-35 -248 -304 -248zM575 -27q-210 0 -332 125t-122 326q0 138 54.5 267.5t152.5 217.5q160 144 387 144q209 0 331.5 -124.5t122.5 -324.5
q0 -138 -55.5 -268.5t-155.5 -218.5q-160 -144 -383 -144zM575 39q196 0 343 131q86 81 133 194.5t47 235.5q0 177 -103 282t-280 105q-201 0 -344 -133q-85 -79 -131.5 -192t-46.5 -236q0 -176 103 -281.5t279 -105.5z" />
    <glyph glyph-name="Ohungarumlaut" unicode="&#x150;" horiz-adv-x="1746" 
d="M752 1608l297 313h79l-301 -313h-75zM1098 1608l299 313h80l-301 -313h-78zM805 -27q-188 0 -332.5 80.5t-222.5 223.5t-78 325q0 186 78.5 359.5t216.5 293.5q110 97 246.5 151t285.5 54q185 0 330 -81.5t224 -224.5t79 -323q0 -185 -80.5 -361t-220.5 -298
q-231 -199 -526 -199zM803 43q271 0 479 180q129 114 200.5 275t71.5 333q0 248 -152.5 404t-402.5 156q-137 0 -262.5 -49.5t-224.5 -141.5q-124 -112 -193 -270.5t-69 -327.5q0 -247 152.5 -403t400.5 -156z" />
    <glyph glyph-name="ohungarumlaut" unicode="&#x151;" horiz-adv-x="1290" 
d="M467 1202l297 314h80l-301 -314h-76zM813 1202l299 314h80l-301 -314h-78zM575 -27q-210 0 -332 125t-122 326q0 138 54.5 267.5t152.5 217.5q160 144 387 144q209 0 331.5 -124.5t122.5 -324.5q0 -138 -55.5 -268.5t-155.5 -218.5q-160 -144 -383 -144zM575 39
q196 0 343 131q86 81 133 194.5t47 235.5q0 177 -103 282t-280 105q-201 0 -344 -133q-85 -79 -131.5 -192t-46.5 -236q0 -176 103 -281.5t279 -105.5z" />
    <glyph glyph-name="OE" unicode="&#x152;" horiz-adv-x="2297" 
d="M2230 1366h-852l-86 -608h815l-10 -68h-815l-86 -622h872l-8 -68h-1249q-290 0 -464.5 166.5t-174.5 437.5q0 176 72 341t200 280q239 209 566 209h1231zM1122 68l183 1298h-301q-305 0 -515 -197q-115 -105 -177 -255t-62 -310q0 -245 154 -390.5t413 -145.5h305z" />
    <glyph glyph-name="oe" unicode="&#x153;" horiz-adv-x="2174" 
d="M2052 506h-899q-6 -47 -6 -88q0 -178 102.5 -278.5t276.5 -100.5q125 0 233 54t183 155l51 -39q-82 -113 -203.5 -174.5t-265.5 -61.5q-178 0 -292 90t-142 248q-47 -100 -121 -174q-76 -78 -179 -121t-221 -43q-207 0 -328.5 124.5t-121.5 324.5q0 139 55 269t154 218
q160 144 383 144q177 0 290.5 -92.5t143.5 -249.5q55 123 141 200q155 142 367 142q188 0 303 -109.5t115 -294.5q0 -54 -19 -143zM930 188q76 79 118 187.5t42 224.5q0 175 -104 281t-277 106q-200 0 -340 -131q-84 -78 -130 -192.5t-46 -237.5q0 -175 103.5 -281
t276.5 -106q208 0 357 149zM1327 858q-120 -112 -162 -293h828q6 53 6 80q0 161 -93.5 251.5t-250.5 90.5q-190 0 -328 -129z" />
    <glyph glyph-name="Racute" unicode="&#x154;" horiz-adv-x="1427" 
d="M1135 1921l-308 -313h-77l294 313h91zM813 612h-16l426 -612h-86l-424 612h-383l-86 -612h-72l201 1434h547q204 0 316 -92t112 -255q0 -107 -43 -203.5t-121 -158.5q-144 -113 -371 -113zM436 1366l-96 -686h475q204 0 320 94q66 54 101.5 137.5t35.5 175.5
q0 135 -92.5 207t-268.5 72h-475z" />
    <glyph glyph-name="racute" unicode="&#x155;" horiz-adv-x="763" 
d="M780 1516l-307 -314h-78l295 314h90zM307 780q51 119 158.5 188.5t236.5 69.5q43 0 70 -6l-8 -63q-36 4 -66 4q-162 0 -278.5 -108t-143.5 -304l-79 -561h-70l145 1028h70z" />
    <glyph glyph-name="uni0156" unicode="&#x156;" horiz-adv-x="1427" 
d="M813 612h-16l426 -612h-86l-424 612h-383l-86 -612h-72l201 1434h547q204 0 316 -92t112 -255q0 -107 -43 -203.5t-121 -158.5q-144 -113 -371 -113zM436 1366l-96 -686h475q204 0 320 94q66 54 101.5 137.5t35.5 175.5q0 135 -92.5 207t-268.5 72h-475zM475 -537
l111 336h71l-125 -336h-57z" />
    <glyph glyph-name="uni0157" unicode="&#x157;" horiz-adv-x="763" 
d="M702 1038q43 0 70 -6l-8 -63q-36 4 -66 4q-162 0 -278.5 -108t-143.5 -304l-79 -561h-70l145 1028h70l-35 -248q51 119 158.5 188.5t236.5 69.5zM-10 -537l110 336h72l-125 -336h-57z" />
    <glyph glyph-name="Rcaron" unicode="&#x158;" horiz-adv-x="1427" 
d="M889 1608h-68l-239 313h71l205 -268l279 268h80zM813 612h-16l426 -612h-86l-424 612h-383l-86 -612h-72l201 1434h547q204 0 316 -92t112 -255q0 -107 -43 -203.5t-121 -158.5q-144 -113 -371 -113zM436 1366l-96 -686h475q204 0 320 94q66 54 101.5 137.5t35.5 175.5
q0 135 -92.5 207t-268.5 72h-475z" />
    <glyph glyph-name="rcaron" unicode="&#x159;" horiz-adv-x="763" 
d="M535 1202h-68l-240 314h72l205 -269l278 269h80zM307 780q51 119 158.5 188.5t236.5 69.5q43 0 70 -6l-8 -63q-36 4 -66 4q-162 0 -278.5 -108t-143.5 -304l-79 -561h-70l145 1028h70z" />
    <glyph glyph-name="Sacute" unicode="&#x15a;" horiz-adv-x="1267" 
d="M684 1608l295 313h90l-307 -313h-78zM592 -27q-208 0 -340 87.5t-172 246.5l63 31q86 -297 447 -297q201 0 330 92q69 51 106 126.5t37 156.5q0 94 -69 154.5t-226 99.5l-193 47q-180 44 -265 120t-85 193q0 93 42.5 179t117.5 143q139 108 373 108q185 0 308.5 -71.5
t158.5 -196.5l-62 -33q-77 234 -403 234q-209 0 -330 -95q-62 -46 -95.5 -118.5t-33.5 -149.5q0 -90 68.5 -149t232.5 -99l199 -49q179 -44 258.5 -121.5t79.5 -191.5q0 -103 -47.5 -194t-130.5 -150q-150 -103 -369 -103z" />
    <glyph glyph-name="sacute" unicode="&#x15b;" horiz-adv-x="1017" 
d="M504 1202l295 314h90l-307 -314h-78zM461 -27q-150 0 -259 58.5t-149 156.5l58 35q40 -88 131 -136t221 -48q150 0 246 70q96 76 96 188q0 64 -47 103.5t-160 66.5l-195 47q-119 29 -175 84.5t-56 140.5q0 69 29 129t82 101q110 84 301 84q134 0 227 -45t133 -129
l-57 -37q-75 147 -305 147q-171 0 -254 -71q-84 -66 -84 -179q0 -62 46 -100t154 -66l201 -49q232 -55 232 -219q0 -74 -32.5 -140.5t-94.5 -109.5q-108 -82 -289 -82z" />
    <glyph glyph-name="Scircumflex" unicode="&#x15c;" horiz-adv-x="1267" 
d="M831 1874l-280 -266h-80l328 313h67l240 -313h-72zM430 1298q-62 -46 -95.5 -118.5t-33.5 -149.5q0 -90 68.5 -149t232.5 -99l199 -49q179 -44 258.5 -121.5t79.5 -191.5q0 -103 -47.5 -194t-130.5 -150q-150 -103 -369 -103q-208 0 -340 87.5t-172 246.5l63 31
q86 -297 447 -297q201 0 330 92q69 51 106 126.5t37 156.5q0 94 -69 154.5t-226 99.5l-193 47q-180 44 -265 120t-85 193q0 93 42.5 179t117.5 143q139 108 373 108q185 0 308.5 -71.5t158.5 -196.5l-62 -33q-77 234 -403 234q-209 0 -330 -95z" />
    <glyph glyph-name="scircumflex" unicode="&#x15d;" horiz-adv-x="1017" 
d="M653 1468l-280 -266h-80l328 314h67l240 -314h-72zM328 918q-84 -66 -84 -179q0 -62 46 -100t154 -66l201 -49q232 -55 232 -219q0 -74 -32.5 -140.5t-94.5 -109.5q-108 -82 -289 -82q-150 0 -259 58.5t-149 156.5l58 35q40 -88 131 -136t221 -48q150 0 246 70
q96 76 96 188q0 64 -47 103.5t-160 66.5l-195 47q-119 29 -175 84.5t-56 140.5q0 69 29 129t82 101q110 84 301 84q134 0 227 -45t133 -129l-57 -37q-75 147 -305 147q-171 0 -254 -71z" />
    <glyph glyph-name="Scedilla" unicode="&#x15e;" horiz-adv-x="1267" 
d="M430 1298q-62 -46 -95.5 -118.5t-33.5 -149.5q0 -90 68.5 -149t232.5 -99l199 -49q179 -44 258.5 -121.5t79.5 -191.5q0 -103 -47.5 -194t-130.5 -150q-140 -97 -349 -103l-168 -370h-73l180 370q-191 9 -311.5 95.5t-159.5 238.5l63 31q86 -297 447 -297q201 0 330 92
q69 51 106 126.5t37 156.5q0 94 -69 154.5t-226 99.5l-193 47q-180 44 -265 120t-85 193q0 93 42.5 179t117.5 143q139 108 373 108q185 0 308.5 -71.5t158.5 -196.5l-62 -33q-77 234 -403 234q-209 0 -330 -95z" />
    <glyph glyph-name="scedilla" unicode="&#x15f;" horiz-adv-x="1017" 
d="M328 918q-84 -66 -84 -179q0 -62 46 -100t154 -66l201 -49q232 -55 232 -219q0 -74 -32.5 -140.5t-94.5 -109.5q-105 -79 -279 -82l-168 -370h-74l181 372q-131 9 -225.5 66t-131.5 147l58 35q40 -88 131 -136t221 -48q150 0 246 70q96 76 96 188q0 64 -47 103.5
t-160 66.5l-195 47q-119 29 -175 84.5t-56 140.5q0 69 29 129t82 101q110 84 301 84q134 0 227 -45t133 -129l-57 -37q-75 147 -305 147q-171 0 -254 -71z" />
    <glyph glyph-name="Scaron" unicode="&#x160;" horiz-adv-x="1267" 
d="M823 1608h-67l-240 313h72l205 -268l278 268h80zM430 1298q-62 -46 -95.5 -118.5t-33.5 -149.5q0 -90 68.5 -149t232.5 -99l199 -49q179 -44 258.5 -121.5t79.5 -191.5q0 -103 -47.5 -194t-130.5 -150q-150 -103 -369 -103q-208 0 -340 87.5t-172 246.5l63 31
q86 -297 447 -297q201 0 330 92q69 51 106 126.5t37 156.5q0 94 -69 154.5t-226 99.5l-193 47q-180 44 -265 120t-85 193q0 93 42.5 179t117.5 143q139 108 373 108q185 0 308.5 -71.5t158.5 -196.5l-62 -33q-77 234 -403 234q-209 0 -330 -95z" />
    <glyph glyph-name="scaron" unicode="&#x161;" horiz-adv-x="1017" 
d="M645 1202h-67l-240 314h72l204 -269l279 269h80zM584 1053q134 0 227 -45t133 -129l-57 -37q-75 147 -305 147q-171 0 -254 -71q-84 -66 -84 -179q0 -62 46 -100t154 -66l201 -49q232 -55 232 -219q0 -74 -32.5 -140.5t-94.5 -109.5q-108 -82 -289 -82q-150 0 -259 58.5
t-149 156.5l58 35q40 -88 131 -136t221 -48q150 0 246 70q96 76 96 188q0 64 -47 103.5t-160 66.5l-195 47q-119 29 -175 84.5t-56 140.5q0 69 29 129t82 101q110 84 301 84z" />
    <glyph glyph-name="uni0162" unicode="&#x162;" horiz-adv-x="1243" 
d="M512 0l193 1366h-527l10 68h1125l-10 -68h-525l-192 -1366h-74zM367 -537l110 336h72l-125 -336h-57z" />
    <glyph glyph-name="uni0163" unicode="&#x163;" horiz-adv-x="794" 
d="M418 965l-103 -729q-13 -97 32 -143t149 -46q67 0 157 19l-8 -58q-79 -24 -164 -24q-271 0 -235 249l102 732h-231l8 63h231l43 309h70l-43 -309h360l-10 -63h-358zM233 -537l111 336h72l-125 -336h-58z" />
    <glyph glyph-name="Tcaron" unicode="&#x164;" horiz-adv-x="1243" 
d="M809 1608h-68l-239 313h71l205 -268l279 268h80zM188 1434h1125l-10 -68h-525l-192 -1366h-74l193 1366h-527z" />
    <glyph glyph-name="tcaron" unicode="&#x165;" horiz-adv-x="796" 
d="M780 1597l-69 -389h-58l54 389h73zM418 965l-103 -729q-13 -97 32 -143t149 -46q67 0 157 19l-8 -58q-79 -24 -164 -24q-271 0 -235 249l102 732h-231l8 63h231l43 309h70l-43 -309h360l-10 -63h-358z" />
    <glyph glyph-name="Tbar" unicode="&#x166;" horiz-adv-x="1243" 
d="M1303 1366h-525l-84 -598h340l-8 -61h-340l-100 -707h-74l100 707h-342l11 61h340l84 598h-527l10 68h1125z" />
    <glyph glyph-name="tbar" unicode="&#x167;" horiz-adv-x="794" 
d="M776 965h-358l-53 -377h313l-8 -60h-314l-41 -292q-13 -97 32 -143t149 -46q67 0 157 19l-8 -58q-79 -24 -164 -24q-271 0 -235 249l41 295h-211l8 60h211l53 377h-231l8 63h231l43 309h70l-43 -309h360z" />
    <glyph glyph-name="Utilde" unicode="&#x168;" horiz-adv-x="1564" 
d="M1092 1655q-40 0 -75 19t-81 69q-36 39 -61 53t-56 14q-43 0 -75.5 -38t-41.5 -105h-57q12 93 61 146t119 53q39 0 74 -20t80 -68q38 -40 63 -54t56 -14q42 0 74.5 39t41.5 106h58q-12 -94 -60.5 -147t-119.5 -53zM709 -27q-231 0 -361.5 115.5t-130.5 325.5q0 48 6 100
l129 920h74l-129 -916q-6 -50 -6 -92q0 -184 110 -283.5t310 -99.5q228 0 377.5 125.5t181.5 349.5l127 916h73l-129 -920q-35 -255 -203.5 -398t-428.5 -143z" />
    <glyph glyph-name="utilde" unicode="&#x169;" horiz-adv-x="1232" 
d="M592 1405q-43 0 -75.5 -38t-41.5 -105h-57q12 92 61 145t119 53q39 0 74 -20t80 -68q38 -39 62.5 -53t55.5 -14q43 0 75.5 39t41.5 106h57q-12 -94 -60.5 -147.5t-119.5 -53.5q-39 0 -74 19t-81 69q-36 39 -61 53.5t-56 14.5zM1034 1028h70l-143 -1028h-70l33 238
q-56 -123 -173.5 -194t-271.5 -71q-313 0 -313 314q0 47 8 104l90 637h70l-88 -622q-8 -57 -8 -107q0 -135 63.5 -197.5t192.5 -62.5q173 0 302.5 105t153.5 278z" />
    <glyph glyph-name="Umacron" unicode="&#x16a;" horiz-adv-x="1564" 
d="M651 1698l11 61h593l-10 -61h-594zM709 -27q-231 0 -361.5 115.5t-130.5 325.5q0 48 6 100l129 920h74l-129 -916q-6 -50 -6 -92q0 -184 110 -283.5t310 -99.5q228 0 377.5 125.5t181.5 349.5l127 916h73l-129 -920q-35 -255 -203.5 -398t-428.5 -143z" />
    <glyph glyph-name="umacron" unicode="&#x16b;" horiz-adv-x="1232" 
d="M1028 1354l-10 -62h-594l10 62h594zM1034 1028h70l-143 -1028h-70l33 238q-56 -123 -173.5 -194t-271.5 -71q-313 0 -313 314q0 47 8 104l90 637h70l-88 -622q-8 -57 -8 -107q0 -135 63.5 -197.5t192.5 -62.5q173 0 302.5 105t153.5 278z" />
    <glyph glyph-name="Ubreve" unicode="&#x16c;" horiz-adv-x="1564" 
d="M940 1618q-240 0 -240 194q0 13 5 58h63q-4 -36 -4 -49q0 -75 44 -111.5t136 -36.5q207 0 234 197h65v-4q-35 -248 -303 -248zM709 -27q-231 0 -361.5 115.5t-130.5 325.5q0 48 6 100l129 920h74l-129 -916q-6 -50 -6 -92q0 -184 110 -283.5t310 -99.5q228 0 377.5 125.5
t181.5 349.5l127 916h73l-129 -920q-35 -255 -203.5 -398t-428.5 -143z" />
    <glyph glyph-name="ubreve" unicode="&#x16d;" horiz-adv-x="1232" 
d="M713 1212q-240 0 -240 195q0 21 4 57h64q-4 -36 -4 -49q0 -75 44 -111t136 -36q104 0 162 48t71 148h66v-4q-35 -248 -303 -248zM1034 1028h70l-143 -1028h-70l33 238q-56 -123 -173.5 -194t-271.5 -71q-313 0 -313 314q0 47 8 104l90 637h70l-88 -622q-8 -57 -8 -107
q0 -135 63.5 -197.5t192.5 -62.5q173 0 302.5 105t153.5 278z" />
    <glyph glyph-name="Uring" unicode="&#x16e;" horiz-adv-x="1564" 
d="M938 1608q-86 0 -139.5 51t-53.5 131q0 101 73.5 171.5t176.5 70.5q85 0 139 -51.5t54 -129.5q0 -101 -74 -172t-176 -71zM942 1663q79 0 132.5 52.5t53.5 131.5q0 61 -35.5 96t-99.5 35q-80 0 -134 -53t-54 -131q0 -61 36 -96t101 -35zM709 -27q-231 0 -361.5 115.5
t-130.5 325.5q0 48 6 100l129 920h74l-129 -916q-6 -50 -6 -92q0 -184 110 -283.5t310 -99.5q228 0 377.5 125.5t181.5 349.5l127 916h73l-129 -920q-35 -255 -203.5 -398t-428.5 -143z" />
    <glyph glyph-name="uring" unicode="&#x16f;" horiz-adv-x="1232" 
d="M711 1202q-86 0 -139.5 51t-53.5 131q0 101 73.5 171.5t176.5 70.5q85 0 139 -51.5t54 -128.5q0 -101 -74 -172.5t-176 -71.5zM766 1573q-80 0 -134 -53t-54 -131q0 -61 36 -96.5t101 -35.5q78 0 132 53t54 132q0 61 -35.5 96t-99.5 35zM1034 1028h70l-143 -1028h-70
l33 238q-56 -123 -173.5 -194t-271.5 -71q-313 0 -313 314q0 47 8 104l90 637h70l-88 -622q-8 -57 -8 -107q0 -135 63.5 -197.5t192.5 -62.5q173 0 302.5 105t153.5 278z" />
    <glyph glyph-name="Uhungarumlaut" unicode="&#x170;" horiz-adv-x="1564" 
d="M662 1608l296 313h80l-301 -313h-75zM1008 1608l299 313h79l-301 -313h-77zM709 -27q-231 0 -361.5 115.5t-130.5 325.5q0 48 6 100l129 920h74l-129 -916q-6 -50 -6 -92q0 -184 110 -283.5t310 -99.5q228 0 377.5 125.5t181.5 349.5l127 916h73l-129 -920
q-35 -255 -203.5 -398t-428.5 -143z" />
    <glyph glyph-name="uhungarumlaut" unicode="&#x171;" horiz-adv-x="1232" 
d="M811 1516l-301 -314h-76l297 314h80zM858 1202h-78l299 314h80zM950 422l84 606h70l-143 -1028h-70l33 238q-56 -123 -173.5 -194t-271.5 -71q-313 0 -313 314q0 47 8 104l90 637h70l-88 -622q-8 -57 -8 -107q0 -135 63.5 -197.5t192.5 -62.5q173 0 302.5 105t153.5 278z
" />
    <glyph glyph-name="Uogonek" unicode="&#x172;" horiz-adv-x="1564" 
d="M1397 1434h73l-129 -920q-26 -190 -129 -319.5t-266 -184.5q-111 -74 -150 -110q-85 -79 -85 -162q0 -51 39.5 -75.5t123.5 -24.5h23l-8 -62h-27q-110 0 -165.5 39.5t-55.5 110.5q0 144 176 254q-61 -7 -108 -7q-231 0 -361.5 115.5t-130.5 325.5q0 48 6 100l129 920h74
l-129 -916q-6 -50 -6 -92q0 -184 110 -283.5t310 -99.5q228 0 377.5 125.5t181.5 349.5z" />
    <glyph glyph-name="uogonek" unicode="&#x173;" horiz-adv-x="1232" 
d="M961 0q-113 -74 -152 -109q-87 -80 -88 -165q0 -101 164 -101h22l-8 -61h-27q-110 0 -165.5 39t-55.5 110q0 162 240 293l33 232q-56 -123 -173.5 -194t-271.5 -71q-313 0 -313 314q0 47 8 104l90 637h70l-88 -622q-8 -57 -8 -107q0 -135 63.5 -197.5t192.5 -62.5
q173 0 302.5 105t153.5 278l84 606h70z" />
    <glyph glyph-name="Wcircumflex" unicode="&#x174;" horiz-adv-x="2088" 
d="M1241 1874l-280 -266h-80l327 313h68l240 -313h-72zM2075 1434h75l-659 -1434h-78l-252 1335l-629 -1335h-79l-256 1434h73l238 -1334l625 1334h77l254 -1334z" />
    <glyph glyph-name="wcircumflex" unicode="&#x175;" horiz-adv-x="1665" 
d="M973 1468l-281 -266h-80l328 314h68l239 -314h-71zM1612 1028h71l-507 -1028h-76l-207 944l-471 -944h-78l-217 1028h68l200 -940l469 940h78l207 -940z" />
    <glyph glyph-name="Ycircumflex" unicode="&#x176;" horiz-adv-x="1261" 
d="M825 1874l-280 -266h-80l328 313h67l240 -313h-72zM1278 1434h90l-686 -816l-88 -618h-74l88 618l-456 816h79l418 -750z" />
    <glyph glyph-name="ycircumflex" unicode="&#x177;" horiz-adv-x="1060" 
d="M670 1468l-281 -266h-80l328 314h68l239 -314h-72zM1014 1028h76l-811 -1436h-78l227 398l-305 1038h72l278 -960z" />
    <glyph glyph-name="Ydieresis" unicode="&#x178;" horiz-adv-x="1261" 
d="M586 1710q-25 0 -40.5 15t-15.5 38q0 28 21.5 49t50.5 21q25 0 40 -14t15 -39q0 -28 -20.5 -49t-50.5 -21zM1010 1710q-25 0 -40.5 15t-15.5 38q0 28 20.5 49t49.5 21q25 0 40 -14t15 -39q0 -29 -19.5 -49.5t-49.5 -20.5zM1278 1434h90l-686 -816l-88 -618h-74l88 618
l-456 816h79l418 -750z" />
    <glyph glyph-name="Zacute" unicode="&#x179;" horiz-adv-x="1232" 
d="M1057 1921l-307 -313h-78l295 313h90zM1249 1434l-8 -58l-1110 -1308h938l-8 -68h-1032l8 57l1110 1309h-903l8 68h997z" />
    <glyph glyph-name="zacute" unicode="&#x17a;" horiz-adv-x="999" 
d="M879 1516l-308 -314h-77l294 314h91zM950 1028l-6 -53l-807 -912h686l-8 -63h-778l8 53l807 912h-662l11 63h749z" />
    <glyph glyph-name="Zdotaccent" unicode="&#x17b;" horiz-adv-x="1232" 
d="M791 1710q-25 0 -39.5 15t-14.5 38q0 28 20.5 49t49.5 21q25 0 40 -14t15 -39q0 -29 -20 -49.5t-51 -20.5zM1249 1434l-8 -58l-1110 -1308h938l-8 -68h-1032l8 57l1110 1309h-903l8 68h997z" />
    <glyph glyph-name="zdotaccent" unicode="&#x17c;" horiz-adv-x="999" 
d="M614 1305q-24 0 -38.5 14.5t-14.5 38.5q0 28 20.5 48.5t49.5 20.5q25 0 40 -14t15 -39q0 -28 -20 -48.5t-52 -20.5zM950 1028l-6 -53l-807 -912h686l-8 -63h-778l8 53l807 912h-662l11 63h749z" />
    <glyph glyph-name="Zcaron" unicode="&#x17d;" horiz-adv-x="1232" 
d="M811 1608h-68l-239 313h71l205 -268l279 268h80zM1249 1434l-8 -58l-1110 -1308h938l-8 -68h-1032l8 57l1110 1309h-903l8 68h997z" />
    <glyph glyph-name="zcaron" unicode="&#x17e;" horiz-adv-x="999" 
d="M635 1202h-68l-239 314h71l205 -269l279 269h80zM190 965l11 63h749l-6 -53l-807 -912h686l-8 -63h-778l8 53l807 912h-662z" />
    <glyph glyph-name="florin" unicode="&#x192;" horiz-adv-x="1017" 
d="M991 1434h68l-10 -66h-66q-102 0 -165.5 -51t-98.5 -160l-107 -323h336l-6 -62h-350l-264 -801q-44 -135 -125 -196.5t-213 -61.5h-68l10 66h66q102 0 165.5 51t98.5 160l258 782h-327l8 62h340l112 342q44 135 125 196.5t213 61.5z" />
    <glyph glyph-name="uni01CD" unicode="&#x1cd;" horiz-adv-x="1396" 
d="M887 1608h-68l-239 313h71l205 -268l279 268h79zM1200 0l-123 438h-774l-246 -438h-77l806 1434h82l406 -1434h-74zM342 506h717l-240 854z" />
    <glyph glyph-name="uni01CE" unicode="&#x1ce;" horiz-adv-x="1343" 
d="M821 1202h-67l-240 314h72l205 -269l278 269h80zM1147 1028h70l-144 -1028h-69l38 285q-66 -146 -194.5 -229t-290.5 -83q-200 0 -318 123.5t-118 327.5q0 143 54 272.5t153 216.5q156 140 370 140q161 0 271 -81t139 -222zM887 156q94 78 145 196.5t51 247.5
q0 175 -102.5 281t-273.5 106q-193 0 -330 -125q-88 -81 -136 -196t-48 -240q0 -174 103 -280.5t273 -106.5q182 0 318 117z" />
    <glyph glyph-name="uni01E2" unicode="&#x1e2;" horiz-adv-x="2211" 
d="M1939 1759l-10 -61h-594l11 61h593zM2144 1366h-852l-84 -608h817l-10 -68h-819l-86 -622h872l-8 -68h-946l57 410h-679l-351 -410h-88l1225 1434h962zM1096 477l123 887l-756 -887h633z" />
    <glyph glyph-name="uni01E3" unicode="&#x1e3;" horiz-adv-x="1961" 
d="M1415 1354l-10 -62h-594l10 62h594zM1450 1053q184 0 297 -110t113 -290q0 -33 -7 -80l-14 -63h-881q-6 -47 -6 -94q0 -176 100 -276.5t265 -100.5q121 0 228.5 54t183.5 155l49 -37q-82 -114 -201.5 -176t-261.5 -62q-170 0 -280 88t-136 242q-51 -156 -180.5 -243
t-310.5 -87q-156 0 -242 68t-86 190q0 76 30.5 144t86.5 112q111 82 309 82h391l18 125q5 25 5 60q0 116 -70.5 175.5t-204.5 59.5q-237 0 -375 -178l-47 41q153 201 426 201q161 0 246.5 -74.5t85.5 -212.5q77 136 199 211.5t270 75.5zM1124 854q-111 -105 -153 -285h811
q6 44 6 80q0 157 -93 247.5t-245 90.5q-187 0 -326 -133zM414 35q182 0 310.5 107.5t154.5 289.5l10 78h-387q-174 0 -264 -72q-42 -35 -63 -90t-21 -112q0 -97 67 -149t193 -52z" />
    <glyph glyph-name="Gcaron" unicode="&#x1e6;" horiz-adv-x="1630" 
d="M1051 1608h-68l-240 313h72l205 -268l278 268h80zM973 653l8 68h514l-74 -526q-104 -106 -253 -164t-328 -58q-312 0 -490 168t-178 449q0 191 75 368t212 299q228 203 542 203q177 0 312.5 -66t204.5 -186l-64 -41q-60 107 -176.5 165.5t-271.5 58.5q-143 0 -272 -48.5
t-228 -140.5q-124 -114 -191 -277.5t-67 -332.5q0 -256 161.5 -402.5t430.5 -146.5q153 0 289 48t223 130l61 432h-440z" />
    <glyph glyph-name="gcaron" unicode="&#x1e7;" horiz-adv-x="1343" 
d="M799 1202h-68l-239 314h71l205 -269l279 269h79zM1147 1028h70l-132 -932q-35 -253 -188 -392.5t-399 -139.5q-151 0 -263 51.5t-174 142.5l52 47q56 -84 156.5 -130t228.5 -46q212 0 349 123t169 344l28 207q-68 -141 -195.5 -222t-285.5 -81q-202 0 -322 120.5
t-120 319.5q0 136 54.5 261.5t150.5 209.5q155 142 372 142q164 0 272.5 -80.5t137.5 -222.5zM907 195q86 79 132 186.5t46 226.5q0 170 -102 274.5t-274 104.5q-96 0 -184 -34.5t-156 -98.5q-84 -77 -129 -186t-45 -226q0 -168 101.5 -272t270.5 -104q195 0 340 129z" />
    <glyph glyph-name="uni01E8" unicode="&#x1e8;" horiz-adv-x="1382" 
d="M907 1610h-67l-240 311h72l205 -266l278 266h80zM1440 1434l-701 -631l535 -803h-88l-500 754l-385 -344l-57 -410h-72l201 1434h73l-131 -920l1028 920h97z" />
    <glyph glyph-name="uni01E9" unicode="&#x1e9;" horiz-adv-x="1075" 
d="M432 1675h-67l-240 312h72l204 -267l281 267h78zM1110 1026l-535 -444l406 -582h-80l-377 539l-284 -240l-43 -299h-70l211 1497h70l-156 -1110l764 641z" />
    <glyph glyph-name="AEacute" unicode="&#x1fc;" horiz-adv-x="2211" 
d="M1901 1921l-308 -313h-77l294 313h91zM2144 1366h-852l-84 -608h817l-10 -68h-819l-86 -622h872l-8 -68h-946l57 410h-679l-351 -410h-88l1225 1434h962zM1096 477l123 887l-756 -887h633z" />
    <glyph glyph-name="aeacute" unicode="&#x1fd;" horiz-adv-x="1961" 
d="M1376 1516l-307 -314h-78l295 314h90zM1450 1053q184 0 297 -110t113 -290q0 -33 -7 -80l-14 -63h-881q-6 -47 -6 -94q0 -176 100 -276.5t265 -100.5q121 0 228.5 54t183.5 155l49 -37q-82 -114 -201.5 -176t-261.5 -62q-170 0 -280 88t-136 242q-51 -156 -180.5 -243
t-310.5 -87q-156 0 -242 68t-86 190q0 76 30.5 144t86.5 112q111 82 309 82h391l18 125q5 25 5 60q0 116 -70.5 175.5t-204.5 59.5q-237 0 -375 -178l-47 41q153 201 426 201q161 0 246.5 -74.5t85.5 -212.5q77 136 199 211.5t270 75.5zM1124 854q-111 -105 -153 -285h811
q6 44 6 80q0 157 -93 247.5t-245 90.5q-187 0 -326 -133zM414 35q182 0 310.5 107.5t154.5 289.5l10 78h-387q-174 0 -264 -72q-42 -35 -63 -90t-21 -112q0 -97 67 -149t193 -52z" />
    <glyph glyph-name="Oslashacute" unicode="&#x1fe;" horiz-adv-x="1746" 
d="M1169 1921l-307 -313h-78l295 313h90zM1708 1384l-192 -170q116 -163 116 -383q0 -185 -80.5 -361t-220.5 -298q-231 -199 -526 -199q-150 0 -272 52t-207 147l-191 -168l-39 47l193 168q-117 157 -117 383q0 186 78.5 359.5t216.5 293.5q110 97 246.5 151t285.5 54
q148 0 270.5 -52t207.5 -146l192 168zM512 1200q-124 -112 -193 -270.5t-69 -327.5q0 -189 96 -334l1077 944q-155 179 -424 179q-137 0 -262.5 -49.5t-224.5 -141.5zM1282 223q129 114 200.5 275t71.5 333q0 191 -96 336l-1077 -944q75 -86 183 -133t239 -47q271 0 479 180
z" />
    <glyph glyph-name="oslashacute" unicode="&#x1ff;" horiz-adv-x="1296" 
d="M944 1516l-307 -314h-78l295 314h90zM1253 1006l-153 -138q74 -113 74 -264q0 -138 -55.5 -268.5t-155.5 -218.5q-160 -144 -383 -144t-347 140l-151 -136l-37 46l152 135q-74 113 -74 266q0 138 55 267.5t154 217.5q160 144 387 144q219 0 344 -138l151 134zM375 854
q-86 -78 -132 -191t-46 -237q0 -129 57 -223l758 663q-102 121 -293 121q-201 0 -344 -133zM920 170q87 80 133.5 193.5t46.5 236.5q0 127 -58 223l-755 -665q106 -119 293 -119q196 0 340 131z" />
    <glyph glyph-name="uni0218" unicode="&#x218;" horiz-adv-x="1267" 
d="M592 -27q-208 0 -340 87.5t-172 246.5l63 31q86 -297 447 -297q201 0 330 92q69 51 106 126.5t37 156.5q0 94 -69 154.5t-226 99.5l-193 47q-180 44 -265 120t-85 193q0 93 42.5 179t117.5 143q139 108 373 108q185 0 308.5 -71.5t158.5 -196.5l-62 -33q-77 234 -403 234
q-209 0 -330 -95q-62 -46 -95.5 -118.5t-33.5 -149.5q0 -90 68.5 -149t232.5 -99l199 -49q179 -44 258.5 -121.5t79.5 -191.5q0 -103 -47.5 -194t-130.5 -150q-150 -103 -369 -103zM414 -537l110 336h72l-125 -336h-57z" />
    <glyph glyph-name="uni0219" unicode="&#x219;" horiz-adv-x="1017" 
d="M461 -27q-150 0 -259 58.5t-149 156.5l58 35q40 -88 131 -136t221 -48q150 0 246 70q96 76 96 188q0 64 -47 103.5t-160 66.5l-195 47q-119 29 -175 84.5t-56 140.5q0 69 29 129t82 101q110 84 301 84q134 0 227 -45t133 -129l-57 -37q-75 147 -305 147q-171 0 -254 -71
q-84 -66 -84 -179q0 -62 46 -100t154 -66l201 -49q232 -55 232 -219q0 -74 -32.5 -140.5t-94.5 -109.5q-108 -82 -289 -82zM272 -537l111 336h72l-125 -336h-58z" />
    <glyph glyph-name="uni021A" unicode="&#x21a;" horiz-adv-x="1243" 
d="M512 0l193 1366h-527l10 68h1125l-10 -68h-525l-192 -1366h-74zM367 -537l110 336h72l-125 -336h-57z" />
    <glyph glyph-name="uni021B" unicode="&#x21b;" horiz-adv-x="794" 
d="M418 965l-103 -729q-13 -97 32 -143t149 -46q67 0 157 19l-8 -58q-79 -24 -164 -24q-271 0 -235 249l102 732h-231l8 63h231l43 309h70l-43 -309h360l-10 -63h-358zM233 -537l111 336h72l-125 -336h-58z" />
    <glyph glyph-name="uni0237" unicode="&#x237;" horiz-adv-x="473" 
d="M-100 -438q-49 0 -95 14l9 64q50 -13 90 -13q84 0 136 52.5t64 148.5l170 1200h70l-170 -1204q-17 -126 -87.5 -194t-186.5 -68z" />
    <glyph glyph-name="circumflex" unicode="&#x2c6;" horiz-adv-x="1269" 
d="M1049 1202h-72l-203 266l-280 -266h-80l327 314h68z" />
    <glyph glyph-name="caron" unicode="&#x2c7;" horiz-adv-x="1269" 
d="M1014 1516h80l-328 -314h-68l-239 314h71l205 -269z" />
    <glyph glyph-name="breve" unicode="&#x2d8;" horiz-adv-x="1269" 
d="M735 1212q-239 0 -239 195q0 21 4 57h63q-4 -36 -4 -49q0 -75 44 -111t136 -36q207 0 234 196h65v-4q-35 -248 -303 -248z" />
    <glyph glyph-name="dotaccent" unicode="&#x2d9;" horiz-adv-x="1269" 
d="M745 1305q-24 0 -38.5 14.5t-14.5 38.5q0 28 20.5 48.5t49.5 20.5q25 0 40 -14t15 -39q0 -28 -20.5 -48.5t-51.5 -20.5z" />
    <glyph glyph-name="ring" unicode="&#x2da;" horiz-adv-x="1269" 
d="M733 1202q-86 0 -139 51t-53 131q0 101 73.5 171.5t176.5 70.5q85 0 138.5 -51t53.5 -129q0 -101 -74 -172.5t-176 -71.5zM737 1257q79 0 133 53t54 132q0 61 -36 96t-100 35q-80 0 -134 -53t-54 -131q0 -61 36 -96.5t101 -35.5z" />
    <glyph glyph-name="ogonek" unicode="&#x2db;" horiz-adv-x="1269" 
d="M545 -436q-110 0 -165.5 39t-55.5 110q0 44 16.5 84.5t41.5 71t63 60t71 49.5t76 42l41 -20q-113 -74 -152 -109q-88 -80 -88 -165q0 -101 164 -101h23l-9 -61h-26z" />
    <glyph glyph-name="tilde" unicode="&#x2dc;" horiz-adv-x="1269" 
d="M887 1249q-40 0 -75 19t-81 69q-36 39 -61 53.5t-56 14.5q-43 0 -75 -38t-41 -105h-58q12 92 61.5 145t119.5 53q39 0 73.5 -20t79.5 -68q38 -39 63 -53t56 -14q43 0 75.5 39t41.5 106h57q-12 -94 -60.5 -147.5t-119.5 -53.5z" />
    <glyph glyph-name="hungarumlaut" unicode="&#x2dd;" horiz-adv-x="1269" 
d="M510 1202l297 314h80l-301 -314h-76zM856 1202l299 314h80l-301 -314h-78z" />
    <glyph glyph-name="gravecomb" unicode="&#x300;" horiz-adv-x="0" 
d="M-555 1202l-219 314h86l209 -314h-76z" />
    <glyph glyph-name="acutecomb" unicode="&#x301;" horiz-adv-x="0" 
d="M-594 1202l295 314h90l-307 -314h-78z" />
    <glyph glyph-name="uni0302" unicode="&#x302;" horiz-adv-x="0" 
d="M-221 1202h-72l-203 266l-280 -266h-80l328 314h67z" />
    <glyph glyph-name="tildecomb" unicode="&#x303;" horiz-adv-x="0" 
d="M-383 1249q-40 0 -75 19t-81 69q-37 40 -61 54t-55 14q-43 0 -75.5 -38t-41.5 -105h-57q12 92 61 145t119 53q39 0 73.5 -20t79.5 -68q38 -39 63 -53t56 -14q43 0 75.5 39t41.5 106h57q-12 -94 -60.5 -147.5t-119.5 -53.5z" />
    <glyph glyph-name="uni0304" unicode="&#x304;" horiz-adv-x="0" 
d="M-823 1292l10 62h594l-10 -62h-594z" />
    <glyph glyph-name="uni0306" unicode="&#x306;" horiz-adv-x="0" 
d="M-535 1212q-239 0 -239 195q0 21 4 57h63q-4 -36 -4 -49q0 -75 44.5 -111t136.5 -36q104 0 162 48t71 148h66v-4q-35 -248 -304 -248z" />
    <glyph glyph-name="uni0307" unicode="&#x307;" horiz-adv-x="0" 
d="M-524 1305q-24 0 -39 14.5t-15 38.5q0 28 20.5 48.5t49.5 20.5q25 0 40 -14t15 -39q0 -29 -20 -49t-51 -20z" />
    <glyph glyph-name="uni0308" unicode="&#x308;" horiz-adv-x="0" 
d="M-735 1305q-25 0 -40.5 15t-15.5 38q0 28 21.5 48.5t50.5 20.5q25 0 40 -14t15 -39q0 -28 -20.5 -48.5t-50.5 -20.5zM-311 1305q-25 0 -40.5 15t-15.5 38q0 28 20.5 48.5t49.5 20.5q25 0 40 -14t15 -39q0 -28 -19.5 -48.5t-49.5 -20.5z" />
    <glyph glyph-name="uni030A" unicode="&#x30a;" horiz-adv-x="0" 
d="M-537 1202q-86 0 -139 51t-53 131q0 101 73.5 171.5t176.5 70.5q85 0 138.5 -51t53.5 -129q0 -101 -74 -172.5t-176 -71.5zM-532 1257q78 0 132 53t54 132q0 61 -35.5 96t-99.5 35q-80 0 -134.5 -53t-54.5 -131q0 -61 36.5 -96.5t101.5 -35.5z" />
    <glyph glyph-name="uni030B" unicode="&#x30b;" horiz-adv-x="0" 
d="M-760 1202l297 314h80l-301 -314h-76zM-414 1202l299 314h80l-301 -314h-78z" />
    <glyph glyph-name="uni030C" unicode="&#x30c;" horiz-adv-x="0" 
d="M-256 1516h80l-328 -314h-67l-240 314h72l204 -269z" />
    <glyph glyph-name="uni0315" unicode="&#x315;" horiz-adv-x="0" 
d="M-582 1149l54 389h73l-69 -389h-58z" />
    <glyph glyph-name="uni0326" unicode="&#x326;" horiz-adv-x="0" 
d="M-881 -537l111 336h72l-125 -336h-58z" />
    <glyph glyph-name="uni0327" unicode="&#x327;" horiz-adv-x="0" 
d="M-918 -397l201 413h62l-189 -413h-74z" />
    <glyph glyph-name="uni0328" unicode="&#x328;" horiz-adv-x="0" 
d="M-725 -436q-110 0 -165.5 39t-55.5 110q0 44 16.5 84.5t41.5 71t63 60t71 49.5t76 42l41 -20q-113 -74 -152 -109q-87 -80 -88 -165q0 -101 164 -101h23l-8 -61h-27z" />
    <glyph glyph-name="uni03BC" unicode="&#x3bc;" horiz-adv-x="1249" 
d="M1051 1028h69l-143 -1028h-70l33 238q-55 -123 -168.5 -194t-265.5 -71q-232 0 -287 183l-86 -607h-70l209 1479h70l-90 -633q-44 -356 266 -356q175 0 299.5 105t151.5 290z" />
    <glyph glyph-name="pi" unicode="&#x3c0;" horiz-adv-x="1193" 
d="M1034 66h35l-8 -66h-39q-224 0 -191 233l103 730h-602l-135 -963h-70l145 1028h740l-111 -790q-12 -90 21 -131t112 -41z" />
    <glyph glyph-name="uni1E20" unicode="&#x1e20;" horiz-adv-x="1630" 
d="M1335 1759l-10 -61h-594l10 61h594zM973 653l8 68h514l-74 -526q-104 -106 -253 -164t-328 -58q-312 0 -490 168t-178 449q0 191 75 368t212 299q228 203 542 203q177 0 312.5 -66t204.5 -186l-64 -41q-60 107 -176.5 165.5t-271.5 58.5q-143 0 -272 -48.5t-228 -140.5
q-124 -114 -191 -277.5t-67 -332.5q0 -256 161.5 -402.5t430.5 -146.5q153 0 289 48t223 130l61 432h-440z" />
    <glyph glyph-name="uni1E21" unicode="&#x1e21;" horiz-adv-x="1343" 
d="M1083 1354l-10 -62h-594l10 62h594zM1147 1028h70l-132 -932q-35 -253 -188 -392.5t-399 -139.5q-151 0 -263 51.5t-174 142.5l52 47q56 -84 156.5 -130t228.5 -46q212 0 349 123t169 344l28 207q-68 -141 -195.5 -222t-285.5 -81q-202 0 -322 120.5t-120 319.5
q0 136 54.5 261.5t150.5 209.5q155 142 372 142q164 0 272.5 -80.5t137.5 -222.5zM907 195q86 79 132 186.5t46 226.5q0 170 -102 274.5t-274 104.5q-96 0 -184 -34.5t-156 -98.5q-84 -77 -129 -186t-45 -226q0 -168 101.5 -272t270.5 -104q195 0 340 129z" />
    <glyph glyph-name="uni1E30" unicode="&#x1e30;" horiz-adv-x="1382" 
d="M1153 1921l-307 -311h-80l297 311h90zM1440 1434l-701 -631l535 -803h-88l-500 754l-385 -344l-57 -410h-72l201 1434h73l-131 -920l1028 920h97z" />
    <glyph glyph-name="uni1E31" unicode="&#x1e31;" horiz-adv-x="1075" 
d="M678 1987l-307 -312h-78l295 312h90zM1110 1026l-535 -444l406 -582h-80l-377 539l-284 -240l-43 -299h-70l211 1497h70l-156 -1110l764 641z" />
    <glyph glyph-name="uni1E3E" unicode="&#x1e3e;" horiz-adv-x="1921" 
d="M1393 1921l-308 -313h-77l295 313h90zM1720 1434h86l-200 -1434h-72l184 1321l-741 -930h-66l-483 932l-184 -1323h-72l201 1434h78l499 -965z" />
    <glyph glyph-name="uni1E3F" unicode="&#x1e3f;" horiz-adv-x="1884" 
d="M1331 1516l-307 -314h-78l295 314h90zM1413 1053q149 0 227 -80t78 -232q0 -53 -8 -102l-88 -639h-70l88 629q9 79 9 100q0 258 -246 258q-163 0 -274 -103.5t-136 -279.5l-84 -604h-69l88 629q8 47 8 100q0 258 -246 258q-163 0 -273.5 -103.5t-133.5 -279.5l-86 -604
h-70l145 1028h70l-33 -227q55 120 156 186t237 66q140 0 217.5 -71.5t84.5 -207.5q47 128 153 203.5t256 75.5z" />
    <glyph glyph-name="uni1E40" unicode="&#x1e40;" horiz-adv-x="1921" 
d="M1128 1710q-24 0 -38.5 14.5t-14.5 38.5q0 28 20.5 49t49.5 21q25 0 40 -14t15 -39q0 -29 -20.5 -49.5t-51.5 -20.5zM1720 1434h86l-200 -1434h-72l184 1321l-741 -930h-66l-483 932l-184 -1323h-72l201 1434h78l499 -965z" />
    <glyph glyph-name="uni1E41" unicode="&#x1e41;" horiz-adv-x="1884" 
d="M1065 1305q-24 0 -38.5 14.5t-14.5 38.5q0 28 20 48.5t49 20.5q25 0 40.5 -14.5t15.5 -38.5q0 -28 -20.5 -48.5t-51.5 -20.5zM1413 1053q149 0 227 -80t78 -232q0 -53 -8 -102l-88 -639h-70l88 629q9 79 9 100q0 258 -246 258q-163 0 -274 -103.5t-136 -279.5l-84 -604
h-69l88 629q8 47 8 100q0 258 -246 258q-163 0 -273.5 -103.5t-133.5 -279.5l-86 -604h-70l145 1028h70l-33 -227q55 120 156 186t237 66q140 0 217.5 -71.5t84.5 -207.5q47 128 153 203.5t256 75.5z" />
    <glyph glyph-name="uni1E44" unicode="&#x1e44;" horiz-adv-x="1619" 
d="M977 1710q-24 0 -38.5 14.5t-14.5 38.5q0 28 20 49t49 21q25 0 40.5 -14.5t15.5 -38.5q0 -29 -20.5 -49.5t-51.5 -20.5zM1434 1434h71l-200 -1434h-74l-803 1321l-184 -1321h-72l201 1434h71l805 -1321z" />
    <glyph glyph-name="uni1E45" unicode="&#x1e45;" horiz-adv-x="1241" 
d="M735 1305q-24 0 -38.5 14.5t-14.5 38.5q0 28 20.5 48.5t49.5 20.5q25 0 40 -14t15 -39q0 -28 -20.5 -48.5t-51.5 -20.5zM741 1053q163 0 247.5 -81.5t84.5 -236.5q0 -55 -8 -104l-88 -631h-70l88 621q6 52 6 94q0 140 -68.5 206t-203.5 66q-175 0 -298.5 -102.5
t-147.5 -280.5l-86 -604h-70l145 1028h70l-33 -231q58 120 170 188t262 68z" />
    <glyph glyph-name="Wgrave" unicode="&#x1e80;" horiz-adv-x="2088" 
d="M1307 1608h-76l-219 313h86zM2075 1434h75l-659 -1434h-78l-252 1335l-629 -1335h-79l-256 1434h73l238 -1334l625 1334h77l254 -1334z" />
    <glyph glyph-name="wgrave" unicode="&#x1e81;" horiz-adv-x="1665" 
d="M1038 1202h-75l-220 314h86zM1612 1028h71l-507 -1028h-76l-207 944l-471 -944h-78l-217 1028h68l200 -940l469 940h78l207 -940z" />
    <glyph glyph-name="Wacute" unicode="&#x1e82;" horiz-adv-x="2088" 
d="M1479 1921l-308 -313h-77l295 313h90zM2075 1434h75l-659 -1434h-78l-252 1335l-629 -1335h-79l-256 1434h73l238 -1334l625 1334h77l254 -1334z" />
    <glyph glyph-name="wacute" unicode="&#x1e83;" horiz-adv-x="1665" 
d="M1210 1516l-307 -314h-78l295 314h90zM1612 1028h71l-507 -1028h-76l-207 944l-471 -944h-78l-217 1028h68l200 -940l469 940h78l207 -940z" />
    <glyph glyph-name="Wdieresis" unicode="&#x1e84;" horiz-adv-x="2088" 
d="M1001 1710q-25 0 -40 15t-15 38q0 28 21.5 49t50.5 21q25 0 40 -14t15 -39q0 -28 -21 -49t-51 -21zM1425 1710q-25 0 -40 15t-15 38q0 28 20.5 49t49.5 21q25 0 40 -14t15 -39q0 -28 -20 -49t-50 -21zM2075 1434h75l-659 -1434h-78l-252 1335l-629 -1335h-79l-256 1434
h73l238 -1334l625 1334h77l254 -1334z" />
    <glyph glyph-name="wdieresis" unicode="&#x1e85;" horiz-adv-x="1665" 
d="M733 1305q-25 0 -40 15t-15 38q0 28 21.5 48.5t50.5 20.5q25 0 40 -14t15 -39q0 -28 -21 -48.5t-51 -20.5zM1157 1305q-25 0 -40 15t-15 38q0 28 20 48.5t49 20.5q25 0 40.5 -14.5t15.5 -38.5q0 -28 -20 -48.5t-50 -20.5zM1612 1028h71l-507 -1028h-76l-207 944
l-471 -944h-78l-217 1028h68l200 -940l469 940h78l207 -940z" />
    <glyph glyph-name="uni1E90" unicode="&#x1e90;" horiz-adv-x="1232" 
d="M819 1874l-280 -266h-80l327 313h68l240 -313h-72zM1249 1434l-8 -58l-1110 -1308h938l-8 -68h-1032l8 57l1110 1309h-903l8 68h997z" />
    <glyph glyph-name="uni1E91" unicode="&#x1e91;" horiz-adv-x="999" 
d="M643 1468l-281 -266h-79l327 314h68l240 -314h-72zM950 1028l-6 -53l-807 -912h686l-8 -63h-778l8 53l807 912h-662l11 63h749z" />
    <glyph glyph-name="uni1E9E" unicode="&#x1e9e;" horiz-adv-x="1486" 
d="M928 756q428 0 428 -307q0 -102 -37.5 -193.5t-108.5 -151.5q-128 -104 -364 -104h-223l8 68h211q213 0 321 92q58 50 87.5 126.5t29.5 157.5q0 127 -86 187.5t-262 60.5h-111l8 66l478 471q-115 164 -410 164q-239 0 -375 -117.5t-172 -374.5l-127 -901h-71l127 903
q41 287 191.5 422t422.5 135q370 0 502 -237l-477 -467h10z" />
    <glyph glyph-name="Ygrave" unicode="&#x1ef2;" horiz-adv-x="1261" 
d="M891 1608h-76l-219 313h86zM1278 1434h90l-686 -816l-88 -618h-74l88 618l-456 816h79l418 -750z" />
    <glyph glyph-name="ygrave" unicode="&#x1ef3;" horiz-adv-x="1060" 
d="M733 1202h-74l-219 314h86zM1014 1028h76l-811 -1436h-78l227 398l-305 1038h72l278 -960z" />
    <glyph glyph-name="uni2000" unicode="&#x2000;" horiz-adv-x="1024" 
 />
    <glyph glyph-name="uni2001" unicode="&#x2001;" horiz-adv-x="2048" 
 />
    <glyph glyph-name="uni2002" unicode="&#x2002;" horiz-adv-x="1024" 
 />
    <glyph glyph-name="uni2003" unicode="&#x2003;" horiz-adv-x="2048" 
 />
    <glyph glyph-name="uni2009" unicode="&#x2009;" horiz-adv-x="460" 
 />
    <glyph glyph-name="uni200A" unicode="&#x200a;" horiz-adv-x="122" 
 />
    <glyph glyph-name="uni200B" unicode="&#x200b;" horiz-adv-x="0" 
 />
    <glyph glyph-name="endash" unicode="&#x2013;" horiz-adv-x="1280" 
d="M133 559l8 62h1024l-8 -62h-1024z" />
    <glyph glyph-name="emdash" unicode="&#x2014;" horiz-adv-x="2304" 
d="M133 559l8 62h2048l-8 -62h-2048z" />
    <glyph glyph-name="quoteleft" unicode="&#x2018;" horiz-adv-x="413" 
d="M176 981l201 479h59l-188 -479h-72z" />
    <glyph glyph-name="quoteright" unicode="&#x2019;" horiz-adv-x="413" 
d="M436 1460l-200 -479h-60l189 479h71z" />
    <glyph glyph-name="quotesinglbase" unicode="&#x201a;" horiz-adv-x="403" 
d="M238 193l-201 -478h-60l187 478h74z" />
    <glyph glyph-name="quotedblleft" unicode="&#x201c;" horiz-adv-x="718" 
d="M176 981l201 479h59l-188 -479h-72zM481 981l201 479h59l-188 -479h-72z" />
    <glyph glyph-name="quotedblright" unicode="&#x201d;" horiz-adv-x="718" 
d="M436 1460l-200 -479h-60l189 479h71zM741 1460l-200 -479h-60l189 479h71z" />
    <glyph glyph-name="quotedblbase" unicode="&#x201e;" horiz-adv-x="708" 
d="M238 193l-201 -478h-60l187 478h74zM543 193l-201 -478h-59l186 478h74z" />
    <glyph glyph-name="dagger" unicode="&#x2020;" horiz-adv-x="1075" 
d="M1042 981l-8 -66h-403l-166 -1181h-70l166 1181h-403l8 66h403l76 535h70l-76 -535h403z" />
    <glyph glyph-name="daggerdbl" unicode="&#x2021;" horiz-adv-x="1116" 
d="M1055 915h-404l-78 -546h363l-10 -66h-361l-80 -569h-69l80 569h-365l10 66h363l78 546h-404l8 66h404l76 535h69l-76 -535h404z" />
    <glyph glyph-name="bullet" unicode="&#x2022;" horiz-adv-x="974" 
d="M518 524q-92 0 -152.5 61t-60.5 152t60.5 152t152.5 61q91 0 152 -61t61 -152t-61 -152t-152 -61z" />
    <glyph glyph-name="ellipsis" unicode="&#x2026;" horiz-adv-x="1341" 
d="M156 -4q-29 0 -44.5 16.5t-13.5 44.5q1 30 22 48t48 18t43 -18t14 -46q-2 -26 -21.5 -44.5t-47.5 -18.5zM602 -4q-29 0 -44 16.5t-13 44.5q1 30 21 48t46 18q28 0 44.5 -18t13.5 -46q-2 -26 -21 -44.5t-47 -18.5zM1049 -4q-29 0 -45 16.5t-13 44.5q1 30 21 48t47 18
t43 -18t14 -46q-1 -26 -21 -44.5t-46 -18.5z" />
    <glyph glyph-name="perthousand" unicode="&#x2030;" horiz-adv-x="2449" 
d="M465 791q-132 0 -213.5 78t-81.5 204q0 162 106.5 274.5t268.5 112.5q132 0 214.5 -79t82.5 -205q0 -158 -109.5 -271.5t-267.5 -113.5zM186 0l1254 1434h76l-1254 -1434h-76zM467 850q136 0 223.5 95t87.5 229q0 104 -63 165.5t-170 61.5q-139 0 -226.5 -95.5
t-87.5 -230.5q0 -103 63.5 -164t172.5 -61zM1155 -27q-132 0 -213.5 77.5t-81.5 203.5q0 162 106.5 274.5t268.5 112.5q132 0 214.5 -78.5t82.5 -204.5q0 -159 -109 -272t-268 -113zM1960 -27q-132 0 -213.5 77.5t-81.5 203.5q0 162 106.5 274.5t268.5 112.5
q132 0 214.5 -78.5t82.5 -204.5q0 -159 -109 -272t-268 -113zM1157 31q136 0 223.5 95t87.5 230q0 103 -63 164.5t-170 61.5q-139 0 -225 -94.5t-86 -229.5q0 -103 63 -165t170 -62zM1962 31q136 0 223.5 95t87.5 230q0 103 -63 164.5t-170 61.5q-139 0 -226.5 -95
t-87.5 -229q0 -103 64 -165t172 -62z" />
    <glyph glyph-name="guilsinglleft" unicode="&#x2039;" horiz-adv-x="575" 
d="M528 938l-358 -426l238 -422h-80l-238 424l354 424h84z" />
    <glyph glyph-name="guilsinglright" unicode="&#x203a;" horiz-adv-x="575" 
d="M246 938l239 -424l-354 -424h-84l359 424l-238 424h78z" />
    <glyph glyph-name="fraction" unicode="&#x2044;" horiz-adv-x="258" 
d="M-481 0l1204 1434h74l-1205 -1434h-73z" />
    <glyph glyph-name="uni2070" unicode="&#x2070;" horiz-adv-x="776" 
d="M418 713q-122 0 -189 76.5t-67 222.5q0 111 35 223.5t98 179.5q91 101 233 101q119 0 186.5 -77t67.5 -222q0 -118 -37.5 -233t-105.5 -183q-91 -88 -221 -88zM418 772q107 0 178 74q60 61 89.5 166t29.5 209q0 117 -48.5 176t-140.5 59q-117 0 -188 -86
q-53 -62 -81 -163.5t-28 -198.5q0 -117 48.5 -176.5t140.5 -59.5z" />
    <glyph glyph-name="uni2074" unicode="&#x2074;" horiz-adv-x="704" 
d="M729 965l-8 -56h-119l-24 -182h-62l27 182h-426l6 56l483 536h80l-76 -536h119zM197 965h352l65 462z" />
    <glyph glyph-name="uni2075" unicode="&#x2075;" horiz-adv-x="673" 
d="M702 1444h-395l-43 -295q86 57 187 57q102 0 163.5 -53t61.5 -145q0 -132 -89 -213.5t-227 -81.5q-161 0 -247 114l43 41q68 -96 204 -96q110 0 180 64t70 170q0 68 -44.5 106.5t-123.5 38.5q-111 0 -198 -68l-45 27l55 391h455z" />
    <glyph glyph-name="uni2076" unicode="&#x2076;" horiz-adv-x="690" 
d="M461 1245q104 0 170.5 -60.5t66.5 -162.5q0 -135 -89 -222t-226 -87q-111 0 -180.5 60t-69.5 165q0 144 141 303l230 260h78l-263 -291q63 35 142 35zM385 770q112 0 180 70t68 178q0 81 -48.5 126.5t-135.5 45.5q-110 0 -180 -70t-70 -178q0 -82 49.5 -127t136.5 -45z
" />
    <glyph glyph-name="uni2077" unicode="&#x2077;" horiz-adv-x="600" 
d="M180 1501h518l-8 -53l-450 -721h-74l452 715h-446z" />
    <glyph glyph-name="uni2078" unicode="&#x2078;" horiz-adv-x="716" 
d="M555 1124q68 -20 104.5 -63.5t36.5 -104.5q0 -112 -88 -177.5t-217 -65.5q-121 0 -188.5 51t-67.5 135q0 88 54 146t145 81q-60 20 -92.5 60.5t-32.5 95.5q0 106 82.5 170t204.5 64q110 0 172.5 -50.5t62.5 -130.5q0 -79 -48 -133.5t-128 -77.5zM272 1280
q0 -60 45.5 -94.5t128.5 -34.5q99 0 160.5 49.5t61.5 132.5q0 60 -44.5 93.5t-127.5 33.5q-100 0 -162 -48.5t-62 -131.5zM391 770q107 0 175.5 50t68.5 136q0 64 -51 102t-142 38q-107 0 -174 -52t-67 -137q0 -64 49 -100.5t141 -36.5z" />
    <glyph glyph-name="uni2079" unicode="&#x2079;" horiz-adv-x="690" 
d="M479 1516q111 0 179.5 -61t68.5 -165q0 -84 -35.5 -155.5t-103.5 -147.5l-230 -260h-77l262 291q-60 -35 -140 -35q-105 0 -172 60t-67 163q0 134 88 222t227 88zM416 1038q112 0 180 69.5t68 180.5q0 81 -50 125.5t-137 44.5q-114 0 -182 -72t-68 -178
q0 -79 50.5 -124.5t138.5 -45.5z" />
    <glyph glyph-name="Euro" unicode="&#x20ac;" horiz-adv-x="1314" 
d="M911 1393q-93 0 -181 -46.5t-161 -132.5q-106 -129 -161 -317h571l-10 -57h-578q-31 -127 -37 -246h582l-8 -57h-574q3 -228 102 -362t261 -134q128 0 239.5 83.5t178.5 233.5l61 -22q-77 -170 -204.5 -266.5t-278.5 -96.5q-194 0 -310.5 154t-119.5 410h-197l8 57h189
q7 134 34 246h-190l10 57h195q64 221 184 358q83 98 184.5 151.5t212.5 53.5q151 0 254.5 -96.5t132.5 -265.5l-63 -23q-26 151 -112 234.5t-214 83.5z" />
    <glyph glyph-name="uni2116" unicode="&#x2116;" horiz-adv-x="2615" 
d="M2056 594q-168 0 -265 99.5t-97 260.5q0 215 135.5 360.5t343.5 145.5q165 0 263.5 -99.5t98.5 -258.5q0 -139 -61 -255t-171.5 -184.5t-246.5 -68.5zM1249 113l185 1321h71l-200 -1434h-74l-803 1321l-184 -1321h-72l201 1434h71zM2171 1397q-176 0 -291 -127t-115 -312
q0 -137 78.5 -219t212.5 -82q176 0 292 128t116 311q0 138 -79 219.5t-214 81.5zM1620 301l8 64h785l-9 -64h-784z" />
    <glyph glyph-name="trademark" unicode="&#x2122;" horiz-adv-x="1900" 
d="M236 1376l8 58h618l-8 -58h-279l-106 -778h-63l108 778h-278zM1792 1434h63l-116 -836h-64l103 731l-381 -452h-49l-256 450l-103 -729h-63l116 836h62l274 -490z" />
    <glyph glyph-name="uni2126" unicode="&#x2126;" horiz-adv-x="1648" 
d="M1335 340q-113 -145 -301 -274h377l-8 -66h-490l11 66q229 138 356 313q164 224 164 495q0 236 -136 377.5t-358 141.5q-126 0 -241 -48t-207 -137q-109 -106 -169.5 -257t-60.5 -308q0 -176 82.5 -316.5t243.5 -260.5l-8 -66h-490l11 66h378q-290 240 -290 581
q0 172 67.5 335t188.5 278q101 96 229.5 148t269.5 52q252 0 407 -162.5t155 -423.5q0 -296 -181 -534z" />
    <glyph glyph-name="estimated" unicode="&#x212e;" horiz-adv-x="1738" 
d="M899 0q-145 0 -275.5 52t-228.5 147q-97 94 -152 228.5t-55 289.5t55 291.5t152 230.5q98 92 229 143.5t275 51.5t274.5 -51.5t227.5 -143.5q98 -93 153.5 -230t55.5 -292v-25h-1196v-309q0 -72 20.5 -119t71.5 -84q171 -127 393 -127q172 0 315.5 75t231.5 210l43 -33
q-97 -145 -252 -225t-338 -80zM414 741h981v299q0 71 -20 120.5t-68 86.5q-177 133 -408 133q-222 0 -393 -127q-51 -37 -71.5 -84t-20.5 -120v-308z" />
    <glyph glyph-name="arrowleft" unicode="&#x2190;" 
d="M1391 752v-68h-1158l437 -438l-45 -47l-508 518l508 518l45 -47l-434 -436h1155z" />
    <glyph glyph-name="arrowup" unicode="&#x2191;" 
d="M1292 856l-47 -45l-436 436v-1157h-68v1157l-438 -436l-45 45l516 510z" />
    <glyph glyph-name="arrowright" unicode="&#x2192;" 
d="M887 1235l508 -518l-508 -518l-45 47l434 436h-1155v68h1157l-436 438z" />
    <glyph glyph-name="arrowdown" unicode="&#x2193;" 
d="M1208 633l45 -43l-516 -510l-518 510l47 43l436 -434v1155h68v-1155z" />
    <glyph glyph-name="uni2196" unicode="&#x2196;" 
d="M1229 281l-47 -50l-820 818l-2 -617l-63 -2l6 727l725 4l-2 -63l-614 -2z" />
    <glyph glyph-name="uni2197" unicode="&#x2197;" 
d="M1155 430l-63 2v617l-818 -818l-47 48l817 819h-616l-2 65l725 -6z" />
    <glyph glyph-name="uni2198" unicode="&#x2198;" 
d="M1094 1001l63 3l-6 -728l-727 -4l2 64l616 2l-817 815l47 49l820 -817z" />
    <glyph glyph-name="uni2199" unicode="&#x2199;" 
d="M410 338l616 -2l2 -64l-725 7l-4 727l63 -2v-619l818 819l47 -47z" />
    <glyph glyph-name="partialdiff" unicode="&#x2202;" horiz-adv-x="1310" 
d="M741 1462q231 0 357.5 -146t126.5 -419q0 -214 -64 -427t-182 -333q-166 -166 -408 -166q-210 0 -333 114t-123 304q0 158 73.5 289.5t203.5 208t288 76.5q179 0 303 -98.5t133 -270.5h4q12 56 15 92q18 117 18 213q0 249 -107 373.5t-309 124.5q-152 0 -299 -74l-18 59
q156 80 321 80zM565 37q144 0 261.5 67.5t184 183t66.5 253.5q0 163 -107.5 259.5t-283.5 96.5q-215 0 -356.5 -145.5t-141.5 -360.5q0 -166 103.5 -260t273.5 -94z" />
    <glyph glyph-name="uni2206" unicode="&#x2206;" horiz-adv-x="1380" 
d="M844 1434l403 -1389l-37 -45h-1185l-25 45l793 1389h51zM805 1319l-715 -1253h1077z" />
    <glyph glyph-name="product" unicode="&#x220f;" horiz-adv-x="1427" 
d="M1325 1516l-250 -1782h-74l240 1714h-795l-239 -1714h-72l250 1782h940z" />
    <glyph glyph-name="summation" unicode="&#x2211;" horiz-adv-x="1105" 
d="M1178 1516l-11 -68h-825l477 -823l-706 -824h823l-8 -67h-910l9 67l706 826l-475 821l10 68h910z" />
    <glyph glyph-name="minus" unicode="&#x2212;" 
d="M305 618l10 62h871l-8 -62h-873z" />
    <glyph glyph-name="radical" unicode="&#x221a;" horiz-adv-x="1273" 
d="M1319 1516h76l-824 -1782h-79l-199 829h-240l8 68h293l189 -797z" />
    <glyph glyph-name="infinity" unicode="&#x221e;" horiz-adv-x="1515" 
d="M1180 1034q124 0 200 -77t76 -209q0 -176 -101.5 -298t-258.5 -122q-53 0 -97.5 16t-76 41t-60 64.5t-47 76.5t-39.5 88q-35 -52 -63 -88.5t-67 -76.5t-77 -64.5t-86.5 -40.5t-101.5 -16q-123 0 -200 79t-77 211q0 112 45 206.5t129 152t189 57.5q53 0 97.5 -16t76 -40.5
t59.5 -64.5t46.5 -77t39.5 -88q34 51 62.5 88t67.5 76.5t77 64.5t86.5 41t100.5 16zM383 391q47 0 91 17.5t77 41.5t71 68t62 78t61 90q-22 54 -37 87.5t-41 75.5t-52.5 65.5t-65 40t-84.5 16.5q-128 0 -210.5 -102.5t-82.5 -241.5q0 -108 57.5 -172t153.5 -64zM1098 391
q128 0 209.5 103t81.5 245q0 107 -57 169.5t-154 62.5q-46 0 -90 -17.5t-77 -41.5t-70.5 -67.5t-62 -78t-61.5 -90.5q21 -53 37 -87t42 -75.5t52.5 -65.5t65 -40.5t84.5 -16.5z" />
    <glyph glyph-name="integral" unicode="&#x222b;" horiz-adv-x="753" 
d="M-61 -266l10 65h117q99 0 143 41t59 154l178 1266q20 142 82 199t195 57h123l-10 -66h-117q-98 0 -141 -40.5t-60 -154.5l-178 -1265q-20 -142 -82 -199t-195 -57h-124z" />
    <glyph glyph-name="approxequal" unicode="&#x2248;" 
d="M965 784q-45 0 -98 16.5t-93.5 37t-93.5 37t-98 16.5q-115 0 -250 -94l8 63q126 92 252 92q65 0 192.5 -53t188.5 -53q115 0 248 94l-9 -63q-131 -93 -247 -93zM903 344q-56 0 -123.5 27t-135.5 54.5t-124 27.5q-110 0 -250 -97l9 64q126 92 251 92q65 0 192.5 -53
t188.5 -53q115 0 248 94l-8 -64q-130 -92 -248 -92z" />
    <glyph glyph-name="notequal" unicode="&#x2260;" 
d="M1206 838h-311l-233 -377h495l-10 -64h-524l-185 -297h-63l184 297h-283l9 64h313l233 377h-495l10 63h524l185 297h63l-184 -297h283z" />
    <glyph glyph-name="lessequal" unicode="&#x2264;" 
d="M1241 1079l-10 -71l-844 -330l752 -330l-9 -65l-821 362l10 72zM219 0l8 63h873l-10 -63h-871z" />
    <glyph glyph-name="greaterequal" unicode="&#x2265;" 
d="M371 1079l819 -362l-8 -72l-922 -362l8 69l848 332l-756 330zM219 0l8 63h873l-10 -63h-871z" />
    <glyph glyph-name="filledbox" unicode="&#x25a0;" horiz-adv-x="1843" 
d="M133 0l201 1434h1433l-200 -1434h-1434z" />
    <glyph glyph-name="triagup" unicode="&#x25b2;" horiz-adv-x="1843" 
d="M133 0l918 1434l516 -1434h-1434z" />
    <glyph glyph-name="triagdn" unicode="&#x25bc;" horiz-adv-x="1843" 
d="M850 0l-516 1434h1433z" />
    <glyph glyph-name="uni25C6" unicode="&#x25c6;" horiz-adv-x="1843" 
d="M848 0l-615 715l816 719l618 -719z" />
    <glyph glyph-name="lozenge" unicode="&#x25ca;" horiz-adv-x="1253" 
d="M782 1434l432 -717l-634 -717h-52l-432 717l633 717h53zM563 78l570 641l-383 639l-572 -645z" />
    <glyph glyph-name="uni25CF" unicode="&#x25cf;" horiz-adv-x="1843" 
d="M850 0q-177 0 -320 81t-223 222t-80 313q0 161 69 312.5t182 262t264 177t309 66.5q177 0 320 -81.5t222.5 -222.5t79.5 -313q0 -161 -69 -312.5t-181.5 -261.5t-263.5 -176.5t-309 -66.5z" />
    <glyph glyph-name="uni2610" unicode="&#x2610;" horiz-adv-x="1843" 
d="M133 0l201 1434h1433l-200 -1434h-1434zM199 55h1314l189 1323h-1317z" />
    <glyph glyph-name="uni2611" unicode="&#x2611;" horiz-adv-x="1843" 
d="M334 1434h1433l-200 -1434h-1434zM1513 55l189 1323h-1317l-186 -1323h1314zM834 420l401 694l49 -39l-436 -753l-232 182l35 57z" />
    <glyph glyph-name="uni2612" unicode="&#x2612;" horiz-adv-x="1843" 
d="M334 1434h1433l-200 -1434h-1434zM1513 55l189 1323h-1317l-186 -1323h1314zM1331 1094l43 -45l-379 -334l285 -330l-51 -43l-283 330l-377 -332l-41 45l377 334l-282 330l49 43l284 -330z" />
    <glyph glyph-name="heart" unicode="&#x2665;" horiz-adv-x="1843" 
d="M864 98q-53 59 -123.5 119t-129.5 101t-119.5 92t-102 98t-68 112.5t-26.5 141.5q0 197 123 338t301 141q119 0 196 -73t68 -205h4q29 132 126 205t216 73q128 0 218.5 -87t90.5 -245q0 -104 -36 -192.5t-92.5 -149.5t-140 -123.5t-162 -109t-176.5 -111.5t-167 -125z
" />
    <glyph glyph-name="uni2B51" unicode="&#x2b51;" horiz-adv-x="1843" 
d="M373 -6l260 557l-420 340h582l256 553l100 -555h586l-523 -342l103 -553l-422 344z" />
    <glyph glyph-name="uni00A40301" horiz-adv-x="1204" 
d="M991 1608l295 313h90l-307 -313h-78zM432 -27q-132 0 -240.5 52t-175.5 151l54 45q58 -87 152.5 -132.5t209.5 -45.5q188 0 315 122.5t160 354.5l129 914h74l-131 -920q-35 -257 -179.5 -399t-367.5 -142z" />
    <glyph glyph-name="i.loclTRK" horiz-adv-x="473" 
d="M348 1305q-24 0 -38.5 14.5t-14.5 38.5q0 28 20.5 48.5t49.5 20.5q25 0 40 -14t15 -39q0 -28 -20 -48.5t-52 -20.5zM129 0l145 1028h70l-145 -1028h-70z" />
    <glyph glyph-name="uni006A0301" horiz-adv-x="473" 
d="M229 1202l263 314h88l-275 -314h-76zM-100 -438q-49 0 -95 14l9 64q50 -13 90 -13q84 0 136 52.5t64 148.5l170 1200h70l-170 -1204q-17 -126 -87.5 -194t-186.5 -68z" />
    <glyph glyph-name="a.ss01" horiz-adv-x="1140" 
d="M647 1053q185 0 268 -96.5t58 -274.5l-96 -682h-68l35 240q-53 -120 -170 -189t-271 -69q-150 0 -236.5 68.5t-86.5 187.5q0 66 30 132t83 109q108 88 311 88h385l16 115q43 307 -260 307q-234 0 -375 -178l-47 43q73 98 182 148.5t242 50.5zM868 432l11 76h-375
q-182 0 -268 -80q-40 -35 -61 -85t-21 -99q0 -96 66.5 -148.5t191.5 -52.5q180 0 305.5 105.5t150.5 283.5z" />
    <glyph glyph-name="aacute.ss01" horiz-adv-x="1140" 
d="M950 1516l-307 -314h-78l295 314h90zM647 1053q185 0 268 -96.5t58 -274.5l-96 -682h-68l35 240q-53 -120 -170 -189t-271 -69q-150 0 -236.5 68.5t-86.5 187.5q0 66 30 132t83 109q108 88 311 88h385l16 115q43 307 -260 307q-234 0 -375 -178l-47 43q73 98 182 148.5
t242 50.5zM868 432l11 76h-375q-182 0 -268 -80q-40 -35 -61 -85t-21 -99q0 -96 66.5 -148.5t191.5 -52.5q180 0 305.5 105.5t150.5 283.5z" />
    <glyph glyph-name="abreve.ss01" horiz-adv-x="1140" 
d="M913 1464h66v-4q-35 -248 -303 -248q-240 0 -240 195q0 21 4 57h64q-4 -36 -4 -49q0 -75 44 -111t136 -36q104 0 162 48t71 148zM647 1053q185 0 268 -96.5t58 -274.5l-96 -682h-68l35 240q-53 -120 -170 -189t-271 -69q-150 0 -236.5 68.5t-86.5 187.5q0 66 30 132
t83 109q108 88 311 88h385l16 115q43 307 -260 307q-234 0 -375 -178l-47 43q73 98 182 148.5t242 50.5zM868 432l11 76h-375q-182 0 -268 -80q-40 -35 -61 -85t-21 -99q0 -96 66.5 -148.5t191.5 -52.5q180 0 305.5 105.5t150.5 283.5z" />
    <glyph glyph-name="uni01CE.ss01" horiz-adv-x="1140" 
d="M707 1202h-68l-240 314h72l205 -269l278 269h80zM647 1053q185 0 268 -96.5t58 -274.5l-96 -682h-68l35 240q-53 -120 -170 -189t-271 -69q-150 0 -236.5 68.5t-86.5 187.5q0 66 30 132t83 109q108 88 311 88h385l16 115q43 307 -260 307q-234 0 -375 -178l-47 43
q73 98 182 148.5t242 50.5zM868 432l11 76h-375q-182 0 -268 -80q-40 -35 -61 -85t-21 -99q0 -96 66.5 -148.5t191.5 -52.5q180 0 305.5 105.5t150.5 283.5z" />
    <glyph glyph-name="acircumflex.ss01" horiz-adv-x="1140" 
d="M715 1468l-281 -266h-80l328 314h68l239 -314h-71zM647 1053q185 0 268 -96.5t58 -274.5l-96 -682h-68l35 240q-53 -120 -170 -189t-271 -69q-150 0 -236.5 68.5t-86.5 187.5q0 66 30 132t83 109q108 88 311 88h385l16 115q43 307 -260 307q-234 0 -375 -178l-47 43
q73 98 182 148.5t242 50.5zM868 432l11 76h-375q-182 0 -268 -80q-40 -35 -61 -85t-21 -99q0 -96 66.5 -148.5t191.5 -52.5q180 0 305.5 105.5t150.5 283.5z" />
    <glyph glyph-name="adieresis.ss01" horiz-adv-x="1140" 
d="M475 1305q-25 0 -40 15t-15 38q0 28 21.5 48.5t50.5 20.5q25 0 40 -14t15 -39q0 -28 -21 -48.5t-51 -20.5zM899 1305q-25 0 -40 15t-15 38q0 28 20 48.5t49 20.5q25 0 40.5 -14.5t15.5 -38.5q0 -28 -20 -48.5t-50 -20.5zM647 1053q185 0 268 -96.5t58 -274.5l-96 -682
h-68l35 240q-53 -120 -170 -189t-271 -69q-150 0 -236.5 68.5t-86.5 187.5q0 66 30 132t83 109q108 88 311 88h385l16 115q43 307 -260 307q-234 0 -375 -178l-47 43q73 98 182 148.5t242 50.5zM868 432l11 76h-375q-182 0 -268 -80q-40 -35 -61 -85t-21 -99
q0 -96 66.5 -148.5t191.5 -52.5q180 0 305.5 105.5t150.5 283.5z" />
    <glyph glyph-name="agrave.ss01" horiz-adv-x="1140" 
d="M780 1202h-75l-220 314h86zM647 1053q185 0 268 -96.5t58 -274.5l-96 -682h-68l35 240q-53 -120 -170 -189t-271 -69q-150 0 -236.5 68.5t-86.5 187.5q0 66 30 132t83 109q108 88 311 88h385l16 115q43 307 -260 307q-234 0 -375 -178l-47 43q73 98 182 148.5t242 50.5z
M868 432l11 76h-375q-182 0 -268 -80q-40 -35 -61 -85t-21 -99q0 -96 66.5 -148.5t191.5 -52.5q180 0 305.5 105.5t150.5 283.5z" />
    <glyph glyph-name="amacron.ss01" horiz-adv-x="1140" 
d="M397 1354h594l-10 -62h-594zM647 1053q185 0 268 -96.5t58 -274.5l-96 -682h-68l35 240q-53 -120 -170 -189t-271 -69q-150 0 -236.5 68.5t-86.5 187.5q0 66 30 132t83 109q108 88 311 88h385l16 115q43 307 -260 307q-234 0 -375 -178l-47 43q73 98 182 148.5t242 50.5z
M868 432l11 76h-375q-182 0 -268 -80q-40 -35 -61 -85t-21 -99q0 -96 66.5 -148.5t191.5 -52.5q180 0 305.5 105.5t150.5 283.5z" />
    <glyph glyph-name="aogonek.ss01" horiz-adv-x="1140" 
d="M647 1053q185 0 268 -96.5t58 -274.5l-96 -682q-113 -74 -152 -109q-87 -80 -88 -165q0 -101 164 -101h22l-8 -61h-27q-110 0 -165.5 39t-55.5 110q0 165 242 293l35 234q-53 -120 -170 -189t-271 -69q-150 0 -236.5 68.5t-86.5 187.5q0 66 30 132t83 109q108 88 311 88
h385l16 115q43 307 -260 307q-234 0 -375 -178l-47 43q73 98 182 148.5t242 50.5zM868 432l11 76h-375q-182 0 -268 -80q-40 -35 -61 -85t-21 -99q0 -96 66.5 -148.5t191.5 -52.5q180 0 305.5 105.5t150.5 283.5z" />
    <glyph glyph-name="aring.ss01" horiz-adv-x="1140" 
d="M674 1202q-86 0 -139.5 51t-53.5 131q0 101 73.5 171.5t176.5 70.5q85 0 139 -51.5t54 -128.5q0 -101 -74 -172.5t-176 -71.5zM729 1573q-80 0 -134 -53t-54 -131q0 -61 36 -96.5t101 -35.5q78 0 132 53t54 132q0 61 -35.5 96t-99.5 35zM647 1053q185 0 268 -96.5
t58 -274.5l-96 -682h-68l35 240q-53 -120 -170 -189t-271 -69q-150 0 -236.5 68.5t-86.5 187.5q0 66 30 132t83 109q108 88 311 88h385l16 115q43 307 -260 307q-234 0 -375 -178l-47 43q73 98 182 148.5t242 50.5zM868 432l11 76h-375q-182 0 -268 -80q-40 -35 -61 -85
t-21 -99q0 -96 66.5 -148.5t191.5 -52.5q180 0 305.5 105.5t150.5 283.5z" />
    <glyph glyph-name="atilde.ss01" horiz-adv-x="1140" 
d="M555 1405q-43 0 -75.5 -38t-41.5 -105h-57q12 92 61 145t119 53q39 0 74 -20t80 -68q38 -39 63 -53t56 -14q42 0 74.5 39t41.5 106h58q-12 -94 -61 -147.5t-120 -53.5q-39 0 -74 19t-81 69q-36 39 -61 53.5t-56 14.5zM647 1053q185 0 268 -96.5t58 -274.5l-96 -682h-68
l35 240q-53 -120 -170 -189t-271 -69q-150 0 -236.5 68.5t-86.5 187.5q0 66 30 132t83 109q108 88 311 88h385l16 115q43 307 -260 307q-234 0 -375 -178l-47 43q73 98 182 148.5t242 50.5zM868 432l11 76h-375q-182 0 -268 -80q-40 -35 -61 -85t-21 -99q0 -96 66.5 -148.5
t191.5 -52.5q180 0 305.5 105.5t150.5 283.5z" />
    <glyph glyph-name="j.ss02" horiz-adv-x="473" 
d="M348 1305q-25 0 -40 14t-15 37q0 32 20.5 51.5t48.5 19.5q25 0 40.5 -14.5t15.5 -38.5q0 -31 -21 -50t-49 -19zM72 -410l202 1438h70l-203 -1438h-69z" />
    <glyph glyph-name="uni0237.ss02" horiz-adv-x="473" 
d="M72 -410l202 1438h70l-203 -1438h-69z" />
    <glyph glyph-name="uni006A0301.ss02" horiz-adv-x="473" 
d="M229 1202l263 314h88l-275 -314h-76zM72 -410l202 1438h70l-203 -1438h-69z" />
    <glyph glyph-name="jcircumflex.ss02" horiz-adv-x="473" 
d="M623 1202h-72l-176 266l-252 -266h-76l297 314h68zM72 -410l202 1438h70l-203 -1438h-69z" />
    <glyph glyph-name="t.ss03" horiz-adv-x="751" 
d="M268 0l138 965h-302l9 63h301l43 309h69l-43 -309h301l-10 -63h-299l-137 -965h-70z" />
    <glyph glyph-name="tbar.ss03" horiz-adv-x="751" 
d="M774 965h-299l-55 -387h260l-8 -58h-260l-74 -520h-70l74 520h-260l8 58h260l56 387h-302l9 63h301l43 309h69l-43 -309h301z" />
    <glyph glyph-name="tcaron.ss03" horiz-adv-x="780" 
d="M711 1208l53 389h74l-72 -389h-55zM268 0l138 965h-302l9 63h301l43 309h69l-43 -309h301l-10 -63h-299l-137 -965h-70z" />
    <glyph glyph-name="uni0163.ss03" horiz-adv-x="751" 
d="M268 0l138 965h-302l9 63h301l43 309h69l-43 -309h301l-10 -63h-299l-137 -965h-70zM119 -537l110 336h72l-125 -336h-57z" />
    <glyph glyph-name="uni021B.ss03" horiz-adv-x="751" 
d="M268 0l138 965h-302l9 63h301l43 309h69l-43 -309h301l-10 -63h-299l-137 -965h-70zM129 -537l109 336h73l-127 -336h-55z" />
    <glyph glyph-name="y.ss04" horiz-adv-x="1236" 
d="M1040 1028h70l-139 -993q-31 -225 -165.5 -348t-354.5 -123q-130 0 -235 45.5t-163 128.5l49 47q51 -73 143 -114.5t201 -41.5q188 0 307.5 106t147.5 300l31 221q-58 -120 -173.5 -188t-266.5 -68q-160 0 -244 81t-84 241q0 26 8 100l84 606h70l-84 -596q-9 -83 -9 -100
q0 -266 269 -266q176 0 304.5 103.5t154.5 279.5z" />
    <glyph glyph-name="yacute.ss04" horiz-adv-x="1236" 
d="M987 1516l-307 -314h-78l295 314h90zM1040 1028h70l-139 -993q-31 -225 -165.5 -348t-354.5 -123q-130 0 -235 45.5t-163 128.5l49 47q51 -73 143 -114.5t201 -41.5q188 0 307.5 106t147.5 300l31 221q-58 -120 -173.5 -188t-266.5 -68q-160 0 -244 81t-84 241
q0 26 8 100l84 606h70l-84 -596q-9 -83 -9 -100q0 -266 269 -266q176 0 304.5 103.5t154.5 279.5z" />
    <glyph glyph-name="ycircumflex.ss04" horiz-adv-x="1236" 
d="M752 1468l-281 -266h-80l328 314h67l240 -314h-72zM1040 1028h70l-139 -993q-31 -225 -165.5 -348t-354.5 -123q-130 0 -235 45.5t-163 128.5l49 47q51 -73 143 -114.5t201 -41.5q188 0 307.5 106t147.5 300l31 221q-58 -120 -173.5 -188t-266.5 -68q-160 0 -244 81
t-84 241q0 26 8 100l84 606h70l-84 -596q-9 -83 -9 -100q0 -266 269 -266q176 0 304.5 103.5t154.5 279.5z" />
    <glyph glyph-name="ydieresis.ss04" horiz-adv-x="1236" 
d="M512 1305q-25 0 -40 15t-15 38q0 28 21 48.5t50 20.5q25 0 40.5 -14.5t15.5 -38.5q0 -28 -21 -48.5t-51 -20.5zM936 1305q-25 0 -40 15t-15 38q0 28 20 48.5t49 20.5q25 0 40.5 -14.5t15.5 -38.5q0 -28 -20 -48.5t-50 -20.5zM1040 1028h70l-139 -993
q-31 -225 -165.5 -348t-354.5 -123q-130 0 -235 45.5t-163 128.5l49 47q51 -73 143 -114.5t201 -41.5q188 0 307.5 106t147.5 300l31 221q-58 -120 -173.5 -188t-266.5 -68q-160 0 -244 81t-84 241q0 26 8 100l84 606h70l-84 -596q-9 -83 -9 -100q0 -266 269 -266
q176 0 304.5 103.5t154.5 279.5z" />
    <glyph glyph-name="ygrave.ss04" horiz-adv-x="1236" 
d="M817 1202h-76l-219 314h86zM1040 1028h70l-139 -993q-31 -225 -165.5 -348t-354.5 -123q-130 0 -235 45.5t-163 128.5l49 47q51 -73 143 -114.5t201 -41.5q188 0 307.5 106t147.5 300l31 221q-58 -120 -173.5 -188t-266.5 -68q-160 0 -244 81t-84 241q0 26 8 100l84 606
h70l-84 -596q-9 -83 -9 -100q0 -266 269 -266q176 0 304.5 103.5t154.5 279.5z" />
    <glyph glyph-name="zero.zero" horiz-adv-x="1429" 
d="M842 1460q219 0 341 -142.5t122 -412.5q0 -228 -73.5 -446t-211.5 -344q-164 -142 -375 -142q-221 0 -343 142t-122 411q0 218 69.5 433t199.5 339q162 162 393 162zM256 526q0 -256 117 -379l698 1176q-91 70 -231 70q-202 0 -342 -146q-81 -80 -137.5 -207
t-80.5 -256.5t-24 -257.5zM977 174q125 115 188.5 319.5t63.5 413.5q0 253 -115 377l-698 -1175q92 -68 229 -68q193 0 332 133z" />
    <glyph glyph-name="zero.lf" horiz-adv-x="1429" 
d="M645 -27q-221 0 -343 142t-122 411q0 218 69.5 433t199.5 339q162 162 393 162q219 0 341 -142.5t122 -412.5q0 -228 -73.5 -446t-211.5 -344q-164 -142 -375 -142zM645 41q193 0 332 133q125 115 188.5 319.5t63.5 413.5q0 240 -101.5 363t-287.5 123q-202 0 -342 -146
q-81 -80 -137.5 -207t-80.5 -256.5t-24 -257.5q0 -239 101.5 -362t287.5 -123z" />
    <glyph glyph-name="one.lf" horiz-adv-x="858" 
d="M672 1434h59l-201 -1434h-71l190 1354l-452 -219l8 73z" />
    <glyph glyph-name="two.lf" horiz-adv-x="1193" 
d="M770 575l-616 -507h854l-9 -68h-966l10 61l666 549q81 67 137.5 123t105.5 120t73 130.5t24 136.5q0 130 -83 201.5t-223 71.5q-146 0 -271.5 -81t-217.5 -243l-55 33q93 176 235 267t309 91q170 0 274.5 -92.5t104.5 -247.5q0 -77 -26 -150t-76.5 -141.5t-109.5 -127.5
t-140 -126z" />
    <glyph glyph-name="three.lf" horiz-adv-x="1146" 
d="M748 729q130 -30 198 -105.5t68 -181.5q0 -93 -40 -181t-110 -150q-151 -138 -393 -138q-143 0 -259.5 55.5t-182.5 161.5l51 43q62 -95 164 -143.5t231 -48.5q214 0 346 123q56 52 87.5 125.5t31.5 150.5q0 262 -430 262h-100l10 64h180q209 0 320 111q50 45 75 111
t25 136q0 124 -85 196.5t-237 72.5q-135 0 -254 -60t-204 -170l-50 41q94 125 226.5 190.5t283.5 65.5q182 0 288 -91.5t106 -238.5q0 -173 -125 -292q-89 -85 -221 -109z" />
    <glyph glyph-name="four.lf" horiz-adv-x="1245" 
d="M1188 414l-10 -64h-234l-49 -350h-70l49 350h-806l8 64l923 1020h97l-144 -1020h236zM162 414h721l133 942z" />
    <glyph glyph-name="five.lf" horiz-adv-x="1185" 
d="M1128 1368h-753l-86 -612q177 123 375 123q187 0 298 -99t111 -270q0 -112 -46 -217t-128 -178q-158 -142 -393 -142q-138 0 -250.5 52.5t-183.5 154.5l49 45q130 -184 385 -184q216 0 352 127q70 64 106.5 155.5t36.5 186.5q0 143 -91 223t-255 80q-200 0 -385 -133
l-55 35l100 719h822z" />
    <glyph glyph-name="six.lf" horiz-adv-x="1224" 
d="M698 954q192 0 314.5 -110t122.5 -299q0 -126 -51 -241t-142 -193q-163 -138 -391 -138q-199 0 -322 110t-123 300q0 173 97 338q53 92 162 217l436 496h90l-516 -580q144 100 323 100zM901 166q75 70 116.5 170t41.5 207q0 164 -99.5 255t-275.5 91q-135 0 -243.5 -55
t-176.5 -156q-82 -133 -82 -293q0 -162 100.5 -253t274.5 -91q206 0 344 125z" />
    <glyph glyph-name="seven.lf" horiz-adv-x="1058" 
d="M188 1434h940l-10 -62l-860 -1372h-80l860 1366h-858z" />
    <glyph glyph-name="eight.lf" horiz-adv-x="1284" 
d="M852 735q134 -34 206 -115.5t72 -197.5q0 -93 -42 -178t-115 -146q-158 -125 -406 -125q-215 0 -334.5 93.5t-119.5 246.5q0 96 41 181.5t116 142.5q92 73 226 100q-118 34 -181 110.5t-63 184.5q0 89 39.5 170.5t109.5 140.5q146 117 371 117q197 0 308.5 -89.5
t111.5 -233.5q0 -92 -39.5 -173t-110.5 -137q-83 -67 -190 -92zM324 1032q0 -122 90.5 -193t259.5 -71q208 0 325 102q119 103 119 260q0 121 -89.5 192t-256.5 71q-201 0 -323 -101q-58 -46 -91.5 -115t-33.5 -145zM930 152q60 51 93.5 120.5t33.5 149.5q0 129 -98.5 204.5
t-282.5 75.5q-226 0 -361 -110q-129 -107 -129 -270q0 -129 99 -205t284 -76q225 0 361 111z" />
    <glyph glyph-name="nine.lf" horiz-adv-x="1224" 
d="M727 1460q199 0 323 -109t124 -300q0 -176 -95 -340q-59 -100 -161 -215l-437 -496h-92l518 580q-146 -101 -321 -101q-192 0 -315.5 110.5t-123.5 301.5q0 129 55.5 250t153.5 196q154 123 371 123zM946 670q154 144 154 381q0 161 -100 251.5t-275 90.5
q-193 0 -324 -109q-85 -67 -131.5 -170.5t-46.5 -220.5q0 -164 100.5 -256t276.5 -92q208 0 346 125z" />
    <glyph glyph-name="zero.tf" 
d="M655 -27q-210 0 -323 137t-113 398q0 214 63.5 433.5t182.5 346.5q155 172 391 172q211 0 323.5 -137t112.5 -399q0 -221 -69 -448t-195 -353q-153 -150 -373 -150zM659 41q192 0 322 133q78 79 133.5 213.5t80 271.5t24.5 267q0 232 -93.5 349.5t-271.5 117.5
q-206 0 -344 -156q-106 -120 -161.5 -326t-55.5 -403q0 -232 93 -349.5t273 -117.5z" />
    <glyph glyph-name="one.tf" 
d="M766 68h420l-10 -68h-951l11 68h458l180 1286l-454 -219l10 73l467 226h59z" />
    <glyph glyph-name="two.tf" 
d="M903 575l-614 -507h854l-8 -68h-967l8 61l666 549q169 139 255.5 257.5t86.5 252.5q0 130 -82.5 201.5t-222.5 71.5q-148 0 -273 -80.5t-219 -243.5l-53 33q93 176 235.5 267t307.5 91q171 0 274.5 -92t103.5 -248q0 -77 -26 -150t-76.5 -141.5t-109.5 -127.5t-140 -126z
" />
    <glyph glyph-name="three.tf" 
d="M907 729q130 -30 198.5 -105.5t68.5 -181.5q0 -93 -40.5 -181t-111.5 -150q-147 -138 -391 -138q-144 0 -260.5 55.5t-182.5 161.5l52 43q62 -95 164 -143.5t231 -48.5q214 0 346 123q56 52 87.5 125.5t31.5 150.5q0 128 -107.5 195t-322.5 67h-101l11 64h180
q208 0 319 111q49 46 75 112t26 135q0 124 -85 196.5t-237 72.5q-135 0 -254.5 -60t-204.5 -170l-49 41q93 125 225.5 190.5t284.5 65.5q182 0 287.5 -91.5t105.5 -238.5q0 -173 -125 -292q-88 -85 -221 -109z" />
    <glyph glyph-name="four.tf" 
d="M1294 414l-8 -64h-233l-49 -350h-70l49 350h-807l8 64l924 1020h96l-143 -1020h233zM270 414h721l133 942z" />
    <glyph glyph-name="five.tf" 
d="M1268 1368h-752l-86 -612q180 123 373 123q188 0 299.5 -99t111.5 -270q0 -112 -46 -217t-128 -178q-161 -142 -393 -142q-138 0 -251.5 52.5t-182.5 154.5l49 45q130 -184 385 -184q216 0 352 127q69 64 106.5 156.5t37.5 185.5q0 143 -91 223t-255 80q-200 0 -385 -133
l-56 35l101 719h821z" />
    <glyph glyph-name="six.tf" 
d="M813 954q191 0 312.5 -110t121.5 -299q0 -126 -50.5 -241t-141.5 -193q-160 -138 -389 -138q-200 0 -322.5 109.5t-122.5 300.5q0 172 94 338q57 95 164 217l436 496h91l-519 -580q144 100 326 100zM1016 166q74 70 114.5 170t40.5 207q0 163 -99 254.5t-273 91.5
q-135 0 -244.5 -55t-175.5 -156q-84 -131 -84 -293t101 -253t274 -91q208 0 346 125z" />
    <glyph glyph-name="seven.tf" 
d="M391 1434h967l-8 -62l-861 -1372h-79l860 1366h-889z" />
    <glyph glyph-name="eight.tf" 
d="M940 735q134 -34 206.5 -115.5t72.5 -197.5q0 -93 -42.5 -178t-117.5 -146q-158 -125 -404 -125q-215 0 -334.5 93.5t-119.5 246.5q0 96 41 181.5t114 142.5q95 73 226 100q-117 34 -180.5 111t-63.5 184q0 89 40.5 170t110.5 141q143 117 371 117q197 0 307.5 -89
t110.5 -234q0 -91 -39 -172.5t-109 -137.5q-86 -67 -190 -92zM412 1032q0 -122 90.5 -193t259.5 -71q204 0 325 102q117 102 117 260q0 121 -89.5 192t-256.5 71q-198 0 -323 -101q-57 -46 -90 -115t-33 -145zM1016 152q129 106 129 270q0 129 -99 204.5t-284 75.5
q-226 0 -361 -110q-127 -108 -127 -270q0 -129 98 -205t283 -76q228 0 361 111z" />
    <glyph glyph-name="nine.tf" 
d="M850 1460q201 0 324.5 -109t123.5 -300q0 -174 -96 -340q-57 -97 -162 -215l-436 -496h-90l522 584q-153 -105 -325 -105q-194 0 -316.5 110.5t-122.5 301.5q0 129 55.5 250t153.5 196q154 123 369 123zM1069 670q156 143 156 381q0 161 -101 251.5t-276 90.5
q-190 0 -324 -109q-85 -67 -131.5 -170.5t-46.5 -220.5q0 -163 101.5 -255.5t275.5 -92.5q212 0 346 125z" />
    <glyph glyph-name="zero.tf.zero" 
d="M856 1460q211 0 323.5 -137t112.5 -399q0 -221 -69 -448t-195 -353q-153 -150 -373 -150q-210 0 -323 137t-113 398q0 214 63.5 433.5t182.5 346.5q155 172 391 172zM510 1237q-106 -120 -161.5 -326t-55.5 -403q0 -233 96 -352l692 1165q-87 72 -227 72
q-206 0 -344 -156zM981 174q78 79 133.5 213.5t80 271.5t24.5 267q0 232 -97 352l-690 -1165q87 -72 227 -72q192 0 322 133z" />
    <glyph glyph-name="zero.subs" horiz-adv-x="776" 
d="M297 -150q-122 0 -189 77t-67 223q0 111 35 223.5t98 179.5q90 100 234 100q119 0 186.5 -77t67.5 -222q0 -117 -38 -232t-106 -183q-92 -89 -221 -89zM297 -90q107 0 178 74q60 61 89.5 165.5t29.5 208.5q0 117 -48 176.5t-140 59.5q-118 0 -189 -86q-53 -62 -80.5 -164
t-27.5 -199q0 -235 188 -235z" />
    <glyph glyph-name="one.subs" horiz-adv-x="493" 
d="M315 639h54l-109 -774h-63l100 706l-236 -114l9 63z" />
    <glyph glyph-name="two.subs" horiz-adv-x="675" 
d="M397 180l-309 -256h434l-8 -59h-530l6 49l350 291q86 70 131 130.5t45 127.5q0 61 -40.5 96t-108.5 35q-165 0 -248 -164l-49 27q43 95 122.5 145.5t176.5 50.5q93 0 152 -51.5t59 -132.5t-47 -148t-136 -141z" />
    <glyph glyph-name="three.subs" horiz-adv-x="665" 
d="M387 260q143 -34 143 -166q0 -108 -82 -176t-208 -68q-79 0 -146.5 30t-103.5 87l41 41q68 -98 209 -98q99 0 163 51.5t64 134.5q0 135 -211 135h-59l6 58h94q96 0 154.5 49t58.5 127q0 61 -42.5 95t-117.5 34q-144 0 -237 -117l-43 39q113 137 282 137q102 0 162.5 -50
t60.5 -134q0 -82 -52.5 -138.5t-135.5 -70.5z" />
    <glyph glyph-name="four.subs" horiz-adv-x="704" 
d="M608 102l-8 -55h-119l-24 -182h-62l27 182h-426l6 55l483 537h80l-76 -537h119zM76 102h352l66 463z" />
    <glyph glyph-name="five.subs" horiz-adv-x="673" 
d="M582 582h-396l-43 -295q86 57 187 57q102 0 163.5 -53.5t61.5 -145.5q0 -132 -88.5 -213.5t-226.5 -81.5q-161 0 -248 115l43 41q68 -96 205 -96q110 0 179.5 63.5t69.5 169.5q0 68 -44 107t-123 39q-112 0 -199 -68l-45 27l55 391h455z" />
    <glyph glyph-name="six.subs" horiz-adv-x="690" 
d="M340 383q104 0 171 -60.5t67 -162.5q0 -135 -89.5 -222.5t-226.5 -87.5q-111 0 -180.5 60.5t-69.5 165.5q0 143 142 303l229 260h78l-262 -291q63 35 141 35zM264 -92q112 0 180 70t68 178q0 81 -48.5 126.5t-135.5 45.5q-110 0 -180 -70t-70 -178q0 -82 49.5 -127
t136.5 -45z" />
    <glyph glyph-name="seven.subs" horiz-adv-x="600" 
d="M59 639h519l-9 -53l-450 -721h-74l453 715h-447z" />
    <glyph glyph-name="eight.subs" horiz-adv-x="716" 
d="M434 262q68 -20 104.5 -63.5t36.5 -104.5q0 -112 -88 -178t-217 -66q-120 0 -188 51.5t-68 135.5q0 88 54 146t145 81q-60 20 -92.5 60.5t-32.5 95.5q0 106 82.5 169.5t204.5 63.5q110 0 172.5 -50t62.5 -130q0 -79 -48 -133.5t-128 -77.5zM152 418q0 -60 45.5 -94.5
t128.5 -34.5q99 0 160 49.5t61 132.5q0 60 -44.5 93.5t-127.5 33.5q-100 0 -161.5 -48.5t-61.5 -131.5zM270 -92q107 0 175.5 50t68.5 136q0 64 -50.5 101.5t-141.5 37.5q-107 0 -174.5 -51.5t-67.5 -136.5q0 -64 49 -100.5t141 -36.5z" />
    <glyph glyph-name="nine.subs" horiz-adv-x="690" 
d="M358 653q111 0 179.5 -60.5t68.5 -164.5q0 -84 -35.5 -155.5t-103.5 -147.5l-229 -260h-78l262 291q-60 -35 -139 -35q-105 0 -172.5 60t-67.5 163q0 134 88 221.5t227 87.5zM295 176q112 0 180 69.5t68 180.5q0 81 -50 125.5t-137 44.5q-114 0 -182 -72t-68 -178
q0 -79 50.5 -124.5t138.5 -45.5z" />
    <glyph glyph-name="zero.dnom" horiz-adv-x="776" 
d="M313 -27q-122 0 -189 76.5t-67 222.5q0 111 35 224t98 180q90 100 234 100q119 0 186.5 -77t67.5 -222q0 -118 -37.5 -233t-105.5 -183q-91 -88 -222 -88zM313 33q109 0 179 73q60 61 89 165.5t29 209.5q0 117 -48 176.5t-140 59.5q-118 0 -189 -86q-53 -62 -80.5 -164
t-27.5 -199q0 -235 188 -235z" />
    <glyph glyph-name="one.dnom" horiz-adv-x="493" 
d="M332 762h53l-109 -774h-63l100 706l-235 -114l8 63z" />
    <glyph glyph-name="two.dnom" horiz-adv-x="675" 
d="M414 303l-310 -256h435l-9 -59h-530l6 49l350 291q86 70 131 130.5t45 127.5q0 61 -40.5 96t-108.5 35q-165 0 -248 -164l-49 27q43 95 122.5 145.5t176.5 50.5q93 0 152 -51.5t59 -132.5q0 -82 -47 -148.5t-135 -140.5z" />
    <glyph glyph-name="three.dnom" horiz-adv-x="665" 
d="M403 383q144 -35 144 -166q0 -108 -82.5 -176t-208.5 -68q-79 0 -146.5 30t-103.5 87l41 41q68 -98 209 -98q99 0 163 51.5t64 134.5q0 135 -211 135h-59l6 58h94q96 0 154.5 49t58.5 127q0 61 -42 95t-117 34q-145 0 -238 -117l-43 39q55 67 128.5 102t154.5 35
q102 0 162.5 -50t60.5 -134q0 -82 -53 -138.5t-136 -70.5z" />
    <glyph glyph-name="four.dnom" horiz-adv-x="704" 
d="M625 225l-9 -55h-118l-25 -182h-61l26 182h-426l6 55l484 537h80l-76 -537h119zM92 225h352l66 463z" />
    <glyph glyph-name="five.dnom" horiz-adv-x="673" 
d="M598 705h-395l-43 -295q86 57 186 57q102 0 163.5 -53.5t61.5 -145.5q0 -132 -88.5 -213.5t-226.5 -81.5q-161 0 -248 115l43 41q68 -96 205 -96q110 0 180 63.5t70 169.5q0 68 -44.5 107t-123.5 39q-112 0 -199 -68l-45 27l56 391h454z" />
    <glyph glyph-name="six.dnom" horiz-adv-x="690" 
d="M356 506q104 0 171 -60.5t67 -162.5q0 -135 -89 -222.5t-226 -87.5q-111 0 -180.5 60.5t-69.5 165.5q0 144 141 303l229 260h78l-262 -291q63 35 141 35zM281 31q112 0 179.5 70t67.5 178q0 81 -48.5 126.5t-135.5 45.5q-110 0 -180 -70t-70 -178q0 -82 50 -127t137 -45z
" />
    <glyph glyph-name="seven.dnom" horiz-adv-x="600" 
d="M76 762h518l-8 -53l-451 -721h-74l453 714h-446z" />
    <glyph glyph-name="eight.dnom" horiz-adv-x="716" 
d="M451 385q68 -20 104.5 -63.5t36.5 -104.5q0 -112 -88 -178t-217 -66q-120 0 -188 51.5t-68 135.5q0 88 53.5 146t144.5 81q-60 20 -92.5 60.5t-32.5 95.5q0 106 82.5 169.5t204.5 63.5q110 0 173 -50t63 -130q0 -79 -48 -133.5t-128 -77.5zM168 541q0 -60 45.5 -94.5
t128.5 -34.5q99 0 160 49.5t61 132.5q0 60 -44.5 93.5t-127.5 33.5q-100 0 -161.5 -48.5t-61.5 -131.5zM287 31q107 0 175 50t68 136q0 64 -50.5 101.5t-141.5 37.5q-107 0 -174.5 -51.5t-67.5 -136.5q0 -64 49.5 -100.5t141.5 -36.5z" />
    <glyph glyph-name="nine.dnom" horiz-adv-x="690" 
d="M375 776q111 0 179.5 -60.5t68.5 -164.5q0 -83 -36 -154.5t-104 -148.5l-229 -260h-78l262 291q-60 -35 -139 -35q-105 0 -172.5 60t-67.5 163q0 134 88.5 221.5t227.5 87.5zM311 299q112 0 180 69.5t68 180.5q0 81 -49.5 125.5t-136.5 44.5q-114 0 -182 -72t-68 -178
q0 -79 50 -124.5t138 -45.5z" />
    <glyph glyph-name="zero.numr" horiz-adv-x="776" 
d="M410 657q-122 0 -189 76.5t-67 222.5q0 111 35 224t98 180q90 100 233 100q119 0 186.5 -77t67.5 -222q0 -118 -37.5 -233t-105.5 -183q-91 -88 -221 -88zM410 717q107 0 178 74q60 61 89.5 165.5t29.5 208.5q0 117 -48.5 176.5t-140.5 59.5q-117 0 -188 -86
q-53 -62 -81 -164t-28 -199q0 -117 48.5 -176t140.5 -59z" />
    <glyph glyph-name="one.numr" horiz-adv-x="493" 
d="M428 1446h53l-108 -774h-64l101 706l-236 -114l8 63z" />
    <glyph glyph-name="two.numr" horiz-adv-x="675" 
d="M510 987l-309 -256h434l-8 -59h-531l6 49l351 291q86 70 131 130.5t45 127.5q0 61 -41 96t-109 35q-165 0 -248 -164l-49 27q43 95 122.5 145.5t176.5 50.5q93 0 152 -51.5t59 -132.5q0 -82 -47 -148.5t-135 -140.5z" />
    <glyph glyph-name="three.numr" horiz-adv-x="665" 
d="M500 1067q143 -34 143 -166q0 -108 -82.5 -176t-208.5 -68q-79 0 -146.5 30t-103.5 87l41 41q68 -98 209 -98q99 0 163.5 51.5t64.5 134.5q0 135 -211 135h-60l6 58h95q96 0 154.5 49t58.5 127q0 61 -42.5 95t-117.5 34q-145 0 -238 -117l-43 39q55 67 128.5 102
t154.5 35q102 0 162.5 -50t60.5 -134q0 -82 -52.5 -138.5t-135.5 -70.5z" />
    <glyph glyph-name="four.numr" horiz-adv-x="704" 
d="M721 909l-8 -55h-119l-25 -182h-61l27 182h-426l6 55l483 537h80l-76 -537h119zM188 909h353l65 463z" />
    <glyph glyph-name="five.numr" horiz-adv-x="673" 
d="M694 1389h-395l-43 -295q86 57 186 57q102 0 164 -53.5t62 -145.5q0 -132 -89 -213.5t-227 -81.5q-161 0 -248 115l43 41q68 -96 205 -96q110 0 180 63.5t70 169.5q0 68 -44.5 107t-123.5 39q-111 0 -198 -68l-46 27l56 391h454z" />
    <glyph glyph-name="six.numr" horiz-adv-x="690" 
d="M453 1190q104 0 170.5 -60.5t66.5 -162.5q0 -135 -89 -222.5t-226 -87.5q-111 0 -180.5 60.5t-69.5 165.5q0 144 141 303l230 260h77l-262 -291q63 35 142 35zM377 715q112 0 180 70t68 178q0 81 -49 126.5t-136 45.5q-110 0 -180 -70t-70 -178q0 -82 50 -127t137 -45z
" />
    <glyph glyph-name="seven.numr" horiz-adv-x="600" 
d="M172 1446h518l-8 -53l-451 -721h-73l452 714h-446z" />
    <glyph glyph-name="eight.numr" horiz-adv-x="716" 
d="M547 1069q68 -20 104.5 -63.5t36.5 -104.5q0 -112 -88 -178t-217 -66q-120 0 -188 51.5t-68 135.5q0 88 54 146t145 81q-60 20 -92.5 60.5t-32.5 95.5q0 106 82 169.5t204 63.5q110 0 173 -50t63 -130q0 -79 -48 -133.5t-128 -77.5zM264 1225q0 -60 45.5 -94.5
t128.5 -34.5q99 0 160 49.5t61 132.5q0 60 -44.5 93.5t-127.5 33.5q-100 0 -161.5 -48.5t-61.5 -131.5zM383 715q107 0 175.5 50t68.5 136q0 64 -51 101.5t-142 37.5q-107 0 -174 -51.5t-67 -136.5q0 -64 49 -100.5t141 -36.5z" />
    <glyph glyph-name="nine.numr" horiz-adv-x="690" 
d="M471 1460q111 0 179.5 -60.5t68.5 -164.5q0 -84 -35.5 -155.5t-103.5 -147.5l-230 -260h-78l263 291q-60 -35 -140 -35q-105 0 -172 60t-67 163q0 134 88 221.5t227 87.5zM408 983q112 0 179.5 69.5t67.5 180.5q0 81 -49.5 125.5t-136.5 44.5q-114 0 -182 -72t-68 -178
q0 -79 50.5 -124.5t138.5 -45.5z" />
    <glyph glyph-name="zero.sups" horiz-adv-x="776" 
d="M418 713q-122 0 -189 76.5t-67 222.5q0 111 35 223.5t98 179.5q91 101 233 101q119 0 186.5 -77t67.5 -222q0 -118 -37.5 -233t-105.5 -183q-91 -88 -221 -88zM418 772q107 0 178 74q60 61 89.5 166t29.5 209q0 117 -48.5 176t-140.5 59q-117 0 -188 -86
q-53 -62 -81 -163.5t-28 -198.5q0 -117 48.5 -176.5t140.5 -59.5z" />
    <glyph glyph-name="one.sups" horiz-adv-x="493" 
d="M436 1501h53l-108 -774h-64l101 707l-236 -115l8 63z" />
    <glyph glyph-name="two.sups" horiz-adv-x="675" 
d="M518 1042l-309 -256h434l-8 -59h-531l7 49l350 291q86 70 131 130.5t45 127.5q0 61 -41 96t-109 35q-164 0 -247 -164l-50 27q43 95 122.5 146t176.5 51q92 0 151.5 -51.5t59.5 -133.5t-47 -148.5t-135 -140.5z" />
    <glyph glyph-name="three.sups" horiz-adv-x="665" 
d="M508 1122q143 -34 143 -166q0 -108 -82.5 -175.5t-208.5 -67.5q-80 0 -146.5 29.5t-102.5 86.5l41 41q68 -98 208 -98q99 0 163.5 51.5t64.5 134.5q0 136 -211 136h-60l7 57h94q96 0 154.5 49t58.5 127q0 61 -42.5 95t-117.5 34q-145 0 -238 -117l-43 39q55 67 129 102.5
t154 35.5q102 0 162.5 -50.5t60.5 -134.5q0 -82 -52.5 -138.5t-135.5 -70.5z" />
    <glyph glyph-name="four.sups" horiz-adv-x="704" 
d="M729 965l-8 -56h-119l-24 -182h-62l27 182h-426l6 56l483 536h80l-76 -536h119zM197 965h352l65 462z" />
    <glyph glyph-name="five.sups" horiz-adv-x="673" 
d="M702 1444h-395l-43 -295q86 57 187 57q102 0 163.5 -53t61.5 -145q0 -132 -89 -213.5t-227 -81.5q-161 0 -247 114l43 41q68 -96 204 -96q110 0 180 64t70 170q0 68 -44.5 106.5t-123.5 38.5q-111 0 -198 -68l-45 27l55 391h455z" />
    <glyph glyph-name="six.sups" horiz-adv-x="690" 
d="M461 1245q104 0 170.5 -60.5t66.5 -162.5q0 -135 -89 -222t-226 -87q-111 0 -180.5 60t-69.5 165q0 144 141 303l230 260h78l-263 -291q63 35 142 35zM385 770q112 0 180 70t68 178q0 81 -48.5 126.5t-135.5 45.5q-110 0 -180 -70t-70 -178q0 -82 49.5 -127t136.5 -45z
" />
    <glyph glyph-name="seven.sups" horiz-adv-x="600" 
d="M180 1501h518l-8 -53l-450 -721h-74l452 715h-446z" />
    <glyph glyph-name="eight.sups" horiz-adv-x="716" 
d="M555 1124q68 -20 104.5 -63.5t36.5 -104.5q0 -112 -88 -177.5t-217 -65.5q-121 0 -188.5 51t-67.5 135q0 88 54 146t145 81q-60 20 -92.5 60.5t-32.5 95.5q0 106 82.5 170t204.5 64q110 0 172.5 -50.5t62.5 -130.5q0 -79 -48 -133.5t-128 -77.5zM272 1280
q0 -60 45.5 -94.5t128.5 -34.5q99 0 160.5 49.5t61.5 132.5q0 60 -44.5 93.5t-127.5 33.5q-100 0 -162 -48.5t-62 -131.5zM391 770q107 0 175.5 50t68.5 136q0 64 -51 102t-142 38q-107 0 -174 -52t-67 -137q0 -64 49 -100.5t141 -36.5z" />
    <glyph glyph-name="nine.sups" horiz-adv-x="690" 
d="M479 1516q111 0 179.5 -61t68.5 -165q0 -84 -35.5 -155.5t-103.5 -147.5l-230 -260h-77l262 291q-60 -35 -140 -35q-105 0 -172 60t-67 163q0 134 88 222t227 88zM416 1038q112 0 180 69.5t68 180.5q0 81 -50 125.5t-137 44.5q-114 0 -182 -72t-68 -178
q0 -79 50.5 -124.5t138.5 -45.5z" />
    <glyph glyph-name="colon.case" horiz-adv-x="462" 
d="M315 1051q-29 0 -44.5 16.5t-12.5 44.5q1 30 21 48t47 18q28 0 43.5 -18t13.5 -48q-2 -25 -22 -43t-46 -18zM201 229q-29 0 -45 17t-13 45q1 30 21 47.5t47 17.5t43 -17.5t14 -45.5q-2 -26 -21.5 -45t-45.5 -19z" />
    <glyph glyph-name="exclamdown.case" horiz-adv-x="550" 
d="M401 1438q29 0 44.5 -17t13.5 -45q-1 -29 -21.5 -47t-46.5 -18q-28 0 -44 17.5t-13 45.5q2 27 21 45.5t46 18.5zM381 1047l-139 -1047h-76l153 1047h62z" />
    <glyph glyph-name="questiondown.case" horiz-adv-x="929" 
d="M631 1438q29 0 44 -17t13 -45q-1 -30 -21 -47.5t-46 -17.5q-29 0 -45.5 17.5t-14.5 45.5q2 26 22 45t48 19zM614 1047l-18 -136q-13 -99 -48.5 -151.5t-141.5 -132.5l-113 -84q-174 -128 -174 -293q0 -98 68 -152.5t184 -54.5q127 0 232.5 62t172.5 178l51 -35
q-67 -129 -189 -202t-269 -73q-146 0 -235 74t-89 195q0 108 58.5 195.5t164.5 166.5l111 84q83 61 108.5 101t36.5 122l19 136h71z" />
    <glyph glyph-name="periodcentered.case" horiz-adv-x="450" 
d="M250 674q-29 0 -44 16.5t-13 44.5q1 30 21 47t48 17t43.5 -17.5t13.5 -46.5q-2 -25 -22 -43t-47 -18z" />
    <glyph glyph-name="bullet.case" horiz-adv-x="974" 
d="M518 524q-92 0 -152.5 61t-60.5 152t60.5 152t152.5 61q91 0 152 -61t61 -152t-61 -152t-152 -61z" />
    <glyph glyph-name="parenleft.case" horiz-adv-x="618" 
d="M387 -182q-101 146 -154 326t-53 374q0 297 122.5 588.5t336.5 509.5l51 -41q-197 -202 -316.5 -487t-119.5 -566q0 -187 48.5 -360t141.5 -305z" />
    <glyph glyph-name="parenright.case" horiz-adv-x="618" 
d="M287 1616q101 -146 155 -327t54 -374q0 -297 -122.5 -588t-336.5 -509l-51 41q197 202 316.5 486.5t119.5 565.5q0 187 -49 360.5t-142 305.5z" />
    <glyph glyph-name="braceleft.case" horiz-adv-x="720" 
d="M670 1593h123l-7 -61h-116q-100 0 -145 -41.5t-62 -153.5l-57 -424q-12 -84 -49.5 -131.5t-106.5 -66.5q63 -17 86 -65t12 -132l-57 -424q-17 -112 14 -152t131 -40h119l-8 -62h-119q-114 0 -163.5 40t-49.5 136q0 36 6 80l62 430q11 87 -18.5 123.5t-114.5 36.5h-21
l8 62h17q86 0 128 37.5t54 123.5l61 430q20 143 80 198.5t193 55.5z" />
    <glyph glyph-name="braceright.case" horiz-adv-x="720" 
d="M629 748h20l-8 -62h-16q-86 0 -128.5 -38t-54.5 -124l-61 -430q-20 -143 -79.5 -198.5t-192.5 -55.5h-123l8 62h115q100 0 144.5 41t61.5 153l58 424q12 84 49 132t106 67q-63 17 -86 64.5t-12 131.5l57 424q17 113 -14 153t-131 40h-119l8 61h119q114 0 163.5 -40
t49.5 -136q0 -37 -6 -80l-61 -430q-11 -87 18.5 -123t114.5 -36z" />
    <glyph glyph-name="bracketleft.case" horiz-adv-x="743" 
d="M807 1532h-352l-230 -1630h353l-9 -62h-419l245 1753h420z" />
    <glyph glyph-name="bracketright.case" horiz-adv-x="743" 
d="M231 1593h418l-246 -1753h-417l8 62h350l229 1630h-350z" />
    <glyph glyph-name="hyphen.case" horiz-adv-x="835" 
d="M156 705l8 65h579l-10 -65h-577z" />
    <glyph glyph-name="endash.case" horiz-adv-x="1282" 
d="M156 707l8 61h1024l-8 -61h-1024z" />
    <glyph glyph-name="emdash.case" horiz-adv-x="2306" 
d="M156 705l8 63h2048l-8 -63h-2048z" />
    <glyph glyph-name="guillemotleft.case" horiz-adv-x="958" 
d="M559 1161l-356 -424l235 -422h-78l-239 422l356 424h82zM942 1161l-356 -424l235 -422h-78l-239 422l354 424h84z" />
    <glyph glyph-name="guillemotright.case" horiz-adv-x="956" 
d="M279 1159l239 -422l-356 -424h-82l356 424l-235 422h78zM662 1159l237 -422l-354 -424h-84l356 424l-235 422h80z" />
    <glyph glyph-name="guilsinglleft.case" horiz-adv-x="575" 
d="M559 1161l-356 -424l235 -422h-78l-239 422l356 424h82z" />
    <glyph glyph-name="guilsinglright.case" horiz-adv-x="575" 
d="M279 1161l239 -424l-354 -422h-84l356 424l-235 422h78z" />
    <glyph glyph-name="cent.tf" 
d="M1217 981q-35 98 -122 153t-206 58l-131 -950q117 5 218.5 60t162.5 151l55 -37q-73 -112 -189 -173.5t-257 -64.5l-25 -178h-57l24 180q-188 12 -296.5 132.5t-108.5 310.5q0 140 56 275t157 224q143 121 344 133l24 179h58l-25 -179q138 -5 238 -66.5t141 -170.5z
M358 627q0 -168 91.5 -270.5t250.5 -112.5l131 946q-168 -15 -290 -125q-87 -79 -135 -195.5t-48 -242.5z" />
    <glyph glyph-name="currency.tf" 
d="M1104 967q53 -83 53 -195q0 -190 -125 -328l117 -137l-43 -37l-115 136q-126 -107 -293 -107q-162 0 -258 102l-155 -137l-39 43l160 139q-54 82 -54 195q0 190 125 328l-117 137l43 37l115 -137q122 106 291 106q166 0 260 -100l156 137l37 -43zM696 365q168 0 282 116
t114 287q0 127 -75 204t-206 77q-167 0 -280 -116.5t-113 -287.5q0 -129 73.5 -204.5t204.5 -75.5z" />
    <glyph glyph-name="dollar.tf" 
d="M1217 1124q-65 196 -330 211l-80 -581l82 -21q162 -40 235.5 -111.5t73.5 -175.5q0 -83 -34.5 -159.5t-96.5 -130.5q-133 -117 -362 -123l-19 -135h-57l18 135q-172 7 -280.5 87t-147.5 220l64 31q71 -261 374 -273l84 602l-63 17q-168 40 -247 111t-79 180
q0 86 41.5 166t112.5 131q133 93 334 96l18 135h57l-18 -137q150 -7 248.5 -72t132.5 -174zM705 778l45 -10l79 567q-185 -6 -290 -92q-54 -42 -83.5 -105t-29.5 -130q0 -84 64 -138t215 -92zM854 674l-57 14l-82 -590q196 9 307 111q48 43 75 103.5t27 125.5q0 89 -63 145
t-207 91z" />
    <glyph glyph-name="Euro.tf" 
d="M989 1393q-93 0 -181 -46.5t-161 -132.5q-107 -131 -162 -317h572l-8 -57h-580q-29 -134 -35 -246h580l-8 -57h-572q3 -228 101.5 -362t261.5 -134q127 0 237.5 83.5t179.5 233.5l60 -22q-77 -170 -203.5 -266.5t-277.5 -96.5q-196 0 -313 154t-120 410h-196l8 57h188
q6 112 35 246h-190l10 57h197q64 221 184 358q173 205 395 205q151 0 254.5 -96.5t132.5 -265.5l-63 -23q-26 151 -112 234.5t-214 83.5z" />
    <glyph glyph-name="florin.tf" 
d="M1208 1434h68l-8 -66h-68q-101 0 -164 -51t-100 -160l-107 -323h338l-8 -62h-350l-264 -801q-44 -135 -125 -196.5t-213 -61.5h-66l9 66h67q101 0 164 51t98 160l258 782h-325l6 62h340l112 342q44 135 125 196.5t213 61.5z" />
    <glyph glyph-name="sterling.tf" 
d="M936 1460q134 0 229 -62t138 -179l-60 -33q-73 207 -307 207q-146 0 -240.5 -85t-117.5 -243l-46 -326h543l-10 -63h-541l-86 -608h703l-8 -68h-951l11 68h172l86 608h-185l10 63h183l47 328q26 184 139.5 288.5t290.5 104.5z" />
    <glyph glyph-name="yen.tf" 
d="M1391 1434l-578 -779h361l-9 -57h-391l-35 -242h391l-8 -57h-391l-41 -299h-72l41 299h-387l9 57h387l34 242h-389l11 57h354l-356 779h75l348 -760l562 760h84z" />
    <glyph glyph-name="plus.tf" 
d="M1196 748l-8 -62h-402l-59 -426h-68l60 426h-404l11 62h403l59 426h66l-59 -426h401z" />
    <glyph glyph-name="minus.tf" 
d="M315 686l11 62h870l-8 -62h-873z" />
    <glyph glyph-name="multiply.tf" 
d="M1180 1049l-379 -334l282 -330l-49 -43l-282 330l-377 -332l-43 45l379 334l-283 330l49 43l283 -330l377 332z" />
    <glyph glyph-name="divide.tf" 
d="M801 1012q-26 0 -42 15t-16 40q0 30 21.5 50t48.5 20q25 0 40 -17t15 -43t-20.5 -45.5t-46.5 -19.5zM315 686l11 62h870l-8 -62h-873zM700 297q-26 0 -41.5 14t-15.5 39q0 31 21 50.5t49 19.5q25 0 40 -16t15 -42t-20.5 -45.5t-47.5 -19.5z" />
    <glyph glyph-name="equal.tf" 
d="M346 905l10 64h871l-10 -64h-871zM287 465l8 63h872l-10 -63h-870z" />
    <glyph glyph-name="notequal.tf" 
d="M1217 905h-312l-233 -377h495l-10 -63h-524l-184 -297h-64l184 297h-282l8 63h313l234 377h-496l10 64h525l184 297h63l-184 -297h283z" />
    <glyph glyph-name="greater.tf" 
d="M377 1116l819 -362l-8 -74l-924 -363l10 72l844 330l-749 332z" />
    <glyph glyph-name="less.tf" 
d="M1247 1116l-8 -72l-846 -329l752 -332l-10 -66l-820 363l11 74z" />
    <glyph glyph-name="greaterequal.tf" 
d="M397 1257l820 -362l-9 -72l-921 -362l8 69l846 332l-754 330zM246 178l8 64h872l-10 -64h-870z" />
    <glyph glyph-name="lessequal.tf" 
d="M1266 1255l-9 -69l-845 -332l751 -330l-8 -65l-819 362l8 72zM244 176l10 64h870l-10 -64h-870z" />
    <glyph glyph-name="plusminus.tf" 
d="M813 870h401l-10 -63h-401l-55 -397h-66l55 397h-403l10 63h404l55 398h65zM244 168l10 63h870l-10 -63h-870z" />
    <glyph glyph-name="approxequal.tf" 
d="M973 854q-44 0 -96.5 16.5t-93 37t-93.5 37t-98 16.5q-113 0 -250 -95l8 64q126 92 252 92q64 0 192 -53.5t189 -53.5q114 0 248 95l-8 -64q-130 -92 -250 -92zM913 414q-56 0 -124 27l-136 54t-123 27q-113 0 -251 -96l8 63q127 93 254 93q65 0 192 -53.5t189 -53.5
t120 23t127 71l-8 -63q-130 -92 -248 -92z" />
    <glyph glyph-name="logicalnot.tf" 
d="M340 862h870l-41 -291h-65l33 230h-805z" />
    <glyph glyph-name="asciitilde.tf" 
d="M944 633q-56 0 -123.5 26.5l-135 53t-122.5 26.5q-116 0 -254 -94l8 64q129 92 254 92q65 0 192 -53.5t189 -53.5q111 0 250 94l-8 -63q-133 -92 -250 -92z" />
    <glyph glyph-name="at.case" horiz-adv-x="1769" 
d="M1036 1462q180 0 322 -70.5t223.5 -204.5t81.5 -310q0 -132 -39.5 -252t-119.5 -200.5t-183 -80.5q-75 0 -125.5 52.5t-46.5 150.5q-41 -95 -122 -149t-181 -54q-122 0 -198.5 82.5t-76.5 216.5q0 113 46.5 210t133.5 156.5t195 59.5q93 0 157.5 -48.5t84.5 -135.5
l22 159h62l-62 -448q-13 -95 18 -145t95 -50q65 0 118 42.5t86 112t50.5 151t17.5 165.5q0 251 -154.5 390t-406.5 139q-150 0 -284 -50.5t-240 -144.5q-123 -112 -192.5 -274t-69.5 -334q0 -258 160 -411.5t438 -153.5q101 0 202 22t169 60l26 -54q-79 -42 -185 -66
t-214 -24q-300 0 -482 172t-182 455q0 183 77.5 358t215.5 297q111 99 257 154t306 55zM858 403q136 0 224.5 108.5t88.5 258.5q0 112 -60 176t-161 64q-135 0 -223 -107t-88 -258q0 -112 60 -177t159 -65z" />
    </font>
</defs>
</svg>
