<?xml version="1.0" standalone="no"?>
<!DOCTYPE svg PUBLIC "-//W3C//DTD SVG 1.1//EN" "http://www.w3.org/Graphics/SVG/1.1/DTD/svg11.dtd" >
<svg xmlns="http://www.w3.org/2000/svg" xmlns:xlink="http://www.w3.org/1999/xlink" version="1.1">
<metadata>
Created by FontForge 20170731 at Wed Feb 17 23:23:59 2021
 By Aleksey,,,
Copyright (c) by Christoph York. All rights reserved. Modification of this file requires prior written permission from Brink Type.
</metadata>
<defs>
<font id="Segma-Thin" horiz-adv-x="1454" >
  <font-face 
    font-family="Segma Thin"
    font-weight="100"
    font-stretch="normal"
    units-per-em="2048"
    panose-1="0 0 2 0 0 0 0 0 0 0"
    ascent="1556"
    descent="-492"
    x-height="1024"
    cap-height="1434"
    bbox="-938 -545 2433 2023"
    underline-thickness="102"
    underline-position="-450"
    unicode-range="U+000D-2B51"
  />
<missing-glyph horiz-adv-x="1687" 
d="M254 0v1434h1180v-1434h-1180zM743 543h156v57q0 41 10.5 61t46.5 50l60 49q66 55 93.5 104.5t27.5 106.5q0 106 -76.5 171.5t-198.5 65.5q-107 0 -190.5 -52t-124.5 -138l119 -80q74 123 194 123q54 0 85.5 -25t31.5 -71q0 -55 -62 -105l-65 -53q-66 -54 -86.5 -93
t-20.5 -108v-63zM821 215q46 0 75.5 30t29.5 77t-29.5 76.5t-75.5 29.5t-75 -29.5t-29 -76.5t29 -77t75 -30z" />
    <glyph glyph-name=".notdef" horiz-adv-x="1687" 
d="M254 0v1434h1180v-1434h-1180zM743 543h156v57q0 41 10.5 61t46.5 50l60 49q66 55 93.5 104.5t27.5 106.5q0 106 -76.5 171.5t-198.5 65.5q-107 0 -190.5 -52t-124.5 -138l119 -80q74 123 194 123q54 0 85.5 -25t31.5 -71q0 -55 -62 -105l-65 -53q-66 -54 -86.5 -93
t-20.5 -108v-63zM821 215q46 0 75.5 30t29.5 77t-29.5 76.5t-75.5 29.5t-75 -29.5t-29 -76.5t29 -77t75 -30z" />
    <glyph glyph-name=".null" horiz-adv-x="0" 
 />
    <glyph glyph-name="nonmarkingreturn" horiz-adv-x="682" 
 />
    <glyph glyph-name="CR" unicode="&#xd;" horiz-adv-x="512" 
 />
    <glyph glyph-name="space" unicode=" " horiz-adv-x="512" 
 />
    <glyph glyph-name="exclam" unicode="!" horiz-adv-x="536" 
d="M252 369l-2 1065h37l-2 -1065h-33zM268 0q-19 0 -31 12t-12 31t12 31t31 12t31 -12t12 -31t-12 -31t-31 -12z" />
    <glyph glyph-name="quotedbl" unicode="&#x22;" horiz-adv-x="622" 
d="M145 930l-2 528h37l-2 -528h-33zM444 930l-2 528h37l-2 -528h-33z" />
    <glyph glyph-name="numbersign" unicode="#" horiz-adv-x="1507" 
d="M1364 934h-285l-86 -434h285v-33h-291l-86 -436h-37l86 436h-491l-86 -436h-37l86 436h-279v33h285l86 434h-285v33h291l86 436h37l-86 -436h492l86 436h36l-86 -436h279v-33zM956 500l86 434h-491l-86 -434h491z" />
    <glyph glyph-name="dollar" unicode="$" horiz-adv-x="1187" 
d="M1065 391q0 -162 -117.5 -257.5t-318.5 -98.5v-137h-35v137q-177 4 -296.5 83.5t-174.5 223.5l31 12q112 -275 440 -284v643l-68 16q-194 46 -280 122.5t-86 203.5q0 156 115.5 249.5t318.5 94.5v137h35v-137q156 -6 263.5 -70t154.5 -178l-31 -14q-45 108 -144 165
t-243 62v-625l88 -20q188 -44 268 -124t80 -204zM535 762l59 -14v616q-189 -2 -293 -82t-104 -227q0 -112 74.5 -180.5t263.5 -112.5zM629 70q188 3 293.5 89t105.5 232q0 113 -75.5 184t-252.5 113l-71 17v-635z" />
    <glyph glyph-name="percent" unicode="%" horiz-adv-x="1611" 
d="M414 811q-141 0 -231.5 90t-90.5 234t90.5 233.5t231.5 89.5t231 -89.5t90 -233.5t-90.5 -234t-230.5 -90zM258 0l1053 1434h43l-1053 -1434h-43zM414 844q128 0 207 80.5t79 210.5t-79 210t-207 80t-207.5 -80t-79.5 -210t79.5 -210.5t207.5 -80.5zM1198 -25
q-140 0 -230.5 90t-90.5 234t90.5 234t230.5 90q141 0 231.5 -90t90.5 -234t-90.5 -234t-231.5 -90zM1198 8q128 0 207.5 80.5t79.5 210.5t-79.5 210.5t-207.5 80.5t-207.5 -80.5t-79.5 -210.5t79.5 -210.5t207.5 -80.5z" />
    <glyph glyph-name="ampersand" unicode="&#x26;" horiz-adv-x="1353" 
d="M1247 0h-43l-174 199q-156 -224 -436 -224q-190 0 -308 100t-118 263q0 119 76 211.5t260 198.5l31 18l-52 57q-99 115 -138.5 190.5t-39.5 149.5q0 125 90.5 210t241.5 85t241.5 -85t90.5 -210q0 -98 -68.5 -182t-230.5 -178l-84 -49l438 -500q104 171 121 440h35
q-20 -285 -131 -467zM340 1163q0 -70 38.5 -142t131.5 -179l55 -64l84 49q159 92 222 170t63 166q0 117 -84.5 189.5t-212.5 72.5t-212.5 -72.5t-84.5 -189.5zM594 8q266 0 414 217l-453 516l-31 -18q-173 -101 -246 -186.5t-73 -198.5q0 -150 108 -240t281 -90z" />
    <glyph glyph-name="quotesingle" unicode="'" horiz-adv-x="323" 
d="M145 930l-2 528h37l-2 -528h-33z" />
    <glyph glyph-name="parenleft" unicode="(" horiz-adv-x="604" 
d="M494 -260q-153 182 -236.5 417t-83.5 482t83.5 482t236.5 417l28 -20q-148 -175 -229.5 -408.5t-81.5 -470.5t81.5 -470.5t229.5 -408.5z" />
    <glyph glyph-name="parenright" unicode=")" horiz-adv-x="604" 
d="M111 -260l-29 20q148 175 229.5 408.5t81.5 470.5t-81.5 470.5t-229.5 408.5l29 20q153 -182 236 -417t83 -482t-83 -482t-236 -417z" />
    <glyph glyph-name="asterisk" unicode="*" horiz-adv-x="911" 
d="M242 735l-29 21l219 297l-350 108l10 35l348 -117l-4 367h37l-4 -367l348 117l12 -35l-352 -110l221 -293l-30 -23l-213 299z" />
    <glyph glyph-name="plus" unicode="+" 
d="M1157 666v-33h-412v-436h-34v436h-414v33h414v436h34v-436h412z" />
    <glyph glyph-name="comma" unicode="," horiz-adv-x="364" 
d="M102 -305l91 528h36l-96 -528h-31z" />
    <glyph glyph-name="hyphen" unicode="-" horiz-adv-x="839" 
d="M133 573v33h574v-33h-574z" />
    <glyph glyph-name="period" unicode="." horiz-adv-x="430" 
d="M215 0q-19 0 -31 12t-12 31t12 31t31 12t31 -12t12 -31t-12 -31t-31 -12z" />
    <glyph glyph-name="slash" unicode="/" horiz-adv-x="876" 
d="M41 -193l758 1709h37l-758 -1709h-37z" />
    <glyph glyph-name="zero" unicode="0" horiz-adv-x="1425" 
d="M713 -25q-249 0 -394 190.5t-145 551.5t145 551t394 190t393.5 -190t144.5 -551t-144.5 -551.5t-393.5 -190.5zM713 10q231 0 365 181t134 526t-134 525.5t-365 180.5t-365.5 -180.5t-134.5 -525.5t134.5 -526t365.5 -181z" />
    <glyph glyph-name="one" unicode="1" horiz-adv-x="849" 
d="M553 1434h31v-1434h-37v1393l-436 -228v37z" />
    <glyph glyph-name="two" unicode="2" horiz-adv-x="1191" 
d="M168 35h897v-35h-954v29l610 569q148 137 211 249t63 226q0 162 -105.5 256t-273.5 94q-155 0 -273.5 -85.5t-188.5 -258.5l-31 13q68 181 198.5 273.5t294.5 92.5q182 0 299 -107t117 -278q0 -120 -66.5 -237.5t-215.5 -257.5z" />
    <glyph glyph-name="three" unicode="3" horiz-adv-x="1142" 
d="M688 731q164 -32 248 -121t84 -227q0 -182 -133.5 -295t-341.5 -113q-142 0 -264.5 56t-198.5 164l27 20q73 -102 186 -153.5t250 -51.5q199 0 318.5 102t119.5 271q0 336 -502 336h-92v35h186q187 0 289.5 86.5t102.5 236.5q0 157 -107 251.5t-285 94.5q-146 0 -263 -64
t-183 -179l-29 18q73 124 197.5 192t277.5 68q196 0 312.5 -107.5t116.5 -273.5q0 -137 -83 -229.5t-233 -116.5z" />
    <glyph glyph-name="four" unicode="4" horiz-adv-x="1234" 
d="M1190 395v-35h-240v-360h-37v360h-819v35l805 1039h51v-1039h240zM141 395h772v998z" />
    <glyph glyph-name="five" unicode="5" horiz-adv-x="1181" 
d="M610 874q205 0 332 -117.5t127 -316.5q0 -206 -136 -335.5t-360 -129.5q-134 0 -250 52t-200 155l27 21q75 -95 184 -144t239 -49q205 0 332 115t127 315q0 188 -113 295t-309 107q-206 0 -387 -146l-30 17v721h808v-33h-774v-664q179 137 383 137z" />
    <glyph glyph-name="six" unicode="6" horiz-adv-x="1216" 
d="M625 950q217 0 357 -130t140 -357t-140 -357.5t-359 -130.5t-359.5 130.5t-140.5 357.5q0 108 39.5 210.5t136.5 233.5l387 527h47l-430 -584q131 100 322 100zM623 10q207 0 333.5 121t126.5 332t-126.5 331.5t-333.5 120.5t-334 -120.5t-127 -331.5t127 -332t334 -121z
" />
    <glyph glyph-name="seven" unicode="7" horiz-adv-x="1052" 
d="M61 1434h930v-31l-686 -1403h-41l684 1399h-887v35z" />
    <glyph glyph-name="eight" unicode="8" horiz-adv-x="1282" 
d="M784 737q168 -31 261.5 -130t93.5 -242q0 -173 -134 -281.5t-364 -108.5t-364 108.5t-134 281.5q0 143 93.5 242t261.5 130q-150 31 -233 124t-83 226q0 165 123.5 268t335.5 103t335.5 -103t123.5 -268q0 -133 -83 -226t-233 -124zM219 1087q0 -151 112.5 -242
t309.5 -91t309.5 91t112.5 242q0 153 -112.5 244.5t-309.5 91.5t-309.5 -91.5t-112.5 -244.5zM641 10q215 0 338 97t123 258t-123 257.5t-338 96.5t-338 -96.5t-123 -257.5t123 -258t338 -97z" />
    <glyph glyph-name="nine" unicode="9" horiz-adv-x="1216" 
d="M594 1458q219 0 359.5 -130t140.5 -357q0 -108 -39.5 -211t-136.5 -234l-388 -526h-47l430 584q-133 -101 -321 -101q-217 0 -357.5 130.5t-140.5 357.5t140.5 357t359.5 130zM594 518q207 0 334 121t127 332t-127 331.5t-334 120.5t-334 -120.5t-127 -331.5t127 -332
t334 -121z" />
    <glyph glyph-name="colon" unicode=":" horiz-adv-x="440" 
d="M225 838q-19 0 -31 12t-12 31t12 31t31 12t31 -12t12 -31t-12 -31t-31 -12zM225 0q-19 0 -31 12t-12 31t12 31t31 12t31 -12t12 -31t-12 -31t-31 -12z" />
    <glyph glyph-name="semicolon" unicode=";" horiz-adv-x="385" 
d="M207 838q-19 0 -31 12t-12 31t12 31t31 12t31 -12t12 -31t-12 -31t-31 -12zM102 -305l91 528h36l-96 -528h-31z" />
    <glyph glyph-name="less" unicode="&#x3c;" 
d="M1157 1034v-35l-827 -350l827 -350v-35l-860 365v41z" />
    <glyph glyph-name="equal" unicode="=" 
d="M297 858v33h860v-33h-860zM297 408v32h860v-32h-860z" />
    <glyph glyph-name="greater" unicode="&#x3e;" 
d="M297 1034l860 -364v-41l-860 -365v35l827 350l-827 350v35z" />
    <glyph glyph-name="question" unicode="?" horiz-adv-x="915" 
d="M403 369v147q0 100 26.5 150t123.5 129l100 84q144 120 144 272q0 128 -86.5 200t-223.5 72q-130 0 -235 -66.5t-160 -189.5l-31 17q58 131 171 202.5t255 71.5q156 0 251.5 -83t95.5 -224q0 -171 -170 -311l-101 -84q-81 -67 -102 -109t-21 -131v-147h-37zM422 0
q-19 0 -31 12t-12 31t12 31t31 12t31 -12t12 -31t-12 -31t-31 -12z" />
    <glyph glyph-name="at" unicode="@" horiz-adv-x="1927" 
d="M993 1307q170 0 317.5 -56t255 -157.5t169 -252t61.5 -331.5q0 -219 -83.5 -345t-213.5 -126q-88 0 -147 61.5t-66 180.5q-37 -113 -124.5 -177.5t-205.5 -64.5q-160 0 -263 114t-103 300q0 185 103 299t263 114q118 0 204.5 -63t121.5 -174v209h35v-521q0 -119 49 -182
t133 -63q115 0 187.5 116.5t72.5 321.5q0 180 -60.5 327t-165.5 241.5t-243 145t-297 50.5q-233 0 -418 -105t-288 -292t-103 -422t104.5 -418t290.5 -283t422 -100q118 0 230 24.5t190 67.5l15 -29q-80 -44 -195 -70t-240 -26q-248 0 -442.5 105t-303 295t-108.5 434
q0 183 63.5 341.5t174.5 270.5t268.5 176t339.5 64zM956 72q143 0 236.5 104t93.5 277t-93.5 277t-236.5 104t-236 -104t-93 -277t93 -277t236 -104z" />
    <glyph glyph-name="A" unicode="A" horiz-adv-x="1376" 
d="M1284 0l-194 455h-803l-195 -455h-39l615 1434h41l614 -1434h-39zM301 489h774l-387 902z" />
    <glyph glyph-name="B" unicode="B" horiz-adv-x="1421" 
d="M930 739q165 -25 252.5 -118.5t87.5 -243.5q0 -176 -118.5 -276.5t-336.5 -100.5h-561v1434h514q216 0 331 -97t115 -262q0 -130 -72.5 -218t-211.5 -118zM768 1399h-477v-647h477q200 0 305 85t105 238t-105 238.5t-305 85.5zM815 35q201 0 308.5 89t107.5 253
t-106.5 252t-309.5 88h-524v-682h524z" />
    <glyph glyph-name="C" unicode="C" horiz-adv-x="1607" 
d="M870 -25q-205 0 -367 94.5t-252.5 264t-90.5 383.5q0 161 53 298.5t146.5 235t225.5 152.5t285 55q213 0 376 -100.5t231 -270.5l-33 -14q-68 166 -223 258t-351 92q-143 0 -267 -51.5t-213 -143.5t-140 -224t-51 -287q0 -206 87 -368t240 -250.5t344 -88.5q196 0 351 92
t223 258l33 -14q-68 -170 -231 -270.5t-376 -100.5z" />
    <glyph glyph-name="D" unicode="D" horiz-adv-x="1564" 
d="M686 1434q217 0 378 -81.5t251 -244.5t90 -391t-90 -391t-251 -244.5t-378 -81.5h-432v1434h432zM686 35q312 0 496 176.5t184 505.5t-184 505.5t-496 176.5h-395v-1364h395z" />
    <glyph glyph-name="E" unicode="E" horiz-adv-x="1353" 
d="M291 35h891v-35h-928v1434h907v-35h-870v-658h833v-34h-833v-672z" />
    <glyph glyph-name="F" unicode="F" horiz-adv-x="1304" 
d="M1161 1399h-870v-668h850v-35h-850v-696h-37v1434h907v-35z" />
    <glyph glyph-name="G" unicode="G" horiz-adv-x="1640" 
d="M969 707h499v-514q-93 -105 -233 -161.5t-317 -56.5q-344 0 -551 203.5t-207 536.5q0 219 92 388.5t257 262t376 92.5q172 0 309.5 -62t222.5 -179l-31 -21q-78 108 -209.5 167.5t-291.5 59.5q-194 0 -349 -85t-246 -247.5t-91 -375.5q0 -216 93.5 -377.5t254.5 -244.5
t368 -83q162 0 298.5 52t218.5 143v467h-463v35z" />
    <glyph glyph-name="H" unicode="H" horiz-adv-x="1597" 
d="M1307 1434h36v-1434h-36v721h-1016v-721h-37v1434h37v-678h1016v678z" />
    <glyph glyph-name="I" unicode="I" horiz-adv-x="552" 
d="M258 0v1434h37v-1434h-37z" />
    <glyph glyph-name="J" unicode="J" horiz-adv-x="1202" 
d="M502 -25q-129 0 -241.5 51t-190.5 150l24 23q71 -91 178.5 -140t229.5 -49q198 0 314 129.5t116 376.5v918h37v-918q0 -259 -123.5 -400t-343.5 -141z" />
    <glyph glyph-name="K" unicode="K" horiz-adv-x="1374" 
d="M1284 0l-633 776l-360 -373v-403h-37v1434h37v-979l954 979h47l-616 -633l653 -801h-45z" />
    <glyph glyph-name="L" unicode="L" horiz-adv-x="1220" 
d="M291 35h844v-35h-881v1434h37v-1399z" />
    <glyph glyph-name="M" unicode="M" horiz-adv-x="1921" 
d="M1626 1434h41v-1434h-37v1374l-651 -977h-37l-651 977v-1374h-37v1434h41l666 -998z" />
    <glyph glyph-name="N" unicode="N" horiz-adv-x="1617" 
d="M1327 1434h37v-1434h-41l-1032 1378v-1378h-37v1434h41l1032 -1379v1379z" />
    <glyph glyph-name="O" unicode="O" horiz-adv-x="1753" 
d="M877 -25q-151 0 -284.5 56.5t-228 155t-149.5 236t-55 294.5t55 294.5t149.5 235.5t228 154.5t284.5 56.5t284 -56.5t228 -154.5t149.5 -235.5t54.5 -294.5q0 -209 -93 -379t-257 -266.5t-366 -96.5zM877 10q190 0 345 90.5t243.5 252.5t88.5 364t-88.5 363.5t-243.5 252
t-345 90.5q-143 0 -268.5 -53t-215.5 -145.5t-142 -224.5t-52 -283q0 -202 89 -364t244 -252.5t345 -90.5z" />
    <glyph glyph-name="P" unicode="P" horiz-adv-x="1382" 
d="M786 1434q227 0 352.5 -110t125.5 -310t-125.5 -310t-352.5 -110h-495v-594h-37v1434h532zM786 629q209 0 325 99.5t116 285.5t-116 285.5t-325 99.5h-495v-770h495z" />
    <glyph glyph-name="Q" unicode="Q" horiz-adv-x="1753" 
d="M1593 717q0 -188 -76 -344.5t-210 -257.5l192 -238l-26 -20l-193 239q-178 -121 -403 -121q-151 0 -284.5 56.5t-228 155t-149.5 236t-55 294.5t55 294.5t149.5 235.5t228 154.5t284.5 56.5t284 -56.5t228 -154.5t149.5 -235.5t54.5 -294.5zM877 10q212 0 378 113
l-309 383l27 20l311 -383q127 95 198.5 244.5t71.5 329.5q0 202 -88.5 363.5t-243.5 252t-345 90.5q-143 0 -268.5 -53t-215.5 -145.5t-142 -224.5t-52 -283q0 -202 89 -364t244 -252.5t345 -90.5z" />
    <glyph glyph-name="R" unicode="R" horiz-adv-x="1429" 
d="M1239 0l-524 627h-424v-627h-37v1434h537q225 0 351 -109t126 -295t-126 -294.5t-351 -108.5h-29l524 -627h-47zM291 1399v-737h500q207 0 322.5 96t115.5 272t-115.5 272.5t-322.5 96.5h-500z" />
    <glyph glyph-name="S" unicode="S" horiz-adv-x="1255" 
d="M653 -25q-202 0 -339.5 86.5t-198.5 247.5l30 13q130 -312 508 -312q212 0 329.5 94.5t117.5 257.5q0 124 -82.5 200t-278.5 122l-188 45q-211 51 -303 133.5t-92 220.5q0 171 124.5 273t346.5 102q184 0 310 -70t179 -200l-31 -14q-107 249 -458 249
q-207 0 -320.5 -88.5t-113.5 -251.5q0 -123 80 -196t286 -123l197 -47q206 -50 293.5 -135t87.5 -220q0 -179 -129.5 -283t-354.5 -104z" />
    <glyph glyph-name="T" unicode="T" horiz-adv-x="1241" 
d="M602 0v1399h-541v35h1119v-35h-541v-1399h-37z" />
    <glyph glyph-name="U" unicode="U" horiz-adv-x="1568" 
d="M784 -25q-252 0 -401.5 143.5t-149.5 395.5v920h37v-920q0 -234 139.5 -369t374.5 -135t374.5 135t139.5 369v920h37v-920q0 -252 -149.5 -395.5t-401.5 -143.5z" />
    <glyph glyph-name="V" unicode="V" horiz-adv-x="1355" 
d="M1264 1434h39l-605 -1434h-41l-604 1434h39l586 -1391z" />
    <glyph glyph-name="W" unicode="W" horiz-adv-x="2070" 
d="M1962 1434h39l-463 -1434h-43l-459 1380l-461 -1380h-43l-462 1434h39l446 -1381l459 1381h43l459 -1381z" />
    <glyph glyph-name="X" unicode="X" horiz-adv-x="1265" 
d="M1204 0h-43l-528 717l-529 -717h-43l545 737l-514 697h43l498 -674l497 674h44l-515 -697z" />
    <glyph glyph-name="Y" unicode="Y" horiz-adv-x="1241" 
d="M1174 1434h43l-578 -807v-627h-37v627l-577 807h43l553 -772z" />
    <glyph glyph-name="Z" unicode="Z" horiz-adv-x="1228" 
d="M152 35h974v-35h-1024v31l963 1368h-942v35h991v-31z" />
    <glyph glyph-name="bracketleft" unicode="[" horiz-adv-x="737" 
d="M655 1483h-366v-1688h366v-33h-401v1754h401v-33z" />
    <glyph glyph-name="backslash" unicode="\" horiz-adv-x="876" 
d="M836 -193h-37l-758 1709h37z" />
    <glyph glyph-name="bracketright" unicode="]" horiz-adv-x="737" 
d="M82 1516h401v-1754h-401v33h367v1688h-367v33z" />
    <glyph glyph-name="asciicircum" unicode="^" horiz-adv-x="1071" 
d="M989 733h-41l-411 615l-414 -615h-41l436 651h35z" />
    <glyph glyph-name="underscore" unicode="_" horiz-adv-x="880" 
d="M0 -195v35h881v-35h-881z" />
    <glyph glyph-name="grave" unicode="`" horiz-adv-x="1269" 
d="M684 1198h-41l-262 318h45z" />
    <glyph glyph-name="a" unicode="a" horiz-adv-x="1130" 
d="M573 1049q174 0 267.5 -91.5t93.5 -259.5v-698h-35v264q-37 -130 -148 -205t-274 -75q-167 0 -260.5 79.5t-93.5 217.5q0 128 96 199t270 71h410v147q0 158 -84.5 238t-241.5 80q-247 0 -360 -189l-29 19q122 203 389 203zM477 16q193 0 307.5 112.5t114.5 307.5v82h-410
q-162 0 -245.5 -62.5t-83.5 -174.5q0 -126 83.5 -195.5t233.5 -69.5z" />
    <glyph glyph-name="b" unicode="b" horiz-adv-x="1343" 
d="M707 1049q226 0 365.5 -149.5t139.5 -387.5t-139.5 -387.5t-365.5 -149.5q-172 0 -295.5 90t-171.5 246v-311h-35v1499h35v-786q48 156 171.5 246t295.5 90zM707 8q204 0 336.5 140.5t132.5 363.5t-132.5 363.5t-336.5 140.5t-336.5 -140.5t-132.5 -363.5t132.5 -363.5
t336.5 -140.5z" />
    <glyph glyph-name="c" unicode="c" horiz-adv-x="1173" 
d="M641 -25q-235 0 -372.5 149.5t-137.5 387.5q0 240 138.5 388.5t369.5 148.5q152 0 262.5 -70t165.5 -215l-31 -14q-52 135 -154 200.5t-241 65.5q-212 0 -342.5 -138.5t-130.5 -365.5q0 -226 130 -365t343 -139q139 0 241 65.5t154 200.5l31 -14q-55 -145 -165.5 -215
t-260.5 -70z" />
    <glyph glyph-name="d" unicode="d" horiz-adv-x="1343" 
d="M1104 1499h35v-1499h-35v311q-48 -156 -171.5 -246t-295.5 -90q-226 0 -366 150t-140 387t140 387t366 150q172 0 295.5 -90t171.5 -246v786zM637 8q204 0 336.5 140.5t132.5 363.5t-132.5 363.5t-336.5 140.5t-336.5 -140.5t-132.5 -363.5t132.5 -363.5t336.5 -140.5z
" />
    <glyph glyph-name="e" unicode="e" horiz-adv-x="1214" 
d="M1087 520h-919v-12q0 -230 130 -365t335 -135q133 0 240 58t167 161l29 -16q-63 -113 -176.5 -174.5t-259.5 -61.5q-226 0 -364 145.5t-138 387.5q0 246 140 393.5t356 147.5q204 0 334.5 -131.5t130.5 -344.5q0 -28 -5 -53zM627 1016q-188 0 -316 -125t-141 -338h885v14
q0 205 -120.5 327t-307.5 122z" />
    <glyph glyph-name="f" unicode="f" horiz-adv-x="745" 
d="M315 0v991h-262v33h262v240q0 133 64 193.5t192 60.5q69 0 142 -21v-33q-73 21 -140 21q-115 0 -169 -52t-54 -169v-240h359v-33h-359v-991h-35z" />
    <glyph glyph-name="g" unicode="g" horiz-adv-x="1343" 
d="M1104 1024h35v-934q0 -246 -136.5 -385t-377.5 -139q-150 0 -266.5 53.5t-186.5 147.5l27 22q66 -90 178 -140t248 -50q221 0 350 131t129 360v246q-48 -156 -171.5 -246t-295.5 -90q-225 0 -365.5 147.5t-140.5 376.5t140.5 377t365.5 148q172 0 295.5 -90t171.5 -246
v311zM637 33q203 0 336 138.5t133 352.5q0 215 -133 353.5t-336 138.5t-336 -138.5t-133 -353.5q0 -214 133 -352.5t336 -138.5z" />
    <glyph glyph-name="h" unicode="h" horiz-adv-x="1232" 
d="M659 1049q187 0 282 -107.5t95 -320.5v-621h-35v621q0 395 -342 395q-187 0 -303 -111.5t-116 -304.5v-600h-35v1499h35v-731q37 129 147.5 205t271.5 76z" />
    <glyph glyph-name="i" unicode="i" horiz-adv-x="448" 
d="M223 1321q-19 0 -31 12t-12 31t12 31t31 12t31 -12t12 -31t-12 -31t-31 -12zM207 0v1024h35v-1024h-35z" />
    <glyph glyph-name="j" unicode="j" horiz-adv-x="448" 
d="M223 1321q-19 0 -31 12t-12 31t12 31t31 12t31 -12t12 -31t-12 -31t-31 -12zM29 -436q-47 0 -90 14v33q43 -14 90 -14q85 0 131.5 56.5t46.5 158.5v1212h35v-1212q0 -119 -55.5 -183.5t-157.5 -64.5z" />
    <glyph glyph-name="k" unicode="k" horiz-adv-x="1067" 
d="M985 0l-469 555l-276 -260v-295h-35v1497h35v-1157l727 684h49l-473 -444l487 -580h-45z" />
    <glyph glyph-name="l" unicode="l" horiz-adv-x="444" 
d="M205 0v1499h35v-1499h-35z" />
    <glyph glyph-name="m" unicode="m" horiz-adv-x="1873" 
d="M1327 1049q173 0 261.5 -107t88.5 -313v-629h-35v629q0 387 -315 387q-172 0 -270.5 -112t-98.5 -304v-600h-34v629q0 387 -316 387q-172 0 -270 -112t-98 -304v-600h-35v1024h35v-252q36 132 129.5 204.5t238.5 72.5q293 0 340 -301q27 138 125 219.5t254 81.5z" />
    <glyph glyph-name="n" unicode="n" horiz-adv-x="1232" 
d="M659 1049q187 0 282 -107.5t95 -320.5v-621h-35v621q0 395 -342 395q-187 0 -303 -111.5t-116 -304.5v-600h-35v1024h35v-256q37 129 147.5 205t271.5 76z" />
    <glyph glyph-name="o" unicode="o" horiz-adv-x="1290" 
d="M645 -25q-232 0 -373 149.5t-141 387.5t141 387.5t373 149.5t373 -149.5t141 -387.5t-141 -387.5t-373 -149.5zM645 8q212 0 344.5 139t132.5 365t-132.5 365t-344.5 139t-344.5 -139t-132.5 -365t132.5 -365t344.5 -139z" />
    <glyph glyph-name="p" unicode="p" horiz-adv-x="1343" 
d="M707 1049q226 0 365.5 -149.5t139.5 -387.5t-139.5 -387.5t-365.5 -149.5q-172 0 -295.5 90t-171.5 246v-721h-35v1434h35v-311q48 156 171.5 246t295.5 90zM707 8q204 0 336.5 140.5t132.5 363.5t-132.5 363.5t-336.5 140.5t-336.5 -140.5t-132.5 -363.5t132.5 -363.5
t336.5 -140.5z" />
    <glyph glyph-name="q" unicode="q" horiz-adv-x="1343" 
d="M1104 1024h35v-1434h-35v721q-48 -156 -171.5 -246t-295.5 -90q-226 0 -366 150t-140 387t140 387t366 150q172 0 295.5 -90t171.5 -246v311zM637 8q204 0 336.5 140.5t132.5 363.5t-132.5 363.5t-336.5 140.5t-336.5 -140.5t-132.5 -363.5t132.5 -363.5t336.5 -140.5z
" />
    <glyph glyph-name="r" unicode="r" horiz-adv-x="743" 
d="M616 1034q30 0 62 -4v-35q-32 4 -60 4q-165 0 -271.5 -113.5t-106.5 -314.5v-571h-35v1024h35v-268q33 127 137 202.5t239 75.5z" />
    <glyph glyph-name="s" unicode="s" horiz-adv-x="1005" 
d="M524 -25q-149 0 -260.5 56.5t-161.5 154.5l29 17q52 -92 154 -143.5t239 -51.5q159 0 244.5 68.5t85.5 181.5q0 85 -55.5 136t-188.5 83l-221 53q-128 30 -187 90.5t-59 155.5q0 128 97.5 200.5t271.5 72.5q133 0 228 -45t139 -130l-29 -16q-90 158 -338 158
q-162 0 -247 -63t-85 -179q0 -86 54 -135.5t186 -81.5l221 -53q133 -31 191.5 -91.5t58.5 -154.5q0 -129 -96 -206t-271 -77z" />
    <glyph glyph-name="t" unicode="t" horiz-adv-x="780" 
d="M549 -16q-256 0 -256 237v770h-240v33h240v311h35v-311h370v-33h-370v-770q0 -205 221 -205q70 0 153 21v-31q-76 -22 -153 -22z" />
    <glyph glyph-name="u" unicode="u" horiz-adv-x="1224" 
d="M985 1024h35v-1024h-35v256q-37 -129 -149 -205t-271 -76q-368 0 -368 422v627h34v-621q0 -395 336 -395q185 0 301.5 111.5t116.5 304.5v600z" />
    <glyph glyph-name="v" unicode="v" horiz-adv-x="1032" 
d="M944 1024h39l-446 -1024h-41l-447 1024h39l428 -981z" />
    <glyph glyph-name="w" unicode="w" horiz-adv-x="1652" 
d="M1559 1024h36l-370 -1024h-39l-359 977l-360 -977h-39l-371 1024h37l355 -977l358 977h39l358 -977z" />
    <glyph glyph-name="x" unicode="x" horiz-adv-x="987" 
d="M934 0h-43l-397 506l-398 -506h-43l416 528l-389 496h43l371 -473l370 473h43l-389 -496z" />
    <glyph glyph-name="y" unicode="y" horiz-adv-x="1048" 
d="M961 1024h38l-620 -1432h-39l172 398l-459 1034h39l440 -989z" />
    <glyph glyph-name="z" unicode="z" horiz-adv-x="987" 
d="M156 33h716v-33h-761v27l708 964h-688v33h733v-27z" />
    <glyph glyph-name="braceleft" unicode="{" horiz-adv-x="714" 
d="M330 831q0 -85 -28.5 -131t-92.5 -61q64 -15 92.5 -61t28.5 -132v-430q0 -130 41 -175.5t153 -45.5h109v-33h-109q-129 0 -179 55t-50 199v430q0 96 -37.5 136.5t-128.5 40.5h-16v32h16q92 0 129 40t37 136v431q0 144 50 199t179 55h109v-33h-109q-112 0 -153 -45.5
t-41 -175.5v-431z" />
    <glyph glyph-name="bar" unicode="|" horiz-adv-x="624" 
d="M295 -205v1772h35v-1772h-35z" />
    <glyph glyph-name="braceright" unicode="}" horiz-adv-x="714" 
d="M586 655h16v-32h-16q-91 0 -128.5 -40.5t-37.5 -136.5v-430q0 -144 -50 -199t-180 -55h-108v33h108q112 0 153.5 45.5t41.5 175.5v430q0 86 28.5 132t92.5 61q-64 15 -92.5 61t-28.5 131v431q0 130 -41.5 175.5t-153.5 45.5h-108v33h108q130 0 180 -55t50 -199v-431
q0 -96 37 -136t129 -40z" />
    <glyph glyph-name="asciitilde" unicode="~" 
d="M922 578q-54 0 -123 28.5t-138.5 57t-123.5 28.5q-114 0 -240 -98v33q113 96 240 96q62 0 194 -57.5t191 -57.5q62 0 114.5 23t120.5 76v-33q-119 -96 -235 -96z" />
    <glyph glyph-name="uni00A0" unicode="&#xa0;" horiz-adv-x="512" 
 />
    <glyph glyph-name="exclamdown" unicode="&#xa1;" horiz-adv-x="536" 
d="M268 1024q19 0 31 -12t12 -31t-12 -31t-31 -12t-31 12t-12 31t12 31t31 12zM252 655h33l2 -1065h-37z" />
    <glyph glyph-name="cent" unicode="&#xa2;" horiz-adv-x="1202" 
d="M659 213q132 2 236.5 61t153.5 164l30 -14q-55 -116 -165.5 -179t-254.5 -65v-180h-34v180q-220 9 -351 156.5t-131 380.5t131 380t351 156v181h34v-181q144 -2 254.5 -64.5t165.5 -178.5l-30 -15q-49 106 -154 165t-236 61v-1008zM180 717q0 -221 123 -358t322 -146
v1008q-199 -9 -322 -146t-123 -358z" />
    <glyph glyph-name="sterling" unicode="&#xa3;" horiz-adv-x="1069" 
d="M291 690v-655h717v-35h-936v35h182v655h-193v35h193v352q0 179 98 280t266 101q131 0 233 -62.5t157 -178.5l-29 -15q-54 110 -147 165.5t-214 55.5q-155 0 -241 -89.5t-86 -256.5v-352h557v-35h-557z" />
    <glyph glyph-name="currency" unicode="&#xa4;" horiz-adv-x="1150" 
d="M977 702q0 -160 -92 -272l133 -133l-25 -25l-131 131q-110 -110 -287 -110q-174 0 -284 113l-131 -134l-27 25l133 133q-90 114 -90 272q0 159 90 273l-131 133l25 25l131 -134q110 113 284 113q177 0 287 -113l131 134l25 -25l-131 -133q90 -114 90 -273zM575 326
q163 0 265 105t102 271t-102.5 271.5t-264.5 105.5q-161 0 -263.5 -105.5t-102.5 -271.5t102.5 -271t263.5 -105z" />
    <glyph glyph-name="yen" unicode="&#xa5;" horiz-adv-x="1099" 
d="M1069 1434l-483 -797h381v-33h-400v-262h400v-33h-400v-309h-35v309h-395v33h395v262h-395v33h377l-483 797h41l479 -789l477 789h41z" />
    <glyph glyph-name="brokenbar" unicode="&#xa6;" horiz-adv-x="624" 
d="M295 866v701h35v-701h-35zM295 -205v684h35v-684h-35z" />
    <glyph glyph-name="section" unicode="&#xa7;" horiz-adv-x="1099" 
d="M696 291q131 -32 191.5 -96t60.5 -168q0 -136 -97 -215.5t-278 -79.5q-154 0 -268 56.5t-162 154.5l29 16q52 -92 155 -143.5t246 -51.5q166 0 252 70.5t86 192.5q0 96 -59 151.5t-193 87.5l-221 53q-131 31 -196.5 98.5t-65.5 178.5q0 117 68 202.5t190 102.5
q-128 31 -189 94t-61 170q0 141 98 217t281 76q282 0 373 -174l-29 -16q-89 157 -344 157q-342 0 -342 -260q0 -99 56.5 -152.5t191.5 -86.5l221 -54q135 -32 200.5 -99.5t65.5 -176.5q0 -118 -69 -203t-191 -102zM213 596q0 -102 60.5 -159.5t195.5 -90.5l66 -16
q97 -20 169.5 -7.5t120.5 53t71.5 97t23.5 123.5q0 103 -62 160t-199 90l-65 16q-98 20 -169.5 7t-118.5 -54t-70 -97t-23 -122z" />
    <glyph glyph-name="dieresis" unicode="&#xa8;" horiz-adv-x="1269" 
d="M426 1321q-19 0 -31 12t-12 31t12 31t31 12t31 -12t12 -31t-12 -31t-31 -12zM844 1321q-19 0 -31 12t-12 31t12 31t31 12t31 -12t12 -31t-12 -31t-31 -12z" />
    <glyph glyph-name="copyright" unicode="&#xa9;" horiz-adv-x="1789" 
d="M895 -25q-154 0 -291 58.5t-234 158.5t-153.5 236.5t-56.5 288.5t56.5 288.5t153.5 236t234 158t291 58.5t291 -58.5t234 -158t153.5 -236t56.5 -288.5t-56.5 -288.5t-153.5 -236.5t-234 -158.5t-291 -58.5zM895 8q197 0 358 94.5t251.5 257t90.5 357.5q0 146 -53.5 277
t-145.5 225.5t-222.5 150t-278.5 55.5t-278.5 -55.5t-222.5 -150t-145.5 -225.5t-53.5 -277q0 -195 90.5 -357.5t251.5 -257t358 -94.5zM911 313q-174 0 -278.5 111.5t-104.5 292.5t104.5 292t278.5 111q108 0 192.5 -46t129.5 -136l-29 -14q-37 78 -116.5 120.5
t-178.5 42.5q-153 0 -249.5 -101t-96.5 -269t96.5 -269.5t249.5 -101.5q99 0 178 43t117 121l29 -14q-45 -90 -130 -136.5t-192 -46.5z" />
    <glyph glyph-name="ordfeminine" unicode="&#xaa;" horiz-adv-x="985" 
d="M512 1516q147 0 226 -78.5t79 -223.5v-589h-35v221q-31 -111 -124.5 -174.5t-227.5 -63.5q-140 0 -219.5 68t-79.5 186t81 181t232 63h338v108q0 133 -69.5 201t-200.5 68q-204 0 -299 -160l-29 18q51 86 135 130.5t193 44.5zM430 641q160 0 256 94.5t96 257.5v80h-338
q-137 0 -206.5 -54t-69.5 -157q0 -105 69 -163t193 -58z" />
    <glyph glyph-name="guillemotleft" unicode="&#xab;" horiz-adv-x="903" 
d="M385 930h43l-293 -418l293 -418h-43l-293 418zM791 930l-293 -418l293 -418h-43l-293 418l293 418h43z" />
    <glyph glyph-name="logicalnot" unicode="&#xac;" 
d="M297 666h860v-267h-35v234h-825v33z" />
    <glyph glyph-name="registered" unicode="&#xae;" horiz-adv-x="1204" 
d="M602 1460q187 0 314.5 -129.5t127.5 -314.5t-127.5 -315t-314.5 -130t-314.5 130t-127.5 315t127.5 314.5t314.5 129.5zM602 600q174 0 292 121t118 295t-118 295t-292 121t-291.5 -121t-117.5 -295t117.5 -295t291.5 -121zM793 1118q0 -66 -41.5 -102.5t-116.5 -36.5
l166 -203h-39l-164 203h-121v-203h-31v479h187q77 0 118.5 -36.5t41.5 -100.5zM477 1227v-219h154q129 0 129 110q0 53 -33 81t-96 28h-154z" />
    <glyph glyph-name="macron" unicode="&#xaf;" horiz-adv-x="1269" 
d="M342 1303v34h586v-34h-586z" />
    <glyph glyph-name="degree" unicode="&#xb0;" horiz-adv-x="737" 
d="M369 926q-116 0 -191.5 75.5t-75.5 190.5t75.5 190.5t191.5 75.5t191 -75.5t75 -190.5t-75 -190.5t-191 -75.5zM369 958q101 0 166 64.5t65 169.5t-65 169t-166 64t-166.5 -64.5t-65.5 -168.5q0 -105 65.5 -169.5t166.5 -64.5z" />
    <glyph glyph-name="plusminus" unicode="&#xb1;" 
d="M745 653h412v-32h-412v-406h-34v406h-414v32h414v406h34v-406zM297 0v33h860v-33h-860z" />
    <glyph glyph-name="uni00B2" unicode="&#xb2;" horiz-adv-x="675" 
d="M131 760h467v-33h-520v29l319 299q81 75 114.5 132.5t33.5 117.5q0 83 -53.5 130.5t-139.5 47.5q-80 0 -142.5 -44t-98.5 -132l-29 14q39 96 110 145.5t160 49.5q100 0 164 -59t64 -152q0 -125 -152 -267z" />
    <glyph glyph-name="uni00B3" unicode="&#xb3;" horiz-adv-x="667" 
d="M416 1122q83 -19 126.5 -66.5t43.5 -119.5q0 -99 -72 -161t-186 -62q-78 0 -145 29.5t-109 86.5l22 21q80 -105 232 -105q104 0 163.5 52t59.5 137q0 174 -258 174h-53v31h98q99 0 152 45.5t53 122.5q0 79 -54.5 127.5t-146.5 48.5q-75 0 -135.5 -32.5t-97.5 -92.5
l-25 18q43 69 110.5 104.5t147.5 35.5q107 0 171.5 -58.5t64.5 -150.5q0 -73 -43 -123t-119 -62z" />
    <glyph glyph-name="acute" unicode="&#xb4;" horiz-adv-x="1269" 
d="M588 1198l258 318h45l-262 -318h-41z" />
    <glyph glyph-name="uni00B5" unicode="&#xb5;" horiz-adv-x="1241" 
d="M1001 1024h35v-1024h-35v256q-37 -129 -147.5 -205t-271.5 -76q-262 0 -342 213v-639h-35v1475h35v-621q0 -395 342 -395q187 0 303 111.5t116 304.5v600z" />
    <glyph glyph-name="paragraph" unicode="&#xb6;" horiz-adv-x="1288" 
d="M547 -266v1126h-45q-180 0 -274.5 81t-94.5 206q0 126 97.5 206.5t291.5 80.5h62v-1700h-37zM956 -266v1700h37v-1700h-37z" />
    <glyph glyph-name="periodcentered" unicode="&#xb7;" horiz-adv-x="430" 
d="M215 692q-19 0 -31 12t-12 31t12 31t31 12t31 -12t12 -31t-12 -31t-31 -12z" />
    <glyph glyph-name="cedilla" unicode="&#xb8;" horiz-adv-x="1269" 
d="M504 -399l133 405h35l-133 -405h-35z" />
    <glyph glyph-name="uni00B9" unicode="&#xb9;" horiz-adv-x="491" 
d="M309 1501h29v-774h-35v735l-229 -121v37z" />
    <glyph glyph-name="ordmasculine" unicode="&#xba;" horiz-adv-x="1110" 
d="M555 602q-195 0 -314.5 128t-119.5 329t119.5 329t314.5 128t314.5 -128t119.5 -329t-119.5 -329t-314.5 -128zM555 635q174 0 285.5 117.5t111.5 306.5t-111.5 306.5t-285.5 117.5t-285.5 -117.5t-111.5 -306.5t111.5 -306.5t285.5 -117.5z" />
    <glyph glyph-name="guillemotright" unicode="&#xbb;" horiz-adv-x="903" 
d="M113 930h43l293 -418l-293 -418h-43l293 418zM518 930l293 -418l-293 -418h-43l293 418l-293 418h43z" />
    <glyph glyph-name="onequarter" unicode="&#xbc;" horiz-adv-x="1536" 
d="M387 670v735l-229 -121v37l235 123h29v-774h-35zM1217 1434h38l-1003 -1434h-39zM1337 211v-31h-127v-190h-32v190h-437v31l422 553h47v-553h127zM782 211h396v516z" />
    <glyph glyph-name="onehalf" unicode="&#xbd;" horiz-adv-x="1536" 
d="M371 670v735l-230 -121v37l236 123h29v-774h-35zM1200 1434h39l-1003 -1434h-39zM920 23h466v-33h-520v28l320 299q81 75 114 132.5t33 117.5q0 83 -53 130.5t-139 47.5q-81 0 -143.5 -44t-98.5 -132l-29 15q39 96 110.5 145t160.5 49q100 0 163.5 -58.5t63.5 -152.5
q0 -64 -35.5 -127.5t-115.5 -138.5z" />
    <glyph glyph-name="threequarters" unicode="&#xbe;" horiz-adv-x="1536" 
d="M625 879q0 -100 -72 -162t-186 -62q-77 0 -144.5 30t-109.5 87l22 21q80 -105 232 -105q104 0 163.5 52t59.5 137q0 174 -258 174h-53v30h98q99 0 152 45.5t53 122.5q0 79 -55 127.5t-146 48.5q-75 0 -136 -32.5t-98 -92.5l-24 19q43 69 110.5 104t147.5 35
q107 0 171 -58.5t64 -150.5q0 -73 -42.5 -122.5t-118.5 -61.5q83 -19 126.5 -66.5t43.5 -119.5zM1300 1434h39l-1003 -1434h-39zM1421 211v-31h-127v-190h-32v190h-437v31l422 553h47v-553h127zM866 211h396v516z" />
    <glyph glyph-name="questiondown" unicode="&#xbf;" horiz-adv-x="915" 
d="M494 1024q19 0 31 -12t12 -31t-12 -31t-31 -12t-31 12t-12 31t12 31t31 12zM512 655v-147q0 -100 -26.5 -150t-123.5 -129l-100 -84q-143 -120 -143 -272q0 -128 86.5 -200t222.5 -72q130 0 235 66.5t160 189.5l31 -17q-58 -131 -171 -202.5t-255 -71.5q-155 0 -250.5 83
t-95.5 224q0 171 170 311l100 84q81 67 102 109t21 131v147h37z" />
    <glyph glyph-name="Agrave" unicode="&#xc0;" horiz-adv-x="1376" 
d="M782 1608h-41l-262 317h45zM1284 0l-194 455h-803l-195 -455h-39l615 1434h41l614 -1434h-39zM301 489h774l-387 902z" />
    <glyph glyph-name="Aacute" unicode="&#xc1;" horiz-adv-x="1376" 
d="M899 1925l-262 -317h-41l258 317h45zM1284 0l-194 455h-803l-195 -455h-39l615 1434h41l614 -1434h-39zM301 489h774l-387 902z" />
    <glyph glyph-name="Acircumflex" unicode="&#xc2;" horiz-adv-x="1376" 
d="M688 1898l-262 -290h-41l285 317h37l284 -317h-41zM1284 0l-194 455h-803l-195 -455h-39l615 1434h41l614 -1434h-39zM301 489h774l-387 902z" />
    <glyph glyph-name="Atilde" unicode="&#xc3;" horiz-adv-x="1376" 
d="M539 1827q-48 0 -77.5 -40t-29.5 -108h-33q0 81 40 130t100 49q74 0 163 -89q41 -41 70.5 -56t65.5 -15q48 0 77 39.5t29 109.5h33q0 -83 -39.5 -131.5t-99.5 -48.5q-78 0 -166 88q-38 40 -68 56t-65 16zM1284 0l-194 455h-803l-195 -455h-39l615 1434h41l614 -1434h-39z
M301 489h774l-387 902z" />
    <glyph glyph-name="Adieresis" unicode="&#xc4;" horiz-adv-x="1376" 
d="M479 1731q-19 0 -31 12t-12 31t12 31t31 12t31 -12t12 -31t-12 -31t-31 -12zM897 1731q-19 0 -31 12t-12 31t12 31t31 12t31 -12t12 -31t-12 -31t-31 -12zM1284 0l-194 455h-803l-195 -455h-39l615 1434h41l614 -1434h-39zM301 489h774l-387 902z" />
    <glyph glyph-name="Aring" unicode="&#xc5;" horiz-adv-x="1376" 
d="M688 1618q-90 0 -149.5 58t-59.5 145t59.5 144.5t149.5 57.5t149.5 -57.5t59.5 -144.5t-59.5 -145t-149.5 -58zM688 1991q-78 0 -126 -47.5t-48 -122.5t48 -122.5t126 -47.5t126 47.5t48 122.5t-48 122.5t-126 47.5zM1284 0l-194 455h-803l-195 -455h-39l615 1434h41
l614 -1434h-39zM301 489h774l-387 902z" />
    <glyph glyph-name="AE" unicode="&#xc6;" horiz-adv-x="2197" 
d="M1135 35h890v-35h-927v424h-709l-305 -424h-43l1034 1434h930v-35h-870v-658h837v-34h-837v-672zM416 459h682v946z" />
    <glyph glyph-name="Ccedilla" unicode="&#xc7;" horiz-adv-x="1607" 
d="M870 10q196 0 351 92t223 258l33 -14q-68 -170 -231 -270.5t-376 -100.5l-122 -374h-35l123 374q-146 6 -272 63.5t-214.5 154.5t-139 232.5t-50.5 291.5q0 161 53 298.5t146.5 235t225.5 152.5t285 55q213 0 376 -100.5t231 -270.5l-33 -14q-68 166 -223 258t-351 92
q-143 0 -267 -51.5t-213 -143.5t-140 -224t-51 -287q0 -206 87 -368t240 -250.5t344 -88.5z" />
    <glyph glyph-name="Egrave" unicode="&#xc8;" horiz-adv-x="1353" 
d="M791 1608h-41l-263 317h45zM291 35h891v-35h-928v1434h907v-35h-870v-658h833v-34h-833v-672z" />
    <glyph glyph-name="Eacute" unicode="&#xc9;" horiz-adv-x="1353" 
d="M907 1925l-262 -317h-41l258 317h45zM291 35h891v-35h-928v1434h907v-35h-870v-658h833v-34h-833v-672z" />
    <glyph glyph-name="Ecircumflex" unicode="&#xca;" horiz-adv-x="1353" 
d="M696 1898l-262 -290h-41l285 317h37l284 -317h-41zM291 35h891v-35h-928v1434h907v-35h-870v-658h833v-34h-833v-672z" />
    <glyph glyph-name="Edieresis" unicode="&#xcb;" horiz-adv-x="1353" 
d="M487 1731q-19 0 -31 12t-12 31t12 31t31 12t31 -12t12 -31t-12 -31t-31 -12zM905 1731q-19 0 -31 12t-12 31t12 31t31 12t31 -12t12 -31t-12 -31t-31 -12zM291 35h891v-35h-928v1434h907v-35h-870v-658h833v-34h-833v-672z" />
    <glyph glyph-name="Igrave" unicode="&#xcc;" horiz-adv-x="552" 
d="M371 1608h-41l-262 317h45zM258 0v1434h37v-1434h-37z" />
    <glyph glyph-name="Iacute" unicode="&#xcd;" horiz-adv-x="552" 
d="M184 1608l258 317h45l-262 -317h-41zM258 0v1434h37v-1434h-37z" />
    <glyph glyph-name="Icircumflex" unicode="&#xce;" horiz-adv-x="552" 
d="M295 1925l285 -317h-41l-263 290l-262 -290h-41l285 317h37zM258 0v1434h37v-1434h-37z" />
    <glyph glyph-name="Idieresis" unicode="&#xcf;" horiz-adv-x="552" 
d="M68 1731q-19 0 -31 12t-12 31t12 31t31 12t31 -12t12 -31t-12 -31t-31 -12zM485 1731q-19 0 -31 12t-12 31t12 31t31 12t31 -12t12 -31t-12 -31t-31 -12zM258 0v1434h37v-1434h-37z" />
    <glyph glyph-name="Eth" unicode="&#xd0;" horiz-adv-x="1593" 
d="M715 1434q217 0 378 -81.5t251 -244.5t90 -391t-90 -391t-251 -244.5t-378 -81.5h-432v700h-234v33h234v701h432zM715 35q312 0 496 176.5t184 505.5t-184 505.5t-496 176.5h-396v-666h476v-33h-476v-665h396z" />
    <glyph glyph-name="Ntilde" unicode="&#xd1;" horiz-adv-x="1617" 
d="M659 1827q-48 0 -77 -40t-29 -108h-33q0 81 39.5 130t99.5 49q75 0 164 -89q41 -41 70 -56t65 -15q48 0 77.5 40t29.5 109h33q0 -83 -40 -131.5t-100 -48.5q-40 0 -78 19.5t-87 68.5q-38 40 -68.5 56t-65.5 16zM1327 1434h37v-1434h-41l-1032 1378v-1378h-37v1434h41
l1032 -1379v1379z" />
    <glyph glyph-name="Ograve" unicode="&#xd2;" horiz-adv-x="1753" 
d="M971 1608h-41l-262 317h45zM877 -25q-151 0 -284.5 56.5t-228 155t-149.5 236t-55 294.5t55 294.5t149.5 235.5t228 154.5t284.5 56.5t284 -56.5t228 -154.5t149.5 -235.5t54.5 -294.5q0 -209 -93 -379t-257 -266.5t-366 -96.5zM877 10q190 0 345 90.5t243.5 252.5
t88.5 364t-88.5 363.5t-243.5 252t-345 90.5q-143 0 -268.5 -53t-215.5 -145.5t-142 -224.5t-52 -283q0 -202 89 -364t244 -252.5t345 -90.5z" />
    <glyph glyph-name="Oacute" unicode="&#xd3;" horiz-adv-x="1753" 
d="M784 1608l258 317h45l-262 -317h-41zM877 -25q-151 0 -284.5 56.5t-228 155t-149.5 236t-55 294.5t55 294.5t149.5 235.5t228 154.5t284.5 56.5t284 -56.5t228 -154.5t149.5 -235.5t54.5 -294.5q0 -209 -93 -379t-257 -266.5t-366 -96.5zM877 10q190 0 345 90.5
t243.5 252.5t88.5 364t-88.5 363.5t-243.5 252t-345 90.5q-143 0 -268.5 -53t-215.5 -145.5t-142 -224.5t-52 -283q0 -202 89 -364t244 -252.5t345 -90.5z" />
    <glyph glyph-name="Ocircumflex" unicode="&#xd4;" horiz-adv-x="1753" 
d="M877 1898l-263 -290h-41l285 317h37l285 -317h-41zM877 1458q151 0 284 -56.5t228 -154.5t149.5 -235.5t54.5 -294.5q0 -209 -93 -379t-257 -266.5t-366 -96.5q-151 0 -284.5 56.5t-228 155t-149.5 236t-55 294.5t55 294.5t149.5 235.5t228 154.5t284.5 56.5zM877 10
q190 0 345 90.5t243.5 252.5t88.5 364t-88.5 363.5t-243.5 252t-345 90.5q-143 0 -268.5 -53t-215.5 -145.5t-142 -224.5t-52 -283q0 -202 89 -364t244 -252.5t345 -90.5z" />
    <glyph glyph-name="Otilde" unicode="&#xd5;" horiz-adv-x="1753" 
d="M1026 1667q-78 0 -166 88q-38 40 -68 56t-65 16q-48 0 -77 -40t-29 -108h-33q0 81 39.5 130t99.5 49q75 0 164 -89q41 -41 70 -56t65 -15q48 0 77.5 40t29.5 109h32q0 -83 -39.5 -131.5t-99.5 -48.5zM877 -25q-151 0 -284.5 56.5t-228 155t-149.5 236t-55 294.5t55 294.5
t149.5 235.5t228 154.5t284.5 56.5t284 -56.5t228 -154.5t149.5 -235.5t54.5 -294.5q0 -209 -93 -379t-257 -266.5t-366 -96.5zM877 10q190 0 345 90.5t243.5 252.5t88.5 364t-88.5 363.5t-243.5 252t-345 90.5q-143 0 -268.5 -53t-215.5 -145.5t-142 -224.5t-52 -283
q0 -202 89 -364t244 -252.5t345 -90.5z" />
    <glyph glyph-name="Odieresis" unicode="&#xd6;" horiz-adv-x="1753" 
d="M668 1731q-19 0 -31 12t-12 31t12 31t31 12t31 -12t12 -31t-12 -31t-31 -12zM1085 1731q-19 0 -31 12t-12 31t12 31t31 12t31 -12t12 -31t-12 -31t-31 -12zM877 -25q-151 0 -284.5 56.5t-228 155t-149.5 236t-55 294.5t55 294.5t149.5 235.5t228 154.5t284.5 56.5
t284 -56.5t228 -154.5t149.5 -235.5t54.5 -294.5q0 -209 -93 -379t-257 -266.5t-366 -96.5zM877 10q190 0 345 90.5t243.5 252.5t88.5 364t-88.5 363.5t-243.5 252t-345 90.5q-143 0 -268.5 -53t-215.5 -145.5t-142 -224.5t-52 -283q0 -202 89 -364t244 -252.5t345 -90.5z
" />
    <glyph glyph-name="multiply" unicode="&#xd7;" 
d="M1090 987l-338 -338l338 -338l-25 -24l-338 338l-338 -338l-24 24l337 338l-337 338l24 25l338 -338l338 338z" />
    <glyph glyph-name="Oslash" unicode="&#xd8;" horiz-adv-x="1753" 
d="M1409 1225q184 -210 184 -508q0 -209 -93 -379t-257 -266.5t-366 -96.5q-150 0 -280.5 54.5t-227.5 154.5l-174 -174l-25 27l174 174q-184 203 -184 506q0 157 55 294.5t149.5 235.5t228 154.5t284.5 56.5q149 0 278.5 -54t228.5 -153l175 174l26 -24zM877 1423
q-143 0 -268.5 -53t-215.5 -145.5t-142 -224.5t-52 -283q0 -140 44.5 -263.5t125.5 -217.5l989 989q-192 198 -481 198zM877 10q190 0 345 90.5t243.5 252.5t88.5 364q0 287 -172 481l-989 -989q92 -95 216.5 -147t267.5 -52z" />
    <glyph glyph-name="Ugrave" unicode="&#xd9;" horiz-adv-x="1568" 
d="M879 1608h-41l-263 317h46zM784 -25q-252 0 -401.5 143.5t-149.5 395.5v920h37v-920q0 -234 139.5 -369t374.5 -135t374.5 135t139.5 369v920h37v-920q0 -252 -149.5 -395.5t-401.5 -143.5z" />
    <glyph glyph-name="Uacute" unicode="&#xda;" horiz-adv-x="1568" 
d="M692 1608l258 317h45l-262 -317h-41zM784 -25q-252 0 -401.5 143.5t-149.5 395.5v920h37v-920q0 -234 139.5 -369t374.5 -135t374.5 135t139.5 369v920h37v-920q0 -252 -149.5 -395.5t-401.5 -143.5z" />
    <glyph glyph-name="Ucircumflex" unicode="&#xdb;" horiz-adv-x="1568" 
d="M784 1898l-262 -290h-41l285 317h37l284 -317h-40zM1298 1434h37v-920q0 -252 -149.5 -395.5t-401.5 -143.5t-401.5 143.5t-149.5 395.5v920h37v-920q0 -234 139.5 -369t374.5 -135t374.5 135t139.5 369v920z" />
    <glyph glyph-name="Udieresis" unicode="&#xdc;" horiz-adv-x="1568" 
d="M575 1731q-19 0 -31 12t-12 31t12 31t31 12t31 -12t12 -31t-12 -31t-31 -12zM993 1731q-19 0 -31 12t-12 31t12 31t31 12t31 -12t12 -31t-12 -31t-31 -12zM784 -25q-252 0 -401.5 143.5t-149.5 395.5v920h37v-920q0 -234 139.5 -369t374.5 -135t374.5 135t139.5 369v920
h37v-920q0 -252 -149.5 -395.5t-401.5 -143.5z" />
    <glyph glyph-name="Yacute" unicode="&#xdd;" horiz-adv-x="1241" 
d="M831 1925l-262 -317h-41l258 317h45zM1174 1434h43l-578 -807v-627h-37v627l-577 807h43l553 -772z" />
    <glyph glyph-name="Thorn" unicode="&#xde;" horiz-adv-x="1382" 
d="M786 1157q227 0 352.5 -110t125.5 -310t-125.5 -310t-352.5 -110h-495v-317h-37v1434h37v-277h495zM786 352q209 0 325 99.5t116 285.5t-116 285.5t-325 99.5h-495v-770h495z" />
    <glyph glyph-name="germandbls" unicode="&#xdf;" horiz-adv-x="1220" 
d="M727 762q179 -7 275 -104.5t96 -268.5q0 -191 -116 -296t-327 -105q-76 0 -141 16v33q69 -17 141 -17q198 0 302 96.5t104 272.5q0 172 -100 260t-289 88h-160v33h68q187 0 291 93t104 272q0 169 -93.5 258.5t-265.5 89.5q-182 0 -279 -98t-97 -277v-1108h-35v1108
q0 198 109.5 303t301.5 105q185 0 289.5 -98.5t104.5 -282.5q0 -152 -73 -247t-210 -126z" />
    <glyph glyph-name="agrave" unicode="&#xe0;" horiz-adv-x="1130" 
d="M666 1198h-41l-263 318h46zM573 1049q174 0 267.5 -91.5t93.5 -259.5v-698h-35v264q-37 -130 -148 -205t-274 -75q-167 0 -260.5 79.5t-93.5 217.5q0 128 96 199t270 71h410v147q0 158 -84.5 238t-241.5 80q-247 0 -360 -189l-29 19q122 203 389 203zM477 16
q193 0 307.5 112.5t114.5 307.5v82h-410q-162 0 -245.5 -62.5t-83.5 -174.5q0 -126 83.5 -195.5t233.5 -69.5z" />
    <glyph glyph-name="aacute" unicode="&#xe1;" horiz-adv-x="1130" 
d="M782 1516l-262 -318h-41l258 318h45zM573 1049q174 0 267.5 -91.5t93.5 -259.5v-698h-35v264q-37 -130 -148 -205t-274 -75q-167 0 -260.5 79.5t-93.5 217.5q0 128 96 199t270 71h410v147q0 158 -84.5 238t-241.5 80q-247 0 -360 -189l-29 19q122 203 389 203zM477 16
q193 0 307.5 112.5t114.5 307.5v82h-410q-162 0 -245.5 -62.5t-83.5 -174.5q0 -126 83.5 -195.5t233.5 -69.5z" />
    <glyph glyph-name="acircumflex" unicode="&#xe2;" horiz-adv-x="1130" 
d="M571 1489l-262 -291h-41l285 318h37l284 -318h-40zM573 1049q174 0 267.5 -91.5t93.5 -259.5v-698h-35v264q-37 -130 -148 -205t-274 -75q-167 0 -260.5 79.5t-93.5 217.5q0 128 96 199t270 71h410v147q0 158 -84.5 238t-241.5 80q-247 0 -360 -189l-29 19
q122 203 389 203zM477 16q193 0 307.5 112.5t114.5 307.5v82h-410q-162 0 -245.5 -62.5t-83.5 -174.5q0 -126 83.5 -195.5t233.5 -69.5z" />
    <glyph glyph-name="atilde" unicode="&#xe3;" horiz-adv-x="1130" 
d="M422 1417q-48 0 -77.5 -39.5t-29.5 -107.5h-32q0 81 39.5 129.5t99.5 48.5q76 0 164 -88q41 -41 70.5 -56.5t64.5 -15.5q48 0 77 40t29 110h33q0 -83 -39.5 -132t-99.5 -49q-77 0 -166 89q-38 39 -67.5 55t-65.5 16zM573 1049q174 0 267.5 -91.5t93.5 -259.5v-698h-35
v264q-37 -130 -148 -205t-274 -75q-167 0 -260.5 79.5t-93.5 217.5q0 128 96 199t270 71h410v147q0 158 -84.5 238t-241.5 80q-247 0 -360 -189l-29 19q122 203 389 203zM477 16q193 0 307.5 112.5t114.5 307.5v82h-410q-162 0 -245.5 -62.5t-83.5 -174.5
q0 -126 83.5 -195.5t233.5 -69.5z" />
    <glyph glyph-name="adieresis" unicode="&#xe4;" horiz-adv-x="1130" 
d="M362 1321q-19 0 -31 12t-12 31t12 31t31 12t31.5 -12t12.5 -31t-12.5 -31t-31.5 -12zM780 1321q-19 0 -31 12t-12 31t12 31t31 12t31 -12t12 -31t-12 -31t-31 -12zM573 1049q174 0 267.5 -91.5t93.5 -259.5v-698h-35v264q-37 -130 -148 -205t-274 -75q-167 0 -260.5 79.5
t-93.5 217.5q0 128 96 199t270 71h410v147q0 158 -84.5 238t-241.5 80q-247 0 -360 -189l-29 19q122 203 389 203zM477 16q193 0 307.5 112.5t114.5 307.5v82h-410q-162 0 -245.5 -62.5t-83.5 -174.5q0 -126 83.5 -195.5t233.5 -69.5z" />
    <glyph glyph-name="aring" unicode="&#xe5;" horiz-adv-x="1130" 
d="M571 1208q-90 0 -149.5 58t-59.5 145t59.5 145t149.5 58t149.5 -58t59.5 -145t-59.5 -145t-149.5 -58zM571 1581q-78 0 -126 -47.5t-48 -122.5t48 -122.5t126 -47.5t126 47.5t48 122.5t-48 122.5t-126 47.5zM573 1049q174 0 267.5 -91.5t93.5 -259.5v-698h-35v264
q-37 -130 -148 -205t-274 -75q-167 0 -260.5 79.5t-93.5 217.5q0 128 96 199t270 71h410v147q0 158 -84.5 238t-241.5 80q-247 0 -360 -189l-29 19q122 203 389 203zM477 16q193 0 307.5 112.5t114.5 307.5v82h-410q-162 0 -245.5 -62.5t-83.5 -174.5q0 -126 83.5 -195.5
t233.5 -69.5z" />
    <glyph glyph-name="ae" unicode="&#xe6;" horiz-adv-x="1970" 
d="M1843 524h-899v-16q0 -229 128 -364.5t325 -135.5q129 0 234 58t165 161l29 -16q-63 -112 -174.5 -174t-251.5 -62q-173 0 -298 94.5t-169 260.5q-29 -168 -148 -261.5t-303 -93.5q-170 0 -264 79.5t-94 221.5q0 140 93.5 210.5t272.5 70.5h420v141q0 158 -87 238
t-249 80q-247 0 -360 -189l-29 19q122 203 389 203q170 0 266 -83.5t105 -240.5q54 153 174 238.5t275 85.5q196 0 325 -130.5t129 -336.5q0 -30 -4 -58zM1393 1016q-182 0 -308 -124.5t-139 -334.5h864v10q0 204 -119 326.5t-298 122.5zM481 8q196 0 312 114t116 314v88
h-420q-329 0 -329 -248q0 -129 84 -198.5t237 -69.5z" />
    <glyph glyph-name="ccedilla" unicode="&#xe7;" horiz-adv-x="1173" 
d="M641 8q139 0 241 65.5t154 200.5l31 -14q-54 -142 -160.5 -212t-251.5 -73l-123 -374h-34l123 374q-151 5 -262.5 75.5t-169.5 189.5t-58 272q0 240 138.5 388.5t369.5 148.5q152 0 262.5 -70t165.5 -215l-31 -14q-52 135 -154 200.5t-241 65.5q-212 0 -342.5 -138.5
t-130.5 -365.5q0 -226 130 -365t343 -139z" />
    <glyph glyph-name="egrave" unicode="&#xe8;" horiz-adv-x="1214" 
d="M721 1198h-41l-262 318h45zM1087 520h-919v-12q0 -230 130 -365t335 -135q133 0 240 58t167 161l29 -16q-63 -113 -176.5 -174.5t-259.5 -61.5q-226 0 -364 145.5t-138 387.5q0 246 140 393.5t356 147.5q204 0 334.5 -131.5t130.5 -344.5q0 -28 -5 -53zM627 1016
q-188 0 -316 -125t-141 -338h885v14q0 205 -120.5 327t-307.5 122z" />
    <glyph glyph-name="eacute" unicode="&#xe9;" horiz-adv-x="1214" 
d="M838 1516l-263 -318h-40l258 318h45zM1087 520h-919v-12q0 -230 130 -365t335 -135q133 0 240 58t167 161l29 -16q-63 -113 -176.5 -174.5t-259.5 -61.5q-226 0 -364 145.5t-138 387.5q0 246 140 393.5t356 147.5q204 0 334.5 -131.5t130.5 -344.5q0 -28 -5 -53z
M627 1016q-188 0 -316 -125t-141 -338h885v14q0 205 -120.5 327t-307.5 122z" />
    <glyph glyph-name="ecircumflex" unicode="&#xea;" horiz-adv-x="1214" 
d="M627 1489l-262 -291h-41l284 318h37l285 -318h-41zM1087 520h-919v-12q0 -230 130 -365t335 -135q133 0 240 58t167 161l29 -16q-63 -113 -176.5 -174.5t-259.5 -61.5q-226 0 -364 145.5t-138 387.5q0 246 140 393.5t356 147.5q204 0 334.5 -131.5t130.5 -344.5
q0 -28 -5 -53zM627 1016q-188 0 -316 -125t-141 -338h885v14q0 205 -120.5 327t-307.5 122z" />
    <glyph glyph-name="edieresis" unicode="&#xeb;" horiz-adv-x="1214" 
d="M418 1321q-19 0 -31 12t-12 31t12 31t31 12t31 -12t12 -31t-12 -31t-31 -12zM836 1321q-19 0 -31 12t-12 31t12 31t31 12t31 -12t12 -31t-12 -31t-31 -12zM1087 520h-919v-12q0 -230 130 -365t335 -135q133 0 240 58t167 161l29 -16q-63 -113 -176.5 -174.5t-259.5 -61.5
q-226 0 -364 145.5t-138 387.5q0 246 140 393.5t356 147.5q204 0 334.5 -131.5t130.5 -344.5q0 -28 -5 -53zM627 1016q-188 0 -316 -125t-141 -338h885v14q0 205 -120.5 327t-307.5 122z" />
    <glyph glyph-name="igrave" unicode="&#xec;" horiz-adv-x="448" 
d="M279 1198l-232 318h45l227 -318h-40zM207 0v1024h35v-1024h-35z" />
    <glyph glyph-name="iacute" unicode="&#xed;" horiz-adv-x="448" 
d="M133 1198l227 318h46l-232 -318h-41zM207 0v1024h35v-1024h-35z" />
    <glyph glyph-name="icircumflex" unicode="&#xee;" horiz-adv-x="448" 
d="M244 1516l256 -318h-41l-234 291l-233 -291h-41l256 318h37zM207 0v1024h35v-1024h-35z" />
    <glyph glyph-name="idieresis" unicode="&#xef;" horiz-adv-x="448" 
d="M39 1321q-19 0 -31 12t-12 31t12 31t31 12t31 -12t12 -31t-12 -31t-31 -12zM412 1321q-19 0 -31 12t-12 31t12 31t31 12t31 -12t12 -31t-12 -31t-31 -12zM207 0v1024h35v-1024h-35z" />
    <glyph glyph-name="eth" unicode="&#xf0;" horiz-adv-x="1290" 
d="M784 1325q183 -145 279 -354.5t96 -468.5q0 -221 -127 -363q-67 -78 -166.5 -121t-220.5 -43q-231 0 -372.5 148t-141.5 379t141.5 378.5t372.5 147.5q151 0 269.5 -68t183.5 -200q-79 342 -340 547l-266 -187l-21 27l258 180q-140 102 -332 168l11 29q199 -64 350 -176
l246 172l20 -27zM645 8q211 0 344 137.5t133 356.5t-133 356t-344 137t-344 -137t-133 -356t133 -356.5t344 -137.5z" />
    <glyph glyph-name="ntilde" unicode="&#xf1;" horiz-adv-x="1232" 
d="M471 1417q-48 0 -77 -39.5t-29 -107.5h-33q0 81 39.5 129.5t99.5 48.5q76 0 164 -88q41 -41 70.5 -56.5t64.5 -15.5q48 0 77.5 40.5t29.5 109.5h32q0 -83 -39.5 -132t-99.5 -49q-77 0 -166 89q-38 39 -67.5 55t-65.5 16zM659 1049q187 0 282 -107.5t95 -320.5v-621h-35
v621q0 395 -342 395q-187 0 -303 -111.5t-116 -304.5v-600h-35v1024h35v-256q37 129 147.5 205t271.5 76z" />
    <glyph glyph-name="ograve" unicode="&#xf2;" horiz-adv-x="1290" 
d="M739 1198h-41l-262 318h45zM645 -25q-232 0 -373 149.5t-141 387.5t141 387.5t373 149.5t373 -149.5t141 -387.5t-141 -387.5t-373 -149.5zM645 8q212 0 344.5 139t132.5 365t-132.5 365t-344.5 139t-344.5 -139t-132.5 -365t132.5 -365t344.5 -139z" />
    <glyph glyph-name="oacute" unicode="&#xf3;" horiz-adv-x="1290" 
d="M553 1198l258 318h45l-262 -318h-41zM645 -25q-232 0 -373 149.5t-141 387.5t141 387.5t373 149.5t373 -149.5t141 -387.5t-141 -387.5t-373 -149.5zM645 8q212 0 344.5 139t132.5 365t-132.5 365t-344.5 139t-344.5 -139t-132.5 -365t132.5 -365t344.5 -139z" />
    <glyph glyph-name="ocircumflex" unicode="&#xf4;" horiz-adv-x="1290" 
d="M645 1489l-262 -291h-41l285 318h37l284 -318h-41zM645 1049q232 0 373 -149.5t141 -387.5t-141 -387.5t-373 -149.5t-373 149.5t-141 387.5t141 387.5t373 149.5zM645 8q212 0 344.5 139t132.5 365t-132.5 365t-344.5 139t-344.5 -139t-132.5 -365t132.5 -365
t344.5 -139z" />
    <glyph glyph-name="otilde" unicode="&#xf5;" horiz-adv-x="1290" 
d="M795 1257q-77 0 -166 89q-38 39 -67.5 55t-65.5 16q-48 0 -77.5 -39.5t-29.5 -107.5h-33q0 81 40 129.5t100 48.5q75 0 163 -88q41 -41 70.5 -56.5t65.5 -15.5q48 0 77 40t29 110h33q0 -83 -39.5 -132t-99.5 -49zM645 -25q-232 0 -373 149.5t-141 387.5t141 387.5
t373 149.5t373 -149.5t141 -387.5t-141 -387.5t-373 -149.5zM645 8q212 0 344.5 139t132.5 365t-132.5 365t-344.5 139t-344.5 -139t-132.5 -365t132.5 -365t344.5 -139z" />
    <glyph glyph-name="odieresis" unicode="&#xf6;" horiz-adv-x="1290" 
d="M436 1321q-19 0 -31 12t-12 31t12 31t31 12t31 -12t12 -31t-12 -31t-31 -12zM854 1321q-19 0 -31 12t-12 31t12 31t31 12t31 -12t12 -31t-12 -31t-31 -12zM645 -25q-232 0 -373 149.5t-141 387.5t141 387.5t373 149.5t373 -149.5t141 -387.5t-141 -387.5t-373 -149.5z
M645 8q212 0 344.5 139t132.5 365t-132.5 365t-344.5 139t-344.5 -139t-132.5 -365t132.5 -365t344.5 -139z" />
    <glyph glyph-name="divide" unicode="&#xf7;" 
d="M727 963q-19 0 -31 12t-12 31t12 31t31 12t31 -12t12 -31t-12 -31t-31 -12zM297 633v33h860v-33h-860zM727 248q-19 0 -31 12t-12 31t12 31t31 12t31 -12t12 -31t-12 -31t-31 -12z" />
    <glyph glyph-name="oslash" unicode="&#xf8;" horiz-adv-x="1298" 
d="M1176 1012l-134 -133q121 -146 121 -367q0 -238 -141 -387.5t-373 -149.5q-224 0 -368 144l-134 -133l-24 26l133 133q-121 146 -121 367q0 238 141 387.5t373 149.5q225 0 369 -144l131 131zM649 1016q-212 0 -344.5 -139t-132.5 -365q0 -207 113 -342l708 709
q-131 137 -344 137zM649 8q212 0 344.5 139t132.5 365q0 204 -110 342l-709 -709q131 -137 342 -137z" />
    <glyph glyph-name="ugrave" unicode="&#xf9;" horiz-adv-x="1224" 
d="M702 1198h-40l-263 318h45zM985 1024h35v-1024h-35v256q-37 -129 -149 -205t-271 -76q-368 0 -368 422v627h34v-621q0 -395 336 -395q185 0 301.5 111.5t116.5 304.5v600z" />
    <glyph glyph-name="uacute" unicode="&#xfa;" horiz-adv-x="1224" 
d="M819 1516l-262 -318h-41l258 318h45zM985 1024h35v-1024h-35v256q-37 -129 -149 -205t-271 -76q-368 0 -368 422v627h34v-621q0 -395 336 -395q185 0 301.5 111.5t116.5 304.5v600z" />
    <glyph glyph-name="ucircumflex" unicode="&#xfb;" horiz-adv-x="1224" 
d="M608 1489l-262 -291h-41l285 318h37l284 -318h-41zM985 1024h35v-1024h-35v256q-37 -129 -149 -205t-271 -76q-368 0 -368 422v627h34v-621q0 -395 336 -395q185 0 301.5 111.5t116.5 304.5v600z" />
    <glyph glyph-name="udieresis" unicode="&#xfc;" horiz-adv-x="1224" 
d="M399 1321q-19 0 -31 12t-12 31t12 31t31 12t31 -12t12 -31t-12 -31t-31 -12zM817 1321q-19 0 -31 12t-12 31t12 31t31 12t31 -12t12 -31t-12 -31t-31 -12zM985 1024h35v-1024h-35v256q-37 -129 -149 -205t-271 -76q-368 0 -368 422v627h34v-621q0 -395 336 -395
q185 0 301.5 111.5t116.5 304.5v600z" />
    <glyph glyph-name="yacute" unicode="&#xfd;" horiz-adv-x="1044" 
d="M731 1516l-262 -318h-41l258 318h45zM961 1024h38l-620 -1432h-39l172 398l-459 1034h39l440 -989z" />
    <glyph glyph-name="thorn" unicode="&#xfe;" horiz-adv-x="1343" 
d="M707 1049q226 0 365.5 -149.5t139.5 -387.5t-139.5 -387.5t-365.5 -149.5q-172 0 -295.5 90t-171.5 246v-721h-35v1909h35v-786q48 156 171.5 246t295.5 90zM707 8q204 0 336.5 140.5t132.5 363.5t-132.5 363.5t-336.5 140.5t-336.5 -140.5t-132.5 -363.5t132.5 -363.5
t336.5 -140.5z" />
    <glyph glyph-name="ydieresis" unicode="&#xff;" horiz-adv-x="1044" 
d="M311 1321q-19 0 -31 12t-12 31t12 31t31 12t31 -12t12 -31t-12 -31t-31 -12zM729 1321q-19 0 -31 12t-12 31t12 31t31 12t31 -12t12 -31t-12 -31t-31 -12zM961 1024h38l-620 -1432h-39l172 398l-459 1034h39l440 -989z" />
    <glyph glyph-name="Amacron" unicode="&#x100;" horiz-adv-x="1376" 
d="M981 1747v-35h-586v35h586zM1284 0l-194 455h-803l-195 -455h-39l615 1434h41l614 -1434h-39zM301 489h774l-387 902z" />
    <glyph glyph-name="amacron" unicode="&#x101;" horiz-adv-x="1130" 
d="M864 1337v-34h-585v34h585zM573 1049q174 0 267.5 -91.5t93.5 -259.5v-698h-35v264q-37 -130 -148 -205t-274 -75q-167 0 -260.5 79.5t-93.5 217.5q0 128 96 199t270 71h410v147q0 158 -84.5 238t-241.5 80q-247 0 -360 -189l-29 19q122 203 389 203zM477 16
q193 0 307.5 112.5t114.5 307.5v82h-410q-162 0 -245.5 -62.5t-83.5 -174.5q0 -126 83.5 -195.5t233.5 -69.5z" />
    <glyph glyph-name="Abreve" unicode="&#x102;" horiz-adv-x="1376" 
d="M688 1626q-131 0 -194.5 59.5t-63.5 180.5v2h35q0 -109 53 -159t170 -50t170 50t53 159h35v-2q0 -121 -63.5 -180.5t-194.5 -59.5zM1284 0l-194 455h-803l-195 -455h-39l615 1434h41l614 -1434h-39zM301 489h774l-387 902z" />
    <glyph glyph-name="abreve" unicode="&#x103;" horiz-adv-x="1130" 
d="M571 1217q-131 0 -194.5 59t-63.5 180v2h35q0 -109 53 -159t170 -50t170.5 50t53.5 159h34v-2q0 -121 -63.5 -180t-194.5 -59zM573 1049q174 0 267.5 -91.5t93.5 -259.5v-698h-35v264q-37 -130 -148 -205t-274 -75q-167 0 -260.5 79.5t-93.5 217.5q0 128 96 199t270 71
h410v147q0 158 -84.5 238t-241.5 80q-247 0 -360 -189l-29 19q122 203 389 203zM477 16q193 0 307.5 112.5t114.5 307.5v82h-410q-162 0 -245.5 -62.5t-83.5 -174.5q0 -126 83.5 -195.5t233.5 -69.5z" />
    <glyph glyph-name="Aogonek" unicode="&#x104;" horiz-adv-x="1376" 
d="M1116 -262q0 -71 49 -105t152 -34h6v-33h-6q-236 0 -236 172q0 152 201 268l-192 449h-803l-195 -455h-39l615 1434h41l614 -1434q-207 -120 -207 -262zM301 489h774l-387 902z" />
    <glyph glyph-name="aogonek" unicode="&#x105;" horiz-adv-x="1130" 
d="M934 0q-207 -120 -207 -262q0 -71 49 -105t152 -34h6v-33h-6q-236 0 -236 172q0 158 207 270v256q-37 -130 -148 -205t-274 -75q-167 0 -260.5 79.5t-93.5 217.5q0 128 96 199t270 71h410v147q0 158 -84.5 238t-241.5 80q-247 0 -360 -189l-29 19q122 203 389 203
q174 0 267.5 -91.5t93.5 -259.5v-698zM477 16q193 0 307.5 112.5t114.5 307.5v82h-410q-162 0 -245.5 -62.5t-83.5 -174.5q0 -126 83.5 -195.5t233.5 -69.5z" />
    <glyph glyph-name="Cacute" unicode="&#x106;" horiz-adv-x="1607" 
d="M776 1608l258 317h45l-262 -317h-41zM870 -25q-205 0 -367 94.5t-252.5 264t-90.5 383.5q0 161 53 298.5t146.5 235t225.5 152.5t285 55q213 0 376 -100.5t231 -270.5l-33 -14q-68 166 -223 258t-351 92q-143 0 -267 -51.5t-213 -143.5t-140 -224t-51 -287
q0 -206 87 -368t240 -250.5t344 -88.5q196 0 351 92t223 258l33 -14q-68 -170 -231 -270.5t-376 -100.5z" />
    <glyph glyph-name="cacute" unicode="&#x107;" horiz-adv-x="1173" 
d="M543 1198l258 318h45l-262 -318h-41zM641 -25q-235 0 -372.5 149.5t-137.5 387.5q0 240 138.5 388.5t369.5 148.5q152 0 262.5 -70t165.5 -215l-31 -14q-52 135 -154 200.5t-241 65.5q-212 0 -342.5 -138.5t-130.5 -365.5q0 -226 130 -365t343 -139q139 0 241 65.5
t154 200.5l31 -14q-55 -145 -165.5 -215t-260.5 -70z" />
    <glyph glyph-name="Ccircumflex" unicode="&#x108;" horiz-adv-x="1607" 
d="M868 1898l-262 -290h-41l285 317h37l284 -317h-41zM870 10q196 0 351 92t223 258l33 -14q-68 -170 -231 -270.5t-376 -100.5q-205 0 -367 94.5t-252.5 264t-90.5 383.5q0 161 53 298.5t146.5 235t225.5 152.5t285 55q213 0 376 -100.5t231 -270.5l-33 -14
q-68 166 -223 258t-351 92q-143 0 -267 -51.5t-213 -143.5t-140 -224t-51 -287q0 -206 87 -368t240 -250.5t344 -88.5z" />
    <glyph glyph-name="ccircumflex" unicode="&#x109;" horiz-adv-x="1173" 
d="M635 1489l-262 -291h-41l284 318h37l285 -318h-41zM641 8q139 0 241 65.5t154 200.5l31 -14q-55 -145 -165.5 -215t-260.5 -70q-235 0 -372.5 149.5t-137.5 387.5q0 240 138.5 388.5t369.5 148.5q152 0 262.5 -70t165.5 -215l-31 -14q-52 135 -154 200.5t-241 65.5
q-212 0 -342.5 -138.5t-130.5 -365.5q0 -226 130 -365t343 -139z" />
    <glyph glyph-name="Cdotaccent" unicode="&#x10a;" horiz-adv-x="1607" 
d="M868 1731q-19 0 -31 12t-12 31t12 31t31 12t31 -12t12 -31t-12 -31t-31 -12zM870 -25q-205 0 -367 94.5t-252.5 264t-90.5 383.5q0 161 53 298.5t146.5 235t225.5 152.5t285 55q213 0 376 -100.5t231 -270.5l-33 -14q-68 166 -223 258t-351 92q-143 0 -267 -51.5
t-213 -143.5t-140 -224t-51 -287q0 -206 87 -368t240 -250.5t344 -88.5q196 0 351 92t223 258l33 -14q-68 -170 -231 -270.5t-376 -100.5z" />
    <glyph glyph-name="cdotaccent" unicode="&#x10b;" horiz-adv-x="1173" 
d="M635 1321q-19 0 -31 12t-12 31t12 31t31 12t31 -12t12 -31t-12 -31t-31 -12zM641 -25q-235 0 -372.5 149.5t-137.5 387.5q0 240 138.5 388.5t369.5 148.5q152 0 262.5 -70t165.5 -215l-31 -14q-52 135 -154 200.5t-241 65.5q-212 0 -342.5 -138.5t-130.5 -365.5
q0 -226 130 -365t343 -139q139 0 241 65.5t154 200.5l31 -14q-55 -145 -165.5 -215t-260.5 -70z" />
    <glyph glyph-name="Ccaron" unicode="&#x10c;" horiz-adv-x="1607" 
d="M887 1608h-37l-285 317h41l262 -291l262 291h41zM870 10q196 0 351 92t223 258l33 -14q-68 -170 -231 -270.5t-376 -100.5q-205 0 -367 94.5t-252.5 264t-90.5 383.5q0 161 53 298.5t146.5 235t225.5 152.5t285 55q213 0 376 -100.5t231 -270.5l-33 -14q-68 166 -223 258
t-351 92q-143 0 -267 -51.5t-213 -143.5t-140 -224t-51 -287q0 -206 87 -368t240 -250.5t344 -88.5z" />
    <glyph glyph-name="ccaron" unicode="&#x10d;" horiz-adv-x="1173" 
d="M653 1198h-37l-284 318h41l262 -291l262 291h41zM641 8q139 0 241 65.5t154 200.5l31 -14q-55 -145 -165.5 -215t-260.5 -70q-235 0 -372.5 149.5t-137.5 387.5q0 240 138.5 388.5t369.5 148.5q152 0 262.5 -70t165.5 -215l-31 -14q-52 135 -154 200.5t-241 65.5
q-212 0 -342.5 -138.5t-130.5 -365.5q0 -226 130 -365t343 -139z" />
    <glyph glyph-name="Dcaron" unicode="&#x10e;" horiz-adv-x="1564" 
d="M739 1608h-37l-284 317h41l262 -291l262 291h41zM686 1434q217 0 378 -81.5t251 -244.5t90 -391t-90 -391t-251 -244.5t-378 -81.5h-432v1434h432zM686 35q312 0 496 176.5t184 505.5t-184 505.5t-496 176.5h-395v-1364h395z" />
    <glyph glyph-name="dcaron" unicode="&#x10f;" horiz-adv-x="1417" 
d="M1104 713v786h35v-1499h-35v311q-48 -156 -171.5 -246t-295.5 -90q-226 0 -366 150t-140 387t140 387t366 150q172 0 295.5 -90t171.5 -246zM1356 1499h37l-7 -383h-30v383zM637 8q204 0 336.5 140.5t132.5 363.5t-132.5 363.5t-336.5 140.5t-336.5 -140.5t-132.5 -363.5
t132.5 -363.5t336.5 -140.5z" />
    <glyph glyph-name="Dcroat" unicode="&#x110;" horiz-adv-x="1601" 
d="M715 1434q217 0 378 -81.5t251 -244.5t90 -391t-90 -391t-251 -244.5t-378 -81.5h-432v700h-234v33h234v701h432zM715 35q312 0 496 176.5t184 505.5t-184 505.5t-496 176.5h-396v-666h476v-33h-476v-665h396z" />
    <glyph glyph-name="dcroat" unicode="&#x111;" horiz-adv-x="1343" 
d="M1335 1288v-33h-196v-1255h-35v311q-48 -156 -171.5 -246t-295.5 -90q-226 0 -366 149t-140 384t140 383.5t366 148.5q172 0 295.5 -89.5t171.5 -245.5v550h-453v33h453v211h35v-211h196zM637 8q204 0 336.5 140t132.5 360t-132.5 360t-336.5 140t-336.5 -140
t-132.5 -360t132.5 -360t336.5 -140z" />
    <glyph glyph-name="Emacron" unicode="&#x112;" horiz-adv-x="1353" 
d="M989 1747v-35h-586v35h586zM291 35h891v-35h-928v1434h907v-35h-870v-658h833v-34h-833v-672z" />
    <glyph glyph-name="emacron" unicode="&#x113;" horiz-adv-x="1214" 
d="M920 1337v-34h-586v34h586zM1087 520h-919v-12q0 -230 130 -365t335 -135q133 0 240 58t167 161l29 -16q-63 -113 -176.5 -174.5t-259.5 -61.5q-226 0 -364 145.5t-138 387.5q0 246 140 393.5t356 147.5q204 0 334.5 -131.5t130.5 -344.5q0 -28 -5 -53zM627 1016
q-188 0 -316 -125t-141 -338h885v14q0 205 -120.5 327t-307.5 122z" />
    <glyph glyph-name="Ebreve" unicode="&#x114;" horiz-adv-x="1353" 
d="M696 1626q-131 0 -194.5 59.5t-63.5 180.5v2h35q0 -109 53 -159t170 -50t170.5 50t53.5 159h34v-2q0 -121 -63.5 -180.5t-194.5 -59.5zM291 35h891v-35h-928v1434h907v-35h-870v-658h833v-34h-833v-672z" />
    <glyph glyph-name="ebreve" unicode="&#x115;" horiz-adv-x="1214" 
d="M627 1217q-131 0 -194.5 59t-63.5 180v2h34q0 -109 53.5 -159t170.5 -50t170 50t53 159h35v-2q0 -121 -63.5 -180t-194.5 -59zM1087 520h-919v-12q0 -230 130 -365t335 -135q133 0 240 58t167 161l29 -16q-63 -113 -176.5 -174.5t-259.5 -61.5q-226 0 -364 145.5
t-138 387.5q0 246 140 393.5t356 147.5q204 0 334.5 -131.5t130.5 -344.5q0 -28 -5 -53zM627 1016q-188 0 -316 -125t-141 -338h885v14q0 205 -120.5 327t-307.5 122z" />
    <glyph glyph-name="Edotaccent" unicode="&#x116;" horiz-adv-x="1353" 
d="M696 1731q-19 0 -31 12t-12 31t12 31t31 12t31 -12t12 -31t-12 -31t-31 -12zM291 35h891v-35h-928v1434h907v-35h-870v-658h833v-34h-833v-672z" />
    <glyph glyph-name="edotaccent" unicode="&#x117;" horiz-adv-x="1214" 
d="M627 1321q-19 0 -31 12t-12 31t12 31t31 12t31 -12t12 -31t-12 -31t-31 -12zM1087 520h-919v-12q0 -230 130 -365t335 -135q133 0 240 58t167 161l29 -16q-63 -113 -176.5 -174.5t-259.5 -61.5q-226 0 -364 145.5t-138 387.5q0 246 140 393.5t356 147.5
q204 0 334.5 -131.5t130.5 -344.5q0 -28 -5 -53zM627 1016q-188 0 -316 -125t-141 -338h885v14q0 205 -120.5 327t-307.5 122z" />
    <glyph glyph-name="Eogonek" unicode="&#x118;" horiz-adv-x="1353" 
d="M1182 0q-207 -120 -207 -262q0 -71 49 -105t152 -34h6v-33h-6q-236 0 -236 172q0 150 190 262h-876v1434h907v-35h-870v-658h833v-34h-833v-672h891v-35z" />
    <glyph glyph-name="eogonek" unicode="&#x119;" horiz-adv-x="1214" 
d="M1087 520h-919v-12q0 -230 130 -365t335 -135q133 0 240 58t167 161l29 -16q-61 -110 -176 -174q-201 -117 -201 -258q0 -71 49 -105t152 -34h6v-33h-6q-236 0 -236 172q0 121 119 213q-76 -17 -143 -17q-226 0 -364 145.5t-138 387.5q0 246 140 393.5t356 147.5
q204 0 334.5 -131.5t130.5 -344.5q0 -28 -5 -53zM627 1016q-188 0 -316 -125t-141 -338h885v14q0 205 -120.5 327t-307.5 122z" />
    <glyph glyph-name="Ecaron" unicode="&#x11a;" horiz-adv-x="1353" 
d="M715 1608h-37l-285 317h41l262 -291l262 291h41zM291 35h891v-35h-928v1434h907v-35h-870v-658h833v-34h-833v-672z" />
    <glyph glyph-name="ecaron" unicode="&#x11b;" horiz-adv-x="1214" 
d="M645 1198h-37l-284 318h41l262 -291l262 291h41zM1087 520h-919v-12q0 -230 130 -365t335 -135q133 0 240 58t167 161l29 -16q-63 -113 -176.5 -174.5t-259.5 -61.5q-226 0 -364 145.5t-138 387.5q0 246 140 393.5t356 147.5q204 0 334.5 -131.5t130.5 -344.5
q0 -28 -5 -53zM627 1016q-188 0 -316 -125t-141 -338h885v14q0 205 -120.5 327t-307.5 122z" />
    <glyph glyph-name="Gcircumflex" unicode="&#x11c;" horiz-adv-x="1640" 
d="M868 1898l-262 -290h-41l285 317h37l284 -317h-41zM969 707h499v-514q-93 -105 -233 -161.5t-317 -56.5q-344 0 -551 203.5t-207 536.5q0 219 92 388.5t257 262t376 92.5q172 0 309.5 -62t222.5 -179l-31 -21q-78 108 -209.5 167.5t-291.5 59.5q-194 0 -349 -85
t-246 -247.5t-91 -375.5q0 -216 93.5 -377.5t254.5 -244.5t368 -83q162 0 298.5 52t218.5 143v467h-463v35z" />
    <glyph glyph-name="gcircumflex" unicode="&#x11d;" horiz-adv-x="1343" 
d="M666 1489l-263 -291h-41l285 318h37l285 -318h-41zM1104 1024h35v-934q0 -246 -136.5 -385t-377.5 -139q-150 0 -266.5 53.5t-186.5 147.5l27 22q66 -90 178 -140t248 -50q221 0 350 131t129 360v246q-48 -156 -171.5 -246t-295.5 -90q-225 0 -365.5 147.5t-140.5 376.5
t140.5 377t365.5 148q172 0 295.5 -90t171.5 -246v311zM637 33q203 0 336 138.5t133 352.5q0 215 -133 353.5t-336 138.5t-336 -138.5t-133 -353.5q0 -214 133 -352.5t336 -138.5z" />
    <glyph glyph-name="Gbreve" unicode="&#x11e;" horiz-adv-x="1640" 
d="M868 1626q-131 0 -194.5 59.5t-63.5 180.5v2h35q0 -109 53 -159t170 -50t170.5 50t53.5 159h34v-2q0 -121 -63.5 -180.5t-194.5 -59.5zM969 707h499v-514q-93 -105 -233 -161.5t-317 -56.5q-344 0 -551 203.5t-207 536.5q0 219 92 388.5t257 262t376 92.5
q172 0 309.5 -62t222.5 -179l-31 -21q-78 108 -209.5 167.5t-291.5 59.5q-194 0 -349 -85t-246 -247.5t-91 -375.5q0 -216 93.5 -377.5t254.5 -244.5t368 -83q162 0 298.5 52t218.5 143v467h-463v35z" />
    <glyph glyph-name="gbreve" unicode="&#x11f;" horiz-adv-x="1343" 
d="M666 1217q-131 0 -194.5 59t-63.5 180v2h34q0 -109 53.5 -159t170.5 -50t170 50t53 159h35v-2q0 -121 -63.5 -180t-194.5 -59zM1104 1024h35v-934q0 -246 -136.5 -385t-377.5 -139q-150 0 -266.5 53.5t-186.5 147.5l27 22q66 -90 178 -140t248 -50q221 0 350 131t129 360
v246q-48 -156 -171.5 -246t-295.5 -90q-225 0 -365.5 147.5t-140.5 376.5t140.5 377t365.5 148q172 0 295.5 -90t171.5 -246v311zM637 33q203 0 336 138.5t133 352.5q0 215 -133 353.5t-336 138.5t-336 -138.5t-133 -353.5q0 -214 133 -352.5t336 -138.5z" />
    <glyph glyph-name="Gdotaccent" unicode="&#x120;" horiz-adv-x="1640" 
d="M868 1731q-19 0 -31 12t-12 31t12 31t31 12t31 -12t12 -31t-12 -31t-31 -12zM969 707h499v-514q-93 -105 -233 -161.5t-317 -56.5q-344 0 -551 203.5t-207 536.5q0 219 92 388.5t257 262t376 92.5q172 0 309.5 -62t222.5 -179l-31 -21q-78 108 -209.5 167.5t-291.5 59.5
q-194 0 -349 -85t-246 -247.5t-91 -375.5q0 -216 93.5 -377.5t254.5 -244.5t368 -83q162 0 298.5 52t218.5 143v467h-463v35z" />
    <glyph glyph-name="gdotaccent" unicode="&#x121;" horiz-adv-x="1343" 
d="M666 1321q-19 0 -31 12t-12 31t12 31t31 12t31 -12t12 -31t-12 -31t-31 -12zM1104 1024h35v-934q0 -246 -136.5 -385t-377.5 -139q-150 0 -266.5 53.5t-186.5 147.5l27 22q66 -90 178 -140t248 -50q221 0 350 131t129 360v246q-48 -156 -171.5 -246t-295.5 -90
q-225 0 -365.5 147.5t-140.5 376.5t140.5 377t365.5 148q172 0 295.5 -90t171.5 -246v311zM637 33q203 0 336 138.5t133 352.5q0 215 -133 353.5t-336 138.5t-336 -138.5t-133 -353.5q0 -214 133 -352.5t336 -138.5z" />
    <glyph glyph-name="uni0122" unicode="&#x122;" horiz-adv-x="1640" 
d="M969 707h499v-514q-93 -105 -233 -161.5t-317 -56.5q-344 0 -551 203.5t-207 536.5q0 219 92 388.5t257 262t376 92.5q172 0 309.5 -62t222.5 -179l-31 -21q-78 108 -209.5 167.5t-291.5 59.5q-194 0 -349 -85t-246 -247.5t-91 -375.5q0 -216 93.5 -377.5t254.5 -244.5
t368 -83q162 0 298.5 52t218.5 143v467h-463v35zM793 -545l81 338h37l-88 -338h-30z" />
    <glyph glyph-name="uni0123" unicode="&#x123;" horiz-adv-x="1343" 
d="M766 1569l-82 -338h-37l88 338h31zM1104 1024h35v-934q0 -246 -136.5 -385t-377.5 -139q-150 0 -266.5 53.5t-186.5 147.5l27 22q66 -90 178 -140t248 -50q221 0 350 131t129 360v246q-48 -156 -171.5 -246t-295.5 -90q-225 0 -365.5 147.5t-140.5 376.5t140.5 377
t365.5 148q172 0 295.5 -90t171.5 -246v311zM637 33q203 0 336 138.5t133 352.5q0 215 -133 353.5t-336 138.5t-336 -138.5t-133 -353.5q0 -214 133 -352.5t336 -138.5z" />
    <glyph glyph-name="Hcircumflex" unicode="&#x124;" horiz-adv-x="1597" 
d="M799 1898l-262 -290h-41l284 317h37l285 -317h-41zM1307 1434h36v-1434h-36v721h-1016v-721h-37v1434h37v-678h1016v678z" />
    <glyph glyph-name="hcircumflex" unicode="&#x125;" horiz-adv-x="1232" 
d="M485 1673l-262 291l-262 -291h-41l285 318h37l284 -318h-41zM659 1049q187 0 282 -107.5t95 -320.5v-621h-35v621q0 395 -342 395q-187 0 -303 -111.5t-116 -304.5v-600h-35v1499h35v-731q37 129 147.5 205t271.5 76z" />
    <glyph glyph-name="Hbar" unicode="&#x126;" horiz-adv-x="1662" 
d="M1520 1102v-33h-144v-1069h-37v721h-1015v-721h-37v1069h-144v33h144v332h37v-332h1015v332h37v-332h144zM1339 756v313h-1015v-313h1015z" />
    <glyph glyph-name="hbar" unicode="&#x127;" horiz-adv-x="1232" 
d="M659 1040q187 0 282 -107.5t95 -320.5v-612h-35v612q0 396 -342 396q-187 0 -303 -111.5t-116 -304.5v-592h-35v1255h-197v33h197v211h35v-211h452v-33h-452v-495q37 129 147.5 204.5t271.5 75.5z" />
    <glyph glyph-name="Itilde" unicode="&#x128;" horiz-adv-x="552" 
d="M426 1667q-78 0 -166 88q-38 40 -68 56t-65 16q-48 0 -77.5 -40t-29.5 -108h-32q0 81 39.5 130t99.5 49q75 0 164 -89q41 -41 70 -56t65 -15q48 0 77 39.5t29 109.5h33q0 -83 -39.5 -131.5t-99.5 -48.5zM258 0v1434h37v-1434h-37z" />
    <glyph glyph-name="itilde" unicode="&#x129;" horiz-adv-x="448" 
d="M369 1257q-71 0 -160 89q-68 71 -127 71q-42 0 -61 -35t-19 -112h-33q0 178 113 178q70 0 158 -88q41 -41 69.5 -56.5t59.5 -15.5q42 0 61 35.5t19 114.5h32q0 -181 -112 -181zM207 0v1024h35v-1024h-35z" />
    <glyph glyph-name="Imacron" unicode="&#x12a;" horiz-adv-x="552" 
d="M-16 1712v35h585v-35h-585zM258 0v1434h37v-1434h-37z" />
    <glyph glyph-name="imacron" unicode="&#x12b;" horiz-adv-x="448" 
d="M-20 1303v34h491v-34h-491zM207 0v1024h35v-1024h-35z" />
    <glyph glyph-name="Ibreve" unicode="&#x12c;" horiz-adv-x="552" 
d="M276 1626q-131 0 -194.5 59.5t-63.5 180.5v2h35q0 -109 53 -159t170 -50t170.5 50t53.5 159h35v-2q0 -240 -259 -240zM258 0v1434h37v-1434h-37z" />
    <glyph glyph-name="ibreve" unicode="&#x12d;" horiz-adv-x="448" 
d="M225 1217q-125 0 -185 59t-60 180v2h34q0 -109 50.5 -159t160.5 -50t160.5 50t50.5 159h35v-2q0 -121 -60.5 -180t-185.5 -59zM207 0v1024h35v-1024h-35z" />
    <glyph glyph-name="Iogonek" unicode="&#x12e;" horiz-adv-x="552" 
d="M295 0q-207 -120 -207 -262q0 -71 49 -105t152 -34h6v-33h-6q-236 0 -236 172q0 156 205 270v1426h37v-1434z" />
    <glyph glyph-name="iogonek" unicode="&#x12f;" horiz-adv-x="448" 
d="M225 1407q19 0 31 -12t12 -31t-12 -31t-31 -12t-31 12t-12 31t12 31t31 12zM207 8v1016h35v-1024q-207 -120 -207 -262q0 -71 49 -105t152 -34h6v-33h-6q-236 0 -236 172q0 158 207 270z" />
    <glyph glyph-name="Idotaccent" unicode="&#x130;" horiz-adv-x="552" 
d="M276 1731q-19 0 -31 12t-12 31t12 31t31 12t31 -12t12 -31t-12 -31t-31 -12zM258 0v1434h37v-1434h-37z" />
    <glyph glyph-name="dotlessi" unicode="&#x131;" horiz-adv-x="448" 
d="M207 0v1024h35v-1024h-35z" />
    <glyph glyph-name="Jcircumflex" unicode="&#x134;" horiz-adv-x="1202" 
d="M969 1925l284 -317h-41l-262 290l-262 -290h-41l285 317h37zM932 516v918h37v-918q0 -259 -123.5 -400t-343.5 -141q-129 0 -241.5 51t-190.5 150l24 23q71 -91 178.5 -140t229.5 -49q198 0 314 129.5t116 376.5z" />
    <glyph glyph-name="jcircumflex" unicode="&#x135;" horiz-adv-x="448" 
d="M244 1516l256 -318h-41l-234 291l-233 -291h-41l256 318h37zM207 -188v1212h35v-1212q0 -119 -55.5 -183.5t-157.5 -64.5q-47 0 -90 14v33q43 -14 90 -14q85 0 131.5 56.5t46.5 158.5z" />
    <glyph glyph-name="uni0136" unicode="&#x136;" horiz-adv-x="1368" 
d="M676 801l653 -801h-45l-633 776l-360 -373v-403h-37v1434h37v-979l954 979h47zM596 -545l82 338h37l-88 -338h-31z" />
    <glyph glyph-name="uni0137" unicode="&#x137;" horiz-adv-x="1054" 
d="M543 580l487 -580h-45l-469 555l-276 -260v-295h-35v1497h35v-1157l727 684h49zM442 -545l82 338h37l-88 -338h-31z" />
    <glyph glyph-name="Lacute" unicode="&#x139;" horiz-adv-x="1220" 
d="M438 1925h45l-262 -317h-41zM291 35h844v-35h-881v1434h37v-1399z" />
    <glyph glyph-name="lacute" unicode="&#x13a;" horiz-adv-x="444" 
d="M131 1673l258 318h45l-262 -318h-41zM205 0v1499h35v-1499h-35z" />
    <glyph glyph-name="uni013B" unicode="&#x13b;" horiz-adv-x="1220" 
d="M291 35h844v-35h-881v1434h37v-1399zM571 -545l82 338h37l-88 -338h-31z" />
    <glyph glyph-name="uni013C" unicode="&#x13c;" horiz-adv-x="444" 
d="M205 0v1499h35v-1499h-35zM123 -545l82 338h37l-88 -338h-31z" />
    <glyph glyph-name="Lcaron" unicode="&#x13d;" horiz-adv-x="1220" 
d="M696 1458l-6 -383h-31v383h37zM291 35h844v-35h-881v1434h37v-1399z" />
    <glyph glyph-name="lcaron" unicode="&#x13e;" horiz-adv-x="538" 
d="M205 0v1499h35v-1499h-35zM457 1116v383h37l-7 -383h-30z" />
    <glyph glyph-name="Ldot" unicode="&#x13f;" horiz-adv-x="1232" 
d="M291 35h844v-35h-881v1434h37v-1399zM780 692q-19 0 -31 12t-12 31t12 31t31 12t31 -12t12 -31t-12 -31t-31 -12z" />
    <glyph glyph-name="ldot" unicode="&#x140;" horiz-adv-x="616" 
d="M205 0v1499h35v-1499h-35zM508 692q-19 0 -31 12t-12 31t12 31t31 12t31 -12t12 -31t-12 -31t-31 -12z" />
    <glyph glyph-name="Lslash" unicode="&#x141;" horiz-adv-x="1245" 
d="M315 35h844v-35h-880v567l-267 -137v37l267 137v830h36v-809l615 317v-37l-615 -317v-553z" />
    <glyph glyph-name="lslash" unicode="&#x142;" horiz-adv-x="606" 
d="M573 954v-36l-251 -138v-780h-35v762l-254 -137v37l254 137v700h35v-682z" />
    <glyph glyph-name="Nacute" unicode="&#x143;" horiz-adv-x="1617" 
d="M1020 1925l-262 -317h-41l258 317h45zM1327 1434h37v-1434h-41l-1032 1378v-1378h-37v1434h41l1032 -1379v1379z" />
    <glyph glyph-name="nacute" unicode="&#x144;" horiz-adv-x="1232" 
d="M831 1516l-262 -318h-41l258 318h45zM659 1049q187 0 282 -107.5t95 -320.5v-621h-35v621q0 395 -342 395q-187 0 -303 -111.5t-116 -304.5v-600h-35v1024h35v-256q37 129 147.5 205t271.5 76z" />
    <glyph glyph-name="uni0145" unicode="&#x145;" horiz-adv-x="1617" 
d="M1327 1434h37v-1434h-41l-1032 1378v-1378h-37v1434h41l1032 -1379v1379zM709 -545l82 338h36l-88 -338h-30z" />
    <glyph glyph-name="uni0146" unicode="&#x146;" horiz-adv-x="1232" 
d="M659 1049q187 0 282 -107.5t95 -320.5v-621h-35v621q0 395 -342 395q-187 0 -303 -111.5t-116 -304.5v-600h-35v1024h35v-256q37 129 147.5 205t271.5 76zM516 -545l82 338h37l-88 -338h-31z" />
    <glyph glyph-name="Ncaron" unicode="&#x147;" horiz-adv-x="1617" 
d="M827 1608h-36l-285 317h41l262 -291l262 291h41zM1327 1434h37v-1434h-41l-1032 1378v-1378h-37v1434h41l1032 -1379v1379z" />
    <glyph glyph-name="ncaron" unicode="&#x148;" horiz-adv-x="1232" 
d="M639 1198h-37l-285 318h41l263 -291l262 291h41zM659 1049q187 0 282 -107.5t95 -320.5v-621h-35v621q0 395 -342 395q-187 0 -303 -111.5t-116 -304.5v-600h-35v1024h35v-256q37 129 147.5 205t271.5 76z" />
    <glyph glyph-name="Eng" unicode="&#x14a;" horiz-adv-x="1617" 
d="M1327 1434h37v-1540q0 -108 -55.5 -165t-157.5 -57h-90v35h90q85 0 130.5 48t45.5 139v108l-1036 1376v-1378h-37v1434h41l1032 -1371v1371z" />
    <glyph glyph-name="eng" unicode="&#x14b;" horiz-adv-x="1232" 
d="M659 1049q187 0 282 -107.5t95 -320.5v-701q0 -119 -55.5 -183.5t-157.5 -64.5q-43 0 -90 15v32q43 -14 90 -14q85 0 131.5 56.5t46.5 158.5v701q0 395 -342 395q-187 0 -303 -111.5t-116 -304.5v-600h-35v1024h35v-256q37 129 147.5 205t271.5 76z" />
    <glyph glyph-name="Omacron" unicode="&#x14c;" horiz-adv-x="1753" 
d="M584 1712v35h585v-35h-585zM877 -25q-151 0 -284.5 56.5t-228 155t-149.5 236t-55 294.5t55 294.5t149.5 235.5t228 154.5t284.5 56.5t284 -56.5t228 -154.5t149.5 -235.5t54.5 -294.5q0 -209 -93 -379t-257 -266.5t-366 -96.5zM877 10q190 0 345 90.5t243.5 252.5
t88.5 364t-88.5 363.5t-243.5 252t-345 90.5q-143 0 -268.5 -53t-215.5 -145.5t-142 -224.5t-52 -283q0 -202 89 -364t244 -252.5t345 -90.5z" />
    <glyph glyph-name="omacron" unicode="&#x14d;" horiz-adv-x="1290" 
d="M352 1303v34h586v-34h-586zM645 -25q-232 0 -373 149.5t-141 387.5t141 387.5t373 149.5t373 -149.5t141 -387.5t-141 -387.5t-373 -149.5zM645 8q212 0 344.5 139t132.5 365t-132.5 365t-344.5 139t-344.5 -139t-132.5 -365t132.5 -365t344.5 -139z" />
    <glyph glyph-name="Obreve" unicode="&#x14e;" horiz-adv-x="1753" 
d="M877 1626q-259 0 -259 240v2h35q0 -109 53.5 -159t170.5 -50t170 50t53 159h35v-2q0 -121 -63.5 -180.5t-194.5 -59.5zM877 -25q-151 0 -284.5 56.5t-228 155t-149.5 236t-55 294.5t55 294.5t149.5 235.5t228 154.5t284.5 56.5t284 -56.5t228 -154.5t149.5 -235.5
t54.5 -294.5q0 -209 -93 -379t-257 -266.5t-366 -96.5zM877 10q190 0 345 90.5t243.5 252.5t88.5 364t-88.5 363.5t-243.5 252t-345 90.5q-143 0 -268.5 -53t-215.5 -145.5t-142 -224.5t-52 -283q0 -202 89 -364t244 -252.5t345 -90.5z" />
    <glyph glyph-name="obreve" unicode="&#x14f;" horiz-adv-x="1290" 
d="M645 1217q-131 0 -194.5 59t-63.5 180v2h35q0 -109 53 -159t170 -50t170 50t53 159h35v-2q0 -121 -63.5 -180t-194.5 -59zM645 -25q-232 0 -373 149.5t-141 387.5t141 387.5t373 149.5t373 -149.5t141 -387.5t-141 -387.5t-373 -149.5zM645 8q212 0 344.5 139t132.5 365
t-132.5 365t-344.5 139t-344.5 -139t-132.5 -365t132.5 -365t344.5 -139z" />
    <glyph glyph-name="Ohungarumlaut" unicode="&#x150;" horiz-adv-x="1753" 
d="M623 1608l260 317h41l-260 -317h-41zM963 1608l260 317h41l-260 -317h-41zM877 -25q-151 0 -284.5 56.5t-228 155t-149.5 236t-55 294.5t55 294.5t149.5 235.5t228 154.5t284.5 56.5t284 -56.5t228 -154.5t149.5 -235.5t54.5 -294.5q0 -209 -93 -379t-257 -266.5
t-366 -96.5zM877 10q190 0 345 90.5t243.5 252.5t88.5 364t-88.5 363.5t-243.5 252t-345 90.5q-143 0 -268.5 -53t-215.5 -145.5t-142 -224.5t-52 -283q0 -202 89 -364t244 -252.5t345 -90.5z" />
    <glyph glyph-name="ohungarumlaut" unicode="&#x151;" horiz-adv-x="1290" 
d="M391 1198l260 318h41l-260 -318h-41zM731 1198l260 318h41l-260 -318h-41zM645 -25q-232 0 -373 149.5t-141 387.5t141 387.5t373 149.5t373 -149.5t141 -387.5t-141 -387.5t-373 -149.5zM645 8q212 0 344.5 139t132.5 365t-132.5 365t-344.5 139t-344.5 -139
t-132.5 -365t132.5 -365t344.5 -139z" />
    <glyph glyph-name="OE" unicode="&#x152;" horiz-adv-x="2301" 
d="M1239 35h891v-35h-1253q-203 0 -366.5 90t-257 254.5t-93.5 372.5t93.5 372.5t257 254.5t366.5 90h1232v-35h-870v-658h834v-34h-834v-672zM877 35h325v1364h-325q-143 0 -268 -49.5t-215.5 -137.5t-142.5 -216t-52 -279t52 -279t142.5 -216t215.5 -137.5t268 -49.5z" />
    <glyph glyph-name="oe" unicode="&#x153;" horiz-adv-x="2197" 
d="M2071 520h-920v-12q0 -230 130 -365t335 -135q133 0 240 58t167 161l29 -16q-63 -113 -176.5 -174.5t-259.5 -61.5q-188 0 -316.5 102t-166.5 281q-42 -175 -173 -279t-319 -104q-229 0 -369.5 149.5t-140.5 387.5t140.5 387.5t369.5 149.5q190 0 321 -105t171 -282
q41 180 170 283.5t307 103.5q204 0 334.5 -131.5t130.5 -344.5q0 -33 -4 -53zM641 8q207 0 340 139.5t133 364.5t-133 364.5t-340 139.5t-340 -139.5t-133 -364.5t133 -364.5t340 -139.5zM1610 1016q-188 0 -316 -125t-141 -338h885v14q0 205 -120.5 327t-307.5 122z" />
    <glyph glyph-name="Racute" unicode="&#x154;" horiz-adv-x="1429" 
d="M913 1925l-262 -317h-41l258 317h45zM1239 0l-524 627h-424v-627h-37v1434h537q225 0 351 -109t126 -295t-126 -294.5t-351 -108.5h-29l524 -627h-47zM291 1399v-737h500q207 0 322.5 96t115.5 272t-115.5 272.5t-322.5 96.5h-500z" />
    <glyph glyph-name="racute" unicode="&#x155;" horiz-adv-x="743" 
d="M600 1516l-262 -318h-41l258 318h45zM616 1034q30 0 62 -4v-35q-32 4 -60 4q-165 0 -271.5 -113.5t-106.5 -314.5v-571h-35v1024h35v-268q33 127 137 202.5t239 75.5z" />
    <glyph glyph-name="uni0156" unicode="&#x156;" horiz-adv-x="1429" 
d="M762 627l524 -627h-47l-524 627h-424v-627h-37v1434h537q225 0 351 -109t126 -295t-126 -294.5t-351 -108.5h-29zM291 1399v-737h500q207 0 322.5 96t115.5 272t-115.5 272.5t-322.5 96.5h-500zM623 -545l82 338h36l-88 -338h-30z" />
    <glyph glyph-name="uni0157" unicode="&#x157;" horiz-adv-x="743" 
d="M616 1034q30 0 62 -4v-35q-32 4 -60 4q-165 0 -271.5 -113.5t-106.5 -314.5v-571h-35v1024h35v-268q33 127 137 202.5t239 75.5zM123 -545l82 338h37l-88 -338h-31z" />
    <glyph glyph-name="Rcaron" unicode="&#x158;" horiz-adv-x="1429" 
d="M721 1608h-37l-285 317h41l262 -291l263 291h41zM1239 0l-524 627h-424v-627h-37v1434h537q225 0 351 -109t126 -295t-126 -294.5t-351 -108.5h-29l524 -627h-47zM291 1399v-737h500q207 0 322.5 96t115.5 272t-115.5 272.5t-322.5 96.5h-500z" />
    <glyph glyph-name="rcaron" unicode="&#x159;" horiz-adv-x="743" 
d="M408 1198h-37l-285 318h41l262 -291l262 291h41zM240 756q33 127 137 202.5t239 75.5q30 0 62 -4v-35q-32 4 -60 4q-165 0 -271.5 -113.5t-106.5 -314.5v-571h-35v1024h35v-268z" />
    <glyph glyph-name="Sacute" unicode="&#x15a;" horiz-adv-x="1255" 
d="M537 1608l258 317h45l-262 -317h-41zM653 -25q-202 0 -339.5 86.5t-198.5 247.5l30 13q130 -312 508 -312q212 0 329.5 94.5t117.5 257.5q0 124 -82.5 200t-278.5 122l-188 45q-211 51 -303 133.5t-92 220.5q0 171 124.5 273t346.5 102q184 0 310 -70t179 -200l-31 -14
q-107 249 -458 249q-207 0 -320.5 -88.5t-113.5 -251.5q0 -123 80 -196t286 -123l197 -47q206 -50 293.5 -135t87.5 -220q0 -179 -129.5 -283t-354.5 -104z" />
    <glyph glyph-name="sacute" unicode="&#x15b;" horiz-adv-x="1005" 
d="M416 1198l258 318h45l-262 -318h-41zM524 -25q-149 0 -260.5 56.5t-161.5 154.5l29 17q52 -92 154 -143.5t239 -51.5q159 0 244.5 68.5t85.5 181.5q0 85 -55.5 136t-188.5 83l-221 53q-128 30 -187 90.5t-59 155.5q0 128 97.5 200.5t271.5 72.5q133 0 228 -45t139 -130
l-29 -16q-90 158 -338 158q-162 0 -247 -63t-85 -179q0 -86 54 -135.5t186 -81.5l221 -53q133 -31 191.5 -91.5t58.5 -154.5q0 -129 -96 -206t-271 -77z" />
    <glyph glyph-name="Scircumflex" unicode="&#x15c;" horiz-adv-x="1255" 
d="M629 1898l-262 -290h-41l284 317h37l285 -317h-41zM756 717q206 -50 293.5 -135t87.5 -220q0 -179 -129.5 -283t-354.5 -104q-202 0 -339.5 86.5t-198.5 247.5l30 13q130 -312 508 -312q212 0 329.5 94.5t117.5 257.5q0 124 -82.5 200t-278.5 122l-188 45
q-211 51 -303 133.5t-92 220.5q0 171 124.5 273t346.5 102q184 0 310 -70t179 -200l-31 -14q-107 249 -458 249q-207 0 -320.5 -88.5t-113.5 -251.5q0 -123 80 -196t286 -123z" />
    <glyph glyph-name="scircumflex" unicode="&#x15d;" horiz-adv-x="1005" 
d="M508 1489l-262 -291h-41l284 318h37l285 -318h-41zM641 504q133 -31 191.5 -91.5t58.5 -154.5q0 -129 -96 -206t-271 -77q-149 0 -260.5 56.5t-161.5 154.5l29 17q52 -92 154 -143.5t239 -51.5q159 0 244.5 68.5t85.5 181.5q0 85 -55.5 136t-188.5 83l-221 53
q-128 30 -187 90.5t-59 155.5q0 128 97.5 200.5t271.5 72.5q133 0 228 -45t139 -130l-29 -16q-90 158 -338 158q-162 0 -247 -63t-85 -179q0 -86 54 -135.5t186 -81.5z" />
    <glyph glyph-name="Scedilla" unicode="&#x15e;" horiz-adv-x="1255" 
d="M1137 362q0 -175 -123.5 -279t-341.5 -108l-123 -374h-35l123 374q-196 3 -329.5 89.5t-192.5 244.5l30 13q130 -312 508 -312q212 0 329.5 94.5t117.5 257.5q0 124 -82.5 200t-278.5 122l-188 45q-211 51 -303 133.5t-92 220.5q0 171 124.5 273t346.5 102q184 0 310 -70
t179 -200l-31 -14q-107 249 -458 249q-207 0 -320.5 -88.5t-113.5 -251.5q0 -123 80 -196t286 -123l197 -47q206 -50 293.5 -135t87.5 -220z" />
    <glyph glyph-name="scedilla" unicode="&#x15f;" horiz-adv-x="1005" 
d="M891 258q0 -127 -95 -204.5t-266 -78.5l-122 -374h-35l123 374q-139 6 -243.5 62t-150.5 149l29 17q52 -92 154 -143.5t239 -51.5q159 0 244.5 68.5t85.5 181.5q0 85 -55.5 136t-188.5 83l-221 53q-128 30 -187 90.5t-59 155.5q0 128 97.5 200.5t271.5 72.5
q133 0 228 -45t139 -130l-29 -16q-90 158 -338 158q-162 0 -247 -63t-85 -179q0 -86 54 -135.5t186 -81.5l221 -53q133 -31 191.5 -91.5t58.5 -154.5z" />
    <glyph glyph-name="Scaron" unicode="&#x160;" horiz-adv-x="1255" 
d="M647 1608h-37l-284 317h41l262 -291l262 291h41zM756 717q206 -50 293.5 -135t87.5 -220q0 -179 -129.5 -283t-354.5 -104q-202 0 -339.5 86.5t-198.5 247.5l30 13q130 -312 508 -312q212 0 329.5 94.5t117.5 257.5q0 124 -82.5 200t-278.5 122l-188 45
q-211 51 -303 133.5t-92 220.5q0 171 124.5 273t346.5 102q184 0 310 -70t179 -200l-31 -14q-107 249 -458 249q-207 0 -320.5 -88.5t-113.5 -251.5q0 -123 80 -196t286 -123z" />
    <glyph glyph-name="scaron" unicode="&#x161;" horiz-adv-x="1005" 
d="M526 1198h-37l-284 318h41l262 -291l262 291h41zM641 504q133 -31 191.5 -91.5t58.5 -154.5q0 -129 -96 -206t-271 -77q-149 0 -260.5 56.5t-161.5 154.5l29 17q52 -92 154 -143.5t239 -51.5q159 0 244.5 68.5t85.5 181.5q0 85 -55.5 136t-188.5 83l-221 53
q-128 30 -187 90.5t-59 155.5q0 128 97.5 200.5t271.5 72.5q133 0 228 -45t139 -130l-29 -16q-90 158 -338 158q-162 0 -247 -63t-85 -179q0 -86 54 -135.5t186 -81.5z" />
    <glyph glyph-name="uni0162" unicode="&#x162;" horiz-adv-x="1241" 
d="M602 0v1399h-541v35h1119v-35h-541v-1399h-37zM510 -545l82 338h37l-88 -338h-31z" />
    <glyph glyph-name="uni0163" unicode="&#x163;" horiz-adv-x="780" 
d="M549 -16q-256 0 -256 237v770h-240v33h240v311h35v-311h370v-33h-370v-770q0 -205 221 -205q70 0 153 21v-31q-76 -22 -153 -22zM379 -545l82 338h37l-88 -338h-31z" />
    <glyph glyph-name="Tcaron" unicode="&#x164;" horiz-adv-x="1241" 
d="M639 1608h-37l-285 317h41l263 -291l262 291h41zM61 1434h1119v-35h-541v-1399h-37v1399h-541v35z" />
    <glyph glyph-name="tcaron" unicode="&#x165;" horiz-adv-x="780" 
d="M553 1217v382h37l-6 -382h-31zM549 -16q-256 0 -256 237v770h-240v33h240v311h35v-311h370v-33h-370v-770q0 -205 221 -205q70 0 153 21v-31q-76 -22 -153 -22z" />
    <glyph glyph-name="Tbar" unicode="&#x166;" horiz-adv-x="1241" 
d="M1180 1399h-541v-643h354v-33h-354v-723h-37v723h-354v33h354v643h-541v35h1119v-35z" />
    <glyph glyph-name="tbar" unicode="&#x167;" horiz-adv-x="780" 
d="M549 16q70 0 153 21v-31q-76 -22 -153 -22q-256 0 -256 237v324h-219v33h219v413h-240v33h240v311h35v-311h370v-33h-370v-413h325v-33h-325v-324q0 -205 221 -205z" />
    <glyph glyph-name="Utilde" unicode="&#x168;" horiz-adv-x="1568" 
d="M934 1667q-78 0 -166 88q-38 40 -68 56t-65 16q-48 0 -77.5 -40t-29.5 -108h-32q0 81 39.5 130t99.5 49q75 0 164 -89q41 -41 70 -56t65 -15q48 0 77 39.5t29 109.5h33q0 -83 -39.5 -131.5t-99.5 -48.5zM784 -25q-252 0 -401.5 143.5t-149.5 395.5v920h37v-920
q0 -234 139.5 -369t374.5 -135t374.5 135t139.5 369v920h37v-920q0 -252 -149.5 -395.5t-401.5 -143.5z" />
    <glyph glyph-name="utilde" unicode="&#x169;" horiz-adv-x="1224" 
d="M459 1417q-48 0 -77.5 -39.5t-29.5 -107.5h-33q0 81 40 129.5t100 48.5q76 0 164 -88q41 -41 70.5 -56.5t64.5 -15.5q48 0 77 40t29 110h33q0 -83 -39.5 -132t-99.5 -49q-77 0 -166 89q-38 39 -67.5 55t-65.5 16zM985 1024h35v-1024h-35v256q-37 -129 -149 -205t-271 -76
q-368 0 -368 422v627h34v-621q0 -395 336 -395q185 0 301.5 111.5t116.5 304.5v600z" />
    <glyph glyph-name="Umacron" unicode="&#x16a;" horiz-adv-x="1568" 
d="M492 1712v35h585v-35h-585zM784 -25q-252 0 -401.5 143.5t-149.5 395.5v920h37v-920q0 -234 139.5 -369t374.5 -135t374.5 135t139.5 369v920h37v-920q0 -252 -149.5 -395.5t-401.5 -143.5z" />
    <glyph glyph-name="umacron" unicode="&#x16b;" horiz-adv-x="1224" 
d="M901 1337v-34h-586v34h586zM985 1024h35v-1024h-35v256q-37 -129 -149 -205t-271 -76q-368 0 -368 422v627h34v-621q0 -395 336 -395q185 0 301.5 111.5t116.5 304.5v600z" />
    <glyph glyph-name="Ubreve" unicode="&#x16c;" horiz-adv-x="1568" 
d="M784 1626q-131 0 -194.5 59.5t-63.5 180.5v2h35q0 -109 53 -159t170 -50t170.5 50t53.5 159h34v-2q0 -121 -63.5 -180.5t-194.5 -59.5zM784 -25q-252 0 -401.5 143.5t-149.5 395.5v920h37v-920q0 -234 139.5 -369t374.5 -135t374.5 135t139.5 369v920h37v-920
q0 -252 -149.5 -395.5t-401.5 -143.5z" />
    <glyph glyph-name="ubreve" unicode="&#x16d;" horiz-adv-x="1224" 
d="M608 1217q-131 0 -194.5 59t-63.5 180v2h35q0 -109 53 -159t170 -50t170 50t53 159h35v-2q0 -121 -63.5 -180t-194.5 -59zM985 1024h35v-1024h-35v256q-37 -129 -149 -205t-271 -76q-368 0 -368 422v627h34v-621q0 -395 336 -395q185 0 301.5 111.5t116.5 304.5v600z" />
    <glyph glyph-name="Uring" unicode="&#x16e;" horiz-adv-x="1568" 
d="M784 1618q-90 0 -149.5 58t-59.5 145t59.5 144.5t149.5 57.5t149.5 -57.5t59.5 -144.5t-59.5 -145t-149.5 -58zM784 1651q78 0 126 47.5t48 122.5t-48 122.5t-126 47.5t-126 -47.5t-48 -122.5t48 -122.5t126 -47.5zM784 -25q-252 0 -401.5 143.5t-149.5 395.5v920h37
v-920q0 -234 139.5 -369t374.5 -135t374.5 135t139.5 369v920h37v-920q0 -252 -149.5 -395.5t-401.5 -143.5z" />
    <glyph glyph-name="uring" unicode="&#x16f;" horiz-adv-x="1224" 
d="M608 1208q-90 0 -149.5 58t-59.5 145t59.5 145t149.5 58t149.5 -58t59.5 -145t-59.5 -145t-149.5 -58zM608 1581q-78 0 -126 -47.5t-48 -122.5t48 -122.5t126 -47.5t126 47.5t48 122.5t-48 122.5t-126 47.5zM985 1024h35v-1024h-35v256q-37 -129 -149 -205t-271 -76
q-368 0 -368 422v627h34v-621q0 -395 336 -395q185 0 301.5 111.5t116.5 304.5v600z" />
    <glyph glyph-name="Uhungarumlaut" unicode="&#x170;" horiz-adv-x="1568" 
d="M530 1608l261 317h40l-260 -317h-41zM870 1608l260 317h41l-260 -317h-41zM784 -25q-252 0 -401.5 143.5t-149.5 395.5v920h37v-920q0 -234 139.5 -369t374.5 -135t374.5 135t139.5 369v920h37v-920q0 -252 -149.5 -395.5t-401.5 -143.5z" />
    <glyph glyph-name="uhungarumlaut" unicode="&#x171;" horiz-adv-x="1224" 
d="M655 1516l-260 -318h-41l260 318h41zM995 1516l-260 -318h-41l260 318h41zM985 1024h35v-1024h-35v256q-37 -129 -149 -205t-271 -76q-368 0 -368 422v627h34v-621q0 -395 336 -395q185 0 301.5 111.5t116.5 304.5v600z" />
    <glyph glyph-name="Uogonek" unicode="&#x172;" horiz-adv-x="1568" 
d="M1298 1434h37v-920q0 -188 -85 -317.5t-238 -184.5q-207 -120 -207 -262q0 -71 49 -105t152 -34h6v-33h-6q-236 0 -236 172q0 134 152 238q-70 -13 -138 -13q-252 0 -401.5 143.5t-149.5 395.5v920h37v-920q0 -234 139.5 -369t374.5 -135t374.5 135t139.5 369v920z" />
    <glyph glyph-name="uogonek" unicode="&#x173;" horiz-adv-x="1224" 
d="M1020 0q-207 -120 -207 -262q0 -71 49 -105t152 -34h6v-33h-6q-236 0 -236 172q0 158 207 270v248q-37 -129 -149 -205t-271 -76q-368 0 -368 422v627h34v-621q0 -395 336 -395q185 0 301.5 111.5t116.5 304.5v600h35v-1024z" />
    <glyph glyph-name="Wcircumflex" unicode="&#x174;" horiz-adv-x="2070" 
d="M1036 1898l-262 -290h-41l285 317h37l284 -317h-41zM1962 1434h39l-463 -1434h-43l-459 1380l-461 -1380h-43l-462 1434h39l446 -1381l459 1381h43l459 -1381z" />
    <glyph glyph-name="wcircumflex" unicode="&#x175;" horiz-adv-x="1652" 
d="M827 1489l-262 -291h-41l285 318h37l284 -318h-40zM1559 1024h36l-370 -1024h-39l-359 977l-360 -977h-39l-371 1024h37l355 -977l358 977h39l358 -977z" />
    <glyph glyph-name="Ycircumflex" unicode="&#x176;" horiz-adv-x="1241" 
d="M621 1898l-263 -290h-41l285 317h37l285 -317h-41zM1174 1434h43l-578 -807v-627h-37v627l-577 807h43l553 -772z" />
    <glyph glyph-name="ycircumflex" unicode="&#x177;" horiz-adv-x="1044" 
d="M520 1489l-262 -291h-41l285 318h37l284 -318h-41zM961 1024h38l-620 -1432h-39l172 398l-459 1034h39l440 -989z" />
    <glyph glyph-name="Ydieresis" unicode="&#x178;" horiz-adv-x="1241" 
d="M412 1731q-19 0 -31 12t-12 31t12 31t31 12t31 -12t12 -31t-12 -31t-31 -12zM829 1731q-19 0 -31 12t-12 31t12 31t31 12t31 -12t12 -31t-12 -31t-31 -12zM1174 1434h43l-578 -807v-627h-37v627l-577 807h43l553 -772z" />
    <glyph glyph-name="Zacute" unicode="&#x179;" horiz-adv-x="1228" 
d="M834 1925l-263 -317h-41l258 317h46zM152 35h974v-35h-1024v31l963 1368h-942v35h991v-31z" />
    <glyph glyph-name="zacute" unicode="&#x17a;" horiz-adv-x="987" 
d="M709 1516l-263 -318h-40l258 318h45zM156 33h716v-33h-761v27l708 964h-688v33h733v-27z" />
    <glyph glyph-name="Zdotaccent" unicode="&#x17b;" horiz-adv-x="1228" 
d="M623 1731q-19 0 -31 12t-12 31t12 31t31 12t31 -12t12 -31t-12 -31t-31 -12zM152 35h974v-35h-1024v31l963 1368h-942v35h991v-31z" />
    <glyph glyph-name="zdotaccent" unicode="&#x17c;" horiz-adv-x="987" 
d="M498 1321q-19 0 -31 12t-12 31t12 31t31 12t31 -12t12 -31t-12 -31t-31 -12zM156 33h716v-33h-761v27l708 964h-688v33h733v-27z" />
    <glyph glyph-name="Zcaron" unicode="&#x17d;" horiz-adv-x="1228" 
d="M641 1608h-37l-285 317h41l263 -291l262 291h41zM152 35h974v-35h-1024v31l963 1368h-942v35h991v-31z" />
    <glyph glyph-name="zcaron" unicode="&#x17e;" horiz-adv-x="987" 
d="M516 1198h-37l-284 318h41l262 -291l262 291h41zM156 33h716v-33h-761v27l708 964h-688v33h733v-27z" />
    <glyph glyph-name="florin" unicode="&#x192;" horiz-adv-x="1024" 
d="M866 1401q-106 0 -167 -55.5t-83 -169.5l-67 -357h362v-33h-368l-154 -815q-26 -136 -94.5 -197t-190.5 -61h-65v33h65q105 0 165.5 55t82.5 170l154 815h-352v33h358l68 357q26 136 95 197t191 61h66v-33h-66z" />
    <glyph glyph-name="uni01CD" unicode="&#x1cd;" horiz-adv-x="1376" 
d="M707 1608h-37l-285 317h41l262 -291l262 291h41zM1284 0l-194 455h-803l-195 -455h-39l615 1434h41l614 -1434h-39zM301 489h774l-387 902z" />
    <glyph glyph-name="uni01CE" unicode="&#x1ce;" horiz-adv-x="1130" 
d="M590 1198h-37l-285 318h41l262 -291l263 291h40zM573 1049q174 0 267.5 -91.5t93.5 -259.5v-698h-35v264q-37 -130 -148 -205t-274 -75q-167 0 -260.5 79.5t-93.5 217.5q0 128 96 199t270 71h410v147q0 158 -84.5 238t-241.5 80q-247 0 -360 -189l-29 19q122 203 389 203
zM477 16q193 0 307.5 112.5t114.5 307.5v82h-410q-162 0 -245.5 -62.5t-83.5 -174.5q0 -126 83.5 -195.5t233.5 -69.5z" />
    <glyph glyph-name="uni01E2" unicode="&#x1e2;" horiz-adv-x="2197" 
d="M1751 1747v-35h-586v35h586zM1135 35h890v-35h-927v424h-709l-305 -424h-43l1034 1434h930v-35h-870v-658h837v-34h-837v-672zM416 459h682v946z" />
    <glyph glyph-name="uni01E3" unicode="&#x1e3;" horiz-adv-x="1970" 
d="M1298 1337v-34h-585v34h585zM1843 524h-899v-16q0 -229 128 -364.5t325 -135.5q129 0 234 58t165 161l29 -16q-63 -112 -174.5 -174t-251.5 -62q-173 0 -298 94.5t-169 260.5q-29 -168 -148 -261.5t-303 -93.5q-170 0 -264 79.5t-94 221.5q0 140 93.5 210.5t272.5 70.5
h420v141q0 158 -87 238t-249 80q-247 0 -360 -189l-29 19q122 203 389 203q170 0 266 -83.5t105 -240.5q54 153 174 238.5t275 85.5q196 0 325 -130.5t129 -336.5q0 -30 -4 -58zM1393 1016q-182 0 -308 -124.5t-139 -334.5h864v10q0 204 -119 326.5t-298 122.5zM481 8
q196 0 312 114t116 314v88h-420q-329 0 -329 -248q0 -129 84 -198.5t237 -69.5z" />
    <glyph glyph-name="Gcaron" unicode="&#x1e6;" horiz-adv-x="1640" 
d="M887 1608h-37l-285 317h41l262 -291l262 291h41zM969 707h499v-514q-93 -105 -233 -161.5t-317 -56.5q-344 0 -551 203.5t-207 536.5q0 219 92 388.5t257 262t376 92.5q172 0 309.5 -62t222.5 -179l-31 -21q-78 108 -209.5 167.5t-291.5 59.5q-194 0 -349 -85
t-246 -247.5t-91 -375.5q0 -216 93.5 -377.5t254.5 -244.5t368 -83q162 0 298.5 52t218.5 143v467h-463v35z" />
    <glyph glyph-name="gcaron" unicode="&#x1e7;" horiz-adv-x="1343" 
d="M684 1198h-37l-285 318h41l263 -291l262 291h41zM1104 1024h35v-934q0 -246 -136.5 -385t-377.5 -139q-150 0 -266.5 53.5t-186.5 147.5l27 22q66 -90 178 -140t248 -50q221 0 350 131t129 360v246q-48 -156 -171.5 -246t-295.5 -90q-225 0 -365.5 147.5t-140.5 376.5
t140.5 377t365.5 148q172 0 295.5 -90t171.5 -246v311zM637 33q203 0 336 138.5t133 352.5q0 215 -133 353.5t-336 138.5t-336 -138.5t-133 -353.5q0 -214 133 -352.5t336 -138.5z" />
    <glyph glyph-name="uni01E8" unicode="&#x1e8;" horiz-adv-x="1368" 
d="M737 1608h-37l-284 317h41l262 -291l262 291h41zM1284 0l-633 776l-360 -373v-403h-37v1434h37v-979l954 979h47l-616 -633l653 -801h-45z" />
    <glyph glyph-name="uni01E9" unicode="&#x1e9;" horiz-adv-x="1054" 
d="M242 1673h-37l-285 318h41l262 -291l262 291h41zM985 0l-469 555l-276 -260v-295h-35v1497h35v-1157l727 684h49l-473 -444l487 -580h-45z" />
    <glyph glyph-name="AEacute" unicode="&#x1fc;" horiz-adv-x="2197" 
d="M1669 1925l-262 -317h-41l258 317h45zM1135 35h890v-35h-927v424h-709l-305 -424h-43l1034 1434h930v-35h-870v-658h837v-34h-837v-672zM416 459h682v946z" />
    <glyph glyph-name="aeacute" unicode="&#x1fd;" horiz-adv-x="1970" 
d="M1217 1516l-263 -318h-41l258 318h46zM1843 524h-899v-16q0 -229 128 -364.5t325 -135.5q129 0 234 58t165 161l29 -16q-63 -112 -174.5 -174t-251.5 -62q-173 0 -298 94.5t-169 260.5q-29 -168 -148 -261.5t-303 -93.5q-170 0 -264 79.5t-94 221.5q0 140 93.5 210.5
t272.5 70.5h420v141q0 158 -87 238t-249 80q-247 0 -360 -189l-29 19q122 203 389 203q170 0 266 -83.5t105 -240.5q54 153 174 238.5t275 85.5q196 0 325 -130.5t129 -336.5q0 -30 -4 -58zM1393 1016q-182 0 -308 -124.5t-139 -334.5h864v10q0 204 -119 326.5t-298 122.5z
M481 8q196 0 312 114t116 314v88h-420q-329 0 -329 -248q0 -129 84 -198.5t237 -69.5z" />
    <glyph glyph-name="Oslashacute" unicode="&#x1fe;" horiz-adv-x="1753" 
d="M1079 1925l-262 -317h-41l258 317h45zM1409 1225q184 -210 184 -508q0 -209 -93 -379t-257 -266.5t-366 -96.5q-150 0 -280.5 54.5t-227.5 154.5l-174 -174l-25 27l174 174q-184 203 -184 506q0 157 55 294.5t149.5 235.5t228 154.5t284.5 56.5q149 0 278.5 -54
t228.5 -153l175 174l26 -24zM877 1423q-143 0 -268.5 -53t-215.5 -145.5t-142 -224.5t-52 -283q0 -140 44.5 -263.5t125.5 -217.5l989 989q-192 198 -481 198zM877 10q190 0 345 90.5t243.5 252.5t88.5 364q0 287 -172 481l-989 -989q92 -95 216.5 -147t267.5 -52z" />
    <glyph glyph-name="oslashacute" unicode="&#x1ff;" horiz-adv-x="1298" 
d="M852 1516l-262 -318h-41l258 318h45zM1176 1012l-134 -133q121 -146 121 -367q0 -238 -141 -387.5t-373 -149.5q-224 0 -368 144l-134 -133l-24 26l133 133q-121 146 -121 367q0 238 141 387.5t373 149.5q225 0 369 -144l131 131zM649 1016q-212 0 -344.5 -139
t-132.5 -365q0 -207 113 -342l708 709q-131 137 -344 137zM649 8q212 0 344.5 139t132.5 365q0 204 -110 342l-709 -709q131 -137 342 -137z" />
    <glyph glyph-name="uni0218" unicode="&#x218;" horiz-adv-x="1255" 
d="M653 -25q-202 0 -339.5 86.5t-198.5 247.5l30 13q130 -312 508 -312q212 0 329.5 94.5t117.5 257.5q0 124 -82.5 200t-278.5 122l-188 45q-211 51 -303 133.5t-92 220.5q0 171 124.5 273t346.5 102q184 0 310 -70t179 -200l-31 -14q-107 249 -458 249
q-207 0 -320.5 -88.5t-113.5 -251.5q0 -123 80 -196t286 -123l197 -47q206 -50 293.5 -135t87.5 -220q0 -179 -129.5 -283t-354.5 -104zM553 -545l82 338h37l-88 -338h-31z" />
    <glyph glyph-name="uni0219" unicode="&#x219;" horiz-adv-x="1005" 
d="M524 -25q-149 0 -260.5 56.5t-161.5 154.5l29 17q52 -92 154 -143.5t239 -51.5q159 0 244.5 68.5t85.5 181.5q0 85 -55.5 136t-188.5 83l-221 53q-128 30 -187 90.5t-59 155.5q0 128 97.5 200.5t271.5 72.5q133 0 228 -45t139 -130l-29 -16q-90 158 -338 158
q-162 0 -247 -63t-85 -179q0 -86 54 -135.5t186 -81.5l221 -53q133 -31 191.5 -91.5t58.5 -154.5q0 -129 -96 -206t-271 -77zM412 -545l82 338h36l-88 -338h-30z" />
    <glyph glyph-name="uni021A" unicode="&#x21a;" horiz-adv-x="1241" 
d="M602 0v1399h-541v35h1119v-35h-541v-1399h-37zM510 -545l82 338h37l-88 -338h-31z" />
    <glyph glyph-name="uni021B" unicode="&#x21b;" horiz-adv-x="780" 
d="M549 -16q-256 0 -256 237v770h-240v33h240v311h35v-311h370v-33h-370v-770q0 -205 221 -205q70 0 153 21v-31q-76 -22 -153 -22zM379 -545l82 338h37l-88 -338h-31z" />
    <glyph glyph-name="uni0237" unicode="&#x237;" horiz-adv-x="448" 
d="M29 -436q-47 0 -90 14v33q43 -14 90 -14q85 0 131.5 56.5t46.5 158.5v1212h35v-1212q0 -119 -55.5 -183.5t-157.5 -64.5z" />
    <glyph glyph-name="circumflex" unicode="&#x2c6;" horiz-adv-x="1269" 
d="M938 1198h-41l-262 291l-262 -291h-41l284 318h37z" />
    <glyph glyph-name="caron" unicode="&#x2c7;" horiz-adv-x="1269" 
d="M897 1516h41l-285 -318h-37l-284 318h41l262 -291z" />
    <glyph glyph-name="breve" unicode="&#x2d8;" horiz-adv-x="1269" 
d="M635 1217q-131 0 -194.5 59t-63.5 180v2h35q0 -109 53 -159t170 -50t170 50t53 159h35v-2q0 -121 -63.5 -180t-194.5 -59z" />
    <glyph glyph-name="dotaccent" unicode="&#x2d9;" horiz-adv-x="1269" 
d="M635 1321q-19 0 -31 12t-12 31t12 31t31 12t31 -12t12 -31t-12 -31t-31 -12z" />
    <glyph glyph-name="ring" unicode="&#x2da;" horiz-adv-x="1269" 
d="M635 1208q-90 0 -149.5 58t-59.5 145t59.5 145t149.5 58t149.5 -58t59.5 -145t-59.5 -145t-149.5 -58zM635 1241q78 0 126 47.5t48 122.5t-48 122.5t-126 47.5t-126 -47.5t-48 -122.5t48 -122.5t126 -47.5z" />
    <glyph glyph-name="ogonek" unicode="&#x2db;" horiz-adv-x="1269" 
d="M690 -434q-235 0 -235 172q0 159 213 274l28 -12q-207 -120 -207 -262q0 -71 49 -105t152 -34h6v-33h-6z" />
    <glyph glyph-name="tilde" unicode="&#x2dc;" horiz-adv-x="1269" 
d="M784 1257q-77 0 -166 89q-38 39 -67.5 55t-65.5 16q-48 0 -77 -39.5t-29 -107.5h-33q0 81 39.5 129.5t99.5 48.5q76 0 164 -88q41 -41 70.5 -56.5t64.5 -15.5q48 0 77.5 40.5t29.5 109.5h33q0 -83 -40 -132t-100 -49z" />
    <glyph glyph-name="hungarumlaut" unicode="&#x2dd;" horiz-adv-x="1269" 
d="M434 1198l260 318h41l-260 -318h-41zM774 1198l260 318h41l-260 -318h-41z" />
    <glyph glyph-name="gravecomb" unicode="&#x300;" horiz-adv-x="0" 
d="M-586 1198h-41l-262 318h45z" />
    <glyph glyph-name="acutecomb" unicode="&#x301;" horiz-adv-x="0" 
d="M-682 1198l258 318h45l-262 -318h-41z" />
    <glyph glyph-name="uni0302" unicode="&#x302;" horiz-adv-x="0" 
d="M-332 1198h-41l-262 291l-262 -291h-41l285 318h37z" />
    <glyph glyph-name="tildecomb" unicode="&#x303;" horiz-adv-x="0" 
d="M-485 1257q-77 0 -166 89q-38 39 -67.5 55t-65.5 16q-48 0 -77.5 -39.5t-29.5 -107.5h-33q0 81 40 129.5t100 48.5q75 0 163 -88q41 -41 70.5 -56.5t65.5 -15.5q48 0 77 40t29 110h33q0 -83 -39.5 -132t-99.5 -49z" />
    <glyph glyph-name="uni0304" unicode="&#x304;" horiz-adv-x="0" 
d="M-928 1303v34h586v-34h-586z" />
    <glyph glyph-name="uni0306" unicode="&#x306;" horiz-adv-x="0" 
d="M-635 1217q-131 0 -194.5 59t-63.5 180v2h35q0 -109 53 -159t170 -50t170 50t53 159h35v-2q0 -121 -63.5 -180t-194.5 -59z" />
    <glyph glyph-name="uni0307" unicode="&#x307;" horiz-adv-x="0" 
d="M-635 1321q-19 0 -31 12t-12 31t12 31t31 12t31 -12t12 -31t-12 -31t-31 -12z" />
    <glyph glyph-name="uni0308" unicode="&#x308;" horiz-adv-x="0" 
d="M-844 1321q-19 0 -31 12t-12 31t12 31t31 12t31 -12t12 -31t-12 -31t-31 -12zM-426 1321q-19 0 -31 12t-12 31t12 31t31 12t31 -12t12 -31t-12 -31t-31 -12z" />
    <glyph glyph-name="uni030A" unicode="&#x30a;" horiz-adv-x="0" 
d="M-635 1208q-90 0 -149.5 58t-59.5 145t59.5 145t149.5 58t149.5 -58t59.5 -145t-59.5 -145t-149.5 -58zM-635 1241q78 0 126 47.5t48 122.5t-48 122.5t-126 47.5t-126 -47.5t-48 -122.5t48 -122.5t126 -47.5z" />
    <glyph glyph-name="uni030B" unicode="&#x30b;" horiz-adv-x="0" 
d="M-836 1198l261 318h40l-260 -318h-41zM-496 1198l260 318h41l-260 -318h-41z" />
    <glyph glyph-name="uni030C" unicode="&#x30c;" horiz-adv-x="0" 
d="M-373 1516h41l-284 -318h-37l-285 318h41l262 -291z" />
    <glyph glyph-name="uni0315" unicode="&#x315;" horiz-adv-x="0" 
d="M-653 1153v383h37l-7 -383h-30z" />
    <glyph glyph-name="uni0326" unicode="&#x326;" horiz-adv-x="0" 
d="M-735 -545l82 338h37l-89 -338h-30z" />
    <glyph glyph-name="uni0327" unicode="&#x327;" horiz-adv-x="0" 
d="M-766 -399l133 405h35l-133 -405h-35z" />
    <glyph glyph-name="uni0328" unicode="&#x328;" horiz-adv-x="0" 
d="M-580 -434q-235 0 -235 172q0 159 213 274l29 -12q-207 -120 -207 -262q0 -71 49 -105t151 -34h7v-33h-7z" />
    <glyph glyph-name="uni03BC" unicode="&#x3bc;" horiz-adv-x="1241" 
d="M1001 1024h35v-1024h-35v256q-37 -129 -147.5 -205t-271.5 -76q-262 0 -342 213v-639h-35v1475h35v-621q0 -395 342 -395q187 0 303 111.5t116 304.5v600z" />
    <glyph glyph-name="pi" unicode="&#x3c0;" horiz-adv-x="1185" 
d="M1098 33h26v-33h-26q-211 0 -211 221v770h-647v-991h-35v1024h717v-803q0 -188 176 -188z" />
    <glyph glyph-name="uni1E20" unicode="&#x1e20;" horiz-adv-x="1640" 
d="M1161 1747v-35h-586v35h586zM969 707h499v-514q-93 -105 -233 -161.5t-317 -56.5q-344 0 -551 203.5t-207 536.5q0 219 92 388.5t257 262t376 92.5q172 0 309.5 -62t222.5 -179l-31 -21q-78 108 -209.5 167.5t-291.5 59.5q-194 0 -349 -85t-246 -247.5t-91 -375.5
q0 -216 93.5 -377.5t254.5 -244.5t368 -83q162 0 298.5 52t218.5 143v467h-463v35z" />
    <glyph glyph-name="uni1E21" unicode="&#x1e21;" horiz-adv-x="1343" 
d="M958 1337v-34h-585v34h585zM1104 1024h35v-934q0 -246 -136.5 -385t-377.5 -139q-150 0 -266.5 53.5t-186.5 147.5l27 22q66 -90 178 -140t248 -50q221 0 350 131t129 360v246q-48 -156 -171.5 -246t-295.5 -90q-225 0 -365.5 147.5t-140.5 376.5t140.5 377t365.5 148
q172 0 295.5 -90t171.5 -246v311zM637 33q203 0 336 138.5t133 352.5q0 215 -133 353.5t-336 138.5t-336 -138.5t-133 -353.5q0 -214 133 -352.5t336 -138.5z" />
    <glyph glyph-name="uni1E30" unicode="&#x1e30;" horiz-adv-x="1368" 
d="M930 1925l-262 -317h-41l258 317h45zM1284 0l-633 776l-360 -373v-403h-37v1434h37v-979l954 979h47l-616 -633l653 -801h-45z" />
    <glyph glyph-name="uni1E31" unicode="&#x1e31;" horiz-adv-x="1054" 
d="M389 1991h45l-262 -318h-41zM985 0l-469 555l-276 -260v-295h-35v1497h35v-1157l727 684h49l-473 -444l487 -580h-45z" />
    <glyph glyph-name="uni1E3E" unicode="&#x1e3e;" horiz-adv-x="1921" 
d="M1171 1925l-262 -317h-41l258 317h45zM1626 1434h41v-1434h-37v1374l-651 -977h-37l-651 977v-1374h-37v1434h41l666 -998z" />
    <glyph glyph-name="uni1E3F" unicode="&#x1e3f;" horiz-adv-x="1873" 
d="M1157 1516l-262 -318h-41l258 318h45zM1327 1049q173 0 261.5 -107t88.5 -313v-629h-35v629q0 387 -315 387q-172 0 -270.5 -112t-98.5 -304v-600h-34v629q0 387 -316 387q-172 0 -270 -112t-98 -304v-600h-35v1024h35v-252q36 132 129.5 204.5t238.5 72.5
q293 0 340 -301q27 138 125 219.5t254 81.5z" />
    <glyph glyph-name="uni1E40" unicode="&#x1e40;" horiz-adv-x="1921" 
d="M961 1731q-19 0 -31 12t-12 31t12 31t31 12t31 -12t12 -31t-12 -31t-31 -12zM1626 1434h41v-1434h-37v1374l-651 -977h-37l-651 977v-1374h-37v1434h41l666 -998z" />
    <glyph glyph-name="uni1E41" unicode="&#x1e41;" horiz-adv-x="1873" 
d="M946 1321q-19 0 -31 12t-12 31t12 31t31 12t31 -12t12 -31t-12 -31t-31 -12zM1327 1049q173 0 261.5 -107t88.5 -313v-629h-35v629q0 387 -315 387q-172 0 -270.5 -112t-98.5 -304v-600h-34v629q0 387 -316 387q-172 0 -270 -112t-98 -304v-600h-35v1024h35v-252
q36 132 129.5 204.5t238.5 72.5q293 0 340 -301q27 138 125 219.5t254 81.5z" />
    <glyph glyph-name="uni1E44" unicode="&#x1e44;" horiz-adv-x="1617" 
d="M809 1731q-19 0 -31 12t-12 31t12 31t31 12t31 -12t12 -31t-12 -31t-31 -12zM1327 1434h37v-1434h-41l-1032 1378v-1378h-37v1434h41l1032 -1379v1379z" />
    <glyph glyph-name="uni1E45" unicode="&#x1e45;" horiz-adv-x="1232" 
d="M621 1321q-19 0 -31 12t-12 31t12 31t31 12t31 -12t12 -31t-12 -31t-31 -12zM659 1049q187 0 282 -107.5t95 -320.5v-621h-35v621q0 395 -342 395q-187 0 -303 -111.5t-116 -304.5v-600h-35v1024h35v-256q37 129 147.5 205t271.5 76z" />
    <glyph glyph-name="Wgrave" unicode="&#x1e80;" horiz-adv-x="2070" 
d="M1130 1608h-40l-263 317h45zM1962 1434h39l-463 -1434h-43l-459 1380l-461 -1380h-43l-462 1434h39l446 -1381l459 1381h43l459 -1381z" />
    <glyph glyph-name="wgrave" unicode="&#x1e81;" horiz-adv-x="1652" 
d="M922 1198h-41l-263 318h46zM1559 1024h36l-370 -1024h-39l-359 977l-360 -977h-39l-371 1024h37l355 -977l358 977h39l358 -977z" />
    <glyph glyph-name="Wacute" unicode="&#x1e82;" horiz-adv-x="2070" 
d="M1247 1925l-262 -317h-41l258 317h45zM1962 1434h39l-463 -1434h-43l-459 1380l-461 -1380h-43l-462 1434h39l446 -1381l459 1381h43l459 -1381z" />
    <glyph glyph-name="wacute" unicode="&#x1e83;" horiz-adv-x="1652" 
d="M1038 1516l-262 -318h-41l258 318h45zM1559 1024h36l-370 -1024h-39l-359 977l-360 -977h-39l-371 1024h37l355 -977l358 977h39l358 -977z" />
    <glyph glyph-name="Wdieresis" unicode="&#x1e84;" horiz-adv-x="2070" 
d="M827 1731q-19 0 -31 12t-12 31t12 31t31 12t31 -12t12 -31t-12 -31t-31 -12zM1245 1731q-19 0 -31 12t-12 31t12 31t31 12t31 -12t12 -31t-12 -31t-31 -12zM1962 1434h39l-463 -1434h-43l-459 1380l-461 -1380h-43l-462 1434h39l446 -1381l459 1381h43l459 -1381z" />
    <glyph glyph-name="wdieresis" unicode="&#x1e85;" horiz-adv-x="1652" 
d="M618 1321q-19 0 -31 12t-12 31t12 31t31 12t31.5 -12t12.5 -31t-12.5 -31t-31.5 -12zM1036 1321q-19 0 -31 12t-12 31t12 31t31 12t31 -12t12 -31t-12 -31t-31 -12zM1559 1024h36l-370 -1024h-39l-359 977l-360 -977h-39l-371 1024h37l355 -977l358 977h39l358 -977z" />
    <glyph glyph-name="uni1E90" unicode="&#x1e90;" horiz-adv-x="1228" 
d="M623 1898l-263 -290h-41l285 317h37l285 -317h-41zM152 35h974v-35h-1024v31l963 1368h-942v35h991v-31z" />
    <glyph glyph-name="uni1E91" unicode="&#x1e91;" horiz-adv-x="987" 
d="M498 1489l-262 -291h-41l284 318h37l285 -318h-41zM156 33h716v-33h-761v27l708 964h-688v33h733v-27z" />
    <glyph glyph-name="uni1E9E" unicode="&#x1e9e;" horiz-adv-x="1478" 
d="M901 745q455 0 455 -372q0 -186 -113.5 -279.5t-333.5 -93.5h-215v35h215q408 0 408 338t-408 338h-100v34l430 484q-139 194 -473 194q-249 0 -372.5 -123t-123.5 -399v-901h-37v901q0 287 131.5 422t401.5 135q363 0 518 -231l-428 -482h45z" />
    <glyph glyph-name="Ygrave" unicode="&#x1ef2;" horiz-adv-x="1241" 
d="M715 1608h-41l-262 317h45zM1174 1434h43l-578 -807v-627h-37v627l-577 807h43l553 -772z" />
    <glyph glyph-name="ygrave" unicode="&#x1ef3;" horiz-adv-x="1044" 
d="M614 1198h-41l-262 318h45zM961 1024h38l-620 -1432h-39l172 398l-459 1034h39l440 -989z" />
    <glyph glyph-name="uni2000" unicode="&#x2000;" horiz-adv-x="1024" 
 />
    <glyph glyph-name="uni2001" unicode="&#x2001;" horiz-adv-x="2048" 
 />
    <glyph glyph-name="uni2002" unicode="&#x2002;" horiz-adv-x="1024" 
 />
    <glyph glyph-name="uni2003" unicode="&#x2003;" horiz-adv-x="2048" 
 />
    <glyph glyph-name="uni2009" unicode="&#x2009;" horiz-adv-x="471" 
 />
    <glyph glyph-name="uni200A" unicode="&#x200a;" horiz-adv-x="122" 
 />
    <glyph glyph-name="uni200B" unicode="&#x200b;" horiz-adv-x="0" 
 />
    <glyph glyph-name="endash" unicode="&#x2013;" horiz-adv-x="1290" 
d="M133 573v33h1024v-33h-1024z" />
    <glyph glyph-name="emdash" unicode="&#x2014;" horiz-adv-x="2314" 
d="M133 573v33h2048v-33h-2048z" />
    <glyph glyph-name="quoteleft" unicode="&#x2018;" horiz-adv-x="389" 
d="M113 991l131 467h32l-126 -467h-37z" />
    <glyph glyph-name="quoteright" unicode="&#x2019;" horiz-adv-x="389" 
d="M276 1458l-131 -467h-32l127 467h36z" />
    <glyph glyph-name="quotesinglbase" unicode="&#x201a;" horiz-adv-x="378" 
d="M256 182l-131 -467h-33l127 467h37z" />
    <glyph glyph-name="quotedblleft" unicode="&#x201c;" horiz-adv-x="677" 
d="M113 991l131 467h32l-126 -467h-37zM401 991l131 467h33l-127 -467h-37z" />
    <glyph glyph-name="quotedblright" unicode="&#x201d;" horiz-adv-x="677" 
d="M276 1458l-131 -467h-32l127 467h36zM565 1458l-131 -467h-33l127 467h37z" />
    <glyph glyph-name="quotedblbase" unicode="&#x201e;" horiz-adv-x="667" 
d="M256 182l-131 -467h-33l127 467h37zM545 182l-131 -467h-33l127 467h37z" />
    <glyph glyph-name="dagger" unicode="&#x2020;" horiz-adv-x="1081" 
d="M979 963v-33h-420v-1196h-35v1196h-422v33h422v553h35v-553h420z" />
    <glyph glyph-name="daggerdbl" unicode="&#x2021;" horiz-adv-x="1122" 
d="M999 930h-419v-578h378v-33h-378v-585h-35v585h-381v33h381v578h-422v33h422v553h35v-553h419v-33z" />
    <glyph glyph-name="bullet" unicode="&#x2022;" horiz-adv-x="937" 
d="M469 555q-78 0 -130 52t-52 130t52 130.5t130 52.5t130 -52.5t52 -130.5t-52 -130t-130 -52z" />
    <glyph glyph-name="ellipsis" unicode="&#x2026;" horiz-adv-x="1290" 
d="M215 0q-19 0 -31 12t-12 31t12 31t31 12t31 -12t12 -31t-12 -31t-31 -12zM645 0q-19 0 -31 12t-12 31t12 31t31 12t31 -12t12 -31t-12 -31t-31 -12zM1075 0q-19 0 -31 12t-12 31t12 31t31 12t31 -12t12 -31t-12 -31t-31 -12z" />
    <glyph glyph-name="perthousand" unicode="&#x2030;" horiz-adv-x="2404" 
d="M414 811q-141 0 -231.5 90t-90.5 234t90.5 233.5t231.5 89.5t231 -89.5t90 -233.5t-90.5 -234t-230.5 -90zM258 0l1053 1434h43l-1053 -1434h-43zM414 844q128 0 207 80.5t79 210.5t-79 210t-207 80t-207.5 -80t-79.5 -210t79.5 -210.5t207.5 -80.5zM1198 -25
q-140 0 -230.5 90t-90.5 234t90.5 234t230.5 90q141 0 231.5 -90t90.5 -234t-90.5 -234t-231.5 -90zM1991 -25q-141 0 -231.5 90t-90.5 234t90.5 234t231.5 90q140 0 230.5 -90t90.5 -234t-90.5 -234t-230.5 -90zM1198 8q128 0 207.5 80.5t79.5 210.5t-79.5 210.5
t-207.5 80.5t-207.5 -80.5t-79.5 -210.5t79.5 -210.5t207.5 -80.5zM1991 8q128 0 207 80.5t79 210.5t-79 210.5t-207 80.5t-207.5 -80.5t-79.5 -210.5t79.5 -210.5t207.5 -80.5z" />
    <glyph glyph-name="guilsinglleft" unicode="&#x2039;" horiz-adv-x="540" 
d="M428 930l-293 -418l293 -418h-43l-293 418l293 418h43z" />
    <glyph glyph-name="guilsinglright" unicode="&#x203a;" horiz-adv-x="540" 
d="M156 930l293 -418l-293 -418h-43l293 418l-293 418h43z" />
    <glyph glyph-name="fraction" unicode="&#x2044;" horiz-adv-x="223" 
d="M-410 0l1004 1434h39l-1004 -1434h-39z" />
    <glyph glyph-name="uni2070" unicode="&#x2070;" horiz-adv-x="774" 
d="M387 713q-137 0 -216 103.5t-79 297.5t79.5 298t215.5 104t215.5 -104t79.5 -298t-79 -297.5t-216 -103.5zM387 745q122 0 190 94t68 275t-68 275t-190 94t-190 -94t-68 -275t68 -275t190 -94z" />
    <glyph glyph-name="uni2074" unicode="&#x2074;" horiz-adv-x="702" 
d="M662 948v-30h-127v-191h-33v191h-436v30l421 553h48v-553h127zM106 948h396v516z" />
    <glyph glyph-name="uni2075" unicode="&#x2075;" horiz-adv-x="669" 
d="M350 1200q112 0 181 -63t69 -170q0 -113 -74 -183.5t-198 -70.5q-157 0 -254 112l22 21q88 -101 232 -101q107 0 172 59.5t65 162.5q0 95 -57.5 148.5t-157.5 53.5q-109 0 -200 -73l-29 16v389h444v-31h-411v-335q91 65 196 65z" />
    <glyph glyph-name="uni2076" unicode="&#x2076;" horiz-adv-x="688" 
d="M356 1241q116 0 191.5 -70.5t75.5 -193.5t-76.5 -193.5t-196.5 -70.5t-196 71t-76 195q0 62 22.5 119.5t75.5 130.5l201 272h43l-234 -313q67 53 170 53zM350 745q108 0 173 61.5t65 170.5t-65.5 171t-172.5 62t-172 -62t-65 -171t65 -170.5t172 -61.5z" />
    <glyph glyph-name="uni2077" unicode="&#x2077;" horiz-adv-x="595" 
d="M45 1501h506v-28l-363 -746h-38l364 741h-469v33z" />
    <glyph glyph-name="uni2078" unicode="&#x2078;" horiz-adv-x="714" 
d="M451 1124q84 -19 131 -71.5t47 -126.5q0 -94 -73 -153.5t-198 -59.5q-126 0 -199 59.5t-73 153.5q0 74 47 126.5t133 71.5q-76 20 -118 70t-42 119q0 90 68 146.5t184 56.5q115 0 182.5 -56.5t67.5 -146.5q0 -69 -41 -119t-116 -70zM141 1313q0 -78 57.5 -125t159.5 -47
q101 0 158 47t57 125t-57 124t-158 46q-103 0 -160 -46t-57 -124zM358 745q111 0 173.5 49t62.5 132t-62.5 132.5t-173.5 49.5q-112 0 -174.5 -49.5t-62.5 -132.5t62.5 -132t174.5 -49z" />
    <glyph glyph-name="uni2079" unicode="&#x2079;" horiz-adv-x="688" 
d="M342 1516q120 0 196 -71t76 -196q0 -62 -22.5 -119.5t-75.5 -130.5l-201 -272h-43l234 313q-67 -53 -170 -53q-116 0 -191 70.5t-75 193.5t76 194t196 71zM104 1251q0 -109 65.5 -171t172.5 -62t172.5 62t65.5 171t-65 170.5t-173 61.5t-173 -61.5t-65 -170.5z" />
    <glyph glyph-name="Euro" unicode="&#x20ac;" horiz-adv-x="1314" 
d="M782 10q136 0 242.5 90.5t155.5 253.5l32 -8q-52 -171 -165 -271t-265 -100q-191 0 -326.5 157.5t-170.5 416.5h-203v33h199q-7 75 -7 135t7 135h-199v33h203q35 259 170.5 416t326.5 157q152 0 265 -100t165 -271l-32 -8q-49 163 -155.5 253.5t-242.5 90.5
q-175 0 -299.5 -146.5t-158.5 -391.5h596v-33h-601q-8 -57 -8 -135t8 -135h601v-33h-596q34 -245 158.5 -392t299.5 -147z" />
    <glyph glyph-name="uni2116" unicode="&#x2116;" horiz-adv-x="2596" 
d="M2023 598q-185 0 -297 119.5t-112 310.5t112 310.5t297 119.5q183 0 296.5 -120t113.5 -310t-113.5 -310t-296.5 -120zM1327 55v1379h37v-1434h-41l-1032 1378v-1378h-37v1434h41zM2023 1425q-164 0 -268 -109t-104 -288q0 -177 104 -287t268 -110q163 0 268 110t105 287
q0 178 -105 287.5t-268 109.5zM1638 319v33h770v-33h-770z" />
    <glyph glyph-name="trademark" unicode="&#x2122;" horiz-adv-x="1904" 
d="M123 1401v33h618v-33h-290v-803h-35v803h-293zM1686 1434h34v-836h-34v776l-343 -483h-34l-342 483v-776h-35v836h35l360 -508z" />
    <glyph glyph-name="uni2126" unicode="&#x2126;" horiz-adv-x="1638" 
d="M1458 762q0 -420 -403 -729h403v-33h-461v33q211 157 317.5 332.5t106.5 396.5q0 147 -46 271t-126.5 209.5t-191.5 133t-238 47.5t-238 -47.5t-191.5 -133t-126.5 -209.5t-46 -271q0 -221 106.5 -396.5t317.5 -332.5v-33h-461v33h404q-404 310 -404 729q0 203 83 362
t228.5 246.5t327.5 87.5t327.5 -87.5t228.5 -246.5t83 -362z" />
    <glyph glyph-name="estimated" unicode="&#x212e;" horiz-adv-x="1740" 
d="M870 0q-145 0 -275 52t-228 147q-97 94 -152 228.5t-55 289.5t55 291.5t152 230.5q98 92 228.5 143.5t274.5 51.5t274.5 -51.5t227.5 -143.5q98 -93 153.5 -230t55.5 -292v-25h-1196v-309q0 -72 20.5 -119t71.5 -84q171 -127 393 -127q172 0 315.5 75t231.5 210l43 -33
q-97 -145 -252 -225t-338 -80zM385 741h981v299q0 71 -20 120.5t-68 86.5q-177 133 -408 133q-222 0 -393 -127q-51 -37 -71.5 -84t-20.5 -120v-308z" />
    <glyph glyph-name="arrowleft" unicode="&#x2190;" 
d="M1343 735v-35h-1200l463 -471l-22 -24l-504 512l504 512l22 -25l-461 -469h1198z" />
    <glyph glyph-name="arrowup" unicode="&#x2191;" 
d="M1239 854l-25 -23l-469 461v-1198h-34v1200l-471 -463l-25 23l512 504z" />
    <glyph glyph-name="arrowright" unicode="&#x2192;" 
d="M870 1229l504 -512l-504 -512l-22 24l461 469h-1198v35h1200l-463 471z" />
    <glyph glyph-name="arrowdown" unicode="&#x2193;" 
d="M1214 614l25 -22l-512 -504l-512 504l25 22l469 -460v1198h34v-1200z" />
    <glyph glyph-name="uni2196" unicode="&#x2196;" 
d="M1223 264l-25 -24l-848 850l-6 -662h-33l6 717l717 6v-33l-657 -6z" />
    <glyph glyph-name="uni2197" unicode="&#x2197;" 
d="M1141 430h-33l-6 657l-848 -845l-25 24l850 848l-661 6v33l717 -6z" />
    <glyph glyph-name="uni2198" unicode="&#x2198;" 
d="M1110 1006h33l-6 -717l-717 -6v32l657 7l-846 847l25 25l848 -850z" />
    <glyph glyph-name="uni2199" unicode="&#x2199;" 
d="M1225 1167l-850 -848l661 -6v-32l-717 6l-6 717h33l6 -658l848 846z" />
    <glyph glyph-name="partialdiff" unicode="&#x2202;" horiz-adv-x="1308" 
d="M610 1460q268 0 418 -196.5t150 -565.5q0 -370 -146 -555q-135 -170 -387 -170q-231 0 -372.5 136t-141.5 358q0 219 138 357.5t354 138.5q126 0 235.5 -48t185.5 -146t91 -228h2q4 63 4 149q0 360 -139 548.5t-390 188.5q-153 0 -280 -71l-17 30q133 74 295 74zM637 6
q210 0 338.5 131t128.5 332q0 206 -135 333.5t-342 127.5q-204 0 -331.5 -128.5t-127.5 -334.5q0 -214 133.5 -337.5t335.5 -123.5z" />
    <glyph glyph-name="uni2206" unicode="&#x2206;" horiz-adv-x="1374" 
d="M705 1434l598 -1407l-19 -27h-1194l-18 27l598 1407h35zM688 1378l-571 -1343h1140z" />
    <glyph glyph-name="product" unicode="&#x220f;" horiz-adv-x="1427" 
d="M1174 1516v-1782h-37v1747h-846v-1747h-37v1782h920z" />
    <glyph glyph-name="summation" unicode="&#x2211;" horiz-adv-x="1105" 
d="M1034 1516v-35h-858l617 -856l-617 -856h858v-35h-901v35l617 856l-617 856v35h901z" />
    <glyph glyph-name="minus" unicode="&#x2212;" 
d="M297 633v33h860v-33h-860z" />
    <glyph glyph-name="radical" unicode="&#x221a;" horiz-adv-x="1282" 
d="M1223 1516h39l-594 -1782h-41l-328 852h-248v35h275l321 -834z" />
    <glyph glyph-name="infinity" unicode="&#x221e;" horiz-adv-x="1511" 
d="M1118 1024q132 0 217.5 -94t85.5 -252t-85.5 -252t-217.5 -94q-45 0 -84.5 11t-72.5 34.5t-60 49t-54.5 65t-46 71t-44.5 78.5q-31 -57 -53.5 -94t-58 -82t-69.5 -71t-81.5 -44t-100.5 -18q-132 0 -217.5 94t-85.5 252t85.5 252t217.5 94q53 0 100.5 -18t81.5 -44
t69.5 -71t58 -82t53.5 -94q26 47 44.5 78.5t46 71t54.5 65t60 49t72.5 34.5t84.5 11zM393 365q50 0 94 18.5t75.5 44t66 72.5t55 82.5t51.5 95.5q-31 60 -51.5 95.5t-55 82.5t-66 72.5t-75.5 44t-94 18.5q-117 0 -192.5 -86t-75.5 -227t75.5 -227t192.5 -86zM1118 365
q117 0 192.5 86t75.5 227t-75.5 227t-192.5 86q-50 0 -94 -18.5t-75.5 -44t-66 -72.5t-55 -82.5t-51.5 -95.5q31 -60 51.5 -95.5t55 -82.5t66 -72.5t75.5 -44t94 -18.5z" />
    <glyph glyph-name="integral" unicode="&#x222b;" horiz-adv-x="743" 
d="M51 -266v35h109q112 0 153 44.5t41 174.5v1274q0 144 50 199t180 55h108v-35h-108q-112 0 -152.5 -44.5t-40.5 -174.5v-1274q0 -144 -50.5 -199t-180.5 -55h-109z" />
    <glyph glyph-name="approxequal" unicode="&#x2248;" 
d="M922 801q-54 0 -123 28.5t-138.5 57t-123.5 28.5q-114 0 -240 -98v33q113 96 240 96q62 0 194 -57.5t191 -57.5q62 0 114.5 23t120.5 76v-33q-119 -96 -235 -96zM922 350q-43 0 -96.5 18t-96 39.5t-96 39.5t-96.5 18q-114 0 -240 -98v32q115 97 240 97q62 0 194 -57.5
t191 -57.5q62 0 114.5 23t120.5 75v-33q-119 -96 -235 -96z" />
    <glyph glyph-name="notequal" unicode="&#x2260;" 
d="M1157 858h-311l-201 -418h512v-32h-526l-148 -308h-37l148 308h-297v32h311l201 418h-512v33h526l148 307h37l-148 -307h297v-33z" />
    <glyph glyph-name="lessequal" unicode="&#x2264;" 
d="M1157 1059v-35l-827 -350l827 -350v-35l-860 364v41zM297 0v33h860v-33h-860z" />
    <glyph glyph-name="greaterequal" unicode="&#x2265;" 
d="M297 1059l860 -365v-41l-860 -364v35l827 350l-827 350v35zM297 0v33h860v-33h-860z" />
    <glyph glyph-name="filledbox" unicode="&#x25a0;" horiz-adv-x="1843" 
d="M205 0v1434h1433v-1434h-1433z" />
    <glyph glyph-name="triagup" unicode="&#x25b2;" horiz-adv-x="1843" 
d="M205 0l717 1434l716 -1434h-1433z" />
    <glyph glyph-name="triagdn" unicode="&#x25bc;" horiz-adv-x="1843" 
d="M922 0l-717 1434h1433z" />
    <glyph glyph-name="uni25C6" unicode="&#x25c6;" horiz-adv-x="1843" 
d="M920 0l-715 715l715 719l718 -719z" />
    <glyph glyph-name="lozenge" unicode="&#x25ca;" horiz-adv-x="1243" 
d="M633 1434l538 -717l-538 -717h-23l-538 717l538 717h23zM623 43l505 674l-505 674l-508 -674z" />
    <glyph glyph-name="uni25CF" unicode="&#x25cf;" horiz-adv-x="1843" 
d="M922 0q-145 0 -278 57t-229 153t-153 229t-57 278t57 278t153 229t229 153t278 57t278 -57t228.5 -153t152.5 -228.5t57 -278.5t-57 -278.5t-152.5 -228.5t-228.5 -153t-278 -57z" />
    <glyph glyph-name="uni2610" unicode="&#x2610;" horiz-adv-x="1843" 
d="M205 0v1434h1433v-1434h-1433zM231 25h1381v1384h-1381v-1384z" />
    <glyph glyph-name="uni2611" unicode="&#x2611;" horiz-adv-x="1843" 
d="M205 1434h1433v-1434h-1433v1434zM1612 25v1384h-1381v-1384h1381zM1251 1081l-430 -745l-229 133l16 31l203 -117l414 715z" />
    <glyph glyph-name="uni2612" unicode="&#x2612;" horiz-adv-x="1843" 
d="M205 1434h1433v-1434h-1433v1434zM1612 25v1384h-1381v-1384h1381zM584 354l-25 25l338 338l-338 338l25 24l338 -338l338 338l24 -24l-338 -338l338 -338l-24 -25l-338 338z" />
    <glyph glyph-name="heart" unicode="&#x2665;" horiz-adv-x="1843" 
d="M922 98q-65 63 -150.5 127t-153.5 107t-139 98.5t-118 108.5t-77 130t-30 169q0 97 32 176t84 127.5t115.5 74t130.5 25.5q119 0 206.5 -73t97.5 -205h4q10 132 97 205t206 73q67 0 130.5 -25.5t115.5 -74t84 -127.5t32 -176q0 -92 -30 -169t-77 -130t-117.5 -108.5
t-138.5 -98.5t-153.5 -107t-150.5 -127z" />
    <glyph glyph-name="uni2B51" unicode="&#x2b51;" horiz-adv-x="1843" 
d="M446 -6l183 557l-469 340h581l179 553l178 -555h585l-473 -342l181 -553l-471 344z" />
    <glyph glyph-name="uni00A40301" horiz-adv-x="1202" 
d="M858 1608l258 317h45l-262 -317h-41zM502 -25q-129 0 -241.5 51t-190.5 150l24 23q71 -91 178.5 -140t229.5 -49q198 0 314 129.5t116 376.5v918h37v-918q0 -259 -123.5 -400t-343.5 -141z" />
    <glyph glyph-name="i.loclTRK" horiz-adv-x="448" 
d="M225 1321q-19 0 -31 12t-12 31t12 31t31 12t31 -12t12 -31t-12 -31t-31 -12zM207 0v1024h35v-1024h-35z" />
    <glyph glyph-name="uni006A0301" horiz-adv-x="448" 
d="M133 1198l227 318h46l-232 -318h-41zM29 -436q-47 0 -90 14v33q43 -14 90 -14q85 0 131.5 56.5t46.5 158.5v1212h35v-1212q0 -119 -55.5 -183.5t-157.5 -64.5z" />
    <glyph glyph-name="a.ss01" horiz-adv-x="1343" 
d="M1104 1024h35v-1024h-35v311q-48 -156 -171.5 -246t-295.5 -90q-226 0 -366 150t-140 387t140 387t366 150q172 0 295.5 -90t171.5 -246v311zM637 8q204 0 336.5 140.5t132.5 363.5t-132.5 363.5t-336.5 140.5t-336.5 -140.5t-132.5 -363.5t132.5 -363.5t336.5 -140.5z
" />
    <glyph glyph-name="aacute.ss01" horiz-adv-x="1343" 
d="M899 1516l-262 -318h-41l258 318h45zM1104 1024h35v-1024h-35v311q-48 -156 -171.5 -246t-295.5 -90q-226 0 -366 150t-140 387t140 387t366 150q172 0 295.5 -90t171.5 -246v311zM637 8q204 0 336.5 140.5t132.5 363.5t-132.5 363.5t-336.5 140.5t-336.5 -140.5
t-132.5 -363.5t132.5 -363.5t336.5 -140.5z" />
    <glyph glyph-name="abreve.ss01" horiz-adv-x="1343" 
d="M688 1217q-131 0 -194.5 59t-63.5 180v2h35q0 -109 53 -159t170 -50t170 50t53 159h35v-2q0 -121 -63.5 -180t-194.5 -59zM1104 1024h35v-1024h-35v311q-48 -156 -171.5 -246t-295.5 -90q-226 0 -366 150t-140 387t140 387t366 150q172 0 295.5 -90t171.5 -246v311z
M637 8q204 0 336.5 140.5t132.5 363.5t-132.5 363.5t-336.5 140.5t-336.5 -140.5t-132.5 -363.5t132.5 -363.5t336.5 -140.5z" />
    <glyph glyph-name="uni01CE.ss01" horiz-adv-x="1343" 
d="M707 1198h-37l-285 318h41l262 -291l262 291h41zM1104 1024h35v-1024h-35v311q-48 -156 -171.5 -246t-295.5 -90q-226 0 -366 150t-140 387t140 387t366 150q172 0 295.5 -90t171.5 -246v311zM637 8q204 0 336.5 140.5t132.5 363.5t-132.5 363.5t-336.5 140.5
t-336.5 -140.5t-132.5 -363.5t132.5 -363.5t336.5 -140.5z" />
    <glyph glyph-name="acircumflex.ss01" horiz-adv-x="1343" 
d="M688 1489l-262 -291h-41l285 318h37l284 -318h-41zM1104 1024h35v-1024h-35v311q-48 -156 -171.5 -246t-295.5 -90q-226 0 -366 150t-140 387t140 387t366 150q172 0 295.5 -90t171.5 -246v311zM637 8q204 0 336.5 140.5t132.5 363.5t-132.5 363.5t-336.5 140.5
t-336.5 -140.5t-132.5 -363.5t132.5 -363.5t336.5 -140.5z" />
    <glyph glyph-name="adieresis.ss01" horiz-adv-x="1343" 
d="M479 1321q-19 0 -31 12t-12 31t12 31t31 12t31 -12t12 -31t-12 -31t-31 -12zM897 1321q-19 0 -31 12t-12 31t12 31t31 12t31 -12t12 -31t-12 -31t-31 -12zM1104 1024h35v-1024h-35v311q-48 -156 -171.5 -246t-295.5 -90q-226 0 -366 150t-140 387t140 387t366 150
q172 0 295.5 -90t171.5 -246v311zM637 8q204 0 336.5 140.5t132.5 363.5t-132.5 363.5t-336.5 140.5t-336.5 -140.5t-132.5 -363.5t132.5 -363.5t336.5 -140.5z" />
    <glyph glyph-name="agrave.ss01" horiz-adv-x="1343" 
d="M782 1198h-41l-262 318h45zM1104 1024h35v-1024h-35v311q-48 -156 -171.5 -246t-295.5 -90q-226 0 -366 150t-140 387t140 387t366 150q172 0 295.5 -90t171.5 -246v311zM637 8q204 0 336.5 140.5t132.5 363.5t-132.5 363.5t-336.5 140.5t-336.5 -140.5t-132.5 -363.5
t132.5 -363.5t336.5 -140.5z" />
    <glyph glyph-name="amacron.ss01" horiz-adv-x="1343" 
d="M981 1337v-34h-586v34h586zM1104 1024h35v-1024h-35v311q-48 -156 -171.5 -246t-295.5 -90q-226 0 -366 150t-140 387t140 387t366 150q172 0 295.5 -90t171.5 -246v311zM637 8q204 0 336.5 140.5t132.5 363.5t-132.5 363.5t-336.5 140.5t-336.5 -140.5t-132.5 -363.5
t132.5 -363.5t336.5 -140.5z" />
    <glyph glyph-name="aogonek.ss01" horiz-adv-x="1343" 
d="M1139 0q-207 -120 -207 -262q0 -71 49 -105t152 -34h6v-33h-6q-236 0 -236 172q0 158 207 270v303q-48 -156 -171.5 -246t-295.5 -90q-226 0 -366 150t-140 387t140 387t366 150q172 0 295.5 -90t171.5 -246v311h35v-1024zM637 8q204 0 336.5 140.5t132.5 363.5
t-132.5 363.5t-336.5 140.5t-336.5 -140.5t-132.5 -363.5t132.5 -363.5t336.5 -140.5z" />
    <glyph glyph-name="aring.ss01" horiz-adv-x="1343" 
d="M688 1208q-90 0 -149.5 58t-59.5 145t59.5 145t149.5 58t149.5 -58t59.5 -145t-59.5 -145t-149.5 -58zM688 1581q-78 0 -126 -47.5t-48 -122.5t48 -122.5t126 -47.5t126 47.5t48 122.5t-48 122.5t-126 47.5zM1104 1024h35v-1024h-35v311q-48 -156 -171.5 -246t-295.5 -90
q-226 0 -366 150t-140 387t140 387t366 150q172 0 295.5 -90t171.5 -246v311zM637 8q204 0 336.5 140.5t132.5 363.5t-132.5 363.5t-336.5 140.5t-336.5 -140.5t-132.5 -363.5t132.5 -363.5t336.5 -140.5z" />
    <glyph glyph-name="atilde.ss01" horiz-adv-x="1343" 
d="M539 1417q-48 0 -77.5 -39.5t-29.5 -107.5h-33q0 81 40 129.5t100 48.5q75 0 163 -88q41 -41 70.5 -56.5t65.5 -15.5q48 0 77 40t29 110h33q0 -83 -39.5 -132t-99.5 -49q-77 0 -166 89q-38 39 -67.5 55t-65.5 16zM1104 1024h35v-1024h-35v311q-48 -156 -171.5 -246
t-295.5 -90q-226 0 -366 150t-140 387t140 387t366 150q172 0 295.5 -90t171.5 -246v311zM637 8q204 0 336.5 140.5t132.5 363.5t-132.5 363.5t-336.5 140.5t-336.5 -140.5t-132.5 -363.5t132.5 -363.5t336.5 -140.5z" />
    <glyph glyph-name="j.ss02" horiz-adv-x="448" 
d="M223 1321q-19 0 -31 12t-12 31t12 31t31 12t31 -12t12 -31t-12 -31t-31 -12zM207 -410v1434h35v-1434h-35z" />
    <glyph glyph-name="uni0237.ss02" horiz-adv-x="448" 
d="M207 -410v1434h35v-1434h-35z" />
    <glyph glyph-name="uni006A0301.ss02" horiz-adv-x="448" 
d="M133 1198l227 318h46l-232 -318h-41zM207 -410v1434h35v-1434h-35z" />
    <glyph glyph-name="jcircumflex.ss02" horiz-adv-x="448" 
d="M244 1516l256 -318h-41l-234 291l-233 -291h-41l256 318h37zM207 -410v1434h35v-1434h-35z" />
    <glyph glyph-name="t.ss03" horiz-adv-x="739" 
d="M352 0v991h-311v33h311v311h35v-311h311v-33h-311v-991h-35z" />
    <glyph glyph-name="tbar.ss03" horiz-adv-x="739" 
d="M698 991h-311v-422h270v-32h-270v-537h-35v537h-270v32h270v422h-311v33h311v311h35v-311h311v-33z" />
    <glyph glyph-name="tcaron.ss03" horiz-adv-x="751" 
d="M612 1217v382h37l-6 -382h-31zM352 0v991h-311v33h311v311h35v-311h311v-33h-311v-991h-35z" />
    <glyph glyph-name="uni0163.ss03" horiz-adv-x="739" 
d="M352 0v991h-311v33h311v311h35v-311h311v-33h-311v-991h-35zM258 -545l82 338h37l-88 -338h-31z" />
    <glyph glyph-name="uni021B.ss03" horiz-adv-x="739" 
d="M352 0v991h-311v33h311v311h35v-311h311v-33h-311v-991h-35zM258 -545l82 338h37l-88 -338h-31z" />
    <glyph glyph-name="y.ss04" horiz-adv-x="1226" 
d="M987 1024h35v-999q0 -215 -118 -337t-331 -122q-128 0 -235 46t-174 132l26 23q59 -79 162 -123.5t221 -44.5q192 0 303 114t111 312v254q-37 -128 -150 -203.5t-274 -75.5q-186 0 -281.5 107t-95.5 321v596h35v-596q0 -395 342 -395q187 0 305.5 111.5t118.5 304.5v575z
" />
    <glyph glyph-name="yacute.ss04" horiz-adv-x="1226" 
d="M815 1516l-262 -318h-41l258 318h45zM987 1024h35v-999q0 -215 -118 -337t-331 -122q-128 0 -235 46t-174 132l26 23q59 -79 162 -123.5t221 -44.5q192 0 303 114t111 312v254q-37 -128 -150 -203.5t-274 -75.5q-186 0 -281.5 107t-95.5 321v596h35v-596q0 -395 342 -395
q187 0 305.5 111.5t118.5 304.5v575z" />
    <glyph glyph-name="ycircumflex.ss04" horiz-adv-x="1226" 
d="M604 1489l-262 -291h-41l285 318h37l284 -318h-41zM987 1024h35v-999q0 -215 -118 -337t-331 -122q-128 0 -235 46t-174 132l26 23q59 -79 162 -123.5t221 -44.5q192 0 303 114t111 312v254q-37 -128 -150 -203.5t-274 -75.5q-186 0 -281.5 107t-95.5 321v596h35v-596
q0 -395 342 -395q187 0 305.5 111.5t118.5 304.5v575z" />
    <glyph glyph-name="ydieresis.ss04" horiz-adv-x="1226" 
d="M395 1321q-19 0 -31 12t-12 31t12 31t31 12t31 -12t12 -31t-12 -31t-31 -12zM813 1321q-19 0 -31 12t-12 31t12 31t31 12t31 -12t12 -31t-12 -31t-31 -12zM987 1024h35v-999q0 -215 -118 -337t-331 -122q-128 0 -235 46t-174 132l26 23q59 -79 162 -123.5t221 -44.5
q192 0 303 114t111 312v254q-37 -128 -150 -203.5t-274 -75.5q-186 0 -281.5 107t-95.5 321v596h35v-596q0 -395 342 -395q187 0 305.5 111.5t118.5 304.5v575z" />
    <glyph glyph-name="ygrave.ss04" horiz-adv-x="1226" 
d="M698 1198h-41l-262 318h45zM987 1024h35v-999q0 -215 -118 -337t-331 -122q-128 0 -235 46t-174 132l26 23q59 -79 162 -123.5t221 -44.5q192 0 303 114t111 312v254q-37 -128 -150 -203.5t-274 -75.5q-186 0 -281.5 107t-95.5 321v596h35v-596q0 -395 342 -395
q187 0 305.5 111.5t118.5 304.5v575z" />
    <glyph glyph-name="zero.zero" horiz-adv-x="1425" 
d="M713 1458q249 0 393.5 -190t144.5 -551t-144.5 -551.5t-393.5 -190.5t-394 190.5t-145 551.5t145 551t394 190zM213 717q0 -426 209 -606l557 1230q-113 82 -266 82q-231 0 -365.5 -180.5t-134.5 -525.5zM713 10q231 0 365 181t134 526q0 427 -206 604l-557 -1231
q112 -80 264 -80z" />
    <glyph glyph-name="zero.lf" horiz-adv-x="1425" 
d="M713 -25q-249 0 -394 190.5t-145 551.5t145 551t394 190t393.5 -190t144.5 -551t-144.5 -551.5t-393.5 -190.5zM713 10q231 0 365 181t134 526t-134 525.5t-365 180.5t-365.5 -180.5t-134.5 -525.5t134.5 -526t365.5 -181z" />
    <glyph glyph-name="one.lf" horiz-adv-x="849" 
d="M553 1434h31v-1434h-37v1393l-436 -228v37z" />
    <glyph glyph-name="two.lf" horiz-adv-x="1191" 
d="M168 35h897v-35h-954v29l610 569q148 137 211 249t63 226q0 162 -105.5 256t-273.5 94q-155 0 -273.5 -85.5t-188.5 -258.5l-31 13q68 181 198.5 273.5t294.5 92.5q182 0 299 -107t117 -278q0 -120 -66.5 -237.5t-215.5 -257.5z" />
    <glyph glyph-name="three.lf" horiz-adv-x="1142" 
d="M688 731q164 -32 248 -121t84 -227q0 -182 -133.5 -295t-341.5 -113q-142 0 -264.5 56t-198.5 164l27 20q73 -102 186 -153.5t250 -51.5q199 0 318.5 102t119.5 271q0 336 -502 336h-92v35h186q187 0 289.5 86.5t102.5 236.5q0 157 -107 251.5t-285 94.5q-146 0 -263 -64
t-183 -179l-29 18q73 124 197.5 192t277.5 68q196 0 312.5 -107.5t116.5 -273.5q0 -137 -83 -229.5t-233 -116.5z" />
    <glyph glyph-name="four.lf" horiz-adv-x="1234" 
d="M1190 395v-35h-240v-360h-37v360h-819v35l805 1039h51v-1039h240zM141 395h772v998z" />
    <glyph glyph-name="five.lf" horiz-adv-x="1181" 
d="M610 874q205 0 332 -117.5t127 -316.5q0 -206 -136 -335.5t-360 -129.5q-134 0 -250 52t-200 155l27 21q75 -95 184 -144t239 -49q205 0 332 115t127 315q0 188 -113 295t-309 107q-206 0 -387 -146l-30 17v721h808v-33h-774v-664q179 137 383 137z" />
    <glyph glyph-name="six.lf" horiz-adv-x="1216" 
d="M625 950q217 0 357 -130t140 -357t-140 -357.5t-359 -130.5t-359.5 130.5t-140.5 357.5q0 108 39.5 210.5t136.5 233.5l387 527h47l-430 -584q131 100 322 100zM623 10q207 0 333.5 121t126.5 332t-126.5 331.5t-333.5 120.5t-334 -120.5t-127 -331.5t127 -332t334 -121z
" />
    <glyph glyph-name="seven.lf" horiz-adv-x="1052" 
d="M61 1434h930v-31l-686 -1403h-41l684 1399h-887v35z" />
    <glyph glyph-name="eight.lf" horiz-adv-x="1282" 
d="M784 737q168 -31 261.5 -130t93.5 -242q0 -173 -134 -281.5t-364 -108.5t-364 108.5t-134 281.5q0 143 93.5 242t261.5 130q-150 31 -233 124t-83 226q0 165 123.5 268t335.5 103t335.5 -103t123.5 -268q0 -133 -83 -226t-233 -124zM219 1087q0 -151 112.5 -242
t309.5 -91t309.5 91t112.5 242q0 153 -112.5 244.5t-309.5 91.5t-309.5 -91.5t-112.5 -244.5zM641 10q215 0 338 97t123 258t-123 257.5t-338 96.5t-338 -96.5t-123 -257.5t123 -258t338 -97z" />
    <glyph glyph-name="nine.lf" horiz-adv-x="1216" 
d="M594 1458q219 0 359.5 -130t140.5 -357q0 -108 -39.5 -211t-136.5 -234l-388 -526h-47l430 584q-133 -101 -321 -101q-217 0 -357.5 130.5t-140.5 357.5t140.5 357t359.5 130zM594 518q207 0 334 121t127 332t-127 331.5t-334 120.5t-334 -120.5t-127 -331.5t127 -332
t334 -121z" />
    <glyph glyph-name="zero.tf" 
d="M727 -25q-243 0 -377.5 189t-134.5 553q0 363 134.5 552t377.5 189t377.5 -189t134.5 -552q0 -364 -134.5 -553t-377.5 -189zM727 10q225 0 350 180t125 527t-125 526.5t-350 179.5t-350 -179.5t-125 -526.5t125 -527t350 -180z" />
    <glyph glyph-name="one.tf" 
d="M809 35h438v-35h-950v35h475v1358l-436 -228v37l442 232h31v-1399z" />
    <glyph glyph-name="two.tf" 
d="M303 35h897v-35h-954v29l610 569q148 137 211 249t63 226q0 163 -105 256.5t-273 93.5q-155 0 -274 -85.5t-189 -258.5l-31 13q68 181 199 273.5t295 92.5q182 0 298.5 -107t116.5 -278q0 -120 -66.5 -237.5t-215.5 -257.5z" />
    <glyph glyph-name="three.tf" 
d="M850 731q164 -32 248 -121t84 -227q0 -182 -133.5 -295t-341.5 -113q-142 0 -264.5 56t-198.5 164l26 20q73 -102 186.5 -153.5t250.5 -51.5q199 0 318.5 102t119.5 271q0 336 -502 336h-92v35h186q187 0 289 86.5t102 236.5q0 157 -106.5 251.5t-284.5 94.5
q-146 0 -263 -64t-183 -179l-29 18q73 124 197.5 192t277.5 68q196 0 312 -107.5t116 -273.5q0 -137 -82.5 -229.5t-232.5 -116.5z" />
    <glyph glyph-name="four.tf" 
d="M1300 395v-35h-239v-360h-37v360h-819v35l805 1039h51v-1039h239zM252 395h772v998z" />
    <glyph glyph-name="five.tf" 
d="M752 874q205 0 331.5 -117.5t126.5 -316.5q0 -206 -135.5 -335.5t-359.5 -129.5q-134 0 -250.5 52t-200.5 155l27 21q75 -95 184.5 -144t239.5 -49q205 0 332 115t127 315q0 188 -113 295t-309 107q-206 0 -387 -146l-31 17v721h809v-33h-774v-664q179 137 383 137z" />
    <glyph glyph-name="six.tf" 
d="M741 950q142 0 253.5 -56t178 -168t66.5 -263q0 -227 -140.5 -357.5t-359.5 -130.5t-359 130.5t-140 357.5q0 108 39.5 210.5t136.5 233.5l387 527h47l-430 -584q131 100 321 100zM739 10q207 0 334 121t127 332t-127 331.5t-334 120.5t-333.5 -120.5t-126.5 -331.5
t126.5 -332t333.5 -121z" />
    <glyph glyph-name="seven.tf" 
d="M266 1434h959v-31l-686 -1403h-41l684 1399h-916v35z" />
    <glyph glyph-name="eight.tf" 
d="M870 737q168 -31 261.5 -130t93.5 -242q0 -173 -134 -281.5t-364 -108.5t-364 108.5t-134 281.5q0 143 93.5 242t261.5 130q-150 31 -233 124t-83 226q0 165 123.5 268t335.5 103t335.5 -103t123.5 -268q0 -133 -83 -226t-233 -124zM305 1087q0 -151 112.5 -242
t309.5 -91t309.5 91t112.5 242q0 153 -112.5 244.5t-309.5 91.5t-309.5 -91.5t-112.5 -244.5zM727 10q215 0 338 97t123 258t-123 257.5t-338 96.5t-338 -96.5t-123 -257.5t123 -258t338 -97z" />
    <glyph glyph-name="nine.tf" 
d="M723 1458q219 0 359.5 -130t140.5 -357q0 -108 -39.5 -211t-136.5 -234l-388 -526h-47l430 584q-133 -101 -321 -101q-217 0 -357.5 130.5t-140.5 357.5t140.5 357t359.5 130zM723 518q207 0 334 121t127 332t-127 331.5t-334 120.5t-334 -120.5t-127 -331.5t127 -332
t334 -121z" />
    <glyph glyph-name="zero.tf.zero" 
d="M727 1458q243 0 377.5 -189t134.5 -552q0 -364 -134.5 -553t-377.5 -189t-377.5 189t-134.5 553q0 363 134.5 552t377.5 189zM252 717q0 -423 186 -600l553 1220q-109 86 -264 86q-225 0 -350 -179.5t-125 -526.5zM727 10q225 0 350 180t125 527q0 423 -184 598
l-553 -1221q110 -84 262 -84z" />
    <glyph glyph-name="zero.subs" horiz-adv-x="774" 
d="M387 -147q-137 0 -216 103.5t-79 297.5t79 297.5t216 103.5t216 -103.5t79 -297.5t-79 -297.5t-216 -103.5zM387 -115q122 0 190 94t68 275t-68 275t-190 94t-190 -94t-68 -275t68 -275t190 -94z" />
    <glyph glyph-name="one.subs" horiz-adv-x="491" 
d="M309 641h29v-774h-35v735l-229 -121v37z" />
    <glyph glyph-name="two.subs" horiz-adv-x="675" 
d="M131 -100h467v-33h-520v29l319 299q82 75 115 132t33 117q0 83 -53.5 131t-139.5 48q-80 0 -142.5 -44t-98.5 -133l-29 15q39 96 110 145t160 49q100 0 164 -59t64 -152q0 -64 -35.5 -127.5t-116.5 -138.5z" />
    <glyph glyph-name="three.subs" horiz-adv-x="667" 
d="M416 262q83 -19 126.5 -66.5t43.5 -119.5q0 -99 -72 -161t-186 -62q-78 0 -145 29.5t-109 86.5l22 21q80 -105 232 -105q104 0 163.5 52t59.5 137q0 174 -258 174h-53v31h98q99 0 152 45t53 122q0 79 -55 128t-146 49q-75 0 -135.5 -32.5t-97.5 -92.5l-25 18
q43 69 110.5 104t147.5 35q107 0 171.5 -58.5t64.5 -150.5q0 -73 -43 -122.5t-119 -61.5z" />
    <glyph glyph-name="four.subs" horiz-adv-x="702" 
d="M662 88v-31h-127v-190h-33v190h-436v31l421 553h48v-553h127zM106 88h396v516z" />
    <glyph glyph-name="five.subs" horiz-adv-x="669" 
d="M350 340q112 0 181 -63.5t69 -170.5q0 -113 -74 -183t-198 -70q-157 0 -254 112l22 21q88 -101 232 -101q107 0 172 59t65 162q0 95 -57.5 149t-157.5 54q-109 0 -200 -73l-29 16v389h444v-31h-411v-336q92 66 196 66z" />
    <glyph glyph-name="six.subs" horiz-adv-x="688" 
d="M356 381q116 0 191.5 -70.5t75.5 -193.5t-76.5 -193.5t-196.5 -70.5t-196 71t-76 195q0 62 22.5 119.5t75.5 130.5l201 272h43l-234 -313q67 53 170 53zM350 -115q108 0 173 61.5t65 170.5t-65.5 171t-172.5 62t-172 -62t-65 -171t65 -170.5t172 -61.5z" />
    <glyph glyph-name="seven.subs" horiz-adv-x="595" 
d="M45 641h506v-29l-363 -745h-38l364 741h-469v33z" />
    <glyph glyph-name="eight.subs" horiz-adv-x="714" 
d="M451 264q84 -19 131 -71.5t47 -126.5q0 -94 -73 -153.5t-198 -59.5q-126 0 -199 59.5t-73 153.5q0 74 47 126.5t133 71.5q-76 20 -118 70t-42 119q0 90 68 146t184 56q115 0 182.5 -56.5t67.5 -145.5q0 -69 -41 -119t-116 -70zM141 453q0 -78 57.5 -125t159.5 -47
q101 0 158 47t57 125t-57 124t-158 46q-103 0 -160 -46t-57 -124zM358 -115q111 0 173.5 49t62.5 132t-62.5 132.5t-173.5 49.5q-112 0 -174.5 -49.5t-62.5 -132.5t62.5 -132t174.5 -49z" />
    <glyph glyph-name="nine.subs" horiz-adv-x="688" 
d="M342 655q120 0 196 -71t76 -195q0 -62 -22.5 -119.5t-75.5 -130.5l-201 -272h-43l234 313q-67 -53 -170 -53q-116 0 -191 70.5t-75 193.5t76 193.5t196 70.5zM104 391q0 -109 65.5 -171t172.5 -62t172.5 62t65.5 171t-65 170.5t-173 61.5t-173 -61.5t-65 -170.5z" />
    <glyph glyph-name="zero.dnom" horiz-adv-x="774" 
d="M387 -25q-136 0 -215.5 104t-79.5 298t79 297.5t216 103.5t216 -103.5t79 -297.5t-79.5 -298t-215.5 -104zM387 8q122 0 190 94t68 275t-68 274.5t-190 93.5t-190 -93.5t-68 -274.5t68 -275t190 -94z" />
    <glyph glyph-name="one.dnom" horiz-adv-x="491" 
d="M309 764h29v-774h-35v735l-229 -121v37z" />
    <glyph glyph-name="two.dnom" horiz-adv-x="675" 
d="M131 23h467v-33h-520v28l319 299q81 75 114.5 132.5t33.5 117.5q0 83 -53.5 130.5t-139.5 47.5q-80 0 -142.5 -44t-98.5 -132l-29 15q39 96 110 145t160 49q100 0 164 -59t64 -152q0 -64 -35.5 -127.5t-116.5 -138.5z" />
    <glyph glyph-name="three.dnom" horiz-adv-x="667" 
d="M416 385q83 -19 126.5 -66.5t43.5 -119.5q0 -100 -72 -162t-186 -62q-77 0 -144.5 30t-109.5 87l22 21q80 -105 232 -105q104 0 163.5 52t59.5 137q0 174 -258 174h-53v30h98q99 0 152 45.5t53 122.5q0 79 -54.5 127.5t-146.5 48.5q-75 0 -135.5 -32t-97.5 -92l-25 18
q43 69 110.5 104t147.5 35q107 0 171.5 -58.5t64.5 -150.5q0 -73 -43 -122.5t-119 -61.5z" />
    <glyph glyph-name="four.dnom" horiz-adv-x="702" 
d="M662 211v-31h-127v-190h-33v190h-436v31l421 553h48v-553h127zM106 211h396v516z" />
    <glyph glyph-name="five.dnom" horiz-adv-x="669" 
d="M350 463q112 0 181 -63.5t69 -170.5q0 -113 -74 -183.5t-198 -70.5q-156 0 -254 113l22 21q88 -101 232 -101q107 0 172 59t65 162q0 95 -57.5 149t-157.5 54q-108 0 -200 -74l-29 17v389h444v-31h-411v-336q92 66 196 66z" />
    <glyph glyph-name="six.dnom" horiz-adv-x="688" 
d="M356 504q116 0 191.5 -70.5t75.5 -193.5t-76.5 -194t-196.5 -71t-196 71t-76 196q0 62 22.5 119.5t75.5 130.5l201 272h43l-234 -313q67 53 170 53zM350 8q108 0 173 61.5t65 170.5t-65.5 171t-172.5 62t-172 -62t-65 -171t65 -170.5t172 -61.5z" />
    <glyph glyph-name="seven.dnom" horiz-adv-x="595" 
d="M45 764h506v-29l-363 -745h-38l364 741h-469v33z" />
    <glyph glyph-name="eight.dnom" horiz-adv-x="714" 
d="M451 387q84 -19 131 -72t47 -127q0 -94 -73 -153.5t-198 -59.5q-126 0 -199 59.5t-73 153.5q0 74 47.5 127t132.5 72q-76 20 -118 69.5t-42 118.5q0 90 68 146.5t184 56.5q115 0 182.5 -56.5t67.5 -146.5q0 -69 -41 -118.5t-116 -69.5zM141 575q0 -78 57.5 -125
t159.5 -47q101 0 158 47t57 125t-57 124t-158 46q-103 0 -160 -46t-57 -124zM358 8q111 0 173.5 48.5t62.5 131.5t-62.5 133t-173.5 50q-112 0 -174.5 -50t-62.5 -133t62.5 -131.5t174.5 -48.5z" />
    <glyph glyph-name="nine.dnom" horiz-adv-x="688" 
d="M342 778q120 0 196 -71t76 -195q0 -62 -22.5 -119.5t-75.5 -130.5l-201 -272h-43l234 313q-67 -53 -170 -53q-116 0 -191 70.5t-75 193.5t76 193.5t196 70.5zM104 514q0 -109 65.5 -171t172.5 -62t172.5 62t65.5 171q0 108 -65 169.5t-173 61.5t-173 -61.5t-65 -169.5z
" />
    <glyph glyph-name="zero.numr" horiz-adv-x="774" 
d="M387 655q-136 0 -215.5 104t-79.5 298t79 297.5t216 103.5t216 -103.5t79 -297.5t-79.5 -298t-215.5 -104zM387 688q122 0 190 94t68 275t-68 274.5t-190 93.5t-190 -93.5t-68 -274.5t68 -275t190 -94z" />
    <glyph glyph-name="one.numr" horiz-adv-x="491" 
d="M309 1444h29v-774h-35v735l-229 -121v37z" />
    <glyph glyph-name="two.numr" horiz-adv-x="675" 
d="M131 702h467v-32h-520v28l319 299q81 75 114.5 132.5t33.5 117.5q0 83 -53.5 130.5t-139.5 47.5q-80 0 -142.5 -44t-98.5 -132l-29 15q39 96 110 145t160 49q100 0 164 -59t64 -152q0 -64 -35.5 -127.5t-116.5 -138.5z" />
    <glyph glyph-name="three.numr" horiz-adv-x="667" 
d="M416 1065q83 -19 126.5 -66.5t43.5 -119.5q0 -100 -72 -162t-186 -62q-77 0 -144.5 30t-109.5 87l22 21q80 -105 232 -105q104 0 163.5 52t59.5 137q0 174 -258 174h-53v30h98q99 0 152 45.5t53 122.5q0 79 -54.5 127.5t-146.5 48.5q-75 0 -135.5 -32.5t-97.5 -92.5
l-25 19q43 69 110.5 104t147.5 35q107 0 171.5 -58.5t64.5 -150.5q0 -73 -43 -122.5t-119 -61.5z" />
    <glyph glyph-name="four.numr" horiz-adv-x="702" 
d="M662 891v-31h-127v-190h-33v190h-436v31l421 553h48v-553h127zM106 891h396v516z" />
    <glyph glyph-name="five.numr" horiz-adv-x="669" 
d="M350 1143q112 0 181 -63.5t69 -170.5q0 -113 -74 -183.5t-198 -70.5q-156 0 -254 113l22 20q87 -100 232 -100q107 0 172 59t65 162q0 95 -57.5 149t-157.5 54q-108 0 -200 -74l-29 17v389h444v-31h-411v-336q92 66 196 66z" />
    <glyph glyph-name="six.numr" horiz-adv-x="688" 
d="M356 1184q116 0 191.5 -70.5t75.5 -193.5t-76.5 -194t-196.5 -71t-196 71t-76 196q0 62 22 119t76 130l201 273h43l-234 -314q69 54 170 54zM350 688q108 0 173 61.5t65 170.5t-65.5 171t-172.5 62t-172 -62t-65 -171t65 -170.5t172 -61.5z" />
    <glyph glyph-name="seven.numr" horiz-adv-x="595" 
d="M45 1444h506v-29l-363 -745h-38l364 741h-469v33z" />
    <glyph glyph-name="eight.numr" horiz-adv-x="714" 
d="M451 1067q84 -19 131 -72t47 -127q0 -94 -73 -153.5t-198 -59.5q-126 0 -199 59.5t-73 153.5q0 74 47.5 127t132.5 72q-76 20 -118 69.5t-42 118.5q0 90 68 146.5t184 56.5q115 0 182.5 -56.5t67.5 -146.5q0 -69 -41 -118.5t-116 -69.5zM141 1255q0 -78 57.5 -125
t159.5 -47q101 0 158 47t57 125t-57 124t-158 46q-103 0 -160 -46t-57 -124zM358 688q111 0 173.5 48.5t62.5 131.5t-62.5 133t-173.5 50q-112 0 -174.5 -50t-62.5 -133t62.5 -131.5t174.5 -48.5z" />
    <glyph glyph-name="nine.numr" horiz-adv-x="688" 
d="M342 1458q120 0 196 -71t76 -195q0 -62 -22.5 -119.5t-75.5 -130.5l-201 -272h-43l234 313q-67 -53 -170 -53q-116 0 -191 70.5t-75 193.5t76 193.5t196 70.5zM104 1194q0 -109 65.5 -171t172.5 -62t172.5 62t65.5 171q0 108 -65 169.5t-173 61.5t-173 -61.5t-65 -169.5z
" />
    <glyph glyph-name="zero.sups" horiz-adv-x="774" 
d="M387 713q-137 0 -216 103.5t-79 297.5t79.5 298t215.5 104t215.5 -104t79.5 -298t-79 -297.5t-216 -103.5zM387 745q122 0 190 94t68 275t-68 275t-190 94t-190 -94t-68 -275t68 -275t190 -94z" />
    <glyph glyph-name="one.sups" horiz-adv-x="491" 
d="M309 1501h29v-774h-35v735l-229 -121v37z" />
    <glyph glyph-name="two.sups" horiz-adv-x="675" 
d="M131 760h467v-33h-520v29l319 299q81 75 114.5 132.5t33.5 117.5q0 83 -53.5 130.5t-139.5 47.5q-80 0 -142.5 -44t-98.5 -132l-29 14q39 96 110 145.5t160 49.5q100 0 164 -59t64 -152q0 -125 -152 -267z" />
    <glyph glyph-name="three.sups" horiz-adv-x="667" 
d="M416 1122q83 -19 126.5 -66.5t43.5 -119.5q0 -99 -72 -161t-186 -62q-78 0 -145 29.5t-109 86.5l22 21q80 -105 232 -105q104 0 163.5 52t59.5 137q0 174 -258 174h-53v31h98q99 0 152 45.5t53 122.5q0 79 -54.5 127.5t-146.5 48.5q-75 0 -135.5 -32.5t-97.5 -92.5
l-25 18q43 69 110.5 104.5t147.5 35.5q107 0 171.5 -58.5t64.5 -150.5q0 -73 -43 -123t-119 -62z" />
    <glyph glyph-name="four.sups" horiz-adv-x="702" 
d="M662 948v-30h-127v-191h-33v191h-436v30l421 553h48v-553h127zM106 948h396v516z" />
    <glyph glyph-name="five.sups" horiz-adv-x="669" 
d="M350 1200q112 0 181 -63t69 -170q0 -113 -74 -183.5t-198 -70.5q-157 0 -254 112l22 21q88 -101 232 -101q107 0 172 59.5t65 162.5q0 95 -57.5 148.5t-157.5 53.5q-109 0 -200 -73l-29 16v389h444v-31h-411v-335q91 65 196 65z" />
    <glyph glyph-name="six.sups" horiz-adv-x="688" 
d="M356 1241q116 0 191.5 -70.5t75.5 -193.5t-76.5 -193.5t-196.5 -70.5t-196 71t-76 195q0 62 22.5 119.5t75.5 130.5l201 272h43l-234 -313q67 53 170 53zM350 745q108 0 173 61.5t65 170.5t-65.5 171t-172.5 62t-172 -62t-65 -171t65 -170.5t172 -61.5z" />
    <glyph glyph-name="seven.sups" horiz-adv-x="595" 
d="M45 1501h506v-28l-363 -746h-38l364 741h-469v33z" />
    <glyph glyph-name="eight.sups" horiz-adv-x="714" 
d="M451 1124q84 -19 131 -71.5t47 -126.5q0 -94 -73 -153.5t-198 -59.5q-126 0 -199 59.5t-73 153.5q0 74 47 126.5t133 71.5q-76 20 -118 70t-42 119q0 90 68 146.5t184 56.5q115 0 182.5 -56.5t67.5 -146.5q0 -69 -41 -119t-116 -70zM141 1313q0 -78 57.5 -125t159.5 -47
q101 0 158 47t57 125t-57 124t-158 46q-103 0 -160 -46t-57 -124zM358 745q111 0 173.5 49t62.5 132t-62.5 132.5t-173.5 49.5q-112 0 -174.5 -49.5t-62.5 -132.5t62.5 -132t174.5 -49z" />
    <glyph glyph-name="nine.sups" horiz-adv-x="688" 
d="M342 1516q120 0 196 -71t76 -196q0 -62 -22.5 -119.5t-75.5 -130.5l-201 -272h-43l234 313q-67 -53 -170 -53q-116 0 -191 70.5t-75 193.5t76 194t196 71zM104 1251q0 -109 65.5 -171t172.5 -62t172.5 62t65.5 171t-65 170.5t-173 61.5t-173 -61.5t-65 -170.5z" />
    <glyph glyph-name="colon.case" horiz-adv-x="440" 
d="M225 1079q-19 0 -31 12t-12 31t12 31t31 12t31 -12t12 -31t-12 -31t-31 -12zM225 242q-19 0 -31 12t-12 31t12 31t31 12t31 -12t12 -31t-12 -31t-31 -12z" />
    <glyph glyph-name="exclamdown.case" horiz-adv-x="536" 
d="M268 1434q19 0 31 -12t12 -31t-12 -31t-31 -12t-31 12t-12 31t12 31t31 12zM252 1065h33l2 -1065h-37z" />
    <glyph glyph-name="questiondown.case" horiz-adv-x="915" 
d="M494 1434q19 0 31 -12t12 -31t-12 -31t-31 -12t-31 12t-12 31t12 31t31 12zM512 1065v-147q0 -100 -26.5 -150t-123.5 -129l-100 -84q-143 -120 -143 -272q0 -128 86.5 -200.5t222.5 -72.5q130 0 235 66.5t160 189.5l31 -16q-58 -131 -171 -203t-255 -72
q-155 0 -250.5 83.5t-95.5 224.5q0 171 170 311l100 84q81 67 102 109t21 131v147h37z" />
    <glyph glyph-name="periodcentered.case" horiz-adv-x="430" 
d="M215 692q-19 0 -31 12t-12 31t12 31t31 12t31 -12t12 -31t-12 -31t-31 -12z" />
    <glyph glyph-name="bullet.case" horiz-adv-x="937" 
d="M469 555q-78 0 -130 52t-52 130t52 130.5t130 52.5t130 -52.5t52 -130.5t-52 -130t-130 -52z" />
    <glyph glyph-name="parenleft.case" horiz-adv-x="604" 
d="M494 -182q-153 182 -236.5 417t-83.5 482t83.5 482t236.5 417l28 -21q-148 -175 -229.5 -408t-81.5 -470t81.5 -470.5t229.5 -408.5z" />
    <glyph glyph-name="parenright.case" horiz-adv-x="604" 
d="M111 -182l-29 20q148 175 229.5 408.5t81.5 470.5t-81.5 470t-229.5 408l29 21q153 -182 236 -417t83 -482t-83 -482t-236 -417z" />
    <glyph glyph-name="braceleft.case" horiz-adv-x="714" 
d="M330 909q0 -85 -28.5 -131t-92.5 -61q64 -15 92.5 -61t28.5 -132v-430q0 -130 41 -175.5t153 -45.5h109v-33h-109q-129 0 -179 55t-50 199v430q0 96 -37 136t-129 40h-16v33h16q92 0 129 40t37 136v430q0 144 50 199t179 55h109v-32h-109q-112 0 -153 -46t-41 -176v-430z
" />
    <glyph glyph-name="braceright.case" horiz-adv-x="714" 
d="M586 733h16v-33h-16q-92 0 -129 -40t-37 -136v-430q0 -144 -50 -199t-180 -55h-108v33h108q112 0 153.5 45.5t41.5 175.5v430q0 86 28.5 132t92.5 61q-64 15 -92.5 61t-28.5 131v430q0 130 -41.5 176t-153.5 46h-108v32h108q130 0 180 -55t50 -199v-430q0 -96 37 -136
t129 -40z" />
    <glyph glyph-name="bracketleft.case" horiz-adv-x="737" 
d="M655 1561h-366v-1688h366v-33h-401v1753h401v-32z" />
    <glyph glyph-name="bracketright.case" horiz-adv-x="737" 
d="M82 1593h401v-1753h-401v33h367v1688h-367v32z" />
    <glyph glyph-name="hyphen.case" horiz-adv-x="839" 
d="M133 723v33h574v-33h-574z" />
    <glyph glyph-name="endash.case" horiz-adv-x="1290" 
d="M133 723v33h1024v-33h-1024z" />
    <glyph glyph-name="emdash.case" horiz-adv-x="2314" 
d="M133 721v33h2048v-33h-2048z" />
    <glyph glyph-name="guillemotleft.case" horiz-adv-x="903" 
d="M385 1157h43l-293 -418l293 -417h-43l-293 417zM791 1157l-293 -418l293 -417h-43l-293 417l293 418h43z" />
    <glyph glyph-name="guillemotright.case" horiz-adv-x="903" 
d="M113 1157h43l293 -418l-293 -417h-43l293 417zM518 1157l293 -418l-293 -417h-43l293 417l-293 418h43z" />
    <glyph glyph-name="guilsinglleft.case" horiz-adv-x="540" 
d="M428 1157l-293 -418l293 -417h-43l-293 417l293 418h43z" />
    <glyph glyph-name="guilsinglright.case" horiz-adv-x="540" 
d="M156 1157l293 -418l-293 -417h-43l293 417l-293 418h43z" />
    <glyph glyph-name="cent.tf" 
d="M780 213q131 2 235.5 61t153.5 164l31 -14q-55 -116 -165.5 -179t-254.5 -65v-180h-35v180q-220 9 -350.5 156.5t-130.5 380.5t130.5 380t350.5 156v181h35v-181q144 -2 254.5 -64.5t165.5 -178.5l-31 -15q-49 106 -153.5 165t-235.5 61v-1008zM301 717q0 -221 123 -358
t321 -146v1008q-198 -9 -321 -146t-123 -358z" />
    <glyph glyph-name="currency.tf" 
d="M1022 702q0 -160 -92 -272l133 -133l-25 -25l-131 131q-110 -110 -286 -110q-175 0 -285 113l-131 -134l-27 25l133 133q-90 114 -90 272q0 159 90 273l-131 133l25 25l131 -134q110 113 285 113q176 0 286 -113l131 134l25 -25l-131 -133q90 -114 90 -273zM621 326
q162 0 264 105t102 271t-102 271.5t-264 105.5q-161 0 -264 -105.5t-103 -271.5t103 -271t264 -105z" />
    <glyph glyph-name="dollar.tf" 
d="M1198 391q0 -162 -117.5 -257.5t-318.5 -98.5v-137h-35v137q-177 4 -296.5 83.5t-174.5 223.5l31 12q112 -275 440 -284v643l-68 16q-194 46 -280 122.5t-86 203.5q0 156 115.5 249.5t318.5 94.5v137h35v-137q156 -6 263.5 -70t154.5 -178l-31 -14q-45 108 -144 165
t-243 62v-625l88 -20q188 -44 268 -124t80 -204zM668 762l59 -14v616q-189 -2 -293 -82t-104 -227q0 -112 74.5 -180.5t263.5 -112.5zM762 70q188 3 293.5 89t105.5 232q0 113 -75 184t-252 113l-72 17v-635z" />
    <glyph glyph-name="Euro.tf" 
d="M864 10q136 0 242.5 90.5t155.5 253.5l32 -8q-52 -171 -165 -271t-265 -100q-191 0 -326.5 157.5t-170.5 416.5h-203v33h198q-6 64 -6 135t6 135h-198v33h203q35 259 170.5 416t326.5 157q152 0 265 -100t165 -271l-32 -8q-49 163 -155.5 253.5t-242.5 90.5
q-175 0 -299.5 -146.5t-158.5 -391.5h595v-33h-600q-8 -57 -8 -135t8 -135h600v-33h-595q34 -245 158.5 -392t299.5 -147z" />
    <glyph glyph-name="florin.tf" 
d="M1081 1401q-106 0 -167 -55.5t-83 -169.5l-67 -357h362v-33h-368l-154 -815q-26 -136 -94.5 -197t-190.5 -61h-65v33h65q105 0 165.5 55t82.5 170l154 815h-352v33h358l68 357q26 136 95 197t191 61h66v-33h-66z" />
    <glyph glyph-name="sterling.tf" 
d="M477 690v-655h717v-35h-936v35h182v655h-192v35h192v352q0 179 98 280t267 101q131 0 232.5 -62.5t156.5 -178.5l-29 -15q-109 221 -360 221q-155 0 -241.5 -89.5t-86.5 -256.5v-352h557v-35h-557z" />
    <glyph glyph-name="yen.tf" 
d="M1245 1434l-483 -797h381v-33h-400v-262h400v-33h-400v-309h-34v309h-396v33h396v262h-396v33h377l-483 797h41l479 -789l477 789h41z" />
    <glyph glyph-name="plus.tf" 
d="M1157 733v-33h-412v-436h-34v436h-414v33h414v436h34v-436h412z" />
    <glyph glyph-name="minus.tf" 
d="M297 700v33h860v-33h-860z" />
    <glyph glyph-name="multiply.tf" 
d="M1090 1055l-338 -338l338 -338l-25 -25l-338 338l-338 -338l-24 25l337 338l-337 338l24 24l338 -338l338 338z" />
    <glyph glyph-name="divide.tf" 
d="M727 1030q-19 0 -31 12t-12 31t12 31t31 12t31 -12t12 -31t-12 -31t-31 -12zM297 700v33h860v-33h-860zM727 315q-19 0 -31 12t-12 31t12 31t31 12t31 -12t12 -31t-12 -31t-31 -12z" />
    <glyph glyph-name="equal.tf" 
d="M297 926v32h860v-32h-860zM297 475v33h860v-33h-860z" />
    <glyph glyph-name="notequal.tf" 
d="M1157 926h-311l-201 -418h512v-33h-526l-148 -307h-37l148 307h-297v33h311l201 418h-512v32h526l148 308h37l-148 -308h297v-32z" />
    <glyph glyph-name="greater.tf" 
d="M297 1102l860 -365v-41l-860 -364v35l827 350l-827 350v35z" />
    <glyph glyph-name="less.tf" 
d="M1157 1102v-35l-827 -350l827 -350v-35l-860 364v41z" />
    <glyph glyph-name="greaterequal.tf" 
d="M297 1247l860 -364v-41l-860 -365v35l827 350l-827 350v35zM297 188v33h860v-33h-860z" />
    <glyph glyph-name="lessequal.tf" 
d="M1157 1245v-35l-827 -350l827 -350v-35l-860 365v41zM297 186v33h860v-33h-860z" />
    <glyph glyph-name="plusminus.tf" 
d="M745 842h412v-33h-412v-406h-34v406h-414v33h414v405h34v-405zM297 188v33h860v-33h-860z" />
    <glyph glyph-name="approxequal.tf" 
d="M922 870q-43 0 -96.5 18t-96 39.5t-96 39.5t-96.5 18q-114 0 -240 -98v33q113 96 240 96q62 0 194 -57.5t191 -57.5q62 0 114.5 23t120.5 75v-32q-120 -97 -235 -97zM922 420q-43 0 -96.5 18t-96 39.5t-96 39.5t-96.5 18q-113 0 -240 -99v33q113 96 240 96q62 0 194 -57
t191 -57q62 0 114.5 23t120.5 75v-33q-119 -96 -235 -96z" />
    <glyph glyph-name="logicalnot.tf" 
d="M297 850h860v-266h-35v233h-825v33z" />
    <glyph glyph-name="asciitilde.tf" 
d="M922 643q-54 0 -123 28.5t-138.5 57.5t-123.5 29q-113 0 -240 -99v33q113 96 240 96q62 0 194 -57t191 -57q62 0 114.5 23t120.5 75v-33q-119 -96 -235 -96z" />
    <glyph glyph-name="at.case" horiz-adv-x="1781" 
d="M913 1460q149 0 279 -49.5t225 -139t150 -222t55 -291.5q0 -191 -74.5 -303.5t-189.5 -112.5q-78 0 -130 53t-59 156q-32 -97 -109 -153t-179 -56q-141 0 -232.5 102t-91.5 263q0 162 91.5 263t232.5 101q101 0 177 -56t107 -153v185h35v-459q0 -102 43 -157.5t115 -55.5
q101 0 164 102.5t63 280.5q0 158 -53 286t-145.5 211t-213.5 127.5t-260 44.5q-153 0 -285 -54t-224.5 -148.5t-145.5 -228t-53 -287.5q0 -208 92 -368.5t254.5 -247.5t370.5 -87q103 0 201 22t167 60l15 -29q-70 -39 -173 -62.5t-210 -23.5q-219 0 -390.5 93t-267.5 261
t-96 382q0 161 56 301t154 238.5t236.5 155t298.5 56.5zM881 375q124 0 206 90.5t82 241.5t-81 241t-207 90q-124 0 -205.5 -90t-81.5 -241t81.5 -241.5t205.5 -90.5z" />
    </font>
</defs>
</svg>
