<?xml version="1.0" standalone="no"?>
<!DOCTYPE svg PUBLIC "-//W3C//DTD SVG 1.1//EN" "http://www.w3.org/Graphics/SVG/1.1/DTD/svg11.dtd" >
<svg xmlns="http://www.w3.org/2000/svg" xmlns:xlink="http://www.w3.org/1999/xlink" version="1.1">
<metadata>
Created by FontForge 20170731 at Wed Feb 17 23:23:58 2021
 By Aleksey,,,
Copyright (c) by Christoph York. All rights reserved. Modification of this file requires prior written permission from Brink Type.
</metadata>
<defs>
<font id="Segma-Regular" horiz-adv-x="1454" >
  <font-face 
    font-family="Segma"
    font-weight="400"
    font-stretch="normal"
    units-per-em="2048"
    panose-1="0 0 5 0 0 0 0 0 0 0"
    ascent="1556"
    descent="-492"
    x-height="1036"
    cap-height="1434"
    bbox="-991 -516 2523 2058"
    underline-thickness="102"
    underline-position="-450"
    unicode-range="U+000D-2B51"
  />
<missing-glyph horiz-adv-x="1609" 
d="M215 0v1434h1180v-1434h-1180zM705 543h155v57q0 40 11 60.5t47 50.5l59 49q66 55 93.5 104.5t27.5 106.5q0 106 -76.5 171.5t-198.5 65.5q-107 0 -190.5 -52t-124.5 -138l119 -80q73 123 194 123q54 0 85.5 -25t31.5 -71q0 -55 -61 -105l-66 -53q-65 -54 -85.5 -92.5
t-20.5 -108.5v-63zM782 215q46 0 75.5 30t29.5 77t-29.5 76.5t-75.5 29.5t-75 -29.5t-29 -76.5t29 -77t75 -30z" />
    <glyph glyph-name=".notdef" horiz-adv-x="1609" 
d="M215 0v1434h1180v-1434h-1180zM705 543h155v57q0 40 11 60.5t47 50.5l59 49q66 55 93.5 104.5t27.5 106.5q0 106 -76.5 171.5t-198.5 65.5q-107 0 -190.5 -52t-124.5 -138l119 -80q73 123 194 123q54 0 85.5 -25t31.5 -71q0 -55 -61 -105l-66 -53q-65 -54 -85.5 -92.5
t-20.5 -108.5v-63zM782 215q46 0 75.5 30t29.5 77t-29.5 76.5t-75.5 29.5t-75 -29.5t-29 -76.5t29 -77t75 -30z" />
    <glyph glyph-name=".null" horiz-adv-x="0" 
 />
    <glyph glyph-name="nonmarkingreturn" horiz-adv-x="682" 
 />
    <glyph glyph-name="CR" unicode="&#xd;" horiz-adv-x="473" 
 />
    <glyph glyph-name="space" unicode=" " horiz-adv-x="473" 
 />
    <glyph glyph-name="exclam" unicode="!" horiz-adv-x="589" 
d="M229 438l-24 996h180l-23 -996h-133zM295 -16q-54 0 -86.5 33.5t-32.5 86.5q0 52 33 84.5t86 32.5q55 0 87 -32.5t32 -84.5q0 -53 -32 -86.5t-87 -33.5z" />
    <glyph glyph-name="quotedbl" unicode="&#x22;" horiz-adv-x="745" 
d="M145 911l-30 551h178l-31 -551h-117zM483 911l-30 551h178l-31 -551h-117z" />
    <glyph glyph-name="numbersign" unicode="#" horiz-adv-x="1445" 
d="M1341 885h-249l-66 -336h229v-131h-256l-75 -387h-148l76 387h-377l-76 -387h-147l76 387h-224v131h250l66 336h-230v131h256l76 387h148l-76 -387h377l76 387h147l-76 -387h223v-131zM879 549l65 336h-377l-65 -336h377z" />
    <glyph glyph-name="dollar" unicode="$" horiz-adv-x="1230" 
d="M1126 416q0 -164 -116 -267.5t-324 -115.5v-135h-117v135q-171 13 -291.5 92.5t-173.5 210.5l129 78q96 -205 336 -230v482l-59 14q-367 88 -367 352q0 155 114 256t312 113v135h117v-135q150 -13 257.5 -77.5t152.5 -162.5l-125 -82q-86 148 -285 170v-458l82 -21
q187 -43 272.5 -131t85.5 -223zM553 821l16 -4v434q-125 -8 -192.5 -64t-67.5 -153q0 -81 56 -131t188 -82zM686 182q128 9 199 71t71 161q0 84 -55.5 136.5t-183.5 82.5l-31 6v-457z" />
    <glyph glyph-name="percent" unicode="%" horiz-adv-x="1730" 
d="M432 737q-152 0 -255 104t-103 259t102.5 258.5t255.5 103.5q154 0 257.5 -103.5t103.5 -258.5t-103.5 -259t-257.5 -104zM258 0l1051 1434h164l-1051 -1434h-164zM432 864q101 0 161 65t60 171t-60 170.5t-161 64.5q-100 0 -160.5 -64.5t-60.5 -170.5t60.5 -171
t160.5 -65zM1298 -29q-154 0 -257 104t-103 259t103 258.5t257 103.5q153 0 257 -103.5t104 -258.5t-104 -259t-257 -104zM1298 98q100 0 161 65t61 171t-61 170.5t-161 64.5t-160.5 -64.5t-60.5 -170.5t60.5 -171t160.5 -65z" />
    <glyph glyph-name="ampersand" unicode="&#x26;" horiz-adv-x="1370" 
d="M1319 0h-195l-131 150q-167 -179 -413 -179q-198 0 -327.5 111t-129.5 280q0 116 72 215.5t227 188.5l16 10l-4 4q-99 111 -140.5 191.5t-41.5 161.5q0 140 105.5 234.5t267.5 94.5q161 0 265.5 -90.5t104.5 -232.5q0 -217 -245 -357l-78 -45l301 -344q63 124 84 293h155
q-32 -240 -131 -416zM416 1135q0 -104 121 -244l38 -45l101 59q84 49 122 101t38 116q0 87 -59.5 139t-151.5 52t-150.5 -50.5t-58.5 -127.5zM578 123q181 0 307 141l-353 404l-16 -11q-120 -70 -170.5 -138.5t-50.5 -149.5q0 -112 78 -179t205 -67z" />
    <glyph glyph-name="quotesingle" unicode="'" horiz-adv-x="407" 
d="M145 911l-30 551h178l-31 -551h-117z" />
    <glyph glyph-name="parenleft" unicode="(" horiz-adv-x="655" 
d="M465 -260q-153 182 -236.5 417t-83.5 482t83.5 482t236.5 417l129 -94q-121 -144 -199 -364.5t-78 -440.5t78 -440.5t199 -364.5z" />
    <glyph glyph-name="parenright" unicode=")" horiz-adv-x="655" 
d="M190 -260l-127 94q120 145 198.5 365.5t78.5 439.5t-78.5 439.5t-198.5 365.5l127 94q153 -182 236.5 -417t83.5 -482t-83.5 -482t-236.5 -417z" />
    <glyph glyph-name="asterisk" unicode="*" horiz-adv-x="901" 
d="M276 721l-108 80l186 243l-291 86l41 127l289 -102l-8 307h133l-10 -307l291 102l41 -127l-293 -86l186 -243l-108 -80l-174 256z" />
    <glyph glyph-name="plus" unicode="+" 
d="M1176 721v-143h-373v-398h-152v398h-372v143h372v397h152v-397h373z" />
    <glyph glyph-name="comma" unicode="," horiz-adv-x="485" 
d="M92 -305l98 551h172l-141 -551h-129z" />
    <glyph glyph-name="hyphen" unicode="-" horiz-adv-x="821" 
d="M115 520v152h592v-152h-592z" />
    <glyph glyph-name="period" unicode="." horiz-adv-x="507" 
d="M254 -16q-55 0 -87 33.5t-32 86.5q0 52 32 84.5t87 32.5q53 0 85 -32.5t32 -84.5q0 -53 -32 -86.5t-85 -33.5z" />
    <glyph glyph-name="slash" unicode="/" horiz-adv-x="960" 
d="M23 -193l757 1709h160l-758 -1709h-159z" />
    <glyph glyph-name="zero" unicode="0" horiz-adv-x="1437" 
d="M719 -29q-265 0 -419.5 197.5t-154.5 548.5t154.5 548t419.5 197t419 -196.5t154 -548.5t-154 -549t-419 -197zM719 127q192 0 294.5 148t102.5 442t-102.5 442t-294.5 148q-193 0 -295 -148t-102 -442t102 -442t295 -148z" />
    <glyph glyph-name="one" unicode="1" horiz-adv-x="882" 
d="M516 1434h139v-1434h-168v1253l-385 -198v166z" />
    <glyph glyph-name="two" unicode="2" horiz-adv-x="1196" 
d="M334 156h753v-156h-993v143l529 496q152 142 208 232t56 184q0 120 -72.5 187t-200.5 67q-254 0 -397 -269l-129 88q86 165 219 249.5t303 84.5q204 0 327.5 -112t123.5 -293q0 -114 -62 -226.5t-213 -252.5z" />
    <glyph glyph-name="three" unicode="3" horiz-adv-x="1161" 
d="M788 727q129 -38 198 -126t69 -214q0 -186 -134.5 -301t-361.5 -115q-152 0 -279.5 53.5t-213.5 155.5l108 111q159 -166 385 -166q152 0 238 74t86 200q0 256 -385 256h-123v146h166q159 0 241 68t82 188q0 116 -76.5 184t-218.5 68q-223 0 -364 -191l-121 103
q184 241 491 241q214 0 336.5 -108t122.5 -289q0 -128 -63.5 -216t-182.5 -122z" />
    <glyph glyph-name="four" unicode="4" horiz-adv-x="1271" 
d="M1231 465v-146h-219v-319h-158v319h-772v142l713 973h217v-969h219zM266 465h588v801z" />
    <glyph glyph-name="five" unicode="5" horiz-adv-x="1198" 
d="M627 887q212 0 344.5 -119t132.5 -326q0 -212 -143 -341.5t-381 -129.5q-296 0 -482 207l103 107q163 -160 374 -160q168 0 263.5 85t95.5 232q0 137 -84 215t-234 78q-167 0 -307 -100l-137 82v717h850v-154h-688v-475q128 82 293 82z" />
    <glyph glyph-name="six" unicode="6" horiz-adv-x="1247" 
d="M676 965q133 0 244 -60.5t178 -174.5t67 -259q0 -223 -149 -361.5t-381 -138.5q-230 0 -377 138t-147 370q0 264 211 541l313 414h205l-441 -562q122 93 277 93zM639 123q163 0 258.5 93.5t95.5 254.5t-95 252.5t-259 91.5q-165 0 -260.5 -91.5t-95.5 -252.5t96 -254.5
t260 -93.5z" />
    <glyph glyph-name="seven" unicode="7" horiz-adv-x="1071" 
d="M53 1434h965v-146l-621 -1288h-180l623 1280h-787v154z" />
    <glyph glyph-name="eight" unicode="8" horiz-adv-x="1290" 
d="M893 735q134 -44 205 -136t71 -218q0 -177 -139.5 -293.5t-384.5 -116.5t-384.5 116.5t-139.5 293.5q0 126 71 218t205 136q-114 44 -174.5 130.5t-60.5 203.5q0 172 129 282.5t354 110.5q223 0 353 -110.5t130 -282.5q0 -117 -60.5 -203.5t-174.5 -130.5zM332 1059
q0 -117 80 -184.5t233 -67.5t233 67.5t80 184.5q0 116 -80 184t-233 68t-233 -68t-80 -184zM645 125q169 0 259.5 73t90.5 193t-90.5 193t-259.5 73q-170 0 -261 -73t-91 -193t91 -193t261 -73z" />
    <glyph glyph-name="nine" unicode="9" horiz-adv-x="1247" 
d="M612 1462q230 0 377.5 -138t147.5 -370q0 -263 -211 -540l-314 -414h-204l440 561q-121 -92 -277 -92q-133 0 -244 60.5t-178 174.5t-67 259q0 222 149 360.5t381 138.5zM610 618q164 0 259.5 92t95.5 253t-96 254.5t-259 93.5q-164 0 -260 -93.5t-96 -254.5t95.5 -253
t260.5 -92z" />
    <glyph glyph-name="colon" unicode=":" horiz-adv-x="518" 
d="M264 758q-55 0 -87 33t-32 88q0 52 32 84t87 32q53 0 85 -32t32 -84q0 -54 -31.5 -87.5t-85.5 -33.5zM264 -16q-55 0 -87 33.5t-32 86.5q0 52 32 84.5t87 32.5q53 0 85 -32.5t32 -84.5q0 -53 -32 -86.5t-85 -33.5z" />
    <glyph glyph-name="semicolon" unicode=";" horiz-adv-x="499" 
d="M258 758q-54 0 -85.5 33.5t-31.5 87.5q0 52 32 84t85 32q55 0 87 -32t32 -84q0 -55 -32 -88t-87 -33zM92 -305l98 551h172l-141 -551h-129z" />
    <glyph glyph-name="less" unicode="&#x3c;" 
d="M1176 1085v-159l-711 -277l711 -276v-160l-897 358v156z" />
    <glyph glyph-name="equal" unicode="=" 
d="M279 782v146h897v-146h-897zM279 371v145h897v-145h-897z" />
    <glyph glyph-name="greater" unicode="&#x3e;" 
d="M279 1085l897 -358v-156l-897 -358v160l710 276l-710 277v159z" />
    <glyph glyph-name="question" unicode="?" horiz-adv-x="962" 
d="M352 438v99q0 103 30.5 164.5t123.5 138.5l100 84q111 91 111 190q0 89 -59.5 140t-161.5 51q-100 0 -185 -52.5t-139 -148.5l-129 88q58 123 179 196.5t274 73.5q177 0 285 -95.5t108 -246.5q0 -82 -41 -156t-141 -159l-101 -84q-57 -47 -73.5 -81.5t-16.5 -102.5v-99
h-164zM434 -16q-55 0 -87 33.5t-32 86.5q0 52 32 84.5t87 32.5q53 0 85 -32.5t32 -84.5q0 -53 -32 -86.5t-85 -33.5z" />
    <glyph glyph-name="at" unicode="@" horiz-adv-x="1961" 
d="M1223 852h141v-510q0 -184 129 -184q95 0 154 98t59 266q0 125 -35 233t-98.5 188.5t-149.5 137.5t-190 86t-219 29q-210 0 -377.5 -94t-262.5 -262t-95 -379q0 -214 96 -380t267.5 -256.5t389.5 -90.5q115 0 221.5 25t182.5 69l59 -115q-188 -114 -467 -114
q-191 0 -357 63.5t-285.5 175.5t-188 272t-68.5 347q0 188 69.5 352.5t188 279t280.5 180.5t343 66q170 0 323.5 -58.5t267.5 -161t181 -252.5t67 -324q0 -225 -102 -363.5t-256 -138.5q-92 0 -159 53.5t-87 151.5q-30 -98 -109 -151.5t-184 -53.5q-159 0 -263.5 118
t-104.5 304t104.5 304t263.5 118q96 0 167.5 -46.5t103.5 -132.5v150zM981 176q107 0 173.5 75.5t66.5 207.5t-66.5 207t-173.5 75q-106 0 -174 -75.5t-68 -206.5q0 -132 68 -207.5t174 -75.5z" />
    <glyph glyph-name="A" unicode="A" 
d="M1231 0l-158 393h-692l-158 -393h-178l586 1434h190l586 -1434h-176zM442 549h570l-285 713z" />
    <glyph glyph-name="B" unicode="B" horiz-adv-x="1439" 
d="M1020 739q139 -33 216 -124t77 -228q0 -176 -122 -281.5t-333 -105.5h-643v1434h594q207 0 329 -102t122 -269q0 -117 -62.5 -200.5t-177.5 -123.5zM809 1278h-422v-467h422q134 0 204 61t70 172q0 112 -70 173t-204 61zM858 156q133 0 204 66t71 184t-70.5 183.5
t-204.5 65.5h-471v-499h471z" />
    <glyph glyph-name="C" unicode="C" horiz-adv-x="1558" 
d="M854 -29q-208 0 -373.5 98t-256.5 268.5t-91 379.5t92 379t257.5 268t371.5 98q205 0 370.5 -94.5t254.5 -273.5l-144 -82q-146 291 -469 291q-247 0 -401 -164.5t-154 -421.5t154 -421.5t401 -164.5q157 0 278.5 72.5t194.5 218.5l140 -82q-89 -179 -255 -274t-370 -95z
" />
    <glyph glyph-name="D" unicode="D" horiz-adv-x="1568" 
d="M731 1434q207 0 366 -84.5t249 -248t90 -384.5t-90 -384.5t-249 -248t-366 -84.5h-516v1434h516zM731 160q245 0 384.5 145.5t139.5 411.5t-139.5 411.5t-384.5 145.5h-344v-1114h344z" />
    <glyph glyph-name="E" unicode="E" horiz-adv-x="1366" 
d="M387 158h825v-158h-997v1434h977v-158h-805v-475h764v-156h-764v-487z" />
    <glyph glyph-name="F" unicode="F" horiz-adv-x="1308" 
d="M1188 1276h-801v-481h762v-160h-762v-635h-172v1434h973v-158z" />
    <glyph glyph-name="G" unicode="G" horiz-adv-x="1603" 
d="M907 762h551v-561q-84 -108 -233 -169t-332 -61q-173 0 -316 55.5t-240 153.5t-150.5 235t-53.5 298q0 218 93.5 389t260.5 265.5t379 94.5q185 0 332 -73t232 -205l-132 -94q-69 104 -179.5 158.5t-250.5 54.5q-251 0 -404 -162t-153 -430q0 -269 158 -424.5t422 -155.5
q128 0 234 36t165 95v342h-383v158z" />
    <glyph glyph-name="H" unicode="H" horiz-adv-x="1605" 
d="M1219 1434h172v-1434h-172v655h-832v-655h-172v1434h172v-619h832v619z" />
    <glyph glyph-name="I" unicode="I" horiz-adv-x="610" 
d="M219 0v1434h172v-1434h-172z" />
    <glyph glyph-name="J" unicode="J" horiz-adv-x="1206" 
d="M502 -29q-138 0 -253.5 51.5t-197.5 149.5l111 115q128 -156 336 -156q161 0 251.5 100t90.5 293v910h172v-922q0 -250 -137.5 -395.5t-372.5 -145.5z" />
    <glyph glyph-name="K" unicode="K" horiz-adv-x="1419" 
d="M1182 0l-537 692l-258 -266v-426h-172v1434h172v-785l766 785h211l-602 -623l631 -811h-211z" />
    <glyph glyph-name="L" unicode="L" horiz-adv-x="1220" 
d="M387 160h766v-160h-938v1434h172v-1274z" />
    <glyph glyph-name="M" unicode="M" horiz-adv-x="1918" 
d="M1522 1434h182v-1434h-166v1169l-508 -794h-141l-508 794v-1169h-166v1434h182l564 -883z" />
    <glyph glyph-name="N" unicode="N" horiz-adv-x="1626" 
d="M1243 1434h168v-1434h-162l-866 1161v-1161h-168v1434h160l868 -1164v1164z" />
    <glyph glyph-name="O" unicode="O" horiz-adv-x="1730" 
d="M864 -29q-159 0 -296 58.5t-232 159t-149 237.5t-54 291t54 291t149 237t232 158.5t296 58.5q212 0 381 -100t260.5 -269.5t91.5 -375.5q0 -154 -54 -291t-149 -237.5t-233 -159t-297 -58.5zM864 131q121 0 224.5 44.5t175.5 122.5t112.5 186t40.5 233t-40.5 233
t-112.5 186t-175.5 122.5t-224.5 44.5q-160 0 -287 -76t-196.5 -209.5t-69.5 -300.5t69.5 -300.5t196.5 -209.5t287 -76z" />
    <glyph glyph-name="P" unicode="P" horiz-adv-x="1384" 
d="M803 1434q228 0 354.5 -118.5t126.5 -324.5t-126.5 -324t-354.5 -118h-416v-549h-172v1434h588zM788 707q167 0 242.5 68t75.5 216q0 147 -76 216t-242 69h-401v-569h401z" />
    <glyph glyph-name="Q" unicode="Q" horiz-adv-x="1730" 
d="M1597 717q0 -173 -67.5 -323.5t-188.5 -254.5l181 -223l-121 -96l-189 233q-158 -82 -348 -82q-159 0 -296 58.5t-232 159t-149 237.5t-54 291t54 291t149 237t232 158.5t296 58.5q212 0 381 -100t260.5 -269.5t91.5 -375.5zM864 131q131 0 242 51l-240 297l123 96
l246 -305q87 79 134.5 194.5t47.5 252.5q0 125 -40.5 233t-112.5 186t-175.5 122.5t-224.5 44.5q-160 0 -287 -76t-196.5 -209.5t-69.5 -300.5t69.5 -300.5t196.5 -209.5t287 -76z" />
    <glyph glyph-name="R" unicode="R" horiz-adv-x="1425" 
d="M1110 0l-479 573h-244v-573h-172v1434h592q224 0 350.5 -117t126.5 -318q0 -194 -118 -306.5t-330 -119.5l481 -573h-207zM387 1276v-549h406q164 0 238.5 66t74.5 206t-75 208.5t-238 68.5h-406z" />
    <glyph glyph-name="S" unicode="S" horiz-adv-x="1304" 
d="M672 -29q-215 0 -364.5 88.5t-211.5 245.5l137 80q58 -125 172 -191.5t269 -66.5q164 0 258 70t94 188q0 91 -61.5 149t-198.5 91l-229 55q-199 48 -298.5 142t-99.5 239q0 178 139 289.5t373 111.5q190 0 327 -72t191 -190l-133 -82q-54 91 -154.5 140t-234.5 49
q-157 0 -245.5 -64.5t-88.5 -179.5q0 -88 60.5 -142.5t204.5 -89.5l229 -55q208 -50 302.5 -143.5t94.5 -241.5q0 -191 -141 -305.5t-391 -114.5z" />
    <glyph glyph-name="T" unicode="T" horiz-adv-x="1245" 
d="M537 0v1274h-484v160h1139v-160h-483v-1274h-172z" />
    <glyph glyph-name="U" unicode="U" horiz-adv-x="1552" 
d="M776 -29q-273 0 -427 143t-154 400v920h172v-904q0 -399 409 -399q410 0 410 399v904h172v-920q0 -257 -154.5 -400t-427.5 -143z" />
    <glyph glyph-name="V" unicode="V" horiz-adv-x="1417" 
d="M1192 1434h180l-575 -1434h-176l-576 1434h180l484 -1225z" />
    <glyph glyph-name="W" unicode="W" horiz-adv-x="2138" 
d="M1907 1434h170l-447 -1434h-174l-387 1212l-387 -1212h-174l-447 1434h170l369 -1194l383 1194h172l383 -1194z" />
    <glyph glyph-name="X" unicode="X" horiz-adv-x="1325" 
d="M1276 0h-191l-421 618l-424 -618h-191l506 735l-479 699h182l406 -588l403 588h184l-481 -699z" />
    <glyph glyph-name="Y" unicode="Y" horiz-adv-x="1314" 
d="M1104 1434h192l-553 -838v-596h-172v596l-555 838h195l446 -689z" />
    <glyph glyph-name="Z" unicode="Z" horiz-adv-x="1243" 
d="M303 156h844v-156h-1053v133l832 1145h-803v156h1012v-134z" />
    <glyph glyph-name="bracketleft" unicode="[" horiz-adv-x="753" 
d="M682 1378h-307v-1478h307v-138h-467v1754h467v-138z" />
    <glyph glyph-name="backslash" unicode="\" horiz-adv-x="960" 
d="M940 -193h-160l-757 1709h159z" />
    <glyph glyph-name="bracketright" unicode="]" horiz-adv-x="755" 
d="M72 1516h467v-1754h-467v138h307v1478h-307v138z" />
    <glyph glyph-name="asciicircum" unicode="^" horiz-adv-x="1163" 
d="M1102 717h-189l-331 514l-332 -514h-187l445 667h147z" />
    <glyph glyph-name="underscore" unicode="_" horiz-adv-x="890" 
d="M0 -248v133h891v-133h-891z" />
    <glyph glyph-name="grave" unicode="`" horiz-adv-x="1269" 
d="M721 1214h-172l-264 302h202z" />
    <glyph glyph-name="a" unicode="a" horiz-adv-x="1167" 
d="M588 1065q190 0 295.5 -102t105.5 -281v-682h-155v184q-37 -93 -136.5 -148.5t-234.5 -55.5q-165 0 -264 84.5t-99 228.5q0 143 108.5 226t309.5 83h311v80q0 112 -64 172.5t-183 60.5q-94 0 -176 -37.5t-140 -109.5l-104 98q72 96 182 147.5t244 51.5zM489 117
q146 0 243 86.5t97 216.5v51h-305q-128 0 -192 -45t-64 -129q0 -85 58 -132.5t163 -47.5z" />
    <glyph glyph-name="b" unicode="b" horiz-adv-x="1343" 
d="M739 1065q216 0 354 -152.5t138 -394.5t-138 -394.5t-354 -152.5q-134 0 -238.5 61t-150.5 165v-197h-164v1499h164v-659q46 103 151 164t238 61zM700 123q161 0 261 111t100 284t-99.5 283t-261.5 110q-160 0 -259 -110t-99 -283t99 -284t259 -111z" />
    <glyph glyph-name="c" unicode="c" horiz-adv-x="1155" 
d="M635 -29q-228 0 -375 154.5t-147 392.5t147 392.5t375 154.5q164 0 285 -79.5t174 -219.5l-152 -64q-85 209 -295 209q-165 0 -264.5 -107.5t-99.5 -285.5t100 -286.5t264 -108.5q209 0 295 209l148 -62q-49 -140 -171.5 -219.5t-283.5 -79.5z" />
    <glyph glyph-name="d" unicode="d" horiz-adv-x="1343" 
d="M993 1499h164v-1499h-164v197q-46 -104 -150.5 -165t-238.5 -61q-216 0 -353.5 152.5t-137.5 394.5t137.5 394.5t353.5 152.5q133 0 238 -61t151 -164v659zM643 123q160 0 259 111t99 284t-99 283t-259 110q-161 0 -260.5 -110t-99.5 -283t99.5 -284t260.5 -111z" />
    <glyph glyph-name="e" unicode="e" horiz-adv-x="1228" 
d="M1120 557q0 -45 -6 -88h-833q13 -162 111 -254t255 -92q205 0 334 166l111 -94q-76 -107 -191 -165.5t-258 -58.5q-236 0 -383 151.5t-147 393.5q0 157 65 282t183 196t268 71q216 0 353.5 -141t137.5 -367zM629 911q-140 0 -231 -83.5t-113 -225.5h667q-12 147 -99 228
t-224 81z" />
    <glyph glyph-name="f" unicode="f" horiz-adv-x="780" 
d="M268 0v895h-215v141h215v162q0 165 79 242.5t241 77.5q72 0 155 -19v-139q-74 14 -135 14q-92 0 -134 -42t-42 -138v-158h307v-141h-307v-895h-164z" />
    <glyph glyph-name="g" unicode="g" horiz-adv-x="1343" 
d="M993 1036h164v-919q0 -269 -139 -412t-397 -143q-146 0 -268 45.5t-201 128.5l94 121q71 -68 168 -106t207 -38q180 0 276 102.5t96 301.5v102q-46 -101 -150 -160t-237 -59q-216 0 -354.5 148.5t-138.5 383.5q0 234 138.5 383.5t354.5 149.5q133 0 237 -60t150 -163v194
zM643 152q160 0 259 106.5t99 273.5t-99 273t-259 106q-162 0 -261 -106t-99 -273t99.5 -273.5t260.5 -106.5z" />
    <glyph glyph-name="h" unicode="h" horiz-adv-x="1259" 
d="M713 1065q177 0 273.5 -104.5t96.5 -298.5v-662h-163v623q0 149 -60 218.5t-184 69.5q-142 0 -234 -80.5t-92 -214.5v-616h-164v1499h164v-641q44 99 140 153t223 54z" />
    <glyph glyph-name="i" unicode="i" horiz-adv-x="538" 
d="M270 1257q-51 0 -82.5 32.5t-31.5 82.5t31.5 82.5t82.5 32.5q49 0 81 -32.5t32 -82.5t-32 -82.5t-81 -32.5zM188 0v1036h164v-1036h-164z" />
    <glyph glyph-name="j" unicode="j" horiz-adv-x="538" 
d="M270 1257q-51 0 -82.5 32.5t-31.5 82.5t31.5 82.5t82.5 32.5q49 0 81 -32.5t32 -82.5t-32 -82.5t-81 -32.5zM47 -440q-54 0 -115 12v149q49 -12 97 -12q85 0 122 40.5t37 125.5v1161h164v-1179q0 -143 -76 -220t-229 -77z" />
    <glyph glyph-name="k" unicode="k" horiz-adv-x="1134" 
d="M918 0l-400 481l-168 -162v-319h-164v1499h164v-991l537 526h209l-467 -448l483 -586h-194z" />
    <glyph glyph-name="l" unicode="l" horiz-adv-x="534" 
d="M186 0v1499h164v-1499h-164z" />
    <glyph glyph-name="m" unicode="m" horiz-adv-x="1914" 
d="M1382 1065q171 0 263 -104t92 -295v-666h-164v627q0 148 -53.5 216t-171.5 68q-134 0 -220 -80.5t-86 -214.5v-616h-163v627q0 148 -53.5 216t-170.5 68q-135 0 -220 -80t-85 -215v-616h-164v1036h164v-178q43 98 132.5 152.5t209.5 54.5q121 0 204 -56.5t120 -162.5
q40 101 137 160t229 59z" />
    <glyph glyph-name="n" unicode="n" horiz-adv-x="1259" 
d="M713 1065q177 0 273.5 -104.5t96.5 -298.5v-662h-163v623q0 149 -60 218.5t-184 69.5q-142 0 -234 -80.5t-92 -214.5v-616h-164v1036h164v-178q44 99 140 153t223 54z" />
    <glyph glyph-name="o" unicode="o" horiz-adv-x="1286" 
d="M643 -29q-157 0 -279.5 75t-186.5 199t-64 273q0 148 64 272t186.5 199.5t279.5 75.5t280.5 -75.5t188 -199.5t64.5 -272q0 -111 -38 -210.5t-106.5 -174t-169 -118.5t-219.5 -44zM643 123q161 0 261 111t100 284t-99.5 283t-261.5 110q-161 0 -260.5 -110t-99.5 -283
t99.5 -284t260.5 -111z" />
    <glyph glyph-name="p" unicode="p" horiz-adv-x="1343" 
d="M739 1065q216 0 354 -152.5t138 -394.5t-138 -394.5t-354 -152.5q-134 0 -238.5 61t-150.5 165v-607h-164v1446h164v-196q46 103 151 164t238 61zM700 123q161 0 261 111t100 284t-99.5 283t-261.5 110q-160 0 -259 -110t-99 -283t99 -284t259 -111z" />
    <glyph glyph-name="q" unicode="q" horiz-adv-x="1343" 
d="M993 1036h164v-1446h-164v607q-46 -104 -150.5 -165t-238.5 -61q-216 0 -353.5 152.5t-137.5 394.5t137.5 394.5t353.5 152.5q133 0 238 -61t151 -164v196zM643 123q160 0 259 111t99 284t-99 283t-259 110q-161 0 -260.5 -110t-99.5 -283t99.5 -284t260.5 -111z" />
    <glyph glyph-name="r" unicode="r" horiz-adv-x="823" 
d="M668 1051q57 0 92 -13v-145q-44 6 -88 6q-152 0 -237 -91.5t-85 -275.5v-532h-164v1036h164v-196q35 100 119.5 155.5t198.5 55.5z" />
    <glyph glyph-name="s" unicode="s" horiz-adv-x="1048" 
d="M547 -29q-157 0 -278.5 62t-182.5 168l121 86q109 -166 338 -166q114 0 178.5 44.5t64.5 117.5q0 57 -42 92.5t-144 58.5l-166 39q-159 37 -235 107.5t-76 179.5q0 135 108 220t295 85q136 0 241 -46.5t167 -133.5l-113 -99q-102 129 -303 129q-113 0 -172 -40.5
t-59 -112.5q0 -53 41 -86.5t147 -57.5l185 -40q153 -34 221.5 -104.5t68.5 -178.5q0 -147 -107 -235.5t-298 -88.5z" />
    <glyph glyph-name="t" unicode="t" horiz-adv-x="835" 
d="M573 -16q-152 0 -231.5 70.5t-79.5 209.5v631h-209v141h209v307h164v-307h328v-141h-328v-621q0 -77 41 -111t131 -34q72 0 160 18v-137q-86 -26 -185 -26z" />
    <glyph glyph-name="u" unicode="u" horiz-adv-x="1251" 
d="M903 1036h164v-1036h-164v182q-42 -100 -140 -155.5t-226 -55.5q-177 0 -268 104t-91 300v661h164v-622q0 -153 56 -222t180 -69q141 0 233 81.5t92 215.5v616z" />
    <glyph glyph-name="v" unicode="v" horiz-adv-x="1097" 
d="M885 1036h176l-424 -1036h-176l-424 1036h176l336 -856z" />
    <glyph glyph-name="w" unicode="w" horiz-adv-x="1701" 
d="M1489 1036h166l-342 -1036h-178l-283 850l-285 -850h-180l-342 1036h166l270 -833l279 833h180l279 -837z" />
    <glyph glyph-name="x" unicode="x" horiz-adv-x="1054" 
d="M1014 0h-187l-299 424l-301 -424h-186l377 530l-355 506h183l282 -401l281 401h182l-356 -504z" />
    <glyph glyph-name="y" unicode="y" horiz-adv-x="1105" 
d="M897 1036h172l-582 -1444h-170l158 394l-434 1050h172l346 -866z" />
    <glyph glyph-name="z" unicode="z" horiz-adv-x="1030" 
d="M305 145h621v-145h-824v125l613 766h-596v145h799v-125z" />
    <glyph glyph-name="braceleft" unicode="{" horiz-adv-x="737" 
d="M401 850q0 -165 -147 -211q147 -46 147 -211v-405q0 -65 30 -94t93 -29h142v-138h-154q-140 0 -205 62t-65 199v426q0 63 -32 92.5t-101 29.5h-25v136h25q69 0 101 29.5t32 92.5v426q0 137 65 199t205 62h154v-138h-142q-63 0 -93 -29t-30 -94v-405z" />
    <glyph glyph-name="bar" unicode="|" horiz-adv-x="665" 
d="M256 -205v1772h154v-1772h-154z" />
    <glyph glyph-name="braceright" unicode="}" horiz-adv-x="737" 
d="M631 707h22v-136h-22q-69 0 -101 -29.5t-32 -92.5v-426q0 -137 -66 -199t-207 -62h-153v138h141q63 0 93 29t30 94v405q0 164 147 211q-147 47 -147 211v405q0 65 -30 94t-93 29h-141v138h153q141 0 207 -62t66 -199v-426q0 -63 32 -92.5t101 -29.5z" />
    <glyph glyph-name="asciitilde" unicode="~" 
d="M940 532q-74 0 -213 44.5t-213 44.5q-111 0 -235 -84v143q111 84 239 84q71 0 212 -44t208 -44q63 0 128 23.5t110 60.5v-144q-119 -84 -236 -84z" />
    <glyph glyph-name="uni00A0" unicode="&#xa0;" horiz-adv-x="473" 
 />
    <glyph glyph-name="exclamdown" unicode="&#xa1;" horiz-adv-x="589" 
d="M295 1036q55 0 87 -33t32 -88q0 -52 -32 -84t-87 -32q-54 0 -86.5 32.5t-32.5 83.5q0 54 32.5 87.5t86.5 33.5zM229 582h133l23 -996h-180z" />
    <glyph glyph-name="cent" unicode="&#xa2;" horiz-adv-x="1153" 
d="M680 326q170 15 262 161l127 -90q-60 -99 -161 -157.5t-228 -67.5v-172h-117v174q-207 23 -333 172.5t-126 370.5t126 370.5t333 172.5v174h117v-172q126 -9 227.5 -68t161.5 -158l-127 -90q-92 147 -262 162v-782zM272 717q0 -156 79 -260t212 -127v774
q-133 -23 -212 -127t-79 -260z" />
    <glyph glyph-name="sterling" unicode="&#xa3;" horiz-adv-x="1114" 
d="M387 639v-483h670v-156h-989v156h151v483h-162v135h162v264q0 197 110 310.5t306 113.5q137 0 246.5 -60.5t175.5 -178.5l-131 -84q-101 170 -291 170q-123 0 -185.5 -71.5t-62.5 -207.5v-256h504v-135h-504z" />
    <glyph glyph-name="currency" unicode="&#xa4;" horiz-adv-x="1142" 
d="M965 717q0 -128 -68 -232l152 -151l-95 -94l-149 149q-101 -72 -234 -72t-231 72l-150 -149l-96 94l154 151q-68 104 -68 232q0 125 68 229l-154 152l96 94l150 -148q103 70 231 70q133 0 234 -72l149 150l95 -94l-152 -152q68 -104 68 -229zM571 467q108 0 175 69
t67 181q0 110 -67.5 180t-174.5 70t-173 -69.5t-66 -180.5q0 -112 66 -181t173 -69z" />
    <glyph glyph-name="yen" unicode="&#xa5;" horiz-adv-x="1193" 
d="M1174 1434l-431 -732h308v-120h-371v-187h371v-121h-371v-274h-166v274h-369v121h369v187h-369v120h306l-431 732h187l391 -682l389 682h187z" />
    <glyph glyph-name="brokenbar" unicode="&#xa6;" horiz-adv-x="665" 
d="M256 836v731h154v-731h-154zM256 -205v715h154v-715h-154z" />
    <glyph glyph-name="section" unicode="&#xa7;" horiz-adv-x="1116" 
d="M803 338q194 -78 194 -266q0 -154 -112 -246t-310 -92q-158 0 -279 59.5t-181 165.5l118 86q55 -82 144 -123t198 -41q121 0 188.5 48t67.5 134q0 63 -44 104.5t-148 65.5l-168 37q-324 73 -324 314q0 100 54 174t147 102q-192 84 -192 273q0 150 110 239.5t303 89.5
q134 0 239 -46t169 -130l-111 -100q-103 127 -309 127q-238 0 -238 -180q0 -69 43 -107.5t152 -62.5l184 -41q155 -35 229 -109.5t74 -191.5q0 -103 -52.5 -178.5t-145.5 -104.5zM307 600q0 -74 46 -117t161 -69l80 -19q97 -22 171.5 38t74.5 167q0 74 -45.5 117t-155.5 67
l-98 23q-94 13 -164 -44t-70 -163z" />
    <glyph glyph-name="dieresis" unicode="&#xa8;" horiz-adv-x="1269" 
d="M416 1257q-49 0 -81 32.5t-32 82.5t32 82.5t81 32.5q51 0 82.5 -32.5t31.5 -82.5t-31.5 -82.5t-82.5 -32.5zM854 1257q-51 0 -83 32.5t-32 82.5t32 82.5t83 32.5q49 0 81 -32.5t32 -82.5t-32 -82.5t-81 -32.5z" />
    <glyph glyph-name="copyright" unicode="&#xa9;" horiz-adv-x="1759" 
d="M879 -29q-154 0 -292.5 59t-238 158.5t-157.5 237.5t-58 291q0 204 98.5 375t270 270.5t377.5 99.5q154 0 292.5 -58.5t238 -158t158 -237.5t58.5 -291q0 -204 -99 -375.5t-270.5 -271t-377.5 -99.5zM879 104q170 0 309 82.5t217 223t78 307.5q0 125 -46 238t-125.5 195
t-192.5 130.5t-240 48.5q-169 0 -307.5 -82t-217 -222.5t-78.5 -307.5t78 -307.5t217 -223t308 -82.5zM895 307q-181 0 -292 114t-111 296t111 296.5t292 114.5q110 0 196.5 -45.5t135.5 -130.5l-115 -82q-70 117 -217 117q-110 0 -179 -73.5t-69 -196.5q0 -122 69 -196.5
t179 -74.5q147 0 217 117l115 -80q-49 -85 -135.5 -130.5t-196.5 -45.5z" />
    <glyph glyph-name="ordfeminine" unicode="&#xaa;" horiz-adv-x="995" 
d="M510 1516q163 0 253.5 -87t90.5 -245v-574h-143v156q-33 -79 -115 -126.5t-195 -47.5q-140 0 -224.5 72.5t-84.5 195.5q0 125 92.5 194.5t264.5 69.5h253v62q0 93 -52.5 142.5t-149.5 49.5q-162 0 -258 -125l-97 95q61 82 155 125t210 43zM430 719q118 0 195 70t77 178
v45h-243q-209 0 -209 -146q0 -70 47 -108.5t133 -38.5z" />
    <glyph glyph-name="guillemotleft" unicode="&#xab;" horiz-adv-x="1101" 
d="M573 956l-305 -436l305 -438h-184l-307 438l307 436h184zM1008 956l-303 -436l303 -438h-183l-307 438l307 436h183z" />
    <glyph glyph-name="logicalnot" unicode="&#xac;" 
d="M279 721h897v-361h-152v218h-745v143z" />
    <glyph glyph-name="registered" unicode="&#xae;" horiz-adv-x="1159" 
d="M582 1464q187 0 316.5 -130t129.5 -316t-129.5 -316.5t-316.5 -130.5t-318 130.5t-131 316.5t131 316t318 130zM582 653q151 0 252.5 106.5t101.5 258.5t-101.5 258t-252.5 106q-153 0 -256 -106t-103 -258t103.5 -258.5t255.5 -106.5zM784 1102q0 -125 -114 -146
l127 -170h-133l-113 164h-37v-164h-117v474h213q85 0 129.5 -40.5t44.5 -117.5zM514 1155v-108h88q62 0 62 55q0 53 -62 53h-88z" />
    <glyph glyph-name="macron" unicode="&#xaf;" horiz-adv-x="1269" 
d="M326 1262v133h618v-133h-618z" />
    <glyph glyph-name="degree" unicode="&#xb0;" horiz-adv-x="768" 
d="M385 868q-131 0 -216 85t-85 212q0 126 85 211.5t216 85.5q129 0 214 -85.5t85 -211.5q0 -127 -84.5 -212t-214.5 -85zM385 997q74 0 119 47t45 121q0 73 -45 120.5t-119 47.5t-120 -47.5t-46 -120.5q0 -74 46 -121t120 -47z" />
    <glyph glyph-name="plusminus" unicode="&#xb1;" 
d="M803 831h373v-145h-373v-375h-152v375h-372v145h372v373h152v-373zM279 0v145h897v-145h-897z" />
    <glyph glyph-name="uni00B2" unicode="&#xb2;" horiz-adv-x="675" 
d="M274 860h347v-133h-560v107l287 270q65 59 92 100.5t27 79.5q0 44 -32.5 72t-84.5 28q-56 0 -103 -34.5t-77 -102.5l-115 66q36 93 114.5 148t180.5 55q114 0 188 -66t74 -162q0 -114 -131 -233z" />
    <glyph glyph-name="uni00B3" unicode="&#xb3;" horiz-adv-x="659" 
d="M461 1120q69 -21 105 -68.5t36 -113.5q0 -102 -76.5 -163.5t-206.5 -61.5q-179 0 -280 116l80 99q78 -84 194 -84q69 0 106.5 29.5t37.5 76.5q0 105 -156 105h-78v129h82q70 0 107 25.5t37 72.5t-32 74.5t-91 27.5q-55 0 -105 -24.5t-84 -67.5l-94 90q48 63 122 98.5
t161 35.5q126 0 197 -59t71 -159q0 -141 -133 -178z" />
    <glyph glyph-name="acute" unicode="&#xb4;" horiz-adv-x="1269" 
d="M557 1214l234 302h202l-264 -302h-172z" />
    <glyph glyph-name="uni00B5" unicode="&#xb5;" horiz-adv-x="1267" 
d="M920 1036h163v-1036h-163v182q-41 -97 -133.5 -154t-204.5 -57q-153 0 -232 115v-537h-164v1487h164v-622q0 -151 61 -221t185 -70q142 0 233 88t91 248v577z" />
    <glyph glyph-name="paragraph" unicode="&#xb6;" horiz-adv-x="1327" 
d="M514 -266v1087h-31q-171 0 -269.5 86t-98.5 221t102 220.5t287 85.5h170v-1700h-160zM909 -266v1700h162v-1700h-162z" />
    <glyph glyph-name="periodcentered" unicode="&#xb7;" horiz-adv-x="507" 
d="M254 621q-55 0 -87 33t-32 87q0 52 32 84.5t87 32.5q53 0 85 -32.5t32 -84.5q0 -54 -31.5 -87t-85.5 -33z" />
    <glyph glyph-name="cedilla" unicode="&#xb8;" horiz-adv-x="1269" 
d="M422 -391l160 432h139l-125 -432h-174z" />
    <glyph glyph-name="uni00B9" unicode="&#xb9;" horiz-adv-x="495" 
d="M264 1501h123v-774h-141v627l-191 -97v138z" />
    <glyph glyph-name="ordmasculine" unicode="&#xba;" horiz-adv-x="1114" 
d="M557 586q-136 0 -241 63.5t-159.5 168.5t-54.5 233q0 198 125 331.5t330 133.5q203 0 329 -133.5t126 -331.5q0 -127 -55.5 -232.5t-160.5 -169t-239 -63.5zM557 729q132 0 212.5 90t80.5 232t-80.5 231.5t-212.5 89.5t-212.5 -89.5t-80.5 -231.5t80.5 -232t212.5 -90z
" />
    <glyph glyph-name="guillemotright" unicode="&#xbb;" horiz-adv-x="1101" 
d="M276 956l308 -436l-308 -438h-182l303 438l-303 436h182zM713 956l307 -436l-307 -438h-185l306 438l-306 436h185z" />
    <glyph glyph-name="onequarter" unicode="&#xbc;" horiz-adv-x="1536" 
d="M317 674v626l-190 -96v137l211 107h121v-774h-142zM1143 1434h168l-1004 -1434h-168zM1372 264v-119h-98v-159h-135v159h-398v119l371 496h162v-496h98zM883 264h256v340z" />
    <glyph glyph-name="onehalf" unicode="&#xbd;" horiz-adv-x="1536" 
d="M303 674v626l-190 -96v137l211 107h120v-774h-141zM1128 1434h168l-1003 -1434h-168zM1073 119h346v-133h-559v106l287 270q119 108 119 181q0 44 -32.5 72t-84.5 28q-56 0 -103 -34.5t-77 -102.5l-115 65q36 93 114 148t181 55q114 0 188 -65.5t74 -161.5
q0 -115 -131 -234z" />
    <glyph glyph-name="threequarters" unicode="&#xbe;" horiz-adv-x="1536" 
d="M621 885q0 -102 -76.5 -164t-204.5 -62q-182 0 -281 117l80 98q78 -83 195 -83q68 0 105.5 29.5t37.5 76.5q0 104 -158 104h-77v129h84q70 0 106.5 25.5t36.5 73.5q0 47 -33 74.5t-92 27.5q-113 0 -186 -92l-95 90q48 63 121 98t162 35q125 0 195.5 -59t70.5 -158
q0 -141 -133 -178q69 -21 105.5 -68.5t36.5 -113.5zM1229 1434h168l-1004 -1434h-168zM1458 264v-119h-98v-159h-135v159h-398v119l371 496h162v-496h98zM969 264h256v340z" />
    <glyph glyph-name="questiondown" unicode="&#xbf;" horiz-adv-x="962" 
d="M528 1036q54 0 86.5 -33.5t32.5 -87.5q0 -51 -32.5 -83.5t-86.5 -32.5q-55 0 -86.5 32t-31.5 84q0 55 31.5 88t86.5 33zM610 582v-99q0 -102 -31 -163t-124 -140l-101 -84q-110 -92 -110 -190q0 -89 60.5 -140t162.5 -51q100 0 185 52.5t139 148.5l129 -88
q-58 -123 -179.5 -196.5t-273.5 -73.5q-177 0 -286 95.5t-109 246.5q0 83 41.5 157.5t142.5 157.5l100 84q57 47 73.5 81.5t16.5 102.5v99h164z" />
    <glyph glyph-name="Agrave" unicode="&#xc0;" 
d="M872 1612h-172l-264 301h203zM1231 0l-158 393h-692l-158 -393h-178l586 1434h190l586 -1434h-176zM442 549h570l-285 713z" />
    <glyph glyph-name="Aacute" unicode="&#xc1;" 
d="M1022 1913l-264 -301h-172l233 301h203zM1231 0l-158 393h-692l-158 -393h-178l586 1434h190l586 -1434h-176zM442 549h570l-285 713z" />
    <glyph glyph-name="Acircumflex" unicode="&#xc2;" 
d="M727 1812l-188 -200h-168l280 301h152l280 -301h-168zM1231 0l-158 393h-692l-158 -393h-178l586 1434h190l586 -1434h-176zM442 549h570l-285 713z" />
    <glyph glyph-name="Atilde" unicode="&#xc3;" 
d="M590 1769q-32 0 -52 -33t-20 -96h-119q0 119 49.5 186.5t133.5 67.5q45 0 82.5 -19t97.5 -69q42 -37 61.5 -47t40.5 -10q32 0 52 33t20 98h119q0 -120 -49.5 -187t-133.5 -67q-40 0 -79 18t-101 70q-41 33 -61 44t-41 11zM1231 0l-158 393h-692l-158 -393h-178l586 1434
h190l586 -1434h-176zM442 549h570l-285 713z" />
    <glyph glyph-name="Adieresis" unicode="&#xc4;" 
d="M508 1655q-49 0 -81 32t-32 82t32 82.5t81 32.5q51 0 83 -32.5t32 -82.5t-32 -82t-83 -32zM946 1655q-51 0 -83 32t-32 82t32 82.5t83 32.5q49 0 81 -32.5t32 -82.5t-32 -82t-81 -32zM1231 0l-158 393h-692l-158 -393h-178l586 1434h190l586 -1434h-176zM442 549h570
l-285 713z" />
    <glyph glyph-name="Aring" unicode="&#xc5;" 
d="M727 1587q-104 0 -176 68t-72 168q0 98 72 166.5t176 68.5t176 -68.5t72 -166.5q0 -100 -72 -168t-176 -68zM727 1946q-56 0 -90.5 -35t-34.5 -88q0 -55 34.5 -90t90.5 -35t90.5 35t34.5 90q0 53 -34.5 88t-90.5 35zM1231 0l-158 393h-692l-158 -393h-178l586 1434h190
l586 -1434h-176zM442 549h570l-285 713z" />
    <glyph glyph-name="AE" unicode="&#xc6;" horiz-adv-x="2252" 
d="M1276 158h825v-158h-997v369h-619l-256 -369h-196l1001 1434h1047v-158h-805v-473h768v-158h-768v-487zM594 524h510v731z" />
    <glyph glyph-name="Ccedilla" unicode="&#xc7;" horiz-adv-x="1558" 
d="M866 131q157 0 278.5 72.5t194.5 218.5l140 -82q-85 -169 -238 -263.5t-344 -103.5l-104 -364h-175l138 368q-277 35 -450 241t-173 499q0 209 92 379t257.5 268t371.5 98q205 0 370.5 -94.5t254.5 -273.5l-144 -82q-146 291 -469 291q-247 0 -401 -164.5t-154 -421.5
t154 -421.5t401 -164.5z" />
    <glyph glyph-name="Egrave" unicode="&#xc8;" horiz-adv-x="1366" 
d="M840 1612h-172l-265 301h203zM387 158h825v-158h-997v1434h977v-158h-805v-475h764v-156h-764v-487z" />
    <glyph glyph-name="Eacute" unicode="&#xc9;" horiz-adv-x="1366" 
d="M989 1913l-264 -301h-172l233 301h203zM387 158h825v-158h-997v1434h977v-158h-805v-475h764v-156h-764v-487z" />
    <glyph glyph-name="Ecircumflex" unicode="&#xca;" horiz-adv-x="1366" 
d="M692 1812l-188 -200h-168l280 301h152l281 -301h-168zM387 158h825v-158h-997v1434h977v-158h-805v-475h764v-156h-764v-487z" />
    <glyph glyph-name="Edieresis" unicode="&#xcb;" horiz-adv-x="1366" 
d="M473 1655q-49 0 -81 32t-32 82t32 82.5t81 32.5q51 0 83 -32.5t32 -82.5t-32 -82t-83 -32zM911 1655q-51 0 -82.5 32t-31.5 82t31.5 82.5t82.5 32.5q49 0 81 -32.5t32 -82.5t-32 -82t-81 -32zM387 158h825v-158h-997v1434h977v-158h-805v-475h764v-156h-764v-487z" />
    <glyph glyph-name="Igrave" unicode="&#xcc;" horiz-adv-x="610" 
d="M453 1612h-172l-265 301h203zM219 0v1434h172v-1434h-172z" />
    <glyph glyph-name="Iacute" unicode="&#xcd;" horiz-adv-x="610" 
d="M166 1612l233 301h203l-264 -301h-172zM219 0v1434h172v-1434h-172z" />
    <glyph glyph-name="Icircumflex" unicode="&#xce;" horiz-adv-x="610" 
d="M381 1913l281 -301h-168l-189 200l-188 -200h-168l280 301h152zM219 0v1434h172v-1434h-172z" />
    <glyph glyph-name="Idieresis" unicode="&#xcf;" horiz-adv-x="610" 
d="M86 1655q-49 0 -81 32t-32 82t32 82.5t81 32.5q51 0 83 -32.5t32 -82.5t-32 -82t-83 -32zM524 1655q-51 0 -82.5 32t-31.5 82t31.5 82.5t82.5 32.5q49 0 81 -32.5t32 -82.5t-32 -82t-81 -32zM219 0v1434h172v-1434h-172z" />
    <glyph glyph-name="Eth" unicode="&#xd0;" horiz-adv-x="1605" 
d="M766 1434q208 0 367.5 -84.5t249.5 -248t90 -384.5t-90 -384.5t-249.5 -248t-367.5 -84.5h-514v647h-195v139h195v648h514zM766 160q247 0 386.5 145.5t139.5 411.5t-139.5 411.5t-386.5 145.5h-342v-488h410v-139h-410v-487h342z" />
    <glyph glyph-name="Ntilde" unicode="&#xd1;" horiz-adv-x="1626" 
d="M676 1769q-32 0 -52 -33t-20 -96h-119q0 119 49.5 186.5t133.5 67.5q45 0 82.5 -19t97.5 -69q42 -37 61.5 -47t40.5 -10q32 0 52 33t20 98h119q0 -120 -49.5 -187t-133.5 -67q-40 0 -79 18t-101 70q-41 33 -61 44t-41 11zM1243 1434h168v-1434h-162l-866 1161v-1161h-168
v1434h160l868 -1164v1164z" />
    <glyph glyph-name="Ograve" unicode="&#xd2;" horiz-adv-x="1730" 
d="M1012 1612h-172l-265 301h203zM864 -29q-159 0 -296 58.5t-232 159t-149 237.5t-54 291t54 291t149 237t232 158.5t296 58.5q212 0 381 -100t260.5 -269.5t91.5 -375.5q0 -154 -54 -291t-149 -237.5t-233 -159t-297 -58.5zM864 131q121 0 224.5 44.5t175.5 122.5
t112.5 186t40.5 233t-40.5 233t-112.5 186t-175.5 122.5t-224.5 44.5q-160 0 -287 -76t-196.5 -209.5t-69.5 -300.5t69.5 -300.5t196.5 -209.5t287 -76z" />
    <glyph glyph-name="Oacute" unicode="&#xd3;" horiz-adv-x="1730" 
d="M725 1612l233 301h203l-264 -301h-172zM864 -29q-159 0 -296 58.5t-232 159t-149 237.5t-54 291t54 291t149 237t232 158.5t296 58.5q212 0 381 -100t260.5 -269.5t91.5 -375.5q0 -154 -54 -291t-149 -237.5t-233 -159t-297 -58.5zM864 131q121 0 224.5 44.5t175.5 122.5
t112.5 186t40.5 233t-40.5 233t-112.5 186t-175.5 122.5t-224.5 44.5q-160 0 -287 -76t-196.5 -209.5t-69.5 -300.5t69.5 -300.5t196.5 -209.5t287 -76z" />
    <glyph glyph-name="Ocircumflex" unicode="&#xd4;" horiz-adv-x="1730" 
d="M864 1812l-188 -200h-168l280 301h152l281 -301h-168zM864 1462q212 0 381 -100t260.5 -269.5t91.5 -375.5q0 -154 -54 -291t-149 -237.5t-233 -159t-297 -58.5t-296 58.5t-232 159t-149 237.5t-54 291t54 291t149 237t232 158.5t296 58.5zM864 131q121 0 224.5 44.5
t175.5 122.5t112.5 186t40.5 233t-40.5 233t-112.5 186t-175.5 122.5t-224.5 44.5q-160 0 -287 -76t-196.5 -209.5t-69.5 -300.5t69.5 -300.5t196.5 -209.5t287 -76z" />
    <glyph glyph-name="Otilde" unicode="&#xd5;" horiz-adv-x="1730" 
d="M1010 1626q-41 0 -80 18t-101 70q-41 33 -61 44t-41 11q-32 0 -52 -33t-20 -96h-118q0 119 49 186.5t133 67.5q45 0 82.5 -19t97.5 -69q42 -37 61.5 -47t40.5 -10q32 0 52 33t20 98h119q0 -120 -49 -187t-133 -67zM864 -29q-159 0 -296 58.5t-232 159t-149 237.5t-54 291
t54 291t149 237t232 158.5t296 58.5q212 0 381 -100t260.5 -269.5t91.5 -375.5q0 -154 -54 -291t-149 -237.5t-233 -159t-297 -58.5zM864 131q121 0 224.5 44.5t175.5 122.5t112.5 186t40.5 233t-40.5 233t-112.5 186t-175.5 122.5t-224.5 44.5q-160 0 -287 -76
t-196.5 -209.5t-69.5 -300.5t69.5 -300.5t196.5 -209.5t287 -76z" />
    <glyph glyph-name="Odieresis" unicode="&#xd6;" horiz-adv-x="1730" 
d="M645 1655q-49 0 -81 32t-32 82t32 82.5t81 32.5q51 0 83 -32.5t32 -82.5t-32 -82t-83 -32zM1083 1655q-51 0 -82.5 32t-31.5 82t31.5 82.5t82.5 32.5q49 0 81 -32.5t32 -82.5t-32 -82t-81 -32zM864 -29q-159 0 -296 58.5t-232 159t-149 237.5t-54 291t54 291t149 237
t232 158.5t296 58.5q212 0 381 -100t260.5 -269.5t91.5 -375.5q0 -154 -54 -291t-149 -237.5t-233 -159t-297 -58.5zM864 131q121 0 224.5 44.5t175.5 122.5t112.5 186t40.5 233t-40.5 233t-112.5 186t-175.5 122.5t-224.5 44.5q-160 0 -287 -76t-196.5 -209.5t-69.5 -300.5
t69.5 -300.5t196.5 -209.5t287 -76z" />
    <glyph glyph-name="multiply" unicode="&#xd7;" 
d="M1139 965l-316 -316l316 -315l-97 -96l-315 315l-315 -315l-97 96l316 315l-316 316l97 96l315 -316l315 316z" />
    <glyph glyph-name="Oslash" unicode="&#xd8;" horiz-adv-x="1730" 
d="M1440 1192q157 -203 157 -475q0 -154 -54 -291t-149 -237.5t-233 -159t-297 -58.5q-278 0 -475 170l-149 -149l-101 98l152 152q-158 204 -158 475q0 154 54 291t149 237t232 158.5t296 58.5q280 0 477 -170l150 150l100 -99zM864 1303q-160 0 -287 -76t-196.5 -209.5
t-69.5 -300.5q0 -205 103 -355l811 812q-148 129 -361 129zM864 131q121 0 224.5 44.5t175.5 122.5t112.5 186t40.5 233q0 204 -102 352l-809 -809q148 -129 358 -129z" />
    <glyph glyph-name="Ugrave" unicode="&#xd9;" horiz-adv-x="1552" 
d="M924 1612h-172l-265 301h203zM776 -29q-273 0 -427 143t-154 400v920h172v-904q0 -399 409 -399q410 0 410 399v904h172v-920q0 -257 -154.5 -400t-427.5 -143z" />
    <glyph glyph-name="Uacute" unicode="&#xda;" horiz-adv-x="1552" 
d="M637 1612l233 301h203l-264 -301h-172zM776 -29q-273 0 -427 143t-154 400v920h172v-904q0 -399 409 -399q410 0 410 399v904h172v-920q0 -257 -154.5 -400t-427.5 -143z" />
    <glyph glyph-name="Ucircumflex" unicode="&#xdb;" horiz-adv-x="1552" 
d="M776 1812l-188 -200h-168l280 301h152l281 -301h-168zM1186 1434h172v-920q0 -257 -154.5 -400t-427.5 -143t-427 143t-154 400v920h172v-904q0 -399 409 -399q410 0 410 399v904z" />
    <glyph glyph-name="Udieresis" unicode="&#xdc;" horiz-adv-x="1552" 
d="M557 1655q-49 0 -81 32t-32 82t32 82.5t81 32.5q51 0 83 -32.5t32 -82.5t-32 -82t-83 -32zM995 1655q-51 0 -82.5 32t-31.5 82t31.5 82.5t82.5 32.5q49 0 81 -32.5t32 -82.5t-32 -82t-81 -32zM776 -29q-273 0 -427 143t-154 400v920h172v-904q0 -399 409 -399
q410 0 410 399v904h172v-920q0 -257 -154.5 -400t-427.5 -143z" />
    <glyph glyph-name="Yacute" unicode="&#xdd;" horiz-adv-x="1314" 
d="M952 1913l-264 -301h-172l234 301h202zM1104 1434h192l-553 -838v-596h-172v596l-555 838h195l446 -689z" />
    <glyph glyph-name="Thorn" unicode="&#xde;" horiz-adv-x="1380" 
d="M799 1174q228 0 354.5 -118.5t126.5 -324.5t-126 -323t-355 -117h-412v-291h-172v1434h172v-260h412zM784 446q166 0 242 69t76 216q0 148 -75.5 216.5t-242.5 68.5h-397v-570h397z" />
    <glyph glyph-name="germandbls" unicode="&#xdf;" horiz-adv-x="1255" 
d="M795 762q178 -17 273 -112.5t95 -252.5q0 -185 -126 -299t-345 -114q-73 0 -149 16v143q66 -14 123 -14q161 0 243 73t82 204q0 132 -82.5 200t-242.5 68h-123v147h39q161 0 245 78t84 219q0 252 -272 252q-148 0 -218.5 -77t-70.5 -236v-1057h-164v1063q0 213 117.5 333
t331.5 120q207 0 324.5 -107.5t117.5 -286.5q0 -137 -73 -232t-209 -128z" />
    <glyph glyph-name="agrave" unicode="&#xe0;" horiz-adv-x="1167" 
d="M729 1214h-172l-264 302h203zM588 1065q190 0 295.5 -102t105.5 -281v-682h-155v184q-37 -93 -136.5 -148.5t-234.5 -55.5q-165 0 -264 84.5t-99 228.5q0 143 108.5 226t309.5 83h311v80q0 112 -64 172.5t-183 60.5q-94 0 -176 -37.5t-140 -109.5l-104 98
q72 96 182 147.5t244 51.5zM489 117q146 0 243 86.5t97 216.5v51h-305q-128 0 -192 -45t-64 -129q0 -85 58 -132.5t163 -47.5z" />
    <glyph glyph-name="aacute" unicode="&#xe1;" horiz-adv-x="1167" 
d="M879 1516l-265 -302h-172l234 302h203zM588 1065q190 0 295.5 -102t105.5 -281v-682h-155v184q-37 -93 -136.5 -148.5t-234.5 -55.5q-165 0 -264 84.5t-99 228.5q0 143 108.5 226t309.5 83h311v80q0 112 -64 172.5t-183 60.5q-94 0 -176 -37.5t-140 -109.5l-104 98
q72 96 182 147.5t244 51.5zM489 117q146 0 243 86.5t97 216.5v51h-305q-128 0 -192 -45t-64 -129q0 -85 58 -132.5t163 -47.5z" />
    <glyph glyph-name="acircumflex" unicode="&#xe2;" horiz-adv-x="1167" 
d="M584 1415l-189 -201h-168l281 302h151l281 -302h-168zM588 1065q190 0 295.5 -102t105.5 -281v-682h-155v184q-37 -93 -136.5 -148.5t-234.5 -55.5q-165 0 -264 84.5t-99 228.5q0 143 108.5 226t309.5 83h311v80q0 112 -64 172.5t-183 60.5q-94 0 -176 -37.5t-140 -109.5
l-104 98q72 96 182 147.5t244 51.5zM489 117q146 0 243 86.5t97 216.5v51h-305q-128 0 -192 -45t-64 -129q0 -85 58 -132.5t163 -47.5z" />
    <glyph glyph-name="atilde" unicode="&#xe3;" horiz-adv-x="1167" 
d="M446 1372q-32 0 -51.5 -32.5t-19.5 -96.5h-119q0 119 49 186.5t133 67.5q45 0 82.5 -19t97.5 -69q42 -36 61.5 -46.5t41.5 -10.5q32 0 52 33t20 98h118q0 -120 -49 -187t-133 -67q-40 0 -79 18t-101 70q-40 33 -61 44t-42 11zM588 1065q190 0 295.5 -102t105.5 -281v-682
h-155v184q-37 -93 -136.5 -148.5t-234.5 -55.5q-165 0 -264 84.5t-99 228.5q0 143 108.5 226t309.5 83h311v80q0 112 -64 172.5t-183 60.5q-94 0 -176 -37.5t-140 -109.5l-104 98q72 96 182 147.5t244 51.5zM489 117q146 0 243 86.5t97 216.5v51h-305q-128 0 -192 -45
t-64 -129q0 -85 58 -132.5t163 -47.5z" />
    <glyph glyph-name="adieresis" unicode="&#xe4;" horiz-adv-x="1167" 
d="M365 1257q-49 0 -81 32.5t-32 82.5t32 82.5t81 32.5q51 0 82.5 -32.5t31.5 -82.5t-31.5 -82.5t-82.5 -32.5zM803 1257q-51 0 -83 32.5t-32 82.5t32 82.5t83 32.5q49 0 80.5 -32.5t31.5 -82.5t-31.5 -82.5t-80.5 -32.5zM588 1065q190 0 295.5 -102t105.5 -281v-682h-155
v184q-37 -93 -136.5 -148.5t-234.5 -55.5q-165 0 -264 84.5t-99 228.5q0 143 108.5 226t309.5 83h311v80q0 112 -64 172.5t-183 60.5q-94 0 -176 -37.5t-140 -109.5l-104 98q72 96 182 147.5t244 51.5zM489 117q146 0 243 86.5t97 216.5v51h-305q-128 0 -192 -45t-64 -129
q0 -85 58 -132.5t163 -47.5z" />
    <glyph glyph-name="aring" unicode="&#xe5;" horiz-adv-x="1167" 
d="M584 1190q-104 0 -176 67.5t-72 167.5q0 98 72 167t176 69t175.5 -68.5t71.5 -167.5q0 -100 -71.5 -167.5t-175.5 -67.5zM584 1548q-56 0 -90.5 -35t-34.5 -88q0 -55 34.5 -90t90.5 -35t90.5 35t34.5 90q0 53 -34.5 88t-90.5 35zM588 1065q190 0 295.5 -102t105.5 -281
v-682h-155v184q-37 -93 -136.5 -148.5t-234.5 -55.5q-165 0 -264 84.5t-99 228.5q0 143 108.5 226t309.5 83h311v80q0 112 -64 172.5t-183 60.5q-94 0 -176 -37.5t-140 -109.5l-104 98q72 96 182 147.5t244 51.5zM489 117q146 0 243 86.5t97 216.5v51h-305q-128 0 -192 -45
t-64 -129q0 -85 58 -132.5t163 -47.5z" />
    <glyph glyph-name="ae" unicode="&#xe6;" horiz-adv-x="1941" 
d="M1833 559q0 -47 -6 -88h-826q13 -162 111.5 -255t251.5 -93q201 0 330 166l112 -94q-76 -107 -191 -165.5t-255 -58.5q-153 0 -267 69t-175 193q-45 -120 -160.5 -191t-276.5 -71q-175 0 -278 85.5t-103 234.5q0 147 108 228t320 81h308v82q0 110 -67 170.5t-187 60.5
q-200 0 -316 -149l-104 100q69 96 181 148.5t249 52.5q275 0 360 -205q64 98 164.5 151.5t229.5 53.5q214 0 350.5 -141t136.5 -365zM1348 911q-140 0 -231 -84t-111 -227h661q-10 148 -96 229.5t-223 81.5zM494 109q148 0 245 89.5t97 221.5v51h-301q-267 0 -267 -178
q0 -87 59.5 -135.5t166.5 -48.5z" />
    <glyph glyph-name="ccedilla" unicode="&#xe7;" horiz-adv-x="1155" 
d="M647 123q209 0 295 209l148 -62q-42 -123 -143.5 -200t-237.5 -95l-107 -366h-174l135 366q-200 25 -325 174.5t-125 368.5q0 238 147 392.5t375 154.5q164 0 285 -79.5t174 -219.5l-152 -64q-85 209 -295 209q-165 0 -264.5 -107.5t-99.5 -285.5t100 -286.5t264 -108.5z
" />
    <glyph glyph-name="egrave" unicode="&#xe8;" horiz-adv-x="1228" 
d="M776 1214h-172l-264 302h203zM1120 557q0 -45 -6 -88h-833q13 -162 111 -254t255 -92q205 0 334 166l111 -94q-76 -107 -191 -165.5t-258 -58.5q-236 0 -383 151.5t-147 393.5q0 157 65 282t183 196t268 71q216 0 353.5 -141t137.5 -367zM629 911q-140 0 -231 -83.5
t-113 -225.5h667q-12 147 -99 228t-224 81z" />
    <glyph glyph-name="eacute" unicode="&#xe9;" horiz-adv-x="1228" 
d="M926 1516l-264 -302h-173l234 302h203zM1120 557q0 -45 -6 -88h-833q13 -162 111 -254t255 -92q205 0 334 166l111 -94q-76 -107 -191 -165.5t-258 -58.5q-236 0 -383 151.5t-147 393.5q0 157 65 282t183 196t268 71q216 0 353.5 -141t137.5 -367zM629 911
q-140 0 -231 -83.5t-113 -225.5h667q-12 147 -99 228t-224 81z" />
    <glyph glyph-name="ecircumflex" unicode="&#xea;" horiz-adv-x="1228" 
d="M631 1415l-189 -201h-168l281 302h152l280 -302h-168zM1120 557q0 -45 -6 -88h-833q13 -162 111 -254t255 -92q205 0 334 166l111 -94q-76 -107 -191 -165.5t-258 -58.5q-236 0 -383 151.5t-147 393.5q0 157 65 282t183 196t268 71q216 0 353.5 -141t137.5 -367zM629 911
q-140 0 -231 -83.5t-113 -225.5h667q-12 147 -99 228t-224 81z" />
    <glyph glyph-name="edieresis" unicode="&#xeb;" horiz-adv-x="1228" 
d="M412 1257q-49 0 -81 32.5t-32 82.5t32 82.5t81 32.5q51 0 82.5 -32.5t31.5 -82.5t-31.5 -82.5t-82.5 -32.5zM850 1257q-51 0 -83 32.5t-32 82.5t32 82.5t83 32.5q49 0 81 -32.5t32 -82.5t-32 -82.5t-81 -32.5zM1120 557q0 -45 -6 -88h-833q13 -162 111 -254t255 -92
q205 0 334 166l111 -94q-76 -107 -191 -165.5t-258 -58.5q-236 0 -383 151.5t-147 393.5q0 157 65 282t183 196t268 71q216 0 353.5 -141t137.5 -367zM629 911q-140 0 -231 -83.5t-113 -225.5h667q-12 147 -99 228t-224 81z" />
    <glyph glyph-name="igrave" unicode="&#xec;" horiz-adv-x="538" 
d="M250 1214l-225 302h196l193 -302h-164zM188 0v1036h164v-1036h-164z" />
    <glyph glyph-name="iacute" unicode="&#xed;" horiz-adv-x="538" 
d="M131 1214l193 302h198l-225 -302h-166zM188 0v1036h164v-1036h-164z" />
    <glyph glyph-name="icircumflex" unicode="&#xee;" horiz-adv-x="538" 
d="M346 1516l248 -302h-162l-162 203l-161 -203h-162l248 302h151zM188 0v1036h164v-1036h-164z" />
    <glyph glyph-name="idieresis" unicode="&#xef;" horiz-adv-x="538" 
d="M82 1257q-51 0 -83 32.5t-32 82.5t32 82.5t83 32.5t83 -32.5t32 -82.5t-32 -82.5t-83 -32.5zM459 1257q-51 0 -83 32.5t-32 82.5t32 82.5t83 32.5t82.5 -32.5t31.5 -82.5t-31.5 -82.5t-82.5 -32.5zM188 0v1036h164v-1036h-164z" />
    <glyph glyph-name="eth" unicode="&#xf0;" horiz-adv-x="1282" 
d="M840 1321q160 -140 245.5 -335.5t85.5 -422.5q0 -255 -127 -407q-151 -185 -399 -185q-158 0 -281 74t-187 193t-64 258q0 103 38 198t104.5 167.5t165.5 115.5t214 43q234 0 348 -168q-69 240 -256 389l-223 -158l-64 84l195 138q-109 66 -262 112l45 123
q189 -52 336 -154l213 152l63 -84zM643 121q161 0 261 106.5t100 268.5q0 163 -100 268.5t-261 105.5t-260.5 -105.5t-99.5 -268.5q0 -162 99.5 -268.5t260.5 -106.5z" />
    <glyph glyph-name="ntilde" unicode="&#xf1;" horiz-adv-x="1259" 
d="M498 1372q-32 0 -52 -33t-20 -96h-119q0 119 49 186.5t133 67.5q45 0 83 -19t98 -69q42 -37 61.5 -47t40.5 -10q32 0 52 33t20 98h119q0 -120 -49.5 -187t-133.5 -67q-40 0 -79 18t-101 70q-41 33 -61 44t-41 11zM713 1065q177 0 273.5 -104.5t96.5 -298.5v-662h-163v623
q0 149 -60 218.5t-184 69.5q-142 0 -234 -80.5t-92 -214.5v-616h-164v1036h164v-178q44 99 140 153t223 54z" />
    <glyph glyph-name="ograve" unicode="&#xf2;" horiz-adv-x="1286" 
d="M791 1214h-173l-264 302h203zM643 -29q-157 0 -279.5 75t-186.5 199t-64 273q0 148 64 272t186.5 199.5t279.5 75.5t280.5 -75.5t188 -199.5t64.5 -272q0 -111 -38 -210.5t-106.5 -174t-169 -118.5t-219.5 -44zM643 123q161 0 261 111t100 284t-99.5 283t-261.5 110
q-161 0 -260.5 -110t-99.5 -283t99.5 -284t260.5 -111z" />
    <glyph glyph-name="oacute" unicode="&#xf3;" horiz-adv-x="1286" 
d="M504 1214l233 302h203l-264 -302h-172zM643 -29q-157 0 -279.5 75t-186.5 199t-64 273q0 148 64 272t186.5 199.5t279.5 75.5t280.5 -75.5t188 -199.5t64.5 -272q0 -111 -38 -210.5t-106.5 -174t-169 -118.5t-219.5 -44zM643 123q161 0 261 111t100 284t-99.5 283
t-261.5 110q-161 0 -260.5 -110t-99.5 -283t99.5 -284t260.5 -111z" />
    <glyph glyph-name="ocircumflex" unicode="&#xf4;" horiz-adv-x="1286" 
d="M643 1415l-188 -201h-168l280 302h152l280 -302h-168zM643 1065q157 0 280.5 -75.5t188 -199.5t64.5 -272q0 -111 -38 -210.5t-106.5 -174t-169 -118.5t-219.5 -44q-157 0 -279.5 75t-186.5 199t-64 273q0 148 64 272t186.5 199.5t279.5 75.5zM643 123q161 0 261 111
t100 284t-99.5 283t-261.5 110q-161 0 -260.5 -110t-99.5 -283t99.5 -284t260.5 -111z" />
    <glyph glyph-name="otilde" unicode="&#xf5;" horiz-adv-x="1286" 
d="M788 1229q-40 0 -79 18t-101 70q-41 33 -61 44t-41 11q-32 0 -52 -33t-20 -96h-119q0 119 49.5 186.5t133.5 67.5q45 0 82.5 -19t97.5 -69q42 -37 61.5 -47t40.5 -10q32 0 52 33t20 98h119q0 -120 -49.5 -187t-133.5 -67zM643 -29q-157 0 -279.5 75t-186.5 199t-64 273
q0 148 64 272t186.5 199.5t279.5 75.5t280.5 -75.5t188 -199.5t64.5 -272q0 -111 -38 -210.5t-106.5 -174t-169 -118.5t-219.5 -44zM643 123q161 0 261 111t100 284t-99.5 283t-261.5 110q-161 0 -260.5 -110t-99.5 -283t99.5 -284t260.5 -111z" />
    <glyph glyph-name="odieresis" unicode="&#xf6;" horiz-adv-x="1286" 
d="M424 1257q-49 0 -81 32.5t-32 82.5t32 82.5t81 32.5q51 0 83 -32.5t32 -82.5t-32 -82.5t-83 -32.5zM862 1257q-51 0 -82.5 32.5t-31.5 82.5t31.5 82.5t82.5 32.5q49 0 81 -32.5t32 -82.5t-32 -82.5t-81 -32.5zM643 -29q-157 0 -279.5 75t-186.5 199t-64 273q0 148 64 272
t186.5 199.5t279.5 75.5t280.5 -75.5t188 -199.5t64.5 -272q0 -111 -38 -210.5t-106.5 -174t-169 -118.5t-219.5 -44zM643 123q161 0 261 111t100 284t-99.5 283t-261.5 110q-161 0 -260.5 -110t-99.5 -283t99.5 -284t260.5 -111z" />
    <glyph glyph-name="divide" unicode="&#xf7;" 
d="M727 893q-51 0 -83 32.5t-32 82.5t32 82t83 32t83 -32t32 -82t-32 -82.5t-83 -32.5zM279 578v143h897v-143h-897zM727 176q-51 0 -83 32.5t-32 82.5t32 82.5t83 32.5t83 -32.5t32 -82.5t-32 -82.5t-83 -32.5z" />
    <glyph glyph-name="oslash" unicode="&#xf8;" horiz-adv-x="1294" 
d="M1208 987l-133 -133q105 -145 105 -336q0 -111 -38 -210.5t-106.5 -174t-169 -118.5t-219.5 -44q-199 0 -338 117l-131 -131l-92 92l133 133q-102 145 -102 336q0 148 64 272t186.5 199.5t279.5 75.5q199 0 338 -117l131 131zM647 911q-161 0 -260.5 -110t-99.5 -283
q0 -130 55 -221l535 534q-93 80 -230 80zM647 123q161 0 261 111t100 284q0 129 -56 221l-534 -534q91 -82 229 -82z" />
    <glyph glyph-name="ugrave" unicode="&#xf9;" horiz-adv-x="1251" 
d="M768 1214h-172l-264 302h203zM903 1036h164v-1036h-164v182q-42 -100 -140 -155.5t-226 -55.5q-177 0 -268 104t-91 300v661h164v-622q0 -153 56 -222t180 -69q141 0 233 81.5t92 215.5v616z" />
    <glyph glyph-name="uacute" unicode="&#xfa;" horiz-adv-x="1251" 
d="M918 1516l-265 -302h-172l234 302h203zM903 1036h164v-1036h-164v182q-42 -100 -140 -155.5t-226 -55.5q-177 0 -268 104t-91 300v661h164v-622q0 -153 56 -222t180 -69q141 0 233 81.5t92 215.5v616z" />
    <glyph glyph-name="ucircumflex" unicode="&#xfb;" horiz-adv-x="1251" 
d="M623 1415l-189 -201h-168l281 302h151l281 -302h-168zM903 1036h164v-1036h-164v182q-42 -100 -140 -155.5t-226 -55.5q-177 0 -268 104t-91 300v661h164v-622q0 -153 56 -222t180 -69q141 0 233 81.5t92 215.5v616z" />
    <glyph glyph-name="udieresis" unicode="&#xfc;" horiz-adv-x="1251" 
d="M403 1257q-49 0 -80.5 32.5t-31.5 82.5t31.5 82.5t80.5 32.5q51 0 83 -32.5t32 -82.5t-32 -82.5t-83 -32.5zM842 1257q-51 0 -83 32.5t-32 82.5t32 82.5t83 32.5q49 0 80.5 -32.5t31.5 -82.5t-31.5 -82.5t-80.5 -32.5zM903 1036h164v-1036h-164v182q-42 -100 -140 -155.5
t-226 -55.5q-177 0 -268 104t-91 300v661h164v-622q0 -153 56 -222t180 -69q141 0 233 81.5t92 215.5v616z" />
    <glyph glyph-name="yacute" unicode="&#xfd;" horiz-adv-x="1101" 
d="M848 1516l-264 -302h-172l233 302h203zM897 1036h172l-582 -1444h-170l158 394l-434 1050h172l346 -866z" />
    <glyph glyph-name="thorn" unicode="&#xfe;" horiz-adv-x="1343" 
d="M739 1065q216 0 354 -152.5t138 -394.5t-138 -394.5t-354 -152.5q-134 0 -238.5 61t-150.5 165v-607h-164v1909h164v-659q46 103 151 164t238 61zM700 123q161 0 261 111t100 284t-99.5 283t-261.5 110q-160 0 -259 -110t-99 -283t99 -284t259 -111z" />
    <glyph glyph-name="ydieresis" unicode="&#xff;" horiz-adv-x="1101" 
d="M334 1257q-50 0 -82.5 32.5t-32.5 82.5t32.5 82.5t82.5 32.5q51 0 83 -32.5t32 -82.5t-32 -82.5t-83 -32.5zM772 1257q-51 0 -83 32.5t-32 82.5t32 82.5t83 32.5q49 0 81 -32.5t32 -82.5t-32 -82.5t-81 -32.5zM897 1036h172l-582 -1444h-170l158 394l-434 1050h172
l346 -866z" />
    <glyph glyph-name="Amacron" unicode="&#x100;" 
d="M1036 1792v-133h-618v133h618zM1231 0l-158 393h-692l-158 -393h-178l586 1434h190l586 -1434h-176zM442 549h570l-285 713z" />
    <glyph glyph-name="amacron" unicode="&#x101;" horiz-adv-x="1167" 
d="M893 1395v-133h-619v133h619zM588 1065q190 0 295.5 -102t105.5 -281v-682h-155v184q-37 -93 -136.5 -148.5t-234.5 -55.5q-165 0 -264 84.5t-99 228.5q0 143 108.5 226t309.5 83h311v80q0 112 -64 172.5t-183 60.5q-94 0 -176 -37.5t-140 -109.5l-104 98
q72 96 182 147.5t244 51.5zM489 117q146 0 243 86.5t97 216.5v51h-305q-128 0 -192 -45t-64 -129q0 -85 58 -132.5t163 -47.5z" />
    <glyph glyph-name="Abreve" unicode="&#x102;" 
d="M727 1599q-140 0 -220.5 72.5t-80.5 194.5v8h145q0 -74 40.5 -115t115.5 -41t115.5 41t40.5 115h145v-8q0 -122 -80.5 -194.5t-220.5 -72.5zM1231 0l-158 393h-692l-158 -393h-178l586 1434h190l586 -1434h-176zM442 549h570l-285 713z" />
    <glyph glyph-name="abreve" unicode="&#x103;" horiz-adv-x="1167" 
d="M584 1202q-140 0 -220.5 72t-80.5 194v9h145q0 -74 40.5 -115t115.5 -41t115 41t40 115h146v-9q0 -122 -80.5 -194t-220.5 -72zM588 1065q190 0 295.5 -102t105.5 -281v-682h-155v184q-37 -93 -136.5 -148.5t-234.5 -55.5q-165 0 -264 84.5t-99 228.5q0 143 108.5 226
t309.5 83h311v80q0 112 -64 172.5t-183 60.5q-94 0 -176 -37.5t-140 -109.5l-104 98q72 96 182 147.5t244 51.5zM489 117q146 0 243 86.5t97 216.5v51h-305q-128 0 -192 -45t-64 -129q0 -85 58 -132.5t163 -47.5z" />
    <glyph glyph-name="Aogonek" unicode="&#x104;" 
d="M1214 -221q0 -84 127 -84h66v-133h-84q-125 0 -193.5 53t-68.5 139q0 140 184 246h-14l-158 393h-692l-158 -393h-178l586 1434h190l586 -1434q-107 -77 -150 -127.5t-43 -93.5zM442 549h570l-285 713z" />
    <glyph glyph-name="aogonek" unicode="&#x105;" horiz-adv-x="1167" 
d="M989 0q-107 -77 -149.5 -127.5t-42.5 -93.5q0 -84 127 -84h65v-133h-84q-125 0 -193.5 53t-68.5 139q0 140 191 250v180q-37 -93 -136.5 -148.5t-234.5 -55.5q-165 0 -264 84.5t-99 228.5q0 143 108.5 226t309.5 83h311v80q0 112 -64 172.5t-183 60.5q-94 0 -176 -37.5
t-140 -109.5l-104 98q72 96 182 147.5t244 51.5q190 0 295.5 -102t105.5 -281v-682zM489 117q146 0 243 86.5t97 216.5v51h-305q-128 0 -192 -45t-64 -129q0 -85 58 -132.5t163 -47.5z" />
    <glyph glyph-name="Cacute" unicode="&#x106;" horiz-adv-x="1558" 
d="M711 1612l233 301h203l-264 -301h-172zM854 -29q-208 0 -373.5 98t-256.5 268.5t-91 379.5t92 379t257.5 268t371.5 98q205 0 370.5 -94.5t254.5 -273.5l-144 -82q-146 291 -469 291q-247 0 -401 -164.5t-154 -421.5t154 -421.5t401 -164.5q157 0 278.5 72.5t194.5 218.5
l140 -82q-89 -179 -255 -274t-370 -95z" />
    <glyph glyph-name="cacute" unicode="&#x107;" horiz-adv-x="1155" 
d="M496 1214l233 302h203l-264 -302h-172zM635 -29q-228 0 -375 154.5t-147 392.5t147 392.5t375 154.5q164 0 285 -79.5t174 -219.5l-152 -64q-85 209 -295 209q-165 0 -264.5 -107.5t-99.5 -285.5t100 -286.5t264 -108.5q209 0 295 209l148 -62q-49 -140 -171.5 -219.5
t-283.5 -79.5z" />
    <glyph glyph-name="Ccircumflex" unicode="&#x108;" horiz-adv-x="1558" 
d="M852 1812l-188 -200h-168l280 301h152l280 -301h-168zM866 131q157 0 278.5 72.5t194.5 218.5l140 -82q-89 -179 -255 -274t-370 -95q-208 0 -373.5 98t-256.5 268.5t-91 379.5t92 379t257.5 268t371.5 98q205 0 370.5 -94.5t254.5 -273.5l-144 -82q-146 291 -469 291
q-247 0 -401 -164.5t-154 -421.5t154 -421.5t401 -164.5z" />
    <glyph glyph-name="ccircumflex" unicode="&#x109;" horiz-adv-x="1155" 
d="M635 1415l-189 -201h-167l280 302h152l280 -302h-168zM647 123q209 0 295 209l148 -62q-49 -140 -171.5 -219.5t-283.5 -79.5q-228 0 -375 154.5t-147 392.5t147 392.5t375 154.5q164 0 285 -79.5t174 -219.5l-152 -64q-85 209 -295 209q-165 0 -264.5 -107.5
t-99.5 -285.5t100 -286.5t264 -108.5z" />
    <glyph glyph-name="Cdotaccent" unicode="&#x10a;" horiz-adv-x="1558" 
d="M852 1655q-51 0 -83 32t-32 82t32 82.5t83 32.5t83 -32.5t32 -82.5t-32 -82t-83 -32zM854 -29q-208 0 -373.5 98t-256.5 268.5t-91 379.5t92 379t257.5 268t371.5 98q205 0 370.5 -94.5t254.5 -273.5l-144 -82q-146 291 -469 291q-247 0 -401 -164.5t-154 -421.5
t154 -421.5t401 -164.5q157 0 278.5 72.5t194.5 218.5l140 -82q-89 -179 -255 -274t-370 -95z" />
    <glyph glyph-name="cdotaccent" unicode="&#x10b;" horiz-adv-x="1155" 
d="M635 1257q-51 0 -83 32.5t-32 82.5t32 82.5t83 32.5t83 -32.5t32 -82.5t-32 -82.5t-83 -32.5zM635 -29q-228 0 -375 154.5t-147 392.5t147 392.5t375 154.5q164 0 285 -79.5t174 -219.5l-152 -64q-85 209 -295 209q-165 0 -264.5 -107.5t-99.5 -285.5t100 -286.5
t264 -108.5q209 0 295 209l148 -62q-49 -140 -171.5 -219.5t-283.5 -79.5z" />
    <glyph glyph-name="Ccaron" unicode="&#x10c;" horiz-adv-x="1558" 
d="M928 1612h-152l-280 301h168l188 -201l188 201h168zM866 131q157 0 278.5 72.5t194.5 218.5l140 -82q-89 -179 -255 -274t-370 -95q-208 0 -373.5 98t-256.5 268.5t-91 379.5t92 379t257.5 268t371.5 98q205 0 370.5 -94.5t254.5 -273.5l-144 -82q-146 291 -469 291
q-247 0 -401 -164.5t-154 -421.5t154 -421.5t401 -164.5z" />
    <glyph glyph-name="ccaron" unicode="&#x10d;" horiz-adv-x="1155" 
d="M711 1214h-152l-280 302h167l189 -201l188 201h168zM647 123q209 0 295 209l148 -62q-49 -140 -171.5 -219.5t-283.5 -79.5q-228 0 -375 154.5t-147 392.5t147 392.5t375 154.5q164 0 285 -79.5t174 -219.5l-152 -64q-85 209 -295 209q-165 0 -264.5 -107.5t-99.5 -285.5
t100 -286.5t264 -108.5z" />
    <glyph glyph-name="Dcaron" unicode="&#x10e;" horiz-adv-x="1568" 
d="M786 1612h-151l-281 301h168l189 -201l188 201h168zM731 1434q207 0 366 -84.5t249 -248t90 -384.5t-90 -384.5t-249 -248t-366 -84.5h-516v1434h516zM731 160q245 0 384.5 145.5t139.5 411.5t-139.5 411.5t-384.5 145.5h-344v-1114h344z" />
    <glyph glyph-name="dcaron" unicode="&#x10f;" horiz-adv-x="1443" 
d="M993 840v659h164v-1499h-164v197q-46 -104 -150.5 -165t-238.5 -61q-216 0 -353.5 152.5t-137.5 394.5t137.5 394.5t353.5 152.5q133 0 238 -61t151 -164zM1323 1499h170l-43 -401h-127v401zM643 123q160 0 259 111t99 284t-99 283t-259 110q-161 0 -260.5 -110
t-99.5 -283t99.5 -284t260.5 -111z" />
    <glyph glyph-name="Dcroat" unicode="&#x110;" horiz-adv-x="1605" 
d="M766 1434q208 0 367.5 -84.5t249.5 -248t90 -384.5t-90 -384.5t-249.5 -248t-367.5 -84.5h-514v647h-195v139h195v648h514zM766 160q247 0 386.5 145.5t139.5 411.5t-139.5 411.5t-386.5 145.5h-342v-488h410v-139h-410v-487h342z" />
    <glyph glyph-name="dcroat" unicode="&#x111;" horiz-adv-x="1343" 
d="M1339 1327v-129h-182v-1198h-164v197q-46 -104 -150.5 -165t-238.5 -61q-215 0 -353 150.5t-138 382.5t138 382t353 150q134 0 238.5 -60.5t150.5 -164.5v387h-364v129h364v172h164v-172h182zM643 123q159 0 258.5 108.5t99.5 272.5q0 165 -99.5 273t-258.5 108
q-161 0 -260.5 -108t-99.5 -273q0 -164 100 -272.5t260 -108.5z" />
    <glyph glyph-name="Emacron" unicode="&#x112;" horiz-adv-x="1366" 
d="M1001 1792v-133h-618v133h618zM387 158h825v-158h-997v1434h977v-158h-805v-475h764v-156h-764v-487z" />
    <glyph glyph-name="emacron" unicode="&#x113;" horiz-adv-x="1228" 
d="M940 1395v-133h-618v133h618zM1120 557q0 -45 -6 -88h-833q13 -162 111 -254t255 -92q205 0 334 166l111 -94q-76 -107 -191 -165.5t-258 -58.5q-236 0 -383 151.5t-147 393.5q0 157 65 282t183 196t268 71q216 0 353.5 -141t137.5 -367zM629 911q-140 0 -231 -83.5
t-113 -225.5h667q-12 147 -99 228t-224 81z" />
    <glyph glyph-name="Ebreve" unicode="&#x114;" horiz-adv-x="1366" 
d="M692 1599q-140 0 -220.5 72.5t-80.5 194.5v8h146q0 -74 40 -115t115 -41t115.5 41t40.5 115h145v-8q0 -122 -80.5 -194.5t-220.5 -72.5zM387 158h825v-158h-997v1434h977v-158h-805v-475h764v-156h-764v-487z" />
    <glyph glyph-name="ebreve" unicode="&#x115;" horiz-adv-x="1228" 
d="M631 1202q-140 0 -220.5 72t-80.5 194v9h145q0 -74 40.5 -115t115.5 -41t115 41t40 115h146v-9q0 -122 -80.5 -194t-220.5 -72zM1120 557q0 -45 -6 -88h-833q13 -162 111 -254t255 -92q205 0 334 166l111 -94q-76 -107 -191 -165.5t-258 -58.5q-236 0 -383 151.5
t-147 393.5q0 157 65 282t183 196t268 71q216 0 353.5 -141t137.5 -367zM629 911q-140 0 -231 -83.5t-113 -225.5h667q-12 147 -99 228t-224 81z" />
    <glyph glyph-name="Edotaccent" unicode="&#x116;" horiz-adv-x="1366" 
d="M692 1655q-51 0 -82.5 32t-31.5 82t31.5 82.5t82.5 32.5t83 -32.5t32 -82.5t-32 -82t-83 -32zM387 158h825v-158h-997v1434h977v-158h-805v-475h764v-156h-764v-487z" />
    <glyph glyph-name="edotaccent" unicode="&#x117;" horiz-adv-x="1228" 
d="M631 1257q-51 0 -83 32.5t-32 82.5t32 82.5t83 32.5t82.5 -32.5t31.5 -82.5t-31.5 -82.5t-82.5 -32.5zM1120 557q0 -45 -6 -88h-833q13 -162 111 -254t255 -92q205 0 334 166l111 -94q-76 -107 -191 -165.5t-258 -58.5q-236 0 -383 151.5t-147 393.5q0 157 65 282
t183 196t268 71q216 0 353.5 -141t137.5 -367zM629 911q-140 0 -231 -83.5t-113 -225.5h667q-12 147 -99 228t-224 81z" />
    <glyph glyph-name="Eogonek" unicode="&#x118;" horiz-adv-x="1366" 
d="M1212 0q-107 -77 -149.5 -127.5t-42.5 -93.5q0 -84 127 -84h65v-133h-84q-125 0 -193.5 53t-68.5 139q0 139 185 246h-836v1434h977v-158h-805v-475h764v-156h-764v-487h825v-158z" />
    <glyph glyph-name="eogonek" unicode="&#x119;" horiz-adv-x="1228" 
d="M1120 557q0 -45 -6 -88h-833q13 -162 111 -254t255 -92q205 0 334 166l111 -94q-73 -106 -197 -168q-107 -77 -150 -128t-43 -94q0 -84 127 -84h66v-133h-84q-125 0 -193.5 53.5t-68.5 139.5q0 107 102 190h-8q-236 0 -383 151.5t-147 393.5q0 157 65 282t183 196t268 71
q216 0 353.5 -141t137.5 -367zM629 911q-140 0 -231 -83.5t-113 -225.5h667q-12 147 -99 228t-224 81z" />
    <glyph glyph-name="Ecaron" unicode="&#x11a;" horiz-adv-x="1366" 
d="M768 1612h-152l-280 301h168l188 -201l189 201h168zM387 158h825v-158h-997v1434h977v-158h-805v-475h764v-156h-764v-487z" />
    <glyph glyph-name="ecaron" unicode="&#x11b;" horiz-adv-x="1228" 
d="M707 1214h-152l-281 302h168l189 -201l188 201h168zM1120 557q0 -45 -6 -88h-833q13 -162 111 -254t255 -92q205 0 334 166l111 -94q-76 -107 -191 -165.5t-258 -58.5q-236 0 -383 151.5t-147 393.5q0 157 65 282t183 196t268 71q216 0 353.5 -141t137.5 -367zM629 911
q-140 0 -231 -83.5t-113 -225.5h667q-12 147 -99 228t-224 81z" />
    <glyph glyph-name="Gcircumflex" unicode="&#x11c;" horiz-adv-x="1603" 
d="M848 1812l-189 -200h-167l280 301h152l280 -301h-168zM907 762h551v-561q-84 -108 -233 -169t-332 -61q-173 0 -316 55.5t-240 153.5t-150.5 235t-53.5 298q0 218 93.5 389t260.5 265.5t379 94.5q185 0 332 -73t232 -205l-132 -94q-69 104 -179.5 158.5t-250.5 54.5
q-251 0 -404 -162t-153 -430q0 -269 158 -424.5t422 -155.5q128 0 234 36t165 95v342h-383v158z" />
    <glyph glyph-name="gcircumflex" unicode="&#x11d;" horiz-adv-x="1343" 
d="M674 1415l-189 -201h-168l281 302h152l280 -302h-168zM993 1036h164v-919q0 -269 -139 -412t-397 -143q-146 0 -268 45.5t-201 128.5l94 121q71 -68 168 -106t207 -38q180 0 276 102.5t96 301.5v102q-46 -101 -150 -160t-237 -59q-216 0 -354.5 148.5t-138.5 383.5
q0 234 138.5 383.5t354.5 149.5q133 0 237 -60t150 -163v194zM643 152q160 0 259 106.5t99 273.5t-99 273t-259 106q-162 0 -261 -106t-99 -273t99.5 -273.5t260.5 -106.5z" />
    <glyph glyph-name="Gbreve" unicode="&#x11e;" horiz-adv-x="1603" 
d="M848 1599q-140 0 -220.5 72.5t-80.5 194.5v8h145q0 -74 40.5 -115t115.5 -41t115.5 41t40.5 115h145v-8q0 -122 -80.5 -194.5t-220.5 -72.5zM907 762h551v-561q-84 -108 -233 -169t-332 -61q-173 0 -316 55.5t-240 153.5t-150.5 235t-53.5 298q0 218 93.5 389
t260.5 265.5t379 94.5q185 0 332 -73t232 -205l-132 -94q-69 104 -179.5 158.5t-250.5 54.5q-251 0 -404 -162t-153 -430q0 -269 158 -424.5t422 -155.5q128 0 234 36t165 95v342h-383v158z" />
    <glyph glyph-name="gbreve" unicode="&#x11f;" horiz-adv-x="1343" 
d="M674 1202q-140 0 -220.5 72t-80.5 194v9h145q0 -74 40.5 -115t115.5 -41t115 41t40 115h146v-9q0 -122 -80.5 -194t-220.5 -72zM993 1036h164v-919q0 -269 -139 -412t-397 -143q-146 0 -268 45.5t-201 128.5l94 121q71 -68 168 -106t207 -38q180 0 276 102.5t96 301.5
v102q-46 -101 -150 -160t-237 -59q-216 0 -354.5 148.5t-138.5 383.5q0 234 138.5 383.5t354.5 149.5q133 0 237 -60t150 -163v194zM643 152q160 0 259 106.5t99 273.5t-99 273t-259 106q-162 0 -261 -106t-99 -273t99.5 -273.5t260.5 -106.5z" />
    <glyph glyph-name="Gdotaccent" unicode="&#x120;" horiz-adv-x="1603" 
d="M848 1655q-51 0 -83 32t-32 82t32 82.5t83 32.5t83 -32.5t32 -82.5t-32 -82t-83 -32zM907 762h551v-561q-84 -108 -233 -169t-332 -61q-173 0 -316 55.5t-240 153.5t-150.5 235t-53.5 298q0 218 93.5 389t260.5 265.5t379 94.5q185 0 332 -73t232 -205l-132 -94
q-69 104 -179.5 158.5t-250.5 54.5q-251 0 -404 -162t-153 -430q0 -269 158 -424.5t422 -155.5q128 0 234 36t165 95v342h-383v158z" />
    <glyph glyph-name="gdotaccent" unicode="&#x121;" horiz-adv-x="1343" 
d="M674 1257q-51 0 -83 32.5t-32 82.5t32 82.5t83 32.5t82.5 -32.5t31.5 -82.5t-31.5 -82.5t-82.5 -32.5zM993 1036h164v-919q0 -269 -139 -412t-397 -143q-146 0 -268 45.5t-201 128.5l94 121q71 -68 168 -106t207 -38q180 0 276 102.5t96 301.5v102q-46 -101 -150 -160
t-237 -59q-216 0 -354.5 148.5t-138.5 383.5q0 234 138.5 383.5t354.5 149.5q133 0 237 -60t150 -163v194zM643 152q160 0 259 106.5t99 273.5t-99 273t-259 106q-162 0 -261 -106t-99 -273t99.5 -273.5t260.5 -106.5z" />
    <glyph glyph-name="uni0122" unicode="&#x122;" horiz-adv-x="1603" 
d="M907 762h551v-561q-84 -108 -233 -169t-332 -61q-173 0 -316 55.5t-240 153.5t-150.5 235t-53.5 298q0 218 93.5 389t260.5 265.5t379 94.5q185 0 332 -73t232 -205l-132 -94q-69 104 -179.5 158.5t-250.5 54.5q-251 0 -404 -162t-153 -430q0 -269 158 -424.5t422 -155.5
q128 0 234 36t165 95v342h-383v158zM709 -516l82 330h170l-125 -330h-127z" />
    <glyph glyph-name="uni0123" unicode="&#x123;" horiz-adv-x="1343" 
d="M840 1552l-82 -329h-170l125 329h127zM993 1036h164v-919q0 -269 -139 -412t-397 -143q-146 0 -268 45.5t-201 128.5l94 121q71 -68 168 -106t207 -38q180 0 276 102.5t96 301.5v102q-46 -101 -150 -160t-237 -59q-216 0 -354.5 148.5t-138.5 383.5q0 234 138.5 383.5
t354.5 149.5q133 0 237 -60t150 -163v194zM643 152q160 0 259 106.5t99 273.5t-99 273t-259 106q-162 0 -261 -106t-99 -273t99.5 -273.5t260.5 -106.5z" />
    <glyph glyph-name="Hcircumflex" unicode="&#x124;" horiz-adv-x="1605" 
d="M803 1812l-189 -200h-168l281 301h152l280 -301h-168zM1219 1434h172v-1434h-172v655h-832v-655h-172v1434h172v-619h832v619z" />
    <glyph glyph-name="hcircumflex" unicode="&#x125;" horiz-adv-x="1259" 
d="M457 1677l-189 201l-188 -201h-168l281 301h151l281 -301h-168zM713 1065q177 0 273.5 -104.5t96.5 -298.5v-662h-163v623q0 149 -60 218.5t-184 69.5q-142 0 -234 -80.5t-92 -214.5v-616h-164v1499h164v-641q44 99 140 153t223 54z" />
    <glyph glyph-name="Hbar" unicode="&#x126;" horiz-adv-x="1640" 
d="M1554 1192v-139h-147v-1053h-172v655h-832v-655h-170v1053h-147v139h147v242h170v-242h832v242h172v-242h147zM1235 815v238h-832v-238h832z" />
    <glyph glyph-name="hbar" unicode="&#x127;" horiz-adv-x="1259" 
d="M713 1036q177 0 273.5 -104.5t96.5 -298.5v-633h-163v596q0 149 -60 219t-184 70q-142 0 -234 -81t-92 -216v-588h-164v1198h-182v129h182v172h164v-172h365v-129h-365v-369q44 99 140 153t223 54z" />
    <glyph glyph-name="Itilde" unicode="&#x128;" horiz-adv-x="610" 
d="M451 1626q-41 0 -80 18t-101 70q-41 33 -61 44t-41 11q-32 0 -52 -33t-20 -96h-119q0 119 49.5 186.5t133.5 67.5q45 0 82.5 -19t97.5 -69q42 -37 61.5 -47t40.5 -10q32 0 52 33t20 98h119q0 -120 -49 -187t-133 -67zM219 0v1434h172v-1434h-172z" />
    <glyph glyph-name="itilde" unicode="&#x129;" horiz-adv-x="538" 
d="M412 1229q-36 0 -73.5 18t-100.5 70q-65 55 -101 55q-53 0 -53 -129h-115q0 126 42.5 190t117.5 64q41 0 76 -19t96 -69q42 -36 62 -46.5t40 -10.5q54 0 54 131h114q0 -127 -41.5 -190.5t-117.5 -63.5zM188 0v1036h164v-1036h-164z" />
    <glyph glyph-name="Imacron" unicode="&#x12a;" horiz-adv-x="610" 
d="M-4 1659v133h618v-133h-618zM219 0v1434h172v-1434h-172z" />
    <glyph glyph-name="imacron" unicode="&#x12b;" horiz-adv-x="538" 
d="M6 1262v133h529v-133h-529zM188 0v1036h164v-1036h-164z" />
    <glyph glyph-name="Ibreve" unicode="&#x12c;" horiz-adv-x="610" 
d="M305 1599q-140 0 -220.5 72.5t-80.5 194.5v8h146q0 -74 40 -115t115 -41t115.5 41t40.5 115h145v-8q0 -122 -80.5 -194.5t-220.5 -72.5zM219 0v1434h172v-1434h-172z" />
    <glyph glyph-name="ibreve" unicode="&#x12d;" horiz-adv-x="538" 
d="M270 1202q-134 0 -211 72t-77 194v9h137q0 -75 38 -115.5t113 -40.5t113.5 40.5t38.5 115.5h137v-9q0 -122 -77.5 -194t-211.5 -72zM188 0v1036h164v-1036h-164z" />
    <glyph glyph-name="Iogonek" unicode="&#x12e;" horiz-adv-x="610" 
d="M391 0q-107 -77 -149.5 -127.5t-42.5 -93.5q0 -84 127 -84h65v-133h-84q-125 0 -193.5 53t-68.5 139q0 140 184 246h-10v1434h172v-1434z" />
    <glyph glyph-name="iogonek" unicode="&#x12f;" horiz-adv-x="538" 
d="M270 1487q51 0 83 -32.5t32 -82.5t-32 -82.5t-83 -32.5t-82.5 32.5t-31.5 82.5t31.5 82.5t82.5 32.5zM188 0v1036h164v-1036q-107 -77 -149.5 -127.5t-42.5 -93.5q0 -84 127 -84h65v-133h-84q-125 0 -193.5 53t-68.5 139q0 140 184 246h-2z" />
    <glyph glyph-name="Idotaccent" unicode="&#x130;" horiz-adv-x="610" 
d="M305 1655q-51 0 -83 32t-32 82t32 82.5t83 32.5t83 -32.5t32 -82.5t-32 -82t-83 -32zM219 0v1434h172v-1434h-172z" />
    <glyph glyph-name="dotlessi" unicode="&#x131;" horiz-adv-x="538" 
d="M188 0v1036h164v-1036h-164z" />
    <glyph glyph-name="Jcircumflex" unicode="&#x134;" horiz-adv-x="1206" 
d="M999 1913l281 -301h-168l-188 200l-189 -200h-168l281 301h151zM840 524v910h172v-922q0 -250 -137.5 -395.5t-372.5 -145.5q-138 0 -253.5 51.5t-197.5 149.5l111 115q128 -156 336 -156q161 0 251.5 100t90.5 293z" />
    <glyph glyph-name="jcircumflex" unicode="&#x135;" horiz-adv-x="538" 
d="M346 1516l248 -302h-162l-162 203l-161 -203h-162l248 302h151zM188 -125v1161h164v-1179q0 -143 -76 -220t-229 -77q-54 0 -115 12v149q49 -12 97 -12q85 0 122 40.5t37 125.5z" />
    <glyph glyph-name="uni0136" unicode="&#x136;" horiz-adv-x="1415" 
d="M762 811l631 -811h-211l-537 692l-258 -266v-426h-172v1434h172v-785l766 785h211zM569 -516l82 330h170l-125 -330h-127z" />
    <glyph glyph-name="uni0137" unicode="&#x137;" horiz-adv-x="1126" 
d="M629 586l483 -586h-194l-400 481l-168 -162v-319h-164v1499h164v-991l537 526h209zM422 -516l82 330h170l-125 -330h-127z" />
    <glyph glyph-name="Lacute" unicode="&#x139;" horiz-adv-x="1220" 
d="M598 1913l-264 -301h-172l233 301h203zM387 160h766v-160h-938v1434h172v-1274z" />
    <glyph glyph-name="lacute" unicode="&#x13a;" horiz-adv-x="534" 
d="M127 1677l233 301h203l-264 -301h-172zM186 0v1499h164v-1499h-164z" />
    <glyph glyph-name="uni013B" unicode="&#x13b;" horiz-adv-x="1220" 
d="M387 160h766v-160h-938v1434h172v-1274zM496 -516l82 330h170l-125 -330h-127z" />
    <glyph glyph-name="uni013C" unicode="&#x13c;" horiz-adv-x="534" 
d="M186 0v1499h164v-1499h-164zM102 -516l82 330h170l-125 -330h-127z" />
    <glyph glyph-name="Lcaron" unicode="&#x13d;" horiz-adv-x="1220" 
d="M856 1462l-43 -403h-127v403h170zM387 160h766v-160h-938v1434h172v-1274z" />
    <glyph glyph-name="lcaron" unicode="&#x13e;" horiz-adv-x="655" 
d="M186 0v1499h164v-1499h-164zM514 1098v401h170l-43 -401h-127z" />
    <glyph glyph-name="Ldot" unicode="&#x13f;" horiz-adv-x="1232" 
d="M387 160h766v-160h-938v1434h172v-1274zM809 621q-54 0 -86.5 33t-32.5 87q0 51 33 84t86 33q55 0 87 -32.5t32 -84.5q0 -54 -32 -87t-87 -33z" />
    <glyph glyph-name="ldot" unicode="&#x140;" horiz-adv-x="784" 
d="M186 0v1499h164v-1499h-164zM639 621q-55 0 -87 33t-32 87q0 52 32 84.5t87 32.5q53 0 86 -33t33 -84q0 -54 -32.5 -87t-86.5 -33z" />
    <glyph glyph-name="Lslash" unicode="&#x141;" horiz-adv-x="1245" 
d="M412 160h766v-160h-938v528l-220 -112v157l220 113v748h172v-660l495 256v-156l-495 -256v-458z" />
    <glyph glyph-name="lslash" unicode="&#x142;" horiz-adv-x="671" 
d="M639 1038v-147l-221 -121v-770h-164v682l-221 -121v150l221 118v670h164v-579z" />
    <glyph glyph-name="Nacute" unicode="&#x143;" horiz-adv-x="1626" 
d="M1108 1913l-264 -301h-172l233 301h203zM1243 1434h168v-1434h-162l-866 1161v-1161h-168v1434h160l868 -1164v1164z" />
    <glyph glyph-name="nacute" unicode="&#x144;" horiz-adv-x="1259" 
d="M930 1516l-264 -302h-172l233 302h203zM713 1065q177 0 273.5 -104.5t96.5 -298.5v-662h-163v623q0 149 -60 218.5t-184 69.5q-142 0 -234 -80.5t-92 -214.5v-616h-164v1036h164v-178q44 99 140 153t223 54z" />
    <glyph glyph-name="uni0145" unicode="&#x145;" horiz-adv-x="1626" 
d="M1243 1434h168v-1434h-162l-866 1161v-1161h-168v1434h160l868 -1164v1164zM647 -516l82 330h170l-125 -330h-127z" />
    <glyph glyph-name="uni0146" unicode="&#x146;" horiz-adv-x="1259" 
d="M713 1065q177 0 273.5 -104.5t96.5 -298.5v-662h-163v623q0 149 -60 218.5t-184 69.5q-142 0 -234 -80.5t-92 -214.5v-616h-164v1036h164v-178q44 99 140 153t223 54zM465 -516l82 330h170l-125 -330h-127z" />
    <glyph glyph-name="Ncaron" unicode="&#x147;" horiz-adv-x="1626" 
d="M889 1612h-152l-280 301h168l188 -201l188 201h168zM1243 1434h168v-1434h-162l-866 1161v-1161h-168v1434h160l868 -1164v1164z" />
    <glyph glyph-name="ncaron" unicode="&#x148;" horiz-adv-x="1259" 
d="M711 1214h-152l-280 302h167l189 -201l188 201h168zM713 1065q177 0 273.5 -104.5t96.5 -298.5v-662h-163v623q0 149 -60 218.5t-184 69.5q-142 0 -234 -80.5t-92 -214.5v-616h-164v1036h164v-178q44 99 140 153t223 54z" />
    <glyph glyph-name="Eng" unicode="&#x14a;" horiz-adv-x="1626" 
d="M1243 1434h168v-1524q0 -126 -73 -195t-216 -69h-131v147h111q75 0 110 34t35 103v72l-864 1159v-1161h-168v1434h160l868 -1162v1162z" />
    <glyph glyph-name="eng" unicode="&#x14b;" horiz-adv-x="1259" 
d="M713 1065q177 0 273.5 -104.5t96.5 -298.5v-725q0 -141 -76 -218t-229 -77q-52 0 -114 12v147q50 -12 96 -12q85 0 122.5 41.5t37.5 126.5v666q0 149 -60 218.5t-184 69.5q-142 0 -234 -80.5t-92 -214.5v-616h-164v1036h164v-178q44 99 140 153t223 54z" />
    <glyph glyph-name="Omacron" unicode="&#x14c;" horiz-adv-x="1730" 
d="M555 1659v133h619v-133h-619zM864 -29q-159 0 -296 58.5t-232 159t-149 237.5t-54 291t54 291t149 237t232 158.5t296 58.5q212 0 381 -100t260.5 -269.5t91.5 -375.5q0 -154 -54 -291t-149 -237.5t-233 -159t-297 -58.5zM864 131q121 0 224.5 44.5t175.5 122.5
t112.5 186t40.5 233t-40.5 233t-112.5 186t-175.5 122.5t-224.5 44.5q-160 0 -287 -76t-196.5 -209.5t-69.5 -300.5t69.5 -300.5t196.5 -209.5t287 -76z" />
    <glyph glyph-name="omacron" unicode="&#x14d;" horiz-adv-x="1286" 
d="M334 1262v133h618v-133h-618zM643 -29q-157 0 -279.5 75t-186.5 199t-64 273q0 148 64 272t186.5 199.5t279.5 75.5t280.5 -75.5t188 -199.5t64.5 -272q0 -111 -38 -210.5t-106.5 -174t-169 -118.5t-219.5 -44zM643 123q161 0 261 111t100 284t-99.5 283t-261.5 110
q-161 0 -260.5 -110t-99.5 -283t99.5 -284t260.5 -111z" />
    <glyph glyph-name="Obreve" unicode="&#x14e;" horiz-adv-x="1730" 
d="M864 1599q-140 0 -220.5 72.5t-80.5 194.5v8h146q0 -74 40 -115t115 -41t115.5 41t40.5 115h145v-8q0 -122 -80.5 -194.5t-220.5 -72.5zM864 -29q-159 0 -296 58.5t-232 159t-149 237.5t-54 291t54 291t149 237t232 158.5t296 58.5q212 0 381 -100t260.5 -269.5
t91.5 -375.5q0 -154 -54 -291t-149 -237.5t-233 -159t-297 -58.5zM864 131q121 0 224.5 44.5t175.5 122.5t112.5 186t40.5 233t-40.5 233t-112.5 186t-175.5 122.5t-224.5 44.5q-160 0 -287 -76t-196.5 -209.5t-69.5 -300.5t69.5 -300.5t196.5 -209.5t287 -76z" />
    <glyph glyph-name="obreve" unicode="&#x14f;" horiz-adv-x="1286" 
d="M643 1202q-140 0 -220.5 72t-80.5 194v9h145q0 -74 40.5 -115t115.5 -41t115.5 41t40.5 115h145v-9q0 -122 -80.5 -194t-220.5 -72zM643 -29q-157 0 -279.5 75t-186.5 199t-64 273q0 148 64 272t186.5 199.5t279.5 75.5t280.5 -75.5t188 -199.5t64.5 -272
q0 -111 -38 -210.5t-106.5 -174t-169 -118.5t-219.5 -44zM643 123q161 0 261 111t100 284t-99.5 283t-261.5 110q-161 0 -260.5 -110t-99.5 -283t99.5 -284t260.5 -111z" />
    <glyph glyph-name="Ohungarumlaut" unicode="&#x150;" horiz-adv-x="1730" 
d="M541 1612l235 301h176l-247 -301h-164zM907 1612l236 301h176l-248 -301h-164zM864 -29q-159 0 -296 58.5t-232 159t-149 237.5t-54 291t54 291t149 237t232 158.5t296 58.5q212 0 381 -100t260.5 -269.5t91.5 -375.5q0 -154 -54 -291t-149 -237.5t-233 -159t-297 -58.5z
M864 131q121 0 224.5 44.5t175.5 122.5t112.5 186t40.5 233t-40.5 233t-112.5 186t-175.5 122.5t-224.5 44.5q-160 0 -287 -76t-196.5 -209.5t-69.5 -300.5t69.5 -300.5t196.5 -209.5t287 -76z" />
    <glyph glyph-name="ohungarumlaut" unicode="&#x151;" horiz-adv-x="1286" 
d="M319 1214l236 302h176l-248 -302h-164zM686 1214l236 302h176l-248 -302h-164zM643 -29q-157 0 -279.5 75t-186.5 199t-64 273q0 148 64 272t186.5 199.5t279.5 75.5t280.5 -75.5t188 -199.5t64.5 -272q0 -111 -38 -210.5t-106.5 -174t-169 -118.5t-219.5 -44zM643 123
q161 0 261 111t100 284t-99.5 283t-261.5 110q-161 0 -260.5 -110t-99.5 -283t99.5 -284t260.5 -111z" />
    <glyph glyph-name="OE" unicode="&#x152;" horiz-adv-x="2287" 
d="M1311 158h825v-158h-1243q-175 0 -319 54.5t-240 151t-148.5 227.5t-52.5 284t52.5 284t148.5 227.5t240 151t319 54.5h1223v-158h-805v-475h764v-156h-764v-487zM899 158h240v1118h-240q-280 0 -434 -153t-154 -406t154 -406t434 -153z" />
    <glyph glyph-name="oe" unicode="&#x153;" horiz-adv-x="2117" 
d="M2009 557q0 -45 -6 -88h-834q13 -162 111.5 -254t255.5 -92q205 0 334 166l110 -94q-74 -107 -189.5 -165.5t-258.5 -58.5q-156 0 -271 68t-178 192q-62 -121 -175 -190.5t-265 -69.5q-157 0 -279.5 75t-186.5 199t-64 273q0 148 64 272t186.5 199.5t279.5 75.5
q152 0 265 -70.5t175 -191.5q61 124 173 193t262 69q217 0 354 -140.5t137 -367.5zM643 123q161 0 259.5 110.5t98.5 284.5q0 173 -98.5 283t-259.5 110t-260.5 -110t-99.5 -283t99.5 -284t260.5 -111zM1518 911q-140 0 -231 -83.5t-113 -225.5h667q-12 147 -99.5 228
t-223.5 81z" />
    <glyph glyph-name="Racute" unicode="&#x154;" horiz-adv-x="1425" 
d="M995 1913l-264 -301h-172l234 301h202zM1110 0l-479 573h-244v-573h-172v1434h592q224 0 350.5 -117t126.5 -318q0 -194 -118 -306.5t-330 -119.5l481 -573h-207zM387 1276v-549h406q164 0 238.5 66t74.5 206t-75 208.5t-238 68.5h-406z" />
    <glyph glyph-name="racute" unicode="&#x155;" horiz-adv-x="823" 
d="M737 1516l-264 -302h-172l234 302h202zM668 1051q57 0 92 -13v-145q-44 6 -88 6q-152 0 -237 -91.5t-85 -275.5v-532h-164v1036h164v-196q35 100 119.5 155.5t198.5 55.5z" />
    <glyph glyph-name="uni0156" unicode="&#x156;" horiz-adv-x="1425" 
d="M836 573l481 -573h-207l-479 573h-244v-573h-172v1434h592q224 0 350.5 -117t126.5 -318q0 -194 -118 -306.5t-330 -119.5zM387 1276v-549h406q164 0 238.5 66t74.5 206t-75 208.5t-238 68.5h-406zM553 -516l82 330h170l-125 -330h-127z" />
    <glyph glyph-name="uni0157" unicode="&#x157;" horiz-adv-x="823" 
d="M668 1051q57 0 92 -13v-145q-44 6 -88 6q-152 0 -237 -91.5t-85 -275.5v-532h-164v1036h164v-196q35 100 119.5 155.5t198.5 55.5zM102 -516l82 330h170l-125 -330h-127z" />
    <glyph glyph-name="Rcaron" unicode="&#x158;" horiz-adv-x="1425" 
d="M774 1612h-151l-281 301h168l188 -201l189 201h168zM1110 0l-479 573h-244v-573h-172v1434h592q224 0 350.5 -117t126.5 -318q0 -194 -118 -306.5t-330 -119.5l481 -573h-207zM387 1276v-549h406q164 0 238.5 66t74.5 206t-75 208.5t-238 68.5h-406z" />
    <glyph glyph-name="rcaron" unicode="&#x159;" horiz-adv-x="823" 
d="M516 1214h-151l-281 302h168l188 -201l189 201h168zM350 840q35 100 119.5 155.5t198.5 55.5q57 0 92 -13v-145q-44 6 -88 6q-152 0 -237 -91.5t-85 -275.5v-532h-164v1036h164v-196z" />
    <glyph glyph-name="Sacute" unicode="&#x15a;" horiz-adv-x="1304" 
d="M514 1612l234 301h202l-264 -301h-172zM672 -29q-215 0 -364.5 88.5t-211.5 245.5l137 80q58 -125 172 -191.5t269 -66.5q164 0 258 70t94 188q0 91 -61.5 149t-198.5 91l-229 55q-199 48 -298.5 142t-99.5 239q0 178 139 289.5t373 111.5q190 0 327 -72t191 -190
l-133 -82q-54 91 -154.5 140t-234.5 49q-157 0 -245.5 -64.5t-88.5 -179.5q0 -88 60.5 -142.5t204.5 -89.5l229 -55q208 -50 302.5 -143.5t94.5 -241.5q0 -191 -141 -305.5t-391 -114.5z" />
    <glyph glyph-name="sacute" unicode="&#x15b;" horiz-adv-x="1048" 
d="M387 1214l234 302h202l-264 -302h-172zM547 -29q-157 0 -278.5 62t-182.5 168l121 86q109 -166 338 -166q114 0 178.5 44.5t64.5 117.5q0 57 -42 92.5t-144 58.5l-166 39q-159 37 -235 107.5t-76 179.5q0 135 108 220t295 85q136 0 241 -46.5t167 -133.5l-113 -99
q-102 129 -303 129q-113 0 -172 -40.5t-59 -112.5q0 -53 41 -86.5t147 -57.5l185 -40q153 -34 221.5 -104.5t68.5 -178.5q0 -147 -107 -235.5t-298 -88.5z" />
    <glyph glyph-name="Scircumflex" unicode="&#x15c;" horiz-adv-x="1304" 
d="M653 1812l-188 -200h-168l281 301h151l281 -301h-168zM807 776q208 -50 302.5 -143.5t94.5 -241.5q0 -191 -141 -305.5t-391 -114.5q-215 0 -364.5 88.5t-211.5 245.5l137 80q58 -125 172 -191.5t269 -66.5q164 0 258 70t94 188q0 91 -61.5 149t-198.5 91l-229 55
q-199 48 -298.5 142t-99.5 239q0 178 139 289.5t373 111.5q190 0 327 -72t191 -190l-133 -82q-54 91 -154.5 140t-234.5 49q-157 0 -245.5 -64.5t-88.5 -179.5q0 -88 60.5 -142.5t204.5 -89.5z" />
    <glyph glyph-name="scircumflex" unicode="&#x15d;" horiz-adv-x="1048" 
d="M526 1415l-188 -201h-168l281 302h151l281 -302h-168zM662 578q153 -34 221.5 -104.5t68.5 -178.5q0 -147 -107 -235.5t-298 -88.5q-157 0 -278.5 62t-182.5 168l121 86q109 -166 338 -166q114 0 178.5 44.5t64.5 117.5q0 57 -42 92.5t-144 58.5l-166 39
q-159 37 -235 107.5t-76 179.5q0 135 108 220t295 85q136 0 241 -46.5t167 -133.5l-113 -99q-102 129 -303 129q-113 0 -172 -40.5t-59 -112.5q0 -53 41 -86.5t147 -57.5z" />
    <glyph glyph-name="Scedilla" unicode="&#x15e;" horiz-adv-x="1304" 
d="M1204 391q0 -176 -122 -288.5t-341 -129.5l-106 -364h-174l135 364q-185 15 -314.5 102t-185.5 230l137 80q58 -125 172 -191.5t269 -66.5q164 0 258 70t94 188q0 91 -61.5 149t-198.5 91l-229 55q-199 48 -298.5 142t-99.5 239q0 178 139 289.5t373 111.5q190 0 327 -72
t191 -190l-133 -82q-54 91 -154.5 140t-234.5 49q-157 0 -245.5 -64.5t-88.5 -179.5q0 -88 60.5 -142.5t204.5 -89.5l229 -55q208 -50 302.5 -143.5t94.5 -241.5z" />
    <glyph glyph-name="scedilla" unicode="&#x15f;" horiz-adv-x="1048" 
d="M952 295q0 -135 -92.5 -222t-257.5 -100l-104 -364h-174l135 368q-126 15 -223 74t-150 150l121 86q109 -166 338 -166q114 0 178.5 44.5t64.5 117.5q0 57 -42 92.5t-144 58.5l-166 39q-159 37 -235 107.5t-76 179.5q0 135 108 220t295 85q136 0 241 -46.5t167 -133.5
l-113 -99q-102 129 -303 129q-113 0 -172 -40.5t-59 -112.5q0 -53 41 -86.5t147 -57.5l185 -40q153 -34 221.5 -104.5t68.5 -178.5z" />
    <glyph glyph-name="Scaron" unicode="&#x160;" horiz-adv-x="1304" 
d="M729 1612h-151l-281 301h168l188 -201l189 201h168zM807 776q208 -50 302.5 -143.5t94.5 -241.5q0 -191 -141 -305.5t-391 -114.5q-215 0 -364.5 88.5t-211.5 245.5l137 80q58 -125 172 -191.5t269 -66.5q164 0 258 70t94 188q0 91 -61.5 149t-198.5 91l-229 55
q-199 48 -298.5 142t-99.5 239q0 178 139 289.5t373 111.5q190 0 327 -72t191 -190l-133 -82q-54 91 -154.5 140t-234.5 49q-157 0 -245.5 -64.5t-88.5 -179.5q0 -88 60.5 -142.5t204.5 -89.5z" />
    <glyph glyph-name="scaron" unicode="&#x161;" horiz-adv-x="1048" 
d="M602 1214h-151l-281 302h168l188 -201l189 201h168zM662 578q153 -34 221.5 -104.5t68.5 -178.5q0 -147 -107 -235.5t-298 -88.5q-157 0 -278.5 62t-182.5 168l121 86q109 -166 338 -166q114 0 178.5 44.5t64.5 117.5q0 57 -42 92.5t-144 58.5l-166 39
q-159 37 -235 107.5t-76 179.5q0 135 108 220t295 85q136 0 241 -46.5t167 -133.5l-113 -99q-102 129 -303 129q-113 0 -172 -40.5t-59 -112.5q0 -53 41 -86.5t147 -57.5z" />
    <glyph glyph-name="uni0162" unicode="&#x162;" horiz-adv-x="1245" 
d="M537 0v1274h-484v160h1139v-160h-483v-1274h-172zM442 -516l82 330h170l-125 -330h-127z" />
    <glyph glyph-name="uni0163" unicode="&#x163;" horiz-adv-x="835" 
d="M573 -16q-152 0 -231.5 70.5t-79.5 209.5v631h-209v141h209v307h164v-307h328v-141h-328v-621q0 -77 41 -111t131 -34q72 0 160 18v-137q-86 -26 -185 -26zM326 -516l82 330h170l-125 -330h-127z" />
    <glyph glyph-name="Tcaron" unicode="&#x164;" horiz-adv-x="1245" 
d="M698 1612h-151l-281 301h168l189 -201l188 201h168zM53 1434h1139v-160h-483v-1274h-172v1274h-484v160z" />
    <glyph glyph-name="tcaron" unicode="&#x165;" horiz-adv-x="845" 
d="M592 1190v401h170l-43 -401h-127zM573 -16q-152 0 -231.5 70.5t-79.5 209.5v631h-209v141h209v307h164v-307h328v-141h-328v-621q0 -77 41 -111t131 -34q72 0 160 18v-137q-86 -26 -185 -26z" />
    <glyph glyph-name="Tbar" unicode="&#x166;" horiz-adv-x="1245" 
d="M1192 1274h-483v-469h301v-141h-301v-664h-172v664h-304v141h304v469h-484v160h1139v-160z" />
    <glyph glyph-name="tbar" unicode="&#x167;" horiz-adv-x="835" 
d="M598 129q72 0 160 18v-137q-86 -26 -185 -26q-152 0 -231.5 70.5t-79.5 209.5v221h-188v129h188v281h-209v141h209v307h164v-307h328v-141h-328v-281h283v-129h-283v-211q0 -77 41 -111t131 -34z" />
    <glyph glyph-name="Utilde" unicode="&#x168;" horiz-adv-x="1552" 
d="M922 1626q-41 0 -80 18t-101 70q-41 33 -61 44t-41 11q-32 0 -52 -33t-20 -96h-118q0 119 49 186.5t133 67.5q45 0 82.5 -19t97.5 -69q42 -37 61.5 -47t40.5 -10q32 0 52 33t20 98h119q0 -120 -49 -187t-133 -67zM776 -29q-273 0 -427 143t-154 400v920h172v-904
q0 -399 409 -399q410 0 410 399v904h172v-920q0 -257 -154.5 -400t-427.5 -143z" />
    <glyph glyph-name="utilde" unicode="&#x169;" horiz-adv-x="1251" 
d="M485 1372q-32 0 -51.5 -32.5t-19.5 -96.5h-119q0 119 49 186.5t133 67.5q45 0 82.5 -19t97.5 -69q42 -36 61.5 -46.5t41.5 -10.5q32 0 51.5 33t19.5 98h119q0 -120 -49 -187t-133 -67q-40 0 -79 18t-101 70q-40 33 -61 44t-42 11zM903 1036h164v-1036h-164v182
q-42 -100 -140 -155.5t-226 -55.5q-177 0 -268 104t-91 300v661h164v-622q0 -153 56 -222t180 -69q141 0 233 81.5t92 215.5v616z" />
    <glyph glyph-name="Umacron" unicode="&#x16a;" horiz-adv-x="1552" 
d="M467 1659v133h618v-133h-618zM776 -29q-273 0 -427 143t-154 400v920h172v-904q0 -399 409 -399q410 0 410 399v904h172v-920q0 -257 -154.5 -400t-427.5 -143z" />
    <glyph glyph-name="umacron" unicode="&#x16b;" horiz-adv-x="1251" 
d="M932 1395v-133h-619v133h619zM903 1036h164v-1036h-164v182q-42 -100 -140 -155.5t-226 -55.5q-177 0 -268 104t-91 300v661h164v-622q0 -153 56 -222t180 -69q141 0 233 81.5t92 215.5v616z" />
    <glyph glyph-name="Ubreve" unicode="&#x16c;" horiz-adv-x="1552" 
d="M776 1599q-140 0 -220.5 72.5t-80.5 194.5v8h146q0 -74 40 -115t115 -41t115.5 41t40.5 115h145v-8q0 -122 -80.5 -194.5t-220.5 -72.5zM776 -29q-273 0 -427 143t-154 400v920h172v-904q0 -399 409 -399q410 0 410 399v904h172v-920q0 -257 -154.5 -400t-427.5 -143z
" />
    <glyph glyph-name="ubreve" unicode="&#x16d;" horiz-adv-x="1251" 
d="M623 1202q-140 0 -220.5 72t-80.5 194v9h145q0 -74 40.5 -115t115.5 -41t115 41t40 115h146v-9q0 -122 -80.5 -194t-220.5 -72zM903 1036h164v-1036h-164v182q-42 -100 -140 -155.5t-226 -55.5q-177 0 -268 104t-91 300v661h164v-622q0 -153 56 -222t180 -69
q141 0 233 81.5t92 215.5v616z" />
    <glyph glyph-name="Uring" unicode="&#x16e;" horiz-adv-x="1552" 
d="M776 1587q-104 0 -176 68t-72 168q0 98 72 166.5t176 68.5t176 -68.5t72 -166.5q0 -100 -72 -168t-176 -68zM776 1698q56 0 90.5 35t34.5 90q0 53 -34.5 88t-90.5 35t-90.5 -35t-34.5 -88q0 -55 34.5 -90t90.5 -35zM776 -29q-273 0 -427 143t-154 400v920h172v-904
q0 -399 409 -399q410 0 410 399v904h172v-920q0 -257 -154.5 -400t-427.5 -143z" />
    <glyph glyph-name="uring" unicode="&#x16f;" horiz-adv-x="1251" 
d="M623 1190q-104 0 -176 67.5t-72 167.5q0 98 72 167t176 69t175.5 -68.5t71.5 -167.5q0 -100 -71.5 -167.5t-175.5 -67.5zM623 1548q-56 0 -90.5 -35t-34.5 -88q0 -55 34.5 -90t90.5 -35t90.5 35t34.5 90q0 53 -34.5 88t-90.5 35zM903 1036h164v-1036h-164v182
q-42 -100 -140 -155.5t-226 -55.5q-177 0 -268 104t-91 300v661h164v-622q0 -153 56 -222t180 -69q141 0 233 81.5t92 215.5v616z" />
    <glyph glyph-name="Uhungarumlaut" unicode="&#x170;" horiz-adv-x="1552" 
d="M453 1612l235 301h176l-248 -301h-163zM819 1612l236 301h176l-248 -301h-164zM776 -29q-273 0 -427 143t-154 400v920h172v-904q0 -399 409 -399q410 0 410 399v904h172v-920q0 -257 -154.5 -400t-427.5 -143z" />
    <glyph glyph-name="uhungarumlaut" unicode="&#x171;" horiz-adv-x="1251" 
d="M711 1516l-248 -302h-164l236 302h176zM829 1214h-163l235 302h176zM903 420v616h164v-1036h-164v182q-42 -100 -140 -155.5t-226 -55.5q-177 0 -268 104t-91 300v661h164v-622q0 -153 56 -222t180 -69q141 0 233 81.5t92 215.5z" />
    <glyph glyph-name="Uogonek" unicode="&#x172;" horiz-adv-x="1552" 
d="M1186 1434h172v-920q0 -189 -84.5 -317.5t-241.5 -184.5q-107 -77 -149.5 -127.5t-42.5 -93.5q0 -84 127 -84h65v-133h-84q-125 0 -193.5 53.5t-68.5 139.5q0 115 123 204h-33q-273 0 -427 143t-154 400v920h172v-904q0 -399 409 -399q410 0 410 399v904z" />
    <glyph glyph-name="uogonek" unicode="&#x173;" horiz-adv-x="1251" 
d="M1067 0q-107 -77 -150 -127.5t-43 -93.5q0 -84 127 -84h66v-133h-84q-125 0 -193.5 53t-68.5 139q0 140 184 246h-2v182q-42 -100 -140 -155.5t-226 -55.5q-177 0 -268 104t-91 300v661h164v-622q0 -153 56 -222t180 -69q141 0 233 81.5t92 215.5v616h164v-1036z" />
    <glyph glyph-name="Wcircumflex" unicode="&#x174;" horiz-adv-x="2138" 
d="M1069 1812l-188 -200h-168l280 301h152l280 -301h-168zM1907 1434h170l-447 -1434h-174l-387 1212l-387 -1212h-174l-447 1434h170l369 -1194l383 1194h172l383 -1194z" />
    <glyph glyph-name="wcircumflex" unicode="&#x175;" horiz-adv-x="1701" 
d="M850 1415l-188 -201h-168l280 302h152l280 -302h-168zM1489 1036h166l-342 -1036h-178l-283 850l-285 -850h-180l-342 1036h166l270 -833l279 833h180l279 -837z" />
    <glyph glyph-name="Ycircumflex" unicode="&#x176;" horiz-adv-x="1314" 
d="M657 1812l-188 -200h-168l281 301h151l281 -301h-168zM1104 1434h192l-553 -838v-596h-172v596l-555 838h195l446 -689z" />
    <glyph glyph-name="ycircumflex" unicode="&#x177;" horiz-adv-x="1101" 
d="M553 1415l-188 -201h-168l280 302h152l280 -302h-168zM897 1036h172l-582 -1444h-170l158 394l-434 1050h172l346 -866z" />
    <glyph glyph-name="Ydieresis" unicode="&#x178;" horiz-adv-x="1314" 
d="M438 1655q-49 0 -80.5 32t-31.5 82t31.5 82.5t80.5 32.5q51 0 83 -32.5t32 -82.5t-32 -82t-83 -32zM877 1655q-51 0 -83 32t-32 82t32 82.5t83 32.5q49 0 80.5 -32.5t31.5 -82.5t-31.5 -82t-80.5 -32zM1104 1434h192l-553 -838v-596h-172v596l-555 838h195l446 -689z" />
    <glyph glyph-name="Zacute" unicode="&#x179;" horiz-adv-x="1243" 
d="M920 1913l-265 -301h-172l234 301h203zM303 156h844v-156h-1053v133l832 1145h-803v156h1012v-134z" />
    <glyph glyph-name="zacute" unicode="&#x17a;" horiz-adv-x="1030" 
d="M813 1516l-264 -302h-172l233 302h203zM305 145h621v-145h-824v125l613 766h-596v145h799v-125z" />
    <glyph glyph-name="Zdotaccent" unicode="&#x17b;" horiz-adv-x="1243" 
d="M625 1655q-51 0 -83 32t-32 82t32 82.5t83 32.5t82.5 -32.5t31.5 -82.5t-31.5 -82t-82.5 -32zM303 156h844v-156h-1053v133l832 1145h-803v156h1012v-134z" />
    <glyph glyph-name="zdotaccent" unicode="&#x17c;" horiz-adv-x="1030" 
d="M516 1257q-51 0 -83 32.5t-32 82.5t32 82.5t83 32.5t83 -32.5t32 -82.5t-32 -82.5t-83 -32.5zM305 145h621v-145h-824v125l613 766h-596v145h799v-125z" />
    <glyph glyph-name="Zcaron" unicode="&#x17d;" horiz-adv-x="1243" 
d="M700 1612h-151l-281 301h168l189 -201l188 201h168zM303 156h844v-156h-1053v133l832 1145h-803v156h1012v-134z" />
    <glyph glyph-name="zcaron" unicode="&#x17e;" horiz-adv-x="1030" 
d="M592 1214h-152l-280 302h168l188 -201l189 201h167zM305 145h621v-145h-824v125l613 766h-596v145h799v-125z" />
    <glyph glyph-name="florin" unicode="&#x192;" horiz-adv-x="1005" 
d="M852 1282q-90 0 -132 -39t-61 -139l-45 -234h273v-135h-299l-146 -764q-26 -137 -106.5 -197.5t-239.5 -60.5h-69v152h69q92 0 134 39t61 139l131 692h-258v135h285l57 306q26 137 107 197.5t239 60.5h70v-152h-70z" />
    <glyph glyph-name="uni01CD" unicode="&#x1cd;" 
d="M803 1612h-152l-280 301h168l188 -201l188 201h168zM1231 0l-158 393h-692l-158 -393h-178l586 1434h190l586 -1434h-176zM442 549h570l-285 713z" />
    <glyph glyph-name="uni01CE" unicode="&#x1ce;" horiz-adv-x="1167" 
d="M659 1214h-151l-281 302h168l189 -201l188 201h168zM588 1065q190 0 295.5 -102t105.5 -281v-682h-155v184q-37 -93 -136.5 -148.5t-234.5 -55.5q-165 0 -264 84.5t-99 228.5q0 143 108.5 226t309.5 83h311v80q0 112 -64 172.5t-183 60.5q-94 0 -176 -37.5t-140 -109.5
l-104 98q72 96 182 147.5t244 51.5zM489 117q146 0 243 86.5t97 216.5v51h-305q-128 0 -192 -45t-64 -129q0 -85 58 -132.5t163 -47.5z" />
    <glyph glyph-name="uni01E2" unicode="&#x1e2;" horiz-adv-x="2252" 
d="M1802 1792v-133h-618v133h618zM1276 158h825v-158h-997v369h-619l-256 -369h-196l1001 1434h1047v-158h-805v-473h768v-158h-768v-487zM594 524h510v731z" />
    <glyph glyph-name="uni01E3" unicode="&#x1e3;" horiz-adv-x="1941" 
d="M1292 1395v-133h-618v133h618zM1833 559q0 -47 -6 -88h-826q13 -162 111.5 -255t251.5 -93q201 0 330 166l112 -94q-76 -107 -191 -165.5t-255 -58.5q-153 0 -267 69t-175 193q-45 -120 -160.5 -191t-276.5 -71q-175 0 -278 85.5t-103 234.5q0 147 108 228t320 81h308v82
q0 110 -67 170.5t-187 60.5q-200 0 -316 -149l-104 100q69 96 181 148.5t249 52.5q275 0 360 -205q64 98 164.5 151.5t229.5 53.5q214 0 350.5 -141t136.5 -365zM1348 911q-140 0 -231 -84t-111 -227h661q-10 148 -96 229.5t-223 81.5zM494 109q148 0 245 89.5t97 221.5v51
h-301q-267 0 -267 -178q0 -87 59.5 -135.5t166.5 -48.5z" />
    <glyph glyph-name="Gcaron" unicode="&#x1e6;" horiz-adv-x="1603" 
d="M924 1612h-152l-280 301h167l189 -201l188 201h168zM907 762h551v-561q-84 -108 -233 -169t-332 -61q-173 0 -316 55.5t-240 153.5t-150.5 235t-53.5 298q0 218 93.5 389t260.5 265.5t379 94.5q185 0 332 -73t232 -205l-132 -94q-69 104 -179.5 158.5t-250.5 54.5
q-251 0 -404 -162t-153 -430q0 -269 158 -424.5t422 -155.5q128 0 234 36t165 95v342h-383v158z" />
    <glyph glyph-name="gcaron" unicode="&#x1e7;" horiz-adv-x="1343" 
d="M750 1214h-152l-281 302h168l189 -201l188 201h168zM993 1036h164v-919q0 -269 -139 -412t-397 -143q-146 0 -268 45.5t-201 128.5l94 121q71 -68 168 -106t207 -38q180 0 276 102.5t96 301.5v102q-46 -101 -150 -160t-237 -59q-216 0 -354.5 148.5t-138.5 383.5
q0 234 138.5 383.5t354.5 149.5q133 0 237 -60t150 -163v194zM643 152q160 0 259 106.5t99 273.5t-99 273t-259 106q-162 0 -261 -106t-99 -273t99.5 -273.5t260.5 -106.5z" />
    <glyph glyph-name="uni01E8" unicode="&#x1e8;" horiz-adv-x="1415" 
d="M805 1612h-154l-280 301h168l190 -201l189 201h167zM1182 0l-537 692l-258 -266v-426h-172v1434h172v-785l766 785h211l-602 -623l631 -811h-211z" />
    <glyph glyph-name="uni01E9" unicode="&#x1e9;" horiz-adv-x="1126" 
d="M344 1677h-154l-280 301h168l190 -202l189 202h168zM918 0l-400 481l-168 -162v-319h-164v1499h164v-991l537 526h209l-467 -448l483 -586h-194z" />
    <glyph glyph-name="AEacute" unicode="&#x1fc;" horiz-adv-x="2252" 
d="M1788 1913l-264 -301h-172l233 301h203zM1276 158h825v-158h-997v369h-619l-256 -369h-196l1001 1434h1047v-158h-805v-473h768v-158h-768v-487zM594 524h510v731z" />
    <glyph glyph-name="aeacute" unicode="&#x1fd;" horiz-adv-x="1941" 
d="M1278 1516l-264 -302h-172l233 302h203zM1833 559q0 -47 -6 -88h-826q13 -162 111.5 -255t251.5 -93q201 0 330 166l112 -94q-76 -107 -191 -165.5t-255 -58.5q-153 0 -267 69t-175 193q-45 -120 -160.5 -191t-276.5 -71q-175 0 -278 85.5t-103 234.5q0 147 108 228
t320 81h308v82q0 110 -67 170.5t-187 60.5q-200 0 -316 -149l-104 100q69 96 181 148.5t249 52.5q275 0 360 -205q64 98 164.5 151.5t229.5 53.5q214 0 350.5 -141t136.5 -365zM1348 911q-140 0 -231 -84t-111 -227h661q-10 148 -96 229.5t-223 81.5zM494 109
q148 0 245 89.5t97 221.5v51h-301q-267 0 -267 -178q0 -87 59.5 -135.5t166.5 -48.5z" />
    <glyph glyph-name="Oslashacute" unicode="&#x1fe;" horiz-adv-x="1730" 
d="M1153 1913l-264 -301h-172l233 301h203zM1440 1192q157 -203 157 -475q0 -154 -54 -291t-149 -237.5t-233 -159t-297 -58.5q-278 0 -475 170l-149 -149l-101 98l152 152q-158 204 -158 475q0 154 54 291t149 237t232 158.5t296 58.5q280 0 477 -170l150 150l100 -99z
M864 1303q-160 0 -287 -76t-196.5 -209.5t-69.5 -300.5q0 -205 103 -355l811 812q-148 129 -361 129zM864 131q121 0 224.5 44.5t175.5 122.5t112.5 186t40.5 233q0 204 -102 352l-809 -809q148 -129 358 -129z" />
    <glyph glyph-name="oslashacute" unicode="&#x1ff;" horiz-adv-x="1294" 
d="M942 1516l-264 -302h-172l233 302h203zM1208 987l-133 -133q105 -145 105 -336q0 -111 -38 -210.5t-106.5 -174t-169 -118.5t-219.5 -44q-199 0 -338 117l-131 -131l-92 92l133 133q-102 145 -102 336q0 148 64 272t186.5 199.5t279.5 75.5q199 0 338 -117l131 131z
M647 911q-161 0 -260.5 -110t-99.5 -283q0 -130 55 -221l535 534q-93 80 -230 80zM647 123q161 0 261 111t100 284q0 129 -56 221l-534 -534q91 -82 229 -82z" />
    <glyph glyph-name="uni0218" unicode="&#x218;" horiz-adv-x="1304" 
d="M672 -29q-215 0 -364.5 88.5t-211.5 245.5l137 80q58 -125 172 -191.5t269 -66.5q164 0 258 70t94 188q0 91 -61.5 149t-198.5 91l-229 55q-199 48 -298.5 142t-99.5 239q0 178 139 289.5t373 111.5q190 0 327 -72t191 -190l-133 -82q-54 91 -154.5 140t-234.5 49
q-157 0 -245.5 -64.5t-88.5 -179.5q0 -88 60.5 -142.5t204.5 -89.5l229 -55q208 -50 302.5 -143.5t94.5 -241.5q0 -191 -141 -305.5t-391 -114.5zM506 -516l82 330h170l-125 -330h-127z" />
    <glyph glyph-name="uni0219" unicode="&#x219;" horiz-adv-x="1048" 
d="M547 -29q-157 0 -278.5 62t-182.5 168l121 86q109 -166 338 -166q114 0 178.5 44.5t64.5 117.5q0 57 -42 92.5t-144 58.5l-166 39q-159 37 -235 107.5t-76 179.5q0 135 108 220t295 85q136 0 241 -46.5t167 -133.5l-113 -99q-102 129 -303 129q-113 0 -172 -40.5
t-59 -112.5q0 -53 41 -86.5t147 -57.5l185 -40q153 -34 221.5 -104.5t68.5 -178.5q0 -147 -107 -235.5t-298 -88.5zM369 -516l82 330h170l-125 -330h-127z" />
    <glyph glyph-name="uni021A" unicode="&#x21a;" horiz-adv-x="1245" 
d="M537 0v1274h-484v160h1139v-160h-483v-1274h-172zM442 -516l82 330h170l-125 -330h-127z" />
    <glyph glyph-name="uni021B" unicode="&#x21b;" horiz-adv-x="835" 
d="M573 -16q-152 0 -231.5 70.5t-79.5 209.5v631h-209v141h209v307h164v-307h328v-141h-328v-621q0 -77 41 -111t131 -34q72 0 160 18v-137q-86 -26 -185 -26zM326 -516l82 330h170l-125 -330h-127z" />
    <glyph glyph-name="uni0237" unicode="&#x237;" horiz-adv-x="538" 
d="M47 -440q-54 0 -115 12v149q49 -12 97 -12q85 0 122 40.5t37 125.5v1161h164v-1179q0 -143 -76 -220t-229 -77z" />
    <glyph glyph-name="circumflex" unicode="&#x2c6;" horiz-adv-x="1269" 
d="M991 1214h-168l-188 201l-189 -201h-167l280 302h152z" />
    <glyph glyph-name="caron" unicode="&#x2c7;" horiz-adv-x="1269" 
d="M823 1516h168l-280 -302h-152l-280 302h167l189 -201z" />
    <glyph glyph-name="breve" unicode="&#x2d8;" horiz-adv-x="1269" 
d="M635 1202q-140 0 -220.5 72t-80.5 194v9h145q0 -74 40.5 -115t115.5 -41t115.5 41t40.5 115h145v-9q0 -122 -80.5 -194t-220.5 -72z" />
    <glyph glyph-name="dotaccent" unicode="&#x2d9;" horiz-adv-x="1269" 
d="M635 1257q-51 0 -83 32.5t-32 82.5t32 82.5t83 32.5t83 -32.5t32 -82.5t-32 -82.5t-83 -32.5z" />
    <glyph glyph-name="ring" unicode="&#x2da;" horiz-adv-x="1269" 
d="M635 1190q-104 0 -176 67.5t-72 167.5q0 98 72 167t176 69t176 -69t72 -167q0 -100 -72 -167.5t-176 -67.5zM635 1300q56 0 90.5 35t34.5 90q0 53 -34.5 88t-90.5 35t-90.5 -35t-34.5 -88q0 -55 34.5 -90t90.5 -35z" />
    <glyph glyph-name="ogonek" unicode="&#x2db;" horiz-adv-x="1269" 
d="M643 -438q-125 0 -193.5 53t-68.5 139q0 167 264 287l82 -41q-107 -77 -149.5 -127.5t-42.5 -93.5q0 -84 127 -84h65v-133h-84z" />
    <glyph glyph-name="tilde" unicode="&#x2dc;" horiz-adv-x="1269" 
d="M780 1229q-40 0 -79 18t-101 70q-41 33 -61 44t-41 11q-32 0 -52 -33t-20 -96h-119q0 119 49 186.5t133 67.5q45 0 83 -19t98 -69q42 -37 61.5 -47t40.5 -10q32 0 52 33t20 98h119q0 -120 -49.5 -187t-133.5 -67z" />
    <glyph glyph-name="hungarumlaut" unicode="&#x2dd;" horiz-adv-x="1269" 
d="M365 1214l235 302h176l-248 -302h-163zM731 1214l236 302h176l-248 -302h-164z" />
    <glyph glyph-name="gravecomb" unicode="&#x300;" horiz-adv-x="0" 
d="M-549 1214h-172l-264 302h203z" />
    <glyph glyph-name="acutecomb" unicode="&#x301;" horiz-adv-x="0" 
d="M-713 1214l234 302h203l-265 -302h-172z" />
    <glyph glyph-name="uni0302" unicode="&#x302;" horiz-adv-x="0" 
d="M-279 1214h-167l-189 201l-188 -201h-168l280 302h152z" />
    <glyph glyph-name="tildecomb" unicode="&#x303;" horiz-adv-x="0" 
d="M-489 1229q-41 0 -80 18t-101 70q-41 33 -61 44t-41 11q-32 0 -52 -33t-20 -96h-119q0 119 49.5 186.5t133.5 67.5q45 0 82.5 -19t97.5 -69q42 -37 61.5 -47t40.5 -10q32 0 52 33t20 98h119q0 -120 -49 -187t-133 -67z" />
    <glyph glyph-name="uni0304" unicode="&#x304;" horiz-adv-x="0" 
d="M-944 1262v133h618v-133h-618z" />
    <glyph glyph-name="uni0306" unicode="&#x306;" horiz-adv-x="0" 
d="M-635 1202q-140 0 -220.5 72t-80.5 194v9h145q0 -74 40.5 -115t115.5 -41t115.5 41t40.5 115h145v-9q0 -122 -80.5 -194t-220.5 -72z" />
    <glyph glyph-name="uni0307" unicode="&#x307;" horiz-adv-x="0" 
d="M-635 1257q-51 0 -83 32.5t-32 82.5t32 82.5t83 32.5t83 -32.5t32 -82.5t-32 -82.5t-83 -32.5z" />
    <glyph glyph-name="uni0308" unicode="&#x308;" horiz-adv-x="0" 
d="M-854 1257q-49 0 -81 32.5t-32 82.5t32 82.5t81 32.5q51 0 83 -32.5t32 -82.5t-32 -82.5t-83 -32.5zM-416 1257q-51 0 -82.5 32.5t-31.5 82.5t31.5 82.5t82.5 32.5q49 0 81 -32.5t32 -82.5t-32 -82.5t-81 -32.5z" />
    <glyph glyph-name="uni030A" unicode="&#x30a;" horiz-adv-x="0" 
d="M-635 1190q-104 0 -176 67.5t-72 167.5q0 98 72 167t176 69t176 -69t72 -167q0 -100 -72 -167.5t-176 -67.5zM-635 1300q56 0 90.5 35t34.5 90q0 53 -34.5 88t-90.5 35t-90.5 -35t-34.5 -88q0 -55 34.5 -90t90.5 -35z" />
    <glyph glyph-name="uni030B" unicode="&#x30b;" horiz-adv-x="0" 
d="M-905 1214l235 302h176l-247 -302h-164zM-539 1214l236 302h176l-248 -302h-164z" />
    <glyph glyph-name="uni030C" unicode="&#x30c;" horiz-adv-x="0" 
d="M-446 1516h167l-280 -302h-152l-280 302h168l188 -201z" />
    <glyph glyph-name="uni0315" unicode="&#x315;" horiz-adv-x="0" 
d="M-721 1141v403h170l-43 -403h-127z" />
    <glyph glyph-name="uni0326" unicode="&#x326;" horiz-adv-x="0" 
d="M-801 -516l82 330h170l-125 -330h-127z" />
    <glyph glyph-name="uni0327" unicode="&#x327;" horiz-adv-x="0" 
d="M-848 -391l160 432h139l-125 -432h-174z" />
    <glyph glyph-name="uni0328" unicode="&#x328;" horiz-adv-x="0" 
d="M-627 -438q-125 0 -193.5 53t-68.5 139q0 167 264 287l82 -41q-107 -77 -149.5 -127.5t-42.5 -93.5q0 -84 127 -84h65v-133h-84z" />
    <glyph glyph-name="uni03BC" unicode="&#x3bc;" horiz-adv-x="1267" 
d="M920 1036h163v-1036h-163v182q-41 -97 -133.5 -154t-204.5 -57q-153 0 -232 115v-537h-164v1487h164v-622q0 -151 61 -221t185 -70q142 0 233 88t91 248v577z" />
    <glyph glyph-name="pi" unicode="&#x3c0;" horiz-adv-x="1218" 
d="M1108 152h49v-152h-74q-258 0 -258 264v619h-475v-883h-164v1036h803v-753q0 -131 119 -131z" />
    <glyph glyph-name="uni1E20" unicode="&#x1e20;" horiz-adv-x="1603" 
d="M1157 1792v-133h-618v133h618zM907 762h551v-561q-84 -108 -233 -169t-332 -61q-173 0 -316 55.5t-240 153.5t-150.5 235t-53.5 298q0 218 93.5 389t260.5 265.5t379 94.5q185 0 332 -73t232 -205l-132 -94q-69 104 -179.5 158.5t-250.5 54.5q-251 0 -404 -162t-153 -430
q0 -269 158 -424.5t422 -155.5q128 0 234 36t165 95v342h-383v158z" />
    <glyph glyph-name="uni1E21" unicode="&#x1e21;" horiz-adv-x="1343" 
d="M983 1395v-133h-618v133h618zM993 1036h164v-919q0 -269 -139 -412t-397 -143q-146 0 -268 45.5t-201 128.5l94 121q71 -68 168 -106t207 -38q180 0 276 102.5t96 301.5v102q-46 -101 -150 -160t-237 -59q-216 0 -354.5 148.5t-138.5 383.5q0 234 138.5 383.5
t354.5 149.5q133 0 237 -60t150 -163v194zM643 152q160 0 259 106.5t99 273.5t-99 273t-259 106q-162 0 -261 -106t-99 -273t99.5 -273.5t260.5 -106.5z" />
    <glyph glyph-name="uni1E30" unicode="&#x1e30;" horiz-adv-x="1415" 
d="M1024 1913l-264 -301h-172l233 301h203zM1182 0l-537 692l-258 -266v-426h-172v1434h172v-785l766 785h211l-602 -623l631 -811h-211z" />
    <glyph glyph-name="uni1E31" unicode="&#x1e31;" horiz-adv-x="1126" 
d="M563 1978l-264 -301h-172l233 301h203zM918 0l-400 481l-168 -162v-319h-164v1499h164v-991l537 526h209l-467 -448l483 -586h-194z" />
    <glyph glyph-name="uni1E3E" unicode="&#x1e3e;" horiz-adv-x="1918" 
d="M1257 1913l-264 -301h-172l234 301h202zM1522 1434h182v-1434h-166v1169l-508 -794h-141l-508 794v-1169h-166v1434h182l564 -883z" />
    <glyph glyph-name="uni1E3F" unicode="&#x1e3f;" horiz-adv-x="1914" 
d="M1274 1516l-264 -302h-172l233 302h203zM1382 1065q171 0 263 -104t92 -295v-666h-164v627q0 148 -53.5 216t-171.5 68q-134 0 -220 -80.5t-86 -214.5v-616h-163v627q0 148 -53.5 216t-170.5 68q-135 0 -220 -80t-85 -215v-616h-164v1036h164v-178q43 98 132.5 152.5
t209.5 54.5q121 0 204 -56.5t120 -162.5q40 101 137 160t229 59z" />
    <glyph glyph-name="uni1E40" unicode="&#x1e40;" horiz-adv-x="1918" 
d="M961 1655q-51 0 -83 32t-32 82t32 82.5t83 32.5t82.5 -32.5t31.5 -82.5t-31.5 -82t-82.5 -32zM1522 1434h182v-1434h-166v1169l-508 -794h-141l-508 794v-1169h-166v1434h182l564 -883z" />
    <glyph glyph-name="uni1E41" unicode="&#x1e41;" horiz-adv-x="1914" 
d="M977 1257q-51 0 -83 32.5t-32 82.5t32 82.5t83 32.5t83 -32.5t32 -82.5t-32 -82.5t-83 -32.5zM1382 1065q171 0 263 -104t92 -295v-666h-164v627q0 148 -53.5 216t-171.5 68q-134 0 -220 -80.5t-86 -214.5v-616h-163v627q0 148 -53.5 216t-170.5 68q-135 0 -220 -80
t-85 -215v-616h-164v1036h164v-178q43 98 132.5 152.5t209.5 54.5q121 0 204 -56.5t120 -162.5q40 101 137 160t229 59z" />
    <glyph glyph-name="uni1E44" unicode="&#x1e44;" horiz-adv-x="1626" 
d="M813 1655q-51 0 -83 32t-32 82t32 82.5t83 32.5t83 -32.5t32 -82.5t-32 -82t-83 -32zM1243 1434h168v-1434h-162l-866 1161v-1161h-168v1434h160l868 -1164v1164z" />
    <glyph glyph-name="uni1E45" unicode="&#x1e45;" horiz-adv-x="1259" 
d="M635 1257q-51 0 -83 32.5t-32 82.5t32 82.5t83 32.5t83 -32.5t32 -82.5t-32 -82.5t-83 -32.5zM713 1065q177 0 273.5 -104.5t96.5 -298.5v-662h-163v623q0 149 -60 218.5t-184 69.5q-142 0 -234 -80.5t-92 -214.5v-616h-164v1036h164v-178q44 99 140 153t223 54z" />
    <glyph glyph-name="Wgrave" unicode="&#x1e80;" horiz-adv-x="2138" 
d="M1217 1612h-173l-264 301h203zM1907 1434h170l-447 -1434h-174l-387 1212l-387 -1212h-174l-447 1434h170l369 -1194l383 1194h172l383 -1194z" />
    <glyph glyph-name="wgrave" unicode="&#x1e81;" horiz-adv-x="1701" 
d="M997 1214h-172l-264 302h203zM1489 1036h166l-342 -1036h-178l-283 850l-285 -850h-180l-342 1036h166l270 -833l279 833h180l279 -837z" />
    <glyph glyph-name="Wacute" unicode="&#x1e82;" horiz-adv-x="2138" 
d="M1366 1913l-264 -301h-172l233 301h203zM1907 1434h170l-447 -1434h-174l-387 1212l-387 -1212h-174l-447 1434h170l369 -1194l383 1194h172l383 -1194z" />
    <glyph glyph-name="wacute" unicode="&#x1e83;" horiz-adv-x="1701" 
d="M1147 1516l-264 -302h-172l233 302h203zM1489 1036h166l-342 -1036h-178l-283 850l-285 -850h-180l-342 1036h166l270 -833l279 833h180l279 -837z" />
    <glyph glyph-name="Wdieresis" unicode="&#x1e84;" horiz-adv-x="2138" 
d="M850 1655q-49 0 -81 32t-32 82t32 82.5t81 32.5q51 0 83 -32.5t32 -82.5t-32 -82t-83 -32zM1288 1655q-51 0 -82.5 32t-31.5 82t31.5 82.5t82.5 32.5q49 0 81 -32.5t32 -82.5t-32 -82t-81 -32zM1907 1434h170l-447 -1434h-174l-387 1212l-387 -1212h-174l-447 1434h170
l369 -1194l383 1194h172l383 -1194z" />
    <glyph glyph-name="wdieresis" unicode="&#x1e85;" horiz-adv-x="1701" 
d="M631 1257q-49 0 -81 32.5t-32 82.5t32 82.5t81 32.5q51 0 82.5 -32.5t31.5 -82.5t-31.5 -82.5t-82.5 -32.5zM1069 1257q-51 0 -83 32.5t-32 82.5t32 82.5t83 32.5q49 0 81 -32.5t32 -82.5t-32 -82.5t-81 -32.5zM1489 1036h166l-342 -1036h-178l-283 850l-285 -850h-180
l-342 1036h166l270 -833l279 833h180l279 -837z" />
    <glyph glyph-name="uni1E90" unicode="&#x1e90;" horiz-adv-x="1243" 
d="M625 1812l-189 -200h-168l281 301h151l281 -301h-168zM303 156h844v-156h-1053v133l832 1145h-803v156h1012v-134z" />
    <glyph glyph-name="uni1E91" unicode="&#x1e91;" horiz-adv-x="1030" 
d="M516 1415l-188 -201h-168l280 302h152l280 -302h-167zM305 145h621v-145h-824v125l613 766h-596v145h799v-125z" />
    <glyph glyph-name="uni1E9E" unicode="&#x1e9e;" horiz-adv-x="1505" 
d="M963 780q220 -15 331 -112.5t111 -270.5q0 -189 -126.5 -293t-356.5 -104h-228v156h199q336 0 336 243q0 122 -82 182t-252 60h-133v141l352 422q-112 103 -330 103q-215 0 -316 -96.5t-101 -307.5v-903h-172v907q0 555 577 555q378 0 553 -250z" />
    <glyph glyph-name="Ygrave" unicode="&#x1ef2;" horiz-adv-x="1314" 
d="M803 1612h-172l-264 301h202zM1104 1434h192l-553 -838v-596h-172v596l-555 838h195l446 -689z" />
    <glyph glyph-name="ygrave" unicode="&#x1ef3;" horiz-adv-x="1101" 
d="M698 1214h-172l-264 302h205zM897 1036h172l-582 -1444h-170l158 394l-434 1050h172l346 -866z" />
    <glyph glyph-name="uni2000" unicode="&#x2000;" horiz-adv-x="1024" 
 />
    <glyph glyph-name="uni2001" unicode="&#x2001;" horiz-adv-x="2048" 
 />
    <glyph glyph-name="uni2002" unicode="&#x2002;" horiz-adv-x="1024" 
 />
    <glyph glyph-name="uni2003" unicode="&#x2003;" horiz-adv-x="2048" 
 />
    <glyph glyph-name="uni2009" unicode="&#x2009;" horiz-adv-x="432" 
 />
    <glyph glyph-name="uni200A" unicode="&#x200a;" horiz-adv-x="122" 
 />
    <glyph glyph-name="uni200B" unicode="&#x200b;" horiz-adv-x="0" 
 />
    <glyph glyph-name="endash" unicode="&#x2013;" horiz-adv-x="1251" 
d="M115 520v139h1024v-139h-1024z" />
    <glyph glyph-name="emdash" unicode="&#x2014;" horiz-adv-x="2275" 
d="M115 520v139h2048v-139h-2048z" />
    <glyph glyph-name="quoteleft" unicode="&#x2018;" horiz-adv-x="477" 
d="M102 956l144 506h129l-105 -506h-168z" />
    <glyph glyph-name="quoteright" unicode="&#x2019;" horiz-adv-x="477" 
d="M375 1462l-144 -506h-129l105 506h168z" />
    <glyph glyph-name="quotesinglbase" unicode="&#x201a;" horiz-adv-x="466" 
d="M354 221l-143 -506h-129l104 506h168z" />
    <glyph glyph-name="quotedblleft" unicode="&#x201c;" horiz-adv-x="825" 
d="M102 956l144 506h129l-105 -506h-168zM451 956l143 506h129l-105 -506h-167z" />
    <glyph glyph-name="quotedblright" unicode="&#x201d;" horiz-adv-x="825" 
d="M375 1462l-144 -506h-129l105 506h168zM723 1462l-143 -506h-129l104 506h168z" />
    <glyph glyph-name="quotedblbase" unicode="&#x201e;" horiz-adv-x="815" 
d="M354 221l-143 -506h-129l104 506h168zM702 221l-143 -506h-129l105 506h167z" />
    <glyph glyph-name="dagger" unicode="&#x2020;" horiz-adv-x="1062" 
d="M969 1032v-151h-357v-1147h-163v1147h-357v151h357v484h163v-484h357z" />
    <glyph glyph-name="daggerdbl" unicode="&#x2021;" horiz-adv-x="1103" 
d="M989 881h-356v-469h315v-152h-315v-526h-164v526h-315v152h315v469h-356v151h356v484h164v-484h356v-151z" />
    <glyph glyph-name="bullet" unicode="&#x2022;" horiz-adv-x="1052" 
d="M526 440q-127 0 -212 85.5t-85 211.5t85 211.5t212 85.5t213 -85.5t86 -211.5t-86 -211.5t-213 -85.5z" />
    <glyph glyph-name="ellipsis" unicode="&#x2026;" horiz-adv-x="1482" 
d="M254 -16q-55 0 -87 33.5t-32 86.5q0 52 32 84.5t87 32.5q53 0 85 -32.5t32 -84.5q0 -53 -32 -86.5t-85 -33.5zM741 -16q-53 0 -85.5 33.5t-32.5 86.5q0 52 32.5 84.5t85.5 32.5q55 0 87 -32.5t32 -84.5q0 -53 -32 -86.5t-87 -33.5zM1229 -16q-53 0 -85 33.5t-32 86.5
q0 52 32 84.5t85 32.5q55 0 87 -32.5t32 -84.5q0 -53 -32 -86.5t-87 -33.5z" />
    <glyph glyph-name="perthousand" unicode="&#x2030;" horiz-adv-x="2568" 
d="M432 737q-152 0 -255 104t-103 259t102.5 258.5t255.5 103.5q154 0 257.5 -103.5t103.5 -258.5t-103.5 -259t-257.5 -104zM258 0l1051 1434h164l-1051 -1434h-164zM432 864q101 0 161 65t60 171t-60 170.5t-161 64.5q-100 0 -160.5 -64.5t-60.5 -170.5t60.5 -171
t160.5 -65zM1298 -29q-154 0 -257 104t-103 259t103 258.5t257 103.5q153 0 257 -103.5t104 -258.5t-104 -259t-257 -104zM2136 -29q-154 0 -257 104t-103 259t103 258.5t257 103.5q153 0 255.5 -103.5t102.5 -258.5t-103 -259t-255 -104zM1298 98q100 0 161 65t61 171
t-61 170.5t-161 64.5t-160.5 -64.5t-60.5 -170.5t60.5 -171t160.5 -65zM2136 98q100 0 160.5 65t60.5 171t-60.5 170.5t-160.5 64.5q-101 0 -162 -64.5t-61 -170.5t61 -171t162 -65z" />
    <glyph glyph-name="guilsinglleft" unicode="&#x2039;" horiz-adv-x="665" 
d="M573 956l-305 -436l305 -438h-184l-307 438l307 436h184z" />
    <glyph glyph-name="guilsinglright" unicode="&#x203a;" horiz-adv-x="665" 
d="M276 956l308 -436l-308 -438h-182l303 438l-303 436h182z" />
    <glyph glyph-name="fraction" unicode="&#x2044;" horiz-adv-x="352" 
d="M-410 0l1004 1434h168l-1004 -1434h-168z" />
    <glyph glyph-name="uni2070" unicode="&#x2070;" horiz-adv-x="782" 
d="M391 713q-148 0 -232.5 103.5t-84.5 297.5t84.5 298t232.5 104q147 0 232.5 -104.5t85.5 -297.5t-85.5 -297t-232.5 -104zM391 844q85 0 128.5 64t43.5 206t-43.5 206t-128.5 64q-86 0 -129 -64t-43 -206t43 -206t129 -64z" />
    <glyph glyph-name="uni2074" unicode="&#x2074;" horiz-adv-x="706" 
d="M678 1006v-119h-98v-160h-136v160h-397v119l369 495h164v-495h98zM188 1006h256v342z" />
    <glyph glyph-name="uni2075" unicode="&#x2075;" horiz-adv-x="684" 
d="M375 1219q118 0 188 -65t70 -179q0 -122 -79 -192t-218 -70q-175 0 -285 116l80 97q84 -84 199 -84q74 0 115.5 35t41.5 98q0 59 -38.5 93t-104.5 34q-78 0 -141 -51l-103 51v399h484v-127h-351v-190q60 35 142 35z" />
    <glyph glyph-name="uni2076" unicode="&#x2076;" horiz-adv-x="696" 
d="M373 1253q119 0 197.5 -72.5t78.5 -191.5q0 -123 -83 -199.5t-214 -76.5q-132 0 -214.5 77t-82.5 205q0 140 109 283l170 223h168l-201 -258q29 10 72 10zM352 840q71 0 113.5 40t42.5 109q0 67 -42.5 106.5t-113.5 39.5t-113 -39.5t-42 -106.5q0 -69 42 -109t113 -40z
" />
    <glyph glyph-name="uni2077" unicode="&#x2077;" horiz-adv-x="612" 
d="M33 1501h547v-117l-316 -657h-162l318 641h-387v133z" />
    <glyph glyph-name="uni2078" unicode="&#x2078;" horiz-adv-x="718" 
d="M512 1124q147 -51 147 -188q0 -100 -79.5 -161.5t-219.5 -61.5q-142 0 -221.5 61.5t-79.5 161.5q0 136 150 188q-127 50 -127 176q0 93 74 154.5t204 61.5t203.5 -61.5t73.5 -154.5q0 -60 -32 -105.5t-93 -70.5zM360 1401q-68 0 -103.5 -30.5t-35.5 -82.5t35.5 -81
t103.5 -29t103 29t35 81t-35.5 82.5t-102.5 30.5zM360 834q74 0 114 30.5t40 83.5q0 54 -40 85.5t-114 31.5q-76 0 -115.5 -31.5t-39.5 -85.5t39.5 -84t115.5 -30z" />
    <glyph glyph-name="uni2079" unicode="&#x2079;" horiz-adv-x="692" 
d="M344 1516q131 0 214 -77.5t83 -205.5q0 -136 -109 -283l-170 -223h-169l202 258q-29 -10 -71 -10q-120 0 -198.5 72.5t-78.5 191.5q0 123 83 200t214 77zM344 1094q71 0 113.5 39t42.5 106q0 69 -42.5 109.5t-113.5 40.5t-113.5 -40.5t-42.5 -109.5q0 -67 42.5 -106
t113.5 -39z" />
    <glyph glyph-name="Euro" unicode="&#x20ac;" horiz-adv-x="1310" 
d="M795 123q102 0 182 65.5t121 182.5l139 -62q-59 -163 -178 -250.5t-268 -87.5q-196 0 -339.5 144t-189.5 387h-180v123h164q-4 62 -4 92t4 92h-164v123h180q46 243 189 386.5t340 143.5q149 0 268 -87.5t178 -250.5l-139 -61q-41 117 -121 182.5t-182 65.5
q-129 0 -226 -100.5t-135 -278.5h502v-123h-518q-4 -58 -4 -92t4 -92h518v-123h-502q38 -178 135 -278.5t226 -100.5z" />
    <glyph glyph-name="uni2116" unicode="&#x2116;" horiz-adv-x="2668" 
d="M2091 586q-192 0 -311 126.5t-119 311.5t119 311.5t311 126.5t312 -126.5t120 -311.5t-120 -311.5t-312 -126.5zM1243 270v1164h168v-1434h-162l-866 1161v-1161h-168v1434h160zM2091 1317q-123 0 -194.5 -80.5t-71.5 -212.5q0 -133 71.5 -213t194.5 -80q122 0 195 80
t73 213q0 131 -73 212t-195 81zM1681 250v149h822v-149h-822z" />
    <glyph glyph-name="trademark" unicode="&#x2122;" horiz-adv-x="1888" 
d="M94 1307v127h619v-127h-242v-709h-135v709h-242zM1606 1434h137v-836h-137v614l-256 -370h-90l-256 372v-616h-138v836h140l301 -437z" />
    <glyph glyph-name="uni2126" unicode="&#x2126;" horiz-adv-x="1669" 
d="M1516 743q0 -189 -79.5 -338t-226.5 -249h306v-156h-562v156q394 179 394 583q0 253 -143 410.5t-369 157.5q-228 0 -371 -157.5t-143 -410.5q0 -404 393 -583v-156h-561v156h305q-147 100 -226 249t-79 338q0 154 54 289t146 228.5t217.5 147.5t264.5 54q138 0 263 -54
t217 -147.5t146 -228.5t54 -289z" />
    <glyph glyph-name="estimated" unicode="&#x212e;" horiz-adv-x="1687" 
d="M844 0q-145 0 -275.5 52t-228.5 147q-97 94 -152 228.5t-55 289.5t55 291.5t152 230.5q98 92 229 143.5t275 51.5t274.5 -51.5t227.5 -143.5q98 -93 153 -230t55 -292v-25h-1196v-309q0 -72 21 -118.5t72 -84.5q171 -127 393 -127q172 0 315.5 75t231.5 210l43 -33
q-97 -145 -252 -225t-338 -80zM358 741h981v299q0 71 -20 120.5t-68 86.5q-177 133 -407 133q-222 0 -393 -127q-51 -37 -72 -84.5t-21 -119.5v-308z" />
    <glyph glyph-name="arrowleft" unicode="&#x2190;" 
d="M1360 795v-156h-1038l362 -348l-104 -105l-523 531l523 530l104 -104l-362 -348h1038z" />
    <glyph glyph-name="arrowup" unicode="&#x2191;" 
d="M1257 862l-104 -104l-348 362v-1038h-156v1038l-348 -362l-104 104l530 522z" />
    <glyph glyph-name="arrowright" unicode="&#x2192;" 
d="M874 1247l523 -530l-523 -531l-104 105l363 348h-1039v156h1039l-363 348z" />
    <glyph glyph-name="arrowdown" unicode="&#x2193;" 
d="M1153 686l104 -104l-530 -523l-530 523l104 104l348 -362v1038h156v-1038z" />
    <glyph glyph-name="uni2196" unicode="&#x2196;" 
d="M1239 315l-111 -110l-731 731l9 -498l-148 -2l6 746l746 6l-2 -150l-500 11z" />
    <glyph glyph-name="uni2197" unicode="&#x2197;" 
d="M1196 436l-147 2l8 498l-731 -729l-113 108l733 734l-500 -9l-2 148l746 -6z" />
    <glyph glyph-name="uni2198" unicode="&#x2198;" 
d="M1049 995l147 2l-6 -745l-746 -6l2 149l500 -10l-731 733l111 111l731 -731z" />
    <glyph glyph-name="uni2199" unicode="&#x2199;" 
d="M508 385l500 8l2 -147l-746 6l-6 745l148 -2l-9 -497l731 729l113 -109z" />
    <glyph glyph-name="partialdiff" unicode="&#x2202;" horiz-adv-x="1308" 
d="M602 1464q294 0 444 -202t150 -582q0 -394 -168 -559q-152 -152 -385 -152q-236 0 -383 140t-147 360q0 213 140.5 352.5t358.5 139.5q135 0 243 -57t167 -163h4q-9 302 -115.5 438t-314.5 136q-149 0 -301 -82l-47 141q160 90 354 90zM643 123q161 0 259.5 94.5
t98.5 251.5q0 156 -98.5 248t-259.5 92q-162 0 -261 -92t-99 -248q0 -157 99 -251.5t261 -94.5z" />
    <glyph glyph-name="uni2206" unicode="&#x2206;" horiz-adv-x="1392" 
d="M743 1434l598 -1338l-59 -96h-1171l-58 96l598 1338h92zM698 1157l-450 -1005h899z" />
    <glyph glyph-name="product" unicode="&#x220f;" horiz-adv-x="1425" 
d="M1210 1516v-1782h-172v1622h-651v-1622h-172v1782h995z" />
    <glyph glyph-name="summation" unicode="&#x2211;" horiz-adv-x="1105" 
d="M1044 1516v-156h-741l526 -735l-526 -736h741v-155h-929v155l524 736l-524 735v156h929z" />
    <glyph glyph-name="minus" unicode="&#x2212;" 
d="M279 578v143h897v-143h-897z" />
    <glyph glyph-name="radical" unicode="&#x221a;" horiz-adv-x="1251" 
d="M1061 1516h170l-516 -1782h-183l-280 770h-219v155h342l241 -688z" />
    <glyph glyph-name="infinity" unicode="&#x221e;" horiz-adv-x="1523" 
d="M1098 1063q157 0 254.5 -103.5t97.5 -267.5q0 -166 -97.5 -269.5t-254.5 -103.5q-81 0 -147 32t-107.5 76.5t-81.5 111.5q-40 -67 -81.5 -111.5t-107.5 -76.5t-147 -32q-157 0 -254.5 103.5t-97.5 269.5q0 164 97.5 267.5t254.5 103.5q117 0 195.5 -58t140.5 -161
q62 103 140.5 161t195.5 58zM420 465q45 0 82.5 17t69.5 52t54.5 69.5t51.5 88.5q-29 54 -51.5 88t-54.5 69t-69.5 52t-82.5 17q-85 0 -138 -62t-53 -164q0 -103 53 -165t138 -62zM1102 465q87 0 139.5 61.5t52.5 165.5q0 102 -53 164t-139 62q-45 0 -82.5 -17t-69 -52.5
t-53 -68.5t-51.5 -88q23 -43 40 -71.5t42 -61t49 -51t56.5 -31t68.5 -12.5z" />
    <glyph glyph-name="integral" unicode="&#x222b;" horiz-adv-x="784" 
d="M41 -266v151h141q62 0 92.5 29.5t30.5 93.5v1247q0 137 66 199t207 62h163v-152h-141q-62 0 -92.5 -29.5t-30.5 -93.5v-1247q0 -137 -65 -198.5t-205 -61.5h-166z" />
    <glyph glyph-name="approxequal" unicode="&#x2248;" 
d="M940 739q-73 0 -212.5 44t-213.5 44q-112 0 -235 -86v146q112 82 239 82q71 0 212 -44t208 -44q64 0 128.5 23.5t109.5 62.5v-146q-116 -82 -236 -82zM940 330q-74 0 -213 43t-213 43q-111 0 -235 -84v145q112 82 239 82q71 0 212 -44t208 -44q64 0 128.5 23.5
t109.5 62.5v-145q-116 -82 -236 -82z" />
    <glyph glyph-name="notequal" unicode="&#x2260;" 
d="M1176 782h-318l-129 -266h447v-145h-517l-131 -273h-133l131 273h-247v145h317l129 266h-446v146h516l131 272h133l-131 -272h248v-146z" />
    <glyph glyph-name="lessequal" unicode="&#x2264;" 
d="M1176 1133v-158l-719 -277l719 -276v-156l-897 355v155zM279 0v145h897v-145h-897z" />
    <glyph glyph-name="greaterequal" unicode="&#x2265;" 
d="M279 1133l897 -357v-155l-897 -355v156l718 276l-718 277v158zM279 0v145h897v-145h-897z" />
    <glyph glyph-name="filledbox" unicode="&#x25a0;" horiz-adv-x="1843" 
d="M205 0v1434h1433v-1434h-1433z" />
    <glyph glyph-name="triagup" unicode="&#x25b2;" horiz-adv-x="1843" 
d="M205 0l717 1434l716 -1434h-1433z" />
    <glyph glyph-name="triagdn" unicode="&#x25bc;" horiz-adv-x="1843" 
d="M922 0l-717 1434h1433z" />
    <glyph glyph-name="uni25C6" unicode="&#x25c6;" horiz-adv-x="1843" 
d="M920 0l-715 715l715 719l718 -719z" />
    <glyph glyph-name="lozenge" unicode="&#x25ca;" horiz-adv-x="1280" 
d="M707 1434l514 -717l-514 -717h-134l-516 717l516 717h134zM641 170l391 547l-391 547l-393 -547z" />
    <glyph glyph-name="uni25CF" unicode="&#x25cf;" horiz-adv-x="1843" 
d="M922 0q-145 0 -278 57t-229 153t-153 229t-57 278t57 278t153 229t229 153t278 57t278 -57t228.5 -153t152.5 -228.5t57 -278.5t-57 -278.5t-152.5 -228.5t-228.5 -153t-278 -57z" />
    <glyph glyph-name="uni2610" unicode="&#x2610;" horiz-adv-x="1843" 
d="M205 0v1434h1433v-1434h-1433zM350 137h1143v1159h-1143v-1159z" />
    <glyph glyph-name="uni2611" unicode="&#x2611;" horiz-adv-x="1843" 
d="M205 1434h1433v-1434h-1433v1434zM1493 137v1159h-1143v-1159h1143zM1303 1069l-449 -778l-313 180l75 131l189 -106l373 645z" />
    <glyph glyph-name="uni2612" unicode="&#x2612;" horiz-adv-x="1843" 
d="M205 1434h1433v-1434h-1433v1434zM1493 137v1159h-1143v-1159h1143zM606 305l-96 96l315 316l-315 315l96 96l316 -315l315 315l96 -96l-315 -315l315 -316l-96 -96l-315 316z" />
    <glyph glyph-name="heart" unicode="&#x2665;" horiz-adv-x="1843" 
d="M922 98q-65 63 -150.5 127t-153.5 107t-139 98.5t-118 108.5t-77 130t-30 169q0 97 32 176t84 127.5t115.5 74t130.5 25.5q119 0 206.5 -73t97.5 -205h4q10 132 97 205t206 73q67 0 130.5 -25.5t115.5 -74t84 -127.5t32 -176q0 -92 -30 -169t-77 -130t-117.5 -108.5
t-138.5 -98.5t-153.5 -107t-150.5 -127z" />
    <glyph glyph-name="uni2B51" unicode="&#x2b51;" horiz-adv-x="1843" 
d="M446 -6l183 557l-469 340h581l179 553l178 -555h585l-473 -342l181 -553l-471 344z" />
    <glyph glyph-name="uni00A40301" horiz-adv-x="1206" 
d="M782 1612l234 301h203l-265 -301h-172zM502 -29q-138 0 -253.5 51.5t-197.5 149.5l111 115q128 -156 336 -156q161 0 251.5 100t90.5 293v910h172v-922q0 -250 -137.5 -395.5t-372.5 -145.5z" />
    <glyph glyph-name="i.loclTRK" horiz-adv-x="538" 
d="M270 1257q-51 0 -82.5 32.5t-31.5 82.5t31.5 82.5t82.5 32.5t83 -32.5t32 -82.5t-32 -82.5t-83 -32.5zM188 0v1036h164v-1036h-164z" />
    <glyph glyph-name="uni006A0301" horiz-adv-x="538" 
d="M131 1214l193 302h198l-225 -302h-166zM47 -440q-54 0 -115 12v149q49 -12 97 -12q85 0 122 40.5t37 125.5v1161h164v-1179q0 -143 -76 -220t-229 -77z" />
    <glyph glyph-name="a.ss01" horiz-adv-x="1343" 
d="M993 1036h164v-1036h-164v195q-46 -103 -150 -163.5t-237 -60.5q-216 0 -354.5 152.5t-138.5 394.5t138.5 394.5t354.5 152.5q133 0 237 -61t150 -164v196zM643 123q160 0 259 111t99 284t-99 283t-259 110q-161 0 -260.5 -110t-99.5 -283t99.5 -284t260.5 -111z" />
    <glyph glyph-name="aacute.ss01" horiz-adv-x="1343" 
d="M985 1516l-264 -302h-172l233 302h203zM993 1036h164v-1036h-164v195q-46 -103 -150 -163.5t-237 -60.5q-216 0 -354.5 152.5t-138.5 394.5t138.5 394.5t354.5 152.5q133 0 237 -61t150 -164v196zM643 123q160 0 259 111t99 284t-99 283t-259 110q-161 0 -260.5 -110
t-99.5 -283t99.5 -284t260.5 -111z" />
    <glyph glyph-name="abreve.ss01" horiz-adv-x="1343" 
d="M690 1202q-140 0 -220.5 72t-80.5 194v9h146q0 -74 40 -115t115 -41t115.5 41t40.5 115h145v-9q0 -122 -80.5 -194t-220.5 -72zM993 1036h164v-1036h-164v195q-46 -103 -150 -163.5t-237 -60.5q-216 0 -354.5 152.5t-138.5 394.5t138.5 394.5t354.5 152.5q133 0 237 -61
t150 -164v196zM643 123q160 0 259 111t99 284t-99 283t-259 110q-161 0 -260.5 -110t-99.5 -283t99.5 -284t260.5 -111z" />
    <glyph glyph-name="uni01CE.ss01" horiz-adv-x="1343" 
d="M766 1214h-152l-280 302h168l188 -201l189 201h168zM993 1036h164v-1036h-164v195q-46 -103 -150 -163.5t-237 -60.5q-216 0 -354.5 152.5t-138.5 394.5t138.5 394.5t354.5 152.5q133 0 237 -61t150 -164v196zM643 123q160 0 259 111t99 284t-99 283t-259 110
q-161 0 -260.5 -110t-99.5 -283t99.5 -284t260.5 -111z" />
    <glyph glyph-name="acircumflex.ss01" horiz-adv-x="1343" 
d="M690 1415l-188 -201h-168l280 302h152l281 -302h-168zM993 1036h164v-1036h-164v195q-46 -103 -150 -163.5t-237 -60.5q-216 0 -354.5 152.5t-138.5 394.5t138.5 394.5t354.5 152.5q133 0 237 -61t150 -164v196zM643 123q160 0 259 111t99 284t-99 283t-259 110
q-161 0 -260.5 -110t-99.5 -283t99.5 -284t260.5 -111z" />
    <glyph glyph-name="adieresis.ss01" horiz-adv-x="1343" 
d="M471 1257q-49 0 -81 32.5t-32 82.5t32 82.5t81 32.5q51 0 83 -32.5t32 -82.5t-32 -82.5t-83 -32.5zM909 1257q-51 0 -82.5 32.5t-31.5 82.5t31.5 82.5t82.5 32.5q49 0 81 -32.5t32 -82.5t-32 -82.5t-81 -32.5zM993 1036h164v-1036h-164v195q-46 -103 -150 -163.5
t-237 -60.5q-216 0 -354.5 152.5t-138.5 394.5t138.5 394.5t354.5 152.5q133 0 237 -61t150 -164v196zM643 123q160 0 259 111t99 284t-99 283t-259 110q-161 0 -260.5 -110t-99.5 -283t99.5 -284t260.5 -111z" />
    <glyph glyph-name="agrave.ss01" horiz-adv-x="1343" 
d="M836 1214h-172l-265 302h203zM993 1036h164v-1036h-164v195q-46 -103 -150 -163.5t-237 -60.5q-216 0 -354.5 152.5t-138.5 394.5t138.5 394.5t354.5 152.5q133 0 237 -61t150 -164v196zM643 123q160 0 259 111t99 284t-99 283t-259 110q-161 0 -260.5 -110t-99.5 -283
t99.5 -284t260.5 -111z" />
    <glyph glyph-name="amacron.ss01" horiz-adv-x="1343" 
d="M999 1395v-133h-618v133h618zM993 1036h164v-1036h-164v195q-46 -103 -150 -163.5t-237 -60.5q-216 0 -354.5 152.5t-138.5 394.5t138.5 394.5t354.5 152.5q133 0 237 -61t150 -164v196zM643 123q160 0 259 111t99 284t-99 283t-259 110q-161 0 -260.5 -110t-99.5 -283
t99.5 -284t260.5 -111z" />
    <glyph glyph-name="aogonek.ss01" horiz-adv-x="1343" 
d="M1157 0q-107 -77 -149.5 -127.5t-42.5 -93.5q0 -84 127 -84h65v-133h-84q-125 0 -193.5 53t-68.5 139q0 140 184 246h-2v195q-46 -103 -150 -163.5t-237 -60.5q-216 0 -354.5 152.5t-138.5 394.5t138.5 394.5t354.5 152.5q133 0 237 -61t150 -164v196h164v-1036zM643 123
q160 0 259 111t99 284t-99 283t-259 110q-161 0 -260.5 -110t-99.5 -283t99.5 -284t260.5 -111z" />
    <glyph glyph-name="aring.ss01" horiz-adv-x="1343" 
d="M690 1190q-104 0 -176 67.5t-72 167.5q0 98 72 167t176 69t176 -69t72 -167q0 -100 -72 -167.5t-176 -67.5zM690 1548q-56 0 -90.5 -35t-34.5 -88q0 -55 34.5 -90t90.5 -35t90.5 35t34.5 90q0 53 -34.5 88t-90.5 35zM993 1036h164v-1036h-164v195q-46 -103 -150 -163.5
t-237 -60.5q-216 0 -354.5 152.5t-138.5 394.5t138.5 394.5t354.5 152.5q133 0 237 -61t150 -164v196zM643 123q160 0 259 111t99 284t-99 283t-259 110q-161 0 -260.5 -110t-99.5 -283t99.5 -284t260.5 -111z" />
    <glyph glyph-name="atilde.ss01" horiz-adv-x="1343" 
d="M553 1372q-32 0 -52 -33t-20 -96h-119q0 119 49.5 186.5t133.5 67.5q45 0 82.5 -19t97.5 -69q42 -37 61.5 -47t40.5 -10q32 0 52 33t20 98h119q0 -120 -49 -187t-133 -67q-41 0 -80 18t-101 70q-41 33 -61 44t-41 11zM993 1036h164v-1036h-164v195q-46 -103 -150 -163.5
t-237 -60.5q-216 0 -354.5 152.5t-138.5 394.5t138.5 394.5t354.5 152.5q133 0 237 -61t150 -164v196zM643 123q160 0 259 111t99 284t-99 283t-259 110q-161 0 -260.5 -110t-99.5 -283t99.5 -284t260.5 -111z" />
    <glyph glyph-name="j.ss02" horiz-adv-x="538" 
d="M270 1257q-51 0 -82.5 32.5t-31.5 82.5t31.5 82.5t82.5 32.5q49 0 81 -32.5t32 -82.5t-32 -82.5t-81 -32.5zM188 -410v1446h164v-1446h-164z" />
    <glyph glyph-name="uni0237.ss02" horiz-adv-x="538" 
d="M188 -410v1446h164v-1446h-164z" />
    <glyph glyph-name="uni006A0301.ss02" horiz-adv-x="538" 
d="M131 1214l193 302h198l-225 -302h-166zM188 -410v1446h164v-1446h-164z" />
    <glyph glyph-name="jcircumflex.ss02" horiz-adv-x="538" 
d="M346 1516l248 -302h-162l-162 203l-161 -203h-162l248 302h151zM188 -410v1446h164v-1446h-164z" />
    <glyph glyph-name="t.ss03" horiz-adv-x="788" 
d="M311 0v895h-270v141h270v307h164v-307h273v-141h-273v-895h-164z" />
    <glyph glyph-name="tbar.ss03" horiz-adv-x="788" 
d="M748 895h-273v-293h232v-129h-232v-473h-164v473h-231v129h231v293h-270v141h270v307h164v-307h273v-141z" />
    <glyph glyph-name="tcaron.ss03" horiz-adv-x="868" 
d="M643 1190v401h170l-43 -401h-127zM311 0v895h-270v141h270v307h164v-307h273v-141h-273v-895h-164z" />
    <glyph glyph-name="uni0163.ss03" horiz-adv-x="788" 
d="M311 0v895h-270v141h270v307h164v-307h273v-141h-273v-895h-164zM217 -516l82 330h170l-125 -330h-127z" />
    <glyph glyph-name="uni021B.ss03" horiz-adv-x="788" 
d="M311 0v895h-270v141h270v307h164v-307h273v-141h-273v-895h-164zM217 -516l82 330h170l-125 -330h-127z" />
    <glyph glyph-name="y.ss04" horiz-adv-x="1251" 
d="M903 1036h164v-952q0 -250 -133 -386t-371 -136q-131 0 -243.5 41t-184.5 116l96 117q64 -60 149.5 -91.5t178.5 -31.5q164 0 254 95t90 276v127q-44 -100 -142 -155.5t-226 -55.5q-175 0 -272 103.5t-97 299.5v633h164v-594q0 -153 59.5 -221.5t183.5 -68.5
q143 0 236.5 82t93.5 215v587z" />
    <glyph glyph-name="yacute.ss04" horiz-adv-x="1251" 
d="M911 1516l-264 -302h-172l234 302h202zM903 1036h164v-952q0 -250 -133 -386t-371 -136q-131 0 -243.5 41t-184.5 116l96 117q64 -60 149.5 -91.5t178.5 -31.5q164 0 254 95t90 276v127q-44 -100 -142 -155.5t-226 -55.5q-175 0 -272 103.5t-97 299.5v633h164v-594
q0 -153 59.5 -221.5t183.5 -68.5q143 0 236.5 82t93.5 215v587z" />
    <glyph glyph-name="ycircumflex.ss04" horiz-adv-x="1251" 
d="M616 1415l-188 -201h-168l281 302h151l281 -302h-168zM903 1036h164v-952q0 -250 -133 -386t-371 -136q-131 0 -243.5 41t-184.5 116l96 117q64 -60 149.5 -91.5t178.5 -31.5q164 0 254 95t90 276v127q-44 -100 -142 -155.5t-226 -55.5q-175 0 -272 103.5t-97 299.5v633
h164v-594q0 -153 59.5 -221.5t183.5 -68.5q143 0 236.5 82t93.5 215v587z" />
    <glyph glyph-name="ydieresis.ss04" horiz-adv-x="1251" 
d="M397 1257q-49 0 -80.5 32.5t-31.5 82.5t31.5 82.5t80.5 32.5q51 0 83 -32.5t32 -82.5t-32 -82.5t-83 -32.5zM836 1257q-51 0 -83 32.5t-32 82.5t32 82.5t83 32.5q49 0 80.5 -32.5t31.5 -82.5t-31.5 -82.5t-80.5 -32.5zM903 1036h164v-952q0 -250 -133 -386t-371 -136
q-131 0 -243.5 41t-184.5 116l96 117q64 -60 149.5 -91.5t178.5 -31.5q164 0 254 95t90 276v127q-44 -100 -142 -155.5t-226 -55.5q-175 0 -272 103.5t-97 299.5v633h164v-594q0 -153 59.5 -221.5t183.5 -68.5q143 0 236.5 82t93.5 215v587z" />
    <glyph glyph-name="ygrave.ss04" horiz-adv-x="1251" 
d="M762 1214h-172l-264 302h202zM903 1036h164v-952q0 -250 -133 -386t-371 -136q-131 0 -243.5 41t-184.5 116l96 117q64 -60 149.5 -91.5t178.5 -31.5q164 0 254 95t90 276v127q-44 -100 -142 -155.5t-226 -55.5q-175 0 -272 103.5t-97 299.5v633h164v-594
q0 -153 59.5 -221.5t183.5 -68.5q143 0 236.5 82t93.5 215v587z" />
    <glyph glyph-name="zero.zero" horiz-adv-x="1437" 
d="M719 1462q265 0 419 -196.5t154 -548.5t-154 -549t-419 -197t-419.5 197.5t-154.5 548.5t154.5 548t419.5 197zM322 717q0 -312 114 -459l457 1010q-74 39 -174 39q-193 0 -295 -148t-102 -442zM719 127q192 0 294.5 148t102.5 442q0 309 -112 457l-459 -1008
q74 -39 174 -39z" />
    <glyph glyph-name="zero.lf" horiz-adv-x="1437" 
d="M719 -29q-265 0 -419.5 197.5t-154.5 548.5t154.5 548t419.5 197t419 -196.5t154 -548.5t-154 -549t-419 -197zM719 127q192 0 294.5 148t102.5 442t-102.5 442t-294.5 148q-193 0 -295 -148t-102 -442t102 -442t295 -148z" />
    <glyph glyph-name="one.lf" horiz-adv-x="882" 
d="M516 1434h139v-1434h-168v1253l-385 -198v166z" />
    <glyph glyph-name="two.lf" horiz-adv-x="1196" 
d="M334 156h753v-156h-993v143l529 496q152 142 208 232t56 184q0 120 -72.5 187t-200.5 67q-254 0 -397 -269l-129 88q86 165 219 249.5t303 84.5q204 0 327.5 -112t123.5 -293q0 -114 -62 -226.5t-213 -252.5z" />
    <glyph glyph-name="three.lf" horiz-adv-x="1161" 
d="M788 727q129 -38 198 -126t69 -214q0 -186 -134.5 -301t-361.5 -115q-152 0 -279.5 53.5t-213.5 155.5l108 111q159 -166 385 -166q152 0 238 74t86 200q0 256 -385 256h-123v146h166q159 0 241 68t82 188q0 116 -76.5 184t-218.5 68q-223 0 -364 -191l-121 103
q184 241 491 241q214 0 336.5 -108t122.5 -289q0 -128 -63.5 -216t-182.5 -122z" />
    <glyph glyph-name="four.lf" horiz-adv-x="1271" 
d="M1231 465v-146h-219v-319h-158v319h-772v142l713 973h217v-969h219zM266 465h588v801z" />
    <glyph glyph-name="five.lf" horiz-adv-x="1198" 
d="M627 887q212 0 344.5 -119t132.5 -326q0 -212 -143 -341.5t-381 -129.5q-296 0 -482 207l103 107q163 -160 374 -160q168 0 263.5 85t95.5 232q0 137 -84 215t-234 78q-167 0 -307 -100l-137 82v717h850v-154h-688v-475q128 82 293 82z" />
    <glyph glyph-name="six.lf" horiz-adv-x="1247" 
d="M676 965q133 0 244 -60.5t178 -174.5t67 -259q0 -223 -149 -361.5t-381 -138.5q-230 0 -377 138t-147 370q0 264 211 541l313 414h205l-441 -562q122 93 277 93zM639 123q163 0 258.5 93.5t95.5 254.5t-95 252.5t-259 91.5q-165 0 -260.5 -91.5t-95.5 -252.5t96 -254.5
t260 -93.5z" />
    <glyph glyph-name="seven.lf" horiz-adv-x="1071" 
d="M53 1434h965v-146l-621 -1288h-180l623 1280h-787v154z" />
    <glyph glyph-name="eight.lf" horiz-adv-x="1290" 
d="M893 735q134 -44 205 -136t71 -218q0 -177 -139.5 -293.5t-384.5 -116.5t-384.5 116.5t-139.5 293.5q0 126 71 218t205 136q-114 44 -174.5 130.5t-60.5 203.5q0 172 129 282.5t354 110.5q223 0 353 -110.5t130 -282.5q0 -117 -60.5 -203.5t-174.5 -130.5zM332 1059
q0 -117 80 -184.5t233 -67.5t233 67.5t80 184.5q0 116 -80 184t-233 68t-233 -68t-80 -184zM645 125q169 0 259.5 73t90.5 193t-90.5 193t-259.5 73q-170 0 -261 -73t-91 -193t91 -193t261 -73z" />
    <glyph glyph-name="nine.lf" horiz-adv-x="1247" 
d="M612 1462q230 0 377.5 -138t147.5 -370q0 -263 -211 -540l-314 -414h-204l440 561q-121 -92 -277 -92q-133 0 -244 60.5t-178 174.5t-67 259q0 222 149 360.5t381 138.5zM610 618q164 0 259.5 92t95.5 253t-96 254.5t-259 93.5q-164 0 -260 -93.5t-96 -254.5t95.5 -253
t260.5 -92z" />
    <glyph glyph-name="zero.tf" 
d="M727 -29q-259 0 -400 195t-141 551q0 355 141 550t400 195t400 -195t141 -550q0 -356 -141 -551t-400 -195zM727 127q186 0 276.5 146t90.5 444t-90.5 444t-276.5 146t-276.5 -146t-90.5 -444t90.5 -444t276.5 -146z" />
    <glyph glyph-name="one.tf" 
d="M879 154h372v-154h-950v154h410v1099l-385 -198v166l413 213h140v-1280z" />
    <glyph glyph-name="two.tf" 
d="M467 156h754v-156h-994v143l529 496q152 142 208 232t56 184q0 120 -72 187t-200 67q-255 0 -398 -269l-129 88q86 165 219 249.5t303 84.5q204 0 327.5 -112t123.5 -293q0 -115 -62 -227t-212 -252z" />
    <glyph glyph-name="three.tf" 
d="M942 727q128 -38 196 -126t68 -214q0 -186 -134 -301t-361 -115q-152 0 -280 53.5t-212 155.5l107 111q159 -166 385 -166q153 0 238 74t85 200q0 123 -94 189.5t-289 66.5h-123v146h164q159 0 241.5 68t82.5 188q0 116 -76.5 184t-218.5 68q-221 0 -365 -191l-120 103
q187 241 491 241q215 0 337 -108t122 -289q0 -128 -63 -216t-181 -122z" />
    <glyph glyph-name="four.tf" 
d="M1331 465v-146h-219v-319h-158v319h-770v142l713 973h215v-969h219zM369 465h585v801z" />
    <glyph glyph-name="five.tf" 
d="M766 887q212 0 344.5 -119t132.5 -326q0 -212 -143 -341.5t-381 -129.5q-292 0 -481 207l102 107q163 -160 375 -160q168 0 263 85t95 232q0 137 -83.5 215t-233.5 78q-167 0 -307 -100l-138 82v717h850v-154h-688v-475q128 82 293 82z" />
    <glyph glyph-name="six.tf" 
d="M782 965q132 0 243 -60.5t178 -175t67 -258.5q0 -223 -149.5 -361.5t-381.5 -138.5q-229 0 -375.5 138t-146.5 370q0 267 211 541l311 414h205l-440 -562q122 93 278 93zM743 123q164 0 259.5 93.5t95.5 254.5t-95 252.5t-260 91.5t-259.5 -91.5t-94.5 -252.5t95 -254.5
t259 -93.5z" />
    <glyph glyph-name="seven.tf" 
d="M250 1434h991v-146l-620 -1288h-179l621 1280h-813v154z" />
    <glyph glyph-name="eight.tf" 
d="M983 735q134 -44 205.5 -136.5t71.5 -217.5q0 -177 -140 -293.5t-385 -116.5t-384.5 116.5t-139.5 293.5q0 126 71 218t205 136q-114 44 -174.5 130.5t-60.5 203.5q0 172 129 282.5t354 110.5q223 0 353.5 -110.5t130.5 -282.5q0 -117 -61 -203.5t-175 -130.5zM420 1059
q0 -117 81 -184.5t234 -67.5t233.5 67.5t80.5 184.5q0 116 -80.5 184t-233.5 68t-234 -68t-81 -184zM735 125q169 0 259.5 73t90.5 193t-90.5 193t-259.5 73q-170 0 -261 -73t-91 -193t91 -193t261 -73z" />
    <glyph glyph-name="nine.tf" 
d="M723 1462q229 0 375.5 -138t146.5 -370q0 -266 -211 -540l-311 -414h-205l440 561q-121 -92 -278 -92q-132 0 -242.5 60.5t-177.5 174.5t-67 259q0 222 149 360.5t381 138.5zM719 618q165 0 259.5 92t94.5 253t-95 254.5t-259 93.5t-259 -93.5t-95 -254.5t94.5 -253
t259.5 -92z" />
    <glyph glyph-name="zero.tf.zero" 
d="M727 1462q259 0 400 -195t141 -550q0 -356 -141 -551t-400 -195t-400 195t-141 551q0 355 141 550t400 195zM360 717q0 -300 91 -443l448 990q-70 43 -172 43q-186 0 -276.5 -146t-90.5 -444zM727 127q186 0 276.5 146t90.5 444q0 297 -88 440l-449 -989q71 -41 170 -41z
" />
    <glyph glyph-name="zero.subs" horiz-adv-x="782" 
d="M391 -152q-148 0 -232.5 104t-84.5 298t84.5 297.5t232.5 103.5q147 0 232.5 -104t85.5 -297t-85.5 -297.5t-232.5 -104.5zM391 -20q85 0 128.5 64t43.5 206t-43.5 206t-128.5 64q-86 0 -129 -64t-43 -206t43 -206t129 -64z" />
    <glyph glyph-name="one.subs" horiz-adv-x="495" 
d="M264 637h123v-774h-141v626l-191 -96v137z" />
    <glyph glyph-name="two.subs" horiz-adv-x="675" 
d="M274 -4h347v-133h-560v106l287 271q65 59 92 100.5t27 79.5q0 44 -32.5 72t-84.5 28q-56 0 -103 -34.5t-77 -102.5l-115 66q36 93 114.5 147.5t180.5 54.5q114 0 188 -65.5t74 -161.5q0 -115 -131 -234z" />
    <glyph glyph-name="three.subs" horiz-adv-x="659" 
d="M461 256q69 -21 105 -68.5t36 -113.5q0 -102 -76.5 -164t-206.5 -62q-178 0 -280 117l80 98q78 -83 194 -83q69 0 106.5 29.5t37.5 76.5q0 104 -156 104h-78v129h82q70 0 107 25.5t37 73.5q0 47 -32 74.5t-91 27.5q-55 0 -105 -24.5t-84 -67.5l-94 90q47 63 121 98
t162 35q126 0 197 -59t71 -158q0 -141 -133 -178z" />
    <glyph glyph-name="four.subs" horiz-adv-x="706" 
d="M678 141v-118h-98v-160h-136v160h-397v118l369 496h164v-496h98zM188 141h256v342z" />
    <glyph glyph-name="five.subs" horiz-adv-x="684" 
d="M375 354q118 0 188 -64.5t70 -178.5q0 -122 -79 -192.5t-218 -70.5q-174 0 -285 117l80 96q84 -84 199 -84q74 0 115.5 35.5t41.5 98.5q0 59 -38.5 93t-104.5 34q-77 0 -141 -52l-103 52v399h484v-127h-351v-191q60 35 142 35z" />
    <glyph glyph-name="six.subs" horiz-adv-x="696" 
d="M373 389q119 0 197.5 -72.5t78.5 -191.5q0 -123 -83 -200t-214 -77q-132 0 -214.5 77.5t-82.5 205.5q0 140 109 283l170 223h168l-201 -258q29 10 72 10zM352 -25q71 0 113.5 40.5t42.5 109.5q0 67 -42.5 106t-113.5 39t-113 -39t-42 -106q0 -69 42 -109.5t113 -40.5z
" />
    <glyph glyph-name="seven.subs" horiz-adv-x="612" 
d="M33 637h547v-117l-316 -657h-162l318 641h-387v133z" />
    <glyph glyph-name="eight.subs" horiz-adv-x="718" 
d="M512 260q147 -51 147 -188q0 -100 -79.5 -162t-219.5 -62q-142 0 -221.5 61.5t-79.5 162.5q0 136 150 188q-127 50 -127 176q0 93 74 154t204 61t203.5 -61t73.5 -154q0 -60 -32 -105.5t-93 -70.5zM360 537q-68 0 -103.5 -30.5t-35.5 -82.5t35.5 -81.5t103.5 -29.5
t103 29.5t35 81.5t-35.5 82.5t-102.5 30.5zM360 -31q74 0 114 31t40 84q0 54 -40 85.5t-114 31.5q-76 0 -115.5 -31.5t-39.5 -85.5t39.5 -84.5t115.5 -30.5z" />
    <glyph glyph-name="nine.subs" horiz-adv-x="692" 
d="M344 651q131 0 214 -77.5t83 -204.5q0 -136 -109 -283l-170 -223h-169l202 258q-29 -10 -71 -10q-120 0 -198.5 72.5t-78.5 191.5q0 123 83 199.5t214 76.5zM344 229q71 0 113.5 39.5t42.5 106.5q0 69 -42.5 109t-113.5 40t-113.5 -40t-42.5 -109q0 -67 42.5 -106.5
t113.5 -39.5z" />
    <glyph glyph-name="zero.dnom" horiz-adv-x="782" 
d="M391 -29q-148 0 -232.5 104t-84.5 298t84.5 297.5t232.5 103.5q147 0 232.5 -104t85.5 -297t-85.5 -297.5t-232.5 -104.5zM391 102q85 0 128.5 64.5t43.5 206.5t-43.5 206t-128.5 64q-86 0 -129 -64t-43 -206q0 -143 43 -207t129 -64z" />
    <glyph glyph-name="one.dnom" horiz-adv-x="495" 
d="M264 760h123v-774h-141v626l-191 -96v137z" />
    <glyph glyph-name="two.dnom" horiz-adv-x="675" 
d="M274 119h347v-133h-560v106l287 270q119 108 119 181q0 44 -32.5 72t-84.5 28q-56 0 -103 -34.5t-77 -102.5l-115 65q36 93 114.5 148t180.5 55q114 0 188 -65.5t74 -161.5q0 -115 -131 -234z" />
    <glyph glyph-name="three.dnom" horiz-adv-x="659" 
d="M461 379q69 -21 105 -68.5t36 -113.5q0 -102 -76.5 -164t-206.5 -62q-178 0 -280 117l80 98q78 -84 194 -84q68 0 106 30t38 77q0 104 -156 104h-78v129h82q70 0 107 25.5t37 73.5q0 47 -32 74.5t-91 27.5q-55 0 -105 -24.5t-84 -67.5l-94 90q47 63 121 98t162 35
q126 0 197 -59t71 -158q0 -141 -133 -178z" />
    <glyph glyph-name="four.dnom" horiz-adv-x="706" 
d="M678 264v-119h-98v-159h-136v159h-397v119l369 496h164v-496h98zM188 264h256v342z" />
    <glyph glyph-name="five.dnom" horiz-adv-x="684" 
d="M375 477q118 0 188 -65t70 -179q0 -122 -79 -192t-218 -70q-174 0 -285 117l80 96q84 -84 199 -84q74 0 115.5 35t41.5 98q0 59 -38.5 93t-104.5 34q-78 0 -141 -51l-103 51v400h484v-127h-351v-191q60 35 142 35z" />
    <glyph glyph-name="six.dnom" horiz-adv-x="696" 
d="M373 512q119 0 197.5 -72.5t78.5 -191.5q0 -123 -83 -200t-214 -77q-132 0 -214.5 77.5t-82.5 205.5q0 140 109 283l170 223h168l-201 -258q29 10 72 10zM352 98q71 0 113.5 40.5t42.5 109.5q0 67 -42.5 106t-113.5 39t-113 -39t-42 -106q0 -69 42 -109.5t113 -40.5z" />
    <glyph glyph-name="seven.dnom" horiz-adv-x="612" 
d="M33 760h547v-117l-316 -657h-162l318 641h-387v133z" />
    <glyph glyph-name="eight.dnom" horiz-adv-x="718" 
d="M512 383q147 -51 147 -188q0 -100 -79.5 -162t-219.5 -62q-142 0 -221.5 61.5t-79.5 162.5q0 136 150 188q-127 50 -127 176q0 93 74 154t204 61t203.5 -61t73.5 -154q0 -60 -32 -105.5t-93 -70.5zM360 659q-68 0 -103.5 -30t-35.5 -82t35.5 -81.5t103.5 -29.5t103 29.5
t35 81.5t-35 82t-103 30zM360 92q74 0 114 31t40 84q0 54 -40 85.5t-114 31.5q-76 0 -115.5 -31.5t-39.5 -85.5t39.5 -84.5t115.5 -30.5z" />
    <glyph glyph-name="nine.dnom" horiz-adv-x="692" 
d="M344 774q131 0 214 -77.5t83 -204.5q0 -136 -109 -283l-170 -223h-169l202 258q-32 -11 -71 -11q-119 0 -198 73t-79 192q0 123 83 199.5t214 76.5zM344 352q71 0 113.5 39.5t42.5 106.5q0 69 -42.5 109t-113.5 40t-113.5 -40t-42.5 -109q0 -67 42.5 -106.5t113.5 -39.5z
" />
    <glyph glyph-name="zero.numr" horiz-adv-x="782" 
d="M391 659q-148 0 -232.5 104t-84.5 298t84.5 297.5t232.5 103.5q147 0 232.5 -104t85.5 -297t-85.5 -297.5t-232.5 -104.5zM391 791q85 0 128.5 64t43.5 206t-43.5 206t-128.5 64q-86 0 -129 -64t-43 -206t43 -206t129 -64z" />
    <glyph glyph-name="one.numr" horiz-adv-x="495" 
d="M264 1448h123v-774h-141v626l-191 -96v137z" />
    <glyph glyph-name="two.numr" horiz-adv-x="675" 
d="M274 807h347v-133h-560v106l287 271q65 59 92 100.5t27 79.5q0 44 -32.5 72t-84.5 28q-56 0 -103 -34.5t-77 -102.5l-115 66q36 93 114.5 147.5t180.5 54.5q114 0 188 -65.5t74 -161.5q0 -115 -131 -234z" />
    <glyph glyph-name="three.numr" horiz-adv-x="659" 
d="M461 1067q69 -21 105 -68.5t36 -113.5q0 -102 -76.5 -164t-206.5 -62q-178 0 -280 117l80 98q78 -83 194 -83q69 0 106.5 29.5t37.5 76.5q0 104 -156 104h-78v129h82q70 0 107 25.5t37 73.5q0 47 -32 74.5t-91 27.5q-55 0 -105 -24.5t-84 -67.5l-94 90q47 63 121 98
t162 35q126 0 197 -59t71 -158q0 -141 -133 -178z" />
    <glyph glyph-name="four.numr" horiz-adv-x="706" 
d="M678 952v-118h-98v-160h-136v160h-397v118l369 496h164v-496h98zM188 952h256v342z" />
    <glyph glyph-name="five.numr" horiz-adv-x="684" 
d="M375 1165q118 0 188 -64.5t70 -178.5q0 -122 -79 -192.5t-218 -70.5q-174 0 -285 117l80 96q84 -84 199 -84q74 0 115.5 35.5t41.5 98.5q0 59 -38.5 93t-104.5 34q-77 0 -141 -52l-103 52v399h484v-127h-351v-191q60 35 142 35z" />
    <glyph glyph-name="six.numr" horiz-adv-x="696" 
d="M373 1200q119 0 197.5 -72.5t78.5 -191.5q0 -123 -83 -200t-214 -77q-132 0 -214.5 77.5t-82.5 205.5q0 140 109 283l170 223h168l-201 -258q29 10 72 10zM352 786q71 0 113.5 40.5t42.5 109.5q0 67 -42.5 106t-113.5 39t-113 -39t-42 -106q0 -69 42 -109.5t113 -40.5z
" />
    <glyph glyph-name="seven.numr" horiz-adv-x="612" 
d="M33 1448h547v-117l-316 -657h-162l318 641h-387v133z" />
    <glyph glyph-name="eight.numr" horiz-adv-x="718" 
d="M512 1071q147 -51 147 -188q0 -100 -79.5 -162t-219.5 -62q-142 0 -221.5 61.5t-79.5 162.5q0 136 150 188q-127 50 -127 176q0 93 74 154t204 61t203.5 -61t73.5 -154q0 -60 -32 -105.5t-93 -70.5zM360 1348q-68 0 -103.5 -30.5t-35.5 -82.5t35.5 -81.5t103.5 -29.5
t103 29.5t35 81.5t-35.5 82.5t-102.5 30.5zM360 780q74 0 114 31t40 84q0 54 -40 85.5t-114 31.5q-76 0 -115.5 -31.5t-39.5 -85.5t39.5 -84.5t115.5 -30.5z" />
    <glyph glyph-name="nine.numr" horiz-adv-x="692" 
d="M344 1462q131 0 214 -77.5t83 -204.5q0 -136 -109 -283l-170 -223h-169l202 258q-29 -10 -71 -10q-120 0 -198.5 72.5t-78.5 191.5q0 123 83 199.5t214 76.5zM344 1040q71 0 113.5 39.5t42.5 106.5q0 69 -42.5 109t-113.5 40t-113.5 -40t-42.5 -109q0 -67 42.5 -106.5
t113.5 -39.5z" />
    <glyph glyph-name="zero.sups" horiz-adv-x="782" 
d="M391 713q-148 0 -232.5 103.5t-84.5 297.5t84.5 298t232.5 104q147 0 232.5 -104.5t85.5 -297.5t-85.5 -297t-232.5 -104zM391 844q85 0 128.5 64t43.5 206t-43.5 206t-128.5 64q-86 0 -129 -64t-43 -206t43 -206t129 -64z" />
    <glyph glyph-name="one.sups" horiz-adv-x="495" 
d="M264 1501h123v-774h-141v627l-191 -97v138z" />
    <glyph glyph-name="two.sups" horiz-adv-x="675" 
d="M274 860h347v-133h-560v107l287 270q65 59 92 100.5t27 79.5q0 44 -32.5 72t-84.5 28q-56 0 -103 -34.5t-77 -102.5l-115 66q36 93 114.5 148t180.5 55q114 0 188 -66t74 -162q0 -114 -131 -233z" />
    <glyph glyph-name="three.sups" horiz-adv-x="659" 
d="M461 1120q69 -21 105 -68.5t36 -113.5q0 -102 -76.5 -163.5t-206.5 -61.5q-179 0 -280 116l80 99q78 -84 194 -84q69 0 106.5 29.5t37.5 76.5q0 105 -156 105h-78v129h82q70 0 107 25.5t37 72.5t-32 74.5t-91 27.5q-55 0 -105 -24.5t-84 -67.5l-94 90q48 63 122 98.5
t161 35.5q126 0 197 -59t71 -159q0 -141 -133 -178z" />
    <glyph glyph-name="four.sups" horiz-adv-x="706" 
d="M678 1006v-119h-98v-160h-136v160h-397v119l369 495h164v-495h98zM188 1006h256v342z" />
    <glyph glyph-name="five.sups" horiz-adv-x="684" 
d="M375 1219q118 0 188 -65t70 -179q0 -122 -79 -192t-218 -70q-175 0 -285 116l80 97q84 -84 199 -84q74 0 115.5 35t41.5 98q0 59 -38.5 93t-104.5 34q-78 0 -141 -51l-103 51v399h484v-127h-351v-190q60 35 142 35z" />
    <glyph glyph-name="six.sups" horiz-adv-x="696" 
d="M373 1253q119 0 197.5 -72.5t78.5 -191.5q0 -123 -83 -199.5t-214 -76.5q-132 0 -214.5 77t-82.5 205q0 140 109 283l170 223h168l-201 -258q29 10 72 10zM352 840q71 0 113.5 40t42.5 109q0 67 -42.5 106.5t-113.5 39.5t-113 -39.5t-42 -106.5q0 -69 42 -109t113 -40z
" />
    <glyph glyph-name="seven.sups" horiz-adv-x="612" 
d="M33 1501h547v-117l-316 -657h-162l318 641h-387v133z" />
    <glyph glyph-name="eight.sups" horiz-adv-x="718" 
d="M512 1124q147 -51 147 -188q0 -100 -79.5 -161.5t-219.5 -61.5q-142 0 -221.5 61.5t-79.5 161.5q0 136 150 188q-127 50 -127 176q0 93 74 154.5t204 61.5t203.5 -61.5t73.5 -154.5q0 -60 -32 -105.5t-93 -70.5zM360 1401q-68 0 -103.5 -30.5t-35.5 -82.5t35.5 -81
t103.5 -29t103 29t35 81t-35.5 82.5t-102.5 30.5zM360 834q74 0 114 30.5t40 83.5q0 54 -40 85.5t-114 31.5q-76 0 -115.5 -31.5t-39.5 -85.5t39.5 -84t115.5 -30z" />
    <glyph glyph-name="nine.sups" horiz-adv-x="692" 
d="M344 1516q131 0 214 -77.5t83 -205.5q0 -136 -109 -283l-170 -223h-169l202 258q-29 -10 -71 -10q-120 0 -198.5 72.5t-78.5 191.5q0 123 83 200t214 77zM344 1094q71 0 113.5 39t42.5 106q0 69 -42.5 109.5t-113.5 40.5t-113.5 -40.5t-42.5 -109.5q0 -67 42.5 -106
t113.5 -39z" />
    <glyph glyph-name="colon.case" horiz-adv-x="518" 
d="M264 971q-55 0 -87 33t-32 88q0 52 32 84t87 32q53 0 85 -32t32 -84q0 -54 -31.5 -87.5t-85.5 -33.5zM264 197q-55 0 -87 33t-32 87q0 52 32 84.5t87 32.5q53 0 85 -32.5t32 -84.5q0 -54 -31.5 -87t-85.5 -33z" />
    <glyph glyph-name="exclamdown.case" horiz-adv-x="589" 
d="M295 1450q55 0 87 -34t32 -87q0 -52 -32 -84.5t-87 -32.5q-53 0 -86 33t-33 84q0 53 33 87t86 34zM229 995h133l23 -995h-180z" />
    <glyph glyph-name="questiondown.case" horiz-adv-x="962" 
d="M528 1450q53 0 86 -34t33 -87q0 -51 -32.5 -84t-86.5 -33q-55 0 -86.5 32.5t-31.5 84.5q0 54 32 87.5t86 33.5zM610 995v-98q0 -102 -31 -164t-124 -139l-101 -84q-110 -92 -110 -191q0 -89 60.5 -139.5t162.5 -50.5q100 0 185 52.5t139 148.5l129 -88
q-58 -123 -179.5 -197t-273.5 -74q-177 0 -286 95.5t-109 246.5q0 83 41.5 157t142.5 159l100 84q57 47 73.5 81.5t16.5 102.5v98h164z" />
    <glyph glyph-name="periodcentered.case" horiz-adv-x="507" 
d="M254 621q-55 0 -87 33t-32 87q0 52 32 84.5t87 32.5q53 0 85 -32.5t32 -84.5q0 -54 -31.5 -87t-85.5 -33z" />
    <glyph glyph-name="bullet.case" horiz-adv-x="1052" 
d="M526 440q-127 0 -212 85.5t-85 211.5t85 211.5t212 85.5t213 -85.5t86 -211.5t-86 -211.5t-213 -85.5z" />
    <glyph glyph-name="parenleft.case" horiz-adv-x="655" 
d="M465 -182q-153 182 -236.5 417t-83.5 482t83.5 482t236.5 417l129 -94q-121 -144 -199 -364.5t-78 -440.5t78 -440.5t199 -364.5z" />
    <glyph glyph-name="parenright.case" horiz-adv-x="655" 
d="M190 -182l-127 94q120 145 198.5 365.5t78.5 439.5t-78.5 439.5t-198.5 365.5l127 94q153 -182 236.5 -417t83.5 -482t-83.5 -482t-236.5 -417z" />
    <glyph glyph-name="braceleft.case" horiz-adv-x="737" 
d="M401 928q0 -165 -147 -211q147 -46 147 -211v-406q0 -65 30 -94t93 -29h142v-137h-154q-140 0 -205 61.5t-65 198.5v426q0 63 -32 93t-101 30h-25v135h25q69 0 101 30t32 93v426q0 137 65 198.5t205 61.5h154v-137h-142q-63 0 -93 -29t-30 -94v-405z" />
    <glyph glyph-name="braceright.case" horiz-adv-x="737" 
d="M631 784h22v-135h-22q-69 0 -101 -30t-32 -93v-426q0 -137 -66 -198.5t-207 -61.5h-153v137h141q63 0 93 29t30 94v406q0 164 147 211q-147 47 -147 211v405q0 65 -30 94t-93 29h-141v137h153q141 0 207 -61.5t66 -198.5v-426q0 -63 32 -93t101 -30z" />
    <glyph glyph-name="bracketleft.case" horiz-adv-x="753" 
d="M682 1456h-307v-1479h307v-137h-467v1753h467v-137z" />
    <glyph glyph-name="bracketright.case" horiz-adv-x="753" 
d="M72 1593h467v-1753h-467v137h307v1479h-307v137z" />
    <glyph glyph-name="hyphen.case" horiz-adv-x="821" 
d="M115 657v152h592v-152h-592z" />
    <glyph glyph-name="endash.case" horiz-adv-x="1251" 
d="M115 664v141h1024v-141h-1024z" />
    <glyph glyph-name="emdash.case" horiz-adv-x="2275" 
d="M115 664v139h2048v-139h-2048z" />
    <glyph glyph-name="guillemotleft.case" horiz-adv-x="1101" 
d="M573 1171l-305 -438l305 -436h-184l-307 436l307 438h184zM1008 1171l-303 -438l303 -436h-183l-307 436l307 438h183z" />
    <glyph glyph-name="guillemotright.case" horiz-adv-x="1101" 
d="M276 1171l308 -438l-308 -436h-182l303 436l-303 438h182zM713 1171l307 -438l-307 -436h-185l306 436l-306 438h185z" />
    <glyph glyph-name="guilsinglleft.case" horiz-adv-x="665" 
d="M573 1171l-305 -438l305 -436h-184l-307 436l307 438h184z" />
    <glyph glyph-name="guilsinglright.case" horiz-adv-x="665" 
d="M276 1171l308 -438l-308 -436h-182l303 436l-303 438h182z" />
    <glyph glyph-name="cent.tf" 
d="M836 326q170 15 262 161l127 -90q-58 -99 -159.5 -157.5t-229.5 -67.5v-172h-117v174q-207 23 -333 172.5t-126 370.5t126 370.5t333 172.5v174h117v-172q128 -9 229.5 -68t159.5 -158l-127 -90q-92 147 -262 162v-782zM428 717q0 -156 79 -260t212 -127v774
q-133 -23 -212 -127t-79 -260z" />
    <glyph glyph-name="currency.tf" 
d="M1006 717q0 -128 -68 -232l152 -151l-95 -94l-149 149q-101 -72 -234 -72t-231 72l-150 -149l-96 94l154 151q-68 104 -68 232q0 125 68 229l-154 152l96 94l150 -148q103 70 231 70q133 0 234 -72l149 150l95 -94l-152 -152q68 -104 68 -229zM612 467q109 0 175.5 69
t66.5 181q0 111 -67 180.5t-175 69.5q-107 0 -173 -69.5t-66 -180.5q0 -112 66 -181t173 -69z" />
    <glyph glyph-name="dollar.tf" 
d="M1239 416q0 -164 -116 -267.5t-324 -115.5v-135h-119v135q-171 13 -290.5 92.5t-174.5 210.5l129 78q45 -99 131.5 -157.5t204.5 -72.5v484l-57 12q-369 88 -369 352q0 154 114.5 255.5t311.5 113.5v135h119v-135q150 -13 256.5 -77.5t150.5 -162.5l-123 -82
q-86 145 -284 170v-458l82 -21q186 -43 272 -131t86 -223zM666 821l14 -4v434q-125 -8 -192.5 -64t-67.5 -153q0 -81 57 -131t189 -82zM799 182q128 9 199 71t71 161q0 83 -56.5 136t-183.5 83l-30 6v-457z" />
    <glyph glyph-name="Euro.tf" 
d="M868 123q102 0 182 65.5t121 182.5l140 -62q-59 -163 -178.5 -250.5t-268.5 -87.5q-195 0 -338 144t-190 387h-180v123h163q-4 62 -4 92t4 92h-163v123h180q47 243 190 386.5t338 143.5q149 0 268.5 -87.5t178.5 -250.5l-140 -61q-41 117 -121 182.5t-182 65.5
q-129 0 -225.5 -100.5t-134.5 -278.5h502v-123h-518q-5 -72 -5 -92q0 -19 5 -92h518v-123h-502q38 -178 134.5 -278.5t225.5 -100.5z" />
    <glyph glyph-name="florin.tf" 
d="M1077 1282q-90 0 -132 -39t-62 -139l-45 -234h272v-135h-297l-145 -764q-26 -137 -107 -197.5t-239 -60.5h-70v152h70q91 0 132.5 38.5t61.5 139.5l131 692h-260v135h287l57 306q26 137 107 197.5t239 60.5h70v-152h-70z" />
    <glyph glyph-name="sterling.tf" 
d="M563 639v-483h670v-156h-989v156h151v483h-162v135h162v264q0 197 110 310.5t306 113.5q138 0 246.5 -60.5t175.5 -178.5l-131 -84q-98 170 -291 170q-122 0 -185 -71.5t-63 -207.5v-256h504v-135h-504z" />
    <glyph glyph-name="yen.tf" 
d="M1303 1434l-429 -732h308v-120h-371v-187h371v-121h-371v-274h-168v274h-369v121h369v187h-369v120h306l-428 732h184l391 -684l391 684h185z" />
    <glyph glyph-name="plus.tf" 
d="M1176 788v-143h-373v-397h-152v397h-372v143h372v398h152v-398h373z" />
    <glyph glyph-name="minus.tf" 
d="M279 645v143h897v-143h-897z" />
    <glyph glyph-name="multiply.tf" 
d="M1139 1032l-316 -315l316 -316l-97 -96l-315 316l-315 -316l-97 96l316 316l-316 315l97 96l315 -315l315 315z" />
    <glyph glyph-name="divide.tf" 
d="M727 961q-51 0 -83 32t-32 82t32 82.5t83 32.5t83 -32.5t32 -82.5t-32 -82t-83 -32zM279 645v143h897v-143h-897zM727 244q-51 0 -83 32t-32 82t32 82.5t83 32.5t83 -32.5t32 -82.5t-32 -82t-83 -32z" />
    <glyph glyph-name="equal.tf" 
d="M279 850v145h897v-145h-897zM279 438v146h897v-146h-897z" />
    <glyph glyph-name="notequal.tf" 
d="M1176 850h-318l-129 -266h447v-146h-517l-131 -272h-133l131 272h-247v146h317l129 266h-446v145h516l131 273h133l-131 -273h248v-145z" />
    <glyph glyph-name="greater.tf" 
d="M279 1153l897 -358v-156l-897 -358v159l710 277l-710 276v160z" />
    <glyph glyph-name="less.tf" 
d="M1176 1153v-160l-711 -276l711 -277v-159l-897 358v156z" />
    <glyph glyph-name="greaterequal.tf" 
d="M279 1284l897 -354v-158l-897 -354v155l718 279l-718 276v156zM279 152v145h897v-145h-897z" />
    <glyph glyph-name="lessequal.tf" 
d="M1176 1282v-156l-719 -276l719 -279v-155l-897 354v158zM279 150v145h897v-145h-897z" />
    <glyph glyph-name="plusminus.tf" 
d="M803 946h373v-145h-373v-375h-152v375h-372v145h372v375h152v-375zM279 115v145h897v-145h-897z" />
    <glyph glyph-name="approxequal.tf" 
d="M940 809q-73 0 -212.5 44t-213.5 44q-112 0 -235 -86v145q112 82 239 82q71 0 212 -44t208 -44q64 0 128.5 23.5t109.5 62.5v-145q-116 -82 -236 -82zM940 399q-74 0 -213 43t-213 43q-111 0 -235 -84v146q112 82 239 82q71 0 212 -44t208 -44q64 0 128.5 23.5
t109.5 62.5v-146q-116 -82 -236 -82z" />
    <glyph glyph-name="logicalnot.tf" 
d="M279 899h897v-362h-152v217h-745v145z" />
    <glyph glyph-name="asciitilde.tf" 
d="M940 604q-73 0 -212.5 44t-213.5 44q-111 0 -235 -84v144q115 84 239 84q71 0 212 -44t208 -44q64 0 128.5 23t109.5 60v-143q-115 -84 -236 -84z" />
    <glyph glyph-name="at.case" horiz-adv-x="1730" 
d="M1057 1044h135v-423q0 -72 28 -110t78 -38q74 0 121 79t47 214q0 173 -74.5 301.5t-203 194t-293.5 65.5q-266 0 -438 -172.5t-172 -441.5q0 -273 171.5 -441t448.5 -168q197 0 336 78l59 -114q-166 -99 -397 -99q-218 0 -392.5 93.5t-274 263.5t-99.5 385
q0 162 59.5 303.5t160.5 239.5t240 154t294 56q146 0 277 -50t228.5 -137.5t154.5 -216.5t57 -278q0 -191 -89 -309.5t-223 -118.5q-79 0 -138 43.5t-79 124.5q-27 -82 -91 -125t-152 -43q-134 0 -222 100t-88 257t87.5 256.5t222.5 99.5q76 0 134 -35t87 -102v114zM866 487
q85 0 138 60t53 164t-53 163.5t-138 59.5q-82 0 -136 -59.5t-54 -163.5t53 -164t137 -60z" />
    </font>
</defs>
</svg>
