<?xml version="1.0" standalone="no"?>
<!DOCTYPE svg PUBLIC "-//W3C//DTD SVG 1.1//EN" "http://www.w3.org/Graphics/SVG/1.1/DTD/svg11.dtd" >
<svg xmlns="http://www.w3.org/2000/svg" xmlns:xlink="http://www.w3.org/1999/xlink" version="1.1">
<metadata>
Created by FontForge 20170731 at Wed Feb 17 23:23:57 2021
 By Aleksey,,,
Copyright (c) by Christoph York . All rights reserved. Modification of this file requires prior written permission from Brink Type.
</metadata>
<defs>
<font id="Segma-RegularItalic" horiz-adv-x="1454" >
  <font-face 
    font-family="Segma"
    font-weight="400"
    font-style="italic"
    font-stretch="normal"
    units-per-em="2048"
    panose-1="0 0 5 0 0 0 0 0 0 0"
    ascent="1556"
    descent="-492"
    x-height="1036"
    cap-height="1434"
    bbox="-1006 -516 2599 2058"
    underline-thickness="102"
    underline-position="-450"
    slope="-8"
    unicode-range="U+000D-2B51"
  />
<missing-glyph horiz-adv-x="1611" 
d="M143 0l201 1434h1180l-201 -1434h-1180zM709 543h155l8 57q6 41 20 61t54 50l66 49q75 56 114 114.5t39 129.5q0 93 -65.5 148.5t-177.5 55.5q-110 0 -200.5 -51.5t-141.5 -138.5l106 -80q92 123 213 123q48 0 76.5 -20.5t28.5 -57.5q0 -39 -20.5 -67t-57.5 -56l-74 -53
q-72 -53 -97 -92t-36 -109zM741 215q54 0 87.5 37.5t33.5 85.5q0 41 -25.5 65.5t-66.5 24.5q-54 0 -87.5 -37.5t-33.5 -85.5q0 -41 25.5 -65.5t66.5 -24.5z" />
    <glyph glyph-name=".notdef" horiz-adv-x="1611" 
d="M143 0l201 1434h1180l-201 -1434h-1180zM709 543h155l8 57q6 41 20 61t54 50l66 49q75 56 114 114.5t39 129.5q0 93 -65.5 148.5t-177.5 55.5q-110 0 -200.5 -51.5t-141.5 -138.5l106 -80q92 123 213 123q48 0 76.5 -20.5t28.5 -57.5q0 -39 -20.5 -67t-57.5 -56l-74 -53
q-72 -53 -97 -92t-36 -109zM741 215q54 0 87.5 37.5t33.5 85.5q0 41 -25.5 65.5t-66.5 24.5q-54 0 -87.5 -37.5t-33.5 -85.5q0 -41 25.5 -65.5t66.5 -24.5z" />
    <glyph glyph-name=".null" horiz-adv-x="0" 
 />
    <glyph glyph-name="nonmarkingreturn" horiz-adv-x="682" 
 />
    <glyph glyph-name="CR" unicode="&#xd;" horiz-adv-x="473" 
 />
    <glyph glyph-name="space" unicode=" " horiz-adv-x="473" 
 />
    <glyph glyph-name="exclam" unicode="!" horiz-adv-x="589" 
d="M217 438l117 996h180l-164 -996h-133zM227 -16q-56 0 -85 36t-21 95q6 47 40 76.5t85 29.5q56 0 85 -35.5t23 -91.5q-6 -48 -40.5 -79t-86.5 -31z" />
    <glyph glyph-name="quotedbl" unicode="&#x22;" horiz-adv-x="745" 
d="M201 911l47 551h178l-109 -551h-116zM539 911l47 551h178l-109 -551h-116z" />
    <glyph glyph-name="numbersign" unicode="#" horiz-adv-x="1445" 
d="M1393 885h-248l-115 -336h230l-19 -131h-254l-131 -387h-149l131 387h-375l-131 -387h-150l131 387h-223l19 131h247l115 336h-229l18 131h254l131 387h150l-131 -387h374l131 387h150l-131 -387h223zM881 549l114 336h-374l-115 -336h375z" />
    <glyph glyph-name="dollar" unicode="$" horiz-adv-x="1230" 
d="M805 770q311 -76 311 -309q0 -88 -37.5 -170t-103.5 -139q-138 -112 -359 -121l-18 -133h-117l19 137q-163 15 -271 93t-151 208l139 78q69 -206 305 -230l68 484l-55 12q-324 79 -324 315q0 100 49 185.5t135 138.5q120 75 299 84l19 133h116l-18 -137
q139 -13 236.5 -77t138.5 -161l-135 -82q-65 145 -263 170l-63 -458zM596 821l14 -4l62 434q-131 -10 -203 -65q-90 -70 -90 -182q0 -68 50.5 -111t166.5 -72zM860 264q84 68 84 182q0 69 -49.5 114.5t-159.5 72.5l-33 8l-63 -459q136 9 221 82z" />
    <glyph glyph-name="percent" unicode="%" horiz-adv-x="1730" 
d="M477 737q-141 0 -233 88.5t-92 223.5q0 109 52.5 204t145.5 152t203 57q140 0 233 -88t93 -223q0 -167 -118 -290.5t-284 -123.5zM184 0l1254 1434h164l-1254 -1434h-164zM481 864q115 0 186.5 81.5t71.5 195.5q0 90 -50.5 142t-139.5 52q-116 0 -187 -82.5t-71 -197.5
q0 -87 51 -139t139 -52zM1235 -29q-141 0 -233.5 88.5t-92.5 223.5q0 168 117.5 290.5t284.5 122.5q140 0 233.5 -89t93.5 -222q0 -167 -118.5 -290.5t-284.5 -123.5zM1239 98q115 0 186.5 81.5t71.5 195.5q0 90 -50.5 142t-139.5 52q-116 0 -187 -82.5t-71 -197.5
q0 -87 51 -139t139 -52z" />
    <glyph glyph-name="ampersand" unicode="&#x26;" horiz-adv-x="1370" 
d="M1245 0h-192l-111 152q-190 -181 -436 -181q-182 0 -296 97t-114 249q0 74 27.5 140.5t78.5 122t113 100t142 86.5l20 12l-2 2q-137 188 -137 320q0 157 117 259.5t288 102.5q147 0 243.5 -81t96.5 -207q0 -235 -297 -392l-84 -45l254 -344q81 127 125 293h154
q-67 -243 -188 -416zM743 1313q-101 0 -172 -59.5t-71 -145.5q0 -97 90 -217l33 -45l108 59q191 101 191 250q0 74 -49 116t-130 42zM272 330q0 -96 64.5 -151.5t177.5 -55.5q189 0 338 143l-295 402l-20 -11q-131 -71 -198 -146.5t-67 -180.5z" />
    <glyph glyph-name="quotesingle" unicode="'" horiz-adv-x="407" 
d="M201 911l47 551h178l-109 -551h-116z" />
    <glyph glyph-name="parenleft" unicode="(" horiz-adv-x="655" 
d="M356 -260q-101 146 -155 326.5t-54 373.5q0 298 122 589t335 509l119 -98q-180 -185 -292 -456t-112 -533q0 -179 44 -342.5t124 -282.5z" />
    <glyph glyph-name="parenright" unicode=")" horiz-adv-x="657" 
d="M334 1538q101 -146 155 -326.5t54 -373.5q0 -298 -122 -589t-335 -509l-119 98q181 185 293.5 456.5t112.5 532.5q0 178 -44.5 341.5t-123.5 283.5z" />
    <glyph glyph-name="asterisk" unicode="*" horiz-adv-x="901" 
d="M309 721l-100 80l221 243l-280 86l57 127l278 -102l35 307h133l-51 -305l299 100l25 -127l-305 -88l153 -241l-117 -80l-141 256z" />
    <glyph glyph-name="plus" unicode="+" 
d="M1204 721l-18 -143h-373l-55 -398h-152l56 398h-375l18 143h377l55 397h152l-55 -397h370z" />
    <glyph glyph-name="comma" unicode="," horiz-adv-x="489" 
d="M-23 -305l177 551h174l-219 -551h-132z" />
    <glyph glyph-name="hyphen" unicode="-" horiz-adv-x="821" 
d="M115 520l20 152h594l-22 -152h-592z" />
    <glyph glyph-name="period" unicode="." horiz-adv-x="507" 
d="M186 -16q-58 0 -86.5 36t-19.5 95q6 47 39.5 76.5t83.5 29.5q58 0 87 -35.5t21 -91.5q-5 -48 -39.5 -79t-85.5 -31z" />
    <glyph glyph-name="slash" unicode="/" horiz-adv-x="962" 
d="M-78 -193l998 1709h161l-997 -1709h-162z" />
    <glyph glyph-name="zero" unicode="0" horiz-adv-x="1437" 
d="M647 -29q-230 0 -358.5 149t-128.5 419q0 193 59.5 389.5t169.5 320.5q179 213 457 213q229 0 358 -148.5t129 -420.5q0 -231 -79 -447t-226 -340q-163 -135 -381 -135zM657 127q165 0 285 111q108 103 162.5 289.5t54.5 375.5q0 404 -321 404q-209 0 -334 -168
q-84 -110 -126 -277.5t-42 -331.5q0 -403 321 -403z" />
    <glyph glyph-name="one" unicode="1" horiz-adv-x="882" 
d="M645 1434h139l-202 -1434h-168l176 1253l-412 -198l23 166z" />
    <glyph glyph-name="two" unicode="2" horiz-adv-x="1196" 
d="M795 575l-510 -419h753l-24 -156h-994l21 143l598 496q165 135 247.5 241.5t82.5 223.5q0 100 -61 152.5t-175 52.5q-249 0 -438 -269l-121 88q102 164 246.5 249t314.5 85q184 0 295 -97t111 -257q0 -144 -88.5 -269t-257.5 -264z" />
    <glyph glyph-name="three" unicode="3" horiz-adv-x="1161" 
d="M817 727q108 -35 165.5 -109t57.5 -174q0 -102 -48 -198.5t-130 -159.5q-146 -115 -381 -115q-148 0 -268.5 53.5t-194.5 155.5l115 107q67 -79 159.5 -120.5t196.5 -41.5q174 0 283 98q96 81 96 219q0 213 -350 213h-123l21 146h166q186 0 280 94q82 82 82 205
q0 99 -65 154t-193 55q-220 0 -397 -191l-109 103q208 241 516 241q191 0 305.5 -93.5t114.5 -246.5q0 -86 -34 -167t-95 -136q-68 -65 -170 -92z" />
    <glyph glyph-name="four" unicode="4" horiz-adv-x="1271" 
d="M1223 465l-21 -146h-219l-45 -319h-158l45 319h-770l19 142l850 973h217l-137 -969h219zM258 465h588l112 799z" />
    <glyph glyph-name="five" unicode="5" horiz-adv-x="1198" 
d="M1130 1280h-690l-65 -473q136 80 297 80q192 0 310 -102.5t118 -278.5q0 -118 -54 -229.5t-147 -184.5q-155 -121 -389 -121q-302 0 -459 207l109 107q142 -160 354 -160q178 0 291 96q59 50 91 123t32 154q0 112 -71.5 174.5t-205.5 62.5q-174 0 -323 -100l-127 82
l100 717h850z" />
    <glyph glyph-name="six" unicode="6" horiz-adv-x="1247" 
d="M733 965q185 0 308.5 -118.5t123.5 -307.5q0 -123 -54.5 -239t-149.5 -194q-166 -135 -398 -135q-208 0 -336.5 118t-128.5 317q0 173 105 358q78 135 190 256l371 414h209l-504 -543q121 74 264 74zM866 227q59 56 92 138.5t33 169.5q0 133 -79.5 206.5t-225.5 73.5
q-213 0 -332 -147q-84 -112 -84 -267q0 -131 80.5 -204.5t224.5 -73.5q174 0 291 104z" />
    <glyph glyph-name="seven" unicode="7" horiz-adv-x="1071" 
d="M182 1434h965l-21 -146l-802 -1288h-183l803 1280h-782z" />
    <glyph glyph-name="eight" unicode="8" horiz-adv-x="1290" 
d="M924 733q113 -41 172 -119.5t59 -183.5q0 -100 -50 -191.5t-134 -152.5q-153 -115 -396 -115q-225 0 -351 100.5t-126 258.5q0 94 41 178t115 143q80 60 174 88q-93 40 -142.5 111.5t-49.5 167.5q0 88 37.5 171.5t103.5 141.5q147 131 393 131q207 0 323.5 -96
t116.5 -248q0 -88 -37.5 -168t-105.5 -137q-63 -51 -143 -80zM489 1219q-83 -74 -83 -203q0 -98 68.5 -153.5t205.5 -55.5q176 0 276 94q82 76 82 201q0 98 -68.5 153.5t-205.5 55.5q-172 0 -275 -92zM877 215q104 84 104 219q0 102 -77 162.5t-230 60.5q-200 0 -309 -100
q-93 -83 -93 -207q0 -104 77 -164.5t231 -60.5q186 0 297 90z" />
    <glyph glyph-name="nine" unicode="9" horiz-adv-x="1247" 
d="M739 1462q206 0 335.5 -115.5t129.5 -310.5q0 -179 -104 -366q-71 -127 -191 -256l-370 -414h-207l512 551q-125 -82 -271 -82q-186 0 -311 117.5t-125 306.5q0 124 57 242.5t154 195.5q162 131 391 131zM922 739q112 115 112 293q0 131 -80.5 205t-224.5 74
q-181 0 -293 -109q-125 -112 -125 -305q0 -133 78 -206t223 -73q192 0 310 121z" />
    <glyph glyph-name="colon" unicode=":" horiz-adv-x="518" 
d="M305 758q-57 0 -86 36t-20 95q6 47 40 76.5t85 29.5q56 0 85 -35.5t23 -91.5q-6 -48 -40.5 -79t-86.5 -31zM197 -16q-58 0 -87 36t-20 95q6 47 39.5 76.5t83.5 29.5q58 0 87.5 -35.5t21.5 -91.5q-5 -48 -39.5 -79t-85.5 -31z" />
    <glyph glyph-name="semicolon" unicode=";" horiz-adv-x="501" 
d="M303 758q-58 0 -86.5 36t-19.5 95q5 46 38.5 76t83.5 30q58 0 87.5 -35.5t21.5 -91.5q-6 -48 -40.5 -79t-84.5 -31zM-23 -305l177 551h174l-219 -551h-132z" />
    <glyph glyph-name="less" unicode="&#x3c;" 
d="M1255 1085l-20 -163l-752 -277l672 -276l-20 -156l-848 358l18 156z" />
    <glyph glyph-name="equal" unicode="=" 
d="M315 782l19 146h899l-19 -146h-899zM258 371l18 145h900l-19 -145h-899z" />
    <glyph glyph-name="greater" unicode="&#x3e;" 
d="M356 1085l848 -358l-18 -156l-950 -358l20 164l752 276l-672 277z" />
    <glyph glyph-name="question" unicode="?" horiz-adv-x="962" 
d="M340 438l14 99q14 102 53.5 163.5t143.5 139.5l113 84q141 101 141 223q0 74 -51.5 116t-143.5 42q-100 0 -192 -52t-164 -149l-113 88q70 123 198 196.5t279 73.5q162 0 260.5 -81.5t98.5 -211.5q0 -75 -30.5 -141.5t-78 -117t-120.5 -105.5l-113 -84q-64 -48 -86 -82.5
t-31 -101.5l-14 -99h-164zM367 -16q-58 0 -87 36t-20 95q5 46 39 76t84 30q58 0 87.5 -35.5t21.5 -91.5q-6 -48 -40.5 -79t-84.5 -31z" />
    <glyph glyph-name="at" unicode="@" horiz-adv-x="1966" 
d="M1118 1335q211 0 380.5 -83.5t267.5 -239.5t98 -357q0 -116 -30.5 -226.5t-84.5 -197.5t-136 -140.5t-177 -53.5q-92 0 -156.5 54.5t-71.5 154.5q-43 -99 -129.5 -154t-191.5 -55q-141 0 -228.5 96.5t-87.5 251.5q0 131 54 244t154 182.5t222 69.5q93 0 160 -48t88 -135
l23 154h139l-72 -510q-24 -184 105 -184q65 0 118 45t86 117.5t50.5 156.5t17.5 168q0 173 -78 299t-212 189t-308 63q-166 0 -314 -57t-265 -162q-131 -121 -203 -288.5t-72 -348.5q0 -276 176.5 -441t474.5 -165q238 0 424 94l54 -115q-97 -54 -225 -84t-263 -30
q-174 0 -321.5 53.5t-251 149t-161.5 231.5t-58 297q0 209 87 408t244 339q135 123 309 190.5t365 67.5zM924 176q131 0 213 100t82 244q0 105 -52.5 163t-144.5 58q-131 0 -212 -101t-81 -247q0 -103 52 -160t143 -57z" />
    <glyph glyph-name="A" unicode="A" 
d="M1161 0l-102 393h-692l-213 -393h-183l789 1434h190l383 -1434h-172zM451 549h569l-184 713z" />
    <glyph glyph-name="B" unicode="B" horiz-adv-x="1439" 
d="M1049 741q120 -29 184.5 -105t64.5 -190q0 -103 -42 -192t-121 -150q-135 -104 -347 -104h-647l203 1434h576q197 0 308 -85t111 -229q0 -98 -42.5 -180.5t-120.5 -138.5q-59 -40 -127 -60zM915 1278h-421l-66 -467h422q140 0 221 68q45 39 67.5 96.5t22.5 116.5
q0 186 -246 186zM1026 225q47 41 70.5 103t23.5 129q0 95 -61.5 146.5t-181.5 51.5h-471l-70 -499h471q137 0 219 69z" />
    <glyph glyph-name="C" unicode="C" horiz-adv-x="1558" 
d="M776 -29q-189 0 -331.5 81t-217.5 222.5t-75 321.5q0 207 95 396.5t259 312.5q219 157 483 157q203 0 352.5 -94.5t212.5 -273.5l-145 -82q-111 291 -428 291q-223 0 -391 -136q-125 -98 -191.5 -246.5t-66.5 -314.5q0 -216 121.5 -345.5t337.5 -129.5q159 0 296.5 73
t233.5 218l135 -82q-114 -179 -295 -274t-385 -95z" />
    <glyph glyph-name="D" unicode="D" horiz-adv-x="1570" 
d="M856 1434q284 0 451.5 -154.5t167.5 -427.5q0 -173 -61.5 -340.5t-174.5 -284.5q-107 -110 -255 -168.5t-318 -58.5h-525l203 1434h512zM1128 350q81 93 123.5 225.5t42.5 266.5q0 432 -450 432h-350l-156 -1114h332q289 0 458 190z" />
    <glyph glyph-name="E" unicode="E" horiz-adv-x="1366" 
d="M1298 1276h-806l-64 -475h764l-25 -156h-764l-65 -487h825l-24 -158h-998l203 1434h977z" />
    <glyph glyph-name="F" unicode="F" horiz-adv-x="1308" 
d="M1294 1276h-802l-66 -481h762l-23 -160h-762l-90 -635h-172l203 1434h973z" />
    <glyph glyph-name="G" unicode="G" horiz-adv-x="1603" 
d="M920 604l22 158h551l-80 -563q-94 -106 -250.5 -167t-341.5 -61q-313 0 -491 169.5t-178 449.5q0 182 70 355.5t196 291.5q111 108 255 166.5t308 58.5q185 0 327.5 -73.5t213.5 -204.5l-144 -94q-110 213 -395 213q-134 0 -251.5 -49t-205.5 -140q-95 -96 -145.5 -234.5
t-50.5 -279.5q0 -222 131.5 -345.5t365.5 -123.5q129 0 244 37.5t184 97.5l48 338h-383z" />
    <glyph glyph-name="H" unicode="H" horiz-adv-x="1605" 
d="M1348 1434h172l-203 -1434h-172l92 655h-831l-93 -655h-172l203 1434h172l-88 -619h832z" />
    <glyph glyph-name="I" unicode="I" horiz-adv-x="610" 
d="M145 0l203 1434h172l-203 -1434h-172z" />
    <glyph glyph-name="J" unicode="J" horiz-adv-x="1206" 
d="M432 -29q-139 0 -249.5 53t-178.5 152l125 107q103 -152 307 -152q163 0 271 102t135 295l127 906h172l-131 -926q-35 -250 -189.5 -393.5t-388.5 -143.5z" />
    <glyph glyph-name="K" unicode="K" horiz-adv-x="1419" 
d="M1493 1434l-690 -621l516 -813h-203l-442 696l-301 -270l-60 -426h-172l203 1434h172l-110 -779l866 779h221z" />
    <glyph glyph-name="L" unicode="L" horiz-adv-x="1220" 
d="M338 160h766l-25 -160h-938l203 1434h172z" />
    <glyph glyph-name="M" unicode="M" horiz-adv-x="1918" 
d="M1645 1434h188l-203 -1434h-166l166 1167l-618 -792h-142l-397 796l-166 -1171h-166l203 1434h176l438 -883z" />
    <glyph glyph-name="N" unicode="N" horiz-adv-x="1626" 
d="M1372 1434h168l-203 -1434h-159l-705 1163l-164 -1163h-168l203 1434h160l704 -1164z" />
    <glyph glyph-name="O" unicode="O" horiz-adv-x="1730" 
d="M797 -29q-290 0 -466.5 176.5t-176.5 454.5q0 191 81.5 367.5t223.5 298.5q222 194 530 194q192 0 340 -84t226.5 -227.5t78.5 -321.5q0 -172 -72.5 -341t-197.5 -291q-113 -107 -259 -166.5t-308 -59.5zM801 131q127 0 240.5 47.5t203.5 134.5q102 101 155.5 235
t53.5 275q0 216 -125 348t-344 132q-237 0 -426 -164q-109 -100 -168 -238t-59 -291q0 -214 126 -346.5t343 -132.5z" />
    <glyph glyph-name="P" unicode="P" horiz-adv-x="1380" 
d="M920 1434q208 0 321 -97.5t113 -265.5q0 -109 -39 -212.5t-109 -170.5q-144 -141 -403 -141h-412l-78 -547h-172l203 1434h576zM1096 807q38 47 58 118.5t20 139.5q0 111 -67 161t-216 50h-397l-80 -569h397q201 0 285 100z" />
    <glyph glyph-name="Q" unicode="Q" horiz-adv-x="1730" 
d="M1364 197q-38 -38 -74 -62l148 -219l-133 -94l-154 229q-166 -80 -354 -80q-290 0 -466.5 176.5t-176.5 454.5q0 191 81.5 367.5t223.5 298.5q222 194 530 194q192 0 340 -84t226.5 -227.5t78.5 -321.5q0 -172 -72.5 -341t-197.5 -291zM801 131q134 0 260 55l-197 295
l131 94l203 -303q24 18 47 41q102 101 155.5 235t53.5 275q0 216 -125 348t-344 132q-237 0 -426 -164q-109 -100 -168 -238t-59 -291q0 -214 126 -346.5t343 -132.5z" />
    <glyph glyph-name="R" unicode="R" horiz-adv-x="1425" 
d="M1208 702q-129 -120 -362 -129l397 -573h-201l-397 573h-250l-82 -573h-172l203 1434h584q205 0 318.5 -96t113.5 -265q0 -102 -41 -204t-111 -167zM494 1276l-78 -549h407q189 0 273 90q82 92 82 250q0 107 -65.5 158t-213.5 51h-405z" />
    <glyph glyph-name="S" unicode="S" horiz-adv-x="1304" 
d="M610 -29q-214 0 -358.5 89t-185.5 245l141 76q98 -254 401 -254q169 0 275 70q60 37 93.5 96t33.5 127q0 77 -54.5 126.5t-175.5 80.5l-219 55q-172 42 -261 130.5t-89 207.5q0 93 43.5 179.5t118.5 143.5q150 119 399 119q188 0 320 -72.5t174 -189.5l-146 -82
q-89 189 -352 189q-173 0 -281 -78q-46 -36 -73 -88.5t-27 -110.5q0 -72 55.5 -120.5t180.5 -78.5l221 -55q346 -84 346 -334q0 -120 -58 -220.5t-161 -162.5q-150 -88 -361 -88z" />
    <glyph glyph-name="T" unicode="T" horiz-adv-x="1245" 
d="M463 0l180 1274h-483l22 160h1139l-25 -160h-483l-178 -1274h-172z" />
    <glyph glyph-name="U" unicode="U" horiz-adv-x="1552" 
d="M700 -29q-244 0 -379 115.5t-135 325.5q0 23 9 102l129 920h172l-127 -904q-7 -58 -7 -90q0 -158 84 -233.5t263 -75.5q205 0 328.5 101t150.5 298l127 904h172l-129 -920q-37 -257 -211 -400t-447 -143z" />
    <glyph glyph-name="V" unicode="V" horiz-adv-x="1417" 
d="M1317 1434h184l-778 -1434h-176l-373 1434h176l309 -1227z" />
    <glyph glyph-name="W" unicode="W" horiz-adv-x="2138" 
d="M2032 1434h174l-650 -1434h-174l-217 1208l-557 -1208h-174l-244 1434h166l203 -1194l549 1194h172l215 -1196z" />
    <glyph glyph-name="X" unicode="X" horiz-adv-x="1325" 
d="M1382 1434l-581 -701l401 -733h-182l-336 618l-510 -618h-199l611 737l-381 697h174l321 -588l488 588h194z" />
    <glyph glyph-name="Y" unicode="Y" horiz-adv-x="1314" 
d="M1225 1434h200l-671 -838l-86 -596h-172l86 596l-437 838h187l350 -686z" />
    <glyph glyph-name="Z" unicode="Z" horiz-adv-x="1243" 
d="M1264 1434l-17 -134l-991 -1144h842l-25 -156h-1053l19 133l991 1145h-799l21 156h1012z" />
    <glyph glyph-name="bracketleft" unicode="[" horiz-adv-x="753" 
d="M805 1378h-309l-207 -1478h307l-21 -138h-466l245 1754h467z" />
    <glyph glyph-name="backslash" unicode="\" horiz-adv-x="960" 
d="M680 -193l-518 1709h160l518 -1709h-160z" />
    <glyph glyph-name="bracketright" unicode="]" horiz-adv-x="755" 
d="M213 1516h467l-246 -1754h-467l19 138h309l205 1478h-305z" />
    <glyph glyph-name="asciicircum" unicode="^" horiz-adv-x="1163" 
d="M1128 717h-182l-258 516l-405 -516h-193l539 667h147z" />
    <glyph glyph-name="underscore" unicode="_" horiz-adv-x="890" 
d="M-109 -248l21 133h891l-21 -133h-891z" />
    <glyph glyph-name="grave" unicode="`" horiz-adv-x="1269" 
d="M647 1214l-223 302h199l192 -302h-168z" />
    <glyph glyph-name="a" unicode="a" horiz-adv-x="1345" 
d="M1069 1036h164l-148 -1036h-163l28 193q-62 -102 -171 -162t-240 -60q-194 0 -312 127.5t-118 337.5q0 136 50 261t138 212q74 74 172.5 115t206.5 41q133 0 233.5 -62t132.5 -165zM856 231q73 64 112.5 161t39.5 198q0 148 -81.5 234.5t-226.5 86.5q-165 0 -280 -112
q-70 -70 -105.5 -165.5t-35.5 -191.5q0 -145 80 -232t221 -87q78 0 150 28.5t126 79.5z" />
    <glyph glyph-name="b" unicode="b" horiz-adv-x="1343" 
d="M805 1065q191 0 311.5 -126t120.5 -331q0 -135 -50 -264t-140 -219q-157 -154 -377 -154q-134 0 -234.5 62t-132.5 166l-27 -199h-163l211 1499h163l-92 -657q62 102 172 162.5t238 60.5zM932 244q64 64 99.5 157.5t35.5 190.5q0 149 -79.5 234t-223.5 85
q-168 0 -287 -116q-139 -136 -139 -351q0 -146 80 -233.5t223 -87.5q167 0 291 121z" />
    <glyph glyph-name="c" unicode="c" horiz-adv-x="1153" 
d="M557 -29q-204 0 -327.5 128t-123.5 331q0 141 56.5 270.5t159.5 217.5q169 147 391 147q160 0 271.5 -80t143.5 -219l-159 -64q-59 209 -267 209q-170 0 -282 -112q-67 -65 -105.5 -162t-38.5 -195q0 -147 84 -233t230 -86q208 0 325 209l144 -62q-71 -140 -206 -219.5
t-296 -79.5z" />
    <glyph glyph-name="d" unicode="d" horiz-adv-x="1341" 
d="M1130 1499h164l-211 -1499h-163l26 188q-59 -98 -169 -157.5t-240 -59.5q-193 0 -312 126.5t-119 332.5q0 137 54 270.5t153 223.5q75 68 170 104.5t195 36.5q132 0 229.5 -63.5t128.5 -167.5zM870 252q63 65 99.5 155.5t36.5 186.5q0 143 -82.5 230t-227.5 87
q-166 0 -276 -110q-72 -69 -109 -167t-37 -198q0 -143 77 -228t216 -85q174 0 303 129z" />
    <glyph glyph-name="e" unicode="e" horiz-adv-x="1228" 
d="M1106 469h-834v-31q0 -152 80.5 -233.5t227.5 -81.5q211 0 364 166l103 -92q-188 -226 -474 -226q-213 0 -340 125.5t-127 331.5q0 137 53.5 269t149.5 221q160 147 387 147q194 0 315.5 -117t121.5 -309q0 -72 -27 -170zM412 803q-76 -74 -115 -201h668q2 12 2 33
q0 133 -71.5 204.5t-203.5 71.5q-166 0 -280 -108z" />
    <glyph glyph-name="f" unicode="f" horiz-adv-x="780" 
d="M727 1374q-90 0 -138 -42t-61 -138l-22 -158h307l-20 -141h-308l-127 -895h-163l127 895h-218l23 141h215l23 162q23 165 112.5 242.5t251.5 77.5q72 0 152 -19l-19 -139q-71 14 -135 14z" />
    <glyph glyph-name="g" unicode="g" horiz-adv-x="1343" 
d="M1067 1036h164l-131 -923q-37 -269 -189 -411t-409 -142q-148 0 -266.5 48t-186.5 132l105 113q130 -140 348 -140q181 0 293 101.5t141 298.5l16 106q-60 -102 -169.5 -160.5t-239.5 -58.5q-194 0 -314 122.5t-120 321.5q0 143 56.5 274t158.5 218q154 129 354 129
q133 0 230.5 -60t131.5 -163zM877 276q131 134 131 326q0 141 -79.5 225t-223.5 84q-172 0 -281 -106q-71 -67 -108 -159t-37 -191q0 -137 77.5 -220t218.5 -83q178 0 302 124z" />
    <glyph glyph-name="h" unicode="h" horiz-adv-x="1259" 
d="M782 1065q156 0 241 -82t85 -235q0 -40 -6 -86l-92 -662h-164l88 623q6 46 6 84q0 105 -52 154.5t-157 49.5q-142 0 -245 -80.5t-121 -214.5l-89 -616h-163l211 1499h163l-90 -643q55 99 156.5 154t228.5 55z" />
    <glyph glyph-name="i" unicode="i" horiz-adv-x="538" 
d="M373 1257q-44 0 -71.5 27t-27.5 70q0 54 37.5 93.5t91.5 39.5q45 0 74 -29t29 -72q0 -52 -38.5 -90.5t-94.5 -38.5zM115 0l147 1036h164l-147 -1036h-164z" />
    <glyph glyph-name="j" unicode="j" horiz-adv-x="538" 
d="M373 1257q-44 0 -71.5 27t-27.5 70q0 54 37.5 93.5t91.5 39.5q45 0 74 -29t29 -72q0 -52 -38.5 -90.5t-94.5 -38.5zM-88 -440q-52 0 -113 12l23 149q46 -12 94 -12q84 0 126.5 40.5t53.5 125.5l166 1161h164l-168 -1179q-19 -143 -105.5 -220t-240.5 -77z" />
    <glyph glyph-name="k" unicode="k" horiz-adv-x="1134" 
d="M1167 1034l-530 -448l401 -586h-180l-338 487l-198 -168l-46 -319h-163l211 1499h163l-139 -983l608 520z" />
    <glyph glyph-name="l" unicode="l" horiz-adv-x="534" 
d="M113 0l211 1499h163l-211 -1499h-163z" />
    <glyph glyph-name="m" unicode="m" horiz-adv-x="1914" 
d="M1452 1065q150 0 230.5 -80.5t80.5 -230.5q0 -42 -6 -88l-94 -666h-164l88 627q8 66 8 90q0 100 -46.5 147t-143.5 47q-135 0 -231.5 -80t-116.5 -215l-88 -616h-164l88 627q8 66 8 90q0 100 -46.5 147t-143.5 47q-135 0 -231 -80t-115 -215l-89 -616h-163l147 1036h164
l-27 -180q55 99 151.5 154t213.5 55q121 0 199 -57.5t100 -165.5q53 104 156.5 163.5t234.5 59.5z" />
    <glyph glyph-name="n" unicode="n" horiz-adv-x="1259" 
d="M782 1065q157 0 241.5 -82.5t84.5 -234.5q0 -40 -6 -86l-92 -662h-164l88 623q6 46 6 84q0 105 -52 154.5t-157 49.5q-142 0 -245 -80.5t-121 -214.5l-89 -616h-163l147 1036h164l-27 -180q57 101 157.5 155t227.5 54z" />
    <glyph glyph-name="o" unicode="o" horiz-adv-x="1288" 
d="M580 -29q-143 0 -251 62.5t-164 167.5t-56 237q0 135 57.5 264.5t155.5 217.5q161 145 387 145q215 0 344 -133.5t129 -333.5q0 -136 -61 -269t-165 -220q-164 -138 -376 -138zM584 123q158 0 274 106q76 70 115 167t39 196q0 147 -79 233t-222 86q-169 0 -289 -114
q-70 -68 -106.5 -162t-36.5 -191q0 -147 81 -234t224 -87z" />
    <glyph glyph-name="p" unicode="p" horiz-adv-x="1343" 
d="M809 1065q190 0 309 -126.5t119 -332.5q0 -136 -54 -268.5t-151 -222.5q-157 -144 -364 -144q-134 0 -233 63.5t-130 168.5l-86 -613h-164l205 1446h164l-29 -196q66 104 177.5 164.5t236.5 60.5zM932 248q67 68 102 162.5t35 191.5q0 140 -77 224.5t-214 84.5
q-84 0 -160.5 -30.5t-130.5 -81.5q-71 -65 -111 -163t-40 -198q0 -142 81 -228.5t222 -86.5q174 0 293 125z" />
    <glyph glyph-name="q" unicode="q" horiz-adv-x="1345" 
d="M1069 1036h164l-205 -1446h-164l86 598q-61 -101 -170 -159t-237 -58q-194 0 -314 127.5t-120 337.5q0 133 49.5 259t140.5 214q74 74 171 115t202 41q138 0 236.5 -65t131.5 -169zM870 248q66 66 103 158t37 186q0 143 -84 231t-226 88q-174 0 -288 -120
q-62 -65 -99 -162t-37 -195q0 -141 78 -226t217 -85q171 0 299 125z" />
    <glyph glyph-name="r" unicode="r" horiz-adv-x="823" 
d="M743 1051q60 0 91 -15l-19 -143q-44 6 -92 6q-151 0 -248 -91.5t-123 -275.5l-76 -532h-163l147 1036h164l-31 -202q49 103 141.5 160t208.5 57z" />
    <glyph glyph-name="s" unicode="s" horiz-adv-x="1048" 
d="M485 -29q-155 0 -273.5 62t-166.5 164l127 86q91 -162 315 -162q126 0 201 53q31 24 50.5 59.5t19.5 71.5q0 48 -39.5 79.5t-138.5 53.5l-150 35q-137 30 -205.5 97t-68.5 161q0 69 30 133.5t84 106.5q111 94 318 94q129 0 233 -46.5t158 -129.5l-123 -98
q-80 124 -281 124q-134 0 -200 -57q-53 -42 -53 -117q0 -43 38.5 -72.5t131.5 -50.5l165 -36q269 -61 269 -252q0 -80 -38 -155.5t-104 -121.5q-114 -82 -299 -82z" />
    <glyph glyph-name="t" unicode="t" horiz-adv-x="835" 
d="M479 895l-86 -621q-10 -78 25 -111.5t125 -33.5q73 0 164 18l-21 -137q-88 -26 -188 -26q-152 0 -221.5 70.5t-49.5 209.5l88 631h-211l23 141h209l43 307h164l-43 -307h327l-20 -141h-328z" />
    <glyph glyph-name="u" unicode="u" horiz-adv-x="1251" 
d="M977 1036h164l-148 -1036h-164l25 178q-58 -99 -162 -153t-231 -54q-152 0 -230.5 79t-78.5 229q0 43 6 96l94 661h164l-88 -622q-9 -59 -9 -103q0 -100 44.5 -144t144.5 -44q140 0 251 86t130 211z" />
    <glyph glyph-name="v" unicode="v" horiz-adv-x="1097" 
d="M952 1036h183l-572 -1036h-176l-276 1036h170l215 -858z" />
    <glyph glyph-name="w" unicode="w" horiz-adv-x="1701" 
d="M1559 1036h170l-490 -1036h-178l-164 850l-403 -850h-181l-194 1036h162l151 -837l397 837h181l161 -837z" />
    <glyph glyph-name="x" unicode="x" horiz-adv-x="1054" 
d="M1065 1036l-426 -504l301 -532h-180l-240 424l-360 -424h-193l453 532l-285 504h178l226 -401l338 401h188z" />
    <glyph glyph-name="y" unicode="y" horiz-adv-x="1105" 
d="M967 1036h176l-789 -1444h-168l213 396l-284 1048h168l225 -866z" />
    <glyph glyph-name="z" unicode="z" horiz-adv-x="1030" 
d="M991 1036l-16 -125l-723 -766h622l-22 -145h-823l18 125l721 766h-596l21 145h798z" />
    <glyph glyph-name="braceleft" unicode="{" horiz-adv-x="737" 
d="M647 1516h158l-19 -138h-137q-128 0 -145 -127l-55 -403q-24 -165 -177 -211q140 -50 115 -213l-55 -406q-10 -65 14.5 -91.5t87.5 -26.5h146l-21 -138h-149q-124 0 -183 48t-59 153q0 14 4 64l61 426q8 63 -18.5 90.5t-95.5 27.5h-29l21 136h20q135 0 156 127l59 426
q20 137 90.5 196.5t210.5 59.5z" />
    <glyph glyph-name="bar" unicode="|" horiz-adv-x="665" 
d="M154 -205l249 1772h154l-250 -1772h-153z" />
    <glyph glyph-name="braceright" unicode="}" horiz-adv-x="739" 
d="M655 707h27l-18 -136h-21q-138 0 -156 -127l-59 -426q-20 -137 -91.5 -196.5t-211.5 -59.5h-158l19 138h137q128 0 145 127l58 403q24 166 174 211q-140 50 -115 213l57 406q9 65 -15 91.5t-87 26.5h-145l18 138h149q124 0 184 -48t60 -153q0 -14 -4 -64l-61 -426
q-9 -63 18 -90.5t96 -27.5z" />
    <glyph glyph-name="asciitilde" unicode="~" 
d="M944 532q-75 0 -209 44.5t-207 44.5q-112 0 -247 -84l18 143q122 84 252 84q73 0 208 -44t202 -44q63 0 130 23t119 61l-18 -144q-131 -84 -248 -84z" />
    <glyph glyph-name="uni00A0" unicode="&#xa0;" horiz-adv-x="473" 
 />
    <glyph glyph-name="exclamdown" unicode="&#xa1;" horiz-adv-x="589" 
d="M360 1036q58 0 87 -35.5t20 -93.5q-6 -48 -39.5 -78t-83.5 -30q-58 0 -87 35.5t-21 91.5q5 48 39.5 79t84.5 31zM371 582l-117 -996h-180l164 996h133z" />
    <glyph glyph-name="cent" unicode="&#xa2;" horiz-adv-x="1155" 
d="M653 328q178 19 285 159l115 -90q-76 -102 -184 -161t-238 -66l-25 -170h-117l25 176q-178 23 -282.5 147t-104.5 308q0 142 59.5 278t163.5 224q137 111 318 129l24 172h117l-25 -172q122 -11 217 -70t142 -156l-139 -90q-73 152 -240 164zM295 637q0 -128 63 -209
t179 -100l108 774q-109 -21 -194 -94q-74 -68 -115 -166t-41 -205z" />
    <glyph glyph-name="sterling" unicode="&#xa3;" horiz-adv-x="1114" 
d="M756 1309q-123 0 -200.5 -72.5t-96.5 -206.5l-35 -256h504l-21 -135h-504l-65 -483h668l-23 -156h-989l24 156h152l68 483h-164l20 135h162l37 264q27 198 148 311t317 113q283 0 397 -239l-139 -84q-64 170 -260 170z" />
    <glyph glyph-name="currency" unicode="&#xa4;" horiz-adv-x="1144" 
d="M997 776q0 -163 -102 -293l129 -149l-96 -84l-127 145q-111 -78 -248 -78q-136 0 -229 74l-172 -151l-82 94l176 153q-41 74 -41 168q0 166 100 293l-129 150l98 84l125 -146q111 78 248 78t230 -74l174 152l79 -94l-174 -154q41 -74 41 -168zM553 467q125 0 209 84.5
t84 214.5q0 92 -52 146.5t-147 54.5q-125 0 -208 -85t-83 -216q0 -92 51.5 -145.5t145.5 -53.5z" />
    <glyph glyph-name="yen" unicode="&#xa5;" horiz-adv-x="1193" 
d="M1303 1434l-531 -732h305l-18 -120h-369l-26 -187h370l-16 -121h-371l-39 -274h-168l39 274h-368l18 121h367l26 187h-368l18 120h303l-325 732h178l295 -682l485 682h195z" />
    <glyph glyph-name="brokenbar" unicode="&#xa6;" horiz-adv-x="665" 
d="M301 836l102 731h154l-102 -731h-154zM154 -205l102 715h152l-101 -715h-153z" />
    <glyph glyph-name="section" unicode="&#xa7;" horiz-adv-x="1116" 
d="M1020 653q0 -120 -68 -204.5t-180 -112.5q164 -68 164 -223q0 -176 -128.5 -277.5t-330.5 -101.5q-160 0 -277 61t-163 166l129 80q81 -160 313 -160q127 0 210 57t83 156q0 103 -170 142l-162 36q-286 68 -286 285q0 118 68 199t181 106q-163 76 -163 240q0 168 124 264
t320 96q137 0 241.5 -48t157.5 -132l-118 -92q-83 123 -287 123q-129 0 -203 -56.5t-74 -158.5q0 -53 38 -84.5t132 -52.5l181 -41q268 -64 268 -267zM573 393q70 -16 136 14.5t106.5 93.5t40.5 138q0 56 -40.5 91t-135.5 56l-92 21q-104 19 -188.5 -58t-84.5 -190
q0 -55 40.5 -89.5t138.5 -57.5z" />
    <glyph glyph-name="dieresis" unicode="&#xa8;" horiz-adv-x="1269" 
d="M520 1257q-45 0 -71.5 26.5t-26.5 68.5q0 56 37.5 95.5t93.5 39.5q45 0 72.5 -28.5t27.5 -72.5q0 -50 -39.5 -89.5t-93.5 -39.5zM956 1257q-45 0 -71.5 26.5t-26.5 68.5q0 56 38 95.5t93 39.5q45 0 73 -29t28 -72q0 -51 -39 -90t-95 -39z" />
    <glyph glyph-name="copyright" unicode="&#xa9;" horiz-adv-x="1759" 
d="M813 -29q-140 0 -263 50t-209.5 135.5t-136.5 205t-50 254.5q0 189 88.5 366t240.5 296q225 184 518 184q188 0 339.5 -85.5t236 -233t84.5 -328.5q0 -188 -88 -363t-240 -296q-233 -185 -520 -185zM823 104q235 0 428 156q123 101 195 247t72 300q0 224 -148 373
t-381 149q-232 0 -420 -151q-125 -100 -197.5 -247.5t-72.5 -303.5q0 -147 64.5 -266t185 -188t274.5 -69zM872 307q-161 0 -258.5 96t-97.5 250q0 204 128.5 339.5t328.5 135.5q110 0 192 -45.5t123 -130.5l-127 -82q-55 117 -192 117q-130 0 -213.5 -94t-83.5 -231
q0 -101 53 -158.5t149 -57.5q71 0 136 30t108 87l105 -80q-55 -85 -146.5 -130.5t-204.5 -45.5z" />
    <glyph glyph-name="ordfeminine" unicode="&#xaa;" horiz-adv-x="997" 
d="M643 1516q163 0 245 -88t60 -244l-80 -574h-145l25 160q-42 -81 -131.5 -129.5t-204.5 -48.5q-126 0 -199.5 65t-73.5 172q0 145 105 222q101 73 291 73h256l8 62q12 92 -30.5 142t-135.5 50q-158 0 -289 -125l-92 105q77 75 177.5 116.5t213.5 41.5zM451 719
q118 0 209 70t108 178l6 45h-246q-128 0 -184 -56q-47 -47 -47 -118q0 -58 39 -88.5t115 -30.5z" />
    <glyph glyph-name="guillemotleft" unicode="&#xab;" horiz-adv-x="1103" 
d="M635 956l-367 -438l242 -436h-180l-248 438l367 436h186zM1071 956l-366 -440l239 -434h-178l-248 438l367 436h186z" />
    <glyph glyph-name="logicalnot" unicode="&#xac;" 
d="M305 721h899l-49 -361h-154l31 218h-745z" />
    <glyph glyph-name="registered" unicode="&#xae;" horiz-adv-x="1161" 
d="M709 1464q170 0 282.5 -110t112.5 -273q0 -110 -52.5 -216t-146.5 -183q-137 -111 -311 -111q-171 0 -283 110.5t-112 274.5q0 117 54 222t148 178q133 108 308 108zM856 750q73 61 114.5 145.5t41.5 175.5q0 134 -85.5 222.5t-221.5 88.5q-133 0 -256 -92
q-73 -59 -116.5 -146.5t-43.5 -178.5q0 -134 86 -223t223 -89q140 0 258 97zM713 1260q76 0 115.5 -33.5t39.5 -96.5q0 -71 -35 -115.5t-100 -58.5l101 -170h-134l-90 164h-37l-22 -164h-117l66 474h213zM676 1047q69 0 69 65q0 43 -55 43h-86l-16 -108h88z" />
    <glyph glyph-name="macron" unicode="&#xaf;" horiz-adv-x="1269" 
d="M432 1262l17 133h616l-16 -133h-617z" />
    <glyph glyph-name="degree" unicode="&#xb0;" horiz-adv-x="768" 
d="M442 868q-120 0 -195 74t-75 186q0 138 98.5 236t239.5 98q117 0 193.5 -74t76.5 -182q0 -139 -98.5 -238.5t-239.5 -99.5zM451 997q84 0 137 56.5t53 142.5q0 61 -37.5 99t-103.5 38q-82 0 -136.5 -58.5t-54.5 -137.5q0 -63 38 -101.5t104 -38.5z" />
    <glyph glyph-name="plusminus" unicode="&#xb1;" 
d="M848 831h373l-21 -145h-373l-53 -375h-153l53 375h-373l21 145h372l54 373h153zM207 0l18 145h899l-20 -145h-897z" />
    <glyph glyph-name="uni00B2" unicode="&#xb2;" horiz-adv-x="675" 
d="M557 1053l-231 -193h344l-21 -133h-557l14 107l324 270q70 55 109 101.5t39 94.5q0 38 -27.5 61t-75.5 23q-118 0 -201 -137l-110 66q48 93 133.5 148t187.5 55q101 0 169.5 -57t68.5 -140q0 -130 -166 -266z" />
    <glyph glyph-name="uni00B3" unicode="&#xb3;" horiz-adv-x="659" 
d="M545 1120q119 -37 119 -162q0 -109 -87.5 -177t-218.5 -68q-181 0 -272 116l90 99q67 -84 184 -84q70 0 114 31.5t44 91.5q0 88 -141 88h-78l16 129h84q74 0 116 30t42 82q0 88 -111 88t-200 -92l-90 90q54 63 132 98.5t167 35.5q112 0 182 -53.5t70 -143.5
q0 -74 -45 -127t-117 -72z" />
    <glyph glyph-name="acute" unicode="&#xb4;" horiz-adv-x="1269" 
d="M651 1214l275 302h209l-306 -302h-178z" />
    <glyph glyph-name="uni00B5" unicode="&#xb5;" horiz-adv-x="1267" 
d="M993 1036h164l-147 -1036h-164l24 178q-57 -96 -156 -151.5t-210 -55.5q-152 0 -213 113l-76 -535h-164l209 1487h164l-92 -659q-12 -131 39 -192.5t168 -61.5q143 0 245 87.5t125 248.5z" />
    <glyph glyph-name="paragraph" unicode="&#xb6;" horiz-adv-x="1327" 
d="M403 -266l154 1087h-31q-156 0 -242.5 72t-86.5 190q0 159 124 255t312 96h170l-240 -1700h-160zM799 -266l239 1700h162l-239 -1700h-162z" />
    <glyph glyph-name="periodcentered" unicode="&#xb7;" horiz-adv-x="505" 
d="M274 621q-57 0 -86 36t-20 93q6 47 40 77.5t85 30.5q56 0 85 -35.5t23 -91.5q-6 -50 -40.5 -80t-86.5 -30z" />
    <glyph glyph-name="cedilla" unicode="&#xb8;" horiz-adv-x="1269" 
d="M295 -391l219 432h139l-184 -432h-174z" />
    <glyph glyph-name="uni00B9" unicode="&#xb9;" horiz-adv-x="495" 
d="M401 1501h123l-108 -774h-142l88 627l-204 -97l20 138z" />
    <glyph glyph-name="ordmasculine" unicode="&#xba;" horiz-adv-x="1114" 
d="M575 586q-185 0 -294 111.5t-109 281.5q0 109 45.5 218t124.5 183q146 136 346 136q185 0 294.5 -111.5t109.5 -282.5q0 -121 -52.5 -234t-144.5 -188q-136 -114 -320 -114zM580 729q126 0 219 80q62 55 96.5 135.5t34.5 167.5q0 119 -64.5 189.5t-181.5 70.5
q-140 0 -238 -98q-110 -107 -110 -287q0 -118 64 -188t180 -70z" />
    <glyph glyph-name="guillemotright" unicode="&#xbb;" horiz-adv-x="1103" 
d="M338 952l248 -436l-367 -438h-186l366 440l-241 434h180zM774 952l246 -436l-365 -438h-188l369 440l-242 434h180z" />
    <glyph glyph-name="onequarter" unicode="&#xbc;" horiz-adv-x="1536" 
d="M340 674l88 626l-205 -96l21 137l225 107h121l-109 -774h-141zM1276 1434h164l-1207 -1434h-161zM1309 760l-70 -496h100l-18 -119h-98l-23 -159h-135l22 159h-397l19 119l438 496h162zM858 264h246l47 330z" />
    <glyph glyph-name="onehalf" unicode="&#xbd;" horiz-adv-x="1536" 
d="M326 674l88 626l-205 -96l20 137l226 107h120l-108 -774h-141zM1262 1434h163l-1206 -1434h-162zM1419 578q0 -131 -166 -267l-231 -192h344l-20 -133h-560l17 106l323 270q146 114 146 197q0 37 -27 60.5t-74 23.5q-119 0 -202 -137l-109 65q48 93 133.5 148t188.5 55
q100 0 168.5 -56.5t68.5 -139.5z" />
    <glyph glyph-name="threequarters" unicode="&#xbe;" horiz-adv-x="1536" 
d="M680 905q0 -109 -87 -177.5t-216 -68.5q-183 0 -275 117l91 98q67 -83 184 -83q70 0 114 31t44 91q0 88 -142 88h-78l19 129h82q75 0 117 30t42 83q0 88 -112 88q-113 0 -199 -92l-90 90q54 63 132 98t165 35q114 0 183 -53t69 -143q0 -74 -45 -127t-117 -72
q119 -40 119 -162zM1366 1434h164l-1206 -1434h-162zM1399 760l-70 -496h98l-16 -119h-98l-23 -159h-135l23 159h-398l19 119l436 496h164zM946 264h248l47 330z" />
    <glyph glyph-name="questiondown" unicode="&#xbf;" horiz-adv-x="962" 
d="M594 1036q57 0 86 -36t20 -93q-6 -48 -39.5 -78t-85.5 -30q-56 0 -85 35.5t-23 91.5q6 48 40.5 79t86.5 31zM618 582l-12 -99q-15 -102 -54.5 -163t-143.5 -140l-113 -84q-69 -49 -104 -103t-35 -120q0 -74 50 -116t142 -42q101 0 194 52t163 149l114 -88
q-70 -123 -198.5 -196.5t-278.5 -73.5q-161 0 -260.5 81.5t-99.5 210.5q0 109 59 194.5t172 170.5l113 84q63 47 85 82t31 102l13 99h163z" />
    <glyph glyph-name="Agrave" unicode="&#xc0;" 
d="M1022 1612h-168l-223 301h198zM1161 0l-102 393h-692l-213 -393h-183l789 1434h190l383 -1434h-172zM451 549h569l-184 713z" />
    <glyph glyph-name="Aacute" unicode="&#xc1;" 
d="M1219 1913l-306 -301h-178l275 301h209zM1161 0l-102 393h-692l-213 -393h-183l789 1434h190l383 -1434h-172zM451 549h569l-184 713z" />
    <glyph glyph-name="Acircumflex" unicode="&#xc2;" 
d="M915 1812l-215 -200h-176l322 301h151l240 -301h-160zM1161 0l-102 393h-692l-213 -393h-183l789 1434h190l383 -1434h-172zM451 549h569l-184 713z" />
    <glyph glyph-name="Atilde" unicode="&#xc3;" 
d="M764 1769q-35 0 -58.5 -32.5t-29.5 -96.5h-119q10 119 68.5 186.5t148.5 67.5q39 0 75.5 -20t88.5 -68q37 -36 57.5 -46.5t42.5 -10.5q35 0 58.5 33t29.5 98h119q-10 -120 -68.5 -187t-148.5 -67q-71 0 -164 88q-60 55 -100 55zM1161 0l-102 393h-692l-213 -393h-183
l789 1434h190l383 -1434h-172zM451 549h569l-184 713z" />
    <glyph glyph-name="Adieresis" unicode="&#xc4;" 
d="M668 1655q-45 0 -72 26t-27 68q0 56 37.5 95.5t93.5 39.5q45 0 73 -28.5t28 -71.5q0 -50 -39.5 -89.5t-93.5 -39.5zM1104 1655q-45 0 -71.5 26t-26.5 68q0 56 38 95.5t93 39.5q45 0 72.5 -28.5t27.5 -71.5q0 -51 -38.5 -90t-94.5 -39zM1161 0l-102 393h-692l-213 -393
h-183l789 1434h190l383 -1434h-172zM451 549h569l-184 713z" />
    <glyph glyph-name="Aring" unicode="&#xc5;" 
d="M883 1587q-97 0 -160.5 58t-63.5 147q0 108 83 187t196 79q95 0 158 -58t63 -145q0 -110 -82.5 -189t-193.5 -79zM934 1946q-62 0 -107 -43.5t-45 -104.5q0 -44 27.5 -72t77.5 -28q63 0 106 43t43 106q0 46 -26 72.5t-76 26.5zM1161 0l-102 393h-692l-213 -393h-183
l789 1434h190l383 -1434h-172zM451 549h569l-184 713z" />
    <glyph glyph-name="AE" unicode="&#xc6;" horiz-adv-x="2252" 
d="M2185 1276h-805l-65 -473h770l-25 -158h-768l-67 -487h825l-22 -158h-998l51 369h-612l-307 -369h-203l1202 1434h1049zM600 524h504l102 727z" />
    <glyph glyph-name="Ccedilla" unicode="&#xc7;" horiz-adv-x="1558" 
d="M791 131q159 0 296.5 73t233.5 218l135 -82q-107 -169 -276.5 -263.5t-360.5 -103.5l-155 -364h-175l187 368q-160 20 -279.5 105t-182 217.5t-62.5 296.5q0 207 95 396.5t259 312.5q219 157 483 157q203 0 352.5 -94.5t212.5 -273.5l-145 -82q-111 291 -428 291
q-223 0 -391 -136q-125 -98 -191.5 -246.5t-66.5 -314.5q0 -216 121.5 -345.5t337.5 -129.5z" />
    <glyph glyph-name="Egrave" unicode="&#xc8;" horiz-adv-x="1366" 
d="M989 1612h-168l-223 301h199zM1298 1276h-806l-64 -475h764l-25 -156h-764l-65 -487h825l-24 -158h-998l203 1434h977z" />
    <glyph glyph-name="Eacute" unicode="&#xc9;" horiz-adv-x="1366" 
d="M1186 1913l-305 -301h-179l275 301h209zM1298 1276h-806l-64 -475h764l-25 -156h-764l-65 -487h825l-24 -158h-998l203 1434h977z" />
    <glyph glyph-name="Ecircumflex" unicode="&#xca;" horiz-adv-x="1366" 
d="M881 1812l-215 -200h-177l322 301h152l239 -301h-160zM1298 1276h-806l-64 -475h764l-25 -156h-764l-65 -487h825l-24 -158h-998l203 1434h977z" />
    <glyph glyph-name="Edieresis" unicode="&#xcb;" horiz-adv-x="1366" 
d="M633 1655q-45 0 -71.5 26t-26.5 68q0 56 37.5 95.5t93.5 39.5q45 0 72.5 -28.5t27.5 -71.5q0 -50 -39 -89.5t-94 -39.5zM1069 1655q-45 0 -71.5 26t-26.5 68q0 56 38 95.5t93 39.5q45 0 72.5 -28.5t27.5 -71.5q0 -51 -38.5 -90t-94.5 -39zM1298 1276h-806l-64 -475h764
l-25 -156h-764l-65 -487h825l-24 -158h-998l203 1434h977z" />
    <glyph glyph-name="Igrave" unicode="&#xcc;" horiz-adv-x="610" 
d="M434 1612l-223 301h199l192 -301h-168zM145 0l203 1434h172l-203 -1434h-172z" />
    <glyph glyph-name="Iacute" unicode="&#xcd;" horiz-adv-x="610" 
d="M315 1612l275 301h209l-305 -301h-179zM145 0l203 1434h172l-203 -1434h-172z" />
    <glyph glyph-name="Icircumflex" unicode="&#xce;" horiz-adv-x="610" 
d="M575 1913l240 -301h-160l-161 200l-215 -200h-177l322 301h151zM145 0l203 1434h172l-203 -1434h-172z" />
    <glyph glyph-name="Idieresis" unicode="&#xcf;" horiz-adv-x="610" 
d="M246 1655q-45 0 -72 26t-27 68q0 56 38 95.5t94 39.5q45 0 72.5 -28.5t27.5 -71.5q0 -50 -39.5 -89.5t-93.5 -39.5zM682 1655q-45 0 -71.5 26t-26.5 68q0 56 38 95.5t93 39.5q45 0 72.5 -28.5t27.5 -71.5q0 -51 -38.5 -90t-94.5 -39zM145 0l203 1434h172l-203 -1434h-172
z" />
    <glyph glyph-name="Eth" unicode="&#xd0;" horiz-adv-x="1607" 
d="M893 1434q285 0 452.5 -154.5t167.5 -427.5q0 -173 -61 -340.5t-174 -284.5q-107 -110 -255.5 -168.5t-320.5 -58.5h-522l92 647h-192l20 139h191l92 648h510zM1165 350q83 93 125.5 225t42.5 267q0 432 -450 432h-351l-69 -488h414l-21 -139h-412l-69 -487h334
q140 0 257.5 48.5t198.5 141.5z" />
    <glyph glyph-name="Ntilde" unicode="&#xd1;" horiz-adv-x="1626" 
d="M850 1769q-35 0 -58.5 -32.5t-29.5 -96.5h-119q10 119 68.5 186.5t148.5 67.5q39 0 75.5 -20t88.5 -68q37 -36 57.5 -46.5t42.5 -10.5q35 0 58.5 33t29.5 98h119q-10 -120 -68.5 -187t-148.5 -67q-71 0 -164 88q-60 55 -100 55zM1372 1434h168l-203 -1434h-159l-705 1163
l-164 -1163h-168l203 1434h160l704 -1164z" />
    <glyph glyph-name="Ograve" unicode="&#xd2;" horiz-adv-x="1730" 
d="M993 1612l-223 301h199l192 -301h-168zM797 -29q-290 0 -466.5 176.5t-176.5 454.5q0 191 81.5 367.5t223.5 298.5q222 194 530 194q192 0 340 -84t226.5 -227.5t78.5 -321.5q0 -172 -72.5 -341t-197.5 -291q-113 -107 -259 -166.5t-308 -59.5zM801 131q127 0 240.5 47.5
t203.5 134.5q102 101 155.5 235t53.5 275q0 216 -125 348t-344 132q-237 0 -426 -164q-109 -100 -168 -238t-59 -291q0 -214 126 -346.5t343 -132.5z" />
    <glyph glyph-name="Oacute" unicode="&#xd3;" horiz-adv-x="1730" 
d="M874 1612l275 301h209l-305 -301h-179zM797 -29q-290 0 -466.5 176.5t-176.5 454.5q0 191 81.5 367.5t223.5 298.5q222 194 530 194q192 0 340 -84t226.5 -227.5t78.5 -321.5q0 -172 -72.5 -341t-197.5 -291q-113 -107 -259 -166.5t-308 -59.5zM801 131q127 0 240.5 47.5
t203.5 134.5q102 101 155.5 235t53.5 275q0 216 -125 348t-344 132q-237 0 -426 -164q-109 -100 -168 -238t-59 -291q0 -214 126 -346.5t343 -132.5z" />
    <glyph glyph-name="Ocircumflex" unicode="&#xd4;" horiz-adv-x="1730" 
d="M1053 1812l-215 -200h-176l321 301h152l239 -301h-160zM989 1462q192 0 340 -84t226.5 -227.5t78.5 -321.5q0 -172 -72.5 -341t-197.5 -291q-113 -107 -259 -166.5t-308 -59.5q-290 0 -466.5 176.5t-176.5 454.5q0 191 81.5 367.5t223.5 298.5q222 194 530 194zM1245 313
q102 101 155.5 235t53.5 275q0 216 -125 348t-344 132q-237 0 -426 -164q-109 -100 -168 -238t-59 -291q0 -214 126 -346.5t343 -132.5q127 0 240.5 47.5t203.5 134.5z" />
    <glyph glyph-name="Otilde" unicode="&#xd5;" horiz-adv-x="1730" 
d="M1165 1626q-71 0 -164 88q-60 55 -100 55q-35 0 -58.5 -32.5t-29.5 -96.5h-119q10 119 68.5 186.5t148.5 67.5q39 0 75.5 -20t88.5 -68q37 -36 57.5 -46.5t43.5 -10.5q35 0 58.5 33t29.5 98h118q-10 -120 -68.5 -187t-148.5 -67zM797 -29q-290 0 -466.5 176.5
t-176.5 454.5q0 191 81.5 367.5t223.5 298.5q222 194 530 194q192 0 340 -84t226.5 -227.5t78.5 -321.5q0 -172 -72.5 -341t-197.5 -291q-113 -107 -259 -166.5t-308 -59.5zM801 131q127 0 240.5 47.5t203.5 134.5q102 101 155.5 235t53.5 275q0 216 -125 348t-344 132
q-237 0 -426 -164q-109 -100 -168 -238t-59 -291q0 -214 126 -346.5t343 -132.5z" />
    <glyph glyph-name="Odieresis" unicode="&#xd6;" horiz-adv-x="1730" 
d="M805 1655q-45 0 -71.5 26t-26.5 68q0 56 37.5 95.5t93.5 39.5q45 0 72.5 -28.5t27.5 -71.5q0 -50 -39 -89.5t-94 -39.5zM1241 1655q-45 0 -71.5 26t-26.5 68q0 56 38 95.5t93 39.5q45 0 72.5 -28.5t27.5 -71.5q0 -51 -38.5 -90t-94.5 -39zM797 -29q-290 0 -466.5 176.5
t-176.5 454.5q0 191 81.5 367.5t223.5 298.5q222 194 530 194q192 0 340 -84t226.5 -227.5t78.5 -321.5q0 -172 -72.5 -341t-197.5 -291q-113 -107 -259 -166.5t-308 -59.5zM801 131q127 0 240.5 47.5t203.5 134.5q102 101 155.5 235t53.5 275q0 216 -125 348t-344 132
q-237 0 -426 -164q-109 -100 -168 -238t-59 -291q0 -214 126 -346.5t343 -132.5z" />
    <glyph glyph-name="multiply" unicode="&#xd7;" 
d="M1204 965l-362 -318l268 -315l-113 -94l-264 313l-356 -313l-90 96l360 317l-266 316l111 94l266 -313l354 313z" />
    <glyph glyph-name="Oslash" unicode="&#xd8;" horiz-adv-x="1730" 
d="M1706 1343l-174 -153q102 -158 102 -361q0 -172 -72.5 -341t-197.5 -291q-113 -107 -259 -166.5t-308 -59.5q-280 0 -461 170l-170 -149l-86 98l174 154q-100 148 -100 358q0 191 81.5 367.5t223.5 298.5q222 194 530 194q279 0 459 -172l174 152zM559 1139
q-109 -100 -168 -238t-59 -291q0 -142 57 -250l932 818q-125 125 -336 125q-237 0 -426 -164zM1245 313q102 101 155.5 235t53.5 275q0 147 -57 252l-932 -819q128 -125 336 -125q127 0 240.5 47.5t203.5 134.5z" />
    <glyph glyph-name="Ugrave" unicode="&#xd9;" horiz-adv-x="1552" 
d="M905 1612l-223 301h199l192 -301h-168zM700 -29q-244 0 -379 115.5t-135 325.5q0 23 9 102l129 920h172l-127 -904q-7 -58 -7 -90q0 -158 84 -233.5t263 -75.5q205 0 328.5 101t150.5 298l127 904h172l-129 -920q-37 -257 -211 -400t-447 -143z" />
    <glyph glyph-name="Uacute" unicode="&#xda;" horiz-adv-x="1552" 
d="M786 1612l275 301h209l-305 -301h-179zM700 -29q-244 0 -379 115.5t-135 325.5q0 23 9 102l129 920h172l-127 -904q-7 -58 -7 -90q0 -158 84 -233.5t263 -75.5q205 0 328.5 101t150.5 298l127 904h172l-129 -920q-37 -257 -211 -400t-447 -143z" />
    <glyph glyph-name="Ucircumflex" unicode="&#xdb;" horiz-adv-x="1552" 
d="M965 1812l-215 -200h-177l322 301h152l239 -301h-160zM1315 1434h172l-129 -920q-37 -257 -211 -400t-447 -143q-244 0 -379 115.5t-135 325.5q0 23 9 102l129 920h172l-127 -904q-7 -58 -7 -90q0 -158 84 -233.5t263 -75.5q205 0 328.5 101t150.5 298z" />
    <glyph glyph-name="Udieresis" unicode="&#xdc;" horiz-adv-x="1552" 
d="M717 1655q-45 0 -72 26t-27 68q0 56 38 95.5t94 39.5q45 0 72.5 -28.5t27.5 -71.5q0 -50 -39 -89.5t-94 -39.5zM1153 1655q-45 0 -71.5 26t-26.5 68q0 56 38 95.5t93 39.5q45 0 72.5 -28.5t27.5 -71.5q0 -51 -38.5 -90t-94.5 -39zM700 -29q-244 0 -379 115.5t-135 325.5
q0 23 9 102l129 920h172l-127 -904q-7 -58 -7 -90q0 -158 84 -233.5t263 -75.5q205 0 328.5 101t150.5 298l127 904h172l-129 -920q-37 -257 -211 -400t-447 -143z" />
    <glyph glyph-name="Yacute" unicode="&#xdd;" horiz-adv-x="1314" 
d="M1149 1913l-305 -301h-178l274 301h209zM1225 1434h200l-671 -838l-86 -596h-172l86 596l-437 838h187l350 -686z" />
    <glyph glyph-name="Thorn" unicode="&#xde;" horiz-adv-x="1382" 
d="M891 1174q201 0 313.5 -98t112.5 -269q0 -102 -40 -206t-106 -169q-143 -143 -405 -143h-412l-41 -289h-172l203 1434h172l-37 -260h412zM1055 545q40 45 62 117.5t22 140.5q0 112 -67 162.5t-216 50.5h-399l-80 -570h397q195 0 281 99z" />
    <glyph glyph-name="germandbls" unicode="&#xdf;" horiz-adv-x="1255" 
d="M823 762q160 -18 244 -104.5t84 -221.5q0 -210 -150 -331t-385 -121q-71 0 -147 16l23 143q63 -14 118 -14q180 0 274.5 86.5t94.5 241.5q0 106 -74.5 161.5t-218.5 55.5h-123l23 147h39q187 0 284 105q45 48 67.5 116t22.5 134q0 99 -56 146.5t-175 47.5
q-152 0 -235.5 -76.5t-106.5 -236.5l-150 -1057h-163l149 1063q31 221 160 337t340 116q187 0 295 -90t108 -246q0 -94 -40.5 -183.5t-112.5 -148.5q-82 -63 -189 -86z" />
    <glyph glyph-name="agrave" unicode="&#xe0;" horiz-adv-x="1345" 
d="M932 1214h-168l-223 302h198zM1069 1036h164l-148 -1036h-163l28 193q-62 -102 -171 -162t-240 -60q-194 0 -312 127.5t-118 337.5q0 136 50 261t138 212q74 74 172.5 115t206.5 41q133 0 233.5 -62t132.5 -165zM856 231q73 64 112.5 161t39.5 198q0 148 -81.5 234.5
t-226.5 86.5q-165 0 -280 -112q-70 -70 -105.5 -165.5t-35.5 -191.5q0 -145 80 -232t221 -87q78 0 150 28.5t126 79.5z" />
    <glyph glyph-name="aacute" unicode="&#xe1;" horiz-adv-x="1345" 
d="M1128 1516l-305 -302h-178l275 302h208zM1069 1036h164l-148 -1036h-163l28 193q-62 -102 -171 -162t-240 -60q-194 0 -312 127.5t-118 337.5q0 136 50 261t138 212q74 74 172.5 115t206.5 41q133 0 233.5 -62t132.5 -165zM856 231q73 64 112.5 161t39.5 198
q0 148 -81.5 234.5t-226.5 86.5q-165 0 -280 -112q-70 -70 -105.5 -165.5t-35.5 -191.5q0 -145 80 -232t221 -87q78 0 150 28.5t126 79.5z" />
    <glyph glyph-name="acircumflex" unicode="&#xe2;" horiz-adv-x="1345" 
d="M825 1415l-215 -201h-176l322 302h151l240 -302h-160zM1069 1036h164l-148 -1036h-163l28 193q-62 -102 -171 -162t-240 -60q-194 0 -312 127.5t-118 337.5q0 136 50 261t138 212q74 74 172.5 115t206.5 41q133 0 233.5 -62t132.5 -165zM856 231q73 64 112.5 161
t39.5 198q0 148 -81.5 234.5t-226.5 86.5q-165 0 -280 -112q-70 -70 -105.5 -165.5t-35.5 -191.5q0 -145 80 -232t221 -87q78 0 150 28.5t126 79.5z" />
    <glyph glyph-name="atilde" unicode="&#xe3;" horiz-adv-x="1345" 
d="M674 1372q-35 0 -58.5 -32.5t-29.5 -96.5h-119q10 119 68.5 186.5t148.5 67.5q39 0 75.5 -20t88.5 -68q37 -36 57.5 -46.5t42.5 -10.5q35 0 58.5 33t29.5 98h119q-10 -120 -68.5 -187t-148.5 -67q-71 0 -164 88q-60 55 -100 55zM1069 1036h164l-148 -1036h-163l28 193
q-62 -102 -171 -162t-240 -60q-194 0 -312 127.5t-118 337.5q0 136 50 261t138 212q74 74 172.5 115t206.5 41q133 0 233.5 -62t132.5 -165zM856 231q73 64 112.5 161t39.5 198q0 148 -81.5 234.5t-226.5 86.5q-165 0 -280 -112q-70 -70 -105.5 -165.5t-35.5 -191.5
q0 -145 80 -232t221 -87q78 0 150 28.5t126 79.5z" />
    <glyph glyph-name="adieresis" unicode="&#xe4;" horiz-adv-x="1345" 
d="M578 1257q-45 0 -72 26.5t-27 68.5q0 56 37.5 95.5t93.5 39.5q45 0 73 -29t28 -72q0 -50 -39.5 -89.5t-93.5 -39.5zM1014 1257q-45 0 -72 26.5t-27 68.5q0 56 38.5 95.5t93.5 39.5q45 0 72.5 -28.5t27.5 -72.5q0 -51 -38.5 -90t-94.5 -39zM1069 1036h164l-148 -1036h-163
l28 193q-62 -102 -171 -162t-240 -60q-194 0 -312 127.5t-118 337.5q0 136 50 261t138 212q74 74 172.5 115t206.5 41q133 0 233.5 -62t132.5 -165zM856 231q73 64 112.5 161t39.5 198q0 148 -81.5 234.5t-226.5 86.5q-165 0 -280 -112q-70 -70 -105.5 -165.5t-35.5 -191.5
q0 -145 80 -232t221 -87q78 0 150 28.5t126 79.5z" />
    <glyph glyph-name="aring" unicode="&#xe5;" horiz-adv-x="1345" 
d="M793 1190q-97 0 -160.5 58t-63.5 147q0 108 83 187t196 79q95 0 158 -58t63 -145q0 -110 -82.5 -189t-193.5 -79zM844 1548q-62 0 -107 -43t-45 -104q0 -44 28 -72.5t77 -28.5q63 0 106 43.5t43 106.5q0 45 -26 71.5t-76 26.5zM1069 1036h164l-148 -1036h-163l28 193
q-62 -102 -171 -162t-240 -60q-194 0 -312 127.5t-118 337.5q0 136 50 261t138 212q74 74 172.5 115t206.5 41q133 0 233.5 -62t132.5 -165zM856 231q73 64 112.5 161t39.5 198q0 148 -81.5 234.5t-226.5 86.5q-165 0 -280 -112q-70 -70 -105.5 -165.5t-35.5 -191.5
q0 -145 80 -232t221 -87q78 0 150 28.5t126 79.5z" />
    <glyph glyph-name="ae" unicode="&#xe6;" horiz-adv-x="1941" 
d="M1419 1065q193 0 310.5 -116.5t117.5 -307.5q0 -39 -6 -82q-5 -36 -20 -88h-826q-2 -12 -2 -39q0 -146 80 -227.5t223 -81.5q193 0 365 166l100 -94q-85 -107 -207.5 -165.5t-263.5 -58.5q-153 0 -261 68.5t-150 187.5q-56 -117 -182 -186.5t-285 -69.5q-160 0 -253 74
t-93 199q0 77 31.5 146.5t90.5 115.5q123 94 353 94h305l12 82q4 32 4 45q0 90 -56 138t-163 48q-97 0 -185 -38t-153 -111l-94 100q75 95 194.5 148t256.5 53q136 0 222 -52.5t117 -152.5q76 98 183.5 151.5t234.5 53.5zM1122 788q-73 -79 -104 -188h661q2 12 2 37
q0 131 -70.5 202.5t-197.5 71.5q-171 0 -291 -123zM426 109q150 0 264 90t131 221l8 51h-303q-164 0 -235 -68q-55 -47 -55 -145q0 -72 48 -110.5t142 -38.5z" />
    <glyph glyph-name="ccedilla" unicode="&#xe7;" horiz-adv-x="1153" 
d="M590 123q208 0 325 209l144 -62q-62 -123 -175.5 -200.5t-252.5 -94.5l-156 -366h-174l186 366q-174 23 -277.5 147t-103.5 308q0 141 56.5 270.5t159.5 217.5q169 147 391 147q160 0 271.5 -80t143.5 -219l-159 -64q-59 209 -267 209q-170 0 -282 -112
q-67 -65 -105.5 -162t-38.5 -195q0 -147 84 -233t230 -86z" />
    <glyph glyph-name="egrave" unicode="&#xe8;" horiz-adv-x="1228" 
d="M870 1214h-168l-223 302h199zM1106 469h-834v-31q0 -152 80.5 -233.5t227.5 -81.5q211 0 364 166l103 -92q-188 -226 -474 -226q-213 0 -340 125.5t-127 331.5q0 137 53.5 269t149.5 221q160 147 387 147q194 0 315.5 -117t121.5 -309q0 -72 -27 -170zM412 803
q-76 -74 -115 -201h668q2 12 2 33q0 133 -71.5 204.5t-203.5 71.5q-166 0 -280 -108z" />
    <glyph glyph-name="eacute" unicode="&#xe9;" horiz-adv-x="1228" 
d="M1067 1516l-305 -302h-178l274 302h209zM1106 469h-834v-31q0 -152 80.5 -233.5t227.5 -81.5q211 0 364 166l103 -92q-188 -226 -474 -226q-213 0 -340 125.5t-127 331.5q0 137 53.5 269t149.5 221q160 147 387 147q194 0 315.5 -117t121.5 -309q0 -72 -27 -170zM412 803
q-76 -74 -115 -201h668q2 12 2 33q0 133 -71.5 204.5t-203.5 71.5q-166 0 -280 -108z" />
    <glyph glyph-name="ecircumflex" unicode="&#xea;" horiz-adv-x="1228" 
d="M764 1415l-215 -201h-176l321 302h152l239 -302h-159zM1106 469h-834v-31q0 -152 80.5 -233.5t227.5 -81.5q211 0 364 166l103 -92q-188 -226 -474 -226q-213 0 -340 125.5t-127 331.5q0 137 53.5 269t149.5 221q160 147 387 147q194 0 315.5 -117t121.5 -309
q0 -72 -27 -170zM412 803q-76 -74 -115 -201h668q2 12 2 33q0 133 -71.5 204.5t-203.5 71.5q-166 0 -280 -108z" />
    <glyph glyph-name="edieresis" unicode="&#xeb;" horiz-adv-x="1228" 
d="M516 1257q-45 0 -71.5 26.5t-26.5 68.5q0 56 37.5 95.5t93.5 39.5q45 0 72.5 -28.5t27.5 -72.5q0 -50 -39.5 -89.5t-93.5 -39.5zM952 1257q-45 0 -71.5 26.5t-26.5 68.5q0 56 38 95.5t93 39.5q45 0 72.5 -28.5t27.5 -72.5q0 -51 -38.5 -90t-94.5 -39zM1106 469h-834v-31
q0 -152 80.5 -233.5t227.5 -81.5q211 0 364 166l103 -92q-188 -226 -474 -226q-213 0 -340 125.5t-127 331.5q0 137 53.5 269t149.5 221q160 147 387 147q194 0 315.5 -117t121.5 -309q0 -72 -27 -170zM412 803q-76 -74 -115 -201h668q2 12 2 33q0 133 -71.5 204.5
t-203.5 71.5q-166 0 -280 -108z" />
    <glyph glyph-name="igrave" unicode="&#xec;" horiz-adv-x="538" 
d="M348 1214l-184 302h196l152 -302h-164zM115 0l147 1036h164l-147 -1036h-164z" />
    <glyph glyph-name="iacute" unicode="&#xed;" horiz-adv-x="538" 
d="M229 1214l234 302h199l-267 -302h-166zM115 0l147 1036h164l-147 -1036h-164z" />
    <glyph glyph-name="icircumflex" unicode="&#xee;" horiz-adv-x="538" 
d="M485 1516l207 -302h-155l-136 203l-188 -203h-170l291 302h151zM115 0l147 1036h164l-147 -1036h-164z" />
    <glyph glyph-name="idieresis" unicode="&#xef;" horiz-adv-x="538" 
d="M184 1257q-44 0 -71 26.5t-27 68.5q0 56 38.5 95.5t94.5 39.5q44 0 72 -28.5t28 -72.5q0 -51 -39.5 -90t-95.5 -39zM561 1257q-45 0 -71.5 26.5t-26.5 68.5q0 56 38.5 95.5t94.5 39.5q44 0 72 -28.5t28 -72.5q0 -51 -39.5 -90t-95.5 -39zM115 0l147 1036h164l-147 -1036
h-164z" />
    <glyph glyph-name="eth" unicode="&#xf0;" horiz-adv-x="1280" 
d="M950 1321q236 -236 236 -600q0 -171 -45.5 -318.5t-141.5 -248.5q-180 -183 -428 -183q-216 0 -341.5 127t-125.5 320q0 121 49 242.5t136 205.5q77 72 178.5 113t214.5 41q112 0 204 -41t140 -127q-29 236 -199 389l-245 -158l-52 84l213 138q-104 68 -247 112l63 123
q186 -54 313 -154l236 152l51 -84zM874 246q60 60 95 142t35 173q0 141 -82 225t-230 84q-182 0 -299 -120q-59 -61 -90 -146t-31 -172q0 -141 79 -226t222 -85q176 0 301 125z" />
    <glyph glyph-name="ntilde" unicode="&#xf1;" horiz-adv-x="1259" 
d="M616 1372q-35 0 -58.5 -32.5t-29.5 -96.5h-118q10 119 68.5 186.5t148.5 67.5q39 0 75.5 -20t88.5 -68q37 -36 57.5 -46.5t42.5 -10.5q35 0 58.5 33t29.5 98h119q-10 -120 -68.5 -187t-148.5 -67q-71 0 -164 88q-60 55 -101 55zM782 1065q157 0 241.5 -82.5t84.5 -234.5
q0 -40 -6 -86l-92 -662h-164l88 623q6 46 6 84q0 105 -52 154.5t-157 49.5q-142 0 -245 -80.5t-121 -214.5l-89 -616h-163l147 1036h164l-27 -180q57 101 157.5 155t227.5 54z" />
    <glyph glyph-name="ograve" unicode="&#xf2;" horiz-adv-x="1288" 
d="M719 1214l-223 302h198l193 -302h-168zM580 -29q-143 0 -251 62.5t-164 167.5t-56 237q0 135 57.5 264.5t155.5 217.5q161 145 387 145q215 0 344 -133.5t129 -333.5q0 -136 -61 -269t-165 -220q-164 -138 -376 -138zM584 123q158 0 274 106q76 70 115 167t39 196
q0 147 -79 233t-222 86q-169 0 -289 -114q-70 -68 -106.5 -162t-36.5 -191q0 -147 81 -234t224 -87z" />
    <glyph glyph-name="oacute" unicode="&#xf3;" horiz-adv-x="1288" 
d="M600 1214l274 302h209l-305 -302h-178zM580 -29q-143 0 -251 62.5t-164 167.5t-56 237q0 135 57.5 264.5t155.5 217.5q161 145 387 145q215 0 344 -133.5t129 -333.5q0 -136 -61 -269t-165 -220q-164 -138 -376 -138zM584 123q158 0 274 106q76 70 115 167t39 196
q0 147 -79 233t-222 86q-169 0 -289 -114q-70 -68 -106.5 -162t-36.5 -191q0 -147 81 -234t224 -87z" />
    <glyph glyph-name="ocircumflex" unicode="&#xf4;" horiz-adv-x="1288" 
d="M778 1415l-215 -201h-176l322 302h151l240 -302h-160zM709 1065q215 0 344 -133.5t129 -333.5q0 -136 -61 -269t-165 -220q-164 -138 -376 -138q-143 0 -251 62.5t-164 167.5t-56 237q0 135 57.5 264.5t155.5 217.5q161 145 387 145zM858 229q76 70 115 167t39 196
q0 147 -79 233t-222 86q-169 0 -289 -114q-70 -68 -106.5 -162t-36.5 -191q0 -147 81 -234t224 -87q158 0 274 106z" />
    <glyph glyph-name="otilde" unicode="&#xf5;" horiz-adv-x="1288" 
d="M891 1229q-71 0 -164 88q-60 55 -100 55q-35 0 -58.5 -32.5t-29.5 -96.5h-119q10 119 68.5 186.5t148.5 67.5q39 0 75.5 -20t88.5 -68q37 -36 57.5 -46.5t42.5 -10.5q35 0 58.5 33t29.5 98h119q-10 -120 -68.5 -187t-148.5 -67zM580 -29q-143 0 -251 62.5t-164 167.5
t-56 237q0 135 57.5 264.5t155.5 217.5q161 145 387 145q215 0 344 -133.5t129 -333.5q0 -136 -61 -269t-165 -220q-164 -138 -376 -138zM584 123q158 0 274 106q76 70 115 167t39 196q0 147 -79 233t-222 86q-169 0 -289 -114q-70 -68 -106.5 -162t-36.5 -191
q0 -147 81 -234t224 -87z" />
    <glyph glyph-name="odieresis" unicode="&#xf6;" horiz-adv-x="1288" 
d="M530 1257q-45 0 -71.5 26.5t-26.5 68.5q0 56 37.5 95.5t93.5 39.5q45 0 73 -29t28 -72q0 -50 -39.5 -89.5t-94.5 -39.5zM967 1257q-45 0 -72 26.5t-27 68.5q0 56 38 95.5t93 39.5q45 0 73 -29t28 -72q0 -51 -38.5 -90t-94.5 -39zM580 -29q-143 0 -251 62.5t-164 167.5
t-56 237q0 135 57.5 264.5t155.5 217.5q161 145 387 145q215 0 344 -133.5t129 -333.5q0 -136 -61 -269t-165 -220q-164 -138 -376 -138zM584 123q158 0 274 106q76 70 115 167t39 196q0 147 -79 233t-222 86q-169 0 -289 -114q-70 -68 -106.5 -162t-36.5 -191
q0 -147 81 -234t224 -87z" />
    <glyph glyph-name="divide" unicode="&#xf7;" 
d="M786 893q-49 0 -77.5 29t-28.5 75q0 51 36.5 88t88.5 37q49 0 77.5 -29t28.5 -75q0 -52 -36.5 -88.5t-88.5 -36.5zM287 578l18 143h899l-18 -143h-899zM686 176q-49 0 -77.5 29t-28.5 76q0 51 36.5 88t88.5 37q49 0 77.5 -29t28.5 -76q0 -53 -36.5 -89t-88.5 -36z" />
    <glyph glyph-name="oslash" unicode="&#xf8;" horiz-adv-x="1294" 
d="M1274 987l-154 -137q66 -114 66 -252q0 -135 -62 -268t-166 -221q-164 -138 -376 -138q-201 0 -330 119l-150 -133l-82 92l156 137q-65 112 -65 252q0 135 57.5 264.5t155.5 217.5q161 145 387 145q200 0 329 -119l152 133zM424 797q-70 -68 -106.5 -162t-36.5 -191
q0 -82 28 -149l615 541q-78 75 -211 75q-169 0 -289 -114zM862 229q75 71 113.5 167.5t38.5 195.5q0 75 -27 151l-614 -542q81 -78 213 -78q157 0 276 106z" />
    <glyph glyph-name="ugrave" unicode="&#xf9;" horiz-adv-x="1251" 
d="M862 1214h-168l-223 302h199zM977 1036h164l-148 -1036h-164l25 178q-58 -99 -162 -153t-231 -54q-152 0 -230.5 79t-78.5 229q0 43 6 96l94 661h164l-88 -622q-9 -59 -9 -103q0 -100 44.5 -144t144.5 -44q140 0 251 86t130 211z" />
    <glyph glyph-name="uacute" unicode="&#xfa;" horiz-adv-x="1251" 
d="M1059 1516l-305 -302h-179l275 302h209zM977 1036h164l-148 -1036h-164l25 178q-58 -99 -162 -153t-231 -54q-152 0 -230.5 79t-78.5 229q0 43 6 96l94 661h164l-88 -622q-9 -59 -9 -103q0 -100 44.5 -144t144.5 -44q140 0 251 86t130 211z" />
    <glyph glyph-name="ucircumflex" unicode="&#xfb;" horiz-adv-x="1251" 
d="M756 1415l-215 -201h-176l321 302h152l239 -302h-159zM977 1036h164l-148 -1036h-164l25 178q-58 -99 -162 -153t-231 -54q-152 0 -230.5 79t-78.5 229q0 43 6 96l94 661h164l-88 -622q-9 -59 -9 -103q0 -100 44.5 -144t144.5 -44q140 0 251 86t130 211z" />
    <glyph glyph-name="udieresis" unicode="&#xfc;" horiz-adv-x="1251" 
d="M508 1257q-45 0 -71.5 26.5t-26.5 68.5q0 56 37.5 95.5t93.5 39.5q45 0 72.5 -28.5t27.5 -72.5q0 -50 -39.5 -89.5t-93.5 -39.5zM944 1257q-45 0 -71.5 26.5t-26.5 68.5q0 56 38 95.5t93 39.5q45 0 72.5 -28.5t27.5 -72.5q0 -51 -38.5 -90t-94.5 -39zM977 1036h164
l-148 -1036h-164l25 178q-58 -99 -162 -153t-231 -54q-152 0 -230.5 79t-78.5 229q0 43 6 96l94 661h164l-88 -622q-9 -59 -9 -103q0 -100 44.5 -144t144.5 -44q140 0 251 86t130 211z" />
    <glyph glyph-name="yacute" unicode="&#xfd;" horiz-adv-x="1105" 
d="M993 1516l-305 -302h-178l274 302h209zM967 1036h176l-789 -1444h-168l213 396l-284 1048h168l225 -866z" />
    <glyph glyph-name="thorn" unicode="&#xfe;" horiz-adv-x="1343" 
d="M809 1065q190 0 309 -126.5t119 -334.5q0 -133 -52.5 -262t-148.5 -221q-156 -150 -366 -150q-136 0 -235 63.5t-130 168.5l-86 -613h-164l269 1909h163l-92 -653q61 101 173.5 160t240.5 59zM930 246q66 68 102.5 163.5t36.5 192.5q0 141 -76.5 225t-218.5 84
q-179 0 -307 -131q-62 -67 -96.5 -157t-34.5 -183q0 -143 82 -230t223 -87q169 0 289 123z" />
    <glyph glyph-name="ydieresis" unicode="&#xff;" horiz-adv-x="1105" 
d="M442 1257q-45 0 -72.5 26.5t-27.5 68.5q0 56 38.5 95.5t94.5 39.5q45 0 72.5 -28.5t27.5 -72.5q0 -50 -39.5 -89.5t-93.5 -39.5zM879 1257q-45 0 -72 26.5t-27 68.5q0 56 38 95.5t93 39.5q45 0 73 -29t28 -72q0 -50 -39 -89.5t-94 -39.5zM967 1036h176l-789 -1444h-168
l213 396l-284 1048h168l225 -866z" />
    <glyph glyph-name="Amacron" unicode="&#x100;" 
d="M1212 1792l-16 -133h-616l16 133h616zM1161 0l-102 393h-692l-213 -393h-183l789 1434h190l383 -1434h-172zM451 549h569l-184 713z" />
    <glyph glyph-name="amacron" unicode="&#x101;" horiz-adv-x="1345" 
d="M1122 1395l-16 -133h-617l17 133h616zM1069 1036h164l-148 -1036h-163l28 193q-62 -102 -171 -162t-240 -60q-194 0 -312 127.5t-118 337.5q0 136 50 261t138 212q74 74 172.5 115t206.5 41q133 0 233.5 -62t132.5 -165zM856 231q73 64 112.5 161t39.5 198
q0 148 -81.5 234.5t-226.5 86.5q-165 0 -280 -112q-70 -70 -105.5 -165.5t-35.5 -191.5q0 -145 80 -232t221 -87q78 0 150 28.5t126 79.5z" />
    <glyph glyph-name="Abreve" unicode="&#x102;" 
d="M889 1599q-129 0 -203 60.5t-74 163.5q0 27 4 51h144q-2 -12 -2 -35q0 -121 131 -121q75 0 124.5 41.5t59.5 114.5h146l-2 -8q-18 -124 -103.5 -195.5t-224.5 -71.5zM1161 0l-102 393h-692l-213 -393h-183l789 1434h190l383 -1434h-172zM451 549h569l-184 713z" />
    <glyph glyph-name="abreve" unicode="&#x103;" horiz-adv-x="1345" 
d="M799 1202q-129 0 -203 60t-74 163q0 28 4 52h144q-2 -12 -2 -35q0 -121 131 -121q75 0 124.5 41.5t59.5 114.5h145l-2 -9q-18 -124 -103 -195t-224 -71zM1069 1036h164l-148 -1036h-163l28 193q-62 -102 -171 -162t-240 -60q-194 0 -312 127.5t-118 337.5q0 136 50 261
t138 212q74 74 172.5 115t206.5 41q133 0 233.5 -62t132.5 -165zM856 231q73 64 112.5 161t39.5 198q0 148 -81.5 234.5t-226.5 86.5q-165 0 -280 -112q-70 -70 -105.5 -165.5t-35.5 -191.5q0 -145 80 -232t221 -87q78 0 150 28.5t126 79.5z" />
    <glyph glyph-name="Aogonek" unicode="&#x104;" 
d="M1108 -233q0 -72 117 -72h67l-20 -133h-84q-116 0 -180 46t-64 120q0 150 230 272h-13l-102 393h-692l-213 -393h-183l789 1434h190l383 -1434q-19 -15 -58.5 -43.5t-62.5 -47t-50.5 -44t-40.5 -50t-13 -48.5zM451 549h569l-184 713z" />
    <glyph glyph-name="aogonek" unicode="&#x105;" horiz-adv-x="1345" 
d="M1085 0q-19 -15 -58.5 -43.5t-62.5 -47t-50.5 -44t-40.5 -50t-13 -48.5q0 -72 117 -72h67l-20 -133h-84q-116 0 -180 46t-64 120q0 150 230 272h-4l28 193q-62 -102 -171 -162t-240 -60q-194 0 -312 127.5t-118 337.5q0 136 50 261t138 212q74 74 172.5 115t206.5 41
q133 0 233.5 -62t132.5 -165l27 198h164zM856 231q73 64 112.5 161t39.5 198q0 148 -81.5 234.5t-226.5 86.5q-165 0 -280 -112q-70 -70 -105.5 -165.5t-35.5 -191.5q0 -145 80 -232t221 -87q78 0 150 28.5t126 79.5z" />
    <glyph glyph-name="Cacute" unicode="&#x106;" horiz-adv-x="1558" 
d="M858 1612l275 301h208l-305 -301h-178zM776 -29q-189 0 -331.5 81t-217.5 222.5t-75 321.5q0 207 95 396.5t259 312.5q219 157 483 157q203 0 352.5 -94.5t212.5 -273.5l-145 -82q-111 291 -428 291q-223 0 -391 -136q-125 -98 -191.5 -246.5t-66.5 -314.5
q0 -216 121.5 -345.5t337.5 -129.5q159 0 296.5 73t233.5 218l135 -82q-114 -179 -295 -274t-385 -95z" />
    <glyph glyph-name="cacute" unicode="&#x107;" horiz-adv-x="1153" 
d="M590 1214l274 302h209l-305 -302h-178zM557 -29q-204 0 -327.5 128t-123.5 331q0 141 56.5 270.5t159.5 217.5q169 147 391 147q160 0 271.5 -80t143.5 -219l-159 -64q-59 209 -267 209q-170 0 -282 -112q-67 -65 -105.5 -162t-38.5 -195q0 -147 84 -233t230 -86
q208 0 325 209l144 -62q-71 -140 -206 -219.5t-296 -79.5z" />
    <glyph glyph-name="Ccircumflex" unicode="&#x108;" horiz-adv-x="1558" 
d="M1038 1812l-215 -200h-176l322 301h151l240 -301h-160zM791 131q159 0 296.5 73t233.5 218l135 -82q-114 -179 -295 -274t-385 -95q-189 0 -331.5 81t-217.5 222.5t-75 321.5q0 207 95 396.5t259 312.5q219 157 483 157q203 0 352.5 -94.5t212.5 -273.5l-145 -82
q-111 291 -428 291q-223 0 -391 -136q-125 -98 -191.5 -246.5t-66.5 -314.5q0 -216 121.5 -345.5t337.5 -129.5z" />
    <glyph glyph-name="ccircumflex" unicode="&#x109;" horiz-adv-x="1153" 
d="M768 1415l-215 -201h-176l321 302h152l240 -302h-160zM590 123q208 0 325 209l144 -62q-71 -140 -206 -219.5t-296 -79.5q-204 0 -327.5 128t-123.5 331q0 141 56.5 270.5t159.5 217.5q169 147 391 147q160 0 271.5 -80t143.5 -219l-159 -64q-59 209 -267 209
q-170 0 -282 -112q-67 -65 -105.5 -162t-38.5 -195q0 -147 84 -233t230 -86z" />
    <glyph glyph-name="Cdotaccent" unicode="&#x10a;" horiz-adv-x="1558" 
d="M1008 1655q-44 0 -71.5 26.5t-27.5 67.5q0 56 38.5 95.5t94.5 39.5q44 0 72.5 -28.5t28.5 -71.5q0 -51 -39.5 -90t-95.5 -39zM776 -29q-189 0 -331.5 81t-217.5 222.5t-75 321.5q0 207 95 396.5t259 312.5q219 157 483 157q203 0 352.5 -94.5t212.5 -273.5l-145 -82
q-111 291 -428 291q-223 0 -391 -136q-125 -98 -191.5 -246.5t-66.5 -314.5q0 -216 121.5 -345.5t337.5 -129.5q159 0 296.5 73t233.5 218l135 -82q-114 -179 -295 -274t-385 -95z" />
    <glyph glyph-name="cdotaccent" unicode="&#x10b;" horiz-adv-x="1153" 
d="M737 1257q-44 0 -71 26.5t-27 68.5q0 56 38.5 95.5t94.5 39.5q44 0 72 -29t28 -72q0 -51 -39.5 -90t-95.5 -39zM557 -29q-204 0 -327.5 128t-123.5 331q0 141 56.5 270.5t159.5 217.5q169 147 391 147q160 0 271.5 -80t143.5 -219l-159 -64q-59 209 -267 209
q-170 0 -282 -112q-67 -65 -105.5 -162t-38.5 -195q0 -147 84 -233t230 -86q208 0 325 209l144 -62q-71 -140 -206 -219.5t-296 -79.5z" />
    <glyph glyph-name="Ccaron" unicode="&#x10c;" horiz-adv-x="1558" 
d="M1079 1612h-151l-240 301h160l162 -201l217 201h174zM791 131q159 0 296.5 73t233.5 218l135 -82q-114 -179 -295 -274t-385 -95q-189 0 -331.5 81t-217.5 222.5t-75 321.5q0 207 95 396.5t259 312.5q219 157 483 157q203 0 352.5 -94.5t212.5 -273.5l-145 -82
q-111 291 -428 291q-223 0 -391 -136q-125 -98 -191.5 -246.5t-66.5 -314.5q0 -216 121.5 -345.5t337.5 -129.5z" />
    <glyph glyph-name="ccaron" unicode="&#x10d;" horiz-adv-x="1153" 
d="M809 1214h-152l-239 302h160l161 -201l217 201h174zM420 799q-67 -65 -105.5 -162t-38.5 -195q0 -147 84 -233t230 -86q208 0 325 209l144 -62q-71 -140 -206 -219.5t-296 -79.5q-204 0 -327.5 128t-123.5 331q0 141 56.5 270.5t159.5 217.5q169 147 391 147
q160 0 271.5 -80t143.5 -219l-159 -64q-59 209 -267 209q-170 0 -282 -112z" />
    <glyph glyph-name="Dcaron" unicode="&#x10e;" horiz-adv-x="1570" 
d="M940 1612h-152l-239 301h160l161 -201l217 201h175zM856 1434q284 0 451.5 -154.5t167.5 -427.5q0 -173 -61.5 -340.5t-174.5 -284.5q-107 -110 -255 -168.5t-318 -58.5h-525l203 1434h512zM1128 350q81 93 123.5 225.5t42.5 266.5q0 432 -450 432h-350l-156 -1114h332
q289 0 458 190z" />
    <glyph glyph-name="dcaron" unicode="&#x10f;" horiz-adv-x="1443" 
d="M1036 834l94 665h164l-211 -1499h-163l26 188q-59 -98 -169 -157.5t-240 -59.5q-193 0 -312 126.5t-119 332.5q0 137 54 270.5t153 223.5q75 68 170 104.5t195 36.5q132 0 229.5 -63.5t128.5 -167.5zM1466 1499h170l-98 -401h-127zM870 252q63 65 99.5 155.5t36.5 186.5
q0 143 -82.5 230t-227.5 87q-166 0 -276 -110q-72 -69 -109 -167t-37 -198q0 -143 77 -228t216 -85q174 0 303 129z" />
    <glyph glyph-name="Dcroat" unicode="&#x110;" horiz-adv-x="1607" 
d="M893 1434q285 0 452.5 -154.5t167.5 -427.5q0 -173 -61 -340.5t-174 -284.5q-107 -110 -255.5 -168.5t-320.5 -58.5h-522l92 647h-192l20 139h191l92 648h510zM1165 350q83 93 125.5 225t42.5 267q0 432 -450 432h-351l-69 -488h414l-21 -139h-412l-69 -487h334
q140 0 257.5 48.5t198.5 141.5z" />
    <glyph glyph-name="dcroat" unicode="&#x111;" horiz-adv-x="1343" 
d="M1454 1327l-20 -129h-183l-168 -1198h-163l28 193q-62 -102 -172 -162t-241 -60q-193 0 -312 125t-119 326q0 141 59.5 273.5t164.5 217.5q148 123 348 123q139 0 234.5 -63t125.5 -164l54 389h-367l20 129h363l24 172h164l-24 -172h184zM870 248q64 63 99 145.5
t35 171.5q0 144 -84.5 232t-229.5 88q-156 0 -268 -103q-70 -63 -108 -152.5t-38 -191.5q0 -144 75 -229.5t216 -85.5q86 0 164.5 33.5t138.5 91.5z" />
    <glyph glyph-name="Emacron" unicode="&#x112;" horiz-adv-x="1366" 
d="M1178 1792l-17 -133h-616l16 133h617zM1298 1276h-806l-64 -475h764l-25 -156h-764l-65 -487h825l-24 -158h-998l203 1434h977z" />
    <glyph glyph-name="emacron" unicode="&#x113;" horiz-adv-x="1228" 
d="M1061 1395l-17 -133h-616l16 133h617zM1106 469h-834v-31q0 -152 80.5 -233.5t227.5 -81.5q211 0 364 166l103 -92q-188 -226 -474 -226q-213 0 -340 125.5t-127 331.5q0 137 53.5 269t149.5 221q160 147 387 147q194 0 315.5 -117t121.5 -309q0 -72 -27 -170zM412 803
q-76 -74 -115 -201h668q2 12 2 33q0 133 -71.5 204.5t-203.5 71.5q-166 0 -280 -108z" />
    <glyph glyph-name="Ebreve" unicode="&#x114;" horiz-adv-x="1366" 
d="M854 1599q-128 0 -202 60.5t-74 163.5q0 27 4 51h143q-2 -12 -2 -35q0 -121 131 -121q75 0 124.5 41.5t59.5 114.5h146l-2 -8q-18 -124 -103.5 -195.5t-224.5 -71.5zM1298 1276h-806l-64 -475h764l-25 -156h-764l-65 -487h825l-24 -158h-998l203 1434h977z" />
    <glyph glyph-name="ebreve" unicode="&#x115;" horiz-adv-x="1228" 
d="M737 1202q-129 0 -202.5 60t-73.5 163q0 28 4 52h143q-2 -12 -2 -35q0 -121 131 -121q75 0 125 41.5t60 114.5h145l-2 -9q-18 -123 -103.5 -194.5t-224.5 -71.5zM1106 469h-834v-31q0 -152 80.5 -233.5t227.5 -81.5q211 0 364 166l103 -92q-188 -226 -474 -226
q-213 0 -340 125.5t-127 331.5q0 137 53.5 269t149.5 221q160 147 387 147q194 0 315.5 -117t121.5 -309q0 -72 -27 -170zM412 803q-76 -74 -115 -201h668q2 12 2 33q0 133 -71.5 204.5t-203.5 71.5q-166 0 -280 -108z" />
    <glyph glyph-name="Edotaccent" unicode="&#x116;" horiz-adv-x="1366" 
d="M850 1655q-44 0 -71 26t-27 68q0 56 38.5 95.5t94.5 39.5q44 0 72 -28.5t28 -71.5q0 -51 -39.5 -90t-95.5 -39zM1298 1276h-806l-64 -475h764l-25 -156h-764l-65 -487h825l-24 -158h-998l203 1434h977z" />
    <glyph glyph-name="edotaccent" unicode="&#x117;" horiz-adv-x="1228" 
d="M733 1257q-44 0 -71 26.5t-27 68.5q0 56 38.5 95.5t94.5 39.5q44 0 72 -29t28 -72q0 -51 -39.5 -90t-95.5 -39zM1106 469h-834v-31q0 -152 80.5 -233.5t227.5 -81.5q211 0 364 166l103 -92q-188 -226 -474 -226q-213 0 -340 125.5t-127 331.5q0 137 53.5 269t149.5 221
q160 147 387 147q194 0 315.5 -117t121.5 -309q0 -72 -27 -170zM412 803q-76 -74 -115 -201h668q2 12 2 33q0 133 -71.5 204.5t-203.5 71.5q-166 0 -280 -108z" />
    <glyph glyph-name="Eogonek" unicode="&#x118;" horiz-adv-x="1366" 
d="M1298 1276h-806l-64 -475h764l-25 -156h-764l-65 -487h825l-24 -158q-19 -15 -58.5 -43.5t-63 -47.5t-51 -44t-40.5 -49.5t-13 -48.5q0 -72 117 -72h68l-21 -133h-84q-115 0 -179 46t-64 120q0 151 229 272h-838l203 1434h977z" />
    <glyph glyph-name="eogonek" unicode="&#x119;" horiz-adv-x="1228" 
d="M1106 469h-834v-31q0 -152 80.5 -233.5t227.5 -81.5q211 0 364 166l103 -92q-95 -115 -226 -174q-18 -14 -58 -43.5t-63 -48t-50.5 -44t-40.5 -50t-13 -48.5q0 -72 117 -72h67l-20 -133h-84q-116 0 -180 46t-64 120q0 120 146 221h-5q-213 0 -340 125.5t-127 331.5
q0 137 53.5 269t149.5 221q160 147 387 147q194 0 315.5 -117t121.5 -309q0 -72 -27 -170zM412 803q-76 -74 -115 -201h668q2 12 2 33q0 133 -71.5 204.5t-203.5 71.5q-166 0 -280 -108z" />
    <glyph glyph-name="Ecaron" unicode="&#x11a;" horiz-adv-x="1366" 
d="M922 1612h-152l-240 301h160l162 -201l217 201h174zM1298 1276h-806l-64 -475h764l-25 -156h-764l-65 -487h825l-24 -158h-998l203 1434h977z" />
    <glyph glyph-name="ecaron" unicode="&#x11b;" horiz-adv-x="1228" 
d="M805 1214h-152l-239 302h159l162 -201l217 201h174zM1106 469h-834v-31q0 -152 80.5 -233.5t227.5 -81.5q211 0 364 166l103 -92q-188 -226 -474 -226q-213 0 -340 125.5t-127 331.5q0 137 53.5 269t149.5 221q160 147 387 147q194 0 315.5 -117t121.5 -309
q0 -72 -27 -170zM412 803q-76 -74 -115 -201h668q2 12 2 33q0 133 -71.5 204.5t-203.5 71.5q-166 0 -280 -108z" />
    <glyph glyph-name="Gcircumflex" unicode="&#x11c;" horiz-adv-x="1603" 
d="M1036 1812l-215 -200h-176l322 301h151l240 -301h-160zM920 604l22 158h551l-80 -563q-94 -106 -250.5 -167t-341.5 -61q-313 0 -491 169.5t-178 449.5q0 182 70 355.5t196 291.5q111 108 255 166.5t308 58.5q185 0 327.5 -73.5t213.5 -204.5l-144 -94q-110 213 -395 213
q-134 0 -251.5 -49t-205.5 -140q-95 -96 -145.5 -234.5t-50.5 -279.5q0 -222 131.5 -345.5t365.5 -123.5q129 0 244 37.5t184 97.5l48 338h-383z" />
    <glyph glyph-name="gcircumflex" unicode="&#x11d;" horiz-adv-x="1343" 
d="M807 1415l-215 -201h-176l321 302h152l239 -302h-159zM1067 1036h164l-131 -923q-37 -269 -189 -411t-409 -142q-148 0 -266.5 48t-186.5 132l105 113q130 -140 348 -140q181 0 293 101.5t141 298.5l16 106q-60 -102 -169.5 -160.5t-239.5 -58.5q-194 0 -314 122.5
t-120 321.5q0 143 56.5 274t158.5 218q154 129 354 129q133 0 230.5 -60t131.5 -163zM877 276q131 134 131 326q0 141 -79.5 225t-223.5 84q-172 0 -281 -106q-71 -67 -108 -159t-37 -191q0 -137 77.5 -220t218.5 -83q178 0 302 124z" />
    <glyph glyph-name="Gbreve" unicode="&#x11e;" horiz-adv-x="1603" 
d="M1010 1599q-129 0 -203 60.5t-74 163.5q0 27 4 51h144q-2 -12 -2 -35q0 -121 131 -121q75 0 124.5 41.5t59.5 114.5h145l-2 -8q-18 -124 -103 -195.5t-224 -71.5zM920 604l22 158h551l-80 -563q-94 -106 -250.5 -167t-341.5 -61q-313 0 -491 169.5t-178 449.5
q0 182 70 355.5t196 291.5q111 108 255 166.5t308 58.5q185 0 327.5 -73.5t213.5 -204.5l-144 -94q-110 213 -395 213q-134 0 -251.5 -49t-205.5 -140q-95 -96 -145.5 -234.5t-50.5 -279.5q0 -222 131.5 -345.5t365.5 -123.5q129 0 244 37.5t184 97.5l48 338h-383z" />
    <glyph glyph-name="gbreve" unicode="&#x11f;" horiz-adv-x="1343" 
d="M780 1202q-129 0 -202.5 60t-73.5 163q0 28 4 52h143q-2 -12 -2 -35q0 -121 131 -121q75 0 125 41.5t60 114.5h145l-2 -9q-18 -123 -103.5 -194.5t-224.5 -71.5zM1067 1036h164l-131 -923q-37 -269 -189 -411t-409 -142q-148 0 -266.5 48t-186.5 132l105 113
q130 -140 348 -140q181 0 293 101.5t141 298.5l16 106q-60 -102 -169.5 -160.5t-239.5 -58.5q-194 0 -314 122.5t-120 321.5q0 143 56.5 274t158.5 218q154 129 354 129q133 0 230.5 -60t131.5 -163zM877 276q131 134 131 326q0 141 -79.5 225t-223.5 84q-172 0 -281 -106
q-71 -67 -108 -159t-37 -191q0 -137 77.5 -220t218.5 -83q178 0 302 124z" />
    <glyph glyph-name="Gdotaccent" unicode="&#x120;" horiz-adv-x="1603" 
d="M1006 1655q-44 0 -71.5 26.5t-27.5 67.5q0 56 38.5 95.5t94.5 39.5q44 0 72.5 -28.5t28.5 -71.5q0 -51 -39.5 -90t-95.5 -39zM920 604l22 158h551l-80 -563q-94 -106 -250.5 -167t-341.5 -61q-313 0 -491 169.5t-178 449.5q0 182 70 355.5t196 291.5q111 108 255 166.5
t308 58.5q185 0 327.5 -73.5t213.5 -204.5l-144 -94q-110 213 -395 213q-134 0 -251.5 -49t-205.5 -140q-95 -96 -145.5 -234.5t-50.5 -279.5q0 -222 131.5 -345.5t365.5 -123.5q129 0 244 37.5t184 97.5l48 338h-383z" />
    <glyph glyph-name="gdotaccent" unicode="&#x121;" horiz-adv-x="1343" 
d="M776 1257q-44 0 -71 26.5t-27 68.5q0 56 38.5 95.5t94.5 39.5q44 0 72 -29t28 -72q0 -51 -39.5 -90t-95.5 -39zM1067 1036h164l-131 -923q-37 -269 -189 -411t-409 -142q-148 0 -266.5 48t-186.5 132l105 113q130 -140 348 -140q181 0 293 101.5t141 298.5l16 106
q-60 -102 -169.5 -160.5t-239.5 -58.5q-194 0 -314 122.5t-120 321.5q0 143 56.5 274t158.5 218q154 129 354 129q133 0 230.5 -60t131.5 -163zM877 276q131 134 131 326q0 141 -79.5 225t-223.5 84q-172 0 -281 -106q-71 -67 -108 -159t-37 -191q0 -137 77.5 -220
t218.5 -83q178 0 302 124z" />
    <glyph glyph-name="uni0122" unicode="&#x122;" horiz-adv-x="1603" 
d="M920 604l22 158h551l-80 -563q-94 -106 -250.5 -167t-341.5 -61q-313 0 -491 169.5t-178 449.5q0 182 70 355.5t196 291.5q111 108 255 166.5t308 58.5q185 0 327.5 -73.5t213.5 -204.5l-144 -94q-110 213 -395 213q-134 0 -251.5 -49t-205.5 -140q-95 -96 -145.5 -234.5
t-50.5 -279.5q0 -222 131.5 -345.5t365.5 -123.5q129 0 244 37.5t184 97.5l48 338h-383zM584 -516l108 330h170l-151 -330h-127z" />
    <glyph glyph-name="uni0123" unicode="&#x123;" horiz-adv-x="1343" 
d="M965 1552l-109 -329h-170l152 329h127zM1067 1036h164l-131 -923q-37 -269 -189 -411t-409 -142q-148 0 -266.5 48t-186.5 132l105 113q130 -140 348 -140q181 0 293 101.5t141 298.5l16 106q-60 -102 -169.5 -160.5t-239.5 -58.5q-194 0 -314 122.5t-120 321.5
q0 143 56.5 274t158.5 218q154 129 354 129q133 0 230.5 -60t131.5 -163zM877 276q131 134 131 326q0 141 -79.5 225t-223.5 84q-172 0 -281 -106q-71 -67 -108 -159t-37 -191q0 -137 77.5 -220t218.5 -83q178 0 302 124z" />
    <glyph glyph-name="Hcircumflex" unicode="&#x124;" horiz-adv-x="1605" 
d="M991 1812l-215 -200h-176l322 301h151l240 -301h-160zM1348 1434h172l-203 -1434h-172l92 655h-831l-93 -655h-172l203 1434h172l-88 -619h832z" />
    <glyph glyph-name="hcircumflex" unicode="&#x125;" horiz-adv-x="1259" 
d="M465 1878l-215 -201h-176l321 301h152l239 -301h-159zM782 1065q156 0 241 -82t85 -235q0 -40 -6 -86l-92 -662h-164l88 623q6 46 6 84q0 105 -52 154.5t-157 49.5q-142 0 -245 -80.5t-121 -214.5l-89 -616h-163l211 1499h163l-90 -643q55 99 156.5 154t228.5 55z" />
    <glyph glyph-name="Hbar" unicode="&#x126;" horiz-adv-x="1609" 
d="M1634 1192l-20 -139h-146l-149 -1053h-172l92 655h-831l-93 -655h-172l150 1053h-148l21 139h145l35 242h172l-35 -242h832l35 242h172l-35 -242h147zM1262 815l34 238h-831l-35 -238h832z" />
    <glyph glyph-name="hbar" unicode="&#x127;" horiz-adv-x="1259" 
d="M778 1036q155 0 241.5 -82t86.5 -233q0 -39 -6 -88l-90 -633h-164l84 596q6 46 6 84q0 105 -51.5 155t-157.5 50q-142 0 -245.5 -81t-121.5 -216l-84 -588h-163l168 1198h-183l21 129h180l25 172h163l-24 -172h366l-18 -129h-367l-51 -373q55 101 156 156t229 55z" />
    <glyph glyph-name="Itilde" unicode="&#x128;" horiz-adv-x="610" 
d="M606 1626q-71 0 -164 88q-60 55 -100 55q-35 0 -58.5 -32.5t-29.5 -96.5h-119q10 119 68.5 186.5t148.5 67.5q39 0 75.5 -20t88.5 -68q37 -36 57.5 -46.5t42.5 -10.5q35 0 59 33t30 98h118q-10 -120 -68.5 -187t-148.5 -67zM145 0l203 1434h172l-203 -1434h-172z" />
    <glyph glyph-name="itilde" unicode="&#x129;" horiz-adv-x="538" 
d="M516 1229q-35 0 -71 18.5t-91 69.5q-34 33 -54.5 44t-43.5 11q-52 0 -70 -129h-114q15 126 64.5 190t125.5 64q35 0 70.5 -20t85.5 -68q37 -36 57.5 -46.5t42.5 -10.5q56 0 74 131h113q-17 -127 -66.5 -190.5t-122.5 -63.5zM115 0l147 1036h164l-147 -1036h-164z" />
    <glyph glyph-name="Imacron" unicode="&#x12a;" horiz-adv-x="610" 
d="M158 1659l16 133h617l-17 -133h-616zM145 0l203 1434h172l-203 -1434h-172z" />
    <glyph glyph-name="imacron" unicode="&#x12b;" horiz-adv-x="538" 
d="M111 1262l16 133h530l-16 -133h-530zM115 0l147 1036h164l-147 -1036h-164z" />
    <glyph glyph-name="Ibreve" unicode="&#x12c;" horiz-adv-x="610" 
d="M467 1599q-129 0 -203 60.5t-74 163.5q0 21 5 51h143q-2 -12 -2 -35q0 -121 131 -121q75 0 124.5 41.5t59.5 114.5h146l-2 -8q-18 -124 -103.5 -195.5t-224.5 -71.5zM145 0l203 1434h172l-203 -1434h-172z" />
    <glyph glyph-name="ibreve" unicode="&#x12d;" horiz-adv-x="538" 
d="M373 1202q-122 0 -192 59.5t-70 161.5q0 24 6 54h137q-4 -28 -4 -41q0 -115 127 -115q76 0 122.5 41t57.5 115h137q-17 -133 -101 -204t-220 -71zM115 0l147 1036h164l-147 -1036h-164z" />
    <glyph glyph-name="Iogonek" unicode="&#x12e;" horiz-adv-x="610" 
d="M317 0q-19 -15 -58.5 -43.5t-62.5 -47t-50.5 -44t-40.5 -50t-13 -48.5q0 -72 117 -72h67l-20 -133h-84q-116 0 -180 46t-64 120q0 150 230 272h-13l203 1434h172z" />
    <glyph glyph-name="iogonek" unicode="&#x12f;" horiz-adv-x="538" 
d="M408 1487q44 0 72 -29t28 -72q0 -51 -39.5 -90t-95.5 -39q-44 0 -71.5 26.5t-27.5 68.5q0 56 38.5 95.5t95.5 39.5zM115 0l147 1036h164l-147 -1036q-19 -15 -58.5 -43.5t-63 -47.5t-51 -44t-40.5 -49.5t-13 -48.5q0 -72 117 -72h68l-21 -133h-84q-116 0 -180 46t-64 120
q0 150 230 272h-4z" />
    <glyph glyph-name="Idotaccent" unicode="&#x130;" horiz-adv-x="610" 
d="M463 1655q-44 0 -71 26t-27 68q0 56 38.5 95.5t94.5 39.5q44 0 72 -28.5t28 -71.5q0 -51 -39.5 -90t-95.5 -39zM145 0l203 1434h172l-203 -1434h-172z" />
    <glyph glyph-name="dotlessi" unicode="&#x131;" horiz-adv-x="538" 
d="M115 0l147 1036h164l-147 -1036h-164z" />
    <glyph glyph-name="Jcircumflex" unicode="&#x134;" horiz-adv-x="1206" 
d="M1194 1913l240 -301h-160l-162 200l-215 -200h-176l321 301h152zM842 528l127 906h172l-131 -926q-35 -250 -189.5 -393.5t-388.5 -143.5q-139 0 -249.5 53t-178.5 152l125 107q103 -152 307 -152q163 0 271 102t135 295z" />
    <glyph glyph-name="jcircumflex" unicode="&#x135;" horiz-adv-x="538" 
d="M485 1516l207 -302h-155l-136 203l-188 -203h-170l291 302h151zM96 -125l166 1161h164l-168 -1179q-19 -143 -105.5 -220t-240.5 -77q-52 0 -113 12l23 149q46 -12 94 -12q84 0 126.5 40.5t53.5 125.5z" />
    <glyph glyph-name="uni0136" unicode="&#x136;" horiz-adv-x="1417" 
d="M1493 1434l-690 -621l516 -813h-203l-442 696l-301 -270l-60 -426h-172l203 1434h172l-110 -779l866 779h221zM444 -516l109 330h170l-152 -330h-127z" />
    <glyph glyph-name="uni0137" unicode="&#x137;" horiz-adv-x="1134" 
d="M1167 1034l-530 -448l401 -586h-180l-338 487l-198 -168l-46 -319h-163l211 1499h163l-139 -983l608 520zM297 -516l109 330h167l-149 -330h-127z" />
    <glyph glyph-name="Lacute" unicode="&#x139;" horiz-adv-x="1220" 
d="M795 1913l-306 -301h-178l275 301h209zM338 160h766l-25 -160h-938l203 1434h172z" />
    <glyph glyph-name="lacute" unicode="&#x13a;" horiz-adv-x="534" 
d="M285 1677l274 301h209l-305 -301h-178zM113 0l211 1499h163l-211 -1499h-163z" />
    <glyph glyph-name="uni013B" unicode="&#x13b;" horiz-adv-x="1220" 
d="M338 160h766l-25 -160h-938l203 1434h172zM371 -516l108 330h170l-151 -330h-127z" />
    <glyph glyph-name="uni013C" unicode="&#x13c;" horiz-adv-x="534" 
d="M113 0l211 1499h163l-211 -1499h-163zM-23 -516l109 330h170l-152 -330h-127z" />
    <glyph glyph-name="Lcaron" unicode="&#x13d;" horiz-adv-x="1220" 
d="M999 1462l-98 -403h-127l55 403h170zM338 160h766l-25 -160h-938l203 1434h172z" />
    <glyph glyph-name="lcaron" unicode="&#x13e;" horiz-adv-x="655" 
d="M113 0l211 1499h163l-211 -1499h-163zM602 1098l55 401h170l-98 -401h-127z" />
    <glyph glyph-name="Ldot" unicode="&#x13f;" horiz-adv-x="1232" 
d="M338 160h766l-25 -160h-938l203 1434h172zM829 621q-56 0 -85 35.5t-21 93.5q6 47 40 77.5t85 30.5q56 0 86 -35.5t22 -91.5q-6 -50 -40.5 -80t-86.5 -30z" />
    <glyph glyph-name="ldot" unicode="&#x140;" horiz-adv-x="784" 
d="M113 0l211 1499h163l-211 -1499h-163zM659 621q-56 0 -85 35.5t-21 93.5q6 47 40 77.5t85 30.5q56 0 85 -35.5t23 -91.5q-6 -50 -40.5 -80t-86.5 -30z" />
    <glyph glyph-name="Lslash" unicode="&#x141;" horiz-adv-x="1245" 
d="M362 160h766l-24 -160h-938l76 528l-236 -112l21 157l235 113l107 748h172l-92 -658l530 254l-23 -156l-530 -256z" />
    <glyph glyph-name="lslash" unicode="&#x142;" horiz-adv-x="671" 
d="M713 1034l-23 -143l-237 -121l-109 -770h-164l96 682l-237 -121l20 146l238 118l94 674h164l-82 -586z" />
    <glyph glyph-name="Nacute" unicode="&#x143;" horiz-adv-x="1626" 
d="M1305 1913l-306 -301h-178l275 301h209zM1372 1434h168l-203 -1434h-159l-705 1163l-164 -1163h-168l203 1434h160l704 -1164z" />
    <glyph glyph-name="nacute" unicode="&#x144;" horiz-adv-x="1259" 
d="M1071 1516l-305 -302h-178l274 302h209zM782 1065q157 0 241.5 -82.5t84.5 -234.5q0 -40 -6 -86l-92 -662h-164l88 623q6 46 6 84q0 105 -52 154.5t-157 49.5q-142 0 -245 -80.5t-121 -214.5l-89 -616h-163l147 1036h164l-27 -180q57 101 157.5 155t227.5 54z" />
    <glyph glyph-name="uni0145" unicode="&#x145;" horiz-adv-x="1626" 
d="M1372 1434h168l-203 -1434h-159l-705 1163l-164 -1163h-168l203 1434h160l704 -1164zM522 -516l109 330h170l-152 -330h-127z" />
    <glyph glyph-name="uni0146" unicode="&#x146;" horiz-adv-x="1259" 
d="M782 1065q157 0 241.5 -82.5t84.5 -234.5q0 -40 -6 -86l-92 -662h-164l88 623q6 46 6 84q0 105 -52 154.5t-157 49.5q-142 0 -245 -80.5t-121 -214.5l-89 -616h-163l147 1036h164l-27 -180q57 101 157.5 155t227.5 54zM340 -516l109 330h169l-151 -330h-127z" />
    <glyph glyph-name="Ncaron" unicode="&#x147;" horiz-adv-x="1626" 
d="M1042 1612h-151l-240 301h160l162 -201l217 201h174zM1372 1434h168l-203 -1434h-159l-705 1163l-164 -1163h-168l203 1434h160l704 -1164z" />
    <glyph glyph-name="ncaron" unicode="&#x148;" horiz-adv-x="1259" 
d="M809 1214h-152l-239 302h160l161 -201l217 201h174zM782 1065q157 0 241.5 -82.5t84.5 -234.5q0 -40 -6 -86l-92 -662h-164l88 623q6 46 6 84q0 105 -52 154.5t-157 49.5q-142 0 -245 -80.5t-121 -214.5l-89 -616h-163l147 1036h164l-27 -180q57 101 157.5 155t227.5 54z
" />
    <glyph glyph-name="Eng" unicode="&#x14a;" horiz-adv-x="1626" 
d="M1372 1434h168l-217 -1528q-15 -126 -95.5 -193t-223.5 -67h-136l23 147h106q148 0 166 141l11 72l-701 1159l-164 -1165h-168l203 1434h160l704 -1166z" />
    <glyph glyph-name="eng" unicode="&#x14b;" horiz-adv-x="1259" 
d="M774 1065q159 0 246.5 -85t87.5 -241q0 -39 -6 -82l-101 -720q-21 -142 -106.5 -218.5t-237.5 -76.5q-55 0 -114 12l20 147q49 -12 94 -12q85 0 128 40.5t55 125.5l94 672q6 46 6 86q0 103 -49.5 150.5t-151.5 47.5q-145 0 -251 -82t-126 -217l-86 -612h-163l147 1036
h164l-27 -172q59 97 158 149t219 52z" />
    <glyph glyph-name="Omacron" unicode="&#x14c;" horiz-adv-x="1730" 
d="M717 1659l16 133h617l-17 -133h-616zM797 -29q-290 0 -466.5 176.5t-176.5 454.5q0 191 81.5 367.5t223.5 298.5q222 194 530 194q192 0 340 -84t226.5 -227.5t78.5 -321.5q0 -172 -72.5 -341t-197.5 -291q-113 -107 -259 -166.5t-308 -59.5zM801 131q127 0 240.5 47.5
t203.5 134.5q102 101 155.5 235t53.5 275q0 216 -125 348t-344 132q-237 0 -426 -164q-109 -100 -168 -238t-59 -291q0 -214 126 -346.5t343 -132.5z" />
    <glyph glyph-name="omacron" unicode="&#x14d;" horiz-adv-x="1288" 
d="M442 1262l17 133h616l-16 -133h-617zM580 -29q-143 0 -251 62.5t-164 167.5t-56 237q0 135 57.5 264.5t155.5 217.5q161 145 387 145q215 0 344 -133.5t129 -333.5q0 -136 -61 -269t-165 -220q-164 -138 -376 -138zM584 123q158 0 274 106q76 70 115 167t39 196
q0 147 -79 233t-222 86q-169 0 -289 -114q-70 -68 -106.5 -162t-36.5 -191q0 -147 81 -234t224 -87z" />
    <glyph glyph-name="Obreve" unicode="&#x14e;" horiz-adv-x="1730" 
d="M1026 1599q-128 0 -202 60.5t-74 163.5q0 27 4 51h143q-2 -12 -2 -35q0 -121 131 -121q75 0 124.5 41.5t59.5 114.5h146l-2 -8q-18 -124 -103.5 -195.5t-224.5 -71.5zM797 -29q-290 0 -466.5 176.5t-176.5 454.5q0 191 81.5 367.5t223.5 298.5q222 194 530 194
q192 0 340 -84t226.5 -227.5t78.5 -321.5q0 -172 -72.5 -341t-197.5 -291q-113 -107 -259 -166.5t-308 -59.5zM801 131q127 0 240.5 47.5t203.5 134.5q102 101 155.5 235t53.5 275q0 216 -125 348t-344 132q-237 0 -426 -164q-109 -100 -168 -238t-59 -291
q0 -214 126 -346.5t343 -132.5z" />
    <glyph glyph-name="obreve" unicode="&#x14f;" horiz-adv-x="1288" 
d="M752 1202q-129 0 -203 60t-74 163q0 28 4 52h144q-2 -12 -2 -35q0 -121 131 -121q75 0 124.5 41.5t59.5 114.5h145l-2 -9q-18 -124 -103 -195t-224 -71zM580 -29q-143 0 -251 62.5t-164 167.5t-56 237q0 135 57.5 264.5t155.5 217.5q161 145 387 145q215 0 344 -133.5
t129 -333.5q0 -136 -61 -269t-165 -220q-164 -138 -376 -138zM584 123q158 0 274 106q76 70 115 167t39 196q0 147 -79 233t-222 86q-169 0 -289 -114q-70 -68 -106.5 -162t-36.5 -191q0 -147 81 -234t224 -87z" />
    <glyph glyph-name="Ohungarumlaut" unicode="&#x150;" horiz-adv-x="1730" 
d="M690 1612l277 301h180l-289 -301h-168zM1057 1612l276 301h180l-288 -301h-168zM797 -29q-290 0 -466.5 176.5t-176.5 454.5q0 191 81.5 367.5t223.5 298.5q222 194 530 194q192 0 340 -84t226.5 -227.5t78.5 -321.5q0 -172 -72.5 -341t-197.5 -291
q-113 -107 -259 -166.5t-308 -59.5zM801 131q127 0 240.5 47.5t203.5 134.5q102 101 155.5 235t53.5 275q0 216 -125 348t-344 132q-237 0 -426 -164q-109 -100 -168 -238t-59 -291q0 -214 126 -346.5t343 -132.5z" />
    <glyph glyph-name="ohungarumlaut" unicode="&#x151;" horiz-adv-x="1288" 
d="M416 1214l276 302h180l-288 -302h-168zM782 1214l277 302h180l-289 -302h-168zM580 -29q-143 0 -251 62.5t-164 167.5t-56 237q0 135 57.5 264.5t155.5 217.5q161 145 387 145q215 0 344 -133.5t129 -333.5q0 -136 -61 -269t-165 -220q-164 -138 -376 -138zM584 123
q158 0 274 106q76 70 115 167t39 196q0 147 -79 233t-222 86q-169 0 -289 -114q-70 -68 -106.5 -162t-36.5 -191q0 -147 81 -234t224 -87z" />
    <glyph glyph-name="OE" unicode="&#x152;" horiz-adv-x="2287" 
d="M2220 1276h-805l-63 -475h764l-25 -156h-764l-67 -487h825l-23 -158h-1239q-318 0 -493.5 168t-175.5 440q0 175 70 337.5t196 275.5q240 213 602 213h1223zM846 158h241l158 1118h-239q-306 0 -484 -184q-92 -89 -141 -220t-49 -264q0 -208 132.5 -329t381.5 -121z" />
    <glyph glyph-name="oe" unicode="&#x153;" horiz-adv-x="2117" 
d="M1995 469h-836v-33q0 -147 84 -230t232 -83q212 0 362 166l105 -92q-89 -109 -211 -167.5t-267 -58.5q-158 0 -267 68.5t-155 191.5q-41 -62 -94 -112q-154 -148 -381 -148q-142 0 -248 62t-159.5 166t-53.5 235q0 143 64 280t172 224q160 127 363 127q153 0 259.5 -70.5
t155.5 -191.5q47 72 103 123q149 139 360 139q196 0 317 -116t121 -308q0 -74 -26 -172zM868 242q68 65 104 155.5t36 190.5q0 147 -82.5 235t-227.5 88q-156 0 -270 -102q-70 -66 -111 -165t-41 -202q0 -145 81.5 -232t224.5 -87q164 0 286 119zM1294 793
q-73 -76 -110 -191h671v31q0 137 -70.5 207.5t-201.5 70.5q-171 0 -289 -118z" />
    <glyph glyph-name="Racute" unicode="&#x154;" horiz-adv-x="1425" 
d="M1192 1913l-305 -301h-178l274 301h209zM1208 702q-129 -120 -362 -129l397 -573h-201l-397 573h-250l-82 -573h-172l203 1434h584q205 0 318.5 -96t113.5 -265q0 -102 -41 -204t-111 -167zM494 1276l-78 -549h407q189 0 273 90q82 92 82 250q0 107 -65.5 158t-213.5 51
h-405z" />
    <glyph glyph-name="racute" unicode="&#x155;" horiz-adv-x="823" 
d="M879 1516l-306 -302h-178l275 302h209zM393 834q49 103 141.5 160t208.5 57q60 0 91 -15l-19 -143q-44 6 -92 6q-151 0 -248 -91.5t-123 -275.5l-76 -532h-163l147 1036h164z" />
    <glyph glyph-name="uni0156" unicode="&#x156;" horiz-adv-x="1425" 
d="M1208 702q-129 -120 -362 -129l397 -573h-201l-397 573h-250l-82 -573h-172l203 1434h584q205 0 318.5 -96t113.5 -265q0 -102 -41 -204t-111 -167zM494 1276l-78 -549h407q189 0 273 90q82 92 82 250q0 107 -65.5 158t-213.5 51h-405zM428 -516l109 330h170l-152 -330
h-127z" />
    <glyph glyph-name="uni0157" unicode="&#x157;" horiz-adv-x="823" 
d="M743 1051q60 0 91 -15l-19 -143q-44 6 -92 6q-151 0 -248 -91.5t-123 -275.5l-76 -532h-163l147 1036h164l-31 -202q49 103 141.5 160t208.5 57zM-23 -516l109 330h170l-152 -330h-127z" />
    <glyph glyph-name="Rcaron" unicode="&#x158;" horiz-adv-x="1425" 
d="M928 1612h-152l-239 301h159l162 -201l217 201h174zM1208 702q-129 -120 -362 -129l397 -573h-201l-397 573h-250l-82 -573h-172l203 1434h584q205 0 318.5 -96t113.5 -265q0 -102 -41 -204t-111 -167zM494 1276l-78 -549h407q189 0 273 90q82 92 82 250q0 107 -65.5 158
t-213.5 51h-405z" />
    <glyph glyph-name="rcaron" unicode="&#x159;" horiz-adv-x="823" 
d="M614 1214h-151l-240 302h160l162 -201l217 201h174zM393 834q49 103 141.5 160t208.5 57q60 0 91 -15l-19 -143q-44 6 -92 6q-151 0 -248 -91.5t-123 -275.5l-76 -532h-163l147 1036h164z" />
    <glyph glyph-name="Sacute" unicode="&#x15a;" horiz-adv-x="1304" 
d="M664 1612l274 301h209l-305 -301h-178zM610 -29q-214 0 -358.5 89t-185.5 245l141 76q98 -254 401 -254q169 0 275 70q60 37 93.5 96t33.5 127q0 77 -54.5 126.5t-175.5 80.5l-219 55q-172 42 -261 130.5t-89 207.5q0 93 43.5 179.5t118.5 143.5q150 119 399 119
q188 0 320 -72.5t174 -189.5l-146 -82q-89 189 -352 189q-173 0 -281 -78q-46 -36 -73 -88.5t-27 -110.5q0 -72 55.5 -120.5t180.5 -78.5l221 -55q346 -84 346 -334q0 -120 -58 -220.5t-161 -162.5q-150 -88 -361 -88z" />
    <glyph glyph-name="sacute" unicode="&#x15b;" horiz-adv-x="1048" 
d="M481 1214l275 302h209l-306 -302h-178zM485 -29q-155 0 -273.5 62t-166.5 164l127 86q91 -162 315 -162q126 0 201 53q31 24 50.5 59.5t19.5 71.5q0 48 -39.5 79.5t-138.5 53.5l-150 35q-137 30 -205.5 97t-68.5 161q0 69 30 133.5t84 106.5q111 94 318 94
q129 0 233 -46.5t158 -129.5l-123 -98q-80 124 -281 124q-134 0 -200 -57q-53 -42 -53 -117q0 -43 38.5 -72.5t131.5 -50.5l165 -36q269 -61 269 -252q0 -80 -38 -155.5t-104 -121.5q-114 -82 -299 -82z" />
    <glyph glyph-name="Scircumflex" unicode="&#x15c;" horiz-adv-x="1304" 
d="M842 1812l-215 -200h-176l321 301h152l239 -301h-159zM844 776q346 -84 346 -334q0 -120 -58 -220.5t-161 -162.5q-150 -88 -361 -88q-214 0 -358.5 89t-185.5 245l141 76q98 -254 401 -254q169 0 275 70q60 37 93.5 96t33.5 127q0 77 -54.5 126.5t-175.5 80.5l-219 55
q-172 42 -261 130.5t-89 207.5q0 93 43.5 179.5t118.5 143.5q150 119 399 119q188 0 320 -72.5t174 -189.5l-146 -82q-89 189 -352 189q-173 0 -281 -78q-46 -36 -73 -88.5t-27 -110.5q0 -72 55.5 -120.5t180.5 -78.5z" />
    <glyph glyph-name="scircumflex" unicode="&#x15d;" horiz-adv-x="1048" 
d="M659 1415l-215 -201h-176l322 302h151l240 -302h-160zM375 858q-53 -42 -53 -117q0 -43 38.5 -72.5t131.5 -50.5l165 -36q269 -61 269 -252q0 -80 -38 -155.5t-104 -121.5q-114 -82 -299 -82q-155 0 -273.5 62t-166.5 164l127 86q91 -162 315 -162q126 0 201 53
q31 24 50.5 59.5t19.5 71.5q0 48 -39.5 79.5t-138.5 53.5l-150 35q-137 30 -205.5 97t-68.5 161q0 69 30 133.5t84 106.5q111 94 318 94q129 0 233 -46.5t158 -129.5l-123 -98q-80 124 -281 124q-134 0 -200 -57z" />
    <glyph glyph-name="Scedilla" unicode="&#x15e;" horiz-adv-x="1304" 
d="M844 776q346 -84 346 -334q0 -120 -58 -220.5t-161 -162.5q-129 -77 -307 -86l-156 -364h-174l186 366q-180 19 -298.5 105.5t-155.5 224.5l141 76q98 -254 401 -254q169 0 275 70q60 37 93.5 96t33.5 127q0 77 -54.5 126.5t-175.5 80.5l-219 55q-172 42 -261 130.5
t-89 207.5q0 93 43.5 179.5t118.5 143.5q150 119 399 119q188 0 320 -72.5t174 -189.5l-146 -82q-89 189 -352 189q-173 0 -281 -78q-46 -36 -73 -88.5t-27 -110.5q0 -72 55.5 -120.5t180.5 -78.5z" />
    <glyph glyph-name="scedilla" unicode="&#x15f;" horiz-adv-x="1048" 
d="M657 582q269 -61 269 -252q0 -80 -38 -155.5t-104 -121.5q-104 -74 -258 -80l-155 -364h-174l188 371q-121 17 -210.5 74.5t-129.5 142.5l127 86q91 -162 315 -162q126 0 201 53q31 24 50.5 59.5t19.5 71.5q0 48 -39.5 79.5t-138.5 53.5l-150 35q-137 30 -205.5 97
t-68.5 161q0 69 30 133.5t84 106.5q111 94 318 94q129 0 233 -46.5t158 -129.5l-123 -98q-80 124 -281 124q-134 0 -200 -57q-53 -42 -53 -117q0 -43 38.5 -72.5t131.5 -50.5z" />
    <glyph glyph-name="Scaron" unicode="&#x160;" horiz-adv-x="1304" 
d="M883 1612h-152l-239 301h159l162 -201l217 201h174zM844 776q346 -84 346 -334q0 -120 -58 -220.5t-161 -162.5q-150 -88 -361 -88q-214 0 -358.5 89t-185.5 245l141 76q98 -254 401 -254q169 0 275 70q60 37 93.5 96t33.5 127q0 77 -54.5 126.5t-175.5 80.5l-219 55
q-172 42 -261 130.5t-89 207.5q0 93 43.5 179.5t118.5 143.5q150 119 399 119q188 0 320 -72.5t174 -189.5l-146 -82q-89 189 -352 189q-173 0 -281 -78q-46 -36 -73 -88.5t-27 -110.5q0 -72 55.5 -120.5t180.5 -78.5z" />
    <glyph glyph-name="scaron" unicode="&#x161;" horiz-adv-x="1048" 
d="M700 1214h-151l-240 302h160l162 -201l217 201h174zM375 858q-53 -42 -53 -117q0 -43 38.5 -72.5t131.5 -50.5l165 -36q269 -61 269 -252q0 -80 -38 -155.5t-104 -121.5q-114 -82 -299 -82q-155 0 -273.5 62t-166.5 164l127 86q91 -162 315 -162q126 0 201 53
q31 24 50.5 59.5t19.5 71.5q0 48 -39.5 79.5t-138.5 53.5l-150 35q-137 30 -205.5 97t-68.5 161q0 69 30 133.5t84 106.5q111 94 318 94q129 0 233 -46.5t158 -129.5l-123 -98q-80 124 -281 124q-134 0 -200 -57z" />
    <glyph glyph-name="uni0162" unicode="&#x162;" horiz-adv-x="1245" 
d="M463 0l180 1274h-483l22 160h1139l-25 -160h-483l-178 -1274h-172zM330 -516l108 330h170l-151 -330h-127z" />
    <glyph glyph-name="uni0163" unicode="&#x163;" horiz-adv-x="835" 
d="M479 895l-86 -621q-10 -78 25 -111.5t125 -33.5q73 0 164 18l-21 -137q-88 -26 -188 -26q-152 0 -221.5 70.5t-49.5 209.5l88 631h-211l23 141h209l43 307h164l-43 -307h327l-20 -141h-328zM197 -516l108 330h170l-151 -330h-127z" />
    <glyph glyph-name="Tcaron" unicode="&#x164;" horiz-adv-x="1245" 
d="M852 1612h-152l-239 301h160l161 -201l217 201h175zM182 1434h1139l-25 -160h-483l-178 -1274h-172l180 1274h-483z" />
    <glyph glyph-name="tcaron" unicode="&#x165;" horiz-adv-x="837" 
d="M905 1591l-98 -401h-127l55 401h170zM543 1343l-43 -307h327l-20 -141h-328l-86 -621q-10 -78 25 -111.5t125 -33.5q73 0 164 18l-21 -137q-88 -26 -188 -26q-152 0 -221.5 70.5t-49.5 209.5l88 631h-211l23 141h209l43 307h164z" />
    <glyph glyph-name="Tbar" unicode="&#x166;" horiz-adv-x="1245" 
d="M1296 1274h-483l-65 -469h303l-19 -141h-305l-92 -664h-172l94 664h-301l18 141h304l65 469h-483l22 160h1139z" />
    <glyph glyph-name="tbar" unicode="&#x167;" horiz-adv-x="835" 
d="M807 895h-328l-39 -281h283l-18 -129h-283l-29 -211q-10 -78 25 -111.5t125 -33.5q73 0 164 18l-21 -137q-88 -26 -188 -26q-152 0 -221.5 70.5t-49.5 209.5l31 221h-190l20 129h188l39 281h-211l23 141h209l43 307h164l-43 -307h327z" />
    <glyph glyph-name="Utilde" unicode="&#x168;" horiz-adv-x="1552" 
d="M1077 1626q-71 0 -164 88q-60 55 -100 55q-35 0 -58.5 -32.5t-29.5 -96.5h-119q10 119 68.5 186.5t148.5 67.5q39 0 75.5 -20t88.5 -68q37 -36 57.5 -46.5t42.5 -10.5q35 0 59 33t30 98h118q-10 -120 -68.5 -187t-148.5 -67zM700 -29q-244 0 -379 115.5t-135 325.5
q0 23 9 102l129 920h172l-127 -904q-7 -58 -7 -90q0 -158 84 -233.5t263 -75.5q205 0 328.5 101t150.5 298l127 904h172l-129 -920q-37 -257 -211 -400t-447 -143z" />
    <glyph glyph-name="utilde" unicode="&#x169;" horiz-adv-x="1251" 
d="M604 1372q-35 0 -58.5 -32.5t-29.5 -96.5h-119q10 119 68.5 186.5t148.5 67.5q39 0 75.5 -20t88.5 -68q37 -36 57.5 -46.5t43.5 -10.5q35 0 58.5 33t29.5 98h118q-10 -120 -68.5 -187t-148.5 -67q-35 0 -72 18.5t-91 69.5q-60 55 -101 55zM977 1036h164l-148 -1036h-164
l25 178q-58 -99 -162 -153t-231 -54q-152 0 -230.5 79t-78.5 229q0 43 6 96l94 661h164l-88 -622q-9 -59 -9 -103q0 -100 44.5 -144t144.5 -44q140 0 251 86t130 211z" />
    <glyph glyph-name="Umacron" unicode="&#x16a;" horiz-adv-x="1552" 
d="M629 1659l16 133h617l-17 -133h-616zM700 -29q-244 0 -379 115.5t-135 325.5q0 23 9 102l129 920h172l-127 -904q-7 -58 -7 -90q0 -158 84 -233.5t263 -75.5q205 0 328.5 101t150.5 298l127 904h172l-129 -920q-37 -257 -211 -400t-447 -143z" />
    <glyph glyph-name="umacron" unicode="&#x16b;" horiz-adv-x="1251" 
d="M1053 1395l-17 -133h-616l16 133h617zM977 1036h164l-148 -1036h-164l25 178q-58 -99 -162 -153t-231 -54q-152 0 -230.5 79t-78.5 229q0 43 6 96l94 661h164l-88 -622q-9 -59 -9 -103q0 -100 44.5 -144t144.5 -44q140 0 251 86t130 211z" />
    <glyph glyph-name="Ubreve" unicode="&#x16c;" horiz-adv-x="1552" 
d="M938 1599q-128 0 -202 60.5t-74 163.5q0 27 4 51h143q-2 -12 -2 -35q0 -121 131 -121q75 0 124.5 41.5t59.5 114.5h146l-2 -8q-18 -124 -103.5 -195.5t-224.5 -71.5zM700 -29q-244 0 -379 115.5t-135 325.5q0 23 9 102l129 920h172l-127 -904q-7 -58 -7 -90
q0 -158 84 -233.5t263 -75.5q205 0 328.5 101t150.5 298l127 904h172l-129 -920q-37 -257 -211 -400t-447 -143z" />
    <glyph glyph-name="ubreve" unicode="&#x16d;" horiz-adv-x="1251" 
d="M729 1202q-129 0 -202.5 60t-73.5 163q0 28 4 52h143q-2 -12 -2 -35q0 -121 131 -121q75 0 124.5 41.5t59.5 114.5h146l-2 -9q-18 -123 -103.5 -194.5t-224.5 -71.5zM977 1036h164l-148 -1036h-164l25 178q-58 -99 -162 -153t-231 -54q-152 0 -230.5 79t-78.5 229
q0 43 6 96l94 661h164l-88 -622q-9 -59 -9 -103q0 -100 44.5 -144t144.5 -44q140 0 251 86t130 211z" />
    <glyph glyph-name="Uring" unicode="&#x16e;" horiz-adv-x="1552" 
d="M932 1587q-97 0 -160 58t-63 147q0 108 82.5 187t195.5 79q95 0 158 -58t63 -145q0 -110 -82.5 -189t-193.5 -79zM936 1698q63 0 106 43t43 106q0 46 -26 72.5t-76 26.5q-62 0 -107 -43.5t-45 -104.5q0 -44 27.5 -72t77.5 -28zM700 -29q-244 0 -379 115.5t-135 325.5
q0 23 9 102l129 920h172l-127 -904q-7 -58 -7 -90q0 -158 84 -233.5t263 -75.5q205 0 328.5 101t150.5 298l127 904h172l-129 -920q-37 -257 -211 -400t-447 -143z" />
    <glyph glyph-name="uring" unicode="&#x16f;" horiz-adv-x="1251" 
d="M723 1190q-97 0 -160 58t-63 147q0 108 82.5 187t195.5 79q95 0 158 -58t63 -145q0 -110 -82.5 -189t-193.5 -79zM774 1548q-62 0 -106.5 -43t-44.5 -104q0 -44 27.5 -72.5t76.5 -28.5q63 0 106.5 43.5t43.5 106.5q0 45 -26.5 71.5t-76.5 26.5zM977 1036h164l-148 -1036
h-164l25 178q-58 -99 -162 -153t-231 -54q-152 0 -230.5 79t-78.5 229q0 43 6 96l94 661h164l-88 -622q-9 -59 -9 -103q0 -100 44.5 -144t144.5 -44q140 0 251 86t130 211z" />
    <glyph glyph-name="Uhungarumlaut" unicode="&#x170;" horiz-adv-x="1552" 
d="M602 1612l277 301h180l-289 -301h-168zM969 1612l276 301h180l-288 -301h-168zM700 -29q-244 0 -379 115.5t-135 325.5q0 23 9 102l129 920h172l-127 -904q-7 -58 -7 -90q0 -158 84 -233.5t263 -75.5q205 0 328.5 101t150.5 298l127 904h172l-129 -920
q-37 -257 -211 -400t-447 -143z" />
    <glyph glyph-name="uhungarumlaut" unicode="&#x171;" horiz-adv-x="1251" 
d="M850 1516l-289 -302h-168l277 302h180zM928 1214h-168l276 302h181zM889 420l88 616h164l-148 -1036h-164l25 178q-58 -99 -162 -153t-231 -54q-152 0 -230.5 79t-78.5 229q0 43 6 96l94 661h164l-88 -622q-9 -59 -9 -103q0 -100 44.5 -144t144.5 -44q140 0 251 86
t130 211z" />
    <glyph glyph-name="Uogonek" unicode="&#x172;" horiz-adv-x="1552" 
d="M1315 1434h172l-129 -920q-28 -189 -131.5 -318.5t-268.5 -185.5q-16 -12 -57.5 -42t-63 -47.5t-49.5 -43.5t-40.5 -50t-12.5 -48q0 -72 117 -72h68l-21 -133h-84q-116 0 -180 46t-64 120q0 125 162 231h-33q-244 0 -379 115.5t-135 325.5q0 23 9 102l129 920h172
l-127 -904q-7 -58 -7 -90q0 -158 84 -233.5t263 -75.5q205 0 328.5 101t150.5 298z" />
    <glyph glyph-name="uogonek" unicode="&#x173;" horiz-adv-x="1251" 
d="M993 0q-19 -15 -58.5 -43.5t-62.5 -47t-50.5 -44t-40.5 -50t-13 -48.5q0 -72 117 -72h67l-20 -133h-84q-116 0 -180 46t-64 120q0 150 230 272h-5l25 178q-58 -99 -162 -153t-231 -54q-152 0 -230.5 79t-78.5 229q0 43 6 96l94 661h164l-88 -622q-9 -59 -9 -103
q0 -100 44.5 -144t144.5 -44q140 0 251 86t130 211l88 616h164z" />
    <glyph glyph-name="Wcircumflex" unicode="&#x174;" horiz-adv-x="2138" 
d="M1257 1812l-215 -200h-176l322 301h151l240 -301h-160zM2032 1434h174l-650 -1434h-174l-217 1208l-557 -1208h-174l-244 1434h166l203 -1194l549 1194h172l215 -1196z" />
    <glyph glyph-name="wcircumflex" unicode="&#x175;" horiz-adv-x="1701" 
d="M983 1415l-215 -201h-176l321 302h152l240 -302h-160zM1559 1036h170l-490 -1036h-178l-164 850l-403 -850h-181l-194 1036h162l151 -837l397 837h181l161 -837z" />
    <glyph glyph-name="Ycircumflex" unicode="&#x176;" horiz-adv-x="1314" 
d="M844 1812l-215 -200h-176l321 301h152l239 -301h-159zM1225 1434h200l-671 -838l-86 -596h-172l86 596l-437 838h187l350 -686z" />
    <glyph glyph-name="ycircumflex" unicode="&#x177;" horiz-adv-x="1105" 
d="M690 1415l-217 -201h-176l324 302h151l240 -302h-160zM967 1036h176l-789 -1444h-168l213 396l-284 1048h168l225 -866z" />
    <glyph glyph-name="Ydieresis" unicode="&#x178;" horiz-adv-x="1314" 
d="M596 1655q-45 0 -71.5 26t-26.5 68q0 56 37.5 95.5t93.5 39.5q45 0 72.5 -28.5t27.5 -71.5q0 -50 -39.5 -89.5t-93.5 -39.5zM1032 1655q-45 0 -71.5 26t-26.5 68q0 56 38 95.5t93 39.5q45 0 72.5 -28.5t27.5 -71.5q0 -51 -38.5 -90t-94.5 -39zM1225 1434h200l-671 -838
l-86 -596h-172l86 596l-437 838h187l350 -686z" />
    <glyph glyph-name="Zacute" unicode="&#x179;" horiz-adv-x="1243" 
d="M1118 1913l-305 -301h-178l274 301h209zM1264 1434l-17 -134l-991 -1144h842l-25 -156h-1053l19 133l991 1145h-799l21 156h1012z" />
    <glyph glyph-name="zacute" unicode="&#x17a;" horiz-adv-x="1030" 
d="M954 1516l-305 -302h-178l274 302h209zM991 1036l-16 -125l-723 -766h622l-22 -145h-823l18 125l721 766h-596l21 145h798z" />
    <glyph glyph-name="Zdotaccent" unicode="&#x17b;" horiz-adv-x="1243" 
d="M782 1655q-44 0 -71 26t-27 68q0 56 38.5 95.5t94.5 39.5q44 0 72.5 -28.5t28.5 -71.5q0 -51 -40 -90t-96 -39zM1264 1434l-17 -134l-991 -1144h842l-25 -156h-1053l19 133l991 1145h-799l21 156h1012z" />
    <glyph glyph-name="zdotaccent" unicode="&#x17c;" horiz-adv-x="1030" 
d="M618 1257q-44 0 -71 26.5t-27 68.5q0 56 38.5 95.5t94.5 39.5q44 0 72.5 -29t28.5 -72q0 -51 -40 -90t-96 -39zM991 1036l-16 -125l-723 -766h622l-22 -145h-823l18 125l721 766h-596l21 145h798z" />
    <glyph glyph-name="Zcaron" unicode="&#x17d;" horiz-adv-x="1243" 
d="M854 1612h-152l-239 301h160l161 -201l217 201h175zM1264 1434l-17 -134l-991 -1144h842l-25 -156h-1053l19 133l991 1145h-799l21 156h1012z" />
    <glyph glyph-name="zcaron" unicode="&#x17e;" horiz-adv-x="1030" 
d="M690 1214h-151l-240 302h160l162 -201l217 201h174zM172 891l21 145h798l-16 -125l-723 -766h622l-22 -145h-823l18 125l721 766h-596z" />
    <glyph glyph-name="florin" unicode="&#x192;" horiz-adv-x="1005" 
d="M981 1434h70l-21 -152h-69q-92 0 -140 -39t-80 -139l-77 -234h272l-18 -135h-300l-251 -764q-45 -135 -135 -196.5t-248 -61.5h-70l23 152h69q90 0 137.5 39t81.5 139l228 692h-258l18 135h285l100 306q45 134 135.5 196t247.5 62z" />
    <glyph glyph-name="uni01CD" unicode="&#x1cd;" 
d="M956 1612h-151l-240 301h160l162 -201l217 201h174zM1161 0l-102 393h-692l-213 -393h-183l789 1434h190l383 -1434h-172zM451 549h569l-184 713z" />
    <glyph glyph-name="uni01CE" unicode="&#x1ce;" horiz-adv-x="1345" 
d="M866 1214h-151l-240 302h160l162 -201l217 201h174zM1069 1036h164l-148 -1036h-163l28 193q-62 -102 -171 -162t-240 -60q-194 0 -312 127.5t-118 337.5q0 136 50 261t138 212q74 74 172.5 115t206.5 41q133 0 233.5 -62t132.5 -165zM856 231q73 64 112.5 161t39.5 198
q0 148 -81.5 234.5t-226.5 86.5q-165 0 -280 -112q-70 -70 -105.5 -165.5t-35.5 -191.5q0 -145 80 -232t221 -87q78 0 150 28.5t126 79.5z" />
    <glyph glyph-name="uni01E2" unicode="&#x1e2;" horiz-adv-x="2252" 
d="M1978 1792l-16 -133h-616l16 133h616zM2185 1276h-805l-65 -473h770l-25 -158h-768l-67 -487h825l-22 -158h-998l51 369h-612l-307 -369h-203l1202 1434h1049zM600 524h504l102 727z" />
    <glyph glyph-name="uni01E3" unicode="&#x1e3;" horiz-adv-x="1941" 
d="M1413 1395l-16 -133h-617l17 133h616zM1419 1065q193 0 310.5 -116.5t117.5 -307.5q0 -39 -6 -82q-5 -36 -20 -88h-826q-2 -12 -2 -39q0 -146 80 -227.5t223 -81.5q193 0 365 166l100 -94q-85 -107 -207.5 -165.5t-263.5 -58.5q-153 0 -261 68.5t-150 187.5
q-56 -117 -182 -186.5t-285 -69.5q-160 0 -253 74t-93 199q0 77 31.5 146.5t90.5 115.5q123 94 353 94h305l12 82q4 32 4 45q0 90 -56 138t-163 48q-97 0 -185 -38t-153 -111l-94 100q75 95 194.5 148t256.5 53q136 0 222 -52.5t117 -152.5q76 98 183.5 151.5t234.5 53.5z
M1122 788q-73 -79 -104 -188h661q2 12 2 37q0 131 -70.5 202.5t-197.5 71.5q-171 0 -291 -123zM426 109q150 0 264 90t131 221l8 51h-303q-164 0 -235 -68q-55 -47 -55 -145q0 -72 48 -110.5t142 -38.5z" />
    <glyph glyph-name="Gcaron" unicode="&#x1e6;" horiz-adv-x="1603" 
d="M1077 1612h-151l-240 301h160l162 -201l217 201h174zM920 604l22 158h551l-80 -563q-94 -106 -250.5 -167t-341.5 -61q-313 0 -491 169.5t-178 449.5q0 182 70 355.5t196 291.5q111 108 255 166.5t308 58.5q185 0 327.5 -73.5t213.5 -204.5l-144 -94q-110 213 -395 213
q-134 0 -251.5 -49t-205.5 -140q-95 -96 -145.5 -234.5t-50.5 -279.5q0 -222 131.5 -345.5t365.5 -123.5q129 0 244 37.5t184 97.5l48 338h-383z" />
    <glyph glyph-name="gcaron" unicode="&#x1e7;" horiz-adv-x="1343" 
d="M848 1214h-152l-239 302h159l162 -201l217 201h174zM1067 1036h164l-131 -923q-37 -269 -189 -411t-409 -142q-148 0 -266.5 48t-186.5 132l105 113q130 -140 348 -140q181 0 293 101.5t141 298.5l16 106q-60 -102 -169.5 -160.5t-239.5 -58.5q-194 0 -314 122.5
t-120 321.5q0 143 56.5 274t158.5 218q154 129 354 129q133 0 230.5 -60t131.5 -163zM877 276q131 134 131 326q0 141 -79.5 225t-223.5 84q-172 0 -281 -106q-71 -67 -108 -159t-37 -191q0 -137 77.5 -220t218.5 -83q178 0 302 124z" />
    <glyph glyph-name="uni01E8" unicode="&#x1e8;" horiz-adv-x="1417" 
d="M950 1612h-151l-240 301h160l162 -201l217 201h174zM1493 1434l-690 -621l516 -813h-203l-442 696l-301 -270l-60 -426h-172l203 1434h172l-110 -779l866 779h221z" />
    <glyph glyph-name="uni01E9" unicode="&#x1e9;" horiz-adv-x="1134" 
d="M506 1677h-154l-239 301h161l162 -200l215 200h176zM1167 1034l-530 -448l401 -586h-180l-338 487l-198 -168l-46 -319h-163l211 1499h163l-139 -983l608 520z" />
    <glyph glyph-name="AEacute" unicode="&#x1fc;" horiz-adv-x="2252" 
d="M1987 1913l-306 -301h-178l275 301h209zM2185 1276h-805l-65 -473h770l-25 -158h-768l-67 -487h825l-22 -158h-998l51 369h-612l-307 -369h-203l1202 1434h1049zM600 524h504l102 727z" />
    <glyph glyph-name="aeacute" unicode="&#x1fd;" horiz-adv-x="1941" 
d="M1419 1516l-305 -302h-178l274 302h209zM1419 1065q193 0 310.5 -116.5t117.5 -307.5q0 -39 -6 -82q-5 -36 -20 -88h-826q-2 -12 -2 -39q0 -146 80 -227.5t223 -81.5q193 0 365 166l100 -94q-85 -107 -207.5 -165.5t-263.5 -58.5q-153 0 -261 68.5t-150 187.5
q-56 -117 -182 -186.5t-285 -69.5q-160 0 -253 74t-93 199q0 77 31.5 146.5t90.5 115.5q123 94 353 94h305l12 82q4 32 4 45q0 90 -56 138t-163 48q-97 0 -185 -38t-153 -111l-94 100q75 95 194.5 148t256.5 53q136 0 222 -52.5t117 -152.5q76 98 183.5 151.5t234.5 53.5z
M1122 788q-73 -79 -104 -188h661q2 12 2 37q0 131 -70.5 202.5t-197.5 71.5q-171 0 -291 -123zM426 109q150 0 264 90t131 221l8 51h-303q-164 0 -235 -68q-55 -47 -55 -145q0 -72 48 -110.5t142 -38.5z" />
    <glyph glyph-name="Oslashacute" unicode="&#x1fe;" horiz-adv-x="1730" 
d="M1221 1913l-306 -301h-178l275 301h209zM1706 1343l-174 -153q102 -158 102 -361q0 -172 -72.5 -341t-197.5 -291q-113 -107 -259 -166.5t-308 -59.5q-280 0 -461 170l-170 -149l-86 98l174 154q-100 148 -100 358q0 191 81.5 367.5t223.5 298.5q222 194 530 194
q279 0 459 -172l174 152zM559 1139q-109 -100 -168 -238t-59 -291q0 -142 57 -250l932 818q-125 125 -336 125q-237 0 -426 -164zM1245 313q102 101 155.5 235t53.5 275q0 147 -57 252l-932 -819q128 -125 336 -125q127 0 240.5 47.5t203.5 134.5z" />
    <glyph glyph-name="oslashacute" unicode="&#x1ff;" horiz-adv-x="1294" 
d="M1001 1516l-305 -302h-178l275 302h208zM1274 987l-154 -137q66 -114 66 -252q0 -135 -62 -268t-166 -221q-164 -138 -376 -138q-201 0 -330 119l-150 -133l-82 92l156 137q-65 112 -65 252q0 135 57.5 264.5t155.5 217.5q161 145 387 145q200 0 329 -119l152 133z
M424 797q-70 -68 -106.5 -162t-36.5 -191q0 -82 28 -149l615 541q-78 75 -211 75q-169 0 -289 -114zM862 229q75 71 113.5 167.5t38.5 195.5q0 75 -27 151l-614 -542q81 -78 213 -78q157 0 276 106z" />
    <glyph glyph-name="uni0218" unicode="&#x218;" horiz-adv-x="1304" 
d="M610 -29q-214 0 -358.5 89t-185.5 245l141 76q98 -254 401 -254q169 0 275 70q60 37 93.5 96t33.5 127q0 77 -54.5 126.5t-175.5 80.5l-219 55q-172 42 -261 130.5t-89 207.5q0 93 43.5 179.5t118.5 143.5q150 119 399 119q188 0 320 -72.5t174 -189.5l-146 -82
q-89 189 -352 189q-173 0 -281 -78q-46 -36 -73 -88.5t-27 -110.5q0 -72 55.5 -120.5t180.5 -78.5l221 -55q346 -84 346 -334q0 -120 -58 -220.5t-161 -162.5q-150 -88 -361 -88zM381 -516l108 330h170l-151 -330h-127z" />
    <glyph glyph-name="uni0219" unicode="&#x219;" horiz-adv-x="1048" 
d="M485 -29q-155 0 -273.5 62t-166.5 164l127 86q91 -162 315 -162q126 0 201 53q31 24 50.5 59.5t19.5 71.5q0 48 -39.5 79.5t-138.5 53.5l-150 35q-137 30 -205.5 97t-68.5 161q0 69 30 133.5t84 106.5q111 94 318 94q129 0 233 -46.5t158 -129.5l-123 -98
q-80 124 -281 124q-134 0 -200 -57q-53 -42 -53 -117q0 -43 38.5 -72.5t131.5 -50.5l165 -36q269 -61 269 -252q0 -80 -38 -155.5t-104 -121.5q-114 -82 -299 -82zM244 -516l108 330h170l-151 -330h-127z" />
    <glyph glyph-name="uni021A" unicode="&#x21a;" horiz-adv-x="1245" 
d="M463 0l180 1274h-483l22 160h1139l-25 -160h-483l-178 -1274h-172zM330 -516l108 330h170l-151 -330h-127z" />
    <glyph glyph-name="uni021B" unicode="&#x21b;" horiz-adv-x="835" 
d="M479 895l-86 -621q-10 -78 25 -111.5t125 -33.5q73 0 164 18l-21 -137q-88 -26 -188 -26q-152 0 -221.5 70.5t-49.5 209.5l88 631h-211l23 141h209l43 307h164l-43 -307h327l-20 -141h-328zM197 -516l108 330h170l-151 -330h-127z" />
    <glyph glyph-name="uni0237" unicode="&#x237;" horiz-adv-x="538" 
d="M-88 -440q-52 0 -113 12l23 149q46 -12 94 -12q84 0 126.5 40.5t53.5 125.5l166 1161h164l-168 -1179q-19 -143 -105.5 -220t-240.5 -77z" />
    <glyph glyph-name="circumflex" unicode="&#x2c6;" horiz-adv-x="1269" 
d="M1090 1214h-160l-162 201l-215 -201h-176l321 302h152z" />
    <glyph glyph-name="caron" unicode="&#x2c7;" horiz-adv-x="1269" 
d="M956 1516h174l-321 -302h-152l-239 302h160l161 -201z" />
    <glyph glyph-name="breve" unicode="&#x2d8;" horiz-adv-x="1269" 
d="M741 1202q-129 0 -202.5 60t-73.5 163q0 28 4 52h143q-2 -12 -2 -35q0 -121 131 -121q75 0 125 41.5t60 114.5h145l-2 -9q-18 -123 -103.5 -194.5t-224.5 -71.5z" />
    <glyph glyph-name="dotaccent" unicode="&#x2d9;" horiz-adv-x="1269" 
d="M737 1257q-44 0 -71 26.5t-27 68.5q0 56 38.5 95.5t94.5 39.5q44 0 72 -29t28 -72q0 -51 -39.5 -90t-95.5 -39z" />
    <glyph glyph-name="ring" unicode="&#x2da;" horiz-adv-x="1269" 
d="M735 1190q-97 0 -160 58t-63 147q0 108 83 187t196 79q95 0 158 -58t63 -145q0 -109 -83 -188.5t-194 -79.5zM739 1300q63 0 106.5 43.5t43.5 106.5q0 45 -26.5 71.5t-76.5 26.5q-62 0 -106.5 -43t-44.5 -104q0 -44 27.5 -72.5t76.5 -28.5z" />
    <glyph glyph-name="ogonek" unicode="&#x2db;" horiz-adv-x="1269" 
d="M508 -438q-116 0 -180 46t-64 120q0 53 27 101.5t77 87.5t98.5 67t111.5 57l75 -41q-19 -15 -58.5 -43.5t-62.5 -47t-50.5 -44t-40.5 -50t-13 -48.5q0 -72 117 -72h67l-20 -133h-84z" />
    <glyph glyph-name="tilde" unicode="&#x2dc;" horiz-adv-x="1269" 
d="M881 1229q-71 0 -164 88q-60 55 -101 55q-35 0 -58.5 -32.5t-29.5 -96.5h-118q10 119 68.5 186.5t148.5 67.5q39 0 75.5 -20t88.5 -68q37 -36 57.5 -46.5t42.5 -10.5q35 0 58.5 33t29.5 98h119q-10 -120 -68.5 -187t-148.5 -67z" />
    <glyph glyph-name="hungarumlaut" unicode="&#x2dd;" horiz-adv-x="1269" 
d="M459 1214l276 302h180l-288 -302h-168zM825 1214l277 302h180l-289 -302h-168z" />
    <glyph glyph-name="gravecomb" unicode="&#x300;" horiz-adv-x="0" 
d="M-623 1214l-223 302h199l192 -302h-168z" />
    <glyph glyph-name="acutecomb" unicode="&#x301;" horiz-adv-x="0" 
d="M-618 1214l274 302h209l-305 -302h-178z" />
    <glyph glyph-name="uni0302" unicode="&#x302;" horiz-adv-x="0" 
d="M-180 1214h-160l-162 201l-215 -201h-176l322 302h151z" />
    <glyph glyph-name="tildecomb" unicode="&#x303;" horiz-adv-x="0" 
d="M-389 1229q-71 0 -164 88q-60 55 -100 55q-35 0 -58.5 -32.5t-29.5 -96.5h-119q10 119 68.5 186.5t148.5 67.5q39 0 75.5 -20t88.5 -68q37 -36 57.5 -46.5t42.5 -10.5q35 0 58.5 33t29.5 98h119q-10 -120 -68.5 -187t-148.5 -67z" />
    <glyph glyph-name="uni0304" unicode="&#x304;" horiz-adv-x="0" 
d="M-838 1262l17 133h616l-16 -133h-617z" />
    <glyph glyph-name="uni0306" unicode="&#x306;" horiz-adv-x="0" 
d="M-528 1202q-129 0 -203 60t-74 163q0 28 4 52h144q-2 -12 -2 -35q0 -121 131 -121q75 0 124.5 41.5t59.5 114.5h145l-2 -9q-18 -124 -103 -195t-224 -71z" />
    <glyph glyph-name="uni0307" unicode="&#x307;" horiz-adv-x="0" 
d="M-532 1257q-44 0 -71.5 26.5t-27.5 68.5q0 56 38.5 95.5t94.5 39.5q44 0 72.5 -29t28.5 -72q0 -51 -39.5 -90t-95.5 -39z" />
    <glyph glyph-name="uni0308" unicode="&#x308;" horiz-adv-x="0" 
d="M-750 1257q-45 0 -71.5 26.5t-26.5 68.5q0 56 37.5 95.5t93.5 39.5q45 0 73 -29t28 -72q0 -50 -39.5 -89.5t-94.5 -39.5zM-313 1257q-45 0 -72 26.5t-27 68.5q0 56 38 95.5t93 39.5q45 0 73 -29t28 -72q0 -51 -38.5 -90t-94.5 -39z" />
    <glyph glyph-name="uni030A" unicode="&#x30a;" horiz-adv-x="0" 
d="M-535 1190q-97 0 -160 58t-63 147q0 108 83 187t196 79q95 0 158 -58t63 -145q0 -109 -83 -188.5t-194 -79.5zM-530 1300q63 0 106 43.5t43 106.5q0 45 -26 71.5t-76 26.5q-62 0 -107 -43t-45 -104q0 -44 28 -72.5t77 -28.5z" />
    <glyph glyph-name="uni030B" unicode="&#x30b;" horiz-adv-x="0" 
d="M-811 1214l276 302h181l-289 -302h-168zM-444 1214l276 302h180l-288 -302h-168z" />
    <glyph glyph-name="uni030C" unicode="&#x30c;" horiz-adv-x="0" 
d="M-313 1516h174l-322 -302h-151l-240 302h160l162 -201z" />
    <glyph glyph-name="uni0315" unicode="&#x315;" horiz-adv-x="0" 
d="M-633 1141l55 403h170l-98 -403h-127z" />
    <glyph glyph-name="uni0326" unicode="&#x326;" horiz-adv-x="0" 
d="M-926 -516l109 330h170l-152 -330h-127z" />
    <glyph glyph-name="uni0327" unicode="&#x327;" horiz-adv-x="0" 
d="M-975 -391l219 432h140l-185 -432h-174z" />
    <glyph glyph-name="uni0328" unicode="&#x328;" horiz-adv-x="0" 
d="M-762 -438q-116 0 -180 46t-64 120q0 53 27 101.5t77 87.5t98.5 67t111.5 57l76 -41q-19 -15 -58.5 -43.5t-63 -47.5t-51 -44t-40.5 -49.5t-13 -48.5q0 -72 117 -72h68l-21 -133h-84z" />
    <glyph glyph-name="uni03BC" unicode="&#x3bc;" horiz-adv-x="1267" 
d="M993 1036h164l-147 -1036h-164l24 178q-57 -96 -156 -151.5t-210 -55.5q-152 0 -213 113l-76 -535h-164l209 1487h164l-92 -659q-12 -131 39 -192.5t168 -61.5q143 0 245 87.5t125 248.5z" />
    <glyph glyph-name="pi" unicode="&#x3c0;" horiz-adv-x="1218" 
d="M1055 152h51l-23 -152h-73q-257 0 -219 264l86 619h-476l-125 -883h-163l147 1036h803l-107 -753q-20 -131 99 -131z" />
    <glyph glyph-name="uni1E20" unicode="&#x1e20;" horiz-adv-x="1603" 
d="M1333 1792l-16 -133h-617l17 133h616zM920 604l22 158h551l-80 -563q-94 -106 -250.5 -167t-341.5 -61q-313 0 -491 169.5t-178 449.5q0 182 70 355.5t196 291.5q111 108 255 166.5t308 58.5q185 0 327.5 -73.5t213.5 -204.5l-144 -94q-110 213 -395 213
q-134 0 -251.5 -49t-205.5 -140q-95 -96 -145.5 -234.5t-50.5 -279.5q0 -222 131.5 -345.5t365.5 -123.5q129 0 244 37.5t184 97.5l48 338h-383z" />
    <glyph glyph-name="uni1E21" unicode="&#x1e21;" horiz-adv-x="1343" 
d="M1104 1395l-17 -133h-616l16 133h617zM1067 1036h164l-131 -923q-37 -269 -189 -411t-409 -142q-148 0 -266.5 48t-186.5 132l105 113q130 -140 348 -140q181 0 293 101.5t141 298.5l16 106q-60 -102 -169.5 -160.5t-239.5 -58.5q-194 0 -314 122.5t-120 321.5
q0 143 56.5 274t158.5 218q154 129 354 129q133 0 230.5 -60t131.5 -163zM877 276q131 134 131 326q0 141 -79.5 225t-223.5 84q-172 0 -281 -106q-71 -67 -108 -159t-37 -191q0 -137 77.5 -220t218.5 -83q178 0 302 124z" />
    <glyph glyph-name="uni1E30" unicode="&#x1e30;" horiz-adv-x="1417" 
d="M1212 1913l-305 -301h-176l273 301h208zM1493 1434l-690 -621l516 -813h-203l-442 696l-301 -270l-60 -426h-172l203 1434h172l-110 -779l866 779h221z" />
    <glyph glyph-name="uni1E31" unicode="&#x1e31;" horiz-adv-x="1134" 
d="M768 1978l-305 -301h-178l274 301h209zM1167 1034l-530 -448l401 -586h-180l-338 487l-198 -168l-46 -319h-163l211 1499h163l-139 -983l608 520z" />
    <glyph glyph-name="uni1E3E" unicode="&#x1e3e;" horiz-adv-x="1918" 
d="M1454 1913l-305 -301h-178l274 301h209zM1645 1434h188l-203 -1434h-166l166 1167l-618 -792h-142l-397 796l-166 -1171h-166l203 1434h176l438 -883z" />
    <glyph glyph-name="uni1E3F" unicode="&#x1e3f;" horiz-adv-x="1914" 
d="M1415 1516l-305 -302h-178l274 302h209zM1452 1065q150 0 230.5 -80.5t80.5 -230.5q0 -42 -6 -88l-94 -666h-164l88 627q8 66 8 90q0 100 -46.5 147t-143.5 47q-135 0 -231.5 -80t-116.5 -215l-88 -616h-164l88 627q8 66 8 90q0 100 -46.5 147t-143.5 47q-135 0 -231 -80
t-115 -215l-89 -616h-163l147 1036h164l-27 -180q55 99 151.5 154t213.5 55q121 0 199 -57.5t100 -165.5q53 104 156.5 163.5t234.5 59.5z" />
    <glyph glyph-name="uni1E40" unicode="&#x1e40;" horiz-adv-x="1918" 
d="M1118 1655q-44 0 -71 26t-27 68q0 56 38.5 95.5t94.5 39.5q44 0 72 -28.5t28 -71.5q0 -51 -39.5 -90t-95.5 -39zM1645 1434h188l-203 -1434h-166l166 1167l-618 -792h-142l-397 796l-166 -1171h-166l203 1434h176l438 -883z" />
    <glyph glyph-name="uni1E41" unicode="&#x1e41;" horiz-adv-x="1914" 
d="M1079 1257q-44 0 -71 26.5t-27 68.5q0 56 38.5 95.5t94.5 39.5q44 0 72 -29t28 -72q0 -51 -39.5 -90t-95.5 -39zM1452 1065q150 0 230.5 -80.5t80.5 -230.5q0 -42 -6 -88l-94 -666h-164l88 627q8 66 8 90q0 100 -46.5 147t-143.5 47q-135 0 -231.5 -80t-116.5 -215
l-88 -616h-164l88 627q8 66 8 90q0 100 -46.5 147t-143.5 47q-135 0 -231 -80t-115 -215l-89 -616h-163l147 1036h164l-27 -180q55 99 151.5 154t213.5 55q121 0 199 -57.5t100 -165.5q53 104 156.5 163.5t234.5 59.5z" />
    <glyph glyph-name="uni1E44" unicode="&#x1e44;" horiz-adv-x="1626" 
d="M971 1655q-44 0 -71.5 26.5t-27.5 67.5q0 56 38.5 95.5t95.5 39.5q44 0 72 -28.5t28 -71.5q0 -51 -39.5 -90t-95.5 -39zM1372 1434h168l-203 -1434h-159l-705 1163l-164 -1163h-168l203 1434h160l704 -1164z" />
    <glyph glyph-name="uni1E45" unicode="&#x1e45;" horiz-adv-x="1259" 
d="M737 1257q-44 0 -71 26.5t-27 68.5q0 56 38.5 95.5t94.5 39.5q44 0 72 -29t28 -72q0 -51 -39.5 -90t-95.5 -39zM782 1065q157 0 241.5 -82.5t84.5 -234.5q0 -40 -6 -86l-92 -662h-164l88 623q6 46 6 84q0 105 -52 154.5t-157 49.5q-142 0 -245 -80.5t-121 -214.5
l-89 -616h-163l147 1036h164l-27 -180q57 101 157.5 155t227.5 54z" />
    <glyph glyph-name="Wgrave" unicode="&#x1e80;" horiz-adv-x="2138" 
d="M1366 1612h-168l-223 301h199zM2032 1434h174l-650 -1434h-174l-217 1208l-557 -1208h-174l-244 1434h166l203 -1194l549 1194h172l215 -1196z" />
    <glyph glyph-name="wgrave" unicode="&#x1e81;" horiz-adv-x="1701" 
d="M1092 1214h-168l-224 302h199zM1559 1036h170l-490 -1036h-178l-164 850l-403 -850h-181l-194 1036h162l151 -837l397 837h181l161 -837z" />
    <glyph glyph-name="Wacute" unicode="&#x1e82;" horiz-adv-x="2138" 
d="M1563 1913l-306 -301h-178l275 301h209zM2032 1434h174l-650 -1434h-174l-217 1208l-557 -1208h-174l-244 1434h166l203 -1194l549 1194h172l215 -1196z" />
    <glyph glyph-name="wacute" unicode="&#x1e83;" horiz-adv-x="1701" 
d="M1288 1516l-305 -302h-178l274 302h209zM1559 1036h170l-490 -1036h-178l-164 850l-403 -850h-181l-194 1036h162l151 -837l397 837h181l161 -837z" />
    <glyph glyph-name="Wdieresis" unicode="&#x1e84;" horiz-adv-x="2138" 
d="M1010 1655q-45 0 -72 26t-27 68q0 56 37.5 95.5t93.5 39.5q45 0 73 -28.5t28 -71.5q0 -50 -39.5 -89.5t-93.5 -39.5zM1446 1655q-45 0 -71.5 26t-26.5 68q0 56 38 95.5t93 39.5q45 0 72.5 -28.5t27.5 -71.5q0 -51 -38.5 -90t-94.5 -39zM2032 1434h174l-650 -1434h-174
l-217 1208l-557 -1208h-174l-244 1434h166l203 -1194l549 1194h172l215 -1196z" />
    <glyph glyph-name="wdieresis" unicode="&#x1e85;" horiz-adv-x="1701" 
d="M735 1257q-45 0 -71.5 26.5t-26.5 68.5q0 56 37.5 95.5t93.5 39.5q45 0 72.5 -28.5t27.5 -72.5q0 -50 -39 -89.5t-94 -39.5zM1171 1257q-45 0 -71.5 26.5t-26.5 68.5q0 56 38 95.5t93 39.5q45 0 73 -29t28 -72q0 -51 -39 -90t-95 -39zM1559 1036h170l-490 -1036h-178
l-164 850l-403 -850h-181l-194 1036h162l151 -837l397 837h181l161 -837z" />
    <glyph glyph-name="uni1E90" unicode="&#x1e90;" horiz-adv-x="1243" 
d="M813 1812l-215 -200h-176l321 301h152l240 -301h-160zM1264 1434l-17 -134l-991 -1144h842l-25 -156h-1053l19 133l991 1145h-799l21 156h1012z" />
    <glyph glyph-name="uni1E91" unicode="&#x1e91;" horiz-adv-x="1030" 
d="M649 1415l-215 -201h-176l322 302h151l240 -302h-160zM991 1036l-16 -125l-723 -766h622l-22 -145h-823l18 125l721 766h-596l21 145h798z" />
    <glyph glyph-name="uni1E9E" unicode="&#x1e9e;" horiz-adv-x="1505" 
d="M1001 778q192 -13 291 -95.5t99 -225.5q0 -110 -43 -202t-125 -153q-135 -102 -371 -102h-231l22 156h197q188 0 282 73q46 37 70.5 97t24.5 125q0 96 -72.5 143t-226.5 47h-138l19 150l411 421q-98 95 -305 95q-218 0 -337 -98.5t-148 -309.5l-127 -899h-172l129 911
q78 551 645 551q374 0 526 -252z" />
    <glyph glyph-name="Ygrave" unicode="&#x1ef2;" horiz-adv-x="1314" 
d="M952 1612h-168l-223 301h199zM1225 1434h200l-671 -838l-86 -596h-172l86 596l-437 838h187l350 -686z" />
    <glyph glyph-name="ygrave" unicode="&#x1ef3;" horiz-adv-x="1105" 
d="M797 1214h-168l-223 302h200zM967 1036h176l-789 -1444h-168l213 396l-284 1048h168l225 -866z" />
    <glyph glyph-name="uni2000" unicode="&#x2000;" horiz-adv-x="1024" 
 />
    <glyph glyph-name="uni2001" unicode="&#x2001;" horiz-adv-x="2048" 
 />
    <glyph glyph-name="uni2002" unicode="&#x2002;" horiz-adv-x="1024" 
 />
    <glyph glyph-name="uni2003" unicode="&#x2003;" horiz-adv-x="2048" 
 />
    <glyph glyph-name="uni2009" unicode="&#x2009;" horiz-adv-x="432" 
 />
    <glyph glyph-name="uni200A" unicode="&#x200a;" horiz-adv-x="122" 
 />
    <glyph glyph-name="uni200B" unicode="&#x200b;" horiz-adv-x="0" 
 />
    <glyph glyph-name="endash" unicode="&#x2013;" horiz-adv-x="1251" 
d="M115 520l18 139h1024l-18 -139h-1024z" />
    <glyph glyph-name="emdash" unicode="&#x2014;" horiz-adv-x="2275" 
d="M115 520l18 139h2048l-18 -139h-2048z" />
    <glyph glyph-name="quoteleft" unicode="&#x2018;" horiz-adv-x="479" 
d="M164 956l215 506h131l-176 -506h-170z" />
    <glyph glyph-name="quoteright" unicode="&#x2019;" horiz-adv-x="479" 
d="M510 1462l-215 -506h-131l176 506h170z" />
    <glyph glyph-name="quotesinglbase" unicode="&#x201a;" horiz-adv-x="468" 
d="M315 221l-215 -506h-131l176 506h170z" />
    <glyph glyph-name="quotedblleft" unicode="&#x201c;" horiz-adv-x="827" 
d="M164 956l215 506h131l-176 -506h-170zM514 956l213 506h131l-174 -506h-170z" />
    <glyph glyph-name="quotedblright" unicode="&#x201d;" horiz-adv-x="827" 
d="M510 1462l-215 -506h-131l176 506h170zM858 1462l-213 -506h-131l174 506h170z" />
    <glyph glyph-name="quotedblbase" unicode="&#x201e;" horiz-adv-x="817" 
d="M315 221l-215 -506h-131l176 506h170zM664 221l-215 -506h-132l177 506h170z" />
    <glyph glyph-name="dagger" unicode="&#x2020;" horiz-adv-x="1062" 
d="M1042 1032l-20 -151h-358l-162 -1147h-164l162 1147h-355l21 151h354l68 484h164l-68 -484h358z" />
    <glyph glyph-name="daggerdbl" unicode="&#x2021;" horiz-adv-x="1103" 
d="M1042 881h-358l-68 -469h318l-21 -152h-317l-74 -526h-164l74 526h-313l20 152h314l67 469h-354l20 151h355l67 484h164l-67 -484h358z" />
    <glyph glyph-name="bullet" unicode="&#x2022;" horiz-adv-x="1060" 
d="M561 440q-127 0 -212 85.5t-85 211.5t85 211.5t212 85.5t213 -85.5t86 -211.5t-86 -211.5t-213 -85.5z" />
    <glyph glyph-name="ellipsis" unicode="&#x2026;" horiz-adv-x="1482" 
d="M186 -16q-58 0 -86.5 36t-19.5 95q6 47 39.5 76.5t83.5 29.5q58 0 87 -35.5t21 -91.5q-5 -48 -39.5 -79t-85.5 -31zM674 -16q-57 0 -86.5 36t-20.5 95q6 47 40 76.5t85 29.5q56 0 85.5 -35.5t23.5 -91.5q-6 -48 -40.5 -79t-86.5 -31zM1161 -16q-56 0 -85 36t-21 95
q6 47 40 76.5t85 29.5q56 0 85 -35.5t23 -91.5q-6 -48 -40.5 -79t-86.5 -31z" />
    <glyph glyph-name="perthousand" unicode="&#x2030;" horiz-adv-x="2568" 
d="M477 737q-141 0 -233 88.5t-92 223.5q0 109 52.5 204t145.5 152t203 57q140 0 233 -88t93 -223q0 -167 -118 -290.5t-284 -123.5zM184 0l1254 1434h164l-1254 -1434h-164zM481 864q115 0 186.5 81.5t71.5 195.5q0 90 -50.5 142t-139.5 52q-116 0 -187 -82.5t-71 -197.5
q0 -87 51 -139t139 -52zM1235 -29q-141 0 -233.5 88.5t-92.5 223.5q0 168 117.5 290.5t284.5 122.5q140 0 233.5 -89t93.5 -222q0 -167 -118.5 -290.5t-284.5 -123.5zM2071 -29q-140 0 -232 88.5t-92 223.5q0 167 116.5 290t282.5 123q141 0 234.5 -88.5t93.5 -222.5
q0 -109 -53 -204.5t-146.5 -152.5t-203.5 -57zM1239 98q115 0 186.5 81.5t71.5 195.5q0 90 -50.5 142t-139.5 52q-116 0 -187 -82.5t-71 -197.5q0 -87 51 -139t139 -52zM2077 98q114 0 185 81.5t71 195.5q0 90 -50 142t-139 52q-117 0 -188.5 -82.5t-71.5 -197.5
q0 -87 52 -139t141 -52z" />
    <glyph glyph-name="guilsinglleft" unicode="&#x2039;" horiz-adv-x="667" 
d="M635 956l-367 -438l242 -436h-180l-248 438l367 436h186z" />
    <glyph glyph-name="guilsinglright" unicode="&#x203a;" horiz-adv-x="667" 
d="M338 956l248 -436l-367 -438h-186l366 440l-241 434h180z" />
    <glyph glyph-name="fraction" unicode="&#x2044;" horiz-adv-x="354" 
d="M-479 0l1204 1434h164l-1206 -1434h-162z" />
    <glyph glyph-name="uni2070" unicode="&#x2070;" horiz-adv-x="782" 
d="M418 713q-127 0 -197.5 78.5t-70.5 226.5q0 102 31 207.5t89 173.5q102 117 260 117q126 0 198.5 -79.5t72.5 -226.5q0 -114 -39 -227t-111 -180q-93 -90 -233 -90zM426 844q78 0 131 53q50 50 74 141t24 181q0 87 -32 126t-99 39q-95 0 -151 -73q-38 -53 -58 -138
t-20 -163q0 -87 32 -126.5t99 -39.5z" />
    <glyph glyph-name="uni2074" unicode="&#x2074;" horiz-adv-x="706" 
d="M745 1006l-16 -119h-98l-23 -160h-135l23 160h-398l17 119l438 495h164l-70 -495h98zM264 1006h248l47 331z" />
    <glyph glyph-name="uni2075" unicode="&#x2075;" horiz-adv-x="684" 
d="M705 1374h-351l-26 -188q62 33 137 33q105 0 170 -56t65 -153q0 -136 -91 -216.5t-240 -80.5q-175 0 -269 116l88 97q60 -84 181 -84q81 0 132.5 41.5t51.5 115.5q0 48 -31 76.5t-88 28.5q-88 0 -155 -53l-97 51l56 399h483z" />
    <glyph glyph-name="uni2076" unicode="&#x2076;" horiz-adv-x="696" 
d="M469 1253q107 0 177.5 -62.5t70.5 -164.5q0 -136 -94.5 -224.5t-235.5 -88.5q-119 0 -193.5 65t-74.5 172q0 159 151 328l201 223h168l-236 -256q27 8 66 8zM393 840q80 0 131 49t51 127q0 57 -35 88t-98 31q-80 0 -131 -47.5t-51 -126.5q0 -57 34.5 -89t98.5 -32z" />
    <glyph glyph-name="uni2077" unicode="&#x2077;" horiz-adv-x="612" 
d="M170 1501h547l-15 -117l-409 -657h-162l406 641h-383z" />
    <glyph glyph-name="uni2078" unicode="&#x2078;" horiz-adv-x="718" 
d="M596 1122q125 -48 125 -161q0 -116 -92 -182t-230 -66q-133 0 -207.5 54.5t-74.5 143.5q0 162 178 217q-105 45 -105 146q0 111 85.5 176.5t213.5 65.5q122 0 191.5 -54t69.5 -137q0 -73 -41.5 -125t-112.5 -78zM492 1401q-72 0 -118 -35t-46 -98q0 -42 31.5 -66
t93.5 -24q72 0 113.5 36t41.5 95q0 92 -116 92zM399 834q78 0 127 33t49 98q0 47 -35 73.5t-104 26.5q-79 0 -125.5 -36.5t-46.5 -100.5q0 -94 135 -94z" />
    <glyph glyph-name="uni2079" unicode="&#x2079;" horiz-adv-x="692" 
d="M477 1516q119 0 193.5 -67t74.5 -177q0 -153 -151 -322l-203 -223h-168l238 256q-27 -8 -66 -8q-108 0 -179 63.5t-71 167.5q0 134 95 222t237 88zM426 1094q82 0 130 49.5t48 126.5q0 56 -35.5 87.5t-99.5 31.5q-81 0 -131.5 -50.5t-50.5 -124.5q0 -58 36.5 -89
t102.5 -31z" />
    <glyph glyph-name="Euro" unicode="&#x20ac;" horiz-adv-x="1312" 
d="M729 123q105 0 198 66t150 182l131 -62q-83 -164 -211 -251t-276 -87q-197 0 -322.5 144t-138.5 387h-180l16 123h164q6 93 27 184h-164l18 123h178q66 197 179 325q183 205 417 205q150 0 261 -88t147 -250l-149 -61q-23 118 -91 183t-170 65q-80 0 -155.5 -39.5
t-136.5 -114.5q-78 -90 -127 -225h499l-16 -123h-518q-21 -90 -27 -184h516l-14 -123h-502q10 -180 90 -279.5t207 -99.5z" />
    <glyph glyph-name="uni2116" unicode="&#x2116;" horiz-adv-x="2668" 
d="M2109 586q-174 0 -277 105.5t-103 266.5q0 138 63.5 253.5t176 183t247.5 67.5q176 0 279.5 -105.5t103.5 -266.5q0 -136 -64.5 -252t-177.5 -184t-248 -68zM1208 270l164 1164h168l-203 -1434h-159l-705 1163l-164 -1163h-168l203 1434h160zM2210 1317q-142 0 -230 -101
t-88 -253q0 -108 57.5 -170t164.5 -62q141 0 231 101t90 251q0 107 -58.5 170.5t-166.5 63.5zM1642 250l23 149h821l-22 -149h-822z" />
    <glyph glyph-name="trademark" unicode="&#x2122;" horiz-adv-x="1888" 
d="M205 1307l18 127h619l-19 -127h-239l-103 -709h-135l100 709h-241zM1733 1434h139l-119 -836h-135l88 616l-311 -372h-88l-207 372l-86 -616h-137l118 836h133l242 -439z" />
    <glyph glyph-name="uni2126" unicode="&#x2126;" horiz-adv-x="1673" 
d="M1405 381q-98 -137 -244 -225h307l-24 -156h-561l24 156q246 105 371 305q111 169 111 395q0 208 -116.5 329.5t-316.5 121.5q-231 0 -407 -168q-97 -94 -149 -227t-52 -275q0 -324 318 -481l-23 -156h-561l22 156h308q-114 86 -174 209.5t-60 275.5q0 169 69.5 332
t192.5 278q105 101 240 156t281 55q127 0 237 -44.5t189 -123.5t124 -192.5t45 -245.5q0 -267 -151 -475z" />
    <glyph glyph-name="estimated" unicode="&#x212e;" horiz-adv-x="1699" 
d="M881 0q-145 0 -275.5 52t-228.5 147q-97 94 -152 228.5t-55 289.5t55 291.5t152 230.5q98 92 229 143.5t275 51.5t274 -51.5t227 -143.5q98 -93 153.5 -230t55.5 -292v-25h-1196v-309q0 -72 20.5 -119t71.5 -84q171 -127 394 -127q172 0 315 75t231 210l43 -33
q-97 -145 -251.5 -225t-337.5 -80zM395 741h981v299q0 71 -20 120.5t-68 86.5q-177 133 -407 133q-223 0 -394 -127q-51 -37 -71.5 -84t-20.5 -120v-308z" />
    <glyph glyph-name="arrowleft" unicode="&#x2190;" 
d="M1401 795v-156h-1039l363 -348l-104 -105l-523 531l523 530l104 -104l-363 -348h1039z" />
    <glyph glyph-name="arrowup" unicode="&#x2191;" 
d="M1307 862l-105 -104l-348 360v-1036h-156v1038l-348 -362l-104 104l530 522z" />
    <glyph glyph-name="arrowright" unicode="&#x2192;" 
d="M889 1247l522 -530l-522 -531l-105 105l363 348h-1038v156h1038l-363 348z" />
    <glyph glyph-name="arrowdown" unicode="&#x2193;" 
d="M1161 686l105 -104l-531 -523l-530 523l104 104l348 -360v1036h156v-1038z" />
    <glyph glyph-name="uni2196" unicode="&#x2196;" 
d="M1239 315l-111 -110l-731 731l9 -498l-148 -2l6 746l746 6l-2 -150l-502 11z" />
    <glyph glyph-name="uni2197" unicode="&#x2197;" 
d="M1196 436l-147 2l8 500l-731 -731l-111 108l731 734l-500 -9l-2 148l746 -6z" />
    <glyph glyph-name="uni2198" unicode="&#x2198;" 
d="M1047 995l147 2l-6 -745l-746 -6l2 149l502 -10l-733 733l111 111l731 -731z" />
    <glyph glyph-name="uni2199" unicode="&#x2199;" 
d="M508 385l500 10l2 -149l-746 6l-6 745l148 -2l-9 -499l731 731l111 -109z" />
    <glyph glyph-name="partialdiff" unicode="&#x2202;" horiz-adv-x="1312" 
d="M733 1464q245 0 374.5 -146.5t129.5 -422.5q0 -147 -26 -289t-87 -275.5t-149 -209.5q-175 -152 -402 -152q-214 0 -342.5 120.5t-128.5 311.5q0 155 74 283.5t204 202.5t288 74q135 0 240.5 -57.5t150.5 -162.5h2q10 92 10 156q0 219 -88 318.5t-266 99.5
q-148 0 -311 -82l-39 141q173 90 366 90zM578 123q183 0 303 116t120 289q0 129 -86.5 205t-232.5 76q-183 0 -295.5 -113t-112.5 -290q0 -131 81 -207t223 -76z" />
    <glyph glyph-name="uni2206" unicode="&#x2206;" horiz-adv-x="1392" 
d="M872 1434l410 -1338l-74 -96h-1171l-45 96l788 1338h92zM1098 152l-307 1005l-590 -1005h897z" />
    <glyph glyph-name="product" unicode="&#x220f;" horiz-adv-x="1425" 
d="M1350 1516l-250 -1782h-172l227 1622h-651l-228 -1622h-172l250 1782h996z" />
    <glyph glyph-name="summation" unicode="&#x2211;" horiz-adv-x="1105" 
d="M1184 1516l-23 -156h-739l422 -735l-629 -736h739l-20 -155h-930l21 155l630 736l-424 735l23 156h930z" />
    <glyph glyph-name="minus" unicode="&#x2212;" 
d="M287 578l18 143h899l-18 -143h-899z" />
    <glyph glyph-name="radical" unicode="&#x221a;" horiz-adv-x="1251" 
d="M1200 1516h170l-766 -1782h-182l-170 770h-221l20 155h342l146 -686z" />
    <glyph glyph-name="infinity" unicode="&#x221e;" horiz-adv-x="1523" 
d="M1167 1063q141 0 226.5 -84.5t85.5 -222.5q0 -120 -49 -219.5t-139 -158.5t-204 -59q-118 0 -189.5 59.5t-125.5 166.5q-37 -50 -71.5 -87t-79 -70.5t-99 -51t-116.5 -17.5q-141 0 -227.5 85.5t-86.5 224.5q0 119 48.5 217.5t138.5 157.5t204 59q119 0 192 -60t124 -165
q77 106 162.5 165.5t205.5 59.5zM414 465q46 0 87 17.5t77.5 54.5t63 71.5t63.5 91.5q-23 52 -41 85t-45 66.5t-62.5 50t-79.5 16.5q-103 0 -165 -82.5t-62 -190.5q0 -83 44.5 -131.5t119.5 -48.5zM1096 465q102 0 164.5 82t62.5 190q0 83 -44.5 132t-119.5 49
q-46 0 -87 -18t-78.5 -55t-64 -72t-63.5 -91q22 -51 41 -84.5t46.5 -66.5t63 -49.5t79.5 -16.5z" />
    <glyph glyph-name="integral" unicode="&#x222b;" horiz-adv-x="784" 
d="M-70 -266l23 151h141q125 0 139 123l177 1247q20 137 93.5 199t213.5 62h166l-23 -152h-141q-62 0 -96.5 -29.5t-44.5 -93.5l-175 -1247q-20 -137 -93.5 -198.5t-213.5 -61.5h-166z" />
    <glyph glyph-name="approxequal" unicode="&#x2248;" 
d="M973 739q-75 0 -209 44t-207 44q-114 0 -248 -86l19 146q124 82 252 82q72 0 207 -44t202 -44q63 0 130.5 23.5t119.5 62.5l-18 -146q-128 -82 -248 -82zM915 330q-75 0 -208.5 43t-206.5 43q-113 0 -248 -84l18 145q124 82 252 82q72 0 207.5 -44t202.5 -44
q63 0 130.5 23.5t119.5 62.5l-19 -145q-128 -82 -248 -82z" />
    <glyph glyph-name="notequal" unicode="&#x2260;" 
d="M1214 782h-317l-166 -266h445l-19 -145h-516l-170 -273h-137l170 273h-246l18 145h318l166 266h-445l19 146h516l170 272h137l-170 -272h246z" />
    <glyph glyph-name="lessequal" unicode="&#x2264;" 
d="M1260 1133l-21 -160l-760 -279l682 -276l-20 -152l-850 355l20 155zM207 0l18 145h899l-20 -145h-897z" />
    <glyph glyph-name="greaterequal" unicode="&#x2265;" 
d="M362 1133l850 -357l-20 -155l-948 -355l20 160l758 279l-680 274zM207 0l18 145h899l-20 -145h-897z" />
    <glyph glyph-name="filledbox" unicode="&#x25a0;" horiz-adv-x="1845" 
d="M133 0l201 1434h1433l-200 -1434h-1434z" />
    <glyph glyph-name="triagup" unicode="&#x25b2;" horiz-adv-x="1843" 
d="M131 0l918 1434l516 -1434h-1434z" />
    <glyph glyph-name="triagdn" unicode="&#x25bc;" horiz-adv-x="1843" 
d="M850 0l-516 1434h1433z" />
    <glyph glyph-name="uni25C6" unicode="&#x25c6;" horiz-adv-x="1843" 
d="M846 0l-615 715l816 719l618 -719z" />
    <glyph glyph-name="lozenge" unicode="&#x25ca;" horiz-adv-x="1280" 
d="M836 1434l413 -717l-616 -717h-133l-414 717l616 717h134zM584 164l479 557l-313 547l-480 -557z" />
    <glyph glyph-name="uni25CF" unicode="&#x25cf;" horiz-adv-x="1841" 
d="M848 0q-177 0 -320 81t-223 222t-80 313q0 161 69 312.5t182 262t264 177t309 66.5q177 0 320 -81.5t222.5 -222.5t79.5 -313q0 -161 -69 -312.5t-181.5 -261.5t-263.5 -176.5t-309 -66.5z" />
    <glyph glyph-name="uni2610" unicode="&#x2610;" horiz-adv-x="1843" 
d="M133 0l201 1434h1431l-200 -1434h-1432zM299 137h1139l161 1159h-1138z" />
    <glyph glyph-name="uni2611" unicode="&#x2611;" horiz-adv-x="1843" 
d="M334 1434h1431l-200 -1434h-1432zM1438 137l161 1159h-1138l-162 -1159h1139zM829 504l373 647l115 -90l-449 -778l-286 225l75 131z" />
    <glyph glyph-name="uni2612" unicode="&#x2612;" horiz-adv-x="1843" 
d="M334 1434h1431l-200 -1434h-1432zM1438 137l161 1159h-1138l-162 -1159h1139zM1317 1128l92 -96l-362 -317l268 -316l-113 -94l-264 313l-356 -313l-90 96l360 318l-266 315l110 94l267 -313z" />
    <glyph glyph-name="heart" unicode="&#x2665;" horiz-adv-x="1843" 
d="M862 98q-53 59 -123.5 119t-129.5 101t-119.5 92t-102 98t-68 112.5t-26.5 141.5q0 197 123 338t301 141q119 0 196 -73t68 -205h4q29 132 126 205t216 73q128 0 219.5 -87t91.5 -245q0 -104 -36.5 -192.5t-93 -149.5t-140 -123.5t-162.5 -109t-177 -111.5t-167 -125z
" />
    <glyph glyph-name="uni2B51" unicode="&#x2b51;" horiz-adv-x="1843" 
d="M373 -6l260 557l-420 340h582l256 553l100 -555h584l-521 -342l103 -553l-422 344z" />
    <glyph glyph-name="uni00A40301" horiz-adv-x="1206" 
d="M932 1612l274 301h209l-305 -301h-178zM432 -29q-139 0 -249.5 53t-178.5 152l125 107q103 -152 307 -152q163 0 271 102t135 295l127 906h172l-131 -926q-35 -250 -189.5 -393.5t-388.5 -143.5z" />
    <glyph glyph-name="i.loclTRK" horiz-adv-x="538" 
d="M373 1257q-44 0 -71.5 26.5t-27.5 68.5q0 56 38.5 95.5t95.5 39.5q44 0 72 -29t28 -72q0 -51 -39.5 -90t-95.5 -39zM115 0l147 1036h164l-147 -1036h-164z" />
    <glyph glyph-name="uni006A0301" horiz-adv-x="538" 
d="M229 1214l234 302h199l-267 -302h-166zM-88 -440q-52 0 -113 12l23 149q46 -12 94 -12q84 0 126.5 40.5t53.5 125.5l166 1161h164l-168 -1179q-19 -143 -105.5 -220t-240.5 -77z" />
    <glyph glyph-name="a.ss01" horiz-adv-x="1167" 
d="M655 1065q190 0 286.5 -102t70.5 -283l-97 -680h-155l26 180q-50 -90 -155.5 -145t-235.5 -55q-147 0 -238 74t-91 196q0 76 31.5 146t90.5 116q116 90 340 90h314l10 78q34 235 -207 235q-196 0 -340 -147l-98 102q78 94 196 144.5t252 50.5zM430 117q146 0 257 86.5
t128 216.5l8 53h-303q-150 0 -227 -70q-57 -49 -57 -139q0 -70 49.5 -108.5t144.5 -38.5z" />
    <glyph glyph-name="aacute.ss01" horiz-adv-x="1167" 
d="M1020 1516l-305 -302h-178l274 302h209zM655 1065q190 0 286.5 -102t70.5 -283l-97 -680h-155l26 180q-50 -90 -155.5 -145t-235.5 -55q-147 0 -238 74t-91 196q0 76 31.5 146t90.5 116q116 90 340 90h314l10 78q34 235 -207 235q-196 0 -340 -147l-98 102
q78 94 196 144.5t252 50.5zM430 117q146 0 257 86.5t128 216.5l8 53h-303q-150 0 -227 -70q-57 -49 -57 -139q0 -70 49.5 -108.5t144.5 -38.5z" />
    <glyph glyph-name="abreve.ss01" horiz-adv-x="1167" 
d="M874 1477h146l-2 -9q-18 -123 -103.5 -194.5t-224.5 -71.5q-129 0 -202.5 60t-73.5 163q0 28 4 52h143q-2 -12 -2 -35q0 -121 131 -121q75 0 124.5 41.5t59.5 114.5zM655 1065q190 0 286.5 -102t70.5 -283l-97 -680h-155l26 180q-50 -90 -155.5 -145t-235.5 -55
q-147 0 -238 74t-91 196q0 76 31.5 146t90.5 116q116 90 340 90h314l10 78q34 235 -207 235q-196 0 -340 -147l-98 102q78 94 196 144.5t252 50.5zM430 117q146 0 257 86.5t128 216.5l8 53h-303q-150 0 -227 -70q-57 -49 -57 -139q0 -70 49.5 -108.5t144.5 -38.5z" />
    <glyph glyph-name="uni01CE.ss01" horiz-adv-x="1167" 
d="M758 1214h-152l-239 302h159l162 -201l217 201h174zM655 1065q190 0 286.5 -102t70.5 -283l-97 -680h-155l26 180q-50 -90 -155.5 -145t-235.5 -55q-147 0 -238 74t-91 196q0 76 31.5 146t90.5 116q116 90 340 90h314l10 78q34 235 -207 235q-196 0 -340 -147l-98 102
q78 94 196 144.5t252 50.5zM430 117q146 0 257 86.5t128 216.5l8 53h-303q-150 0 -227 -70q-57 -49 -57 -139q0 -70 49.5 -108.5t144.5 -38.5z" />
    <glyph glyph-name="acircumflex.ss01" horiz-adv-x="1167" 
d="M717 1415l-215 -201h-176l321 302h152l239 -302h-159zM655 1065q190 0 286.5 -102t70.5 -283l-97 -680h-155l26 180q-50 -90 -155.5 -145t-235.5 -55q-147 0 -238 74t-91 196q0 76 31.5 146t90.5 116q116 90 340 90h314l10 78q34 235 -207 235q-196 0 -340 -147l-98 102
q78 94 196 144.5t252 50.5zM430 117q146 0 257 86.5t128 216.5l8 53h-303q-150 0 -227 -70q-57 -49 -57 -139q0 -70 49.5 -108.5t144.5 -38.5z" />
    <glyph glyph-name="adieresis.ss01" horiz-adv-x="1167" 
d="M469 1257q-45 0 -71.5 26.5t-26.5 68.5q0 56 37.5 95.5t93.5 39.5q45 0 72.5 -28.5t27.5 -72.5q0 -50 -39 -89.5t-94 -39.5zM905 1257q-45 0 -71.5 26.5t-26.5 68.5q0 56 38 95.5t93 39.5q45 0 72.5 -28.5t27.5 -72.5q0 -51 -38.5 -90t-94.5 -39zM655 1065
q190 0 286.5 -102t70.5 -283l-97 -680h-155l26 180q-50 -90 -155.5 -145t-235.5 -55q-147 0 -238 74t-91 196q0 76 31.5 146t90.5 116q116 90 340 90h314l10 78q34 235 -207 235q-196 0 -340 -147l-98 102q78 94 196 144.5t252 50.5zM430 117q146 0 257 86.5t128 216.5l8 53
h-303q-150 0 -227 -70q-57 -49 -57 -139q0 -70 49.5 -108.5t144.5 -38.5z" />
    <glyph glyph-name="agrave.ss01" horiz-adv-x="1167" 
d="M823 1214h-168l-223 302h199zM655 1065q190 0 286.5 -102t70.5 -283l-97 -680h-155l26 180q-50 -90 -155.5 -145t-235.5 -55q-147 0 -238 74t-91 196q0 76 31.5 146t90.5 116q116 90 340 90h314l10 78q34 235 -207 235q-196 0 -340 -147l-98 102q78 94 196 144.5
t252 50.5zM430 117q146 0 257 86.5t128 216.5l8 53h-303q-150 0 -227 -70q-57 -49 -57 -139q0 -70 49.5 -108.5t144.5 -38.5z" />
    <glyph glyph-name="amacron.ss01" horiz-adv-x="1167" 
d="M1014 1395l-17 -133h-616l16 133h617zM655 1065q190 0 286.5 -102t70.5 -283l-97 -680h-155l26 180q-50 -90 -155.5 -145t-235.5 -55q-147 0 -238 74t-91 196q0 76 31.5 146t90.5 116q116 90 340 90h314l10 78q34 235 -207 235q-196 0 -340 -147l-98 102q78 94 196 144.5
t252 50.5zM430 117q146 0 257 86.5t128 216.5l8 53h-303q-150 0 -227 -70q-57 -49 -57 -139q0 -70 49.5 -108.5t144.5 -38.5z" />
    <glyph glyph-name="aogonek.ss01" horiz-adv-x="1167" 
d="M655 1065q190 0 286.5 -102t70.5 -283l-97 -680q-19 -15 -58.5 -43.5t-62.5 -47t-50.5 -44t-40.5 -50t-13 -48.5q0 -72 117 -72h67l-20 -133h-84q-116 0 -180 46t-64 120q0 152 234 274l26 178q-50 -90 -155.5 -145t-235.5 -55q-147 0 -238 74t-91 196q0 76 31.5 146
t90.5 116q116 90 340 90h314l10 78q34 235 -207 235q-196 0 -340 -147l-98 102q78 94 196 144.5t252 50.5zM430 117q146 0 257 86.5t128 216.5l8 53h-303q-150 0 -227 -70q-57 -49 -57 -139q0 -70 49.5 -108.5t144.5 -38.5z" />
    <glyph glyph-name="aring.ss01" horiz-adv-x="1167" 
d="M684 1190q-97 0 -160 58t-63 147q0 108 82.5 187t195.5 79q95 0 158.5 -58.5t63.5 -144.5q0 -109 -83 -188.5t-194 -79.5zM735 1548q-62 0 -106.5 -43t-44.5 -104q0 -44 27.5 -72.5t76.5 -28.5q63 0 106.5 43.5t43.5 106.5q0 45 -26.5 71.5t-76.5 26.5zM655 1065
q190 0 286.5 -102t70.5 -283l-97 -680h-155l26 180q-50 -90 -155.5 -145t-235.5 -55q-147 0 -238 74t-91 196q0 76 31.5 146t90.5 116q116 90 340 90h314l10 78q34 235 -207 235q-196 0 -340 -147l-98 102q78 94 196 144.5t252 50.5zM430 117q146 0 257 86.5t128 216.5l8 53
h-303q-150 0 -227 -70q-57 -49 -57 -139q0 -70 49.5 -108.5t144.5 -38.5z" />
    <glyph glyph-name="atilde.ss01" horiz-adv-x="1167" 
d="M565 1372q-35 0 -58.5 -32.5t-29.5 -96.5h-119q10 119 68.5 186.5t148.5 67.5q39 0 75.5 -20t88.5 -68q37 -36 57.5 -46.5t43.5 -10.5q35 0 58.5 33t29.5 98h119q-10 -120 -69 -187t-149 -67q-35 0 -72 18.5t-91 69.5q-60 55 -101 55zM655 1065q190 0 286.5 -102
t70.5 -283l-97 -680h-155l26 180q-50 -90 -155.5 -145t-235.5 -55q-147 0 -238 74t-91 196q0 76 31.5 146t90.5 116q116 90 340 90h314l10 78q34 235 -207 235q-196 0 -340 -147l-98 102q78 94 196 144.5t252 50.5zM430 117q146 0 257 86.5t128 216.5l8 53h-303
q-150 0 -227 -70q-57 -49 -57 -139q0 -70 49.5 -108.5t144.5 -38.5z" />
    <glyph glyph-name="j.ss02" horiz-adv-x="538" 
d="M373 1257q-44 0 -71.5 27t-27.5 70q0 54 37.5 93.5t91.5 39.5q45 0 74 -29t29 -72q0 -52 -38.5 -90.5t-94.5 -38.5zM57 -410l205 1446h164l-205 -1446h-164z" />
    <glyph glyph-name="uni0237.ss02" horiz-adv-x="538" 
d="M57 -410l205 1446h164l-205 -1446h-164z" />
    <glyph glyph-name="uni006A0301.ss02" horiz-adv-x="538" 
d="M229 1214l234 302h199l-267 -302h-166zM57 -410l205 1446h164l-205 -1446h-164z" />
    <glyph glyph-name="jcircumflex.ss02" horiz-adv-x="538" 
d="M485 1516l207 -302h-155l-136 203l-188 -203h-170l291 302h151zM57 -410l205 1446h164l-205 -1446h-164z" />
    <glyph glyph-name="t.ss03" horiz-adv-x="788" 
d="M238 0l127 895h-273l23 141h270l43 307h164l-43 -307h270l-20 -141h-271l-127 -895h-163z" />
    <glyph glyph-name="tbar.ss03" horiz-adv-x="788" 
d="M799 895h-271l-41 -293h232l-17 -129h-233l-68 -473h-163l67 473h-231l18 129h232l41 293h-273l23 141h270l43 307h164l-43 -307h270z" />
    <glyph glyph-name="tcaron.ss03" horiz-adv-x="862" 
d="M731 1190l55 401h170l-98 -401h-127zM238 0l127 895h-273l23 141h270l43 307h164l-43 -307h270l-20 -141h-271l-127 -895h-163z" />
    <glyph glyph-name="uni0163.ss03" horiz-adv-x="788" 
d="M238 0l127 895h-273l23 141h270l43 307h164l-43 -307h270l-20 -141h-271l-127 -895h-163zM92 -516l109 330h170l-152 -330h-127z" />
    <glyph glyph-name="uni021B.ss03" horiz-adv-x="788" 
d="M238 0l127 895h-273l23 141h270l43 307h164l-43 -307h270l-20 -141h-271l-127 -895h-163zM92 -516l111 330h168l-150 -330h-129z" />
    <glyph glyph-name="y.ss04" horiz-adv-x="1255" 
d="M981 1036h164l-137 -954q-34 -252 -176 -386t-379 -134q-131 0 -241 41.5t-171 115.5l96 117q117 -123 309 -123q166 0 269 93t129 276l18 125q-58 -99 -160 -153t-227 -54q-154 0 -241 81.5t-87 235.5q0 32 7 86l90 633h164l-84 -594q-9 -79 -9 -94q0 -103 47.5 -149.5
t149.5 -46.5q144 0 254.5 82.5t130.5 214.5z" />
    <glyph glyph-name="yacute.ss04" horiz-adv-x="1255" 
d="M1057 1516l-305 -302h-179l275 302h209zM981 1036h164l-137 -954q-34 -252 -176 -386t-379 -134q-131 0 -241 41.5t-171 115.5l96 117q117 -123 309 -123q166 0 269 93t129 276l18 125q-58 -99 -160 -153t-227 -54q-154 0 -241 81.5t-87 235.5q0 32 7 86l90 633h164
l-84 -594q-9 -79 -9 -94q0 -103 47.5 -149.5t149.5 -46.5q144 0 254.5 82.5t130.5 214.5z" />
    <glyph glyph-name="ycircumflex.ss04" horiz-adv-x="1255" 
d="M754 1415l-215 -201h-177l322 302h152l239 -302h-160zM981 1036h164l-137 -954q-34 -252 -176 -386t-379 -134q-131 0 -241 41.5t-171 115.5l96 117q117 -123 309 -123q166 0 269 93t129 276l18 125q-58 -99 -160 -153t-227 -54q-154 0 -241 81.5t-87 235.5q0 32 7 86
l90 633h164l-84 -594q-9 -79 -9 -94q0 -103 47.5 -149.5t149.5 -46.5q144 0 254.5 82.5t130.5 214.5z" />
    <glyph glyph-name="ydieresis.ss04" horiz-adv-x="1255" 
d="M506 1257q-45 0 -71.5 26.5t-26.5 68.5q0 56 37.5 95.5t93.5 39.5q45 0 72.5 -28.5t27.5 -72.5q0 -50 -39.5 -89.5t-93.5 -39.5zM942 1257q-45 0 -71.5 26.5t-26.5 68.5q0 56 38 95.5t93 39.5q45 0 72.5 -28.5t27.5 -72.5q0 -51 -38.5 -90t-94.5 -39zM981 1036h164
l-137 -954q-34 -252 -176 -386t-379 -134q-131 0 -241 41.5t-171 115.5l96 117q117 -123 309 -123q166 0 269 93t129 276l18 125q-58 -99 -160 -153t-227 -54q-154 0 -241 81.5t-87 235.5q0 32 7 86l90 633h164l-84 -594q-9 -79 -9 -94q0 -103 47.5 -149.5t149.5 -46.5
q144 0 254.5 82.5t130.5 214.5z" />
    <glyph glyph-name="ygrave.ss04" horiz-adv-x="1255" 
d="M860 1214h-168l-223 302h199zM981 1036h164l-137 -954q-34 -252 -176 -386t-379 -134q-131 0 -241 41.5t-171 115.5l96 117q117 -123 309 -123q166 0 269 93t129 276l18 125q-58 -99 -160 -153t-227 -54q-154 0 -241 81.5t-87 235.5q0 32 7 86l90 633h164l-84 -594
q-9 -79 -9 -94q0 -103 47.5 -149.5t149.5 -46.5q144 0 254.5 82.5t130.5 214.5z" />
    <glyph glyph-name="zero.zero" horiz-adv-x="1437" 
d="M846 1462q229 0 358 -148.5t129 -420.5q0 -231 -79 -447t-226 -340q-163 -135 -381 -135q-230 0 -358.5 149t-128.5 419q0 193 59.5 389.5t169.5 320.5q179 213 457 213zM504 1139q-84 -110 -126 -277.5t-42 -331.5q0 -174 63 -278l602 1018q-67 37 -163 37
q-209 0 -334 -168zM942 238q108 103 162.5 289.5t54.5 375.5q0 175 -63 279l-604 -1016q65 -39 165 -39q165 0 285 111z" />
    <glyph glyph-name="zero.lf" horiz-adv-x="1437" 
d="M647 -29q-230 0 -358.5 149t-128.5 419q0 193 59.5 389.5t169.5 320.5q179 213 457 213q229 0 358 -148.5t129 -420.5q0 -231 -79 -447t-226 -340q-163 -135 -381 -135zM657 127q165 0 285 111q108 103 162.5 289.5t54.5 375.5q0 404 -321 404q-209 0 -334 -168
q-84 -110 -126 -277.5t-42 -331.5q0 -403 321 -403z" />
    <glyph glyph-name="one.lf" horiz-adv-x="882" 
d="M645 1434h139l-202 -1434h-168l176 1253l-412 -198l23 166z" />
    <glyph glyph-name="two.lf" horiz-adv-x="1196" 
d="M795 575l-510 -419h753l-24 -156h-994l21 143l598 496q165 135 247.5 241.5t82.5 223.5q0 100 -61 152.5t-175 52.5q-249 0 -438 -269l-121 88q102 164 246.5 249t314.5 85q184 0 295 -97t111 -257q0 -144 -88.5 -269t-257.5 -264z" />
    <glyph glyph-name="three.lf" horiz-adv-x="1161" 
d="M817 727q108 -35 165.5 -109t57.5 -174q0 -102 -48 -198.5t-130 -159.5q-146 -115 -381 -115q-148 0 -268.5 53.5t-194.5 155.5l115 107q67 -79 159.5 -120.5t196.5 -41.5q174 0 283 98q96 81 96 219q0 213 -350 213h-123l21 146h166q186 0 280 94q82 82 82 205
q0 99 -65 154t-193 55q-220 0 -397 -191l-109 103q208 241 516 241q191 0 305.5 -93.5t114.5 -246.5q0 -86 -34 -167t-95 -136q-68 -65 -170 -92z" />
    <glyph glyph-name="four.lf" horiz-adv-x="1271" 
d="M1223 465l-21 -146h-219l-45 -319h-158l45 319h-770l19 142l850 973h217l-137 -969h219zM258 465h588l112 799z" />
    <glyph glyph-name="five.lf" horiz-adv-x="1198" 
d="M1130 1280h-690l-65 -473q136 80 297 80q192 0 310 -102.5t118 -278.5q0 -118 -54 -229.5t-147 -184.5q-155 -121 -389 -121q-302 0 -459 207l109 107q142 -160 354 -160q178 0 291 96q59 50 91 123t32 154q0 112 -71.5 174.5t-205.5 62.5q-174 0 -323 -100l-127 82
l100 717h850z" />
    <glyph glyph-name="six.lf" horiz-adv-x="1247" 
d="M733 965q185 0 308.5 -118.5t123.5 -307.5q0 -123 -54.5 -239t-149.5 -194q-166 -135 -398 -135q-208 0 -336.5 118t-128.5 317q0 173 105 358q78 135 190 256l371 414h209l-504 -543q121 74 264 74zM866 227q59 56 92 138.5t33 169.5q0 133 -79.5 206.5t-225.5 73.5
q-213 0 -332 -147q-84 -112 -84 -267q0 -131 80.5 -204.5t224.5 -73.5q174 0 291 104z" />
    <glyph glyph-name="seven.lf" horiz-adv-x="1071" 
d="M182 1434h965l-21 -146l-802 -1288h-183l803 1280h-782z" />
    <glyph glyph-name="eight.lf" horiz-adv-x="1290" 
d="M924 733q113 -41 172 -119.5t59 -183.5q0 -100 -50 -191.5t-134 -152.5q-153 -115 -396 -115q-225 0 -351 100.5t-126 258.5q0 94 41 178t115 143q80 60 174 88q-93 40 -142.5 111.5t-49.5 167.5q0 88 37.5 171.5t103.5 141.5q147 131 393 131q207 0 323.5 -96
t116.5 -248q0 -88 -37.5 -168t-105.5 -137q-63 -51 -143 -80zM489 1219q-83 -74 -83 -203q0 -98 68.5 -153.5t205.5 -55.5q176 0 276 94q82 76 82 201q0 98 -68.5 153.5t-205.5 55.5q-172 0 -275 -92zM877 215q104 84 104 219q0 102 -77 162.5t-230 60.5q-200 0 -309 -100
q-93 -83 -93 -207q0 -104 77 -164.5t231 -60.5q186 0 297 90z" />
    <glyph glyph-name="nine.lf" horiz-adv-x="1247" 
d="M739 1462q206 0 335.5 -115.5t129.5 -310.5q0 -179 -104 -366q-71 -127 -191 -256l-370 -414h-207l512 551q-125 -82 -271 -82q-186 0 -311 117.5t-125 306.5q0 124 57 242.5t154 195.5q162 131 391 131zM922 739q112 115 112 293q0 131 -80.5 205t-224.5 74
q-181 0 -293 -109q-125 -112 -125 -305q0 -133 78 -206t223 -73q192 0 310 121z" />
    <glyph glyph-name="zero.tf" 
d="M657 -29q-220 0 -338 143t-118 406q0 210 60.5 418t174.5 336q162 188 418 188q221 0 339 -143t118 -408q0 -227 -73 -448.5t-206 -349.5q-157 -142 -375 -142zM662 127q161 0 274 113q69 71 116.5 195t67 249t19.5 246q0 191 -70.5 284t-220.5 93q-195 0 -309 -156
q-82 -111 -124 -293t-42 -356q0 -190 70.5 -282.5t218.5 -92.5z" />
    <glyph glyph-name="one.tf" 
d="M827 154h373l-22 -154h-951l23 154h409l154 1099l-412 -198l23 166l444 213h140z" />
    <glyph glyph-name="two.tf" 
d="M928 575l-510 -419h753l-24 -156h-993l20 143l598 496q165 135 247.5 241.5t82.5 223.5q0 100 -61 152.5t-175 52.5q-249 0 -438 -269l-121 88q102 164 246.5 249t314.5 85q185 0 295.5 -97t110.5 -257q0 -144 -88.5 -269t-257.5 -264z" />
    <glyph glyph-name="three.tf" 
d="M969 727q108 -35 165.5 -109t57.5 -174q0 -103 -47.5 -199t-130.5 -159q-146 -115 -381 -115q-148 0 -268 53.5t-193 155.5l113 107q141 -162 358 -162q175 0 281 98q96 81 96 219q0 213 -350 213h-123l20 146h166q186 0 283 94q82 85 82 205q0 99 -65.5 154t-192.5 55
q-113 0 -210 -46t-190 -145l-106 103q208 241 514 241q191 0 305.5 -93.5t114.5 -246.5q0 -85 -33.5 -166.5t-93.5 -136.5q-71 -65 -172 -92z" />
    <glyph glyph-name="four.tf" 
d="M1325 465l-22 -146h-220l-45 -319h-157l45 319h-770l18 142l852 973h215l-137 -969h221zM360 465h586l113 797z" />
    <glyph glyph-name="five.tf" 
d="M1270 1280h-690l-66 -473q136 80 297 80q192 0 310 -102.5t118 -278.5q0 -118 -54 -229.5t-147 -184.5q-155 -121 -389 -121q-302 0 -459 207l109 107q142 -160 354 -160q178 0 291 96q59 50 91 123t32 154q0 112 -71.5 174.5t-204.5 62.5q-175 0 -324 -100l-127 82
l100 717h850z" />
    <glyph glyph-name="six.tf" 
d="M838 965q185 0 308.5 -118.5t123.5 -307.5q0 -123 -54.5 -239t-148.5 -194q-166 -135 -399 -135q-208 0 -335.5 118t-127.5 317q0 178 102 358q71 124 191 256l370 414h209l-504 -545q119 76 265 76zM971 227q60 56 92.5 138t32.5 170q0 133 -79 206.5t-226 73.5
q-104 0 -189 -38t-141 -109q-84 -112 -84 -267q0 -131 79.5 -204.5t225.5 -73.5q172 0 289 104z" />
    <glyph glyph-name="seven.tf" 
d="M379 1434h991l-20 -146l-803 -1288h-182l802 1280h-811z" />
    <glyph glyph-name="eight.tf" 
d="M1014 733q113 -41 172 -119.5t59 -183.5q0 -100 -50 -191.5t-134 -152.5q-153 -115 -395 -115q-225 0 -351.5 100.5t-126.5 258.5q0 94 41 178t115 143q80 60 174 88q-93 40 -142.5 111.5t-49.5 167.5q0 88 37.5 171.5t103.5 141.5q147 131 393 131q206 0 323 -96
t117 -248q0 -88 -37.5 -168t-105.5 -137q-63 -51 -143 -80zM580 1219q-86 -76 -86 -203q0 -98 69.5 -153.5t206.5 -55.5q177 0 277 94q81 75 81 201q0 98 -68.5 153.5t-205.5 55.5q-171 0 -274 -92zM967 215q104 84 104 219q0 102 -77 162.5t-230 60.5q-200 0 -309 -100
q-93 -83 -93 -207q0 -104 76.5 -164.5t229.5 -60.5q185 0 299 90z" />
    <glyph glyph-name="nine.tf" 
d="M848 1462q207 0 336 -115.5t129 -310.5q0 -181 -103 -366q-68 -121 -190 -256l-371 -414h-209l512 551q-122 -82 -270 -82q-185 0 -309.5 117.5t-124.5 306.5q0 124 57 242.5t154 195.5q162 131 389 131zM1032 739q111 114 111 293q0 131 -80 205t-225 74
q-179 0 -291 -109q-125 -112 -125 -305q0 -133 77.5 -206t223.5 -73q191 0 309 121z" />
    <glyph glyph-name="zero.tf.zero" 
d="M854 1462q221 0 339 -143t118 -408q0 -227 -73 -448.5t-206 -349.5q-157 -142 -375 -142q-220 0 -338 143t-118 406q0 210 60.5 418t174.5 336q162 188 418 188zM539 1151q-82 -111 -124 -293t-42 -356q0 -151 43 -238l594 1004q-62 39 -162 39q-195 0 -309 -156z
M936 240q69 71 116.5 195t67 249t19.5 246q0 150 -43 237l-594 -1001q62 -39 160 -39q161 0 274 113z" />
    <glyph glyph-name="zero.subs" horiz-adv-x="782" 
d="M297 -152q-127 0 -197.5 79t-70.5 227q0 102 31.5 207.5t89.5 173.5q101 116 260 116q126 0 198 -79t72 -226q0 -114 -39 -227t-111 -180q-94 -91 -233 -91zM305 -20q78 0 131 53q50 50 74.5 141t24.5 180q0 87 -32.5 126.5t-99.5 39.5q-94 0 -151 -74q-38 -53 -58 -138
t-20 -163q0 -87 32 -126t99 -39z" />
    <glyph glyph-name="one.subs" horiz-adv-x="495" 
d="M281 637h122l-108 -774h-141l88 626l-205 -96l20 137z" />
    <glyph glyph-name="two.subs" horiz-adv-x="675" 
d="M436 188l-231 -192h344l-21 -133h-557l15 106l323 271q70 55 109 101.5t39 94.5q0 38 -27.5 61t-75.5 23q-117 0 -200 -137l-111 66q48 93 134 147.5t188 54.5q101 0 169 -56.5t68 -139.5q0 -131 -166 -267z" />
    <glyph glyph-name="three.subs" horiz-adv-x="659" 
d="M424 256q119 -37 119 -162q0 -109 -87 -177.5t-218 -68.5q-182 0 -273 117l90 98q67 -83 185 -83q70 0 113.5 31t43.5 91q0 88 -141 88h-78l17 129h84q73 0 115 30t42 83q0 88 -110 88q-112 0 -201 -92l-90 90q54 63 132 98t167 35q112 0 182 -53t70 -143q0 -74 -45 -127
t-117 -72z" />
    <glyph glyph-name="four.subs" horiz-adv-x="706" 
d="M625 141l-17 -118h-98l-23 -160h-135l23 160h-398l17 118l438 496h164l-70 -496h99zM143 141h248l47 332z" />
    <glyph glyph-name="five.subs" horiz-adv-x="684" 
d="M584 510h-351l-26 -188q60 32 137 32q105 0 170.5 -56t65.5 -153q0 -135 -91.5 -216t-240.5 -81q-174 0 -268 117l88 96q60 -84 180 -84q81 0 132.5 42t51.5 116q0 48 -31 76.5t-88 28.5q-86 0 -155 -54l-97 52l56 399h483z" />
    <glyph glyph-name="six.subs" horiz-adv-x="696" 
d="M348 389q107 0 177.5 -62.5t70.5 -164.5q0 -136 -95 -225t-235 -89q-119 0 -193.5 65.5t-74.5 172.5q0 158 152 328l200 223h168l-235 -256q27 8 65 8zM272 -25q80 0 131.5 49.5t51.5 127.5q0 57 -35 87.5t-98 30.5q-80 0 -131.5 -47.5t-51.5 -126.5q0 -57 34.5 -89
t98.5 -32z" />
    <glyph glyph-name="seven.subs" horiz-adv-x="612" 
d="M49 637h547l-14 -117l-410 -657h-162l406 641h-383z" />
    <glyph glyph-name="eight.subs" horiz-adv-x="718" 
d="M475 258q125 -48 125 -162q0 -116 -91.5 -182t-229.5 -66q-133 0 -208 54.5t-75 144.5q0 162 178 217q-104 44 -104 146q0 111 85 176t214 65q122 0 191 -53.5t69 -136.5q0 -73 -41.5 -125t-112.5 -78zM371 537q-71 0 -117.5 -35.5t-46.5 -98.5q0 -42 31.5 -66t93.5 -24
q72 0 113.5 36t41.5 95q0 93 -116 93zM279 -31q78 0 127 33t49 98q0 47 -35.5 74t-104.5 27q-79 0 -125.5 -37t-46.5 -101q0 -94 136 -94z" />
    <glyph glyph-name="nine.subs" horiz-adv-x="692" 
d="M356 651q119 0 194 -67t75 -176q0 -152 -152 -322l-203 -223h-168l238 256q-27 -8 -66 -8q-108 0 -178.5 63.5t-70.5 167.5q0 134 94.5 221.5t236.5 87.5zM305 229q81 0 129.5 50t48.5 127q0 56 -35.5 87t-99.5 31q-81 0 -131.5 -50t-50.5 -124q0 -58 36.5 -89.5
t102.5 -31.5z" />
    <glyph glyph-name="zero.dnom" horiz-adv-x="782" 
d="M313 -29q-127 0 -197.5 78.5t-70.5 226.5q0 102 31.5 207.5t89.5 173.5q102 117 260 117q126 0 198 -79t72 -226q0 -114 -38.5 -227.5t-110.5 -180.5q-93 -90 -234 -90zM322 102q77 0 131 54q50 50 74 140.5t24 180.5q0 87 -32 126.5t-99 39.5q-95 0 -152 -74
q-38 -53 -58 -138t-20 -163q0 -87 32.5 -126.5t99.5 -39.5z" />
    <glyph glyph-name="one.dnom" horiz-adv-x="495" 
d="M297 760h123l-109 -774h-141l88 626l-205 -96l21 137z" />
    <glyph glyph-name="two.dnom" horiz-adv-x="675" 
d="M453 311l-232 -192h344l-20 -133h-557l14 106l324 270q69 54 108 101.5t39 95.5q0 38 -27 61t-75 23q-118 0 -201 -137l-111 65q48 93 134 148t188 55q101 0 169 -56.5t68 -139.5q0 -132 -165 -267z" />
    <glyph glyph-name="three.dnom" horiz-adv-x="659" 
d="M440 379q119 -37 119 -162q0 -109 -87 -177.5t-218 -68.5q-181 0 -272 117l90 98q67 -84 184 -84q70 0 114 31.5t44 91.5q0 88 -142 88h-77l16 129h84q73 0 115.5 30t42.5 83q0 88 -111 88q-112 0 -201 -92l-90 90q54 63 132 98t167 35q112 0 182 -53t70 -143
q0 -74 -45 -127t-117 -72z" />
    <glyph glyph-name="four.dnom" horiz-adv-x="706" 
d="M641 264l-16 -119h-99l-22 -159h-135l22 159h-397l16 119l439 496h163l-69 -496h98zM160 264h248l47 332z" />
    <glyph glyph-name="five.dnom" horiz-adv-x="684" 
d="M600 633h-350l-27 -189q62 33 137 33q105 0 170.5 -56t65.5 -153q0 -135 -91.5 -216t-240.5 -81q-174 0 -268 117l88 96q60 -84 180 -84q81 0 133 42t52 116q0 48 -31 76t-88 28q-89 0 -156 -53l-96 51l55 400h483z" />
    <glyph glyph-name="six.dnom" horiz-adv-x="696" 
d="M365 512q106 0 176.5 -62.5t70.5 -164.5q0 -136 -94.5 -225t-234.5 -89q-119 0 -194 65.5t-75 172.5q0 158 152 328l201 223h168l-236 -256q27 8 66 8zM289 98q80 0 131 49t51 127q0 57 -35 88t-98 31q-80 0 -131 -47.5t-51 -126.5q0 -57 34.5 -89t98.5 -32z" />
    <glyph glyph-name="seven.dnom" horiz-adv-x="612" 
d="M66 760h546l-14 -117l-410 -657h-161l405 641h-383z" />
    <glyph glyph-name="eight.dnom" horiz-adv-x="718" 
d="M492 381q124 -48 124 -162q0 -116 -91.5 -182t-229.5 -66q-133 0 -208 54.5t-75 144.5q0 162 178 217q-104 44 -104 145q0 111 85.5 176.5t213.5 65.5q122 0 191 -53.5t69 -136.5q0 -73 -41 -125t-112 -78zM387 659q-72 0 -118 -35t-46 -98q0 -42 31.5 -66t93.5 -24
q73 0 114.5 36t41.5 95q0 92 -117 92zM295 92q78 0 127 33t49 98q0 47 -35 74t-104 27q-79 0 -125.5 -37t-46.5 -101q0 -94 135 -94z" />
    <glyph glyph-name="nine.dnom" horiz-adv-x="692" 
d="M373 774q119 0 193.5 -67t74.5 -177q0 -151 -152 -321l-202 -223h-168l237 256q-30 -9 -65 -9q-108 0 -179 64t-71 168q0 134 95 221.5t237 87.5zM322 352q82 0 130 49.5t48 126.5q0 56 -35.5 87.5t-99.5 31.5q-82 0 -132.5 -50t-50.5 -124q0 -58 37 -89.5t103 -31.5z
" />
    <glyph glyph-name="zero.numr" horiz-adv-x="782" 
d="M410 659q-127 0 -198 79t-71 227q0 102 31.5 207.5t89.5 173.5q101 116 260 116q127 0 199 -79t72 -226q0 -114 -39 -227t-111 -180q-94 -91 -233 -91zM418 791q78 0 131 53q50 50 74 140.5t24 180.5q0 87 -32 126.5t-99 39.5q-94 0 -151 -74q-38 -53 -58 -138t-20 -163
q0 -87 32 -126t99 -39z" />
    <glyph glyph-name="one.numr" horiz-adv-x="495" 
d="M393 1448h123l-108 -774h-142l88 626l-204 -96l20 137z" />
    <glyph glyph-name="two.numr" horiz-adv-x="675" 
d="M549 999l-232 -192h345l-21 -133h-557l14 106l324 271q69 54 108 101t39 95q0 38 -27 61t-75 23q-118 0 -201 -137l-110 66q48 93 133.5 147.5t187.5 54.5q101 0 169.5 -56.5t68.5 -139.5q0 -131 -166 -267z" />
    <glyph glyph-name="three.numr" horiz-adv-x="659" 
d="M537 1067q118 -37 118 -162q0 -109 -87 -177.5t-218 -68.5q-180 0 -272 117l90 98q67 -83 184 -83q70 0 114 31t44 91q0 88 -141 88h-78l16 129h84q73 0 115.5 30t42.5 83q0 88 -111 88t-200 -92l-91 90q54 63 132 98t167 35q112 0 182 -53t70 -143q0 -74 -44.5 -127
t-116.5 -72z" />
    <glyph glyph-name="four.numr" horiz-adv-x="706" 
d="M737 952l-16 -118h-98l-23 -160h-135l22 160h-397l16 118l439 496h164l-70 -496h98zM256 952h248l47 332z" />
    <glyph glyph-name="five.numr" horiz-adv-x="684" 
d="M696 1321h-350l-27 -188q60 32 138 32q105 0 170 -56t65 -153q0 -135 -91.5 -216t-240.5 -81q-174 0 -268 117l88 96q60 -84 180 -84q81 0 133 42t52 116q0 48 -31 76.5t-88 28.5q-87 0 -156 -54l-96 52l55 399h484z" />
    <glyph glyph-name="six.numr" horiz-adv-x="696" 
d="M461 1200q107 0 177.5 -62.5t70.5 -164.5q0 -136 -95 -225t-235 -89q-119 0 -193.5 65.5t-74.5 172.5q0 159 151 328l201 223h168l-236 -256q27 8 66 8zM385 786q80 0 131 49.5t51 127.5q0 57 -35 87.5t-98 30.5q-80 0 -131 -47.5t-51 -126.5q0 -57 34.5 -89t98.5 -32z
" />
    <glyph glyph-name="seven.numr" horiz-adv-x="612" 
d="M162 1448h547l-15 -117l-409 -657h-162l405 641h-383z" />
    <glyph glyph-name="eight.numr" horiz-adv-x="718" 
d="M588 1069q125 -48 125 -162q0 -116 -92 -182t-230 -66q-132 0 -207 54.5t-75 144.5q0 162 178 217q-105 45 -105 146q0 111 85 176t214 65q122 0 191 -53.5t69 -136.5q0 -73 -41 -125t-112 -78zM483 1348q-71 0 -117.5 -35.5t-46.5 -98.5q0 -42 31.5 -66t93.5 -24
q73 0 114.5 36t41.5 95q0 43 -29 68t-88 25zM391 780q78 0 127 33t49 98q0 47 -35 74t-104 27q-79 0 -125.5 -37t-46.5 -101q0 -94 135 -94z" />
    <glyph glyph-name="nine.numr" horiz-adv-x="692" 
d="M469 1462q119 0 193.5 -66.5t74.5 -176.5q0 -153 -151 -322l-203 -223h-168l238 256q-27 -8 -66 -8q-108 0 -179 63.5t-71 167.5q0 134 95 221.5t237 87.5zM418 1040q81 0 129.5 50t48.5 127q0 56 -35.5 87t-99.5 31q-81 0 -131.5 -50t-50.5 -124q0 -58 36.5 -89.5
t102.5 -31.5z" />
    <glyph glyph-name="zero.sups" horiz-adv-x="782" 
d="M418 713q-127 0 -197.5 78.5t-70.5 226.5q0 102 31 207.5t89 173.5q102 117 260 117q126 0 198.5 -79.5t72.5 -226.5q0 -114 -39 -227t-111 -180q-93 -90 -233 -90zM426 844q78 0 131 53q50 50 74 141t24 181q0 87 -32 126t-99 39q-95 0 -151 -73q-38 -53 -58 -138
t-20 -163q0 -87 32 -126.5t99 -39.5z" />
    <glyph glyph-name="one.sups" horiz-adv-x="495" 
d="M401 1501h123l-108 -774h-142l88 627l-204 -97l20 138z" />
    <glyph glyph-name="two.sups" horiz-adv-x="675" 
d="M557 1053l-231 -193h344l-21 -133h-557l14 107l324 270q70 55 109 101.5t39 94.5q0 38 -27.5 61t-75.5 23q-118 0 -201 -137l-110 66q48 93 133.5 148t187.5 55q101 0 169.5 -57t68.5 -140q0 -130 -166 -266z" />
    <glyph glyph-name="three.sups" horiz-adv-x="659" 
d="M545 1120q119 -37 119 -162q0 -109 -87.5 -177t-218.5 -68q-181 0 -272 116l90 99q67 -84 184 -84q70 0 114 31.5t44 91.5q0 88 -141 88h-78l16 129h84q74 0 116 30t42 82q0 88 -111 88t-200 -92l-90 90q54 63 132 98.5t167 35.5q112 0 182 -53.5t70 -143.5
q0 -74 -45 -127t-117 -72z" />
    <glyph glyph-name="four.sups" horiz-adv-x="706" 
d="M745 1006l-16 -119h-98l-23 -160h-135l23 160h-398l17 119l438 495h164l-70 -495h98zM264 1006h248l47 331z" />
    <glyph glyph-name="five.sups" horiz-adv-x="684" 
d="M705 1374h-351l-26 -188q62 33 137 33q105 0 170 -56t65 -153q0 -136 -91 -216.5t-240 -80.5q-175 0 -269 116l88 97q60 -84 181 -84q81 0 132.5 41.5t51.5 115.5q0 48 -31 76.5t-88 28.5q-88 0 -155 -53l-97 51l56 399h483z" />
    <glyph glyph-name="six.sups" horiz-adv-x="696" 
d="M469 1253q107 0 177.5 -62.5t70.5 -164.5q0 -136 -94.5 -224.5t-235.5 -88.5q-119 0 -193.5 65t-74.5 172q0 159 151 328l201 223h168l-236 -256q27 8 66 8zM393 840q80 0 131 49t51 127q0 57 -35 88t-98 31q-80 0 -131 -47.5t-51 -126.5q0 -57 34.5 -89t98.5 -32z" />
    <glyph glyph-name="seven.sups" horiz-adv-x="612" 
d="M170 1501h547l-15 -117l-409 -657h-162l406 641h-383z" />
    <glyph glyph-name="eight.sups" horiz-adv-x="718" 
d="M596 1122q125 -48 125 -161q0 -116 -92 -182t-230 -66q-133 0 -207.5 54.5t-74.5 143.5q0 162 178 217q-105 45 -105 146q0 111 85.5 176.5t213.5 65.5q122 0 191.5 -54t69.5 -137q0 -73 -41.5 -125t-112.5 -78zM492 1401q-72 0 -118 -35t-46 -98q0 -42 31.5 -66
t93.5 -24q72 0 113.5 36t41.5 95q0 92 -116 92zM399 834q78 0 127 33t49 98q0 47 -35 73.5t-104 26.5q-79 0 -125.5 -36.5t-46.5 -100.5q0 -94 135 -94z" />
    <glyph glyph-name="nine.sups" horiz-adv-x="692" 
d="M477 1516q119 0 193.5 -67t74.5 -177q0 -153 -151 -322l-203 -223h-168l238 256q-27 -8 -66 -8q-108 0 -179 63.5t-71 167.5q0 134 95 222t237 88zM426 1094q82 0 130 49.5t48 126.5q0 56 -35.5 87.5t-99.5 31.5q-81 0 -131.5 -50.5t-50.5 -124.5q0 -58 36.5 -89
t102.5 -31z" />
    <glyph glyph-name="colon.case" horiz-adv-x="518" 
d="M334 971q-56 0 -85.5 35.5t-21.5 93.5q6 48 39.5 78t85.5 30q56 0 85.5 -35.5t23.5 -91.5q-6 -48 -40.5 -79t-86.5 -31zM225 197q-57 0 -86 36t-20 95q6 47 40 76.5t85 29.5q56 0 85 -35.5t21 -91.5q-5 -48 -39 -79t-86 -31z" />
    <glyph glyph-name="exclamdown.case" horiz-adv-x="587" 
d="M418 1450q58 0 86.5 -36t19.5 -95q-6 -47 -39.5 -77t-83.5 -30q-58 0 -87 35.5t-21 91.5q5 48 40 79.5t85 31.5zM428 995l-117 -995h-180l164 995h133z" />
    <glyph glyph-name="questiondown.case" horiz-adv-x="962" 
d="M651 1450q57 0 86.5 -36t20.5 -95q-6 -47 -40 -77t-85 -30q-56 0 -85.5 35.5t-21.5 91.5q5 48 39 79.5t86 31.5zM676 995l-12 -98q-15 -103 -55 -164.5t-144 -138.5l-113 -84q-139 -102 -139 -223q0 -74 51 -116t144 -42q100 0 192 52t164 149l113 -88
q-70 -123 -199.5 -197t-278.5 -74q-162 0 -261 81.5t-99 211.5q0 109 59 194.5t172 170.5l113 84q64 48 86 82.5t31 101.5l12 98h164z" />
    <glyph glyph-name="periodcentered.case" horiz-adv-x="505" 
d="M274 621q-57 0 -86 36t-20 93q6 47 40 77.5t85 30.5q56 0 85 -35.5t23 -91.5q-6 -50 -40.5 -80t-86.5 -30z" />
    <glyph glyph-name="bullet.case" horiz-adv-x="1060" 
d="M561 440q-127 0 -212 85.5t-85 211.5t85 211.5t212 85.5t213 -85.5t86 -211.5t-86 -211.5t-213 -85.5z" />
    <glyph glyph-name="parenleft.case" horiz-adv-x="657" 
d="M369 -182q-101 146 -155 326.5t-54 373.5q0 298 121.5 589t334.5 509l119 -98q-180 -184 -291.5 -456t-111.5 -534q0 -179 44 -342t124 -282z" />
    <glyph glyph-name="parenright.case" horiz-adv-x="657" 
d="M346 1616q101 -146 154 -326.5t53 -374.5q0 -298 -122 -588.5t-335 -508.5l-119 98q181 185 293.5 456.5t112.5 532.5q0 178 -44.5 341.5t-123.5 283.5z" />
    <glyph glyph-name="braceleft.case" horiz-adv-x="739" 
d="M659 1593h158l-18 -137h-137q-129 0 -146 -127l-55 -403q-24 -165 -176 -211q139 -50 114 -213l-55 -406q-10 -65 14.5 -92t87.5 -27h146l-21 -137h-149q-124 0 -183 48t-59 153q0 13 4 63l62 426q8 63 -19 91t-96 28h-29l21 135h18q137 0 158 127l59 426
q20 137 90.5 196.5t210.5 59.5z" />
    <glyph glyph-name="braceright.case" horiz-adv-x="737" 
d="M666 784h26l-18 -135h-21q-137 0 -155 -127l-60 -426q-20 -137 -91.5 -196.5t-211.5 -59.5h-158l19 137h137q129 0 146 127l57 404q24 166 174 211q-140 50 -115 213l58 405q9 65 -15.5 92t-87.5 27h-145l18 137h150q124 0 183.5 -47.5t59.5 -152.5q0 -14 -4 -64
l-61 -426q-9 -63 18.5 -91t96.5 -28z" />
    <glyph glyph-name="bracketleft.case" horiz-adv-x="755" 
d="M817 1456h-309l-207 -1479h307l-20 -137h-467l246 1753h467z" />
    <glyph glyph-name="bracketright.case" horiz-adv-x="755" 
d="M223 1593h467l-246 -1753h-467l19 137h309l205 1479h-305z" />
    <glyph glyph-name="hyphen.case" horiz-adv-x="821" 
d="M133 657l21 152h594l-23 -152h-592z" />
    <glyph glyph-name="endash.case" horiz-adv-x="1251" 
d="M135 664l19 141h1024l-19 -141h-1024z" />
    <glyph glyph-name="emdash.case" horiz-adv-x="2275" 
d="M135 664l19 139h2048l-19 -139h-2048z" />
    <glyph glyph-name="guillemotleft.case" horiz-adv-x="1103" 
d="M666 1171l-367 -440l242 -434h-181l-247 436l366 438h187zM1102 1171l-367 -442l240 -432h-178l-248 436l366 438h187z" />
    <glyph glyph-name="guillemotright.case" horiz-adv-x="1103" 
d="M367 1167l247 -438l-366 -436h-187l369 440l-242 434h179zM803 1167l248 -438l-367 -436h-186l366 438l-241 436h180z" />
    <glyph glyph-name="guilsinglleft.case" horiz-adv-x="667" 
d="M666 1171l-367 -440l242 -434h-181l-247 436l366 438h187z" />
    <glyph glyph-name="guilsinglright.case" horiz-adv-x="667" 
d="M369 1171l247 -438l-366 -436h-187l367 440l-242 434h181z" />
    <glyph glyph-name="cent.tf" 
d="M809 328q178 19 285 159l114 -90q-76 -102 -184 -161t-238 -66l-24 -170h-117l25 176q-178 23 -282.5 147t-104.5 308q0 142 59.5 278t163.5 224q137 111 317 129l25 172h117l-25 -172q121 -11 216 -70t142 -156l-141 -90q-70 152 -237 164zM451 637q0 -128 62.5 -209
t178.5 -100l109 774q-110 -21 -195 -94q-74 -68 -114.5 -166t-40.5 -205z" />
    <glyph glyph-name="currency.tf" 
d="M1151 776q0 -163 -102 -293l129 -149l-97 -84l-127 145q-111 -78 -247 -78q-137 0 -230 74l-172 -151l-82 94l176 153q-41 74 -41 168q0 165 101 293l-129 150l98 84l125 -146q111 78 248 78q136 0 229 -74l174 152l80 -94l-174 -154q41 -74 41 -168zM707 467
q125 0 208.5 84.5t83.5 214.5q0 93 -51.5 147t-146.5 54q-125 0 -208 -85t-83 -216q0 -92 51.5 -145.5t145.5 -53.5z" />
    <glyph glyph-name="dollar.tf" 
d="M918 770q311 -76 311 -309q0 -88 -38.5 -170t-105.5 -139q-138 -112 -356 -121l-18 -133h-119l18 137q-162 15 -269.5 93.5t-152.5 207.5l142 78q69 -203 303 -230l67 484l-55 12q-323 80 -323 315q0 99 49.5 185t136.5 139q119 75 297 84l18 133h119l-18 -137
q139 -15 236 -78.5t136 -159.5l-135 -82q-62 145 -260 170l-63 -458zM709 821l12 -4l61 434q-124 -9 -200 -65q-93 -70 -93 -182q0 -68 51.5 -111t168.5 -72zM973 264q84 68 84 182q0 69 -50 114.5t-161 72.5l-31 6l-63 -457q139 9 221 82z" />
    <glyph glyph-name="Euro.tf" 
d="M805 123q104 0 196.5 66t149.5 182l133 -62q-85 -164 -213.5 -251t-275.5 -87q-197 0 -322.5 144t-138.5 387h-180l16 123h164q6 99 26 184h-163l18 123h178q66 199 178 325q183 205 418 205q150 0 261 -88t147 -250l-150 -61q-23 118 -90.5 183t-169.5 65
q-164 0 -293 -154q-78 -90 -127 -225h502l-18 -123h-519q-19 -84 -26 -184h518l-16 -123h-502q10 -180 90 -279.5t209 -99.5z" />
    <glyph glyph-name="florin.tf" 
d="M1206 1434h70l-21 -152h-69q-92 0 -139.5 -39t-79.5 -139l-78 -234h270l-16 -135h-299l-252 -764q-45 -134 -135.5 -196t-247.5 -62h-70l23 152h67q92 0 140 39t80 139l229 692h-258l16 135h287l100 306q45 134 135.5 196t247.5 62z" />
    <glyph glyph-name="sterling.tf" 
d="M932 1309q-123 0 -199.5 -72t-95.5 -207l-37 -256h504l-21 -135h-501l-68 -483h668l-23 -156h-989l25 156h151l68 483h-162l18 135h164l37 264q25 198 146 311t317 113q138 0 240 -60t157 -179l-139 -84q-64 170 -260 170z" />
    <glyph glyph-name="yen.tf" 
d="M1432 1434l-531 -732h307l-18 -120h-371l-26 -187h372l-18 -121h-371l-39 -274h-168l39 274h-368l18 121h367l26 187h-368l18 120h303l-323 732h176l295 -684l487 684h193z" />
    <glyph glyph-name="plus.tf" 
d="M1214 788l-18 -143h-373l-55 -397h-152l56 397h-375l18 143h377l56 398h151l-55 -398h370z" />
    <glyph glyph-name="minus.tf" 
d="M297 645l18 143h899l-18 -143h-899z" />
    <glyph glyph-name="multiply.tf" 
d="M1212 1032l-360 -317l268 -316l-114 -94l-265 311l-354 -311l-90 96l358 318l-266 315l111 94l266 -313l354 313z" />
    <glyph glyph-name="divide.tf" 
d="M797 961q-49 0 -78 29t-29 75q0 51 36.5 88t88.5 37q49 0 78 -29.5t29 -75.5q0 -52 -36 -88t-89 -36zM297 645l18 143h899l-18 -143h-899zM696 244q-49 0 -77.5 29t-28.5 75q0 51 36.5 88t88.5 37q49 0 77.5 -29t28.5 -75q0 -53 -36.5 -89t-88.5 -36z" />
    <glyph glyph-name="equal.tf" 
d="M326 850l18 145h899l-18 -145h-899zM268 438l19 146h899l-19 -146h-899z" />
    <glyph glyph-name="notequal.tf" 
d="M1225 850h-318l-166 -266h445l-19 -146h-516l-170 -272h-137l170 272h-246l19 146h317l166 266h-444l18 145h516l170 273h137l-170 -273h246z" />
    <glyph glyph-name="greater.tf" 
d="M367 1153l847 -358l-18 -156l-950 -358l20 163l752 277l-672 276z" />
    <glyph glyph-name="less.tf" 
d="M1264 1153l-21 -164l-751 -276l671 -277l-20 -155l-848 358l18 156z" />
    <glyph glyph-name="greaterequal.tf" 
d="M385 1284l848 -354l-21 -158l-948 -354l21 160l759 278l-682 277zM227 152l19 145h899l-19 -145h-899z" />
    <glyph glyph-name="lessequal.tf" 
d="M1280 1282l-20 -160l-760 -278l682 -277l-21 -151l-850 354l21 158zM227 150l19 145h899l-19 -145h-899z" />
    <glyph glyph-name="plusminus.tf" 
d="M862 946h373l-18 -145h-375l-54 -375h-151l53 375h-373l19 145h375l53 375h151zM221 115l21 145h897l-19 -145h-899z" />
    <glyph glyph-name="approxequal.tf" 
d="M981 809q-75 0 -208 44t-208 44q-114 0 -248 -86l21 145q124 82 252 82q71 0 205.5 -44t201.5 -44q63 0 130.5 23.5t119.5 62.5l-18 -145q-128 -82 -248 -82zM924 399q-75 0 -209 43t-207 43q-113 0 -248 -84l19 146q124 82 251 82q72 0 208 -44t202 -44q63 0 130.5 23.5
t119.5 62.5l-19 -146q-128 -82 -247 -82z" />
    <glyph glyph-name="logicalnot.tf" 
d="M330 899h899l-51 -362h-154l33 217h-748z" />
    <glyph glyph-name="asciitilde.tf" 
d="M954 604q-75 0 -208.5 44t-206.5 44q-113 0 -248 -84l18 144q127 84 252 84q73 0 208 -44t202 -44q63 0 130.5 23t119.5 60l-19 -143q-127 -84 -248 -84z" />
    <glyph glyph-name="at.case" horiz-adv-x="1732" 
d="M1016 1464q180 0 325.5 -72t229.5 -207t84 -308q0 -132 -44.5 -251t-130.5 -196.5t-194 -77.5q-80 0 -138 45.5t-65 126.5q-38 -83 -109 -127.5t-159 -44.5q-118 0 -191 83t-73 216q0 170 102 292t258 122q75 0 130 -36t75 -103l17 116h135l-58 -424q-19 -147 80 -147
q68 0 120 63t75.5 150.5t23.5 179.5q0 220 -132.5 340.5t-360.5 120.5q-281 0 -477 -178q-107 -95 -170.5 -236.5t-63.5 -300.5q0 -233 141.5 -369.5t387.5 -136.5q95 0 189 22t163 60l61 -118q-177 -99 -413 -99q-301 0 -488.5 174.5t-187.5 458.5q0 184 78 356.5
t215 294.5q115 101 261 156t304 55zM856 485q103 0 168.5 80t65.5 193q0 82 -42.5 128t-115.5 46q-103 0 -166.5 -80.5t-63.5 -194.5q0 -81 41.5 -126.5t112.5 -45.5z" />
    </font>
</defs>
</svg>
