<?xml version="1.0" standalone="no"?>
<!DOCTYPE svg PUBLIC "-//W3C//DTD SVG 1.1//EN" "http://www.w3.org/Graphics/SVG/1.1/DTD/svg11.dtd" >
<svg xmlns="http://www.w3.org/2000/svg" xmlns:xlink="http://www.w3.org/1999/xlink" version="1.1">
<metadata>
Created by FontForge 20170731 at Wed Feb 17 23:23:52 2021
 By Aleksey,,,
Copyright (c) by Christoph York . All rights reserved. Modification of this file requires prior written permission from Brink Type.
</metadata>
<defs>
<font id="Segma-BlackItalic" horiz-adv-x="1454" >
  <font-face 
    font-family="Segma Black Italic"
    font-weight="900"
    font-style="italic"
    font-stretch="normal"
    units-per-em="2048"
    panose-1="0 0 10 0 0 0 0 0 0 0"
    ascent="1556"
    descent="-492"
    x-height="1049"
    cap-height="1434"
    bbox="-1077 -551 2691 2126"
    underline-thickness="102"
    underline-position="-450"
    slope="-8"
    unicode-range="U+000D-2B51"
  />
<missing-glyph horiz-adv-x="1458" 
d="M66 0l200 1434h1180l-201 -1434h-1179zM631 543h155l9 57q6 41 19.5 61t53.5 50l66 49q75 56 114 114.5t39 129.5q0 93 -65.5 148.5t-177.5 55.5q-110 0 -200.5 -51.5t-141.5 -138.5l106 -80q92 123 213 123q48 0 76.5 -20.5t28.5 -57.5q0 -39 -20.5 -67t-57.5 -56
l-74 -53q-72 -53 -97 -92t-36 -109zM664 215q54 0 87 37.5t33 85.5q0 41 -25.5 65.5t-66.5 24.5q-54 0 -87.5 -37.5t-33.5 -85.5q0 -41 25.5 -65.5t67.5 -24.5z" />
    <glyph glyph-name=".notdef" horiz-adv-x="1458" 
d="M66 0l200 1434h1180l-201 -1434h-1179zM631 543h155l9 57q6 41 19.5 61t53.5 50l66 49q75 56 114 114.5t39 129.5q0 93 -65.5 148.5t-177.5 55.5q-110 0 -200.5 -51.5t-141.5 -138.5l106 -80q92 123 213 123q48 0 76.5 -20.5t28.5 -57.5q0 -39 -20.5 -67t-57.5 -56
l-74 -53q-72 -53 -97 -92t-36 -109zM664 215q54 0 87 37.5t33 85.5q0 41 -25.5 65.5t-66.5 24.5q-54 0 -87.5 -37.5t-33.5 -85.5q0 -41 25.5 -65.5t67.5 -24.5z" />
    <glyph glyph-name=".null" horiz-adv-x="0" 
 />
    <glyph glyph-name="nonmarkingreturn" horiz-adv-x="682" 
 />
    <glyph glyph-name="CR" unicode="&#xd;" horiz-adv-x="450" 
 />
    <glyph glyph-name="space" unicode=" " horiz-adv-x="450" 
 />
    <glyph glyph-name="exclam" unicode="!" horiz-adv-x="663" 
d="M174 512l100 922h369l-158 -922h-311zM274 -29q-97 0 -154 53t-57 142q0 108 62.5 176t169.5 68q97 0 154 -53t57 -142q0 -108 -62.5 -176t-169.5 -68z" />
    <glyph glyph-name="quotedbl" unicode="&#x22;" horiz-adv-x="978" 
d="M176 866l37 596h356l-131 -596h-262zM635 866l37 596h356l-131 -596h-262z" />
    <glyph glyph-name="numbersign" unicode="#" horiz-adv-x="1462" 
d="M1434 827h-236l-74 -221h193l-35 -246h-242l-110 -329h-283l113 329h-244l-110 -329h-283l113 329h-187l35 246h233l76 221h-192l35 246h239l113 330h280l-110 -330h241l113 330h281l-111 -330h186zM842 606l76 221h-244l-74 -221h242z" />
    <glyph glyph-name="dollar" unicode="$" horiz-adv-x="1239" 
d="M862 840q312 -79 312 -330q0 -122 -62.5 -228.5t-169.5 -168.5q-130 -76 -315 -82l-19 -133h-127l19 137q-164 17 -285 90t-184 192l252 187q85 -136 260 -166l35 254l-97 24q-162 41 -243.5 127.5t-81.5 210.5q0 102 45.5 192t128.5 150q141 101 362 107l19 133h127
l-19 -139q146 -15 251 -77t163 -159l-252 -184q-80 102 -205 123l-33 -230zM500 999q0 -31 27.5 -54t95.5 -44l28 205q-66 -6 -106 -31q-45 -30 -45 -76zM778 369q49 32 49 88q0 35 -28.5 59t-98.5 45l-30 -227q67 6 108 35z" />
    <glyph glyph-name="percent" unicode="%" horiz-adv-x="1875" 
d="M473 692q-157 0 -257.5 92t-100.5 238q0 183 127.5 311.5t312.5 128.5q157 0 257.5 -91.5t100.5 -237.5q0 -183 -127.5 -312t-312.5 -129zM240 0l1151 1434h299l-1151 -1434h-299zM494 930q69 0 114 51t45 123q0 56 -31.5 88.5t-86.5 32.5q-69 0 -114.5 -51t-45.5 -123
q0 -56 32 -88.5t87 -32.5zM1374 -29q-157 0 -257.5 92t-100.5 238q0 183 127.5 311.5t312.5 128.5q157 0 258 -91.5t101 -237.5q0 -183 -128 -312t-313 -129zM1395 209q69 0 114 51t45 123q0 56 -31.5 88.5t-86.5 32.5q-69 0 -114.5 -51t-45.5 -123q0 -56 32 -88.5t87 -32.5
z" />
    <glyph glyph-name="ampersand" unicode="&#x26;" horiz-adv-x="1460" 
d="M1366 0h-358l-62 82q-178 -111 -405 -111q-220 0 -350 100.5t-130 258.5q0 271 345 458q-99 144 -99 271q0 177 129.5 290t327.5 113q173 0 279 -81.5t106 -215.5q0 -128 -88 -238t-234 -192l148 -203q43 88 63 193h308q-55 -267 -187 -444zM741 1188q-55 0 -89 -34.5
t-34 -82.5q0 -58 58 -131l8 -12q152 81 152 176q0 38 -26.5 61t-68.5 23zM416 389q0 -55 44 -88t130 -33q95 0 172 39l-205 277q-62 -34 -101.5 -88.5t-39.5 -106.5z" />
    <glyph glyph-name="quotesingle" unicode="'" horiz-adv-x="520" 
d="M176 866l37 596h356l-131 -596h-262z" />
    <glyph glyph-name="parenleft" unicode="(" horiz-adv-x="741" 
d="M328 -260q-103 145 -157 333.5t-54 385.5q0 289 119 580t325 499l264 -156q-172 -184 -270 -435t-98 -503q0 -157 35.5 -303.5t105.5 -255.5z" />
    <glyph glyph-name="parenright" unicode=")" horiz-adv-x="741" 
d="M446 1538q103 -145 157 -333.5t54 -385.5q0 -289 -119 -580t-325 -499l-264 156q172 184 270 435t98 503q0 157 -35.5 303.5t-105.5 255.5z" />
    <glyph glyph-name="asterisk" unicode="*" horiz-adv-x="964" 
d="M344 608l-186 144l211 223l-265 74l107 233l258 -104l25 288h245l-55 -286l279 100l45 -233l-289 -74l149 -223l-213 -144l-125 242z" />
    <glyph glyph-name="plus" unicode="+" 
d="M1237 803l-43 -307h-309l-47 -336h-324l47 336h-309l43 307h309l47 336h324l-47 -336h309z" />
    <glyph glyph-name="comma" unicode="," horiz-adv-x="573" 
d="M-78 -326l201 631h348l-266 -631h-283z" />
    <glyph glyph-name="hyphen" unicode="-" horiz-adv-x="737" 
d="M49 440l41 295h615l-41 -295h-615z" />
    <glyph glyph-name="period" unicode="." horiz-adv-x="602" 
d="M244 -29q-97 0 -154 53t-57 142q0 108 62 176t169 68q97 0 154 -53t57 -142q0 -108 -62 -176t-169 -68z" />
    <glyph glyph-name="slash" unicode="/" horiz-adv-x="1091" 
d="M-100 -193l999 1709h332l-998 -1709h-333z" />
    <glyph glyph-name="zero" unicode="0" horiz-adv-x="1429" 
d="M645 -29q-248 0 -386 148t-138 424q0 215 68.5 417.5t199.5 329.5q181 172 449 172q247 0 385.5 -148t138.5 -425q0 -217 -71.5 -423.5t-205.5 -330.5q-179 -164 -440 -164zM674 291q132 0 209 106q57 75 89 220t32 266q0 138 -49 199t-146 61q-123 0 -201 -96
q-62 -78 -94.5 -220t-32.5 -274q0 -139 48 -200.5t145 -61.5z" />
    <glyph glyph-name="one" unicode="1" horiz-adv-x="870" 
d="M563 1434h295l-201 -1434h-348l150 1071l-342 -156l45 328z" />
    <glyph glyph-name="two" unicode="2" horiz-adv-x="1198" 
d="M909 614l-356 -295h551l-45 -319h-1067l37 258l571 473q118 97 177 165.5t59 137.5q0 50 -36.5 79.5t-99.5 29.5q-84 0 -166.5 -55t-154.5 -166l-254 165q93 179 250 277t358 98q209 0 336 -105t127 -267q0 -135 -75 -249t-212 -227z" />
    <glyph glyph-name="three" unicode="3" horiz-adv-x="1173" 
d="M881 727q106 -36 161.5 -109t55.5 -174q0 -104 -49.5 -199t-133.5 -157q-155 -117 -403 -117q-165 0 -300 55t-226 164l219 236q127 -139 305 -139q113 0 180 51q58 45 58 108q0 121 -248 121h-115l43 312h147q127 0 187 51q47 36 47 106q0 111 -154 111
q-162 0 -321 -150l-199 220q96 117 242 181t323 64q212 0 340.5 -95t128.5 -257q0 -99 -42 -185t-119 -139q-53 -38 -127 -59z" />
    <glyph glyph-name="four" unicode="4" horiz-adv-x="1263" 
d="M1243 559l-39 -287h-160l-38 -272h-340l39 272h-687l39 287l756 875h393l-123 -875h160zM397 559h346l68 479z" />
    <glyph glyph-name="five" unicode="5" horiz-adv-x="1210" 
d="M739 928q187 0 303.5 -108t116.5 -285q0 -136 -54.5 -257t-158.5 -194q-155 -113 -416 -113q-161 0 -286.5 51.5t-231.5 165.5l213 242q137 -143 316 -143q127 0 202 65q60 57 60 140q0 70 -46 109.5t-130 39.5q-125 0 -234 -74l-235 123l104 744h932l-43 -310h-608
l-35 -241q106 45 231 45z" />
    <glyph glyph-name="six" unicode="6" horiz-adv-x="1236" 
d="M739 993q203 0 331 -123.5t128 -316.5q0 -141 -66 -265.5t-184 -203.5q-166 -113 -393 -113q-225 0 -365.5 124t-140.5 333q0 181 109 373q74 133 192 262l334 371h406l-416 -447q30 6 65 6zM764 340q82 73 82 186q0 81 -50.5 128.5t-142.5 47.5q-121 0 -194 -79
q-60 -66 -60 -174q0 -79 49 -124.5t140 -45.5q106 0 176 61z" />
    <glyph glyph-name="seven" unicode="7" horiz-adv-x="1097" 
d="M156 1434h1040l-39 -287l-708 -1147h-390l709 1114h-657z" />
    <glyph glyph-name="eight" unicode="8" horiz-adv-x="1269" 
d="M975 737q219 -78 219 -286q0 -128 -68 -233.5t-186 -166.5q-154 -80 -375 -80q-250 0 -388 99.5t-138 265.5q0 110 52 200.5t147 147.5q59 34 118 53q-182 83 -182 267q0 103 54 199t143 155q151 104 385 104q230 0 358.5 -99.5t128.5 -254.5q0 -111 -56.5 -200.5
t-158.5 -145.5zM567 1126q-55 -50 -55 -137q0 -62 42 -95.5t126 -33.5q97 0 149 43q33 25 50.5 66.5t17.5 81.5q0 61 -42.5 95t-127.5 34q-106 0 -160 -54zM758 307q37 23 58.5 63.5t21.5 84.5q0 66 -47.5 102.5t-145.5 36.5q-121 0 -182 -55q-27 -25 -41 -64t-14 -76
q0 -133 186 -133q105 0 164 41z" />
    <glyph glyph-name="nine" unicode="9" horiz-adv-x="1236" 
d="M731 1462q227 0 369.5 -121.5t142.5 -330.5q0 -154 -88 -334q-75 -150 -215 -305l-334 -371h-405l417 444q-46 -4 -67 -4q-202 0 -329.5 124t-127.5 317q0 122 50.5 235t140.5 191q175 155 446 155zM817 801q76 67 76 182q0 80 -49.5 126t-141.5 46q-116 0 -188 -72
q-34 -35 -52 -84.5t-18 -95.5q0 -79 49 -124.5t140 -45.5q113 0 184 68z" />
    <glyph glyph-name="colon" unicode=":" horiz-adv-x="612" 
d="M346 623q-97 0 -154 52.5t-57 141.5q0 108 62.5 176t169.5 68q97 0 154 -53t57 -142q0 -108 -62.5 -175.5t-169.5 -67.5zM254 -29q-97 0 -154 53t-57 142q0 108 62 176t169 68q97 0 154 -53t57 -142q0 -108 -62 -176t-169 -68z" />
    <glyph glyph-name="semicolon" unicode=";" horiz-adv-x="610" 
d="M352 623q-97 0 -154 52.5t-57 141.5q0 108 62.5 176t169.5 68q97 0 154 -53t57 -142q0 -108 -62.5 -175.5t-169.5 -67.5zM-78 -326l201 631h348l-266 -631h-283z" />
    <glyph glyph-name="less" unicode="&#x3c;" 
d="M1284 1143l-43 -324l-508 -170l457 -170l-43 -323l-893 346l39 295z" />
    <glyph glyph-name="equal" unicode="=" 
d="M285 721l43 307h942l-43 -307h-942zM221 270l43 308h942l-43 -308h-942z" />
    <glyph glyph-name="greater" unicode="&#x3e;" 
d="M342 1143l893 -346l-39 -295l-991 -346l43 323l508 170l-457 170z" />
    <glyph glyph-name="question" unicode="?" horiz-adv-x="970" 
d="M289 512l14 96q13 102 50 154t155 141l98 74q82 64 82 121q0 30 -25.5 47.5t-68.5 17.5q-136 0 -262 -166l-221 166q76 135 212 217t304 82q173 0 285 -86.5t112 -228.5q0 -113 -55.5 -196.5t-167.5 -166.5l-86 -63q-54 -41 -69.5 -63.5t-22.5 -71.5l-11 -74h-323z
M395 -29q-97 0 -154 53t-57 142q0 108 62.5 176t169.5 68q97 0 154 -53t57 -142q0 -108 -62.5 -176t-169.5 -68z" />
    <glyph glyph-name="at" unicode="@" horiz-adv-x="2017" 
d="M1139 1386q173 0 325.5 -53.5t262.5 -147t173.5 -228.5t63.5 -291q0 -123 -35.5 -240t-98.5 -208t-157.5 -146.5t-204.5 -55.5q-108 0 -192 51t-109 132q-42 -85 -116 -129.5t-170 -44.5q-142 0 -232 97.5t-90 258.5q0 138 52.5 254.5t152 187t225.5 70.5q161 0 217 -121
l13 92h258l-66 -471q-9 -61 11.5 -94t60.5 -33q60 0 104 60.5t63 140.5t19 162q0 224 -144 350.5t-388 126.5q-266 0 -469 -148q-145 -105 -224 -265.5t-79 -344.5q0 -240 149 -380t416 -140q107 0 213.5 22t177.5 60l106 -246q-215 -115 -507 -115q-190 0 -349.5 57
t-270.5 159.5t-172.5 248t-61.5 318.5q0 246 113.5 473.5t312.5 374.5q276 206 647 206zM983 276q82 0 132 64.5t50 157.5q0 69 -35.5 106t-95.5 37q-86 0 -134 -66.5t-48 -158.5q0 -66 35.5 -103t95.5 -37z" />
    <glyph glyph-name="A" unicode="A" horiz-adv-x="1519" 
d="M1067 0l-57 279h-549l-135 -279h-387l741 1434h414l340 -1434h-367zM606 578h340l-100 489z" />
    <glyph glyph-name="B" unicode="B" horiz-adv-x="1400" 
d="M1059 733q127 -26 193.5 -98.5t66.5 -188.5q0 -109 -46.5 -203.5t-131.5 -152.5q-131 -90 -328 -90h-747l200 1434h680q194 0 305 -88t111 -236q0 -102 -47.5 -190t-132.5 -138q-68 -37 -123 -49zM795 1135h-217l-37 -261h217q129 0 180 39q49 38 49 119q0 55 -43 79
t-149 24zM905 340q51 41 51 129q0 58 -44.5 84.5t-145.5 26.5h-266l-41 -281h268q129 0 178 41z" />
    <glyph glyph-name="C" unicode="C" horiz-adv-x="1497" 
d="M748 -29q-297 0 -474.5 171.5t-177.5 449.5q0 208 91.5 396t254.5 310q227 164 514 164q222 0 379.5 -103t216.5 -298l-331 -158q-33 112 -112.5 167.5t-190.5 55.5q-149 0 -267 -94q-85 -68 -133.5 -175.5t-48.5 -221.5q0 -150 84 -239t233 -89q109 0 207.5 55.5
t169.5 167.5l303 -157q-115 -195 -304 -298.5t-414 -103.5z" />
    <glyph glyph-name="D" unicode="D" horiz-adv-x="1499" 
d="M834 1434q183 0 323 -70.5t219.5 -206.5t79.5 -319q0 -193 -75.5 -376t-213.5 -296q-202 -166 -518 -166h-583l200 1434h568zM946 426q66 65 100.5 174.5t34.5 216.5q0 150 -72.5 218.5t-215.5 68.5h-218l-106 -774h215q163 0 262 96z" />
    <glyph glyph-name="E" unicode="E" horiz-adv-x="1310" 
d="M1278 1112h-705l-28 -229h649l-45 -318h-649l-33 -243h721l-45 -322h-1077l200 1434h1057z" />
    <glyph glyph-name="F" unicode="F" horiz-adv-x="1257" 
d="M1266 1112h-691l-34 -262h647l-45 -326h-647l-74 -524h-356l200 1434h1045z" />
    <glyph glyph-name="G" unicode="G" horiz-adv-x="1556" 
d="M905 842h606l-88 -625q-100 -114 -268 -180t-364 -66q-161 0 -292 47t-218.5 131.5t-135 202.5t-47.5 258q0 181 74.5 356.5t206.5 293.5q108 98 253 150t312 52q197 0 341.5 -72t223.5 -204l-303 -201q-94 141 -291 141q-181 0 -303 -125q-71 -72 -106 -172.5
t-35 -203.5q0 -159 90.5 -242.5t272.5 -83.5q164 0 282 70l27 182h-279z" />
    <glyph glyph-name="H" unicode="H" horiz-adv-x="1544" 
d="M1176 1434h356l-201 -1434h-356l80 567h-553l-80 -567h-356l200 1434h357l-76 -537h553z" />
    <glyph glyph-name="I" unicode="I" horiz-adv-x="643" 
d="M70 0l200 1434h357l-201 -1434h-356z" />
    <glyph glyph-name="J" unicode="J" horiz-adv-x="1171" 
d="M451 -29q-157 0 -281.5 55.5t-192.5 147.5l218 254q116 -113 243 -113q102 0 174.5 66t87.5 178l123 875h357l-129 -928q-37 -260 -190 -397.5t-410 -137.5z" />
    <glyph glyph-name="K" unicode="K" horiz-adv-x="1441" 
d="M1569 1434l-633 -619l453 -815h-437l-295 545l-184 -180l-51 -365h-356l200 1434h357l-80 -564l569 564h457z" />
    <glyph glyph-name="L" unicode="L" horiz-adv-x="1196" 
d="M471 330h653l-47 -330h-1011l200 1434h357z" />
    <glyph glyph-name="M" unicode="M" horiz-adv-x="1910" 
d="M1460 1434h438l-200 -1434h-352l129 920l-412 -586h-264l-250 592l-131 -926h-352l200 1434h422l289 -693z" />
    <glyph glyph-name="N" unicode="N" horiz-adv-x="1599" 
d="M1235 1434h352l-201 -1434h-331l-516 858l-121 -858h-352l200 1434h334l516 -859z" />
    <glyph glyph-name="O" unicode="O" horiz-adv-x="1679" 
d="M776 -29q-147 0 -273.5 48t-215.5 132t-139 202t-50 255q0 183 82 360.5t221 295.5q233 198 555 198q196 0 351.5 -83.5t241 -229.5t85.5 -328q0 -185 -81 -361t-222 -296q-111 -93 -253.5 -143t-301.5 -50zM805 307q173 0 301 115q73 67 113.5 166t40.5 203
q0 151 -89 243t-243 92q-177 0 -299 -116q-74 -68 -115 -168.5t-41 -200.5q0 -151 88.5 -242.5t243.5 -91.5z" />
    <glyph glyph-name="P" unicode="P" horiz-adv-x="1363" 
d="M874 1434q238 0 366 -104t128 -302q0 -142 -51.5 -268t-147.5 -199q-152 -110 -432 -110h-252l-63 -451h-356l200 1434h608zM936 823q57 49 57 158q0 65 -42.5 95t-137.5 30h-235l-48 -334h236q116 0 170 51z" />
    <glyph glyph-name="Q" unicode="Q" horiz-adv-x="1679" 
d="M1634 821q0 -180 -76.5 -351.5t-209.5 -291.5l139 -209l-262 -192l-160 239q-140 -45 -289 -45q-147 0 -273.5 48t-215.5 132t-139 202t-50 255q0 183 82 360.5t221 295.5q233 198 555 198q196 0 351.5 -83.5t241 -229.5t85.5 -328zM805 307q25 0 61 4l-133 201l262 193
l156 -234q109 137 109 320q0 151 -89 243t-243 92q-177 0 -299 -116q-74 -68 -115 -168.5t-41 -200.5q0 -151 88.5 -242.5t243.5 -91.5z" />
    <glyph glyph-name="R" unicode="R" horiz-adv-x="1402" 
d="M1194 600q-94 -72 -233 -96l319 -504h-416l-282 485h-95l-67 -485h-354l200 1434h619q242 0 368.5 -102.5t126.5 -291.5q0 -133 -47 -252t-139 -188zM1006 989q0 64 -44 92.5t-137 28.5h-247l-46 -317h248q119 0 172 47q54 51 54 149z" />
    <glyph glyph-name="S" unicode="S" horiz-adv-x="1308" 
d="M621 -29q-220 0 -379.5 83.5t-229.5 230.5l258 192q58 -89 154.5 -137.5t222.5 -48.5q110 0 174 39q28 20 45 49t17 55q0 39 -36 67.5t-122 49.5l-225 55q-171 42 -262 139t-91 232q0 117 55.5 218.5t153.5 164.5q155 102 402 102q195 0 339 -68t216 -194l-269 -199
q-102 144 -307 144q-115 0 -176 -41q-47 -32 -47 -80q0 -38 37 -65.5t131 -51.5l231 -57q165 -41 249.5 -134.5t84.5 -226.5q0 -128 -58 -237t-163 -176q-158 -105 -405 -105z" />
    <glyph glyph-name="T" unicode="T" horiz-adv-x="1241" 
d="M369 0l155 1104h-405l45 330h1167l-45 -330h-405l-156 -1104h-356z" />
    <glyph glyph-name="U" unicode="U" horiz-adv-x="1478" 
d="M670 -29q-250 0 -402.5 123t-152.5 346q0 45 6 95l125 899h358l-121 -873q-4 -23 -4 -61q0 -191 223 -191q125 0 206.5 65.5t99.5 186.5l120 873h359l-125 -899q-38 -269 -224 -416.5t-468 -147.5z" />
    <glyph glyph-name="V" unicode="V" horiz-adv-x="1458" 
d="M1182 1434h391l-711 -1434h-413l-310 1434h375l191 -1014z" />
    <glyph glyph-name="W" unicode="W" horiz-adv-x="2191" 
d="M1898 1434h392l-617 -1434h-391l-135 887l-385 -887h-391l-215 1434h372l121 -934l395 934h340l136 -930z" />
    <glyph glyph-name="X" unicode="X" horiz-adv-x="1378" 
d="M1481 1434l-547 -707l358 -727h-397l-205 438l-328 -438h-423l561 727l-348 707h387l204 -430l324 430h414z" />
    <glyph glyph-name="Y" unicode="Y" horiz-adv-x="1363" 
d="M1085 1434h422l-641 -881l-82 -553h-360l82 553l-395 881h393l215 -539z" />
    <glyph glyph-name="Z" unicode="Z" horiz-adv-x="1253" 
d="M1294 1434l-37 -267l-741 -848h631l-45 -319h-1098l37 266l741 848h-610l45 320h1077z" />
    <glyph glyph-name="bracketleft" unicode="[" horiz-adv-x="798" 
d="M834 1212h-265l-157 -1146h262l-43 -304h-598l246 1754h598z" />
    <glyph glyph-name="backslash" unicode="\" horiz-adv-x="1085" 
d="M657 -193l-518 1709h328l518 -1709h-328z" />
    <glyph glyph-name="bracketright" unicode="]" horiz-adv-x="798" 
d="M201 1516h598l-246 -1754h-598l43 304h264l158 1146h-262z" />
    <glyph glyph-name="asciicircum" unicode="^" horiz-adv-x="1251" 
d="M1237 713h-358l-164 366l-269 -366h-378l524 671h309z" />
    <glyph glyph-name="underscore" unicode="_" horiz-adv-x="901" 
d="M-119 -328l33 246h901l-33 -246h-901z" />
    <glyph glyph-name="grave" unicode="`" horiz-adv-x="1269" 
d="M549 1188l-252 350h399l183 -350h-330z" />
    <glyph glyph-name="a" unicode="a" horiz-adv-x="1308" 
d="M928 1049h336l-148 -1049h-336l17 125q-56 -75 -142.5 -114.5t-185.5 -39.5q-184 0 -296 128.5t-112 338.5q0 149 56.5 289t158.5 229q137 121 316 121q111 0 195.5 -48.5t119.5 -135.5zM791 367q33 39 52 99.5t19 117.5q0 87 -49.5 136.5t-136.5 49.5q-101 0 -172 -65
q-44 -42 -68 -109t-24 -129q0 -88 48.5 -138t137.5 -50q118 0 193 88z" />
    <glyph glyph-name="b" unicode="b" horiz-adv-x="1308" 
d="M842 1077q184 0 294.5 -128t110.5 -339q0 -139 -51 -273.5t-145 -225.5q-143 -140 -332 -140q-112 0 -197.5 49t-120.5 136l-20 -156h-336l211 1499h344l-78 -571q55 73 140 111t180 38zM817 362q39 44 60.5 106.5t21.5 119.5q0 86 -47 134t-133 48q-62 0 -115 -25
t-88 -67q-35 -43 -53.5 -104t-18.5 -117q0 -84 47.5 -131t133.5 -47q115 0 192 83z" />
    <glyph glyph-name="c" unicode="c" horiz-adv-x="1122" 
d="M532 -29q-215 0 -343 130t-128 339q0 147 59.5 280.5t166.5 221.5q166 135 401 135q164 0 280 -70.5t165 -203.5l-287 -176q-59 139 -184 139q-97 0 -164 -64q-42 -40 -64 -103.5t-22 -125.5q0 -89 48 -139.5t132 -50.5q128 0 225 139l238 -176q-86 -133 -222.5 -204
t-300.5 -71z" />
    <glyph glyph-name="d" unicode="d" horiz-adv-x="1308" 
d="M983 1499h344l-211 -1499h-336l21 141q-58 -82 -150 -126t-198 -44q-175 0 -284.5 127t-109.5 328q0 155 58 301t166 238q131 112 307 112q104 0 186 -45t123 -129zM774 346q41 41 64.5 103t23.5 124q0 92 -49.5 144.5t-140.5 52.5q-103 0 -174 -68q-41 -41 -63.5 -105.5
t-22.5 -123.5q0 -91 47.5 -142.5t138.5 -51.5q106 0 176 67z" />
    <glyph glyph-name="e" unicode="e" horiz-adv-x="1189" 
d="M1137 627q0 -38 -9.5 -103t-19.5 -100h-711q7 -87 59 -126.5t152 -39.5q157 0 266 92l158 -205q-166 -174 -454 -174q-239 0 -379 122.5t-140 334.5q0 154 58.5 293t169.5 227q160 129 385 129q214 0 339.5 -120.5t125.5 -329.5zM653 793q-113 0 -178 -74
q-30 -35 -49 -86h377q2 12 2 24q0 68 -36 102t-116 34z" />
    <glyph glyph-name="f" unicode="f" horiz-adv-x="856" 
d="M813 1219q-78 0 -115 -25.5t-45 -77.5l-10 -67h254l-43 -304h-254l-104 -745h-344l106 745h-186l43 304h184l16 108q52 361 463 361q90 0 183 -19l-41 -291q-72 11 -107 11z" />
    <glyph glyph-name="g" unicode="g" horiz-adv-x="1310" 
d="M930 1049h336l-131 -928q-37 -266 -204.5 -412.5t-455.5 -146.5q-153 0 -284.5 42.5t-208.5 116.5l165 248q144 -108 316 -108q144 0 231.5 68t106.5 192l10 72q-53 -81 -141.5 -127t-196.5 -46q-181 0 -295.5 122.5t-114.5 318.5q0 135 53.5 268.5t145.5 218.5
q142 129 330 129q109 0 195 -46.5t122 -131.5zM770 377q45 38 71.5 96.5t26.5 120.5q0 83 -48.5 131.5t-139.5 48.5q-108 0 -182 -74q-39 -36 -59.5 -91.5t-20.5 -108.5q0 -83 46.5 -132t135.5 -49q95 0 170 58z" />
    <glyph glyph-name="h" unicode="h" horiz-adv-x="1241" 
d="M854 1077q144 0 225.5 -80.5t81.5 -226.5q0 -38 -6 -78l-98 -692h-344l84 602q4 32 4 47q0 59 -30.5 88t-96.5 29q-87 0 -139 -47.5t-64 -140.5l-82 -578h-344l211 1499h344l-80 -577q55 72 142 113.5t192 41.5z" />
    <glyph glyph-name="i" unicode="i" horiz-adv-x="585" 
d="M389 1174q-86 0 -137 47.5t-51 124.5q0 99 66.5 162t168.5 63q85 0 136 -47t51 -123q0 -101 -65.5 -164t-168.5 -63zM47 0l148 1049h344l-148 -1049h-344z" />
    <glyph glyph-name="j" unicode="j" horiz-adv-x="585" 
d="M389 1174q-86 0 -137 47.5t-51 124.5q0 99 66.5 162t168.5 63q85 0 136 -47t51 -123q0 -101 -65.5 -164t-168.5 -63zM-63 -440q-93 0 -164 16l41 293q55 -8 88 -8q70 0 102 29t41 94l150 1065h344l-160 -1131q-25 -183 -129 -270.5t-313 -87.5z" />
    <glyph glyph-name="k" unicode="k" horiz-adv-x="1216" 
d="M1311 1049l-512 -459l364 -590h-403l-211 365l-125 -111l-35 -254h-344l211 1497h344l-117 -823l402 375h426z" />
    <glyph glyph-name="l" unicode="l" horiz-adv-x="581" 
d="M45 0l211 1499h344l-211 -1499h-344z" />
    <glyph glyph-name="m" unicode="m" horiz-adv-x="1875" 
d="M1495 1077q142 0 221.5 -80t79.5 -227q0 -38 -6 -78l-98 -692h-344l86 606q4 28 4 43q0 117 -123 117q-80 0 -130.5 -47t-62.5 -137l-82 -582h-344l86 606q4 28 4 43q0 117 -122 117q-80 0 -130.5 -47t-62.5 -137l-82 -582h-344l148 1049h335l-20 -142q55 78 145.5 124
t194.5 46q107 0 180 -49t98 -137q54 85 153.5 135.5t215.5 50.5z" />
    <glyph glyph-name="n" unicode="n" horiz-adv-x="1241" 
d="M852 1077q146 0 227.5 -80.5t81.5 -228.5q0 -36 -6 -76l-98 -692h-344l84 602q4 32 4 47q0 59 -30.5 88t-96.5 29q-87 0 -139 -47.5t-64 -140.5l-82 -578h-344l148 1049h335l-20 -142q56 79 144.5 124.5t199.5 45.5z" />
    <glyph glyph-name="o" unicode="o" horiz-adv-x="1271" 
d="M571 -29q-232 0 -371 133.5t-139 341.5q0 126 52.5 250.5t150.5 216.5q175 164 441 164q232 0 369.5 -132.5t137.5 -340.5q0 -142 -64.5 -279.5t-174.5 -224.5q-164 -129 -402 -129zM598 279q95 0 164 57q50 42 75 106.5t25 132.5q0 91 -47.5 143t-138.5 52
q-112 0 -184 -78q-37 -40 -58.5 -99.5t-21.5 -121.5q0 -90 47.5 -141t138.5 -51z" />
    <glyph glyph-name="p" unicode="p" horiz-adv-x="1306" 
d="M844 1077q180 0 291.5 -127.5t111.5 -331.5q0 -157 -60.5 -302.5t-170.5 -235.5q-134 -109 -303 -109q-104 0 -185 43.5t-120 124.5l-76 -549h-344l205 1459h335l-20 -142q51 82 141 126t195 44zM797 344q100 87 100 242q0 88 -44.5 136t-133.5 48q-121 0 -195 -84
q-78 -87 -78 -223q0 -88 45 -136t134 -48q101 0 172 65z" />
    <glyph glyph-name="q" unicode="q" horiz-adv-x="1308" 
d="M928 1049h336l-205 -1459h-344l73 535q-56 -74 -142 -114t-185 -40q-180 0 -291 128.5t-111 334.5q0 156 62.5 305.5t175.5 237.5q127 100 295 100q109 0 193 -48t120 -136zM774 344q42 42 65 107t23 127q0 90 -48.5 141t-141.5 51q-101 0 -172 -68q-41 -41 -63.5 -105.5
t-22.5 -123.5q0 -91 48.5 -142.5t139.5 -51.5q101 0 172 65z" />
    <glyph glyph-name="r" unicode="r" horiz-adv-x="878" 
d="M827 1069q45 0 86 -12l-47 -332q-76 12 -149 12q-119 0 -179 -55.5t-79 -187.5l-70 -494h-344l148 1049h335l-22 -160q53 85 137.5 132.5t183.5 47.5z" />
    <glyph glyph-name="s" unicode="s" horiz-adv-x="1064" 
d="M479 -29q-151 0 -280 44.5t-199 123.5l172 236q60 -54 149.5 -88.5t180.5 -34.5q66 0 98 18q31 17 31 45q0 46 -88 66l-172 43q-262 66 -262 262q0 82 37.5 160t101.5 129q127 102 350 102q138 0 256.5 -41.5t183.5 -109.5l-174 -234q-148 103 -289 103q-69 0 -98 -23
q-20 -17 -20 -39q0 -37 86 -57l172 -43q270 -67 270 -264q0 -87 -39.5 -167.5t-107.5 -131.5q-135 -99 -359 -99z" />
    <glyph glyph-name="t" unicode="t" horiz-adv-x="892" 
d="M592 745l-47 -344q-9 -62 16 -85t98 -23q68 0 134 14l-41 -293q-103 -28 -224 -28q-207 0 -286.5 83t-51.5 273l58 403h-180l43 304h180l43 307h344l-43 -307h258l-43 -304h-258z" />
    <glyph glyph-name="u" unicode="u" horiz-adv-x="1224" 
d="M836 1049h344l-148 -1049h-336l21 143q-56 -79 -147 -125.5t-201 -46.5q-138 0 -213.5 77.5t-75.5 219.5q0 42 6 88l98 693h344l-84 -603q-4 -40 -4 -55q0 -56 25.5 -82t85.5 -26q84 0 137 47.5t66 140.5z" />
    <glyph glyph-name="v" unicode="v" horiz-adv-x="1163" 
d="M852 1049h373l-529 -1049h-377l-233 1049h365l110 -633z" />
    <glyph glyph-name="w" unicode="w" horiz-adv-x="1781" 
d="M1479 1049h356l-459 -1049h-383l-92 600l-260 -600h-383l-164 1049h348l78 -643l283 643h315l103 -643z" />
    <glyph glyph-name="x" unicode="x" horiz-adv-x="1169" 
d="M1206 1049l-401 -514l274 -535h-372l-142 303l-225 -303h-397l424 535l-256 514h368l127 -283l207 283h393z" />
    <glyph glyph-name="y" unicode="y" horiz-adv-x="1161" 
d="M850 1049h373l-742 -1457h-334l197 426l-258 1031h365l118 -635z" />
    <glyph glyph-name="z" unicode="z" horiz-adv-x="1028" 
d="M1028 1049l-31 -226l-518 -532h447l-41 -291h-893l31 225l518 533h-426l41 291h872z" />
    <glyph glyph-name="braceleft" unicode="{" horiz-adv-x="796" 
d="M662 1516h212l-43 -304h-77q-129 0 -144 -127l-26 -178q-17 -126 -75 -189t-167 -81q200 -51 164 -287l-25 -178q-9 -64 10 -85t84 -21h97l-43 -304h-197q-159 0 -232 59.5t-73 186.5q0 38 6 82l39 281q10 67 -13 91.5t-91 24.5h-23l43 304h4q68 0 109 35t51 102l39 280
q23 170 105.5 239t265.5 69z" />
    <glyph glyph-name="bar" unicode="|" horiz-adv-x="647" 
d="M78 -205l250 1772h286l-249 -1772h-287z" />
    <glyph glyph-name="braceright" unicode="}" horiz-adv-x="798" 
d="M762 791h22l-43 -304h-4q-138 0 -159 -137l-39 -280q-23 -170 -105.5 -239t-265.5 -69h-213l43 304h78q128 0 143 127l27 178q17 126 74.5 189.5t166.5 80.5q-199 51 -163 287l24 178q9 64 -10 85t-84 21h-96l43 304h196q159 0 232 -59.5t73 -186.5q0 -38 -6 -82
l-39 -281q-10 -66 13 -91t92 -25z" />
    <glyph glyph-name="asciitilde" unicode="~" 
d="M932 444q-75 0 -208 51.5t-208 51.5q-70 0 -130 -21.5t-138 -70.5l43 307q136 90 272 90q72 0 207 -51t203 -51q146 0 270 92l-43 -307q-71 -46 -133 -68.5t-135 -22.5z" />
    <glyph glyph-name="uni00A0" unicode="&#xa0;" horiz-adv-x="450" 
 />
    <glyph glyph-name="exclamdown" unicode="&#xa1;" horiz-adv-x="663" 
d="M389 1077q97 0 154 -52.5t57 -141.5q0 -108 -62 -176t-169 -68q-97 0 -154 53t-57 142q0 108 62 175.5t169 67.5zM489 537l-100 -922h-369l158 922h311z" />
    <glyph glyph-name="cent" unicode="&#xa2;" horiz-adv-x="1150" 
d="M696 481q98 20 170 109l228 -178q-64 -107 -181 -172t-262 -74l-22 -166h-127l22 168q-194 23 -307 149t-113 318q0 147 64.5 286t175.5 224q142 108 336 123l22 166h127l-22 -168q130 -13 225.5 -76.5t147.5 -167.5l-277 -178q-49 89 -141 108zM446 670
q0 -71 32.5 -119.5t90.5 -65.5l66 463q-55 -15 -98 -55q-44 -39 -67.5 -101.5t-23.5 -121.5z" />
    <glyph glyph-name="sterling" unicode="&#xa3;" horiz-adv-x="1122" 
d="M545 582l-39 -275h532l-43 -307h-1018l43 307h138l39 275h-127l34 245h127l27 187q63 448 485 448q301 0 435 -243l-285 -181q-54 97 -148 97q-123 0 -143 -146l-22 -162h426l-35 -245h-426z" />
    <glyph glyph-name="currency" unicode="&#xa4;" horiz-adv-x="1132" 
d="M1036 770q0 -164 -92 -283l105 -122l-154 -136l-109 127q-106 -53 -237 -53q-124 0 -215 51l-166 -143l-129 154l151 133q-40 73 -40 168q0 157 92 280l-105 123l154 135l110 -127q106 53 238 53q124 0 215 -51l164 144l129 -154l-152 -133q41 -74 41 -166zM459 694
q0 -51 30.5 -80.5t85.5 -29.5q69 0 110.5 45.5t41.5 109.5q0 51 -30.5 81t-84.5 30q-69 0 -111 -46t-42 -110z" />
    <glyph glyph-name="yen" unicode="&#xa5;" horiz-adv-x="1265" 
d="M1376 1434l-463 -656h273l-27 -200h-342l-20 -136h342l-27 -200h-342l-35 -242h-352l35 242h-340l26 200h340l21 136h-340l27 200h270l-279 656h361l182 -469l313 469h377z" />
    <glyph glyph-name="brokenbar" unicode="&#xa6;" horiz-adv-x="647" 
d="M221 821l107 746h286l-106 -746h-287zM78 -205l102 729h287l-102 -729h-287z" />
    <glyph glyph-name="section" unicode="&#xa7;" horiz-adv-x="1144" 
d="M1096 700q0 -117 -62 -199t-168 -118q146 -80 146 -238q0 -199 -137.5 -305t-387.5 -106q-155 0 -283.5 44t-215.5 124l176 235q61 -54 153.5 -85.5t196.5 -31.5q76 0 109.5 19.5t33.5 62.5q0 30 -22.5 49.5t-75.5 32.5l-172 43q-145 36 -218 110t-73 177
q0 111 62.5 189.5t167.5 113.5q-142 80 -142 234q0 187 137 299t381 112q145 0 263 -40.5t192 -110.5l-180 -234q-140 99 -297 99q-141 0 -141 -86q0 -53 94 -74l172 -43q291 -70 291 -273zM436 584q0 -40 28 -65t93 -42q86 -21 141.5 20.5t55.5 118.5q0 40 -27.5 65
t-91.5 42q-86 21 -142.5 -20.5t-56.5 -118.5z" />
    <glyph glyph-name="dieresis" unicode="&#xa8;" horiz-adv-x="1269" 
d="M475 1174q-83 0 -132.5 45.5t-49.5 121.5q0 98 65.5 164t163.5 66q83 0 131.5 -45.5t48.5 -120.5q0 -100 -64.5 -165.5t-162.5 -65.5zM987 1174q-83 0 -132.5 45.5t-49.5 121.5q0 98 65.5 164t163.5 66q83 0 131.5 -45.5t48.5 -120.5q0 -100 -64.5 -165.5t-162.5 -65.5z
" />
    <glyph glyph-name="copyright" unicode="&#xa9;" horiz-adv-x="1652" 
d="M758 -29q-141 0 -264 49.5t-210 135t-136.5 204.5t-49.5 254q0 189 93.5 369.5t252.5 302.5q227 176 506 176q187 0 338.5 -84t236.5 -230t85 -325q0 -185 -87.5 -360.5t-236.5 -298.5q-113 -92 -248.5 -142.5t-279.5 -50.5zM766 133q235 0 420 158q115 96 180.5 231.5
t65.5 282.5q0 214 -135.5 354.5t-354.5 140.5q-215 0 -395 -137q-126 -96 -198.5 -238t-72.5 -296q0 -214 135.5 -355t354.5 -141zM819 301q-172 0 -274.5 97t-102.5 255q0 211 135.5 346.5t346.5 135.5q124 0 211 -50.5t129 -142.5l-242 -154q-44 74 -123 74
q-69 0 -109 -51t-40 -121q0 -55 28.5 -85t81.5 -30q78 0 144 74l196 -155q-58 -91 -157.5 -142t-223.5 -51z" />
    <glyph glyph-name="ordfeminine" unicode="&#xaa;" horiz-adv-x="1024" 
d="M641 1516q186 0 285 -92t75 -261l-79 -565h-265l21 109q-43 -62 -116.5 -97t-172.5 -35q-136 0 -213.5 68.5t-77.5 179.5q0 81 37 147.5t105 104.5q109 62 292 62h162v2q8 59 -13 82.5t-81 23.5q-124 0 -225 -82l-168 199q70 68 184 111t250 43zM508 803q68 0 109.5 34.5
t50.5 96.5l2 20h-123q-79 0 -103 -24q-24 -19 -24 -66q0 -61 88 -61z" />
    <glyph glyph-name="guillemotleft" unicode="&#xab;" horiz-adv-x="1316" 
d="M778 983l-389 -463l254 -454h-352l-260 458l383 459h364zM1339 983l-389 -463l254 -454h-352l-260 458l383 459h364z" />
    <glyph glyph-name="logicalnot" unicode="&#xac;" 
d="M295 803h942l-72 -506h-319l28 199h-622z" />
    <glyph glyph-name="registered" unicode="&#xae;" horiz-adv-x="1077" 
d="M666 1464q173 0 289 -111.5t116 -277.5q0 -116 -49.5 -223.5t-138.5 -179.5q-69 -57 -156.5 -89t-179.5 -32q-174 0 -290 113t-116 282q0 118 58 232t163 192q129 94 304 94zM807 768q129 114 129 291q0 122 -76.5 203t-200.5 81t-219 -65q-80 -54 -122 -139.5
t-42 -182.5q0 -122 76.5 -203t200.5 -81q144 0 254 96zM668 1251q157 0 157 -129q0 -144 -133 -176l99 -168h-140l-86 162h-33l-22 -162h-123l66 473h215zM631 1040q65 0 65 62q0 41 -51 41h-82l-16 -103h84z" />
    <glyph glyph-name="macron" unicode="&#xaf;" horiz-adv-x="1269" 
d="M377 1204l37 266h708l-37 -266h-708z" />
    <glyph glyph-name="degree" unicode="&#xb0;" horiz-adv-x="798" 
d="M444 770q-142 0 -231.5 81.5t-89.5 209.5q0 169 115.5 285t285.5 116q144 0 234 -82.5t90 -212.5q0 -166 -117 -281.5t-287 -115.5zM467 991q63 0 102 44t39 104q0 46 -28.5 74t-77.5 28q-62 0 -101 -43.5t-39 -103.5q0 -46 28 -74.5t77 -28.5z" />
    <glyph glyph-name="plusminus" unicode="&#xb1;" 
d="M954 997h310l-43 -307h-308l-39 -274h-323l39 274h-311l43 307h309l39 275h323zM182 0l43 307h942l-43 -307h-942z" />
    <glyph glyph-name="uni00B2" unicode="&#xb2;" horiz-adv-x="679" 
d="M584 1047l-135 -111h247l-28 -213h-590l24 184l265 217q12 10 31.5 26.5t29.5 24.5t24 20.5t20.5 20t14 17t10.5 17.5t3 16q0 30 -43 30q-65 0 -148 -86l-162 127q50 83 138 131t194 48q120 0 191 -58.5t71 -152.5q0 -76 -40 -134.5t-117 -123.5z" />
    <glyph glyph-name="uni00B3" unicode="&#xb3;" horiz-adv-x="663" 
d="M582 1114q100 -43 100 -162q0 -105 -80.5 -174t-222.5 -69q-188 0 -295 116l129 162q75 -61 160 -61q78 0 78 43t-78 43h-88l28 200h72q98 0 98 56q0 30 -57 30q-64 0 -141 -61l-146 149q130 130 312 130q120 0 195 -55.5t75 -153.5q0 -69 -36.5 -119.5t-102.5 -73.5z
" />
    <glyph glyph-name="acute" unicode="&#xb4;" horiz-adv-x="1269" 
d="M584 1188l280 350h400l-351 -350h-329z" />
    <glyph glyph-name="uni00B5" unicode="&#xb5;" horiz-adv-x="1249" 
d="M860 1049h344l-147 -1049h-303l16 121q-40 -71 -103.5 -110.5t-136.5 -39.5q-84 0 -139 52l-65 -474h-344l211 1500h344l-58 -410l-26 -193q-12 -83 18 -123t109 -40q88 0 137.5 53.5t66.5 175.5z" />
    <glyph glyph-name="paragraph" unicode="&#xb6;" horiz-adv-x="1372" 
d="M340 -266l145 1044h-18q-148 0 -232.5 74t-84.5 199q0 178 124.5 280.5t325.5 102.5h272l-237 -1700h-295zM786 -266l238 1700h295l-238 -1700h-295z" />
    <glyph glyph-name="periodcentered" unicode="&#xb7;" horiz-adv-x="602" 
d="M322 518q-97 0 -154 53t-57 142q0 108 62 175.5t169 67.5q97 0 154 -52.5t57 -141.5q0 -108 -62 -176t-169 -68z" />
    <glyph glyph-name="cedilla" unicode="&#xb8;" horiz-adv-x="1269" 
d="M193 -412l237 443h291l-178 -443h-350z" />
    <glyph glyph-name="uni00B9" unicode="&#xb9;" horiz-adv-x="518" 
d="M379 1497h194l-108 -774h-234l74 524l-164 -73l31 227z" />
    <glyph glyph-name="ordmasculine" unicode="&#xba;" horiz-adv-x="1093" 
d="M565 573q-201 0 -321.5 111t-120.5 287q0 128 57.5 246.5t157.5 191.5q138 107 336 107q200 0 321 -112.5t121 -289.5q0 -130 -58.5 -247.5t-162.5 -192.5q-141 -101 -330 -101zM590 860q82 0 133 51q65 65 65 172q0 68 -35 107t-104 39q-82 0 -137 -55q-61 -64 -61 -173
q0 -66 35.5 -103.5t103.5 -37.5z" />
    <glyph glyph-name="guillemotright" unicode="&#xbb;" horiz-adv-x="1316" 
d="M465 983l260 -459l-383 -458h-365l390 462l-254 455h352zM1026 983l260 -459l-383 -458h-364l389 462l-254 455h352z" />
    <glyph glyph-name="onequarter" unicode="&#xbc;" horiz-adv-x="1638" 
d="M309 670l74 524l-164 -74l31 228l207 96h194l-108 -774h-234zM1276 1434h268l-1204 -1434h-270zM1444 764l-64 -451h84l-26 -192h-84l-19 -131h-213l19 131h-375l27 190l374 453h277zM1022 313h145l29 213z" />
    <glyph glyph-name="onehalf" unicode="&#xbd;" horiz-adv-x="1638" 
d="M287 670l73 524l-163 -74l30 228l207 96h195l-109 -774h-233zM1262 1434h268l-1204 -1434h-271zM1520 571q0 -76 -40 -134.5t-118 -123.5l-135 -110h248l-29 -213h-590l25 184l264 217q13 11 32 26.5t29 24t23.5 20.5t21 20t14.5 17t10 17t3 16q0 14 -11.5 22.5
t-31.5 8.5q-65 0 -148 -86l-161 127q50 83 137.5 130.5t193.5 47.5q120 0 191.5 -58.5t71.5 -152.5z" />
    <glyph glyph-name="threequarters" unicode="&#xbe;" horiz-adv-x="1638" 
d="M700 899q0 -105 -80.5 -174.5t-222.5 -69.5q-187 0 -295 117l129 162q76 -62 160 -62q78 0 78 43t-78 43h-88l29 201h71q99 0 99 55q0 31 -58 31q-64 0 -141 -61l-145 149q129 129 311 129q120 0 195 -55.5t75 -153.5q0 -69 -36.5 -119t-102.5 -73q100 -43 100 -162z
M1358 1434h268l-1204 -1434h-270zM1526 764l-64 -451h84l-26 -192h-84l-19 -131h-213l19 131h-375l26 190l375 453h277zM1104 313h145l29 213z" />
    <glyph glyph-name="questiondown" unicode="&#xbf;" horiz-adv-x="970" 
d="M575 1077q97 0 154 -52.5t57 -141.5q0 -108 -62 -176t-169 -68q-97 0 -154 53t-57 142q0 108 62 175.5t169 67.5zM682 537l-14 -97q-13 -102 -50 -154t-155 -141l-98 -73q-82 -64 -82 -121q0 -31 25.5 -48.5t68.5 -17.5q136 0 262 166l221 -166q-76 -135 -212 -217
t-304 -82q-173 0 -285 86.5t-112 229.5q0 77 28.5 143t74.5 115t120 104l86 64q54 41 69.5 63.5t22.5 71.5l10 74h324z" />
    <glyph glyph-name="Agrave" unicode="&#xc0;" horiz-adv-x="1519" 
d="M1133 1573h-330l-252 350h399zM1067 0l-57 279h-549l-135 -279h-387l741 1434h414l340 -1434h-367zM606 578h340l-100 489z" />
    <glyph glyph-name="Aacute" unicode="&#xc1;" horiz-adv-x="1519" 
d="M1366 1923l-350 -350h-330l281 350h399zM1067 0l-57 279h-549l-135 -279h-387l741 1434h414l340 -1434h-367zM606 578h340l-100 489z" />
    <glyph glyph-name="Acircumflex" unicode="&#xc2;" horiz-adv-x="1519" 
d="M938 1731l-147 -158h-353l348 350h340l250 -350h-332zM1067 0l-57 279h-549l-135 -279h-387l741 1434h414l340 -1434h-367zM606 578h340l-100 489z" />
    <glyph glyph-name="Atilde" unicode="&#xc3;" horiz-adv-x="1519" 
d="M819 1661q-27 0 -41 -20t-20 -66h-248q37 346 272 346q77 0 172 -55q3 -2 15.5 -8.5t16 -8.5t13.5 -7t15.5 -6.5t13.5 -3t16 -1.5q28 0 42 20t20 66h248q-40 -346 -273 -346q-77 0 -172 55q-3 2 -15.5 8.5t-16 8.5t-13.5 7t-15.5 6.5t-13.5 3t-16 1.5zM1067 0l-57 279
h-549l-135 -279h-387l741 1434h414l340 -1434h-367zM606 578h340l-100 489z" />
    <glyph glyph-name="Adieresis" unicode="&#xc4;" horiz-adv-x="1519" 
d="M653 1559q-83 0 -132.5 45.5t-49.5 121.5q0 98 65.5 164t163.5 66q83 0 132 -45.5t49 -120.5q0 -100 -65 -165.5t-163 -65.5zM1165 1559q-83 0 -132.5 45.5t-49.5 121.5q0 98 65.5 164t163.5 66q83 0 132 -45.5t49 -120.5q0 -100 -65 -165.5t-163 -65.5zM1067 0l-57 279
h-549l-135 -279h-387l741 1434h414l340 -1434h-367zM606 578h340l-100 489z" />
    <glyph glyph-name="Aring" unicode="&#xc5;" horiz-adv-x="1519" 
d="M909 1544q-122 0 -202 73t-80 181q0 135 103.5 231.5t248.5 96.5q123 0 202 -73.5t79 -182.5q0 -135 -105 -230.5t-246 -95.5zM958 1937q-56 0 -87 -35.5t-31 -89.5q0 -37 23 -58t65 -21q56 0 88.5 35.5t32.5 84.5q0 39 -23.5 61.5t-67.5 22.5zM1067 0l-57 279h-549
l-135 -279h-387l741 1434h414l340 -1434h-367zM606 578h340l-100 489z" />
    <glyph glyph-name="AE" unicode="&#xc6;" horiz-adv-x="2248" 
d="M2216 1106h-705l-28 -217h653l-45 -328h-655l-31 -233h723l-47 -328h-1077l36 266h-485l-190 -266h-439l1067 1434h1268zM768 561h313l76 543z" />
    <glyph glyph-name="Ccedilla" unicode="&#xc7;" horiz-adv-x="1497" 
d="M786 307q109 0 207.5 55.5t169.5 167.5l303 -157q-98 -166 -250.5 -266t-338.5 -127l-158 -392h-350l215 400q-227 44 -357.5 206.5t-130.5 397.5q0 208 91.5 396t254.5 310q227 164 514 164q222 0 379.5 -103t216.5 -298l-331 -158q-33 112 -112.5 167.5t-190.5 55.5
q-149 0 -267 -94q-85 -68 -133.5 -175.5t-48.5 -221.5q0 -150 84 -239t233 -89z" />
    <glyph glyph-name="Egrave" unicode="&#xc8;" horiz-adv-x="1310" 
d="M1030 1573h-330l-251 350h399zM1278 1112h-705l-28 -229h649l-45 -318h-649l-33 -243h721l-45 -322h-1077l200 1434h1057z" />
    <glyph glyph-name="Eacute" unicode="&#xc9;" horiz-adv-x="1310" 
d="M1264 1923l-351 -350h-329l280 350h400zM1278 1112h-705l-28 -229h649l-45 -318h-649l-33 -243h721l-45 -322h-1077l200 1434h1057z" />
    <glyph glyph-name="Ecircumflex" unicode="&#xca;" horiz-adv-x="1310" 
d="M836 1731l-148 -158h-352l348 350h340l250 -350h-332zM1278 1112h-705l-28 -229h649l-45 -318h-649l-33 -243h721l-45 -322h-1077l200 1434h1057z" />
    <glyph glyph-name="Edieresis" unicode="&#xcb;" horiz-adv-x="1310" 
d="M551 1559q-83 0 -132.5 45.5t-49.5 121.5q0 98 65.5 164t163.5 66q83 0 131.5 -45.5t48.5 -120.5q0 -100 -64.5 -165.5t-162.5 -65.5zM1063 1559q-83 0 -132.5 45.5t-49.5 121.5q0 98 65.5 164t163.5 66q83 0 131.5 -45.5t48.5 -120.5q0 -100 -64.5 -165.5t-162.5 -65.5z
M1278 1112h-705l-28 -229h649l-45 -318h-649l-33 -243h721l-45 -322h-1077l200 1434h1057z" />
    <glyph glyph-name="Igrave" unicode="&#xcc;" horiz-adv-x="643" 
d="M365 1573l-252 350h399l182 -350h-329zM70 0l200 1434h357l-201 -1434h-356z" />
    <glyph glyph-name="Iacute" unicode="&#xcd;" horiz-adv-x="643" 
d="M248 1573l280 350h400l-350 -350h-330zM70 0l200 1434h357l-201 -1434h-356z" />
    <glyph glyph-name="Icircumflex" unicode="&#xce;" horiz-adv-x="643" 
d="M500 1731l-148 -158h-352l348 350h340l250 -350h-332zM70 0l200 1434h357l-201 -1434h-356z" />
    <glyph glyph-name="Idieresis" unicode="&#xcf;" horiz-adv-x="643" 
d="M215 1559q-83 0 -132.5 45.5t-49.5 121.5q0 98 65.5 164t163.5 66q83 0 131.5 -45.5t48.5 -120.5q0 -100 -64.5 -165.5t-162.5 -65.5zM727 1559q-83 0 -132.5 45.5t-49.5 121.5q0 98 65.5 164t163.5 66q83 0 131.5 -45.5t48.5 -120.5q0 -100 -64.5 -165.5t-162.5 -65.5z
M70 0l200 1434h357l-201 -1434h-356z" />
    <glyph glyph-name="Eth" unicode="&#xd0;" horiz-adv-x="1560" 
d="M895 1434q183 0 323.5 -70.5t220 -206.5t79.5 -319q0 -193 -75.5 -376t-213.5 -296q-202 -166 -518 -166h-584l80 575h-174l41 283h174l80 576h567zM1008 426q66 65 100.5 174.5t34.5 216.5q0 150 -73 218.5t-216 68.5h-217l-33 -246h273l-41 -283h-273l-33 -245h215
q164 0 263 96z" />
    <glyph glyph-name="Ntilde" unicode="&#xd1;" horiz-adv-x="1599" 
d="M860 1661q-27 0 -41 -20t-20 -66h-248q37 346 272 346q77 0 172 -55q3 -2 15.5 -8.5t16 -8.5t13.5 -7t15.5 -6.5t13.5 -3t16 -1.5q28 0 42 20t20 66h248q-40 -346 -273 -346q-77 0 -172 55q-3 2 -15.5 8.5t-16 8.5t-13.5 7t-15.5 6.5t-13.5 3t-16 1.5zM1235 1434h352
l-201 -1434h-331l-516 858l-121 -858h-352l200 1434h334l516 -859z" />
    <glyph glyph-name="Ograve" unicode="&#xd2;" horiz-adv-x="1679" 
d="M883 1573l-252 350h399l182 -350h-329zM776 -29q-147 0 -273.5 48t-215.5 132t-139 202t-50 255q0 183 82 360.5t221 295.5q233 198 555 198q196 0 351.5 -83.5t241 -229.5t85.5 -328q0 -185 -81 -361t-222 -296q-111 -93 -253.5 -143t-301.5 -50zM805 307q173 0 301 115
q73 67 113.5 166t40.5 203q0 151 -89 243t-243 92q-177 0 -299 -116q-74 -68 -115 -168.5t-41 -200.5q0 -151 88.5 -242.5t243.5 -91.5z" />
    <glyph glyph-name="Oacute" unicode="&#xd3;" horiz-adv-x="1679" 
d="M766 1573l281 350h399l-350 -350h-330zM776 -29q-147 0 -273.5 48t-215.5 132t-139 202t-50 255q0 183 82 360.5t221 295.5q233 198 555 198q196 0 351.5 -83.5t241 -229.5t85.5 -328q0 -185 -81 -361t-222 -296q-111 -93 -253.5 -143t-301.5 -50zM805 307q173 0 301 115
q73 67 113.5 166t40.5 203q0 151 -89 243t-243 92q-177 0 -299 -116q-74 -68 -115 -168.5t-41 -200.5q0 -151 88.5 -242.5t243.5 -91.5z" />
    <glyph glyph-name="Ocircumflex" unicode="&#xd4;" horiz-adv-x="1679" 
d="M1018 1731l-148 -158h-352l348 350h340l250 -350h-332zM956 1462q196 0 351.5 -83.5t241 -229.5t85.5 -328q0 -185 -81 -361t-222 -296q-111 -93 -253.5 -143t-301.5 -50q-147 0 -273.5 48t-215.5 132t-139 202t-50 255q0 183 82 360.5t221 295.5q233 198 555 198z
M1106 422q73 67 113.5 166t40.5 203q0 151 -89 243t-243 92q-177 0 -299 -116q-74 -68 -115 -168.5t-41 -200.5q0 -151 88.5 -242.5t243.5 -91.5q173 0 301 115z" />
    <glyph glyph-name="Otilde" unicode="&#xd5;" horiz-adv-x="1679" 
d="M1161 1571q-77 0 -172 55q-3 2 -15.5 8.5t-16 8.5t-13.5 7t-15.5 6.5t-13.5 3t-16 1.5q-27 0 -41 -20t-20 -66h-248q37 346 272 346q77 0 172 -55q3 -2 15.5 -8.5t16 -8.5t13.5 -7t15.5 -6.5t13.5 -3t16 -1.5q28 0 42 20t20 66h248q-40 -346 -273 -346zM776 -29
q-147 0 -273.5 48t-215.5 132t-139 202t-50 255q0 183 82 360.5t221 295.5q233 198 555 198q196 0 351.5 -83.5t241 -229.5t85.5 -328q0 -185 -81 -361t-222 -296q-111 -93 -253.5 -143t-301.5 -50zM805 307q173 0 301 115q73 67 113.5 166t40.5 203q0 151 -89 243t-243 92
q-177 0 -299 -116q-74 -68 -115 -168.5t-41 -200.5q0 -151 88.5 -242.5t243.5 -91.5z" />
    <glyph glyph-name="Odieresis" unicode="&#xd6;" horiz-adv-x="1679" 
d="M733 1559q-83 0 -132.5 45.5t-49.5 121.5q0 98 65.5 164t163.5 66q83 0 132 -45.5t49 -120.5q0 -100 -65 -165.5t-163 -65.5zM1245 1559q-83 0 -132.5 45.5t-49.5 121.5q0 98 65.5 164t163.5 66q83 0 132 -45.5t49 -120.5q0 -100 -65 -165.5t-163 -65.5zM776 -29
q-147 0 -273.5 48t-215.5 132t-139 202t-50 255q0 183 82 360.5t221 295.5q233 198 555 198q196 0 351.5 -83.5t241 -229.5t85.5 -328q0 -185 -81 -361t-222 -296q-111 -93 -253.5 -143t-301.5 -50zM805 307q173 0 301 115q73 67 113.5 166t40.5 203q0 151 -89 243t-243 92
q-177 0 -299 -116q-74 -68 -115 -168.5t-41 -200.5q0 -151 88.5 -242.5t243.5 -91.5z" />
    <glyph glyph-name="multiply" unicode="&#xd7;" 
d="M1257 915l-303 -264l228 -268l-244 -209l-227 266l-305 -266l-175 209l304 264l-228 268l244 209l227 -266l305 266z" />
    <glyph glyph-name="Oslash" unicode="&#xd8;" horiz-adv-x="1679" 
d="M1702 1288l-156 -137q88 -145 88 -330t-81 -361t-222 -296q-111 -93 -253.5 -143t-301.5 -50q-250 0 -428 129l-158 -137l-155 182l151 134q-88 145 -88 329q0 183 82 360.5t221 295.5q233 198 555 198q248 0 430 -133l160 141zM629 1010q-74 -68 -115 -168.5t-41 -200.5
q0 -60 14 -106l623 546q-76 45 -182 45q-177 0 -299 -116zM1106 422q73 67 113.5 166t40.5 203q0 50 -13 104l-622 -545q73 -43 180 -43q173 0 301 115z" />
    <glyph glyph-name="Ugrave" unicode="&#xd9;" horiz-adv-x="1478" 
d="M782 1573l-252 350h400l182 -350h-330zM670 -29q-250 0 -402.5 123t-152.5 346q0 45 6 95l125 899h358l-121 -873q-4 -23 -4 -61q0 -191 223 -191q125 0 206.5 65.5t99.5 186.5l120 873h359l-125 -899q-38 -269 -224 -416.5t-468 -147.5z" />
    <glyph glyph-name="Uacute" unicode="&#xda;" horiz-adv-x="1478" 
d="M666 1573l280 350h400l-351 -350h-329zM670 -29q-250 0 -402.5 123t-152.5 346q0 45 6 95l125 899h358l-121 -873q-4 -23 -4 -61q0 -191 223 -191q125 0 206.5 65.5t99.5 186.5l120 873h359l-125 -899q-38 -269 -224 -416.5t-468 -147.5z" />
    <glyph glyph-name="Ucircumflex" unicode="&#xdb;" horiz-adv-x="1478" 
d="M918 1731l-148 -158h-352l348 350h340l250 -350h-332zM1128 1434h359l-125 -899q-38 -269 -224 -416.5t-468 -147.5q-250 0 -402.5 123t-152.5 346q0 45 6 95l125 899h358l-121 -873q-4 -23 -4 -61q0 -191 223 -191q125 0 206.5 65.5t99.5 186.5z" />
    <glyph glyph-name="Udieresis" unicode="&#xdc;" horiz-adv-x="1478" 
d="M633 1559q-83 0 -132.5 45.5t-49.5 121.5q0 98 65.5 164t163.5 66q83 0 131.5 -45.5t48.5 -120.5q0 -100 -64.5 -165.5t-162.5 -65.5zM1145 1559q-83 0 -132.5 45.5t-49.5 121.5q0 98 65.5 164t163.5 66q83 0 131.5 -45.5t48.5 -120.5q0 -100 -64.5 -165.5t-162.5 -65.5z
M670 -29q-250 0 -402.5 123t-152.5 346q0 45 6 95l125 899h358l-121 -873q-4 -23 -4 -61q0 -191 223 -191q125 0 206.5 65.5t99.5 186.5l120 873h359l-125 -899q-38 -269 -224 -416.5t-468 -147.5z" />
    <glyph glyph-name="Yacute" unicode="&#xdd;" horiz-adv-x="1363" 
d="M1284 1923l-350 -350h-330l281 350h399zM1085 1434h422l-641 -881l-82 -553h-360l82 553l-395 881h393l215 -539z" />
    <glyph glyph-name="Thorn" unicode="&#xde;" horiz-adv-x="1363" 
d="M846 1219q240 0 365.5 -102.5t125.5 -299.5q0 -148 -54.5 -276t-158.5 -201q-149 -104 -417 -104h-252l-33 -236h-356l200 1434h357l-31 -215h254zM903 604q60 55 60 162q0 65 -43 95t-138 30h-235l-47 -334h235q112 0 168 47z" />
    <glyph glyph-name="germandbls" unicode="&#xdf;" horiz-adv-x="1337" 
d="M977 766q143 -17 221 -99t78 -208q0 -221 -159 -348t-417 -127q-92 0 -180 16l43 299q60 -16 125 -16q111 0 177.5 51.5t66.5 138.5q0 119 -184 119h-144l43 307h62q101 0 159 39q66 48 66 145q0 125 -164 125q-213 0 -240 -204l-141 -1004h-344l143 1018
q33 239 176.5 368.5t405.5 129.5q234 0 373 -102t139 -267q0 -110 -55.5 -204.5t-151.5 -143.5q-53 -26 -98 -33z" />
    <glyph glyph-name="agrave" unicode="&#xe0;" horiz-adv-x="1308" 
d="M1012 1188h-330l-252 350h399zM928 1049h336l-148 -1049h-336l17 125q-56 -75 -142.5 -114.5t-185.5 -39.5q-184 0 -296 128.5t-112 338.5q0 149 56.5 289t158.5 229q137 121 316 121q111 0 195.5 -48.5t119.5 -135.5zM791 367q33 39 52 99.5t19 117.5q0 87 -49.5 136.5
t-136.5 49.5q-101 0 -172 -65q-44 -42 -68 -109t-24 -129q0 -88 48.5 -138t137.5 -50q118 0 193 88z" />
    <glyph glyph-name="aacute" unicode="&#xe1;" horiz-adv-x="1308" 
d="M1245 1538l-350 -350h-330l281 350h399zM928 1049h336l-148 -1049h-336l17 125q-56 -75 -142.5 -114.5t-185.5 -39.5q-184 0 -296 128.5t-112 338.5q0 149 56.5 289t158.5 229q137 121 316 121q111 0 195.5 -48.5t119.5 -135.5zM791 367q33 39 52 99.5t19 117.5
q0 87 -49.5 136.5t-136.5 49.5q-101 0 -172 -65q-44 -42 -68 -109t-24 -129q0 -88 48.5 -138t137.5 -50q118 0 193 88z" />
    <glyph glyph-name="acircumflex" unicode="&#xe2;" horiz-adv-x="1308" 
d="M817 1346l-147 -158h-353l349 350h340l249 -350h-331zM928 1049h336l-148 -1049h-336l17 125q-56 -75 -142.5 -114.5t-185.5 -39.5q-184 0 -296 128.5t-112 338.5q0 149 56.5 289t158.5 229q137 121 316 121q111 0 195.5 -48.5t119.5 -135.5zM791 367q33 39 52 99.5
t19 117.5q0 87 -49.5 136.5t-136.5 49.5q-101 0 -172 -65q-44 -42 -68 -109t-24 -129q0 -88 48.5 -138t137.5 -50q118 0 193 88z" />
    <glyph glyph-name="atilde" unicode="&#xe3;" horiz-adv-x="1308" 
d="M698 1276q-27 0 -41 -20t-20 -66h-248q37 346 273 346q77 0 172 -55q3 -2 15.5 -8.5t16 -8.5t13.5 -7t15.5 -6.5t13.5 -3t16 -1.5q27 0 41 20t20 66h248q-40 -346 -272 -346q-78 0 -173 55q-3 2 -15.5 8.5t-16 8.5t-13.5 7t-15.5 6.5t-13.5 3t-16 1.5zM928 1049h336
l-148 -1049h-336l17 125q-56 -75 -142.5 -114.5t-185.5 -39.5q-184 0 -296 128.5t-112 338.5q0 149 56.5 289t158.5 229q137 121 316 121q111 0 195.5 -48.5t119.5 -135.5zM791 367q33 39 52 99.5t19 117.5q0 87 -49.5 136.5t-136.5 49.5q-101 0 -172 -65q-44 -42 -68 -109
t-24 -129q0 -88 48.5 -138t137.5 -50q118 0 193 88z" />
    <glyph glyph-name="adieresis" unicode="&#xe4;" horiz-adv-x="1308" 
d="M532 1174q-83 0 -132.5 45.5t-49.5 121.5q0 98 66 164t164 66q83 0 131.5 -45.5t48.5 -120.5q0 -100 -65 -165.5t-163 -65.5zM1044 1174q-83 0 -132.5 45.5t-49.5 121.5q0 98 66 164t164 66q83 0 131.5 -45.5t48.5 -120.5q0 -100 -65 -165.5t-163 -65.5zM907 893l21 156
h336l-148 -1049h-336l17 125q-56 -75 -142.5 -114.5t-185.5 -39.5q-184 0 -296 128.5t-112 338.5q0 149 56.5 289t158.5 229q137 121 316 121q111 0 195.5 -48.5t119.5 -135.5zM791 367q33 39 52 99.5t19 117.5q0 87 -49.5 136.5t-136.5 49.5q-101 0 -172 -65
q-44 -42 -68 -109t-24 -129q0 -88 48.5 -138t137.5 -50q118 0 193 88z" />
    <glyph glyph-name="aring" unicode="&#xe5;" horiz-adv-x="1308" 
d="M788 1159q-122 0 -202 73t-80 181q0 135 103.5 231.5t248.5 96.5q123 0 202 -73.5t79 -182.5q0 -135 -105 -230.5t-246 -95.5zM838 1552q-56 0 -87.5 -35.5t-31.5 -89.5q0 -37 23 -58t65 -21q56 0 88.5 35.5t32.5 84.5q0 39 -23.5 61.5t-66.5 22.5zM928 1049h336
l-148 -1049h-336l17 125q-56 -75 -142.5 -114.5t-185.5 -39.5q-184 0 -296 128.5t-112 338.5q0 149 56.5 289t158.5 229q137 121 316 121q111 0 195.5 -48.5t119.5 -135.5zM791 367q33 39 52 99.5t19 117.5q0 87 -49.5 136.5t-136.5 49.5q-101 0 -172 -65q-44 -42 -68 -109
t-24 -129q0 -88 48.5 -138t137.5 -50q118 0 193 88z" />
    <glyph glyph-name="ae" unicode="&#xe6;" horiz-adv-x="1839" 
d="M1339 1077q206 0 326.5 -120.5t120.5 -325.5q0 -33 -8 -103q-6 -54 -21 -100h-704q17 -170 219 -170q149 0 258 92l158 -205q-75 -83 -195 -128.5t-266 -45.5q-276 0 -393 168q-136 -168 -426 -168q-185 0 -287.5 80t-102.5 211q0 87 37 162.5t105 122.5q122 84 352 84
h221l2 12q2 12 2 35q0 60 -34.5 84t-100.5 24q-144 0 -266 -104l-168 207q90 88 217.5 138t276.5 50q234 0 321 -143q137 143 356 143zM1303 786q-107 0 -166 -59q-36 -36 -58 -94h381q0 80 -37 116.5t-120 36.5zM481 223q92 0 152 47.5t72 130.5l4 27h-179q-108 0 -145 -43
q-25 -32 -25 -78q0 -84 121 -84z" />
    <glyph glyph-name="ccedilla" unicode="&#xe7;" horiz-adv-x="1122" 
d="M592 283q128 0 225 139l238 -176q-64 -99 -157 -164.5t-206 -91.5l-162 -402h-350l215 400q-156 38 -245 159t-89 293q0 147 59.5 280.5t166.5 221.5q166 135 401 135q164 0 280 -70.5t165 -203.5l-287 -176q-59 139 -184 139q-97 0 -164 -64q-42 -40 -64 -103.5
t-22 -125.5q0 -89 48 -139.5t132 -50.5z" />
    <glyph glyph-name="egrave" unicode="&#xe8;" horiz-adv-x="1189" 
d="M932 1188h-330l-252 350h400zM1137 627q0 -38 -9.5 -103t-19.5 -100h-711q7 -87 59 -126.5t152 -39.5q157 0 266 92l158 -205q-166 -174 -454 -174q-239 0 -379 122.5t-140 334.5q0 154 58.5 293t169.5 227q160 129 385 129q214 0 339.5 -120.5t125.5 -329.5zM653 793
q-113 0 -178 -74q-30 -35 -49 -86h377q2 12 2 24q0 68 -36 102t-116 34z" />
    <glyph glyph-name="eacute" unicode="&#xe9;" horiz-adv-x="1189" 
d="M1165 1538l-350 -350h-330l281 350h399zM672 1077q214 0 339.5 -120.5t125.5 -329.5q0 -38 -9.5 -103t-19.5 -100h-711q7 -87 59 -126.5t152 -39.5q157 0 266 92l158 -205q-166 -174 -454 -174q-239 0 -379 122.5t-140 334.5q0 154 58.5 293t169.5 227q160 129 385 129z
M653 793q-113 0 -178 -74q-30 -35 -49 -86h377q2 12 2 24q0 68 -36 102t-116 34z" />
    <glyph glyph-name="ecircumflex" unicode="&#xea;" horiz-adv-x="1189" 
d="M737 1346l-147 -158h-352l348 350h340l250 -350h-332zM672 1077q214 0 339.5 -120.5t125.5 -329.5q0 -38 -9.5 -103t-19.5 -100h-711q7 -87 59 -126.5t152 -39.5q157 0 266 92l158 -205q-166 -174 -454 -174q-239 0 -379 122.5t-140 334.5q0 154 58.5 293t169.5 227
q160 129 385 129zM653 793q-113 0 -178 -74q-30 -35 -49 -86h377q2 12 2 24q0 68 -36 102t-116 34z" />
    <glyph glyph-name="edieresis" unicode="&#xeb;" horiz-adv-x="1189" 
d="M453 1174q-83 0 -133 45.5t-50 121.5q0 98 66 164t164 66q83 0 131.5 -45.5t48.5 -120.5q0 -100 -64.5 -165.5t-162.5 -65.5zM965 1174q-83 0 -133 45.5t-50 121.5q0 98 66 164t164 66q83 0 131.5 -45.5t48.5 -120.5q0 -100 -64.5 -165.5t-162.5 -65.5zM672 1077
q214 0 339.5 -120.5t125.5 -329.5q0 -38 -9.5 -103t-19.5 -100h-711q7 -87 59 -126.5t152 -39.5q157 0 266 92l158 -205q-166 -174 -454 -174q-239 0 -379 122.5t-140 334.5q0 154 58.5 293t169.5 227q160 129 385 129zM653 793q-113 0 -178 -74q-30 -35 -49 -86h377
q2 12 2 24q0 68 -36 102t-116 34z" />
    <glyph glyph-name="igrave" unicode="&#xec;" horiz-adv-x="585" 
d="M289 1188l-162 350h387l96 -350h-321zM47 0l148 1049h344l-148 -1049h-344z" />
    <glyph glyph-name="iacute" unicode="&#xed;" horiz-adv-x="585" 
d="M166 1188l194 350h390l-263 -350h-321zM47 0l148 1049h344l-148 -1049h-344z" />
    <glyph glyph-name="icircumflex" unicode="&#xee;" horiz-adv-x="585" 
d="M410 1348l-109 -160h-303l278 350h320l180 -350h-303zM47 0l148 1049h344l-148 -1049h-344z" />
    <glyph glyph-name="idieresis" unicode="&#xef;" horiz-adv-x="585" 
d="M190 1194q-67 0 -106 37.5t-39 105.5q0 92 53.5 152.5t141.5 60.5q67 0 106 -37.5t39 -105.5q0 -92 -53.5 -152.5t-141.5 -60.5zM584 1194q-67 0 -106.5 37.5t-39.5 105.5q0 92 53.5 152.5t141.5 60.5q67 0 106 -37.5t39 -105.5q0 -92 -53 -152.5t-141 -60.5zM47 0
l148 1049h344l-148 -1049h-344z" />
    <glyph glyph-name="eth" unicode="&#xf0;" horiz-adv-x="1247" 
d="M1004 1313q120 -133 167 -321t17 -419q-21 -144 -61 -243.5t-111 -173.5q-80 -83 -196.5 -134t-258.5 -51q-230 0 -367 129.5t-137 327.5q0 116 49 224t138 186q163 141 407 141q142 0 230 -64q-24 148 -127 238l-236 -152l-84 138l170 108q-80 41 -170 68l131 248
q178 -46 314 -140l217 140l84 -138zM760 334q39 33 60.5 85t21.5 105q0 78 -47.5 123t-135.5 45q-122 0 -190 -78q-59 -68 -59 -172q0 -79 44.5 -123.5t131.5 -44.5q107 0 174 60z" />
    <glyph glyph-name="ntilde" unicode="&#xf1;" horiz-adv-x="1241" 
d="M631 1276q-28 0 -42 -20t-20 -66h-247q37 346 272 346q77 0 172 -55q3 -2 15.5 -8.5t16 -8.5t13.5 -7t15.5 -6.5t13.5 -3t16 -1.5q28 0 42 20t20 66h247q-40 -346 -272 -346q-77 0 -172 55q-3 2 -15.5 8.5t-16 8.5t-13.5 7t-15.5 6.5t-13.5 3t-16 1.5zM852 1077
q146 0 227.5 -80.5t81.5 -228.5q0 -36 -6 -76l-98 -692h-344l84 602q4 32 4 47q0 59 -30.5 88t-96.5 29q-87 0 -139 -47.5t-64 -140.5l-82 -578h-344l148 1049h335l-20 -142q56 79 144.5 124.5t199.5 45.5z" />
    <glyph glyph-name="ograve" unicode="&#xf2;" horiz-adv-x="1271" 
d="M627 1188l-252 350h399l182 -350h-329zM571 -29q-232 0 -371 133.5t-139 341.5q0 126 52.5 250.5t150.5 216.5q175 164 441 164q232 0 369.5 -132.5t137.5 -340.5q0 -142 -64.5 -279.5t-174.5 -224.5q-164 -129 -402 -129zM598 279q95 0 164 57q50 42 75 106.5t25 132.5
q0 91 -47.5 143t-138.5 52q-112 0 -184 -78q-37 -40 -58.5 -99.5t-21.5 -121.5q0 -90 47.5 -141t138.5 -51z" />
    <glyph glyph-name="oacute" unicode="&#xf3;" horiz-adv-x="1271" 
d="M510 1188l281 350h399l-350 -350h-330zM571 -29q-232 0 -371 133.5t-139 341.5q0 126 52.5 250.5t150.5 216.5q175 164 441 164q232 0 369.5 -132.5t137.5 -340.5q0 -142 -64.5 -279.5t-174.5 -224.5q-164 -129 -402 -129zM598 279q95 0 164 57q50 42 75 106.5t25 132.5
q0 91 -47.5 143t-138.5 52q-112 0 -184 -78q-37 -40 -58.5 -99.5t-21.5 -121.5q0 -90 47.5 -141t138.5 -51z" />
    <glyph glyph-name="ocircumflex" unicode="&#xf4;" horiz-adv-x="1271" 
d="M762 1346l-148 -158h-352l348 350h340l250 -350h-332zM705 1077q232 0 369.5 -132.5t137.5 -340.5q0 -142 -64.5 -279.5t-174.5 -224.5q-164 -129 -402 -129q-232 0 -371 133.5t-139 341.5q0 126 52.5 250.5t150.5 216.5q175 164 441 164zM762 336q50 42 75 106.5
t25 132.5q0 91 -47.5 143t-138.5 52q-112 0 -184 -78q-37 -40 -58.5 -99.5t-21.5 -121.5q0 -90 47.5 -141t138.5 -51q95 0 164 57z" />
    <glyph glyph-name="otilde" unicode="&#xf5;" horiz-adv-x="1271" 
d="M905 1186q-77 0 -172 55q-3 2 -15.5 8.5t-16 8.5t-13.5 7t-15.5 6.5t-13.5 3t-16 1.5q-27 0 -41 -20t-20 -66h-248q37 346 272 346q77 0 172 -55q3 -2 15.5 -8.5t16 -8.5t13.5 -7t15.5 -6.5t13.5 -3t16 -1.5q28 0 42 20t20 66h248q-40 -346 -273 -346zM571 -29
q-232 0 -371 133.5t-139 341.5q0 126 52.5 250.5t150.5 216.5q175 164 441 164q232 0 369.5 -132.5t137.5 -340.5q0 -142 -64.5 -279.5t-174.5 -224.5q-164 -129 -402 -129zM598 279q95 0 164 57q50 42 75 106.5t25 132.5q0 91 -47.5 143t-138.5 52q-112 0 -184 -78
q-37 -40 -58.5 -99.5t-21.5 -121.5q0 -90 47.5 -141t138.5 -51z" />
    <glyph glyph-name="odieresis" unicode="&#xf6;" horiz-adv-x="1271" 
d="M477 1174q-83 0 -132.5 45.5t-49.5 121.5q0 98 65.5 164t163.5 66q83 0 132 -45.5t49 -120.5q0 -100 -65 -165.5t-163 -65.5zM989 1174q-83 0 -132.5 45.5t-49.5 121.5q0 98 65.5 164t163.5 66q83 0 132 -45.5t49 -120.5q0 -100 -65 -165.5t-163 -65.5zM571 -29
q-232 0 -371 133.5t-139 341.5q0 126 52.5 250.5t150.5 216.5q175 164 441 164q232 0 369.5 -132.5t137.5 -340.5q0 -142 -64.5 -279.5t-174.5 -224.5q-164 -129 -402 -129zM598 279q95 0 164 57q50 42 75 106.5t25 132.5q0 91 -47.5 143t-138.5 52q-112 0 -184 -78
q-37 -40 -58.5 -99.5t-21.5 -121.5q0 -90 47.5 -141t138.5 -51z" />
    <glyph glyph-name="divide" unicode="&#xf7;" 
d="M776 881q-83 0 -129.5 40t-46.5 109q0 96 64 155.5t163 59.5q83 0 131 -41t48 -110q0 -94 -65.5 -153.5t-164.5 -59.5zM252 496l43 307h942l-43 -307h-942zM662 53q-84 0 -131.5 41.5t-47.5 112.5q0 93 66 152t164 59q83 0 129.5 -40.5t46.5 -109.5q0 -97 -63 -156
t-164 -59z" />
    <glyph glyph-name="oslash" unicode="&#xf8;" horiz-adv-x="1277" 
d="M1292 963l-135 -121q57 -108 57 -238q0 -142 -64.5 -279.5t-174.5 -224.5q-164 -129 -402 -129q-183 0 -311 86l-139 -125l-137 154l137 123q-60 105 -60 237q0 126 52.5 250.5t150.5 216.5q175 164 441 164q179 0 309 -84l139 123zM481 707q-39 -42 -62.5 -107.5
t-23.5 -132.5q0 -29 2 -43l389 344q-48 23 -104 23q-123 0 -201 -84zM774 319q54 47 81.5 118t27.5 143q0 31 -2 45l-389 -344q48 -23 104 -23q101 0 178 61z" />
    <glyph glyph-name="ugrave" unicode="&#xf9;" horiz-adv-x="1224" 
d="M930 1188h-330l-252 350h400zM836 1049h344l-148 -1049h-336l21 143q-56 -79 -147 -125.5t-201 -46.5q-138 0 -213.5 77.5t-75.5 219.5q0 42 6 88l98 693h344l-84 -603q-4 -40 -4 -55q0 -56 25.5 -82t85.5 -26q84 0 137 47.5t66 140.5z" />
    <glyph glyph-name="uacute" unicode="&#xfa;" horiz-adv-x="1224" 
d="M1163 1538l-350 -350h-330l281 350h399zM836 1049h344l-148 -1049h-336l21 143q-56 -79 -147 -125.5t-201 -46.5q-138 0 -213.5 77.5t-75.5 219.5q0 42 6 88l98 693h344l-84 -603q-4 -40 -4 -55q0 -56 25.5 -82t85.5 -26q84 0 137 47.5t66 140.5z" />
    <glyph glyph-name="ucircumflex" unicode="&#xfb;" horiz-adv-x="1224" 
d="M735 1346l-147 -158h-352l348 350h340l250 -350h-332zM836 1049h344l-148 -1049h-336l21 143q-56 -79 -147 -125.5t-201 -46.5q-138 0 -213.5 77.5t-75.5 219.5q0 42 6 88l98 693h344l-84 -603q-4 -40 -4 -55q0 -56 25.5 -82t85.5 -26q84 0 137 47.5t66 140.5z" />
    <glyph glyph-name="udieresis" unicode="&#xfc;" horiz-adv-x="1224" 
d="M451 1174q-83 0 -133 45.5t-50 121.5q0 98 66 164t164 66q83 0 131.5 -45.5t48.5 -120.5q0 -100 -64.5 -165.5t-162.5 -65.5zM963 1174q-83 0 -133 45.5t-50 121.5q0 98 66 164t164 66q83 0 131.5 -45.5t48.5 -120.5q0 -100 -64.5 -165.5t-162.5 -65.5zM754 471l82 578
h344l-148 -1049h-336l21 143q-56 -79 -147 -125.5t-201 -46.5q-138 0 -213.5 77.5t-75.5 219.5q0 42 6 88l98 693h344l-84 -603q-4 -40 -4 -55q0 -56 25.5 -82t85.5 -26q84 0 137 47.5t66 140.5z" />
    <glyph glyph-name="yacute" unicode="&#xfd;" horiz-adv-x="1161" 
d="M1135 1538l-351 -350h-329l280 350h400zM850 1049h373l-742 -1457h-334l197 426l-258 1031h365l118 -635z" />
    <glyph glyph-name="thorn" unicode="&#xfe;" horiz-adv-x="1306" 
d="M844 1077q180 0 291.5 -127.5t111.5 -331.5q0 -157 -60.5 -302.5t-170.5 -235.5q-134 -109 -303 -109q-104 0 -185 43.5t-120 124.5l-76 -549h-344l268 1907h344l-82 -575q52 74 138.5 114.5t187.5 40.5zM797 344q100 87 100 242q0 88 -44.5 136t-133.5 48
q-121 0 -195 -84q-78 -87 -78 -223q0 -88 45 -136t134 -48q101 0 172 65z" />
    <glyph glyph-name="ydieresis" unicode="&#xff;" horiz-adv-x="1161" 
d="M422 1174q-83 0 -132.5 45.5t-49.5 121.5q0 98 65.5 164t163.5 66q83 0 131.5 -45.5t48.5 -120.5q0 -100 -64.5 -165.5t-162.5 -65.5zM934 1174q-83 0 -132.5 45.5t-49.5 121.5q0 98 65.5 164t163.5 66q83 0 131.5 -45.5t48.5 -120.5q0 -100 -64.5 -165.5t-162.5 -65.5z
M850 1049h373l-742 -1457h-334l197 426l-258 1031h365l118 -635z" />
    <glyph glyph-name="Amacron" unicode="&#x100;" horiz-adv-x="1519" 
d="M1300 1855l-36 -266h-709l37 266h708zM1067 0l-57 279h-549l-135 -279h-387l741 1434h414l340 -1434h-367zM606 578h340l-100 489z" />
    <glyph glyph-name="amacron" unicode="&#x101;" horiz-adv-x="1308" 
d="M1180 1470l-37 -266h-709l37 266h709zM928 1049h336l-148 -1049h-336l17 125q-56 -75 -142.5 -114.5t-185.5 -39.5q-184 0 -296 128.5t-112 338.5q0 149 56.5 289t158.5 229q137 121 316 121q111 0 195.5 -48.5t119.5 -135.5zM791 367q33 39 52 99.5t19 117.5
q0 87 -49.5 136.5t-136.5 49.5q-101 0 -172 -65q-44 -42 -68 -109t-24 -129q0 -88 48.5 -138t137.5 -50q118 0 193 88z" />
    <glyph glyph-name="Abreve" unicode="&#x102;" horiz-adv-x="1519" 
d="M909 1556q-162 0 -254 73t-92 200q0 28 8 80h269q-4 -28 -4 -39q0 -101 92 -101q56 0 93.5 36t47.5 104h268l-4 -25q-22 -152 -134 -240t-290 -88zM1067 0l-57 279h-549l-135 -279h-387l741 1434h414l340 -1434h-367zM606 578h340l-100 489z" />
    <glyph glyph-name="abreve" unicode="&#x103;" horiz-adv-x="1308" 
d="M788 1171q-162 0 -254 73t-92 200q0 22 9 80h268q-4 -28 -4 -39q0 -101 92 -101q56 0 93.5 36t47.5 104h269l-5 -25q-22 -152 -134 -240t-290 -88zM928 1049h336l-148 -1049h-336l17 125q-56 -75 -142.5 -114.5t-185.5 -39.5q-184 0 -296 128.5t-112 338.5
q0 149 56.5 289t158.5 229q137 121 316 121q111 0 195.5 -48.5t119.5 -135.5zM791 367q33 39 52 99.5t19 117.5q0 87 -49.5 136.5t-136.5 49.5q-101 0 -172 -65q-44 -42 -68 -109t-24 -129q0 -88 48.5 -138t137.5 -50q118 0 193 88z" />
    <glyph glyph-name="Aogonek" unicode="&#x104;" horiz-adv-x="1519" 
d="M1251 -158q0 -39 86 -39h70l-35 -241h-137q-130 0 -203.5 46t-73.5 128q0 72 48.5 141.5t134.5 122.5h-74l-57 279h-549l-135 -279h-387l741 1434h414l340 -1434q-123 -77 -155 -110q-28 -27 -28 -48zM606 578h340l-100 489z" />
    <glyph glyph-name="aogonek" unicode="&#x105;" horiz-adv-x="1308" 
d="M1116 0q-124 -78 -157 -112q-25 -26 -25 -46q0 -39 86 -39h70l-35 -241h-137q-130 0 -203.5 46t-73.5 128q0 72 48 142t134 122h-43l17 125q-56 -75 -142.5 -114.5t-185.5 -39.5q-184 0 -296 128.5t-112 338.5q0 149 56.5 289t158.5 229q137 121 316 121
q111 0 195.5 -48.5t119.5 -135.5l21 156h336zM598 279q118 0 193 88q33 39 52 99.5t19 117.5q0 87 -49.5 136.5t-136.5 49.5q-101 0 -172 -65q-44 -42 -68 -109t-24 -129q0 -88 48.5 -138t137.5 -50z" />
    <glyph glyph-name="Cacute" unicode="&#x106;" horiz-adv-x="1497" 
d="M748 1573l280 350h399l-350 -350h-329zM748 -29q-297 0 -474.5 171.5t-177.5 449.5q0 208 91.5 396t254.5 310q227 164 514 164q222 0 379.5 -103t216.5 -298l-331 -158q-33 112 -112.5 167.5t-190.5 55.5q-149 0 -267 -94q-85 -68 -133.5 -175.5t-48.5 -221.5
q0 -150 84 -239t233 -89q109 0 207.5 55.5t169.5 167.5l303 -157q-115 -195 -304 -298.5t-414 -103.5z" />
    <glyph glyph-name="cacute" unicode="&#x107;" horiz-adv-x="1122" 
d="M498 1188l280 350h400l-351 -350h-329zM532 -29q-215 0 -343 130t-128 339q0 147 59.5 280.5t166.5 221.5q166 135 401 135q164 0 280 -70.5t165 -203.5l-287 -176q-59 139 -184 139q-97 0 -164 -64q-42 -40 -64 -103.5t-22 -125.5q0 -89 48 -139.5t132 -50.5
q128 0 225 139l238 -176q-86 -133 -222.5 -204t-300.5 -71z" />
    <glyph glyph-name="Ccircumflex" unicode="&#x108;" horiz-adv-x="1497" 
d="M999 1731l-147 -158h-352l348 350h340l250 -350h-332zM786 307q109 0 207.5 55.5t169.5 167.5l303 -157q-115 -195 -304 -298.5t-414 -103.5q-297 0 -474.5 171.5t-177.5 449.5q0 208 91.5 396t254.5 310q227 164 514 164q222 0 379.5 -103t216.5 -298l-331 -158
q-33 112 -112.5 167.5t-190.5 55.5q-149 0 -267 -94q-85 -68 -133.5 -175.5t-48.5 -221.5q0 -150 84 -239t233 -89z" />
    <glyph glyph-name="ccircumflex" unicode="&#x109;" horiz-adv-x="1122" 
d="M750 1346l-148 -158h-352l348 350h340l250 -350h-332zM498 702q-42 -40 -64 -103.5t-22 -125.5q0 -89 48 -139.5t132 -50.5q128 0 225 139l238 -176q-86 -133 -222.5 -204t-300.5 -71q-215 0 -343 130t-128 339q0 147 59.5 280.5t166.5 221.5q166 135 401 135
q164 0 280 -70.5t165 -203.5l-287 -176q-59 139 -184 139q-97 0 -164 -64z" />
    <glyph glyph-name="Cdotaccent" unicode="&#x10a;" horiz-adv-x="1497" 
d="M971 1559q-86 0 -137.5 45t-51.5 120q0 101 66.5 166.5t169.5 65.5q86 0 136 -45.5t50 -120.5q0 -101 -65 -166t-168 -65zM748 -29q-297 0 -474.5 171.5t-177.5 449.5q0 208 91.5 396t254.5 310q227 164 514 164q222 0 379.5 -103t216.5 -298l-331 -158
q-33 112 -112.5 167.5t-190.5 55.5q-149 0 -267 -94q-85 -68 -133.5 -175.5t-48.5 -221.5q0 -150 84 -239t233 -89q109 0 207.5 55.5t169.5 167.5l303 -157q-115 -195 -304 -298.5t-414 -103.5z" />
    <glyph glyph-name="cdotaccent" unicode="&#x10b;" horiz-adv-x="1122" 
d="M721 1174q-86 0 -137.5 45t-51.5 120q0 101 66.5 166.5t169.5 65.5q86 0 136 -45.5t50 -120.5q0 -101 -65 -166t-168 -65zM532 -29q-215 0 -343 130t-128 339q0 147 59.5 280.5t166.5 221.5q166 135 401 135q164 0 280 -70.5t165 -203.5l-287 -176q-59 139 -184 139
q-97 0 -164 -64q-42 -40 -64 -103.5t-22 -125.5q0 -89 48 -139.5t132 -50.5q128 0 225 139l238 -176q-86 -133 -222.5 -204t-300.5 -71z" />
    <glyph glyph-name="Ccaron" unicode="&#x10c;" horiz-adv-x="1497" 
d="M1139 1573h-340l-250 350h334l104 -158l150 158h350zM786 307q109 0 207.5 55.5t169.5 167.5l303 -157q-115 -195 -304 -298.5t-414 -103.5q-297 0 -474.5 171.5t-177.5 449.5q0 208 91.5 396t254.5 310q227 164 514 164q222 0 379.5 -103t216.5 -298l-331 -158
q-33 112 -112.5 167.5t-190.5 55.5q-149 0 -267 -94q-85 -68 -133.5 -175.5t-48.5 -221.5q0 -150 84 -239t233 -89z" />
    <glyph glyph-name="ccaron" unicode="&#x10d;" horiz-adv-x="1122" 
d="M889 1188h-340l-250 350h334l104 -158l150 158h350zM498 702q-42 -40 -64 -103.5t-22 -125.5q0 -89 48 -139.5t132 -50.5q128 0 225 139l238 -176q-86 -133 -222.5 -204t-300.5 -71q-215 0 -343 130t-128 339q0 147 59.5 280.5t166.5 221.5q166 135 401 135
q164 0 280 -70.5t165 -203.5l-287 -176q-59 139 -184 139q-97 0 -164 -64z" />
    <glyph glyph-name="Dcaron" unicode="&#x10e;" horiz-adv-x="1499" 
d="M973 1573h-340l-250 350h334l104 -158l150 158h350zM834 1434q183 0 323 -70.5t219.5 -206.5t79.5 -319q0 -193 -75.5 -376t-213.5 -296q-202 -166 -518 -166h-583l200 1434h568zM946 426q66 65 100.5 174.5t34.5 216.5q0 150 -72.5 218.5t-215.5 68.5h-218l-106 -774
h215q163 0 262 96z" />
    <glyph glyph-name="dcaron" unicode="&#x10f;" horiz-adv-x="1513" 
d="M899 903l84 596h344l-211 -1499h-336l21 141q-58 -82 -150 -126t-198 -44q-175 0 -284.5 127t-109.5 328q0 155 58 301t166 238q131 112 307 112q104 0 186 -45t123 -129zM1448 1499h336l-135 -440h-263zM774 346q41 41 64.5 103t23.5 124q0 92 -49.5 144.5t-140.5 52.5
q-103 0 -174 -68q-41 -41 -63.5 -105.5t-22.5 -123.5q0 -91 47.5 -142.5t138.5 -51.5q106 0 176 67z" />
    <glyph glyph-name="Dcroat" unicode="&#x110;" horiz-adv-x="1560" 
d="M895 1434q183 0 323.5 -70.5t220 -206.5t79.5 -319q0 -193 -75.5 -376t-213.5 -296q-202 -166 -518 -166h-584l80 575h-174l41 283h174l80 576h567zM1008 426q66 65 100.5 174.5t34.5 216.5q0 150 -73 218.5t-216 68.5h-217l-33 -246h273l-41 -283h-273l-33 -245h215
q164 0 263 96z" />
    <glyph glyph-name="dcroat" unicode="&#x111;" horiz-adv-x="1308" 
d="M1444 1372l-31 -221h-135l-162 -1151h-336l21 141q-56 -82 -146 -126t-194 -44q-179 0 -290.5 128t-111.5 329q0 143 58.5 280.5t161.5 225.5q137 115 317 115q102 0 182.5 -41.5t118.5 -116.5l37 260h-311l30 221h312l18 127h344l-18 -127h135zM770 344q90 81 90 211
q0 86 -47 136t-137 50q-98 0 -170 -59q-47 -38 -71.5 -97t-24.5 -120q0 -86 47 -136t137 -50q105 0 176 65z" />
    <glyph glyph-name="Emacron" unicode="&#x112;" horiz-adv-x="1310" 
d="M1198 1855l-37 -266h-708l36 266h709zM1278 1112h-705l-28 -229h649l-45 -318h-649l-33 -243h721l-45 -322h-1077l200 1434h1057z" />
    <glyph glyph-name="emacron" unicode="&#x113;" horiz-adv-x="1189" 
d="M1100 1470l-37 -266h-709l37 266h709zM1137 627q0 -38 -9.5 -103t-19.5 -100h-711q7 -87 59 -126.5t152 -39.5q157 0 266 92l158 -205q-166 -174 -454 -174q-239 0 -379 122.5t-140 334.5q0 154 58.5 293t169.5 227q160 129 385 129q214 0 339.5 -120.5t125.5 -329.5z
M653 793q-113 0 -178 -74q-30 -35 -49 -86h377q2 12 2 24q0 68 -36 102t-116 34z" />
    <glyph glyph-name="Ebreve" unicode="&#x114;" horiz-adv-x="1310" 
d="M807 1556q-162 0 -254 73t-92 200q0 28 8 80h268q-4 -28 -4 -39q0 -101 92 -101q56 0 94 36t48 104h268l-4 -25q-22 -152 -134 -240t-290 -88zM1278 1112h-705l-28 -229h649l-45 -318h-649l-33 -243h721l-45 -322h-1077l200 1434h1057z" />
    <glyph glyph-name="ebreve" unicode="&#x115;" horiz-adv-x="1189" 
d="M709 1171q-162 0 -254.5 73.5t-92.5 199.5q0 22 9 80h268q-4 -28 -4 -39q0 -101 92 -101q56 0 93.5 36t47.5 104h269l-4 -25q-22 -152 -134 -240t-290 -88zM672 1077q214 0 339.5 -120.5t125.5 -329.5q0 -38 -9.5 -103t-19.5 -100h-711q7 -87 59 -126.5t152 -39.5
q157 0 266 92l158 -205q-166 -174 -454 -174q-239 0 -379 122.5t-140 334.5q0 154 58.5 293t169.5 227q160 129 385 129zM653 793q-113 0 -178 -74q-30 -35 -49 -86h377q2 12 2 24q0 68 -36 102t-116 34z" />
    <glyph glyph-name="Edotaccent" unicode="&#x116;" horiz-adv-x="1310" 
d="M807 1559q-86 0 -137.5 45t-51.5 120q0 101 66.5 166.5t169.5 65.5q86 0 136 -45.5t50 -120.5q0 -101 -65 -166t-168 -65zM1278 1112h-705l-28 -229h649l-45 -318h-649l-33 -243h721l-45 -322h-1077l200 1434h1057z" />
    <glyph glyph-name="edotaccent" unicode="&#x117;" horiz-adv-x="1189" 
d="M709 1174q-86 0 -137.5 45t-51.5 120q0 101 66.5 166.5t169.5 65.5q86 0 136 -45.5t50 -120.5q0 -101 -65 -166t-168 -65zM1137 627q0 -38 -9.5 -103t-19.5 -100h-711q7 -87 59 -126.5t152 -39.5q157 0 266 92l158 -205q-166 -174 -454 -174q-239 0 -379 122.5
t-140 334.5q0 154 58.5 293t169.5 227q160 129 385 129q214 0 339.5 -120.5t125.5 -329.5zM653 793q-113 0 -178 -74q-30 -35 -49 -86h377q2 12 2 24q0 68 -36 102t-116 34z" />
    <glyph glyph-name="Eogonek" unicode="&#x118;" horiz-adv-x="1310" 
d="M1278 1112h-705l-28 -229h649l-45 -318h-649l-33 -243h721l-45 -322q-124 -78 -157 -112q-25 -26 -25 -46q0 -39 86 -39h69l-35 -241h-137q-130 0 -203 46t-73 128q0 72 48 142t134 122h-784l200 1434h1057z" />
    <glyph glyph-name="eogonek" unicode="&#x119;" horiz-adv-x="1189" 
d="M1137 627q0 -38 -9.5 -103t-19.5 -100h-711q7 -87 59 -126.5t152 -39.5q157 0 266 92l158 -205q-53 -56 -133 -100q-124 -78 -157 -112q-25 -26 -25 -46q0 -39 86 -39h69l-34 -241h-138q-130 0 -203 46t-73 128q0 99 90 192q-212 17 -333.5 137.5t-121.5 317.5
q0 154 58.5 293t169.5 227q160 129 385 129q214 0 339.5 -120.5t125.5 -329.5zM653 793q-113 0 -178 -74q-30 -35 -49 -86h377q2 12 2 24q0 68 -36 102t-116 34z" />
    <glyph glyph-name="Ecaron" unicode="&#x11a;" horiz-adv-x="1310" 
d="M975 1573h-340l-250 350h334l104 -158l150 158h350zM66 0l200 1434h1057l-45 -322h-705l-28 -229h649l-45 -318h-649l-33 -243h721l-45 -322h-1077z" />
    <glyph glyph-name="ecaron" unicode="&#x11b;" horiz-adv-x="1189" 
d="M877 1188h-340l-250 350h334l104 -158l149 158h351zM672 1077q214 0 339.5 -120.5t125.5 -329.5q0 -38 -9.5 -103t-19.5 -100h-711q7 -87 59 -126.5t152 -39.5q157 0 266 92l158 -205q-166 -174 -454 -174q-239 0 -379 122.5t-140 334.5q0 154 58.5 293t169.5 227
q160 129 385 129zM653 793q-113 0 -178 -74q-30 -35 -49 -86h377q2 12 2 24q0 68 -36 102t-116 34z" />
    <glyph glyph-name="Gcircumflex" unicode="&#x11c;" horiz-adv-x="1556" 
d="M995 1731l-147 -158h-352l348 350h340l250 -350h-332zM905 842h606l-88 -625q-100 -114 -268 -180t-364 -66q-161 0 -292 47t-218.5 131.5t-135 202.5t-47.5 258q0 181 74.5 356.5t206.5 293.5q108 98 253 150t312 52q197 0 341.5 -72t223.5 -204l-303 -201
q-94 141 -291 141q-181 0 -303 -125q-71 -72 -106 -172.5t-35 -203.5q0 -159 90.5 -242.5t272.5 -83.5q164 0 282 70l27 182h-279z" />
    <glyph glyph-name="gcircumflex" unicode="&#x11d;" horiz-adv-x="1310" 
d="M788 1346l-147 -158h-352l348 350h340l250 -350h-332zM930 1049h336l-131 -928q-37 -266 -204.5 -412.5t-455.5 -146.5q-153 0 -284.5 42.5t-208.5 116.5l165 248q144 -108 316 -108q144 0 231.5 68t106.5 192l10 72q-53 -81 -141.5 -127t-196.5 -46q-181 0 -295.5 122.5
t-114.5 318.5q0 135 53.5 268.5t145.5 218.5q142 129 330 129q109 0 195 -46.5t122 -131.5zM770 377q45 38 71.5 96.5t26.5 120.5q0 83 -48.5 131.5t-139.5 48.5q-108 0 -182 -74q-39 -36 -59.5 -91.5t-20.5 -108.5q0 -83 46.5 -132t135.5 -49q95 0 170 58z" />
    <glyph glyph-name="Gbreve" unicode="&#x11e;" horiz-adv-x="1556" 
d="M967 1556q-162 0 -254 73t-92 200q0 28 8 80h268q-4 -28 -4 -39q0 -101 92 -101q56 0 93.5 36t47.5 104h269l-4 -25q-22 -152 -134 -240t-290 -88zM905 842h606l-88 -625q-100 -114 -268 -180t-364 -66q-161 0 -292 47t-218.5 131.5t-135 202.5t-47.5 258
q0 181 74.5 356.5t206.5 293.5q108 98 253 150t312 52q197 0 341.5 -72t223.5 -204l-303 -201q-94 141 -291 141q-181 0 -303 -125q-71 -72 -106 -172.5t-35 -203.5q0 -159 90.5 -242.5t272.5 -83.5q164 0 282 70l27 182h-279z" />
    <glyph glyph-name="gbreve" unicode="&#x11f;" horiz-adv-x="1310" 
d="M760 1171q-162 0 -254 73t-92 200q0 28 8 80h268q-4 -28 -4 -39q0 -101 92 -101q56 0 94 36t48 104h268l-4 -25q-22 -152 -134 -240t-290 -88zM930 1049h336l-131 -928q-37 -266 -204.5 -412.5t-455.5 -146.5q-153 0 -284.5 42.5t-208.5 116.5l165 248q144 -108 316 -108
q144 0 231.5 68t106.5 192l10 72q-53 -81 -141.5 -127t-196.5 -46q-181 0 -295.5 122.5t-114.5 318.5q0 135 53.5 268.5t145.5 218.5q142 129 330 129q109 0 195 -46.5t122 -131.5zM770 377q45 38 71.5 96.5t26.5 120.5q0 83 -48.5 131.5t-139.5 48.5q-108 0 -182 -74
q-39 -36 -59.5 -91.5t-20.5 -108.5q0 -83 46.5 -132t135.5 -49q95 0 170 58z" />
    <glyph glyph-name="Gdotaccent" unicode="&#x120;" horiz-adv-x="1556" 
d="M967 1559q-86 0 -137.5 45t-51.5 120q0 101 66.5 166.5t169.5 65.5q86 0 136 -45.5t50 -120.5q0 -101 -65 -166t-168 -65zM905 842h606l-88 -625q-100 -114 -268 -180t-364 -66q-161 0 -292 47t-218.5 131.5t-135 202.5t-47.5 258q0 181 74.5 356.5t206.5 293.5
q108 98 253 150t312 52q197 0 341.5 -72t223.5 -204l-303 -201q-94 141 -291 141q-181 0 -303 -125q-71 -72 -106 -172.5t-35 -203.5q0 -159 90.5 -242.5t272.5 -83.5q164 0 282 70l27 182h-279z" />
    <glyph glyph-name="gdotaccent" unicode="&#x121;" horiz-adv-x="1310" 
d="M760 1174q-86 0 -137.5 45t-51.5 120q0 101 66.5 166.5t169.5 65.5q86 0 136 -45.5t50 -120.5q0 -101 -65 -166t-168 -65zM930 1049h336l-131 -928q-37 -266 -204.5 -412.5t-455.5 -146.5q-153 0 -284.5 42.5t-208.5 116.5l165 248q144 -108 316 -108q144 0 231.5 68
t106.5 192l10 72q-53 -81 -141.5 -127t-196.5 -46q-181 0 -295.5 122.5t-114.5 318.5q0 135 53.5 268.5t145.5 218.5q142 129 330 129q109 0 195 -46.5t122 -131.5zM770 377q45 38 71.5 96.5t26.5 120.5q0 83 -48.5 131.5t-139.5 48.5q-108 0 -182 -74q-39 -36 -59.5 -91.5
t-20.5 -108.5q0 -83 46.5 -132t135.5 -49q95 0 170 58z" />
    <glyph glyph-name="uni0122" unicode="&#x122;" horiz-adv-x="1556" 
d="M905 842h606l-88 -625q-100 -114 -268 -180t-364 -66q-161 0 -292 47t-218.5 131.5t-135 202.5t-47.5 258q0 181 74.5 356.5t206.5 293.5q108 98 253 150t312 52q197 0 341.5 -72t223.5 -204l-303 -201q-94 141 -291 141q-181 0 -303 -125q-71 -72 -106 -172.5
t-35 -203.5q0 -159 90.5 -242.5t272.5 -83.5q164 0 282 70l27 182h-279zM442 -551l138 391h340l-211 -391h-267z" />
    <glyph glyph-name="uni0123" unicode="&#x123;" horiz-adv-x="1310" 
d="M1067 1599l-137 -391h-340l211 391h266zM930 1049h336l-131 -928q-37 -266 -204.5 -412.5t-455.5 -146.5q-153 0 -284.5 42.5t-208.5 116.5l165 248q144 -108 316 -108q144 0 231.5 68t106.5 192l10 72q-53 -81 -141.5 -127t-196.5 -46q-181 0 -295.5 122.5t-114.5 318.5
q0 135 53.5 268.5t145.5 218.5q142 129 330 129q109 0 195 -46.5t122 -131.5zM770 377q45 38 71.5 96.5t26.5 120.5q0 83 -48.5 131.5t-139.5 48.5q-108 0 -182 -74q-39 -36 -59.5 -91.5t-20.5 -108.5q0 -83 46.5 -132t135.5 -49q95 0 170 58z" />
    <glyph glyph-name="Hcircumflex" unicode="&#x124;" horiz-adv-x="1544" 
d="M950 1731l-147 -158h-352l348 350h340l250 -350h-332zM1176 1434h356l-201 -1434h-356l80 567h-553l-80 -567h-356l200 1434h357l-76 -537h553z" />
    <glyph glyph-name="hcircumflex" unicode="&#x125;" horiz-adv-x="1241" 
d="M479 1796l-147 -158h-352l348 351h340l250 -351h-332zM854 1077q144 0 225.5 -80.5t81.5 -226.5q0 -38 -6 -78l-98 -692h-344l84 602q4 32 4 47q0 59 -30.5 88t-96.5 29q-87 0 -139 -47.5t-64 -140.5l-82 -578h-344l211 1499h344l-80 -577q55 72 142 113.5t192 41.5z" />
    <glyph glyph-name="Hbar" unicode="&#x126;" horiz-adv-x="1617" 
d="M1694 1290l-35 -246h-146l-145 -1044h-356l80 567h-553l-80 -567h-357l146 1044h-142l35 246h142l20 144h356l-20 -144h553l20 144h357l-21 -144h146zM1137 897l20 147h-553l-20 -147h553z" />
    <glyph glyph-name="hbar" unicode="&#x127;" horiz-adv-x="1241" 
d="M850 1049q144 0 225.5 -80.5t81.5 -227.5q0 -37 -6 -77l-94 -664h-344l80 573q4 32 4 45q0 119 -131 119q-175 0 -199 -188l-78 -549h-344l162 1151h-135l30 221h136l18 127h344l-18 -127h311l-31 -221h-311l-35 -258q55 72 142 114t192 42z" />
    <glyph glyph-name="Itilde" unicode="&#x128;" horiz-adv-x="643" 
d="M643 1571q-77 0 -172 55q-3 2 -15.5 8.5t-16 8.5t-13.5 7t-15.5 6.5t-13.5 3t-16 1.5q-28 0 -42 -20t-20 -66h-247q37 346 272 346q77 0 172 -55q3 -2 15.5 -8.5t16 -8.5t13.5 -7t15.5 -6.5t13.5 -3t16 -1.5q28 0 42 20t20 66h247q-40 -346 -272 -346zM70 0l200 1434h357
l-201 -1434h-356z" />
    <glyph glyph-name="itilde" unicode="&#x129;" horiz-adv-x="585" 
d="M559 1186q-69 0 -164 55q-1 1 -15 8.5t-16.5 9t-14 6.5t-16.5 6.5t-14.5 3t-17.5 1.5q-22 0 -33 -16.5t-18 -69.5h-215q20 180 75.5 263t149.5 83q69 0 164 -55q1 -1 15 -8.5t16.5 -9t14 -6.5t16.5 -6.5t14.5 -3t17.5 -1.5q22 0 33 16.5t18 69.5h213q-21 -180 -76 -263
t-147 -83zM47 0l148 1049h344l-148 -1049h-344z" />
    <glyph glyph-name="Imacron" unicode="&#x12a;" horiz-adv-x="643" 
d="M117 1589l37 266h708l-37 -266h-708zM70 0l200 1434h357l-201 -1434h-356z" />
    <glyph glyph-name="imacron" unicode="&#x12b;" horiz-adv-x="585" 
d="M98 1204l37 266h582l-37 -266h-582zM47 0l148 1049h344l-148 -1049h-344z" />
    <glyph glyph-name="Ibreve" unicode="&#x12c;" horiz-adv-x="643" 
d="M471 1556q-162 0 -254 73t-92 200q0 28 8 80h268q-4 -28 -4 -39q0 -101 92 -101q56 0 94 36t48 104h268l-4 -25q-22 -152 -134 -240t-290 -88zM70 0l200 1434h357l-201 -1434h-356z" />
    <glyph glyph-name="ibreve" unicode="&#x12d;" horiz-adv-x="585" 
d="M389 1171q-140 0 -223.5 73t-83.5 198q0 25 8 82h250q-4 -32 -4 -47q0 -93 78 -93q94 0 114 140h250q-18 -172 -121.5 -262.5t-267.5 -90.5zM47 0l148 1049h344l-148 -1049h-344z" />
    <glyph glyph-name="Iogonek" unicode="&#x12e;" horiz-adv-x="643" 
d="M426 0q-124 -78 -157 -112q-25 -26 -25 -46q0 -39 86 -39h69l-34 -241h-138q-130 0 -203 46t-73 128q0 72 48 142t134 122h-63l200 1434h357z" />
    <glyph glyph-name="iogonek" unicode="&#x12f;" horiz-adv-x="585" 
d="M436 1571q86 0 136.5 -45.5t50.5 -120.5q0 -101 -65.5 -166t-168.5 -65q-86 0 -137 45t-51 120q0 101 66 166.5t169 65.5zM47 0l148 1049h344l-148 -1049q-124 -78 -157 -112q-24 -27 -25 -46q0 -39 86 -39h70l-35 -241h-137q-130 0 -203.5 46t-73.5 128q0 72 48 142
t134 122h-51z" />
    <glyph glyph-name="Idotaccent" unicode="&#x130;" horiz-adv-x="643" 
d="M471 1559q-86 0 -137 45t-51 120q0 101 66 166.5t169 65.5q86 0 136.5 -45.5t50.5 -120.5q0 -101 -65.5 -166t-168.5 -65zM70 0l200 1434h357l-201 -1434h-356z" />
    <glyph glyph-name="dotlessi" unicode="&#x131;" horiz-adv-x="585" 
d="M47 0l148 1049h344l-148 -1049h-344z" />
    <glyph glyph-name="Jcircumflex" unicode="&#x134;" horiz-adv-x="1171" 
d="M1053 1731l-148 -158h-352l348 350h340l250 -350h-332zM700 559l123 875h357l-129 -928q-37 -260 -190 -397.5t-410 -137.5q-157 0 -281.5 55.5t-192.5 147.5l218 254q116 -113 243 -113q102 0 174.5 66t87.5 178z" />
    <glyph glyph-name="jcircumflex" unicode="&#x135;" horiz-adv-x="585" 
d="M410 1348l-109 -160h-303l278 350h320l180 -350h-303zM45 -16l150 1065h344l-160 -1131q-25 -183 -129 -270.5t-313 -87.5q-93 0 -164 16l41 293q55 -8 88 -8q70 0 102 29t41 94z" />
    <glyph glyph-name="uni0136" unicode="&#x136;" horiz-adv-x="1462" 
d="M1569 1434l-633 -619l453 -815h-437l-295 545l-184 -180l-51 -365h-356l200 1434h357l-80 -564l569 564h457zM342 -551l137 391h340l-211 -391h-266z" />
    <glyph glyph-name="uni0137" unicode="&#x137;" horiz-adv-x="1212" 
d="M1311 1049l-512 -459l364 -590h-403l-211 365l-125 -111l-35 -254h-344l211 1497h344l-117 -823l402 375h426zM221 -551l137 391h340l-211 -391h-266z" />
    <glyph glyph-name="Lacute" unicode="&#x139;" horiz-adv-x="1196" 
d="M924 1923l-351 -350h-329l280 350h400zM471 330h653l-47 -330h-1011l200 1434h357z" />
    <glyph glyph-name="lacute" unicode="&#x13a;" horiz-adv-x="581" 
d="M227 1636l281 351h399l-350 -351h-330zM45 0l211 1499h344l-211 -1499h-344z" />
    <glyph glyph-name="uni013B" unicode="&#x13b;" horiz-adv-x="1196" 
d="M471 330h653l-47 -330h-1011l200 1434h357zM221 -551l137 391h340l-211 -391h-266z" />
    <glyph glyph-name="uni013C" unicode="&#x13c;" horiz-adv-x="581" 
d="M45 0l211 1499h344l-211 -1499h-344zM-113 -551l138 391h340l-211 -391h-267z" />
    <glyph glyph-name="Lcaron" unicode="&#x13d;" horiz-adv-x="1196" 
d="M1159 1462l-135 -440h-262l61 440h336zM623 1434l-152 -1104h653l-47 -330h-1011l200 1434h357z" />
    <glyph glyph-name="lcaron" unicode="&#x13e;" horiz-adv-x="806" 
d="M45 0l211 1499h344l-211 -1499h-344zM659 1059l62 440h336l-135 -440h-263z" />
    <glyph glyph-name="Ldot" unicode="&#x13f;" horiz-adv-x="1208" 
d="M471 330h653l-47 -330h-1011l200 1434h357zM877 518q-97 0 -154 53t-57 142q0 108 62 175.5t169 67.5q97 0 154 -52.5t57 -141.5q0 -108 -62 -176t-169 -68z" />
    <glyph glyph-name="ldot" unicode="&#x140;" horiz-adv-x="1015" 
d="M45 0l211 1499h344l-211 -1499h-344zM809 522q-97 0 -154 53t-57 142q0 108 62 176t169 68q97 0 154 -53t57 -142q0 -108 -62 -176t-169 -68z" />
    <glyph glyph-name="Lslash" unicode="&#x141;" horiz-adv-x="1265" 
d="M541 330h653l-47 -330h-1012l66 467l-211 -102l43 307l211 102l92 660h356l-65 -476l446 216l-45 -308l-444 -215z" />
    <glyph glyph-name="lslash" unicode="&#x142;" horiz-adv-x="753" 
d="M827 1139l-41 -291l-206 -105l-105 -743h-344l78 555l-207 -104l41 290l207 105l92 653h344l-65 -465z" />
    <glyph glyph-name="Nacute" unicode="&#x143;" horiz-adv-x="1599" 
d="M1407 1923l-350 -350h-330l281 350h399zM1235 1434h352l-201 -1434h-331l-516 858l-121 -858h-352l200 1434h334l516 -859z" />
    <glyph glyph-name="nacute" unicode="&#x144;" horiz-adv-x="1241" 
d="M1178 1538l-351 -350h-329l280 350h400zM852 1077q146 0 227.5 -80.5t81.5 -228.5q0 -36 -6 -76l-98 -692h-344l84 602q4 32 4 47q0 59 -30.5 88t-96.5 29q-87 0 -139 -47.5t-64 -140.5l-82 -578h-344l148 1049h335l-20 -142q56 79 144.5 124.5t199.5 45.5z" />
    <glyph glyph-name="uni0145" unicode="&#x145;" horiz-adv-x="1599" 
d="M1235 1434h352l-201 -1434h-331l-516 858l-121 -858h-352l200 1434h334l516 -859zM397 -551l138 391h339l-210 -391h-267z" />
    <glyph glyph-name="uni0146" unicode="&#x146;" horiz-adv-x="1241" 
d="M852 1077q146 0 227.5 -80.5t81.5 -228.5q0 -36 -6 -76l-98 -692h-344l84 602q4 32 4 47q0 59 -30.5 88t-96.5 29q-87 0 -139 -47.5t-64 -140.5l-82 -578h-344l148 1049h335l-20 -142q56 79 144.5 124.5t199.5 45.5zM217 -551l137 391h340l-211 -391h-266z" />
    <glyph glyph-name="Ncaron" unicode="&#x147;" horiz-adv-x="1599" 
d="M1118 1573h-340l-250 350h334l105 -158l149 158h350zM1235 1434h352l-201 -1434h-331l-516 858l-121 -858h-352l200 1434h334l516 -859z" />
    <glyph glyph-name="ncaron" unicode="&#x148;" horiz-adv-x="1241" 
d="M889 1188h-340l-250 350h334l104 -158l150 158h350zM852 1077q146 0 227.5 -80.5t81.5 -228.5q0 -36 -6 -76l-98 -692h-344l84 602q4 32 4 47q0 59 -30.5 88t-96.5 29q-87 0 -139 -47.5t-64 -140.5l-82 -578h-344l148 1049h335l-20 -142q56 79 144.5 124.5t199.5 45.5z
" />
    <glyph glyph-name="Eng" unicode="&#x14a;" horiz-adv-x="1599" 
d="M1235 1434h352l-213 -1508q-24 -160 -117.5 -237.5t-271.5 -77.5h-213l43 303h115q99 0 114 100v2l-505 840l-121 -856h-352l200 1434h334l514 -861z" />
    <glyph glyph-name="eng" unicode="&#x14b;" horiz-adv-x="1241" 
d="M838 1077q150 0 235.5 -84t85.5 -233q0 -27 -14 -127l-92 -668q-25 -183 -130 -270.5t-315 -87.5q-93 0 -164 16l41 293q55 -8 90 -8q125 0 136 82l88 622q4 32 4 47q0 56 -28 81.5t-89 25.5q-91 0 -147 -52t-70 -147l-80 -567h-344l148 1049h335l-16 -125
q54 72 138 112.5t188 40.5z" />
    <glyph glyph-name="Omacron" unicode="&#x14c;" horiz-adv-x="1679" 
d="M635 1589l37 266h708l-37 -266h-708zM776 -29q-147 0 -273.5 48t-215.5 132t-139 202t-50 255q0 183 82 360.5t221 295.5q233 198 555 198q196 0 351.5 -83.5t241 -229.5t85.5 -328q0 -185 -81 -361t-222 -296q-111 -93 -253.5 -143t-301.5 -50zM805 307q173 0 301 115
q73 67 113.5 166t40.5 203q0 151 -89 243t-243 92q-177 0 -299 -116q-74 -68 -115 -168.5t-41 -200.5q0 -151 88.5 -242.5t243.5 -91.5z" />
    <glyph glyph-name="omacron" unicode="&#x14d;" horiz-adv-x="1271" 
d="M379 1204l37 266h708l-37 -266h-708zM571 -29q-232 0 -371 133.5t-139 341.5q0 126 52.5 250.5t150.5 216.5q175 164 441 164q232 0 369.5 -132.5t137.5 -340.5q0 -142 -64.5 -279.5t-174.5 -224.5q-164 -129 -402 -129zM598 279q95 0 164 57q50 42 75 106.5t25 132.5
q0 91 -47.5 143t-138.5 52q-112 0 -184 -78q-37 -40 -58.5 -99.5t-21.5 -121.5q0 -90 47.5 -141t138.5 -51z" />
    <glyph glyph-name="Obreve" unicode="&#x14e;" horiz-adv-x="1679" 
d="M989 1556q-162 0 -254 73t-92 200q0 28 8 80h269q-5 -35 -5 -39q0 -101 93 -101q56 0 93.5 36t47.5 104h268l-4 -25q-22 -152 -134 -240t-290 -88zM776 -29q-147 0 -273.5 48t-215.5 132t-139 202t-50 255q0 183 82 360.5t221 295.5q233 198 555 198q196 0 351.5 -83.5
t241 -229.5t85.5 -328q0 -185 -81 -361t-222 -296q-111 -93 -253.5 -143t-301.5 -50zM805 307q173 0 301 115q73 67 113.5 166t40.5 203q0 151 -89 243t-243 92q-177 0 -299 -116q-74 -68 -115 -168.5t-41 -200.5q0 -151 88.5 -242.5t243.5 -91.5z" />
    <glyph glyph-name="obreve" unicode="&#x14f;" horiz-adv-x="1271" 
d="M733 1171q-162 0 -254 73t-92 200q0 28 8 80h269q-5 -35 -5 -39q0 -101 93 -101q56 0 93.5 36t47.5 104h268l-4 -25q-22 -152 -134 -240t-290 -88zM571 -29q-232 0 -371 133.5t-139 341.5q0 126 52.5 250.5t150.5 216.5q175 164 441 164q232 0 369.5 -132.5t137.5 -340.5
q0 -142 -64.5 -279.5t-174.5 -224.5q-164 -129 -402 -129zM598 279q95 0 164 57q50 42 75 106.5t25 132.5q0 91 -47.5 143t-138.5 52q-112 0 -184 -78q-37 -40 -58.5 -99.5t-21.5 -121.5q0 -90 47.5 -141t138.5 -51z" />
    <glyph glyph-name="Ohungarumlaut" unicode="&#x150;" horiz-adv-x="1679" 
d="M537 1573l278 350h340l-287 -350h-331zM1001 1573l279 350h340l-287 -350h-332zM776 -29q-147 0 -273.5 48t-215.5 132t-139 202t-50 255q0 183 82 360.5t221 295.5q233 198 555 198q196 0 351.5 -83.5t241 -229.5t85.5 -328q0 -185 -81 -361t-222 -296
q-111 -93 -253.5 -143t-301.5 -50zM805 307q173 0 301 115q73 67 113.5 166t40.5 203q0 151 -89 243t-243 92q-177 0 -299 -116q-74 -68 -115 -168.5t-41 -200.5q0 -151 88.5 -242.5t243.5 -91.5z" />
    <glyph glyph-name="ohungarumlaut" unicode="&#x151;" horiz-adv-x="1271" 
d="M281 1188l278 350h340l-287 -350h-331zM745 1188l279 350h340l-287 -350h-332zM571 -29q-232 0 -371 133.5t-139 341.5q0 126 52.5 250.5t150.5 216.5q175 164 441 164q232 0 369.5 -132.5t137.5 -340.5q0 -142 -64.5 -279.5t-174.5 -224.5q-164 -129 -402 -129zM598 279
q95 0 164 57q50 42 75 106.5t25 132.5q0 91 -47.5 143t-138.5 52q-112 0 -184 -78q-37 -40 -58.5 -99.5t-21.5 -121.5q0 -90 47.5 -141t138.5 -51z" />
    <glyph glyph-name="OE" unicode="&#x152;" horiz-adv-x="2207" 
d="M2175 1112h-705l-28 -229h649l-45 -318h-649l-33 -243h721l-45 -322h-1266q-308 0 -492 167t-184 447q0 173 67.5 334t190.5 275q238 211 592 211h1272zM801 330h209l106 774h-196q-192 0 -314 -125q-65 -65 -101 -162t-36 -190q0 -141 87.5 -219t244.5 -78z" />
    <glyph glyph-name="oe" unicode="&#x153;" horiz-adv-x="1986" 
d="M1933 635q0 -45 -8 -109t-20 -102h-713q21 -166 219 -166q149 0 258 92l158 -205q-57 -72 -178 -123t-281 -51q-279 0 -393 168q-25 -29 -66 -61q-138 -107 -342 -107q-232 0 -369 133t-137 340q0 143 63 276t173 222q170 135 410 135q254 0 368 -166l25 25
q144 141 375 141q213 0 335.5 -116.5t122.5 -325.5zM1440 793q-114 0 -176 -74q-31 -39 -45 -86h378q2 10 2 20q0 140 -159 140zM766 338q48 42 72 107.5t24 132.5q0 89 -47.5 140.5t-136.5 51.5q-101 0 -168 -61q-49 -42 -73.5 -105t-24.5 -129q0 -92 49.5 -144t140.5 -52
q95 0 164 59z" />
    <glyph glyph-name="Racute" unicode="&#x154;" horiz-adv-x="1402" 
d="M1282 1923l-350 -350h-330l281 350h399zM1194 600q-94 -72 -233 -96l319 -504h-416l-282 485h-95l-67 -485h-354l200 1434h619q242 0 368.5 -102.5t126.5 -291.5q0 -133 -47 -252t-139 -188zM1006 989q0 64 -44 92.5t-137 28.5h-247l-46 -317h248q119 0 172 47
q54 51 54 149z" />
    <glyph glyph-name="racute" unicode="&#x155;" horiz-adv-x="878" 
d="M1010 1538l-351 -350h-329l280 350h400zM506 889q53 85 137.5 132.5t183.5 47.5q45 0 86 -12l-47 -332q-76 12 -149 12q-119 0 -179 -55.5t-79 -187.5l-70 -494h-344l148 1049h335z" />
    <glyph glyph-name="uni0156" unicode="&#x156;" horiz-adv-x="1402" 
d="M1194 600q-94 -72 -233 -96l319 -504h-416l-282 485h-95l-67 -485h-354l200 1434h619q242 0 368.5 -102.5t126.5 -291.5q0 -133 -47 -252t-139 -188zM1006 989q0 64 -44 92.5t-137 28.5h-247l-46 -317h248q119 0 172 47q54 51 54 149zM303 -551l137 391h340l-211 -391
h-266z" />
    <glyph glyph-name="uni0157" unicode="&#x157;" horiz-adv-x="878" 
d="M827 1069q45 0 86 -12l-47 -332q-76 12 -149 12q-119 0 -179 -55.5t-79 -187.5l-70 -494h-344l148 1049h335l-22 -160q53 85 137.5 132.5t183.5 47.5zM-113 -551l138 391h340l-211 -391h-267z" />
    <glyph glyph-name="Rcaron" unicode="&#x158;" horiz-adv-x="1402" 
d="M993 1573h-340l-250 350h334l105 -158l149 158h350zM1194 600q-94 -72 -233 -96l319 -504h-416l-282 485h-95l-67 -485h-354l200 1434h619q242 0 368.5 -102.5t126.5 -291.5q0 -133 -47 -252t-139 -188zM1006 989q0 64 -44 92.5t-137 28.5h-247l-46 -317h248
q119 0 172 47q54 51 54 149z" />
    <glyph glyph-name="rcaron" unicode="&#x159;" horiz-adv-x="878" 
d="M721 1188h-340l-250 350h334l104 -158l150 158h350zM506 889q53 85 137.5 132.5t183.5 47.5q45 0 86 -12l-47 -332q-76 12 -149 12q-119 0 -179 -55.5t-79 -187.5l-70 -494h-344l148 1049h335z" />
    <glyph glyph-name="Sacute" unicode="&#x15a;" horiz-adv-x="1308" 
d="M580 1573l280 350h400l-351 -350h-329zM621 -29q-220 0 -379.5 83.5t-229.5 230.5l258 192q58 -89 154.5 -137.5t222.5 -48.5q110 0 174 39q28 20 45 49t17 55q0 39 -36 67.5t-122 49.5l-225 55q-171 42 -262 139t-91 232q0 117 55.5 218.5t153.5 164.5q155 102 402 102
q195 0 339 -68t216 -194l-269 -199q-102 144 -307 144q-115 0 -176 -41q-47 -32 -47 -80q0 -38 37 -65.5t131 -51.5l231 -57q165 -41 249.5 -134.5t84.5 -226.5q0 -128 -58 -237t-163 -176q-158 -105 -405 -105z" />
    <glyph glyph-name="sacute" unicode="&#x15b;" horiz-adv-x="1064" 
d="M408 1188l280 350h399l-350 -350h-329zM479 -29q-151 0 -280 44.5t-199 123.5l172 236q60 -54 149.5 -88.5t180.5 -34.5q66 0 98 18q31 17 31 45q0 46 -88 66l-172 43q-262 66 -262 262q0 82 37.5 160t101.5 129q127 102 350 102q138 0 256.5 -41.5t183.5 -109.5
l-174 -234q-148 103 -289 103q-69 0 -98 -23q-20 -17 -20 -39q0 -37 86 -57l172 -43q270 -67 270 -264q0 -87 -39.5 -167.5t-107.5 -131.5q-135 -99 -359 -99z" />
    <glyph glyph-name="Scircumflex" unicode="&#x15c;" horiz-adv-x="1308" 
d="M831 1731l-147 -158h-352l348 350h340l250 -350h-332zM913 850q165 -41 249.5 -134.5t84.5 -226.5q0 -128 -58 -237t-163 -176q-158 -105 -405 -105q-220 0 -379.5 83.5t-229.5 230.5l258 192q58 -89 154.5 -137.5t222.5 -48.5q110 0 174 39q28 20 45 49t17 55
q0 39 -36 67.5t-122 49.5l-225 55q-171 42 -262 139t-91 232q0 117 55.5 218.5t153.5 164.5q155 102 402 102q195 0 339 -68t216 -194l-269 -199q-102 144 -307 144q-115 0 -176 -41q-47 -32 -47 -80q0 -38 37 -65.5t131 -51.5z" />
    <glyph glyph-name="scircumflex" unicode="&#x15d;" horiz-adv-x="1064" 
d="M659 1346l-147 -158h-352l348 350h340l250 -350h-332zM477 772q-20 -17 -20 -39q0 -37 86 -57l172 -43q270 -67 270 -264q0 -87 -39.5 -167.5t-107.5 -131.5q-135 -99 -359 -99q-151 0 -280 44.5t-199 123.5l172 236q60 -54 149.5 -88.5t180.5 -34.5q66 0 98 18
q31 17 31 45q0 46 -88 66l-172 43q-262 66 -262 262q0 82 37.5 160t101.5 129q127 102 350 102q138 0 256.5 -41.5t183.5 -109.5l-174 -234q-148 103 -289 103q-69 0 -98 -23z" />
    <glyph glyph-name="Scedilla" unicode="&#x15e;" horiz-adv-x="1308" 
d="M913 850q165 -41 249.5 -134.5t84.5 -226.5q0 -128 -58 -237t-163 -176q-117 -76 -276 -96l-158 -392h-350l213 398q-158 26 -272.5 104t-170.5 195l258 192q58 -89 154.5 -137.5t222.5 -48.5q110 0 174 39q28 20 45 49t17 55q0 39 -36 67.5t-122 49.5l-225 55
q-171 42 -262 139t-91 232q0 117 55.5 218.5t153.5 164.5q155 102 402 102q195 0 339 -68t216 -194l-269 -199q-102 144 -307 144q-115 0 -176 -41q-47 -32 -47 -80q0 -38 37 -65.5t131 -51.5z" />
    <glyph glyph-name="scedilla" unicode="&#x15f;" horiz-adv-x="1064" 
d="M715 633q270 -67 270 -264q0 -87 -39.5 -167.5t-107.5 -131.5q-92 -67 -228 -88l-157 -394h-351l213 398q-214 40 -315 153l172 236q60 -54 149.5 -88.5t180.5 -34.5q66 0 98 18q31 17 31 45q0 46 -88 66l-172 43q-262 66 -262 262q0 82 37.5 160t101.5 129
q127 102 350 102q138 0 256.5 -41.5t183.5 -109.5l-174 -234q-148 103 -289 103q-69 0 -98 -23q-20 -17 -20 -39q0 -37 86 -57z" />
    <glyph glyph-name="Scaron" unicode="&#x160;" horiz-adv-x="1308" 
d="M971 1573h-340l-250 350h334l104 -158l150 158h350zM561 1104q-47 -32 -47 -80q0 -38 37 -65.5t131 -51.5l231 -57q165 -41 249.5 -134.5t84.5 -226.5q0 -128 -58 -237t-163 -176q-158 -105 -405 -105q-220 0 -379.5 83.5t-229.5 230.5l258 192q58 -89 154.5 -137.5
t222.5 -48.5q110 0 174 39q28 20 45 49t17 55q0 39 -36 67.5t-122 49.5l-225 55q-171 42 -262 139t-91 232q0 117 55.5 218.5t153.5 164.5q155 102 402 102q195 0 339 -68t216 -194l-269 -199q-102 144 -307 144q-115 0 -176 -41z" />
    <glyph glyph-name="scaron" unicode="&#x161;" horiz-adv-x="1064" 
d="M799 1188h-340l-250 350h334l104 -158l150 158h350zM477 772q-20 -17 -20 -39q0 -37 86 -57l172 -43q270 -67 270 -264q0 -87 -39.5 -167.5t-107.5 -131.5q-135 -99 -359 -99q-151 0 -280 44.5t-199 123.5l172 236q60 -54 149.5 -88.5t180.5 -34.5q66 0 98 18
q31 17 31 45q0 46 -88 66l-172 43q-262 66 -262 262q0 82 37.5 160t101.5 129q127 102 350 102q138 0 256.5 -41.5t183.5 -109.5l-174 -234q-148 103 -289 103q-69 0 -98 -23z" />
    <glyph glyph-name="uni0162" unicode="&#x162;" horiz-adv-x="1241" 
d="M369 0l155 1104h-405l45 330h1167l-45 -330h-405l-156 -1104h-356zM207 -551l137 391h340l-211 -391h-266z" />
    <glyph glyph-name="uni0163" unicode="&#x163;" horiz-adv-x="892" 
d="M592 745l-47 -344q-9 -62 16 -85t98 -23q68 0 134 14l-41 -293q-103 -28 -224 -28q-207 0 -286.5 83t-51.5 273l58 403h-180l43 304h180l43 307h344l-43 -307h258l-43 -304h-258zM123 -551l137 391h340l-211 -391h-266z" />
    <glyph glyph-name="Tcaron" unicode="&#x164;" horiz-adv-x="1241" 
d="M938 1573h-340l-250 350h334l104 -158l150 158h350zM164 1434h1167l-45 -330h-405l-156 -1104h-356l155 1104h-405z" />
    <glyph glyph-name="tcaron" unicode="&#x165;" horiz-adv-x="903" 
d="M815 1589h336l-135 -440h-262zM678 1356l-43 -307h258l-43 -304h-258l-47 -344q-9 -62 16 -85t98 -23q68 0 134 14l-41 -293q-103 -28 -224 -28q-207 0 -286.5 83t-51.5 273l58 403h-180l43 304h180l43 307h344z" />
    <glyph glyph-name="Tbar" unicode="&#x166;" horiz-adv-x="1241" 
d="M1286 1104h-405l-33 -234h223l-41 -282h-223l-82 -588h-356l82 588h-224l41 282h224l32 234h-405l45 330h1167z" />
    <glyph glyph-name="tbar" unicode="&#x167;" horiz-adv-x="892" 
d="M850 745h-258l-14 -106h221l-29 -205h-221l-4 -33q-9 -62 16 -85t98 -23q68 0 134 14l-41 -293q-103 -28 -224 -28q-207 0 -286.5 83t-51.5 273l13 92h-158l29 205h159l15 106h-180l43 304h180l43 307h344l-43 -307h258z" />
    <glyph glyph-name="Utilde" unicode="&#x168;" horiz-adv-x="1478" 
d="M1061 1571q-77 0 -172 55q-3 2 -15.5 8.5t-16 8.5t-13.5 7t-15.5 6.5t-13.5 3t-16 1.5q-28 0 -42 -20t-20 -66h-248q37 346 273 346q77 0 172 -55q3 -2 15.5 -8.5t16 -8.5t13.5 -7t15.5 -6.5t13.5 -3t16 -1.5q27 0 41 20t20 66h248q-40 -346 -272 -346zM670 -29
q-250 0 -402.5 123t-152.5 346q0 45 6 95l125 899h358l-121 -873q-4 -23 -4 -61q0 -191 223 -191q125 0 206.5 65.5t99.5 186.5l120 873h359l-125 -899q-38 -269 -224 -416.5t-468 -147.5z" />
    <glyph glyph-name="utilde" unicode="&#x169;" horiz-adv-x="1224" 
d="M616 1276q-27 0 -41 -20t-20 -66h-248q37 346 273 346q77 0 172 -55q3 -2 15.5 -8.5t16 -8.5t13.5 -7t15.5 -6.5t13.5 -3t16 -1.5q27 0 41 20t20 66h248q-40 -346 -272 -346q-77 0 -172 55q-64 35 -91 35zM836 1049h344l-148 -1049h-336l21 143q-56 -79 -147 -125.5
t-201 -46.5q-138 0 -213.5 77.5t-75.5 219.5q0 42 6 88l98 693h344l-84 -603q-4 -40 -4 -55q0 -56 25.5 -82t85.5 -26q84 0 137 47.5t66 140.5z" />
    <glyph glyph-name="Umacron" unicode="&#x16a;" horiz-adv-x="1478" 
d="M535 1589l36 266h709l-37 -266h-708zM670 -29q-250 0 -402.5 123t-152.5 346q0 45 6 95l125 899h358l-121 -873q-4 -23 -4 -61q0 -191 223 -191q125 0 206.5 65.5t99.5 186.5l120 873h359l-125 -899q-38 -269 -224 -416.5t-468 -147.5z" />
    <glyph glyph-name="umacron" unicode="&#x16b;" horiz-adv-x="1224" 
d="M1098 1470l-37 -266h-709l37 266h709zM836 1049h344l-148 -1049h-336l21 143q-56 -79 -147 -125.5t-201 -46.5q-138 0 -213.5 77.5t-75.5 219.5q0 42 6 88l98 693h344l-84 -603q-4 -40 -4 -55q0 -56 25.5 -82t85.5 -26q84 0 137 47.5t66 140.5z" />
    <glyph glyph-name="Ubreve" unicode="&#x16c;" horiz-adv-x="1478" 
d="M889 1556q-162 0 -254 73t-92 200q0 28 8 80h268q-4 -28 -4 -39q0 -101 92 -101q56 0 94 36t48 104h268l-4 -25q-22 -152 -134 -240t-290 -88zM670 -29q-250 0 -402.5 123t-152.5 346q0 45 6 95l125 899h358l-121 -873q-4 -23 -4 -61q0 -191 223 -191q125 0 206.5 65.5
t99.5 186.5l120 873h359l-125 -899q-38 -269 -224 -416.5t-468 -147.5z" />
    <glyph glyph-name="ubreve" unicode="&#x16d;" horiz-adv-x="1224" 
d="M707 1171q-162 0 -254.5 73.5t-92.5 199.5q0 22 9 80h268q-4 -28 -4 -39q0 -101 92 -101q56 0 93.5 36t47.5 104h269l-5 -25q-22 -152 -133.5 -240t-289.5 -88zM836 1049h344l-148 -1049h-336l21 143q-56 -79 -147 -125.5t-201 -46.5q-138 0 -213.5 77.5t-75.5 219.5
q0 42 6 88l98 693h344l-84 -603q-4 -40 -4 -55q0 -56 25.5 -82t85.5 -26q84 0 137 47.5t66 140.5z" />
    <glyph glyph-name="Uring" unicode="&#x16e;" horiz-adv-x="1478" 
d="M889 1544q-122 0 -202.5 73t-80.5 181q0 135 103.5 231.5t248.5 96.5q123 0 202 -73.5t79 -182.5q0 -135 -104.5 -230.5t-245.5 -95.5zM907 1733q56 0 88.5 35.5t32.5 84.5q0 39 -23.5 61.5t-66.5 22.5q-56 0 -87.5 -35.5t-31.5 -89.5q0 -37 23 -58t65 -21zM670 -29
q-250 0 -402.5 123t-152.5 346q0 45 6 95l125 899h358l-121 -873q-4 -23 -4 -61q0 -191 223 -191q125 0 206.5 65.5t99.5 186.5l120 873h359l-125 -899q-38 -269 -224 -416.5t-468 -147.5z" />
    <glyph glyph-name="uring" unicode="&#x16f;" horiz-adv-x="1224" 
d="M707 1159q-122 0 -202.5 73t-80.5 181q0 135 103.5 231.5t248.5 96.5q123 0 202 -73.5t79 -182.5q0 -135 -104.5 -230.5t-245.5 -95.5zM756 1552q-56 0 -87.5 -35.5t-31.5 -89.5q0 -37 23 -58t65 -21q56 0 88.5 35.5t32.5 84.5q0 39 -23.5 61.5t-66.5 22.5zM836 1049h344
l-148 -1049h-336l21 143q-56 -79 -147 -125.5t-201 -46.5q-138 0 -213.5 77.5t-75.5 219.5q0 42 6 88l98 693h344l-84 -603q-4 -40 -4 -55q0 -56 25.5 -82t85.5 -26q84 0 137 47.5t66 140.5z" />
    <glyph glyph-name="Uhungarumlaut" unicode="&#x170;" horiz-adv-x="1478" 
d="M436 1573l279 350h340l-287 -350h-332zM901 1573l279 350h340l-287 -350h-332zM670 -29q-250 0 -402.5 123t-152.5 346q0 45 6 95l125 899h358l-121 -873q-4 -23 -4 -61q0 -191 223 -191q125 0 206.5 65.5t99.5 186.5l120 873h359l-125 -899q-38 -269 -224 -416.5
t-468 -147.5z" />
    <glyph glyph-name="uhungarumlaut" unicode="&#x171;" horiz-adv-x="1224" 
d="M872 1538l-286 -350h-332l278 350h340zM1051 1188h-332l278 350h340zM754 471l82 578h344l-148 -1049h-336l21 143q-56 -79 -147 -125.5t-201 -46.5q-138 0 -213.5 77.5t-75.5 219.5q0 42 6 88l98 693h344l-84 -603q-4 -40 -4 -55q0 -56 25.5 -82t85.5 -26q84 0 137 47.5
t66 140.5z" />
    <glyph glyph-name="Uogonek" unicode="&#x172;" horiz-adv-x="1478" 
d="M1128 1434h359l-125 -899q-29 -203 -144.5 -338.5t-297.5 -190.5q-123 -77 -155 -110q-28 -27 -28 -48q0 -38 86 -38h70l-35 -242h-137q-130 0 -203.5 46t-73.5 128q0 124 138 233q-213 22 -340 142.5t-127 322.5q0 45 6 95l125 899h358l-121 -873q-4 -23 -4 -61
q0 -191 223 -191q125 0 206.5 65.5t99.5 186.5z" />
    <glyph glyph-name="uogonek" unicode="&#x173;" horiz-adv-x="1224" 
d="M1032 0q-124 -78 -157 -112q-25 -26 -25 -46q0 -39 86 -39h70l-35 -241h-137q-130 0 -203.5 46t-73.5 128q0 72 48 142t134 122h-43l21 143q-56 -79 -147 -125.5t-201 -46.5q-138 0 -213.5 77.5t-75.5 219.5q0 42 6 88l98 693h344l-84 -603q-4 -40 -4 -55q0 -56 25.5 -82
t85.5 -26q84 0 137 47.5t66 140.5l82 578h344z" />
    <glyph glyph-name="Wcircumflex" unicode="&#x174;" horiz-adv-x="2191" 
d="M1274 1731l-148 -158h-352l348 350h340l250 -350h-332zM1898 1434h392l-617 -1434h-391l-135 887l-385 -887h-391l-215 1434h372l121 -934l395 934h340l136 -930z" />
    <glyph glyph-name="wcircumflex" unicode="&#x175;" horiz-adv-x="1781" 
d="M1016 1346l-148 -158h-352l348 350h340l250 -350h-332zM1479 1049h356l-459 -1049h-383l-92 600l-260 -600h-383l-164 1049h348l78 -643l283 643h315l103 -643z" />
    <glyph glyph-name="Ycircumflex" unicode="&#x176;" horiz-adv-x="1363" 
d="M856 1731l-147 -158h-353l349 350h339l250 -350h-331zM1085 1434h422l-641 -881l-82 -553h-360l82 553l-395 881h393l215 -539z" />
    <glyph glyph-name="ycircumflex" unicode="&#x177;" horiz-adv-x="1161" 
d="M707 1346l-148 -158h-352l348 350h340l250 -350h-332zM850 1049h373l-742 -1457h-334l197 426l-258 1031h365l118 -635z" />
    <glyph glyph-name="Ydieresis" unicode="&#x178;" horiz-adv-x="1363" 
d="M571 1559q-83 0 -132.5 45.5t-49.5 121.5q0 98 65.5 164t163.5 66q83 0 132 -45.5t49 -120.5q0 -100 -65 -165.5t-163 -65.5zM1083 1559q-83 0 -132.5 45.5t-49.5 121.5q0 98 65.5 164t163.5 66q83 0 132 -45.5t49 -120.5q0 -100 -65 -165.5t-163 -65.5zM1085 1434h422
l-641 -881l-82 -553h-360l82 553l-395 881h393l215 -539z" />
    <glyph glyph-name="Zacute" unicode="&#x179;" horiz-adv-x="1253" 
d="M1233 1923l-350 -350h-330l281 350h399zM1294 1434l-37 -267l-741 -848h631l-45 -319h-1098l37 266l741 848h-610l45 320h1077z" />
    <glyph glyph-name="zacute" unicode="&#x17a;" horiz-adv-x="1028" 
d="M1067 1538l-350 -350h-330l281 350h399zM115 758l41 291h872l-31 -226l-518 -532h447l-41 -291h-893l31 225l518 533h-426z" />
    <glyph glyph-name="Zdotaccent" unicode="&#x17b;" horiz-adv-x="1253" 
d="M776 1559q-86 0 -137 45t-51 120q0 101 66 166.5t169 65.5q86 0 136.5 -45.5t50.5 -120.5q0 -101 -65.5 -166t-168.5 -65zM1294 1434l-37 -267l-741 -848h631l-45 -319h-1098l37 266l741 848h-610l45 320h1077z" />
    <glyph glyph-name="zdotaccent" unicode="&#x17c;" horiz-adv-x="1028" 
d="M610 1174q-86 0 -137 45t-51 120q0 101 66 166.5t169 65.5q86 0 136.5 -45.5t50.5 -120.5q0 -101 -65.5 -166t-168.5 -65zM1028 1049l-31 -226l-518 -532h447l-41 -291h-893l31 225l518 533h-426l41 291h872z" />
    <glyph glyph-name="Zcaron" unicode="&#x17d;" horiz-adv-x="1253" 
d="M944 1573h-340l-250 350h334l105 -158l149 158h350zM1294 1434l-37 -267l-741 -848h631l-45 -319h-1098l37 266l741 848h-610l45 320h1077z" />
    <glyph glyph-name="zcaron" unicode="&#x17e;" horiz-adv-x="1028" 
d="M778 1188h-340l-250 350h334l105 -158l149 158h350zM115 758l41 291h872l-31 -226l-518 -532h447l-41 -291h-893l31 225l518 533h-426z" />
    <glyph glyph-name="florin" unicode="&#x192;" horiz-adv-x="1009" 
d="M958 1122q-69 0 -102 -20.5t-51 -77.5l-43 -131h233l-26 -188h-269l-227 -689q-53 -158 -147.5 -229.5t-257.5 -71.5h-174l43 312h73q69 0 101.5 20t52.5 78l192 580h-211l27 188h246l80 240q53 159 147 230t256 71h174l-43 -312h-74z" />
    <glyph glyph-name="uni01CD" unicode="&#x1cd;" horiz-adv-x="1519" 
d="M1077 1573h-340l-250 350h334l105 -158l149 158h350zM1067 0l-57 279h-549l-135 -279h-387l741 1434h414l340 -1434h-367zM606 578h340l-100 489z" />
    <glyph glyph-name="uni01CE" unicode="&#x1ce;" horiz-adv-x="1308" 
d="M956 1188h-340l-249 350h333l105 -158l149 158h351zM907 893l21 156h336l-148 -1049h-336l17 125q-56 -75 -142.5 -114.5t-185.5 -39.5q-184 0 -296 128.5t-112 338.5q0 149 56.5 289t158.5 229q137 121 316 121q111 0 195.5 -48.5t119.5 -135.5zM791 367q33 39 52 99.5
t19 117.5q0 87 -49.5 136.5t-136.5 49.5q-101 0 -172 -65q-44 -42 -68 -109t-24 -129q0 -88 48.5 -138t137.5 -50q118 0 193 88z" />
    <glyph glyph-name="uni01E2" unicode="&#x1e2;" horiz-adv-x="2248" 
d="M2003 1855l-37 -266h-709l37 266h709zM2216 1106h-705l-28 -217h653l-45 -328h-655l-31 -233h723l-47 -328h-1077l36 266h-485l-190 -266h-439l1067 1434h1268zM768 561h313l76 543z" />
    <glyph glyph-name="uni01E3" unicode="&#x1e3;" horiz-adv-x="1839" 
d="M1425 1470l-36 -266h-709l37 266h708zM1339 1077q206 0 326.5 -120.5t120.5 -325.5q0 -33 -8 -103q-6 -54 -21 -100h-704q17 -170 219 -170q149 0 258 92l158 -205q-75 -83 -195 -128.5t-266 -45.5q-276 0 -393 168q-136 -168 -426 -168q-185 0 -287.5 80t-102.5 211
q0 87 37 162.5t105 122.5q122 84 352 84h221l2 12q2 12 2 35q0 60 -34.5 84t-100.5 24q-144 0 -266 -104l-168 207q90 88 217.5 138t276.5 50q234 0 321 -143q137 143 356 143zM1303 786q-107 0 -166 -59q-36 -36 -58 -94h381q0 80 -37 116.5t-120 36.5zM481 223
q92 0 152 47.5t72 130.5l4 27h-179q-108 0 -145 -43q-25 -32 -25 -78q0 -84 121 -84z" />
    <glyph glyph-name="Gcaron" unicode="&#x1e6;" horiz-adv-x="1556" 
d="M1135 1573h-340l-250 350h334l104 -158l150 158h350zM905 842h606l-88 -625q-100 -114 -268 -180t-364 -66q-161 0 -292 47t-218.5 131.5t-135 202.5t-47.5 258q0 181 74.5 356.5t206.5 293.5q108 98 253 150t312 52q197 0 341.5 -72t223.5 -204l-303 -201
q-94 141 -291 141q-181 0 -303 -125q-71 -72 -106 -172.5t-35 -203.5q0 -159 90.5 -242.5t272.5 -83.5q164 0 282 70l27 182h-279z" />
    <glyph glyph-name="gcaron" unicode="&#x1e7;" horiz-adv-x="1310" 
d="M928 1188h-340l-250 350h334l104 -158l150 158h350zM909 899l21 150h336l-131 -928q-37 -266 -204.5 -412.5t-455.5 -146.5q-153 0 -284.5 42.5t-208.5 116.5l165 248q144 -108 316 -108q144 0 231.5 68t106.5 192l10 72q-53 -81 -141.5 -127t-196.5 -46
q-181 0 -295.5 122.5t-114.5 318.5q0 135 53.5 268.5t145.5 218.5q142 129 330 129q109 0 195 -46.5t122 -131.5zM770 377q45 38 71.5 96.5t26.5 120.5q0 83 -48.5 131.5t-139.5 48.5q-108 0 -182 -74q-39 -36 -59.5 -91.5t-20.5 -108.5q0 -83 46.5 -132t135.5 -49
q95 0 170 58z" />
    <glyph glyph-name="uni01E8" unicode="&#x1e8;" horiz-adv-x="1462" 
d="M1071 1573h-340l-250 350h334l105 -158l149 158h350zM1569 1434l-633 -619l453 -815h-437l-295 545l-184 -180l-51 -365h-356l200 1434h357l-80 -564l569 564h457z" />
    <glyph glyph-name="uni01E9" unicode="&#x1e9;" horiz-adv-x="1212" 
d="M618 1638h-339l-250 351h333l105 -158l149 158h351zM1311 1049l-512 -459l364 -590h-403l-211 365l-125 -111l-35 -254h-344l211 1497h344l-117 -823l402 375h426z" />
    <glyph glyph-name="AEacute" unicode="&#x1fc;" horiz-adv-x="2248" 
d="M2068 1923l-350 -350h-329l280 350h399zM2216 1106h-705l-28 -217h653l-45 -328h-655l-31 -233h723l-47 -328h-1077l36 266h-485l-190 -266h-439l1067 1434h1268zM768 561h313l76 543z" />
    <glyph glyph-name="aeacute" unicode="&#x1fd;" horiz-adv-x="1839" 
d="M1491 1538l-350 -350h-330l281 350h399zM1339 1077q206 0 326.5 -120.5t120.5 -325.5q0 -33 -8 -103q-6 -54 -21 -100h-704q17 -170 219 -170q149 0 258 92l158 -205q-75 -83 -195 -128.5t-266 -45.5q-276 0 -393 168q-136 -168 -426 -168q-185 0 -287.5 80t-102.5 211
q0 87 37 162.5t105 122.5q122 84 352 84h221l2 12q2 12 2 35q0 60 -34.5 84t-100.5 24q-144 0 -266 -104l-168 207q90 88 217.5 138t276.5 50q234 0 321 -143q137 143 356 143zM1303 786q-107 0 -166 -59q-36 -36 -58 -94h381q0 80 -37 116.5t-120 36.5zM481 223
q92 0 152 47.5t72 130.5l4 27h-179q-108 0 -145 -43q-25 -32 -25 -78q0 -84 121 -84z" />
    <glyph glyph-name="Oslashacute" unicode="&#x1fe;" horiz-adv-x="1679" 
d="M1311 1923l-350 -350h-330l280 350h400zM1702 1288l-156 -137q88 -145 88 -330t-81 -361t-222 -296q-111 -93 -253.5 -143t-301.5 -50q-250 0 -428 129l-158 -137l-155 182l151 134q-88 145 -88 329q0 183 82 360.5t221 295.5q233 198 555 198q248 0 430 -133l160 141z
M629 1010q-74 -68 -115 -168.5t-41 -200.5q0 -60 14 -106l623 546q-76 45 -182 45q-177 0 -299 -116zM1106 422q73 67 113.5 166t40.5 203q0 50 -13 104l-622 -545q73 -43 180 -43q173 0 301 115z" />
    <glyph glyph-name="oslashacute" unicode="&#x1ff;" horiz-adv-x="1277" 
d="M1112 1538l-350 -350h-330l281 350h399zM1292 963l-135 -121q57 -108 57 -238q0 -142 -64.5 -279.5t-174.5 -224.5q-164 -129 -402 -129q-183 0 -311 86l-139 -125l-137 154l137 123q-60 105 -60 237q0 126 52.5 250.5t150.5 216.5q175 164 441 164q179 0 309 -84
l139 123zM481 707q-39 -42 -62.5 -107.5t-23.5 -132.5q0 -29 2 -43l389 344q-48 23 -104 23q-123 0 -201 -84zM774 319q54 47 81.5 118t27.5 143q0 31 -2 45l-389 -344q48 -23 104 -23q101 0 178 61z" />
    <glyph glyph-name="uni0218" unicode="&#x218;" horiz-adv-x="1308" 
d="M621 -29q-220 0 -379.5 83.5t-229.5 230.5l258 192q58 -89 154.5 -137.5t222.5 -48.5q110 0 174 39q28 20 45 49t17 55q0 39 -36 67.5t-122 49.5l-225 55q-171 42 -262 139t-91 232q0 117 55.5 218.5t153.5 164.5q155 102 402 102q195 0 339 -68t216 -194l-269 -199
q-102 144 -307 144q-115 0 -176 -41q-47 -32 -47 -80q0 -38 37 -65.5t131 -51.5l231 -57q165 -41 249.5 -134.5t84.5 -226.5q0 -128 -58 -237t-163 -176q-158 -105 -405 -105zM268 -551l138 391h339l-210 -391h-267z" />
    <glyph glyph-name="uni0219" unicode="&#x219;" horiz-adv-x="1064" 
d="M479 -29q-151 0 -280 44.5t-199 123.5l172 236q60 -54 149.5 -88.5t180.5 -34.5q66 0 98 18q31 17 31 45q0 46 -88 66l-172 43q-262 66 -262 262q0 82 37.5 160t101.5 129q127 102 350 102q138 0 256.5 -41.5t183.5 -109.5l-174 -234q-148 103 -289 103q-69 0 -98 -23
q-20 -17 -20 -39q0 -37 86 -57l172 -43q270 -67 270 -264q0 -87 -39.5 -167.5t-107.5 -131.5q-135 -99 -359 -99zM129 -551l137 391h340l-211 -391h-266z" />
    <glyph glyph-name="uni021A" unicode="&#x21a;" horiz-adv-x="1241" 
d="M369 0l155 1104h-405l45 330h1167l-45 -330h-405l-156 -1104h-356zM207 -551l137 391h340l-211 -391h-266z" />
    <glyph glyph-name="uni021B" unicode="&#x21b;" horiz-adv-x="892" 
d="M592 745l-47 -344q-9 -62 16 -85t98 -23q68 0 134 14l-41 -293q-103 -28 -224 -28q-207 0 -286.5 83t-51.5 273l58 403h-180l43 304h180l43 307h344l-43 -307h258l-43 -304h-258zM123 -551l137 391h340l-211 -391h-266z" />
    <glyph glyph-name="uni0237" unicode="&#x237;" horiz-adv-x="585" 
d="M-63 -440q-93 0 -164 16l41 293q55 -8 88 -8q70 0 102 29t41 94l150 1065h344l-160 -1131q-25 -183 -129 -270.5t-313 -87.5z" />
    <glyph glyph-name="circumflex" unicode="&#x2c6;" horiz-adv-x="1269" 
d="M1198 1188h-332l-106 158l-148 -158h-352l348 350h340z" />
    <glyph glyph-name="caron" unicode="&#x2c7;" horiz-adv-x="1269" 
d="M897 1538h350l-348 -350h-340l-250 350h334l105 -158z" />
    <glyph glyph-name="breve" unicode="&#x2d8;" horiz-adv-x="1269" 
d="M731 1171q-162 0 -254 73t-92 200q0 28 8 80h269q-5 -35 -5 -39q0 -101 93 -101q56 0 93.5 36t47.5 104h268l-4 -25q-22 -152 -134 -240t-290 -88z" />
    <glyph glyph-name="dotaccent" unicode="&#x2d9;" horiz-adv-x="1269" 
d="M731 1174q-86 0 -137 45t-51 120q0 101 66 166.5t169 65.5q86 0 136.5 -45.5t50.5 -120.5q0 -101 -65.5 -166t-168.5 -65z" />
    <glyph glyph-name="ring" unicode="&#x2da;" horiz-adv-x="1269" 
d="M731 1159q-122 0 -202 73t-80 181q0 135 103.5 231.5t248.5 96.5q123 0 201.5 -73.5t78.5 -182.5q0 -135 -104.5 -230.5t-245.5 -95.5zM750 1348q56 0 88 35.5t32 84.5q0 39 -23.5 61.5t-66.5 22.5q-56 0 -87 -35.5t-31 -89.5q0 -37 23 -58t65 -21z" />
    <glyph glyph-name="ogonek" unicode="&#x2db;" horiz-adv-x="1269" 
d="M518 -438q-130 0 -203 46t-73 128q0 104 97 199t255 139l123 -74q-124 -78 -157 -112q-25 -26 -25 -46q0 -39 86 -39h69l-35 -241h-137z" />
    <glyph glyph-name="tilde" unicode="&#x2dc;" horiz-adv-x="1269" 
d="M903 1186q-77 0 -172 55q-3 2 -15.5 8.5t-16 8.5t-13.5 7t-15.5 6.5t-13.5 3t-16 1.5q-27 0 -41 -20t-20 -66h-248q37 346 272 346q77 0 172 -55q3 -2 15.5 -8.5t16 -8.5t13.5 -7t15.5 -6.5t13.5 -3t16 -1.5q28 0 42 20t20 66h248q-40 -346 -273 -346z" />
    <glyph glyph-name="hungarumlaut" unicode="&#x2dd;" horiz-adv-x="1269" 
d="M332 1188l278 350h340l-286 -350h-332zM797 1188l278 350h340l-287 -350h-331z" />
    <glyph glyph-name="gravecomb" unicode="&#x300;" horiz-adv-x="0" 
d="M-721 1188l-252 350h400l182 -350h-330z" />
    <glyph glyph-name="acutecomb" unicode="&#x301;" horiz-adv-x="0" 
d="M-686 1188l280 350h400l-350 -350h-330z" />
    <glyph glyph-name="uni0302" unicode="&#x302;" horiz-adv-x="0" 
d="M-72 1188h-331l-107 158l-147 -158h-353l348 350h340z" />
    <glyph glyph-name="tildecomb" unicode="&#x303;" horiz-adv-x="0" 
d="M-367 1186q-77 0 -172 55q-3 2 -15.5 8.5t-16 8.5t-13.5 7t-15.5 6.5t-13.5 3t-16 1.5q-27 0 -41 -20t-20 -66h-248q37 346 272 346q77 0 172 -55q64 -35 91 -35t41 20t20 66h248q-40 -346 -273 -346z" />
    <glyph glyph-name="uni0304" unicode="&#x304;" horiz-adv-x="0" 
d="M-893 1204l37 266h709l-37 -266h-709z" />
    <glyph glyph-name="uni0306" unicode="&#x306;" horiz-adv-x="0" 
d="M-539 1171q-162 0 -254 73t-92 200q0 28 8 80h269q-4 -28 -4 -39q0 -101 92 -101q56 0 93.5 36t47.5 104h268l-4 -25q-22 -152 -134 -240t-290 -88z" />
    <glyph glyph-name="uni0307" unicode="&#x307;" horiz-adv-x="0" 
d="M-539 1174q-86 0 -137 45t-51 120q0 101 66 166.5t169 65.5q86 0 136.5 -45.5t50.5 -120.5q0 -101 -65.5 -166t-168.5 -65z" />
    <glyph glyph-name="uni0308" unicode="&#x308;" horiz-adv-x="0" 
d="M-795 1174q-83 0 -132.5 45.5t-49.5 121.5q0 98 65.5 164t163.5 66q83 0 132 -45.5t49 -120.5q0 -100 -65 -165.5t-163 -65.5zM-283 1174q-83 0 -132.5 45.5t-49.5 121.5q0 98 65.5 164t163.5 66q83 0 132 -45.5t49 -120.5q0 -100 -65 -165.5t-163 -65.5z" />
    <glyph glyph-name="uni030A" unicode="&#x30a;" horiz-adv-x="0" 
d="M-539 1159q-122 0 -202 73t-80 181q0 135 103.5 231.5t248.5 96.5q123 0 202 -73.5t79 -182.5q0 -135 -105 -230.5t-246 -95.5zM-520 1348q56 0 88.5 35.5t32.5 84.5q0 39 -23.5 61.5t-66.5 22.5q-56 0 -87.5 -35.5t-31.5 -89.5q0 -37 23 -58t65 -21z" />
    <glyph glyph-name="uni030B" unicode="&#x30b;" horiz-adv-x="0" 
d="M-938 1188l279 350h340l-287 -350h-332zM-473 1188l278 350h340l-286 -350h-332z" />
    <glyph glyph-name="uni030C" unicode="&#x30c;" horiz-adv-x="0" 
d="M-373 1538h350l-348 -350h-340l-250 350h334l105 -158z" />
    <glyph glyph-name="uni0315" unicode="&#x315;" horiz-adv-x="0" 
d="M-717 1139l62 440h336l-136 -440h-262z" />
    <glyph glyph-name="uni0326" unicode="&#x326;" horiz-adv-x="0" 
d="M-1038 -551l137 391h340l-211 -391h-266z" />
    <glyph glyph-name="uni0327" unicode="&#x327;" horiz-adv-x="0" 
d="M-1077 -412l237 443h291l-178 -443h-350z" />
    <glyph glyph-name="uni0328" unicode="&#x328;" horiz-adv-x="0" 
d="M-752 -438q-130 0 -203 46t-73 128q0 104 97 199t255 139l123 -74q-124 -78 -157 -112q-25 -26 -25 -46q0 -39 86 -39h69l-34 -241h-138z" />
    <glyph glyph-name="uni03BC" unicode="&#x3bc;" horiz-adv-x="1249" 
d="M860 1049h344l-147 -1049h-303l16 121q-40 -71 -103.5 -110.5t-136.5 -39.5q-84 0 -139 52l-65 -474h-344l211 1500h344l-58 -410l-26 -193q-12 -83 18 -123t109 -40q88 0 137.5 53.5t66.5 175.5z" />
    <glyph glyph-name="pi" unicode="&#x3c0;" horiz-adv-x="1269" 
d="M1137 307h41l-43 -307h-156q-170 0 -238.5 78.5t-42.5 255.5l58 407h-262l-105 -741h-344l148 1049h950l-90 -648q-7 -52 11.5 -73t72.5 -21z" />
    <glyph glyph-name="uni1E20" unicode="&#x1e20;" horiz-adv-x="1556" 
d="M1358 1855l-37 -266h-709l37 266h709zM905 842h606l-88 -625q-100 -114 -268 -180t-364 -66q-161 0 -292 47t-218.5 131.5t-135 202.5t-47.5 258q0 181 74.5 356.5t206.5 293.5q108 98 253 150t312 52q197 0 341.5 -72t223.5 -204l-303 -201q-94 141 -291 141
q-181 0 -303 -125q-71 -72 -106 -172.5t-35 -203.5q0 -159 90.5 -242.5t272.5 -83.5q164 0 282 70l27 182h-279z" />
    <glyph glyph-name="uni1E21" unicode="&#x1e21;" horiz-adv-x="1310" 
d="M1151 1470l-37 -266h-708l36 266h709zM930 1049h336l-131 -928q-37 -266 -204.5 -412.5t-455.5 -146.5q-153 0 -284.5 42.5t-208.5 116.5l165 248q144 -108 316 -108q144 0 231.5 68t106.5 192l10 72q-53 -81 -141.5 -127t-196.5 -46q-181 0 -295.5 122.5t-114.5 318.5
q0 135 53.5 268.5t145.5 218.5q142 129 330 129q109 0 195 -46.5t122 -131.5zM770 377q45 38 71.5 96.5t26.5 120.5q0 83 -48.5 131.5t-139.5 48.5q-108 0 -182 -74q-39 -36 -59.5 -91.5t-20.5 -108.5q0 -83 46.5 -132t135.5 -49q95 0 170 58z" />
    <glyph glyph-name="uni1E30" unicode="&#x1e30;" horiz-adv-x="1462" 
d="M1360 1923l-350 -350h-330l281 350h399zM1569 1434l-633 -619l453 -815h-437l-295 545l-184 -180l-51 -365h-356l200 1434h357l-80 -564l569 564h457z" />
    <glyph glyph-name="uni1E31" unicode="&#x1e31;" horiz-adv-x="1212" 
d="M907 1989l-350 -351h-330l281 351h399zM1311 1049l-512 -459l364 -590h-403l-211 365l-125 -111l-35 -254h-344l211 1497h344l-117 -823l402 375h426z" />
    <glyph glyph-name="uni1E3E" unicode="&#x1e3e;" horiz-adv-x="1910" 
d="M1563 1923l-351 -350h-329l280 350h400zM1460 1434h438l-200 -1434h-352l129 920l-412 -586h-264l-250 592l-131 -926h-352l200 1434h422l289 -693z" />
    <glyph glyph-name="uni1E3F" unicode="&#x1e3f;" horiz-adv-x="1875" 
d="M1511 1538l-350 -350h-330l281 350h399zM1495 1077q142 0 221.5 -80t79.5 -227q0 -38 -6 -78l-98 -692h-344l86 606q4 28 4 43q0 117 -123 117q-80 0 -130.5 -47t-62.5 -137l-82 -582h-344l86 606q4 28 4 43q0 117 -122 117q-80 0 -130.5 -47t-62.5 -137l-82 -582h-344
l148 1049h335l-20 -142q55 78 145.5 124t194.5 46q107 0 180 -49t98 -137q54 85 153.5 135.5t215.5 50.5z" />
    <glyph glyph-name="uni1E40" unicode="&#x1e40;" horiz-adv-x="1910" 
d="M1106 1559q-86 0 -137 45t-51 120q0 101 66 166.5t169 65.5q86 0 136 -45.5t50 -120.5q0 -101 -65 -166t-168 -65zM1460 1434h438l-200 -1434h-352l129 920l-412 -586h-264l-250 592l-131 -926h-352l200 1434h422l289 -693z" />
    <glyph glyph-name="uni1E41" unicode="&#x1e41;" horiz-adv-x="1875" 
d="M1055 1174q-86 0 -137.5 45t-51.5 120q0 101 66.5 166.5t169.5 65.5q86 0 136 -45.5t50 -120.5q0 -101 -65 -166t-168 -65zM1495 1077q142 0 221.5 -80t79.5 -227q0 -38 -6 -78l-98 -692h-344l86 606q4 28 4 43q0 117 -123 117q-80 0 -130.5 -47t-62.5 -137l-82 -582
h-344l86 606q4 28 4 43q0 117 -122 117q-80 0 -130.5 -47t-62.5 -137l-82 -582h-344l148 1049h335l-20 -142q55 78 145.5 124t194.5 46q107 0 180 -49t98 -137q54 85 153.5 135.5t215.5 50.5z" />
    <glyph glyph-name="uni1E44" unicode="&#x1e44;" horiz-adv-x="1599" 
d="M950 1559q-86 0 -137 45t-51 120q0 101 66 166.5t169 65.5q86 0 136.5 -45.5t50.5 -120.5q0 -101 -65.5 -166t-168.5 -65zM1235 1434h352l-201 -1434h-331l-516 858l-121 -858h-352l200 1434h334l516 -859z" />
    <glyph glyph-name="uni1E45" unicode="&#x1e45;" horiz-adv-x="1241" 
d="M721 1174q-86 0 -137.5 45t-51.5 120q0 101 66.5 166.5t169.5 65.5q86 0 136 -45.5t50 -120.5q0 -101 -65 -166t-168 -65zM852 1077q146 0 227.5 -80.5t81.5 -228.5q0 -36 -6 -76l-98 -692h-344l84 602q4 32 4 47q0 59 -30.5 88t-96.5 29q-87 0 -139 -47.5t-64 -140.5
l-82 -578h-344l148 1049h335l-20 -142q56 79 144.5 124.5t199.5 45.5z" />
    <glyph glyph-name="Wgrave" unicode="&#x1e80;" horiz-adv-x="2191" 
d="M1468 1573h-329l-252 350h399zM1898 1434h392l-617 -1434h-391l-135 887l-385 -887h-391l-215 1434h372l121 -934l395 934h340l136 -930z" />
    <glyph glyph-name="wgrave" unicode="&#x1e81;" horiz-adv-x="1781" 
d="M1210 1188h-329l-252 350h399zM1479 1049h356l-459 -1049h-383l-92 600l-260 -600h-383l-164 1049h348l78 -643l283 643h315l103 -643z" />
    <glyph glyph-name="Wacute" unicode="&#x1e82;" horiz-adv-x="2191" 
d="M1702 1923l-350 -350h-330l281 350h399zM1898 1434h392l-617 -1434h-391l-135 887l-385 -887h-391l-215 1434h372l121 -934l395 934h340l136 -930z" />
    <glyph glyph-name="wacute" unicode="&#x1e83;" horiz-adv-x="1781" 
d="M1444 1538l-350 -350h-330l280 350h400zM1479 1049h356l-459 -1049h-383l-92 600l-260 -600h-383l-164 1049h348l78 -643l283 643h315l103 -643z" />
    <glyph glyph-name="Wdieresis" unicode="&#x1e84;" horiz-adv-x="2191" 
d="M989 1559q-83 0 -132.5 45.5t-49.5 121.5q0 98 65.5 164t163.5 66q83 0 132 -45.5t49 -120.5q0 -100 -65 -165.5t-163 -65.5zM1501 1559q-83 0 -132.5 45.5t-49.5 121.5q0 98 65.5 164t163.5 66q83 0 132 -45.5t49 -120.5q0 -100 -65 -165.5t-163 -65.5zM1898 1434h392
l-617 -1434h-391l-135 887l-385 -887h-391l-215 1434h372l121 -934l395 934h340l136 -930z" />
    <glyph glyph-name="wdieresis" unicode="&#x1e85;" horiz-adv-x="1781" 
d="M731 1174q-83 0 -132.5 45.5t-49.5 121.5q0 98 65.5 164t163.5 66q83 0 131.5 -45.5t48.5 -120.5q0 -100 -64.5 -165.5t-162.5 -65.5zM1243 1174q-83 0 -132.5 45.5t-49.5 121.5q0 98 65.5 164t163.5 66q83 0 131.5 -45.5t48.5 -120.5q0 -100 -64.5 -165.5t-162.5 -65.5z
M1479 1049h356l-459 -1049h-383l-92 600l-260 -600h-383l-164 1049h348l78 -643l283 643h315l103 -643z" />
    <glyph glyph-name="uni1E90" unicode="&#x1e90;" horiz-adv-x="1253" 
d="M805 1731l-148 -158h-352l348 350h340l250 -350h-332zM1294 1434l-37 -267l-741 -848h631l-45 -319h-1098l37 266l741 848h-610l45 320h1077z" />
    <glyph glyph-name="uni1E91" unicode="&#x1e91;" horiz-adv-x="1028" 
d="M639 1346l-147 -158h-353l348 350h340l250 -350h-332zM115 758l41 291h872l-31 -226l-518 -532h447l-41 -291h-893l31 225l518 533h-426z" />
    <glyph glyph-name="uni1E9E" unicode="&#x1e9e;" horiz-adv-x="1488" 
d="M1124 786q316 -56 316 -309q0 -129 -54 -234t-157 -165q-135 -78 -355 -78h-266l43 303h246q95 0 137 33q45 34 45 102q0 46 -36 68t-115 22h-213l39 273l286 315q-71 35 -180 35q-146 0 -230.5 -64.5t-101.5 -189.5l-127 -897h-356l127 907q37 268 211.5 411.5
t478.5 143.5q226 0 387.5 -77t233.5 -201z" />
    <glyph glyph-name="Ygrave" unicode="&#x1ef2;" horiz-adv-x="1363" 
d="M1051 1573h-330l-252 350h399zM1085 1434h422l-641 -881l-82 -553h-360l82 553l-395 881h393l215 -539z" />
    <glyph glyph-name="ygrave" unicode="&#x1ef3;" horiz-adv-x="1161" 
d="M901 1188h-330l-252 350h400zM850 1049h373l-742 -1457h-334l197 426l-258 1031h365l118 -635z" />
    <glyph glyph-name="uni2000" unicode="&#x2000;" horiz-adv-x="1024" 
 />
    <glyph glyph-name="uni2001" unicode="&#x2001;" horiz-adv-x="2048" 
 />
    <glyph glyph-name="uni2002" unicode="&#x2002;" horiz-adv-x="1024" 
 />
    <glyph glyph-name="uni2003" unicode="&#x2003;" horiz-adv-x="2048" 
 />
    <glyph glyph-name="uni2009" unicode="&#x2009;" horiz-adv-x="409" 
 />
    <glyph glyph-name="uni200A" unicode="&#x200a;" horiz-adv-x="122" 
 />
    <glyph glyph-name="uni200B" unicode="&#x200b;" horiz-adv-x="0" 
 />
    <glyph glyph-name="endash" unicode="&#x2013;" horiz-adv-x="1146" 
d="M49 440l41 287h1024l-41 -287h-1024z" />
    <glyph glyph-name="emdash" unicode="&#x2014;" horiz-adv-x="2172" 
d="M49 440l41 287h2050l-41 -287h-2050z" />
    <glyph glyph-name="quoteleft" unicode="&#x2018;" horiz-adv-x="544" 
d="M92 893l244 569h299l-191 -569h-352z" />
    <glyph glyph-name="quoteright" unicode="&#x2019;" horiz-adv-x="544" 
d="M635 1462l-244 -569h-299l191 569h352z" />
    <glyph glyph-name="quotesinglbase" unicode="&#x201a;" horiz-adv-x="534" 
d="M446 264l-243 -569h-299l190 569h352z" />
    <glyph glyph-name="quotedblleft" unicode="&#x201c;" horiz-adv-x="1009" 
d="M92 893l244 569h299l-191 -569h-352zM557 893l244 569h299l-191 -569h-352z" />
    <glyph glyph-name="quotedblright" unicode="&#x201d;" horiz-adv-x="1009" 
d="M635 1462l-244 -569h-299l191 569h352zM1100 1462l-244 -569h-299l191 569h352z" />
    <glyph glyph-name="quotedblbase" unicode="&#x201e;" horiz-adv-x="999" 
d="M446 264l-243 -569h-299l190 569h352zM911 264l-243 -569h-299l190 569h352z" />
    <glyph glyph-name="dagger" unicode="&#x2020;" horiz-adv-x="1060" 
d="M1067 1077l-43 -303h-295l-145 -1040h-328l145 1040h-295l44 303h294l62 439h328l-62 -439h295z" />
    <glyph glyph-name="daggerdbl" unicode="&#x2021;" horiz-adv-x="1101" 
d="M1044 774h-294l-43 -311h254l-43 -303h-254l-60 -426h-328l60 426h-254l43 303h254l43 311h-295l43 303h295l61 439h328l-61 -439h294z" />
    <glyph glyph-name="bullet" unicode="&#x2022;" horiz-adv-x="1052" 
d="M555 371q-153 0 -255.5 103.5t-102.5 254.5t102.5 254.5t255.5 103.5t255.5 -103.5t102.5 -254.5t-102.5 -254.5t-255.5 -103.5z" />
    <glyph glyph-name="ellipsis" unicode="&#x2026;" horiz-adv-x="1751" 
d="M244 -29q-97 0 -154 53t-57 142q0 108 62 176t169 68q97 0 154 -53t57 -142q0 -108 -62 -176t-169 -68zM819 -29q-97 0 -154 53t-57 142q0 108 62.5 176t169.5 68q97 0 154 -53t57 -142q0 -108 -62.5 -176t-169.5 -68zM1393 -29q-97 0 -154 53t-57 142q0 108 62 176
t169 68q97 0 154 -53t57 -142q0 -108 -62 -176t-169 -68z" />
    <glyph glyph-name="perthousand" unicode="&#x2030;" horiz-adv-x="2752" 
d="M473 692q-157 0 -257.5 92t-100.5 238q0 183 127.5 311.5t312.5 128.5q157 0 257.5 -91.5t100.5 -237.5q0 -183 -127.5 -312t-312.5 -129zM240 0l1151 1434h299l-1151 -1434h-299zM494 930q69 0 114 51t45 123q0 56 -31.5 88.5t-86.5 32.5q-69 0 -114.5 -51t-45.5 -123
q0 -56 32 -88.5t87 -32.5zM1374 -29q-157 0 -257.5 92t-100.5 238q0 183 127.5 311.5t312.5 128.5q157 0 258 -91.5t101 -237.5q0 -183 -128 -312t-313 -129zM2251 -29q-157 0 -258 92t-101 238q0 182 128 311t313 129q157 0 257.5 -91.5t100.5 -237.5q0 -183 -127.5 -312
t-312.5 -129zM1395 209q69 0 114 51t45 123q0 56 -31.5 88.5t-86.5 32.5q-69 0 -114.5 -51t-45.5 -123q0 -56 32 -88.5t87 -32.5zM2271 209q69 0 114.5 51t45.5 123q0 56 -32 88.5t-87 32.5q-69 0 -114.5 -51t-45.5 -123q0 -56 32 -88.5t87 -32.5z" />
    <glyph glyph-name="guilsinglleft" unicode="&#x2039;" horiz-adv-x="755" 
d="M778 983l-389 -463l254 -454h-352l-260 458l383 459h364z" />
    <glyph glyph-name="guilsinglright" unicode="&#x203a;" horiz-adv-x="755" 
d="M465 983l260 -459l-383 -458h-365l390 462l-254 455h352z" />
    <glyph glyph-name="fraction" unicode="&#x2044;" horiz-adv-x="454" 
d="M-483 0l1206 1434h268l-1204 -1434h-270z" />
    <glyph glyph-name="uni2070" unicode="&#x2070;" horiz-adv-x="786" 
d="M422 705q-139 0 -217 84.5t-78 234.5q0 110 38.5 217t106.5 172q103 103 256 103q139 0 217 -85t78 -235q0 -109 -38 -215.5t-107 -175.5q-108 -100 -256 -100zM449 920q59 0 86 47q21 32 35 107t14 124q0 56 -20 79t-62 23q-59 0 -86 -45q-20 -34 -34.5 -109.5
t-14.5 -123.5q0 -56 20 -79t62 -23z" />
    <glyph glyph-name="uni2074" unicode="&#x2074;" horiz-adv-x="737" 
d="M786 1047l-26 -193h-84l-19 -131h-213l19 131h-375l27 190l374 453h277l-64 -450h84zM344 1047h145l29 213z" />
    <glyph glyph-name="uni2075" unicode="&#x2075;" horiz-adv-x="690" 
d="M492 1221q107 0 171 -59.5t64 -157.5q0 -141 -94.5 -220t-253.5 -79q-174 0 -297 114l129 162q88 -63 162 -63q54 0 84 19t30 50q0 47 -65 47q-42 0 -88 -24l-162 90l57 397h506l-30 -209h-291l-11 -80q44 13 89 13z" />
    <glyph glyph-name="uni2076" unicode="&#x2076;" horiz-adv-x="718" 
d="M518 1243q101 0 168.5 -67t67.5 -164q0 -133 -104 -220t-253 -87q-129 0 -211 68t-82 183q0 96 55.5 199.5t145.5 198.5l135 143h271l-240 -258q28 4 47 4zM418 909q45 0 72.5 24.5t27.5 65.5q0 31 -20 48.5t-58 17.5q-49 0 -74.5 -26.5t-25.5 -67.5q0 -29 20.5 -45.5
t57.5 -16.5z" />
    <glyph glyph-name="uni2077" unicode="&#x2077;" horiz-adv-x="626" 
d="M166 1497h569l-24 -197l-353 -577h-264l348 557h-307z" />
    <glyph glyph-name="uni2078" unicode="&#x2078;" horiz-adv-x="724" 
d="M639 1120q104 -49 104 -151q0 -123 -99.5 -193.5t-248.5 -70.5q-144 0 -221.5 57t-77.5 149q0 73 42.5 125.5t115.5 81.5q-84 47 -84 142q0 116 94 186t234 70q130 0 200 -55t70 -142q0 -138 -129 -199zM475 1319q-82 0 -82 -68q0 -43 66 -43q80 0 80 66q0 45 -64 45z
M416 905q90 0 90 70q0 45 -74 45q-88 0 -88 -68q0 -47 72 -47z" />
    <glyph glyph-name="uni2079" unicode="&#x2079;" horiz-adv-x="727" 
d="M492 1516q130 0 210 -67.5t80 -184.5q0 -185 -200 -398l-133 -143h-273l240 258q-28 -4 -47 -4q-101 0 -167.5 66t-66.5 163q0 137 103 223.5t254 86.5zM446 1155q45 0 73 24.5t28 65.5q0 31 -20 48.5t-58 17.5q-49 0 -74.5 -26.5t-25.5 -67.5q0 -29 20 -45.5t57 -16.5z
" />
    <glyph glyph-name="Euro" unicode="&#x20ac;" horiz-adv-x="1261" 
d="M711 291q61 0 116.5 44.5t94.5 127.5l268 -141q-63 -159 -202 -255t-308 -96q-199 0 -329.5 133t-153.5 365h-154l27 193h127q8 71 14 110h-125l27 193h149q61 175 166 299q173 198 420 198q167 0 284 -94t168 -256l-299 -137q-23 82 -68 125t-106 43q-86 0 -155 -90
q-33 -46 -51 -88h297l-27 -193h-328q-12 -73 -14 -110h325l-26 -193h-295q30 -178 158 -178z" />
    <glyph glyph-name="uni2116" unicode="&#x2116;" horiz-adv-x="2674" 
d="M2122 573q-192 0 -306 104t-114 271q0 219 149.5 366.5t374.5 147.5q193 0 306.5 -105t113.5 -274q0 -217 -150 -363.5t-374 -146.5zM1116 575l119 859h352l-201 -1434h-331l-516 858l-121 -858h-352l200 1434h334zM2195 1171q-77 0 -121 -51.5t-44 -134.5
q0 -58 31.5 -89.5t90.5 -31.5q75 0 121.5 54t46.5 129q0 58 -33 91t-92 33zM1628 164l41 291h852l-41 -291h-852z" />
    <glyph glyph-name="trademark" unicode="&#x2122;" horiz-adv-x="1955" 
d="M864 1434l-35 -260h-200l-82 -576h-275l82 576h-200l34 260h676zM1657 1434h323l-116 -836h-267l62 440l-170 -262h-207l-96 262l-62 -440h-266l117 836h311l135 -359z" />
    <glyph glyph-name="uni2126" unicode="&#x2126;" horiz-adv-x="1593" 
d="M1393 446q-70 -89 -166 -139h237l-43 -307h-620l49 350q144 77 229 193q99 136 99 286q0 134 -78 215.5t-211 81.5q-148 0 -260 -98q-70 -59 -107 -145t-37 -183q0 -109 54.5 -199.5t154.5 -150.5l-49 -350h-620l43 307h239q-88 54 -133 156t-45 231q0 171 74.5 327.5
t206.5 262.5q216 178 510 178q270 0 444 -163t174 -416q0 -123 -38 -237t-107 -200z" />
    <glyph glyph-name="estimated" unicode="&#x212e;" horiz-adv-x="1587" 
d="M823 0q-145 0 -275.5 52t-228.5 147q-97 94 -151.5 228t-54.5 290q0 155 55 292t151 230q98 92 229 143.5t275 51.5t274.5 -51.5t227.5 -143.5q98 -93 153.5 -230t55.5 -292v-25h-1196v-309q0 -72 20.5 -119t71.5 -84q171 -127 393 -127q172 0 315.5 75t231.5 210l43 -33
q-97 -145 -252 -225t-338 -80zM338 741h981v299q0 71 -20 120.5t-68 86.5q-177 133 -408 133q-222 0 -393 -127q-51 -37 -71.5 -84t-20.5 -120v-308z" />
    <glyph glyph-name="arrowleft" unicode="&#x2190;" 
d="M1401 870v-307h-783l201 -205l-203 -204l-530 563l530 563l203 -205l-201 -205h783z" />
    <glyph glyph-name="arrowup" unicode="&#x2191;" 
d="M1335 848l-205 -203l-204 201v-783h-308v783l-204 -201l-205 203l563 530z" />
    <glyph glyph-name="arrowright" unicode="&#x2192;" 
d="M893 1280l530 -563l-530 -563l-203 204l201 205h-782v307h782l-201 205z" />
    <glyph glyph-name="arrowdown" unicode="&#x2193;" 
d="M1094 788l204 -202l-563 -531l-563 531l205 202l205 -200v782h307v-782z" />
    <glyph glyph-name="uni2196" unicode="&#x2196;" 
d="M1288 360l-217 -217l-553 553l-2 -286l-289 -2l23 774l774 22l-2 -286l-289 -3z" />
    <glyph glyph-name="uni2197" unicode="&#x2197;" 
d="M1227 408l-287 2l-2 288l-555 -555l-217 217l553 553l-287 2l-2 289l774 -22z" />
    <glyph glyph-name="uni2198" unicode="&#x2198;" 
d="M940 1022l289 2l-23 -774l-774 -23l2 287l289 2l-555 555l217 217l553 -553z" />
    <glyph glyph-name="uni2199" unicode="&#x2199;" 
d="M735 518l287 -2l2 -289l-774 23l-23 774l287 -2l2 -289l555 555l217 -217z" />
    <glyph glyph-name="partialdiff" unicode="&#x2202;" horiz-adv-x="1277" 
d="M698 1464q272 0 411.5 -140t139.5 -421q0 -153 -26.5 -298.5t-91 -283.5t-160.5 -215q-170 -137 -414 -137q-232 0 -367 122t-135 315q0 153 71.5 276.5t197.5 192.5t282 69q160 0 277 -88h8v37q0 137 -58.5 193.5t-199.5 56.5q-129 0 -254 -47l-35 301q168 67 354 67z
M592 276q98 0 159.5 63.5t61.5 154.5q0 71 -45.5 113t-124.5 42q-97 0 -158 -61t-61 -158q0 -71 45 -112.5t123 -41.5z" />
    <glyph glyph-name="uni2206" unicode="&#x2206;" horiz-adv-x="1460" 
d="M987 1434l391 -1272l-125 -162h-1194l-79 162l747 1272h260zM969 319l-176 613l-351 -613h527z" />
    <glyph glyph-name="product" unicode="&#x220f;" horiz-adv-x="1343" 
d="M1343 1516l-249 -1782h-357l205 1454h-352l-205 -1454h-356l250 1782h1064z" />
    <glyph glyph-name="summation" unicode="&#x2211;" horiz-adv-x="1095" 
d="M1194 1516l-45 -328h-561l330 -563l-490 -564h561l-45 -327h-983l45 327l490 564l-330 563l45 328h983z" />
    <glyph glyph-name="minus" unicode="&#x2212;" 
d="M252 496l43 307h942l-43 -307h-942z" />
    <glyph glyph-name="radical" unicode="&#x221a;" horiz-adv-x="1314" 
d="M1096 1516h368l-762 -1782h-358l-143 682h-195l45 327h445l88 -438z" />
    <glyph glyph-name="infinity" unicode="&#x221e;" horiz-adv-x="1538" 
d="M1169 1077q162 0 253 -92.5t91 -239.5q0 -200 -127 -335.5t-329 -135.5q-195 0 -301 154q-147 -154 -344 -154q-162 0 -253 93.5t-91 240.5q0 200 127.5 334.5t328.5 134.5q196 0 301 -153q146 153 344 153zM453 528q53 0 97.5 38.5t92.5 111.5q-28 71 -61.5 108
t-85.5 37q-65 0 -110.5 -52t-45.5 -122q0 -55 31.5 -88t81.5 -33zM1085 528q65 0 109.5 52t44.5 122q0 55 -30.5 88t-80.5 33q-53 0 -97.5 -38t-92.5 -111q29 -71 62 -108.5t85 -37.5z" />
    <glyph glyph-name="integral" unicode="&#x222b;" horiz-adv-x="847" 
d="M-70 -266l43 307h86q65 0 96 26.5t40 90.5l145 1040q25 171 111.5 244.5t269.5 73.5h225l-43 -308h-86q-65 0 -95.5 -26t-39.5 -90l-145 -1041q-25 -170 -111.5 -243.5t-269.5 -73.5h-226z" />
    <glyph glyph-name="approxequal" unicode="&#x2248;" 
d="M961 672q-75 0 -207 51t-207 51q-70 0 -131.5 -22t-139.5 -70l43 307q136 90 273 90q72 0 206.5 -51t202.5 -51q145 0 273 92l-43 -307q-141 -90 -270 -90zM899 221q-75 0 -208 51.5t-208 51.5q-70 0 -131 -22t-139 -71l43 308q136 90 274 90q72 0 206 -51.5t202 -51.5
q144 0 272 92l-43 -307q-71 -45 -133 -67.5t-135 -22.5z" />
    <glyph glyph-name="notequal" unicode="&#x2260;" 
d="M1227 721h-320l-78 -143h377l-43 -308h-497l-103 -192h-248l103 192h-197l43 308h318l77 143h-374l43 307h495l103 193h248l-103 -193h199z" />
    <glyph glyph-name="lessequal" unicode="&#x2264;" 
d="M1300 1272l-43 -316l-522 -137l484 -137l-43 -315l-900 305l41 295zM182 0l43 307h942l-43 -307h-942z" />
    <glyph glyph-name="greaterequal" unicode="&#x2265;" 
d="M360 1272l900 -305l-41 -295l-983 -305l43 315l522 137l-484 137zM182 0l43 307h942l-43 -307h-942z" />
    <glyph glyph-name="filledbox" unicode="&#x25a0;" horiz-adv-x="1843" 
d="M131 0l201 1434h1433l-200 -1434h-1434z" />
    <glyph glyph-name="triagup" unicode="&#x25b2;" horiz-adv-x="1843" 
d="M131 0l918 1434l516 -1434h-1434z" />
    <glyph glyph-name="triagdn" unicode="&#x25bc;" horiz-adv-x="1843" 
d="M848 0l-516 1434h1433z" />
    <glyph glyph-name="uni25C6" unicode="&#x25c6;" horiz-adv-x="1843" 
d="M846 0l-615 715l816 719l618 -719z" />
    <glyph glyph-name="lozenge" unicode="&#x25ca;" horiz-adv-x="1368" 
d="M952 1434l414 -717l-614 -717h-283l-414 717l615 717h282zM651 334l336 391l-215 375l-338 -391z" />
    <glyph glyph-name="uni25CF" unicode="&#x25cf;" horiz-adv-x="1841" 
d="M848 0q-177 0 -320 81t-223 222t-80 313q0 161 69 312.5t182 262t264 177t309 66.5q177 0 320 -81.5t222.5 -222.5t79.5 -313q0 -161 -69 -312.5t-181.5 -261.5t-263.5 -176.5t-309 -66.5z" />
    <glyph glyph-name="uni2610" unicode="&#x2610;" horiz-adv-x="1843" 
d="M131 0l201 1434h1433l-200 -1434h-1434zM328 164h1085l156 1106h-1086z" />
    <glyph glyph-name="uni2611" unicode="&#x2611;" horiz-adv-x="1843" 
d="M332 1434h1433l-200 -1434h-1434zM1413 164l156 1106h-1086l-155 -1106h1085zM829 682l312 539l243 -191l-471 -815l-401 313l160 277z" />
    <glyph glyph-name="uni2612" unicode="&#x2612;" horiz-adv-x="1843" 
d="M332 1434h1433l-200 -1434h-1434zM1413 164l156 1106h-1086l-155 -1106h1085zM1288 1192l174 -209l-303 -264l227 -268l-243 -209l-228 266l-305 -266l-174 209l303 264l-227 268l244 209l227 -266z" />
    <glyph glyph-name="heart" unicode="&#x2665;" horiz-adv-x="1843" 
d="M862 98q-53 59 -123.5 119t-129.5 101t-119.5 92t-102 98t-68 112.5t-26.5 141.5q0 197 123 338t301 141q119 0 196 -73t68 -205h4q29 132 126 205t216 73q128 0 219.5 -87t91.5 -245q0 -104 -36.5 -192.5t-93 -149.5t-140 -123.5t-162.5 -109t-177 -111.5t-167 -125z
" />
    <glyph glyph-name="uni2B51" unicode="&#x2b51;" horiz-adv-x="1843" 
d="M371 -6l260 557l-420 340h582l256 553l100 -555h586l-523 -342l103 -553l-422 344z" />
    <glyph glyph-name="uni00A40301" horiz-adv-x="1171" 
d="M801 1573l280 350h400l-351 -350h-329zM451 -29q-157 0 -281.5 55.5t-192.5 147.5l218 254q116 -113 243 -113q102 0 174.5 66t87.5 178l123 875h357l-129 -928q-37 -260 -190 -397.5t-410 -137.5z" />
    <glyph glyph-name="i.loclTRK" horiz-adv-x="585" 
d="M389 1174q-86 0 -137 45t-51 120q0 101 66 166.5t169 65.5q86 0 136.5 -45.5t50.5 -120.5q0 -101 -65.5 -166t-168.5 -65zM47 0l148 1049h344l-148 -1049h-344z" />
    <glyph glyph-name="uni006A0301" horiz-adv-x="585" 
d="M166 1188l194 350h390l-263 -350h-321zM-63 -440q-93 0 -164 16l41 293q55 -8 88 -8q70 0 102 29t41 94l150 1065h344l-160 -1131q-25 -183 -129 -270.5t-313 -87.5z" />
    <glyph glyph-name="a.ss01" horiz-adv-x="1159" 
d="M643 1077q220 0 336.5 -110t89.5 -303l-94 -664h-289l19 135q-47 -75 -135.5 -118.5t-207.5 -43.5q-155 0 -249.5 79.5t-94.5 213.5q0 79 34 151.5t95 119.5q123 94 357 94h223l2 12q9 74 -20.5 105.5t-108.5 31.5q-152 0 -272 -102l-166 219q85 85 209 132.5t272 47.5z
M477 223q92 0 151.5 47.5t69.5 130.5l4 25h-172q-110 0 -143 -41q-27 -34 -27 -80q0 -82 117 -82z" />
    <glyph glyph-name="aacute.ss01" horiz-adv-x="1159" 
d="M1141 1538l-350 -350h-330l280 350h400zM643 1077q220 0 336.5 -110t89.5 -303l-94 -664h-289l19 135q-47 -75 -135.5 -118.5t-207.5 -43.5q-155 0 -249.5 79.5t-94.5 213.5q0 79 34 151.5t95 119.5q123 94 357 94h223l2 12q9 74 -20.5 105.5t-108.5 31.5
q-152 0 -272 -102l-166 219q85 85 209 132.5t272 47.5zM477 223q92 0 151.5 47.5t69.5 130.5l4 25h-172q-110 0 -143 -41q-27 -34 -27 -80q0 -82 117 -82z" />
    <glyph glyph-name="abreve.ss01" horiz-adv-x="1159" 
d="M844 1524h268l-4 -25q-22 -152 -134 -240t-290 -88q-162 0 -254 73t-92 200q0 28 8 80h268q-4 -28 -4 -39q0 -101 92 -101q56 0 94 36t48 104zM643 1077q220 0 336.5 -110t89.5 -303l-94 -664h-289l19 135q-47 -75 -135.5 -118.5t-207.5 -43.5q-155 0 -249.5 79.5
t-94.5 213.5q0 79 34 151.5t95 119.5q123 94 357 94h223l2 12q9 74 -20.5 105.5t-108.5 31.5q-152 0 -272 -102l-166 219q85 85 209 132.5t272 47.5zM477 223q92 0 151.5 47.5t69.5 130.5l4 25h-172q-110 0 -143 -41q-27 -34 -27 -80q0 -82 117 -82z" />
    <glyph glyph-name="uni01CE.ss01" horiz-adv-x="1159" 
d="M852 1188h-340l-250 350h334l104 -158l150 158h350zM643 1077q220 0 336.5 -110t89.5 -303l-94 -664h-289l19 135q-47 -75 -135.5 -118.5t-207.5 -43.5q-155 0 -249.5 79.5t-94.5 213.5q0 79 34 151.5t95 119.5q123 94 357 94h223l2 12q9 74 -20.5 105.5t-108.5 31.5
q-152 0 -272 -102l-166 219q85 85 209 132.5t272 47.5zM477 223q92 0 151.5 47.5t69.5 130.5l4 25h-172q-110 0 -143 -41q-27 -34 -27 -80q0 -82 117 -82z" />
    <glyph glyph-name="acircumflex.ss01" horiz-adv-x="1159" 
d="M713 1346l-148 -158h-352l348 350h340l250 -350h-332zM643 1077q220 0 336.5 -110t89.5 -303l-94 -664h-289l19 135q-47 -75 -135.5 -118.5t-207.5 -43.5q-155 0 -249.5 79.5t-94.5 213.5q0 79 34 151.5t95 119.5q123 94 357 94h223l2 12q9 74 -20.5 105.5t-108.5 31.5
q-152 0 -272 -102l-166 219q85 85 209 132.5t272 47.5zM477 223q92 0 151.5 47.5t69.5 130.5l4 25h-172q-110 0 -143 -41q-27 -34 -27 -80q0 -82 117 -82z" />
    <glyph glyph-name="adieresis.ss01" horiz-adv-x="1159" 
d="M428 1174q-83 0 -132.5 45.5t-49.5 121.5q0 98 65.5 164t163.5 66q83 0 131.5 -45.5t48.5 -120.5q0 -100 -64.5 -165.5t-162.5 -65.5zM987 1571q83 0 131.5 -45.5t48.5 -120.5q0 -100 -64.5 -165.5t-162.5 -65.5q-83 0 -132.5 45.5t-49.5 121.5q0 98 65.5 164t163.5 66z
M643 1077q220 0 336.5 -110t89.5 -303l-94 -664h-289l19 135q-47 -75 -135.5 -118.5t-207.5 -43.5q-155 0 -249.5 79.5t-94.5 213.5q0 79 34 151.5t95 119.5q123 94 357 94h223l2 12q9 74 -20.5 105.5t-108.5 31.5q-152 0 -272 -102l-166 219q85 85 209 132.5t272 47.5z
M477 223q92 0 151.5 47.5t69.5 130.5l4 25h-172q-110 0 -143 -41q-27 -34 -27 -80q0 -82 117 -82z" />
    <glyph glyph-name="agrave.ss01" horiz-adv-x="1159" 
d="M907 1188h-329l-252 350h399zM643 1077q220 0 336.5 -110t89.5 -303l-94 -664h-289l19 135q-47 -75 -135.5 -118.5t-207.5 -43.5q-155 0 -249.5 79.5t-94.5 213.5q0 79 34 151.5t95 119.5q123 94 357 94h223l2 12q9 74 -20.5 105.5t-108.5 31.5q-152 0 -272 -102
l-166 219q85 85 209 132.5t272 47.5zM477 223q92 0 151.5 47.5t69.5 130.5l4 25h-172q-110 0 -143 -41q-27 -34 -27 -80q0 -82 117 -82z" />
    <glyph glyph-name="amacron.ss01" horiz-adv-x="1159" 
d="M1075 1470l-37 -266h-708l37 266h708zM643 1077q220 0 336.5 -110t89.5 -303l-94 -664h-289l19 135q-47 -75 -135.5 -118.5t-207.5 -43.5q-155 0 -249.5 79.5t-94.5 213.5q0 79 34 151.5t95 119.5q123 94 357 94h223l2 12q9 74 -20.5 105.5t-108.5 31.5q-152 0 -272 -102
l-166 219q85 85 209 132.5t272 47.5zM477 223q92 0 151.5 47.5t69.5 130.5l4 25h-172q-110 0 -143 -41q-27 -34 -27 -80q0 -82 117 -82z" />
    <glyph glyph-name="aogonek.ss01" horiz-adv-x="1159" 
d="M643 1077q220 0 336.5 -110t89.5 -303l-94 -664q-124 -78 -157 -112q-25 -26 -25 -46q0 -39 86 -39h69l-35 -241h-137q-130 0 -203 46t-73 128q0 73 49 143.5t137 124.5l19 131q-47 -75 -135.5 -118.5t-207.5 -43.5q-155 0 -249.5 79.5t-94.5 213.5q0 79 34 151.5
t95 119.5q123 94 357 94h223l2 12q9 74 -20.5 105.5t-108.5 31.5q-152 0 -272 -102l-166 219q85 85 209 132.5t272 47.5zM477 223q92 0 151.5 47.5t69.5 130.5l4 25h-172q-110 0 -143 -41q-27 -34 -27 -80q0 -82 117 -82z" />
    <glyph glyph-name="aring.ss01" horiz-adv-x="1159" 
d="M684 1159q-122 0 -202.5 73t-80.5 181q0 135 104 231.5t249 96.5q123 0 201.5 -73.5t78.5 -182.5q0 -135 -104.5 -230.5t-245.5 -95.5zM733 1552q-56 0 -87.5 -35.5t-31.5 -89.5q0 -37 23 -58t65 -21q56 0 88.5 35.5t32.5 84.5q0 39 -23.5 61.5t-66.5 22.5zM643 1077
q220 0 336.5 -110t89.5 -303l-94 -664h-289l19 135q-47 -75 -135.5 -118.5t-207.5 -43.5q-155 0 -249.5 79.5t-94.5 213.5q0 79 34 151.5t95 119.5q123 94 357 94h223l2 12q9 74 -20.5 105.5t-108.5 31.5q-152 0 -272 -102l-166 219q85 85 209 132.5t272 47.5zM477 223
q92 0 151.5 47.5t69.5 130.5l4 25h-172q-110 0 -143 -41q-27 -34 -27 -80q0 -82 117 -82z" />
    <glyph glyph-name="atilde.ss01" horiz-adv-x="1159" 
d="M594 1276q-28 0 -42 -20t-20 -66h-247q37 346 272 346q77 0 172 -55q3 -2 15.5 -8.5t16 -8.5t13.5 -7t15.5 -6.5t13.5 -3t16 -1.5q28 0 42 20t20 66h247q-40 -346 -272 -346q-77 0 -172 55q-3 2 -15.5 8.5t-16 8.5t-13.5 7t-15.5 6.5t-13.5 3t-16 1.5zM643 1077
q220 0 336.5 -110t89.5 -303l-94 -664h-289l19 135q-47 -75 -135.5 -118.5t-207.5 -43.5q-155 0 -249.5 79.5t-94.5 213.5q0 79 34 151.5t95 119.5q123 94 357 94h223l2 12q9 74 -20.5 105.5t-108.5 31.5q-152 0 -272 -102l-166 219q85 85 209 132.5t272 47.5zM477 223
q92 0 151.5 47.5t69.5 130.5l4 25h-172q-110 0 -143 -41q-27 -34 -27 -80q0 -82 117 -82z" />
    <glyph glyph-name="j.ss02" horiz-adv-x="581" 
d="M397 1174q-101 0 -154.5 60.5t-39.5 156.5q10 83 68.5 131.5t146.5 48.5q102 0 156 -60.5t40 -156.5q-12 -83 -70 -131.5t-147 -48.5zM-14 -410l204 1459h345l-205 -1459h-344z" />
    <glyph glyph-name="uni0237.ss02" horiz-adv-x="585" 
d="M-10 -410l205 1459h344l-205 -1459h-344z" />
    <glyph glyph-name="uni006A0301.ss02" horiz-adv-x="585" 
d="M166 1188l194 350h390l-263 -350h-321zM-10 -410l205 1459h344l-205 -1459h-344z" />
    <glyph glyph-name="jcircumflex.ss02" horiz-adv-x="585" 
d="M410 1348l-109 -160h-303l278 350h320l180 -350h-303zM-10 -410l205 1459h344l-205 -1459h-344z" />
    <glyph glyph-name="t.ss03" horiz-adv-x="856" 
d="M182 0l105 745h-224l43 304h224l43 307h344l-43 -307h223l-43 -304h-223l-105 -745h-344z" />
    <glyph glyph-name="tbar.ss03" horiz-adv-x="856" 
d="M854 745h-223l-19 -131h191l-29 -204h-190l-58 -410h-344l58 410h-191l29 204h190l19 131h-224l43 304h224l43 307h344l-43 -307h223z" />
    <glyph glyph-name="tcaron.ss03" horiz-adv-x="919" 
d="M795 1149l61 440h336l-135 -440h-262zM182 0l105 745h-224l43 304h224l43 307h344l-43 -307h223l-43 -304h-223l-105 -745h-344z" />
    <glyph glyph-name="uni0163.ss03" horiz-adv-x="856" 
d="M182 0l105 745h-224l43 304h224l43 307h344l-43 -307h223l-43 -304h-223l-105 -745h-344zM18 -551l138 391h340l-211 -391h-267z" />
    <glyph glyph-name="uni021B.ss03" horiz-adv-x="856" 
d="M182 0l105 745h-224l43 304h224l43 307h344l-43 -307h223l-43 -304h-223l-105 -745h-344zM18 -551l138 391h340l-211 -391h-267z" />
    <glyph glyph-name="y.ss04" horiz-adv-x="1222" 
d="M838 1049h340l-134 -953q-36 -259 -193.5 -396.5t-438.5 -137.5q-138 0 -256.5 34.5t-186.5 96.5l152 258q125 -90 282 -90q133 0 212 63t94 172l12 90q-55 -77 -143 -121.5t-193 -44.5q-139 0 -219 79.5t-80 224.5q0 38 6 82l90 643h344l-77 -553q-5 -40 -5 -45
q0 -61 28.5 -90t92.5 -29q83 0 134.5 47.5t64.5 140.5z" />
    <glyph glyph-name="yacute.ss04" horiz-adv-x="1222" 
d="M1161 1538l-350 -350h-330l281 350h399zM838 1049h340l-134 -953q-36 -259 -193.5 -396.5t-438.5 -137.5q-138 0 -256.5 34.5t-186.5 96.5l152 258q125 -90 282 -90q133 0 212 63t94 172l12 90q-55 -77 -143 -121.5t-193 -44.5q-139 0 -219 79.5t-80 224.5q0 38 6 82
l90 643h344l-77 -553q-5 -40 -5 -45q0 -61 28.5 -90t92.5 -29q83 0 134.5 47.5t64.5 140.5z" />
    <glyph glyph-name="ycircumflex.ss04" horiz-adv-x="1222" 
d="M733 1346l-147 -158h-353l349 350h340l249 -350h-331zM838 1049h340l-134 -953q-36 -259 -193.5 -396.5t-438.5 -137.5q-138 0 -256.5 34.5t-186.5 96.5l152 258q125 -90 282 -90q133 0 212 63t94 172l12 90q-55 -77 -143 -121.5t-193 -44.5q-139 0 -219 79.5t-80 224.5
q0 38 6 82l90 643h344l-77 -553q-5 -40 -5 -45q0 -61 28.5 -90t92.5 -29q83 0 134.5 47.5t64.5 140.5z" />
    <glyph glyph-name="ydieresis.ss04" horiz-adv-x="1222" 
d="M449 1174q-83 0 -133 45.5t-50 121.5q0 98 66 164t164 66q83 0 131.5 -45.5t48.5 -120.5q0 -100 -64.5 -165.5t-162.5 -65.5zM961 1174q-83 0 -133 45.5t-50 121.5q0 98 66 164t164 66q83 0 131.5 -45.5t48.5 -120.5q0 -100 -64.5 -165.5t-162.5 -65.5zM764 520l74 529
h340l-134 -953q-36 -259 -193.5 -396.5t-438.5 -137.5q-138 0 -256.5 34.5t-186.5 96.5l152 258q125 -90 282 -90q133 0 212 63t94 172l12 90q-55 -77 -143 -121.5t-193 -44.5q-139 0 -219 79.5t-80 224.5q0 38 6 82l90 643h344l-77 -553q-5 -40 -5 -45q0 -61 28.5 -90
t92.5 -29q83 0 134.5 47.5t64.5 140.5z" />
    <glyph glyph-name="ygrave.ss04" horiz-adv-x="1222" 
d="M928 1188h-330l-252 350h399zM838 1049h340l-134 -953q-36 -259 -193.5 -396.5t-438.5 -137.5q-138 0 -256.5 34.5t-186.5 96.5l152 258q125 -90 282 -90q133 0 212 63t94 172l12 90q-55 -77 -143 -121.5t-193 -44.5q-139 0 -219 79.5t-80 224.5q0 38 6 82l90 643h344
l-77 -553q-5 -40 -5 -45q0 -61 28.5 -90t92.5 -29q83 0 134.5 47.5t64.5 140.5z" />
    <glyph glyph-name="zero.zero" horiz-adv-x="1429" 
d="M838 1462q247 0 385.5 -148t138.5 -425q0 -217 -71.5 -423.5t-205.5 -330.5q-179 -164 -440 -164q-248 0 -386 148t-138 424q0 215 68.5 417.5t199.5 329.5q181 172 449 172zM608 1047q-62 -78 -94.5 -220t-32.5 -274q0 -54 11 -111l405 684q-35 17 -88 17
q-123 0 -201 -96zM883 397q57 75 89 220t32 266q0 55 -9 98l-401 -678q34 -12 80 -12q132 0 209 106z" />
    <glyph glyph-name="zero.lf" horiz-adv-x="1429" 
d="M645 -29q-248 0 -386 148t-138 424q0 215 68.5 417.5t199.5 329.5q181 172 449 172q247 0 385.5 -148t138.5 -425q0 -217 -71.5 -423.5t-205.5 -330.5q-179 -164 -440 -164zM674 291q132 0 209 106q57 75 89 220t32 266q0 138 -49 199t-146 61q-123 0 -201 -96
q-62 -78 -94.5 -220t-32.5 -274q0 -139 48 -200.5t145 -61.5z" />
    <glyph glyph-name="one.lf" horiz-adv-x="870" 
d="M563 1434h295l-201 -1434h-348l150 1071l-342 -156l45 328z" />
    <glyph glyph-name="two.lf" horiz-adv-x="1198" 
d="M909 614l-356 -295h551l-45 -319h-1067l37 258l571 473q118 97 177 165.5t59 137.5q0 50 -36.5 79.5t-99.5 29.5q-84 0 -166.5 -55t-154.5 -166l-254 165q93 179 250 277t358 98q209 0 336 -105t127 -267q0 -135 -75 -249t-212 -227z" />
    <glyph glyph-name="three.lf" horiz-adv-x="1173" 
d="M881 727q106 -36 161.5 -109t55.5 -174q0 -104 -49.5 -199t-133.5 -157q-155 -117 -403 -117q-165 0 -300 55t-226 164l219 236q127 -139 305 -139q113 0 180 51q58 45 58 108q0 121 -248 121h-115l43 312h147q127 0 187 51q47 36 47 106q0 111 -154 111
q-162 0 -321 -150l-199 220q96 117 242 181t323 64q212 0 340.5 -95t128.5 -257q0 -99 -42 -185t-119 -139q-53 -38 -127 -59z" />
    <glyph glyph-name="four.lf" horiz-adv-x="1263" 
d="M1243 559l-39 -287h-160l-38 -272h-340l39 272h-687l39 287l756 875h393l-123 -875h160zM397 559h346l68 479z" />
    <glyph glyph-name="five.lf" horiz-adv-x="1210" 
d="M739 928q187 0 303.5 -108t116.5 -285q0 -136 -54.5 -257t-158.5 -194q-155 -113 -416 -113q-161 0 -286.5 51.5t-231.5 165.5l213 242q137 -143 316 -143q127 0 202 65q60 57 60 140q0 70 -46 109.5t-130 39.5q-125 0 -234 -74l-235 123l104 744h932l-43 -310h-608
l-35 -241q106 45 231 45z" />
    <glyph glyph-name="six.lf" horiz-adv-x="1236" 
d="M739 993q203 0 331 -123.5t128 -316.5q0 -141 -66 -265.5t-184 -203.5q-166 -113 -393 -113q-225 0 -365.5 124t-140.5 333q0 181 109 373q74 133 192 262l334 371h406l-416 -447q30 6 65 6zM764 340q82 73 82 186q0 81 -50.5 128.5t-142.5 47.5q-121 0 -194 -79
q-60 -66 -60 -174q0 -79 49 -124.5t140 -45.5q106 0 176 61z" />
    <glyph glyph-name="seven.lf" horiz-adv-x="1097" 
d="M156 1434h1040l-39 -287l-708 -1147h-390l709 1114h-657z" />
    <glyph glyph-name="eight.lf" horiz-adv-x="1269" 
d="M975 737q219 -78 219 -286q0 -128 -68 -233.5t-186 -166.5q-154 -80 -375 -80q-250 0 -388 99.5t-138 265.5q0 110 52 200.5t147 147.5q59 34 118 53q-182 83 -182 267q0 103 54 199t143 155q151 104 385 104q230 0 358.5 -99.5t128.5 -254.5q0 -111 -56.5 -200.5
t-158.5 -145.5zM567 1126q-55 -50 -55 -137q0 -62 42 -95.5t126 -33.5q97 0 149 43q33 25 50.5 66.5t17.5 81.5q0 61 -42.5 95t-127.5 34q-106 0 -160 -54zM758 307q37 23 58.5 63.5t21.5 84.5q0 66 -47.5 102.5t-145.5 36.5q-121 0 -182 -55q-27 -25 -41 -64t-14 -76
q0 -133 186 -133q105 0 164 41z" />
    <glyph glyph-name="nine.lf" horiz-adv-x="1236" 
d="M731 1462q227 0 369.5 -121.5t142.5 -330.5q0 -154 -88 -334q-75 -150 -215 -305l-334 -371h-405l417 444q-46 -4 -67 -4q-202 0 -329.5 124t-127.5 317q0 122 50.5 235t140.5 191q175 155 446 155zM817 801q76 67 76 182q0 80 -49.5 126t-141.5 46q-116 0 -188 -72
q-34 -35 -52 -84.5t-18 -95.5q0 -79 49 -124.5t140 -45.5q113 0 184 68z" />
    <glyph glyph-name="zero.tf" 
d="M657 -29q-241 0 -371 143.5t-130 415.5q0 205 63 411.5t180 332.5q173 188 451 188q241 0 371.5 -143.5t130.5 -415.5q0 -225 -72 -440.5t-209 -339.5q-166 -152 -414 -152zM686 291q119 0 186 94q59 81 90 230.5t31 283.5q0 131 -43 187.5t-133 56.5q-119 0 -188 -99
q-54 -81 -84.5 -233t-30.5 -281q0 -128 41.5 -183.5t130.5 -55.5z" />
    <glyph glyph-name="one.tf" 
d="M946 311h299l-43 -311h-1007l43 311h360l107 760l-343 -156l46 328l401 191h295z" />
    <glyph glyph-name="two.tf" 
d="M1038 614l-356 -295h551l-45 -319h-1067l37 258l571 473q118 97 177 165.5t59 137.5q0 50 -36.5 79.5t-99.5 29.5q-84 0 -166.5 -55t-154.5 -166l-254 165q93 179 250 277t358 98q209 0 336 -105t127 -267q0 -135 -75 -249t-212 -227z" />
    <glyph glyph-name="three.tf" 
d="M1010 727q106 -36 161.5 -109t55.5 -174q0 -104 -49.5 -199t-133.5 -157q-155 -117 -403 -117q-165 0 -300 55t-226 164l219 236q127 -139 305 -139q113 0 180 51q58 45 58 108q0 121 -248 121h-115l43 312h148q126 0 186 51q47 36 47 106q0 111 -154 111
q-162 0 -321 -150l-199 220q96 117 242 181t323 64q212 0 340.5 -95t128.5 -257q0 -99 -42 -185t-119 -139q-53 -38 -127 -59z" />
    <glyph glyph-name="four.tf" 
d="M1348 559l-39 -287h-160l-39 -272h-340l39 272h-686l39 287l756 875h393l-123 -875h160zM502 559h346l67 479z" />
    <glyph glyph-name="five.tf" 
d="M864 928q187 0 303.5 -108t116.5 -285q0 -136 -54.5 -257t-158.5 -194q-155 -113 -416 -113q-161 0 -286.5 51.5t-231.5 165.5l213 242q137 -143 316 -143q127 0 202 65q60 57 60 140q0 70 -46 109.5t-130 39.5q-125 0 -234 -74l-235 123l104 744h932l-43 -310h-608
l-35 -241q106 45 231 45z" />
    <glyph glyph-name="six.tf" 
d="M856 993q203 0 331 -123.5t128 -316.5q0 -141 -66 -265.5t-184 -203.5q-166 -113 -393 -113q-225 0 -365.5 124t-140.5 333q0 183 108 373q73 130 193 262l334 371h405l-415 -447q30 6 65 6zM881 340q82 73 82 186q0 81 -50.5 128.5t-142.5 47.5q-122 0 -195 -79
q-59 -65 -59 -174q0 -79 49 -124.5t140 -45.5q106 0 176 61z" />
    <glyph glyph-name="seven.tf" 
d="M336 1434h1077l-39 -287l-708 -1147h-390l709 1114h-694z" />
    <glyph glyph-name="eight.tf" 
d="M1067 737q219 -78 219 -286q0 -128 -68 -233.5t-186 -166.5q-154 -80 -375 -80q-250 0 -388 99.5t-138 265.5q0 110 52 200.5t147 147.5q58 33 119 53q-183 83 -183 267q0 103 54 199t143 155q151 104 385 104q230 0 358.5 -99.5t128.5 -254.5q0 -111 -56.5 -200.5
t-158.5 -145.5zM659 1126q-55 -50 -55 -137q0 -62 42 -95.5t126 -33.5q98 0 150 43q33 25 50 66t17 82q0 61 -42.5 95t-127.5 34q-106 0 -160 -54zM850 307q37 23 58.5 63.5t21.5 84.5q0 66 -47.5 102.5t-145.5 36.5q-121 0 -182 -55q-27 -25 -41 -64t-14 -76
q0 -133 186 -133q105 0 164 41z" />
    <glyph glyph-name="nine.tf" 
d="M836 1462q227 0 369.5 -121.5t142.5 -330.5q0 -154 -88 -334q-74 -148 -216 -305l-333 -371h-406l418 444q-46 -4 -68 -4q-202 0 -329 124t-127 317q0 122 50 235.5t140 190.5q175 155 447 155zM922 801q75 66 75 182q0 80 -49 126t-141 46q-117 0 -189 -72
q-33 -35 -51 -84.5t-18 -95.5q0 -79 48.5 -124.5t139.5 -45.5q114 0 185 68z" />
    <glyph glyph-name="zero.tf.zero" 
d="M850 1462q241 0 371.5 -143.5t130.5 -415.5q0 -225 -72 -440.5t-209 -339.5q-166 -152 -414 -152q-241 0 -371 143.5t-130 415.5q0 205 63 411.5t180 332.5q173 188 451 188zM629 1044q-54 -81 -84.5 -233t-30.5 -281q0 -41 2 -59l389 653q-40 19 -88 19q-119 0 -188 -99
zM872 385q59 81 90 230.5t31 283.5q0 41 -2 59l-389 -651q33 -16 84 -16q119 0 186 94z" />
    <glyph glyph-name="zero.subs" horiz-adv-x="786" 
d="M301 -152q-139 0 -217 85t-78 235q0 109 38.5 216t107.5 173q102 102 256 102q139 0 216.5 -84.5t77.5 -234.5q0 -109 -38 -215.5t-107 -175.5q-109 -101 -256 -101zM328 63q59 0 86 48q21 32 35 107t14 124q0 56 -20 79t-62 23q-59 0 -86 -45q-20 -34 -34.5 -109.5
t-14.5 -123.5q0 -56 20 -79.5t62 -23.5z" />
    <glyph glyph-name="one.subs" horiz-adv-x="518" 
d="M258 641h195l-109 -774h-233l73 524l-164 -74l31 228z" />
    <glyph glyph-name="two.subs" horiz-adv-x="679" 
d="M463 190l-135 -110h247l-28 -213h-590l25 184l264 217q12 10 31.5 26.5t29.5 24.5t24 20.5t20.5 20t14 17t10.5 17.5t3 16q0 30 -43 30q-65 0 -148 -86l-161 127q50 83 137.5 130.5t193.5 47.5q120 0 191.5 -58.5t71.5 -151.5q0 -76 -40.5 -135t-117.5 -124z" />
    <glyph glyph-name="three.subs" horiz-adv-x="663" 
d="M461 258q100 -43 100 -162q0 -105 -80.5 -174t-222.5 -69q-188 0 -295 116l129 162q75 -61 160 -61q78 0 78 43t-78 43h-88l29 200h71q98 0 98 56q0 30 -57 30q-64 0 -141 -61l-146 149q129 129 312 129q120 0 195 -55.5t75 -152.5q0 -69 -36.5 -119.5t-102.5 -73.5z" />
    <glyph glyph-name="four.subs" horiz-adv-x="737" 
d="M666 190l-27 -192h-84l-18 -131h-213l18 131h-375l27 190l375 453h276l-63 -451h84zM223 190h146l28 213z" />
    <glyph glyph-name="five.subs" horiz-adv-x="690" 
d="M371 365q107 0 171 -59.5t64 -158.5q0 -141 -94.5 -220t-253.5 -79q-173 0 -297 115l129 162q90 -64 162 -64q54 0 84.5 19.5t30.5 50.5q0 47 -66 47q-42 0 -88 -24l-162 90l58 397h505l-30 -209h-291l-10 -80q44 13 88 13z" />
    <glyph glyph-name="six.subs" horiz-adv-x="718" 
d="M397 387q101 0 168.5 -67t67.5 -164q0 -133 -104 -220.5t-253 -87.5q-128 0 -210 68.5t-82 183.5q0 96 55 199.5t145 198.5l135 143h271l-240 -258q28 4 47 4zM297 53q45 0 72.5 24.5t27.5 65.5q0 31 -20 48.5t-58 17.5q-49 0 -74.5 -26.5t-25.5 -67.5q0 -29 20.5 -45.5
t57.5 -16.5z" />
    <glyph glyph-name="seven.subs" horiz-adv-x="626" 
d="M45 641h569l-24 -197l-352 -577h-265l349 557h-308z" />
    <glyph glyph-name="eight.subs" horiz-adv-x="724" 
d="M518 264q105 -50 105 -151q0 -123 -100 -194t-249 -71q-144 0 -221.5 57.5t-77.5 149.5q0 73 42.5 125.5t115.5 81.5q-84 47 -84 141q0 116 94 186t234 70q130 0 200 -54.5t70 -141.5q0 -138 -129 -199zM354 463q-82 0 -82 -68q0 -43 66 -43q80 0 80 66q0 45 -64 45z
M295 49q90 0 90 70q0 45 -74 45q-88 0 -88 -68q0 -47 72 -47z" />
    <glyph glyph-name="nine.subs" horiz-adv-x="727" 
d="M371 659q130 0 210.5 -67.5t80.5 -183.5q0 -183 -201 -398l-133 -143h-273l240 258q-28 -4 -47 -4q-101 0 -167.5 66t-66.5 163q0 137 103 223t254 86zM326 299q45 0 72.5 24.5t27.5 65.5q0 31 -20 48.5t-58 17.5q-49 0 -74.5 -27t-25.5 -68q0 -29 20.5 -45t57.5 -16z
" />
    <glyph glyph-name="zero.dnom" horiz-adv-x="786" 
d="M319 -29q-139 0 -216.5 85t-77.5 235q0 110 38.5 217t106.5 172q102 102 256 102q139 0 217 -84.5t78 -234.5q0 -109 -38.5 -215.5t-107.5 -175.5q-109 -101 -256 -101zM346 186q59 0 86 47q21 32 35 107.5t14 124.5q0 56 -20 79t-62 23q-59 0 -86 -45
q-20 -34 -34.5 -109.5t-14.5 -123.5q0 -56 20 -79.5t62 -23.5z" />
    <glyph glyph-name="one.dnom" horiz-adv-x="518" 
d="M276 764h195l-109 -774h-233l74 524l-164 -74l31 228z" />
    <glyph glyph-name="two.dnom" horiz-adv-x="679" 
d="M481 313l-135 -110h248l-29 -213h-590l25 184l264 217q13 11 32 26.5t29 24t23.5 20.5t21 20t14.5 17t10 17t3 16q0 14 -11.5 22.5t-31.5 8.5q-64 0 -147 -86l-162 127q50 83 138 130.5t194 47.5q120 0 191 -58.5t71 -152.5q0 -76 -40 -134.5t-118 -123.5z" />
    <glyph glyph-name="three.dnom" horiz-adv-x="663" 
d="M479 381q101 -43 101 -162q0 -105 -81 -174.5t-223 -69.5q-186 0 -294 117l129 162q75 -61 159 -61q78 0 78 43t-78 43h-88l29 200h72q98 0 98 56q0 30 -57 30q-65 0 -142 -61l-145 149q129 129 311 129q120 0 195 -55.5t75 -153.5q0 -69 -36.5 -119t-102.5 -73z" />
    <glyph glyph-name="four.dnom" horiz-adv-x="737" 
d="M684 313l-27 -192h-84l-18 -131h-213l18 131h-374l26 190l375 453h277l-64 -451h84zM242 313h145l29 213z" />
    <glyph glyph-name="five.dnom" horiz-adv-x="690" 
d="M389 487q107 0 171.5 -59.5t64.5 -157.5q0 -141 -95 -220t-254 -79q-172 0 -296 115l129 162q90 -64 161 -64q54 0 84.5 19.5t30.5 50.5q0 47 -66 47q-40 0 -88 -25l-161 91l57 397h506l-31 -209h-291l-10 -80q40 12 88 12z" />
    <glyph glyph-name="six.dnom" horiz-adv-x="718" 
d="M416 510q101 0 168 -67t67 -164q0 -133 -103.5 -220.5t-252.5 -87.5q-128 0 -210.5 68.5t-82.5 183.5q0 96 55.5 199.5t145.5 198.5l135 143h270l-239 -258q28 4 47 4zM315 176q45 0 73 24.5t28 65.5q0 31 -20 48.5t-58 17.5q-49 0 -74.5 -26.5t-25.5 -67.5
q0 -29 20 -45.5t57 -16.5z" />
    <glyph glyph-name="seven.dnom" horiz-adv-x="626" 
d="M63 764h570l-25 -197l-352 -577h-264l348 557h-307z" />
    <glyph glyph-name="eight.dnom" horiz-adv-x="724" 
d="M537 387q104 -49 104 -151q0 -123 -99.5 -194t-248.5 -71q-144 0 -221.5 57.5t-77.5 149.5q0 73 42.5 125.5t115.5 81.5q-84 47 -84 141q0 116 93.5 186t233.5 70q130 0 200.5 -54.5t70.5 -141.5q0 -138 -129 -199zM373 586q-82 0 -82 -68q0 -43 65 -43q80 0 80 66
q0 45 -63 45zM313 172q90 0 90 70q0 45 -73 45q-88 0 -88 -68q0 -24 16 -35.5t55 -11.5z" />
    <glyph glyph-name="nine.dnom" horiz-adv-x="727" 
d="M389 782q130 0 210.5 -67.5t80.5 -184.5q0 -182 -201 -397l-133 -143h-272l239 258q-28 -4 -47 -4q-101 0 -167 66t-66 163q0 137 102.5 223t253.5 86zM344 422q45 0 72.5 24.5t27.5 65.5q0 66 -77 66q-49 0 -75 -27t-26 -68q0 -29 20.5 -45t57.5 -16z" />
    <glyph glyph-name="zero.numr" horiz-adv-x="786" 
d="M414 651q-139 0 -217 85t-78 235q0 110 38.5 217t106.5 172q102 102 256 102q139 0 217 -84.5t78 -234.5q0 -109 -38 -215.5t-107 -175.5q-109 -101 -256 -101zM440 866q59 0 86 47q21 32 35 107.5t14 124.5q0 56 -19.5 79t-61.5 23q-59 0 -86 -45q-20 -34 -35 -109.5
t-15 -123.5q0 -56 20 -79.5t62 -23.5z" />
    <glyph glyph-name="one.numr" horiz-adv-x="518" 
d="M371 1444h194l-108 -774h-234l74 524l-164 -74l31 228z" />
    <glyph glyph-name="two.numr" horiz-adv-x="679" 
d="M575 993l-135 -110h248l-29 -213h-589l24 184l264 217q13 11 31.5 26.5t29.5 24t24.5 20.5t21 20t14.5 17t10 17t3 16q0 14 -11.5 22.5t-31.5 8.5q-65 0 -148 -86l-162 127q50 83 138 130.5t194 47.5q120 0 191 -58.5t71 -152.5q0 -76 -40 -134.5t-118 -123.5z" />
    <glyph glyph-name="three.numr" horiz-adv-x="663" 
d="M573 1061q101 -43 101 -162q0 -105 -80.5 -174.5t-222.5 -69.5q-187 0 -295 117l129 162q76 -62 160 -62q77 0 77 43t-77 43h-89l29 201h72q98 0 98 55q0 31 -57 31q-65 0 -142 -61l-145 149q129 129 311 129q120 0 195.5 -55.5t75.5 -153.5q0 -69 -37 -119t-103 -73z
" />
    <glyph glyph-name="four.numr" horiz-adv-x="737" 
d="M778 993l-26 -192h-84l-19 -131h-213l19 131h-375l26 190l375 453h277l-64 -451h84zM336 993h145l29 213z" />
    <glyph glyph-name="five.numr" horiz-adv-x="690" 
d="M483 1167q107 0 171.5 -59.5t64.5 -157.5q0 -141 -94.5 -220t-253.5 -79q-173 0 -297 115l129 162q90 -64 162 -64q54 0 84 19t30 51q0 47 -65 47q-40 0 -88 -25l-162 91l57 397h506l-31 -209h-290l-11 -80q40 12 88 12z" />
    <glyph glyph-name="six.numr" horiz-adv-x="718" 
d="M510 1190q100 0 167.5 -67t67.5 -165q0 -133 -103.5 -220t-252.5 -87q-128 0 -210.5 68.5t-82.5 183.5q0 96 55.5 199t145.5 198l135 144h270l-239 -258q28 4 47 4zM410 856q45 0 72.5 24.5t27.5 65.5q0 31 -20 48.5t-58 17.5q-49 0 -74.5 -26.5t-25.5 -67.5
q0 -29 20.5 -45.5t57.5 -16.5z" />
    <glyph glyph-name="seven.numr" horiz-adv-x="626" 
d="M158 1444h569l-25 -197l-352 -577h-264l348 557h-307z" />
    <glyph glyph-name="eight.numr" horiz-adv-x="724" 
d="M631 1067q104 -49 104 -152q0 -123 -99.5 -193.5t-248.5 -70.5q-144 0 -221.5 57.5t-77.5 149.5q0 73 42.5 125.5t115.5 81.5q-84 47 -84 141q0 116 93.5 186t233.5 70q130 0 200.5 -54.5t70.5 -141.5q0 -138 -129 -199zM467 1266q-82 0 -82 -68q0 -43 66 -43q79 0 79 66
q0 45 -63 45zM408 852q90 0 90 70q0 45 -74 45q-88 0 -88 -68q0 -47 72 -47z" />
    <glyph glyph-name="nine.numr" horiz-adv-x="727" 
d="M483 1462q130 0 210.5 -67.5t80.5 -184.5q0 -182 -201 -397l-133 -143h-272l240 258q-28 -4 -48 -4q-101 0 -167 66t-66 163q0 137 102.5 223t253.5 86zM438 1102q45 0 73 24.5t28 65.5q0 65 -78 65q-49 0 -75 -26.5t-26 -67.5q0 -29 20.5 -45t57.5 -16z" />
    <glyph glyph-name="zero.sups" horiz-adv-x="786" 
d="M422 705q-139 0 -217 84.5t-78 234.5q0 110 38.5 217t106.5 172q103 103 256 103q139 0 217 -85t78 -235q0 -109 -38 -215.5t-107 -175.5q-108 -100 -256 -100zM449 920q59 0 86 47q21 32 35 107t14 124q0 56 -20 79t-62 23q-59 0 -86 -45q-20 -34 -34.5 -109.5
t-14.5 -123.5q0 -56 20 -79t62 -23z" />
    <glyph glyph-name="one.sups" horiz-adv-x="518" 
d="M379 1497h194l-108 -774h-234l74 524l-164 -73l31 227z" />
    <glyph glyph-name="two.sups" horiz-adv-x="679" 
d="M584 1047l-135 -111h247l-28 -213h-590l24 184l265 217q12 10 31.5 26.5t29.5 24.5t24 20.5t20.5 20t14 17t10.5 17.5t3 16q0 30 -43 30q-65 0 -148 -86l-162 127q50 83 138 131t194 48q120 0 191 -58.5t71 -152.5q0 -76 -40 -134.5t-117 -123.5z" />
    <glyph glyph-name="three.sups" horiz-adv-x="663" 
d="M582 1114q100 -43 100 -162q0 -105 -80.5 -174t-222.5 -69q-188 0 -295 116l129 162q75 -61 160 -61q78 0 78 43t-78 43h-88l28 200h72q98 0 98 56q0 30 -57 30q-64 0 -141 -61l-146 149q130 130 312 130q120 0 195 -55.5t75 -153.5q0 -69 -36.5 -119.5t-102.5 -73.5z
" />
    <glyph glyph-name="four.sups" horiz-adv-x="737" 
d="M786 1047l-26 -193h-84l-19 -131h-213l19 131h-375l27 190l374 453h277l-64 -450h84zM344 1047h145l29 213z" />
    <glyph glyph-name="five.sups" horiz-adv-x="690" 
d="M492 1221q107 0 171 -59.5t64 -157.5q0 -141 -94.5 -220t-253.5 -79q-174 0 -297 114l129 162q88 -63 162 -63q54 0 84 19t30 50q0 47 -65 47q-42 0 -88 -24l-162 90l57 397h506l-30 -209h-291l-11 -80q44 13 89 13z" />
    <glyph glyph-name="six.sups" horiz-adv-x="718" 
d="M518 1243q101 0 168.5 -67t67.5 -164q0 -133 -104 -220t-253 -87q-129 0 -211 68t-82 183q0 96 55.5 199.5t145.5 198.5l135 143h271l-240 -258q28 4 47 4zM418 909q45 0 72.5 24.5t27.5 65.5q0 31 -20 48.5t-58 17.5q-49 0 -74.5 -26.5t-25.5 -67.5q0 -29 20.5 -45.5
t57.5 -16.5z" />
    <glyph glyph-name="seven.sups" horiz-adv-x="626" 
d="M166 1497h569l-24 -197l-353 -577h-264l348 557h-307z" />
    <glyph glyph-name="eight.sups" horiz-adv-x="724" 
d="M639 1120q104 -49 104 -151q0 -123 -99.5 -193.5t-248.5 -70.5q-144 0 -221.5 57t-77.5 149q0 73 42.5 125.5t115.5 81.5q-84 47 -84 142q0 116 94 186t234 70q130 0 200 -55t70 -142q0 -138 -129 -199zM475 1319q-82 0 -82 -68q0 -43 66 -43q80 0 80 66q0 45 -64 45z
M416 905q90 0 90 70q0 45 -74 45q-88 0 -88 -68q0 -47 72 -47z" />
    <glyph glyph-name="nine.sups" horiz-adv-x="727" 
d="M492 1516q130 0 210 -67.5t80 -184.5q0 -185 -200 -398l-133 -143h-273l240 258q-28 -4 -47 -4q-101 0 -167.5 66t-66.5 163q0 137 103 223.5t254 86.5zM446 1155q45 0 73 24.5t28 65.5q0 31 -20 48.5t-58 17.5q-49 0 -74.5 -26.5t-25.5 -67.5q0 -29 20 -45.5t57 -16.5z
" />
    <glyph glyph-name="colon.case" horiz-adv-x="612" 
d="M375 827q-97 0 -154 53t-57 142q0 108 62 176t169 68q97 0 154 -53t57 -142q0 -108 -62 -176t-169 -68zM283 176q-97 0 -154 53t-57 142q0 108 62 175.5t169 67.5q97 0 154 -52.5t57 -141.5q0 -108 -62 -176t-169 -68z" />
    <glyph glyph-name="exclamdown.case" horiz-adv-x="663" 
d="M442 1462q97 0 154 -52.5t57 -141.5q0 -108 -62 -176t-169 -68q-97 0 -154 53t-57 142q0 108 62 175.5t169 67.5zM543 922l-101 -922h-368l157 922h312z" />
    <glyph glyph-name="questiondown.case" horiz-adv-x="970" 
d="M631 1462q97 0 154 -52.5t57 -141.5q0 -108 -62.5 -176t-169.5 -68q-97 0 -154 53t-57 142q0 108 62.5 175.5t169.5 67.5zM737 922l-14 -97q-13 -102 -50 -154t-155 -141l-98 -73q-82 -64 -82 -121q0 -31 25.5 -48.5t68.5 -17.5q136 0 262 166l221 -166
q-76 -135 -212 -217t-304 -82q-173 0 -285 86.5t-112 229.5q0 77 28.5 143t74.5 115t120 104l86 64q54 41 69.5 63.5t22.5 71.5l11 74h323z" />
    <glyph glyph-name="periodcentered.case" horiz-adv-x="602" 
d="M322 518q-97 0 -154 53t-57 142q0 108 62 175.5t169 67.5q97 0 154 -52.5t57 -141.5q0 -108 -62 -176t-169 -68z" />
    <glyph glyph-name="bullet.case" horiz-adv-x="1052" 
d="M555 371q-153 0 -255.5 103.5t-102.5 254.5t102.5 254.5t255.5 103.5t255.5 -103.5t102.5 -254.5t-102.5 -254.5t-255.5 -103.5z" />
    <glyph glyph-name="parenleft.case" horiz-adv-x="741" 
d="M338 -182q-103 145 -157 333.5t-54 385.5q0 289 119 580t325 499l265 -156q-172 -184 -270.5 -435t-98.5 -503q0 -157 35.5 -303.5t105.5 -255.5z" />
    <glyph glyph-name="parenright.case" horiz-adv-x="741" 
d="M457 1616q103 -145 157 -333.5t54 -385.5q0 -289 -119.5 -580t-325.5 -499l-264 155q172 184 270.5 435t98.5 503q0 157 -36 303t-106 256z" />
    <glyph glyph-name="braceleft.case" horiz-adv-x="798" 
d="M674 1593h213l-43 -303h-78q-128 0 -143 -127l-27 -178q-17 -126 -75 -189t-167 -81q200 -51 164 -287l-24 -178q-9 -64 10 -85.5t84 -21.5h96l-43 -303h-197q-159 0 -232 59.5t-73 186.5q0 38 6 82l39 281q10 67 -13 91.5t-91 24.5h-23l43 303h4q68 0 109 35.5t51 102.5
l39 280q23 170 105.5 238.5t265.5 68.5z" />
    <glyph glyph-name="braceright.case" horiz-adv-x="798" 
d="M774 868h23l-43 -303h-4q-68 0 -109 -35t-51 -102l-39 -281q-23 -170 -105.5 -238.5t-265.5 -68.5h-213l43 303h78q128 0 143 127l27 179q17 126 75 189t167 81q-200 51 -164 287l24 178q9 64 -10 85t-84 21h-96l43 303h197q159 0 232 -59t73 -186q0 -38 -6 -82l-39 -281
q-10 -67 13 -92t91 -25z" />
    <glyph glyph-name="bracketleft.case" horiz-adv-x="798" 
d="M844 1290h-264l-158 -1147h262l-43 -303h-598l246 1753h598z" />
    <glyph glyph-name="bracketright.case" horiz-adv-x="800" 
d="M213 1593h598l-246 -1753h-598l43 303h264l158 1147h-262z" />
    <glyph glyph-name="hyphen.case" horiz-adv-x="737" 
d="M70 584l41 295h614l-41 -295h-614z" />
    <glyph glyph-name="endash.case" horiz-adv-x="1146" 
d="M70 588l41 286h1024l-41 -286h-1024z" />
    <glyph glyph-name="emdash.case" horiz-adv-x="2172" 
d="M70 588l41 286h2050l-41 -286h-2050z" />
    <glyph glyph-name="guillemotleft.case" horiz-adv-x="1314" 
d="M807 1188l-389 -463l254 -455h-353l-260 459l383 459h365zM1368 1188l-389 -463l254 -455h-352l-260 459l383 459h364z" />
    <glyph glyph-name="guillemotright.case" horiz-adv-x="1316" 
d="M494 1188l260 -459l-383 -459h-365l389 463l-254 455h353zM1055 1188l260 -459l-383 -459h-365l389 463l-254 455h353z" />
    <glyph glyph-name="guilsinglleft.case" horiz-adv-x="753" 
d="M807 1188l-389 -463l254 -455h-353l-260 459l383 459h365z" />
    <glyph glyph-name="guilsinglright.case" horiz-adv-x="755" 
d="M494 1188l260 -459l-383 -459h-365l389 463l-254 455h353z" />
    <glyph glyph-name="cent.tf" 
d="M846 481q98 20 170 109l227 -178q-65 -107 -181 -172t-261 -74l-23 -166h-127l23 168q-194 23 -307 149t-113 318q0 147 64.5 286t175.5 224q142 108 335 123l23 166h127l-23 -168q130 -13 225.5 -76.5t147.5 -167.5l-276 -178q-49 88 -142 108zM596 670
q0 -71 32.5 -119.5t90.5 -65.5l65 463q-55 -15 -98 -55q-43 -39 -66.5 -101t-23.5 -122z" />
    <glyph glyph-name="currency.tf" 
d="M1196 770q0 -164 -92 -283l104 -122l-153 -136l-109 127q-106 -53 -237 -53q-124 0 -215 51l-166 -143l-129 154l151 133q-41 74 -41 168q0 157 92 280l-104 123l154 135l110 -127q106 53 238 53q124 0 215 -51l164 144l129 -154l-152 -133q41 -74 41 -166zM618 694
q0 -51 31 -80.5t86 -29.5q69 0 110.5 45.5t41.5 109.5q0 51 -30.5 81t-84.5 30q-69 0 -111.5 -46t-42.5 -110z" />
    <glyph glyph-name="dollar.tf" 
d="M969 840q311 -79 311 -330q0 -122 -62.5 -228.5t-168.5 -168.5q-130 -76 -316 -82l-18 -133h-127l18 137q-164 17 -285 90t-184 192l252 187q85 -136 260 -166l35 254l-96 24q-162 41 -244 128t-82 210q0 102 45.5 192t128.5 150q141 101 363 107l18 133h127l-18 -139
q146 -15 250.5 -77t162.5 -159l-252 -184q-80 102 -204 123l-33 -230zM606 999q0 -31 27.5 -54t95.5 -44l29 205q-68 -6 -107 -31q-45 -30 -45 -76zM885 369q49 32 49 88q0 35 -28.5 59t-98.5 45l-31 -227q68 6 109 35z" />
    <glyph glyph-name="Euro.tf" 
d="M823 291q61 0 116.5 44.5t94.5 127.5l269 -141q-63 -159 -202 -255t-308 -96q-199 0 -330 133t-154 365h-153l26 193h127q6 53 15 110h-125l26 193h150q61 175 166 299q173 198 420 198q167 0 284 -94t168 -256l-299 -137q-23 82 -68 125t-106 43q-87 0 -156 -90
q-33 -46 -51 -88h297l-26 -193h-328q-12 -73 -14 -110h325l-26 -193h-295q30 -178 157 -178z" />
    <glyph glyph-name="florin.tf" 
d="M1180 1122q-69 0 -102.5 -20.5t-51.5 -77.5l-43 -131h234l-27 -188h-268l-228 -689q-53 -158 -147.5 -229.5t-257.5 -71.5h-174l43 312h73q69 0 101.5 20t52.5 78l193 580h-211l26 188h246l80 240q53 159 147 230t256 71h174l-43 -312h-73z" />
    <glyph glyph-name="sterling.tf" 
d="M725 582l-39 -275h533l-43 -307h-1018l43 307h137l39 275h-127l35 245h127l26 187q30 215 149.5 331.5t336.5 116.5q300 0 434 -243l-285 -181q-29 52 -64 74.5t-83 22.5q-124 0 -144 -146l-22 -162h426l-35 -245h-426z" />
    <glyph glyph-name="yen.tf" 
d="M1470 1434l-462 -656h272l-27 -200h-342l-20 -136h342l-27 -200h-342l-35 -242h-352l35 242h-340l27 200h340l20 136h-340l27 200h270l-278 656h360l182 -469l314 469h376z" />
    <glyph glyph-name="plus.tf" 
d="M1247 870l-43 -307h-309l-47 -336h-324l47 336h-309l43 307h309l48 336h323l-47 -336h309z" />
    <glyph glyph-name="minus.tf" 
d="M262 563l43 307h942l-43 -307h-942z" />
    <glyph glyph-name="multiply.tf" 
d="M1268 983l-303 -264l227 -268l-244 -209l-227 266l-305 -266l-174 209l303 264l-228 268l244 209l227 -266l306 266z" />
    <glyph glyph-name="divide.tf" 
d="M786 948q-83 0 -129.5 40.5t-46.5 109.5q0 96 64.5 155.5t163.5 59.5q83 0 130.5 -41t47.5 -111q0 -94 -65.5 -153.5t-164.5 -59.5zM262 563l43 307h942l-43 -307h-942zM672 121q-84 0 -131 41t-47 112q0 93 65.5 152t163.5 59q83 0 129.5 -40t46.5 -109q0 -97 -63 -156
t-164 -59z" />
    <glyph glyph-name="equal.tf" 
d="M293 788l43 308h942l-43 -308h-942zM229 338l43 307h942l-43 -307h-942z" />
    <glyph glyph-name="notequal.tf" 
d="M1235 788h-320l-77 -143h376l-43 -307h-497l-103 -193h-247l102 193h-197l43 307h318l78 143h-375l43 308h495l103 192h248l-103 -192h199z" />
    <glyph glyph-name="greater.tf" 
d="M352 1210l893 -346l-39 -295l-991 -346l43 324l508 170l-457 170z" />
    <glyph glyph-name="less.tf" 
d="M1294 1210l-43 -323l-508 -170l457 -170l-43 -324l-893 346l39 295z" />
    <glyph glyph-name="greaterequal.tf" 
d="M373 1354l899 -305l-41 -295l-983 -305l43 315l522 137l-483 137zM195 82l43 307h942l-43 -307h-942z" />
    <glyph glyph-name="lessequal.tf" 
d="M1313 1352l-43 -316l-522 -137l483 -137l-43 -316l-899 306l41 295zM195 80l43 307h942l-43 -307h-942z" />
    <glyph glyph-name="plusminus.tf" 
d="M967 1079h309l-43 -307h-307l-39 -274h-324l39 274h-311l43 307h309l39 275h324zM195 82l43 307h942l-43 -307h-942z" />
    <glyph glyph-name="approxequal.tf" 
d="M973 739q-75 0 -207 51.5t-207 51.5q-70 0 -131 -22t-139 -70l43 307q136 90 272 90q72 0 207 -51.5t203 -51.5q143 0 272 93l-43 -308q-141 -90 -270 -90zM911 289q-75 0 -207.5 51t-207.5 51q-70 0 -131.5 -22t-139.5 -70l43 307q136 90 275 90q72 0 205.5 -51
t201.5 -51q145 0 273 92l-43 -307q-70 -45 -133 -67.5t-136 -22.5z" />
    <glyph glyph-name="logicalnot.tf" 
d="M317 971h943l-70 -506h-320l27 199h-623z" />
    <glyph glyph-name="asciitilde.tf" 
d="M940 514q-75 0 -208 51t-208 51q-70 0 -130 -21.5t-138 -70.5l43 307q137 91 272 91q72 0 207 -51.5t203 -51.5q146 0 270 92l-43 -307q-71 -45 -133 -67.5t-135 -22.5z" />
    <glyph glyph-name="at.case" horiz-adv-x="1679" 
d="M975 1464q185 0 338 -74t242.5 -209t89.5 -304q0 -99 -29.5 -193t-81 -167.5t-129.5 -118t-168 -44.5q-85 0 -156 40.5t-94 101.5q-70 -136 -223 -136q-114 0 -186 80.5t-72 210.5q0 171 96 289.5t248 118.5q119 0 166 -86l8 63h227l-51 -372q-6 -44 8 -67.5t41 -23.5
q33 0 60 26.5t43 68.5t24 87.5t8 88.5q0 177 -109.5 275t-301.5 98q-208 0 -361 -109q-117 -84 -180 -208.5t-63 -276.5q0 -191 115.5 -299.5t324.5 -108.5q85 0 169.5 17.5t139.5 46.5l94 -216q-178 -94 -413 -94q-312 0 -502.5 176.5t-190.5 462.5q0 202 93.5 388
t255.5 304q224 164 520 164zM854 582q57 0 92 45t35 110q0 48 -25 74.5t-67 26.5q-60 0 -92.5 -47.5t-32.5 -112.5q0 -45 24.5 -70.5t65.5 -25.5z" />
    </font>
</defs>
</svg>
